<svg xmlns="http://www.w3.org/2000/svg" viewBox="0 0 158.72 89.91"><defs><style>.cls-1,.cls-15{fill:#fff;}.cls-2{fill:none;}.cls-2,.cls-9{stroke:#1f3238;stroke-miterlimit:10;}.cls-3{font-size:3.07px;}.cls-10,.cls-11,.cls-3,.cls-6{fill:#1f3238;}.cls-3,.cls-6{font-family:Lato-Regular, Lato;}.cls-4{letter-spacing:-0.02em;}.cls-5{letter-spacing:0em;}.cls-6{font-size:3.07px;letter-spacing:-0.01em;}.cls-7{letter-spacing:0em;}.cls-8{letter-spacing:-0.02em;}.cls-9{fill:#da4626;}.cls-10,.cls-15{font-size:7.07px;}.cls-10,.cls-11,.cls-15{font-family:Oswald-Regular, Oswald Regular;}.cls-11{font-size:7.49px;}.cls-12{font-size:6px;}.cls-13{letter-spacing:-0.04em;}.cls-14{letter-spacing:-0.01em;}.cls-16{letter-spacing:-0.04em;}.cls-17{letter-spacing:-0.03em;}</style></defs><title>bbar-events-patio@1x</title><g id="Layer_2" data-name="Layer 2"><g id="Layer_1-2" data-name="Layer 1"><rect class="cls-1" width="158.72" height="89.91"/><rect class="cls-2" x="60.04" y="49.82" width="44.89" height="38.37"/><rect class="cls-2" x="2.28" y="5.95" width="20.44" height="43.87"/><rect class="cls-2" x="22.73" y="5.95" width="42.17" height="43.87"/><polygon class="cls-2" points="150.15 61.39 104.93 61.39 104.93 88.19 156.82 88.19 150.15 61.39"/><text class="cls-3" transform="translate(123.31 3.47)">E 4th <tspan class="cls-4" x="7.94" y="0">S</tspan><tspan class="cls-5" x="9.54" y="0">t</tspan></text><text class="cls-6" transform="matrix(0.25, 0.97, -0.97, 0.25, 138.94, 8.03)">Bow<tspan class="cls-7" x="6.07" y="0">er</tspan><tspan class="cls-8" x="8.81" y="0">y</tspan></text><rect class="cls-1" x="10.01" y="5.63" width="10.77" height="0.61"/><rect class="cls-1" x="47.42" y="49.38" width="10.77" height="0.89"/><rect class="cls-9" x="64.9" y="5.95" width="40.03" height="43.87"/><rect class="cls-1" x="66.88" y="49.38" width="10.77" height="0.89"/><rect class="cls-1" x="17.39" y="11.29" width="10.77" height="0.69" transform="translate(34.41 -11.14) rotate(90)"/><rect class="cls-1" x="17.38" y="43.79" width="10.79" height="0.68" transform="translate(66.9 21.36) rotate(90)"/><rect class="cls-1" x="59.52" y="11.26" width="10.77" height="0.78" transform="translate(76.54 -53.26) rotate(90)"/><rect class="cls-1" x="59.53" y="43.76" width="10.77" height="0.75" transform="translate(109.04 -20.78) rotate(90)"/><rect class="cls-1" x="54.66" y="56.58" width="10.77" height="0.75" transform="translate(117 -3.09) rotate(90)"/><rect class="cls-1" x="99.54" y="78.53" width="10.77" height="0.75" transform="translate(183.83 -26.02) rotate(90)"/><rect class="cls-1" x="149.65" y="78.71" width="10.77" height="1.9" transform="translate(194.15 -90.2) rotate(75.77)"/><text class="cls-10" transform="translate(25.79 15.98)">DINING<tspan x="0" y="8.49">ROOM</tspan></text><text class="cls-10" transform="translate(64.9 61.39)">CLUB<tspan x="0" y="8.49">ROOM</tspan></text><text class="cls-10" transform="translate(108.68 71.47)">GARDEN<tspan x="0" y="8.49">BAR</tspan></text><text class="cls-11" transform="translate(3.33 15.98)">FRONT<tspan x="0" y="8.99">BAR</tspan><tspan x="0" y="17.98">&amp;</tspan><tspan class="cls-12"><tspan class="cls-13" x="0" y="25.18">P</tspan><tspan x="2.66" y="25.18">AR</tspan><tspan class="cls-14" x="8.72" y="25.18">L</tspan><tspan x="11.06" y="25.18">OR</tspan></tspan></text><polygon class="cls-2" points="136.35 5.95 150.15 61.39 104.93 61.39 104.93 5.95 136.35 5.95"/><text class="cls-15" transform="translate(68.27 15.98)"><tspan class="cls-16">P</tspan><tspan class="cls-17" x="3.13" y="0">A</tspan><tspan x="6.38" y="0">TIO</tspan></text><rect class="cls-1" x="107.66" y="60.94" width="10.77" height="0.99"/><rect class="cls-1" x="83.44" y="27.4" width="43.28" height="0.98" transform="translate(132.96 -77.19) rotate(90)"/><text class="cls-10" transform="translate(108.68 15.98)">OUTSIDE<tspan x="0" y="8.49">GARDEN</tspan></text><rect class="cls-1" x="106.58" y="4.82" width="10.77" height="1.9"/></g></g></svg>