<svg xmlns="http://www.w3.org/2000/svg" viewBox="0 0 168.07 95.62"><defs><style>.cls-1,.cls-10{fill:#fff;}.cls-2{fill:none;}.cls-2,.cls-3{stroke:#1f3238;stroke-miterlimit:10;}.cls-3{fill:#da4626;}.cls-4{font-size:3.25px;}.cls-4,.cls-6,.cls-9{fill:#1f3238;}.cls-4,.cls-6{font-family:Lato-Regular, Lato;}.cls-5{letter-spacing:-0.02em;}.cls-6{font-size:3.25px;}.cls-7{letter-spacing:-0.01em;}.cls-8{letter-spacing:-0.02em;}.cls-10,.cls-9{font-size:7.49px;font-family:Oswald-Regular, Oswald Regular;}.cls-11{font-size:6px;}.cls-12{letter-spacing:-0.04em;}.cls-13{letter-spacing:-0.01em;}.cls-14{letter-spacing:-0.04em;}.cls-15{letter-spacing:-0.03em;}</style></defs><title>bbar-events-front-bar-and-parlor@1x</title><g id="Layer_2" data-name="Layer 2"><g id="Layer_1-2" data-name="Layer 1"><rect class="cls-1" width="168.07" height="95.62"/><rect class="cls-2" x="63.45" y="52.97" width="47.53" height="40.63"/><rect class="cls-3" x="2.29" y="6.52" width="21.65" height="46.45"/><rect class="cls-2" x="23.94" y="6.52" width="44.65" height="46.45"/><rect class="cls-2" x="68.59" y="6.52" width="42.39" height="46.45"/><polygon class="cls-2" points="158.86 65.22 110.98 65.22 110.98 93.6 165.93 93.6 158.86 65.22"/><text class="cls-4" transform="translate(130.44 3.89)">E 4th <tspan class="cls-5" x="8.41" y="0">S</tspan><tspan x="10.1" y="0">t</tspan></text><text class="cls-6" transform="matrix(0.25, 0.97, -0.97, 0.25, 146.99, 8.71)"><tspan class="cls-7">Bow</tspan><tspan x="6.43" y="0">er</tspan><tspan class="cls-8" x="9.33" y="0">y</tspan></text><rect class="cls-1" x="10.47" y="6.17" width="11.4" height="0.65"/><rect class="cls-1" x="50.09" y="52.5" width="11.4" height="0.94"/><rect class="cls-1" x="70.69" y="52.5" width="11.4" height="0.94"/><rect class="cls-1" x="18.29" y="12.16" width="11.4" height="0.73" transform="translate(36.51 -11.46) rotate(90)"/><rect class="cls-1" x="18.27" y="46.58" width="11.43" height="0.72" transform="translate(70.93 22.96) rotate(90)"/><rect class="cls-1" x="62.89" y="12.13" width="11.4" height="0.82" transform="translate(81.14 -56.05) rotate(90)"/><rect class="cls-1" x="62.91" y="46.55" width="11.4" height="0.8" transform="translate(115.55 -21.66) rotate(90)"/><rect class="cls-1" x="57.75" y="60.12" width="11.4" height="0.8" transform="translate(123.97 -2.93) rotate(90)"/><rect class="cls-1" x="105.28" y="83.37" width="11.4" height="0.8" transform="translate(194.75 -27.21) rotate(90)"/><rect class="cls-1" x="158.34" y="83.56" width="11.4" height="2.01" transform="translate(205.69 -95.23) rotate(75.77)"/><text class="cls-9" transform="translate(27.18 17.14)">DINING<tspan x="0" y="8.99">ROOM</tspan></text><text class="cls-9" transform="translate(68.59 65.22)">CLUB<tspan x="0" y="8.99">ROOM</tspan></text><text class="cls-9" transform="translate(114.96 75.89)">GARDEN<tspan x="0" y="8.99">BAR</tspan></text><text class="cls-10" transform="translate(4.25 17.14)">FRONT<tspan x="0" y="8.99">BAR</tspan><tspan x="0" y="17.98">&amp;</tspan><tspan class="cls-11"><tspan class="cls-12" x="0" y="25.18">P</tspan><tspan x="2.66" y="25.18">AR</tspan><tspan class="cls-13" x="8.72" y="25.18">L</tspan><tspan x="11.06" y="25.18">OR</tspan></tspan></text><polygon class="cls-2" points="144.25 6.52 158.86 65.22 110.98 65.22 110.98 6.52 144.25 6.52"/><text class="cls-9" transform="translate(72.16 17.14)"><tspan class="cls-14">P</tspan><tspan class="cls-15" x="3.32" y="0">A</tspan><tspan x="6.76" y="0">TIO</tspan></text><rect class="cls-1" x="113.87" y="64.74" width="11.4" height="1.04"/><rect class="cls-1" x="87.9" y="28.9" width="45.83" height="1.69" transform="translate(140.55 -81.07) rotate(90)"/><text class="cls-9" transform="translate(114.96 17.14)">OUTSIDE<tspan x="0" y="8.99">GARDEN</tspan></text><rect class="cls-1" x="112.73" y="5.31" width="11.4" height="2.01"/></g></g></svg>