<svg xmlns="http://www.w3.org/2000/svg" viewBox="0 0 169.43 95.6"><defs><style>.cls-1{fill:#fff;}.cls-2{fill:none;}.cls-2,.cls-4{stroke:#1f3238;stroke-miterlimit:10;}.cls-3{fill:#1f3238;}.cls-4{fill:#da4626;}</style></defs><title>bbar-events-outside-garden</title><g id="Layer_2" data-name="Layer 2"><g id="Layer_1-2" data-name="Layer 1"><rect class="cls-1" width="169.43" height="95.6"/><rect class="cls-2" x="63.97" y="53.14" width="47.38" height="40.5"/><rect class="cls-2" x="3.01" y="6.84" width="21.58" height="46.3"/><rect class="cls-2" x="24.59" y="6.84" width="44.51" height="46.3"/><rect class="cls-2" x="69.1" y="6.84" width="42.25" height="46.3"/><polygon class="cls-2" points="159.08 65.35 111.35 65.35 111.35 93.64 166.12 93.64 159.08 65.35"/><path class="cls-3" d="M132.48,4v.26H131V1.9h1.43v.26h-1.12v.77h.9v.25h-.9V4Z"/><path class="cls-3" d="M135.24,3.38v.17a.06.06,0,0,1,0,0l0,0h-.29v.61h-.25V3.61h-1l-.06,0a.08.08,0,0,1,0,0l0-.15,1.13-1.5h.27V3.38Zm-.6,0v-1s0-.06,0-.09,0-.07,0-.1l-.85,1.15Z"/><path class="cls-3" d="M136.07,4.24a.4.4,0,0,1-.3-.11.43.43,0,0,1-.1-.31v-1h-.24a.06.06,0,0,1,0,0V2.64l.27,0,.07-.51a.07.07,0,0,1,0,0l0,0H136v.57h.48v.21H136v1A.21.21,0,0,0,136,4a.17.17,0,0,0,.13.05h.08l.06,0,0,0h0a.05.05,0,0,1,0,0l.08.14a.54.54,0,0,1-.18.11A.61.61,0,0,1,136.07,4.24Z"/><path class="cls-3" d="M137,2.79a.88.88,0,0,1,.23-.18.63.63,0,0,1,.29-.07.61.61,0,0,1,.24,0,.48.48,0,0,1,.17.13.57.57,0,0,1,.1.2.87.87,0,0,1,0,.25v1h-.29v-1a.44.44,0,0,0-.08-.29.32.32,0,0,0-.26-.1.49.49,0,0,0-.24.06A.78.78,0,0,0,137,3V4.22h-.29V1.83H137Z"/><path class="cls-3" d="M140.62,2.26l0,0h0l-.07,0-.09-.06-.13-.06a.57.57,0,0,0-.19,0,.54.54,0,0,0-.19,0,.38.38,0,0,0-.13.08.3.3,0,0,0-.08.11.36.36,0,0,0,0,.14.27.27,0,0,0,0,.16.41.41,0,0,0,.13.11l.18.08.21.07.2.08a.71.71,0,0,1,.18.11.51.51,0,0,1,.13.17.56.56,0,0,1,0,.24.8.8,0,0,1-.05.29.68.68,0,0,1-.15.23.72.72,0,0,1-.24.16.9.9,0,0,1-.33.06,1,1,0,0,1-.41-.08,1,1,0,0,1-.32-.22l.09-.15,0,0h0l0,0,.06,0,.08.06.1.06.13,0L140,4a.6.6,0,0,0,.2,0,.44.44,0,0,0,.15-.09.38.38,0,0,0,.09-.13.43.43,0,0,0,0-.17.3.3,0,0,0,0-.17.4.4,0,0,0-.13-.11l-.18-.08-.2-.06-.2-.08a.69.69,0,0,1-.18-.11.51.51,0,0,1-.12-.17.67.67,0,0,1,0-.5.6.6,0,0,1,.14-.2.68.68,0,0,1,.22-.14.84.84,0,0,1,.31-.05,1,1,0,0,1,.35.06.85.85,0,0,1,.28.18Z"/><path class="cls-3" d="M141.55,4.24a.4.4,0,0,1-.3-.11.43.43,0,0,1-.1-.31v-1h-.24a.06.06,0,0,1,0,0V2.64l.27,0,.07-.51a.07.07,0,0,1,0,0l0,0h.15v.57h.48v.21h-.48v1a.21.21,0,0,0,.05.15.17.17,0,0,0,.13.05h.08l.06,0,0,0h0a.05.05,0,0,1,0,0l.08.14a.54.54,0,0,1-.18.11A.61.61,0,0,1,141.55,4.24Z"/><path class="cls-3" d="M149.75,9.45a1.45,1.45,0,0,1,.05.37.72.72,0,0,1-.05.28.46.46,0,0,1-.15.19.66.66,0,0,1-.23.11l-.17,0-.16,0a.55.55,0,0,1-.15-.1.77.77,0,0,1-.13-.16.7.7,0,0,1-.08.42.49.49,0,0,1-.31.21.64.64,0,0,1-.27,0,.57.57,0,0,1-.24-.1.74.74,0,0,1-.2-.21,1.17,1.17,0,0,1-.13-.32l-.21-.79,2.25-.58Zm-2,.59a.8.8,0,0,0,.09.22.44.44,0,0,0,.12.13.34.34,0,0,0,.15.05.46.46,0,0,0,.17,0,.35.35,0,0,0,.24-.19.6.6,0,0,0,0-.4l-.13-.49-.78.2Zm1.64-.94-.77.2.1.4a.78.78,0,0,0,.09.22.46.46,0,0,0,.12.14.3.3,0,0,0,.15.06.41.41,0,0,0,.16,0,.36.36,0,0,0,.26-.19.63.63,0,0,0,0-.39Z"/><path class="cls-3" d="M149.61,11.51a.83.83,0,0,1,0,.33.7.7,0,0,1-.1.28.74.74,0,0,1-.22.22,1.14,1.14,0,0,1-.68.17.73.73,0,0,1-.3-.08.7.7,0,0,1-.23-.2.84.84,0,0,1-.14-.3.87.87,0,0,1,0-.33.7.7,0,0,1,.1-.28.75.75,0,0,1,.22-.22,1.07,1.07,0,0,1,.32-.14,1.09,1.09,0,0,1,.35,0,.74.74,0,0,1,.3.08.68.68,0,0,1,.23.2A.84.84,0,0,1,149.61,11.51Zm-1.42.37a.42.42,0,0,0,.25.31.75.75,0,0,0,.47,0,.76.76,0,0,0,.41-.23.42.42,0,0,0,.07-.39.53.53,0,0,0-.09-.2.4.4,0,0,0-.16-.12.51.51,0,0,0-.21,0,1.06,1.06,0,0,0-.26,0,.75.75,0,0,0-.41.23A.43.43,0,0,0,148.19,11.87Z"/><path class="cls-3" d="M150.43,14.79l-1.72-.1-.06-.22s0-.05,0-.07l1-.63.07,0,.07,0h-.16l-1.17-.08a.06.06,0,0,1-.07,0l-.05-.21,1.46-.93.06.22a.09.09,0,0,1,0,.06l0,0-.94.57-.2.1h.23l1.12.07,0,0a.08.08,0,0,1,0,0l0,.12a.09.09,0,0,1,0,.06l0,0-.94.59-.1.06-.1.06h.23l1.1,0,0,0a.08.08,0,0,1,0,0Z"/><path class="cls-3" d="M149.46,16.69a.55.55,0,0,1-.14-.1.73.73,0,0,1-.11-.13,1,1,0,0,1-.09-.16,1.18,1.18,0,0,1-.06-.17.81.81,0,0,1,0-.32.7.7,0,0,1,.1-.28.77.77,0,0,1,.23-.23,1.13,1.13,0,0,1,.35-.15,1,1,0,0,1,.33,0,.75.75,0,0,1,.29.08.68.68,0,0,1,.23.19.78.78,0,0,1,.14.29.75.75,0,0,1,0,.28.61.61,0,0,1-.08.25.63.63,0,0,1-.19.2.91.91,0,0,1-.29.13h-.09a.06.06,0,0,1,0,0l-.27-1.06a1,1,0,0,0-.25.11.56.56,0,0,0-.16.15.42.42,0,0,0-.07.19.65.65,0,0,0,.09.39l.09.12.08.08a.12.12,0,0,1,0,.06.07.07,0,0,1,0,.06Zm.69-.42a.59.59,0,0,0,.17-.07.42.42,0,0,0,.12-.12.35.35,0,0,0,.06-.15.46.46,0,0,0,0-.18.45.45,0,0,0-.2-.29.57.57,0,0,0-.36-.06Z"/><path class="cls-3" d="M150.67,17.05a.72.72,0,0,1,.3.12.42.42,0,0,1,.16.25.44.44,0,0,1,0,.1.28.28,0,0,1,0,.09l-.21,0a0,0,0,0,1-.05,0,.32.32,0,0,1,0-.07.46.46,0,0,0,0-.1.45.45,0,0,0-.06-.13.33.33,0,0,0-.09-.09l-.13-.06-.16,0-1,.26-.07-.28,1.59-.41,0,.16a.09.09,0,0,1,0,.07l-.05,0Z"/><path class="cls-3" d="M151.57,19.22l-2.29-.35-.06,0a.1.1,0,0,1,0-.06l-.05-.21.71.13,1.33-1,.06.24a.1.1,0,0,1,0,.06l0,0-.89.68-.13.08h.15l1.11.16,0,0a.09.09,0,0,1,0,0Z"/><rect class="cls-1" x="11.17" y="6.5" width="11.36" height="0.65"/><rect class="cls-1" x="50.66" y="52.68" width="11.36" height="0.94"/><rect class="cls-1" x="71.19" y="52.68" width="11.36" height="0.94"/><rect class="cls-1" x="18.96" y="12.47" width="11.36" height="0.72" transform="translate(37.47 -11.81) rotate(90)"/><rect class="cls-1" x="18.94" y="46.77" width="11.39" height="0.72" transform="translate(71.77 22.49) rotate(90)"/><rect class="cls-1" x="63.42" y="12.43" width="11.36" height="0.82" transform="translate(81.95 -56.26) rotate(90)"/><rect class="cls-1" x="63.43" y="46.74" width="11.36" height="0.79" transform="translate(116.25 -21.98) rotate(90)"/><rect class="cls-1" x="58.29" y="60.27" width="11.36" height="0.79" transform="translate(124.64 -3.31) rotate(90)"/><rect class="cls-1" x="105.67" y="83.44" width="11.36" height="0.79" transform="translate(195.19 -27.51) rotate(90)"/><rect class="cls-1" x="158.56" y="83.63" width="11.36" height="2.01" transform="translate(205.91 -95.37) rotate(75.77)"/><path class="cls-3" d="M28.29,17.42v-6h1.31a1.8,1.8,0,0,1,1.38.44,2,2,0,0,1,.4,1.4v2.22a2.33,2.33,0,0,1-.4,1.49,1.62,1.62,0,0,1-1.33.49Zm.84-.61h.47a1.37,1.37,0,0,0,.34,0,1.06,1.06,0,0,0,.25-.09.43.43,0,0,0,.17-.17,1.35,1.35,0,0,0,.1-.21,1.39,1.39,0,0,0,.05-.29c0-.13,0-.24,0-.33s0-.22,0-.4v-2c0-.15,0-.27,0-.37s0-.2,0-.3a.9.9,0,0,0-.07-.24.87.87,0,0,0-.11-.18.46.46,0,0,0-.17-.13L29.92,12l-.33,0h-.46Z"/><path class="cls-3" d="M32.27,17.42v-6h.83v6Z"/><path class="cls-3" d="M34.08,17.42v-6h.57l1.72,4v-4h.7v6h-.54l-1.74-4.13v4.13Z"/><path class="cls-3" d="M38.06,17.42v-6h.83v6Z"/><path class="cls-3" d="M39.87,17.42v-6h.57l1.72,4v-4h.7v6h-.54l-1.74-4.13v4.13Z"/><path class="cls-3" d="M45.25,17.5A1.35,1.35,0,0,1,44.06,17a2.67,2.67,0,0,1-.36-1.54v-2a5.16,5.16,0,0,1,0-.73,2.39,2.39,0,0,1,.16-.58,1.23,1.23,0,0,1,.29-.43,1.28,1.28,0,0,1,.46-.26,2.12,2.12,0,0,1,.66-.09,1.52,1.52,0,0,1,1.21.43,2,2,0,0,1,.37,1.34v.22H46.1v-.19c0-.17,0-.31,0-.42a1.56,1.56,0,0,0-.06-.32.53.53,0,0,0-.13-.23.6.6,0,0,0-.22-.13,1,1,0,0,0-.34,0A1,1,0,0,0,45,12a.69.69,0,0,0-.2.09.44.44,0,0,0-.14.16,1.21,1.21,0,0,0-.09.2,1.34,1.34,0,0,0-.05.25c0,.1,0,.19,0,.28s0,.19,0,.31v2.24a2.17,2.17,0,0,0,.17,1,.82.82,0,0,0,1.29,0,2.35,2.35,0,0,0,.18-1.05V15H45.4v-.6h1.53v3H46.4l-.08-.7A1.05,1.05,0,0,1,45.25,17.5Z"/><path class="cls-3" d="M28,26.38l1.29-6h.81l1.29,6h-.8l-.28-1.52H29l-.29,1.52Zm1.2-2.13h1l-.51-2.73Z"/><path class="cls-3" d="M32,26.38v-6h1.21a2,2,0,0,1,1.35.38A1.56,1.56,0,0,1,35,21.94q0,1.17-.75,1.41l.86,3h-.82l-.79-2.84h-.65v2.84Zm.84-3.44h.32a1.15,1.15,0,0,0,.79-.22,1,1,0,0,0,.24-.79,1.15,1.15,0,0,0-.2-.77,1,1,0,0,0-.76-.22h-.37Z"/><path class="cls-3" d="M35.84,26.38v-6h2.34V21h-1.5v2H37.9v.6H36.68v2.22H38.2v.61Z"/><path class="cls-3" d="M38.55,26.38l1.29-6h.81l1.29,6h-.8l-.28-1.52H39.63l-.29,1.52Zm1.2-2.13h1l-.51-2.73Z"/><path class="cls-3" d="M71.08,65.42a1.94,1.94,0,0,1-.66-.1A1.27,1.27,0,0,1,70,65a1.36,1.36,0,0,1-.29-.44,2.15,2.15,0,0,1-.16-.55,4.45,4.45,0,0,1,0-.65V61.27a4.58,4.58,0,0,1,0-.68,2.18,2.18,0,0,1,.16-.56A1.25,1.25,0,0,1,70,59.6a1.28,1.28,0,0,1,.46-.26,2.07,2.07,0,0,1,.66-.09,1.41,1.41,0,0,1,1.17.44A2,2,0,0,1,72.6,61v.48h-.8V61c0-.09,0-.17,0-.22s0-.12,0-.2a1.15,1.15,0,0,0,0-.18l0-.15a.4.4,0,0,0-.06-.14l-.09-.11a.36.36,0,0,0-.12-.08l-.16,0-.21,0a1.1,1.1,0,0,0-.31,0,.5.5,0,0,0-.21.12.73.73,0,0,0-.14.18.81.81,0,0,0-.08.25c0,.1,0,.2,0,.3s0,.21,0,.36v2.39a1.87,1.87,0,0,0,.17.95.67.67,0,0,0,.61.27,1,1,0,0,0,.29,0,.44.44,0,0,0,.2-.12.8.8,0,0,0,.13-.18.76.76,0,0,0,.07-.25,2.68,2.68,0,0,0,0-.29q0-.13,0-.34V63.1h.8v.45a3.94,3.94,0,0,1,0,.62,2.07,2.07,0,0,1-.15.51,1.11,1.11,0,0,1-.71.64A1.94,1.94,0,0,1,71.08,65.42Z"/><path class="cls-3" d="M73.41,65.35v-6h.84v5.44H75.8v.61Z"/><path class="cls-3" d="M78.6,65.32a2.29,2.29,0,0,1-1.34,0A1.23,1.23,0,0,1,76.8,65a1.24,1.24,0,0,1-.29-.44,2.42,2.42,0,0,1-.15-.58,5.57,5.57,0,0,1,0-.71v-4h.8v4q0,.26,0,.45a2.07,2.07,0,0,0,.07.38.91.91,0,0,0,.14.31.64.64,0,0,0,.24.19.79.79,0,0,0,.36.07.78.78,0,0,0,.36-.07.63.63,0,0,0,.23-.19.91.91,0,0,0,.14-.31,2,2,0,0,0,.07-.38q0-.19,0-.45v-4h.8v4a5.57,5.57,0,0,1,0,.71,2.47,2.47,0,0,1-.15.58,1.26,1.26,0,0,1-.29.44A1.23,1.23,0,0,1,78.6,65.32Z"/><path class="cls-3" d="M80.44,65.35v-6h1.38a1.74,1.74,0,0,1,1.22.37,1.49,1.49,0,0,1,.4,1.14q0,1.16-.87,1.28a1.24,1.24,0,0,1,.78.5,1.84,1.84,0,0,1,.25,1,1.92,1.92,0,0,1-.38,1.27,1.44,1.44,0,0,1-1.17.46Zm.84-3.52h.5a.93.93,0,0,0,.72-.23,1.18,1.18,0,0,0,.2-.78,1.71,1.71,0,0,0,0-.31,1.11,1.11,0,0,0-.07-.23.39.39,0,0,0-.12-.16l-.17-.1a.87.87,0,0,0-.23-.06l-.28,0h-.54Zm0,2.92h.57a.91.91,0,0,0,.75-.26,1.44,1.44,0,0,0,.2-.87,1.33,1.33,0,0,0-.24-.87,1,1,0,0,0-.78-.29h-.5Z"/><path class="cls-3" d="M69.57,74.31v-6h1.21a2,2,0,0,1,1.35.38,1.56,1.56,0,0,1,.43,1.23q0,1.17-.75,1.41l.86,3h-.82l-.79-2.84h-.65v2.84Zm.84-3.44h.32a1.15,1.15,0,0,0,.79-.22,1,1,0,0,0,.24-.79,1.15,1.15,0,0,0-.2-.77,1,1,0,0,0-.76-.22h-.37Z"/><path class="cls-3" d="M75,74.38a2,2,0,0,1-.78-.13,1.17,1.17,0,0,1-.51-.4,1.78,1.78,0,0,1-.28-.61,3.38,3.38,0,0,1-.09-.82V70.12a2.28,2.28,0,0,1,.38-1.43,1.89,1.89,0,0,1,2.53,0,2.27,2.27,0,0,1,.39,1.43v2.29a2.34,2.34,0,0,1-.39,1.45A1.49,1.49,0,0,1,75,74.38Zm-.41-.74a1.14,1.14,0,0,0,.82,0,.52.52,0,0,0,.25-.23,1.11,1.11,0,0,0,.11-.34,2.83,2.83,0,0,0,0-.46V70a2.7,2.7,0,0,0,0-.46,1.08,1.08,0,0,0-.11-.34.5.5,0,0,0-.25-.22,1.22,1.22,0,0,0-.82,0,.5.5,0,0,0-.25.22,1.08,1.08,0,0,0-.12.34,2.8,2.8,0,0,0,0,.46V72.6a2.94,2.94,0,0,0,0,.46,1.11,1.11,0,0,0,.12.34A.52.52,0,0,0,74.57,73.64Z"/><path class="cls-3" d="M79,74.38a2,2,0,0,1-.78-.13,1.17,1.17,0,0,1-.51-.4,1.78,1.78,0,0,1-.28-.61,3.38,3.38,0,0,1-.09-.82V70.12a2.28,2.28,0,0,1,.38-1.43,1.89,1.89,0,0,1,2.53,0,2.27,2.27,0,0,1,.39,1.43v2.29a2.34,2.34,0,0,1-.39,1.45A1.49,1.49,0,0,1,79,74.38Zm-.41-.74a1.14,1.14,0,0,0,.82,0,.52.52,0,0,0,.25-.23,1.11,1.11,0,0,0,.11-.34,2.83,2.83,0,0,0,0-.46V70a2.7,2.7,0,0,0,0-.46,1.08,1.08,0,0,0-.11-.34.5.5,0,0,0-.25-.22,1.22,1.22,0,0,0-.82,0,.5.5,0,0,0-.25.22,1.08,1.08,0,0,0-.12.34,2.8,2.8,0,0,0,0,.46V72.6a2.94,2.94,0,0,0,0,.46,1.11,1.11,0,0,0,.12.34A.52.52,0,0,0,78.6,73.64Z"/><path class="cls-3" d="M81.48,74.31l.11-6h.82l1.07,4.9,1.08-4.9h.82l.11,6h-.68l-.07-4.39-1,4.39h-.47l-1-4.39-.07,4.39Z"/><path class="cls-3" d="M117.23,76.06a1.35,1.35,0,0,1-1.19-.52,2.67,2.67,0,0,1-.36-1.54V72a5.16,5.16,0,0,1,0-.73,2.39,2.39,0,0,1,.16-.58,1.23,1.23,0,0,1,.29-.43,1.28,1.28,0,0,1,.46-.26,2.12,2.12,0,0,1,.66-.09,1.52,1.52,0,0,1,1.21.43,2,2,0,0,1,.37,1.34v.22h-.79v-.19c0-.17,0-.31,0-.42a1.56,1.56,0,0,0-.06-.32.53.53,0,0,0-.13-.23.6.6,0,0,0-.22-.13,1,1,0,0,0-.34,0,1,1,0,0,0-.28,0,.69.69,0,0,0-.2.09.44.44,0,0,0-.14.16,1.21,1.21,0,0,0-.09.2,1.34,1.34,0,0,0-.05.25c0,.1,0,.19,0,.28s0,.19,0,.31v2.24a2.17,2.17,0,0,0,.17,1,.82.82,0,0,0,1.29,0,2.35,2.35,0,0,0,.18-1.05v-.42h-.77V73h1.53v3h-.54l-.08-.7A1.05,1.05,0,0,1,117.23,76.06Z"/><path class="cls-3" d="M119.45,76l1.29-6h.81l1.29,6H122l-.28-1.52h-1.23L120.24,76Zm1.2-2.13h1l-.51-2.73Z"/><path class="cls-3" d="M123.45,76v-6h1.21a2,2,0,0,1,1.35.38,1.56,1.56,0,0,1,.43,1.23q0,1.17-.75,1.41l.86,3h-.82l-.79-2.84h-.65V76Zm.84-3.44h.32a1.15,1.15,0,0,0,.79-.22,1,1,0,0,0,.24-.79,1.15,1.15,0,0,0-.2-.77,1,1,0,0,0-.76-.22h-.37Z"/><path class="cls-3" d="M127.33,76v-6h1.31a1.8,1.8,0,0,1,1.38.44,2,2,0,0,1,.4,1.4V74a2.33,2.33,0,0,1-.4,1.49,1.62,1.62,0,0,1-1.33.49Zm.84-.61h.47a1.37,1.37,0,0,0,.34,0,1.06,1.06,0,0,0,.25-.09.43.43,0,0,0,.17-.17,1.35,1.35,0,0,0,.1-.21,1.39,1.39,0,0,0,.05-.29c0-.13,0-.24,0-.33s0-.22,0-.4v-2c0-.15,0-.27,0-.37s0-.2,0-.3a.9.9,0,0,0-.07-.24.87.87,0,0,0-.11-.18.46.46,0,0,0-.17-.13l-.24-.07-.33,0h-.46Z"/><path class="cls-3" d="M131.26,76v-6h2.34v.62h-1.5v2h1.22v.6H132.1v2.22h1.52V76Z"/><path class="cls-3" d="M134.3,76v-6h.57l1.72,4v-4h.7v6h-.54L135,71.86V76Z"/><path class="cls-3" d="M115.79,84.95v-6h1.38a1.74,1.74,0,0,1,1.22.37,1.49,1.49,0,0,1,.4,1.14q0,1.16-.87,1.28a1.24,1.24,0,0,1,.78.5,1.84,1.84,0,0,1,.25,1,1.92,1.92,0,0,1-.38,1.27,1.44,1.44,0,0,1-1.17.46Zm.84-3.52h.5a.93.93,0,0,0,.72-.23,1.18,1.18,0,0,0,.2-.78,1.71,1.71,0,0,0,0-.31,1.11,1.11,0,0,0-.07-.23.39.39,0,0,0-.12-.16l-.17-.1a.87.87,0,0,0-.23-.06l-.28,0h-.54Zm0,2.92h.57a.91.91,0,0,0,.75-.26,1.44,1.44,0,0,0,.2-.87,1.33,1.33,0,0,0-.24-.87,1,1,0,0,0-.78-.29h-.5Z"/><path class="cls-3" d="M119.36,84.95l1.29-6h.81l1.29,6H122l-.28-1.52h-1.23l-.29,1.52Zm1.2-2.13h1l-.51-2.73Z"/><path class="cls-3" d="M123.37,84.95v-6h1.21a2,2,0,0,1,1.35.38,1.56,1.56,0,0,1,.43,1.23q0,1.17-.75,1.41l.86,3h-.82l-.79-2.84h-.65v2.84Zm.84-3.44h.32a1.15,1.15,0,0,0,.79-.22,1,1,0,0,0,.24-.79,1.15,1.15,0,0,0-.2-.77,1,1,0,0,0-.76-.22h-.37Z"/><polygon class="cls-4" points="144.52 6.84 159.08 65.35 111.35 65.35 111.35 6.84 144.52 6.84"/><path class="cls-3" d="M73.13,17.42v-6h1.5a1.4,1.4,0,0,1,1.14.42A1.9,1.9,0,0,1,76.12,13a1.63,1.63,0,0,1-.38,1.15,1.44,1.44,0,0,1-1.11.41H74v2.81ZM74,14h.38a1.11,1.11,0,0,0,.76-.2,1,1,0,0,0,.21-.75c0-.15,0-.28,0-.38a1.4,1.4,0,0,0,0-.28.54.54,0,0,0-.1-.2.52.52,0,0,0-.17-.12.89.89,0,0,0-.26-.07l-.37,0H74Z"/><path class="cls-3" d="M76.1,17.42l1.29-6h.81l1.29,6h-.8l-.28-1.52H77.19l-.29,1.52Zm1.2-2.13h1l-.51-2.73Z"/><path class="cls-3" d="M80.49,17.42V12h-1.1v-.62h3V12H81.33v5.42Z"/><path class="cls-3" d="M82.9,17.42v-6h.83v6Z"/><path class="cls-3" d="M86.24,17.49a2,2,0,0,1-.78-.13A1.17,1.17,0,0,1,85,17a1.78,1.78,0,0,1-.28-.61,3.38,3.38,0,0,1-.09-.82V13.24A2.28,2.28,0,0,1,85,11.81a1.89,1.89,0,0,1,2.53,0,2.27,2.27,0,0,1,.39,1.43v2.29A2.34,2.34,0,0,1,87.51,17,1.49,1.49,0,0,1,86.24,17.49Zm-.41-.74a1.14,1.14,0,0,0,.82,0,.52.52,0,0,0,.25-.23,1.11,1.11,0,0,0,.11-.34,2.83,2.83,0,0,0,0-.46V13.06a2.7,2.7,0,0,0,0-.46,1.08,1.08,0,0,0-.11-.34.5.5,0,0,0-.25-.22,1.22,1.22,0,0,0-.82,0,.5.5,0,0,0-.25.22,1.08,1.08,0,0,0-.12.34,2.8,2.8,0,0,0,0,.46v2.65a2.94,2.94,0,0,0,0,.46,1.11,1.11,0,0,0,.12.34A.52.52,0,0,0,85.83,16.75Z"/><rect class="cls-1" x="114.23" y="64.88" width="11.36" height="1.04"/><rect class="cls-1" x="88.17" y="29.32" width="45.68" height="1.32" transform="translate(140.99 -81.02) rotate(90)"/><path class="cls-1" d="M117.32,17.49a2,2,0,0,1-.78-.13A1.17,1.17,0,0,1,116,17a1.78,1.78,0,0,1-.28-.61,3.38,3.38,0,0,1-.09-.82V13.24a2.28,2.28,0,0,1,.38-1.43,1.89,1.89,0,0,1,2.53,0,2.27,2.27,0,0,1,.39,1.43v2.29a2.34,2.34,0,0,1-.39,1.45A1.49,1.49,0,0,1,117.32,17.49Zm-.41-.74a1.14,1.14,0,0,0,.82,0,.52.52,0,0,0,.25-.23,1.11,1.11,0,0,0,.11-.34,2.83,2.83,0,0,0,0-.46V13.06a2.7,2.7,0,0,0,0-.46,1.08,1.08,0,0,0-.11-.34.5.5,0,0,0-.25-.22,1.22,1.22,0,0,0-.82,0,.5.5,0,0,0-.25.22,1.08,1.08,0,0,0-.12.34,2.8,2.8,0,0,0,0,.46v2.65a2.94,2.94,0,0,0,0,.46,1.11,1.11,0,0,0,.12.34A.52.52,0,0,0,116.91,16.75Z"/><path class="cls-1" d="M122,17.39a2.29,2.29,0,0,1-1.34,0,1.23,1.23,0,0,1-.46-.27,1.24,1.24,0,0,1-.29-.44,2.42,2.42,0,0,1-.15-.58,5.57,5.57,0,0,1,0-.71v-4h.8v4q0,.26,0,.45a2.07,2.07,0,0,0,.07.38.91.91,0,0,0,.14.31.64.64,0,0,0,.24.19.79.79,0,0,0,.36.07.78.78,0,0,0,.36-.07.63.63,0,0,0,.23-.19.91.91,0,0,0,.14-.31,2,2,0,0,0,.07-.38q0-.19,0-.45v-4h.8v4a5.57,5.57,0,0,1,0,.71,2.47,2.47,0,0,1-.15.58,1.26,1.26,0,0,1-.29.44A1.23,1.23,0,0,1,122,17.39Z"/><path class="cls-1" d="M124.49,17.42V12h-1.1v-.62h3V12h-1.07v5.42Z"/><path class="cls-1" d="M128.28,17.49a1.44,1.44,0,0,1-1.16-.47,2.12,2.12,0,0,1-.45-1.29l.75-.2q.08,1.3.86,1.3a.64.64,0,0,0,.49-.18.75.75,0,0,0,.17-.53,1.3,1.3,0,0,0,0-.35,1,1,0,0,0-.15-.31,2.19,2.19,0,0,0-.2-.24l-.26-.26-1-.9a1.62,1.62,0,0,1-.59-1.34,1.35,1.35,0,0,1,.38-1,1.46,1.46,0,0,1,1-.37,1.39,1.39,0,0,1,1.09.37,2,2,0,0,1,.43,1.19l-.71.2c0-.13,0-.25,0-.35a1.67,1.67,0,0,0-.08-.31.84.84,0,0,0-.14-.25.58.58,0,0,0-.22-.15.73.73,0,0,0-.32,0q-.67,0-.67.66a1,1,0,0,0,.09.44,1.39,1.39,0,0,0,.31.38l1,.9a3.16,3.16,0,0,1,.63.77,1.83,1.83,0,0,1,.24.93,1.4,1.4,0,0,1-.4,1.05A1.44,1.44,0,0,1,128.28,17.49Z"/><path class="cls-1" d="M130.43,17.42v-6h.83v6Z"/><path class="cls-1" d="M132.24,17.42v-6h1.31a1.8,1.8,0,0,1,1.38.44,2,2,0,0,1,.4,1.4v2.22a2.33,2.33,0,0,1-.4,1.49,1.62,1.62,0,0,1-1.33.49Zm.84-.61h.47a1.37,1.37,0,0,0,.34,0,1.06,1.06,0,0,0,.25-.09.43.43,0,0,0,.17-.17,1.35,1.35,0,0,0,.1-.21,1.39,1.39,0,0,0,.05-.29c0-.13,0-.24,0-.33s0-.22,0-.4v-2c0-.15,0-.27,0-.37s0-.2,0-.3a.9.9,0,0,0-.07-.24.87.87,0,0,0-.11-.18.46.46,0,0,0-.17-.13l-.24-.07-.33,0h-.46Z"/><path class="cls-1" d="M136.17,17.42v-6h2.34V12H137v2h1.22v.6H137v2.22h1.52v.61Z"/><path class="cls-1" d="M117.23,26.45a1.35,1.35,0,0,1-1.19-.52,2.67,2.67,0,0,1-.36-1.54v-2a5.16,5.16,0,0,1,0-.73,2.39,2.39,0,0,1,.16-.58,1.23,1.23,0,0,1,.29-.43,1.28,1.28,0,0,1,.46-.26,2.12,2.12,0,0,1,.66-.09,1.52,1.52,0,0,1,1.21.43,2,2,0,0,1,.37,1.34v.22h-.79v-.19c0-.17,0-.31,0-.42a1.56,1.56,0,0,0-.06-.32.53.53,0,0,0-.13-.23.6.6,0,0,0-.22-.13,1,1,0,0,0-.34,0,1,1,0,0,0-.28,0,.69.69,0,0,0-.2.09.44.44,0,0,0-.14.16,1.21,1.21,0,0,0-.09.2,1.34,1.34,0,0,0-.05.25c0,.1,0,.19,0,.28s0,.19,0,.31v2.24a2.17,2.17,0,0,0,.17,1,.82.82,0,0,0,1.29,0,2.35,2.35,0,0,0,.18-1.05V24h-.77v-.6h1.53v3h-.54l-.08-.7A1.05,1.05,0,0,1,117.23,26.45Z"/><path class="cls-1" d="M119.45,26.38l1.29-6h.81l1.29,6H122l-.28-1.52h-1.23l-.29,1.52Zm1.2-2.13h1l-.51-2.73Z"/><path class="cls-1" d="M123.45,26.38v-6h1.21a2,2,0,0,1,1.35.38,1.56,1.56,0,0,1,.43,1.23q0,1.17-.75,1.41l.86,3h-.82l-.79-2.84h-.65v2.84Zm.84-3.44h.32a1.15,1.15,0,0,0,.79-.22,1,1,0,0,0,.24-.79,1.15,1.15,0,0,0-.2-.77,1,1,0,0,0-.76-.22h-.37Z"/><path class="cls-1" d="M127.33,26.38v-6h1.31a1.8,1.8,0,0,1,1.38.44,2,2,0,0,1,.4,1.4v2.22a2.33,2.33,0,0,1-.4,1.49,1.62,1.62,0,0,1-1.33.49Zm.84-.61h.47a1.37,1.37,0,0,0,.34,0,1.06,1.06,0,0,0,.25-.09.43.43,0,0,0,.17-.17,1.35,1.35,0,0,0,.1-.21,1.39,1.39,0,0,0,.05-.29c0-.13,0-.24,0-.33s0-.22,0-.4v-2c0-.15,0-.27,0-.37s0-.2,0-.3a.9.9,0,0,0-.07-.24.87.87,0,0,0-.11-.18.46.46,0,0,0-.17-.13L129,21l-.33,0h-.46Z"/><path class="cls-1" d="M131.26,26.38v-6h2.34V21h-1.5v2h1.22v.6H132.1v2.22h1.52v.61Z"/><path class="cls-1" d="M134.3,26.38v-6h.57l1.72,4v-4h.7v6h-.54L135,22.25v4.13Z"/><rect class="cls-1" x="113.1" y="5.64" width="11.36" height="1.51"/><path class="cls-3" d="M5.26,17.42V11.36H7.6V12H6.1v2H7.26v.6H6.1v2.84Z"/><path class="cls-3" d="M8.18,17.42V11.36H9.4a2,2,0,0,1,1.35.38A1.56,1.56,0,0,1,11.18,13q0,1.17-.75,1.42l.87,3h-.82l-.8-2.85H9v2.85ZM9,14h.32a1.15,1.15,0,0,0,.79-.22,1,1,0,0,0,.24-.79,1.16,1.16,0,0,0-.2-.78A1,1,0,0,0,9.4,12H9Z"/><path class="cls-3" d="M13.62,17.49a2,2,0,0,1-.78-.13,1.19,1.19,0,0,1-.51-.4,1.76,1.76,0,0,1-.28-.61,3.4,3.4,0,0,1-.09-.82v-2.3a2.27,2.27,0,0,1,.39-1.44,1.52,1.52,0,0,1,1.27-.49,1.52,1.52,0,0,1,1.27.49,2.27,2.27,0,0,1,.39,1.43v2.3A2.36,2.36,0,0,1,14.88,17,1.49,1.49,0,0,1,13.62,17.49Zm-.41-.74a1.15,1.15,0,0,0,.82,0,.54.54,0,0,0,.25-.23,1.14,1.14,0,0,0,.12-.35,3,3,0,0,0,0-.47V13a2.82,2.82,0,0,0,0-.46,1.1,1.1,0,0,0-.12-.34A.51.51,0,0,0,14,12a1.22,1.22,0,0,0-.82,0,.51.51,0,0,0-.25.22,1.1,1.1,0,0,0-.12.34,2.84,2.84,0,0,0,0,.46V15.7a3,3,0,0,0,0,.47,1.14,1.14,0,0,0,.12.35A.54.54,0,0,0,13.2,16.75Z"/><path class="cls-3" d="M16.11,17.42V11.36h.57l1.72,4v-4h.71v6.06h-.54l-1.75-4.14v4.14Z"/><path class="cls-3" d="M20.69,17.42V12H19.58v-.62h3V12H21.53v5.44Z"/><path class="cls-3" d="M5.26,26.41V20.35H6.64a1.75,1.75,0,0,1,1.23.37,1.5,1.5,0,0,1,.4,1.15q0,1.16-.87,1.28a1.24,1.24,0,0,1,.78.51,1.84,1.84,0,0,1,.25,1A1.93,1.93,0,0,1,8,26a1.45,1.45,0,0,1-1.17.46Zm.84-3.53h.5a.93.93,0,0,0,.73-.23,1.18,1.18,0,0,0,.2-.78,1.72,1.72,0,0,0,0-.31,1.14,1.14,0,0,0-.07-.23.38.38,0,0,0-.12-.16l-.17-.1A.85.85,0,0,0,6.92,21l-.28,0H6.1Zm0,2.93h.57a.91.91,0,0,0,.75-.26,1.44,1.44,0,0,0,.2-.87,1.33,1.33,0,0,0-.24-.87,1,1,0,0,0-.78-.29H6.1Z"/><path class="cls-3" d="M8.85,26.41l1.29-6.06H11l1.29,6.06h-.8l-.28-1.53H9.94l-.29,1.53ZM10,24.28h1l-.51-2.74Z"/><path class="cls-3" d="M12.87,26.41V20.35h1.22a2,2,0,0,1,1.35.38A1.56,1.56,0,0,1,15.86,22q0,1.17-.75,1.42l.87,3h-.82l-.8-2.85h-.66v2.85ZM13.71,23H14a1.15,1.15,0,0,0,.79-.22,1,1,0,0,0,.24-.79,1.16,1.16,0,0,0-.2-.78,1,1,0,0,0-.77-.22h-.37Z"/><path class="cls-3" d="M6.53,35.47a1.25,1.25,0,0,1-1-.38,1.39,1.39,0,0,1-.35-1,1.92,1.92,0,0,1,.24-1,3.23,3.23,0,0,1,.65-.8L5.93,32l-.18-.35-.15-.33A2,2,0,0,1,5.48,31a1.76,1.76,0,0,1,0-.37,1.35,1.35,0,0,1,.35-1,1.24,1.24,0,0,1,.94-.37,1.39,1.39,0,0,1,.92.3A1,1,0,0,1,8,30.4a1.7,1.7,0,0,1-.1.57,2.28,2.28,0,0,1-.29.55c-.12.18-.24.33-.36.46s-.24.26-.39.4l.92,1.44a3.8,3.8,0,0,0,.3-1.21h.8a2.64,2.64,0,0,1-.18.9,3.45,3.45,0,0,1-.41.81.91.91,0,0,0,.26.22.66.66,0,0,0,.33.09v.82H8.79l-.16,0-.14,0-.14-.07-.12-.07-.12-.1L8,35.07,7.92,35l-.09-.09a1.55,1.55,0,0,1-.55.43A1.71,1.71,0,0,1,6.53,35.47Zm0-.66a1.05,1.05,0,0,0,.81-.45l-.93-1.43a1.83,1.83,0,0,0-.29.54A2,2,0,0,0,6,34.1a1,1,0,0,0,.12.5A.42.42,0,0,0,6.53,34.8ZM6.61,32A2.82,2.82,0,0,0,7,31.23a2.11,2.11,0,0,0,.18-.83.45.45,0,0,0-.13-.34.49.49,0,0,0-.35-.13.41.41,0,0,0-.37.2.91.91,0,0,0-.12.48A3.48,3.48,0,0,0,6.61,32Z"/><path class="cls-3" d="M5.16,42.6V37.74h1.2a1.13,1.13,0,0,1,.92.34,1.53,1.53,0,0,1,.28,1,1.31,1.31,0,0,1-.31.92,1.16,1.16,0,0,1-.89.33H5.84V42.6Zm.68-2.75h.31a.9.9,0,0,0,.61-.16.83.83,0,0,0,.17-.61c0-.12,0-.22,0-.3a1,1,0,0,0,0-.22.42.42,0,0,0-.08-.16.41.41,0,0,0-.14-.1.71.71,0,0,0-.21-.06H5.84Z"/><path class="cls-3" d="M7.55,42.6l1-4.86h.65l1,4.86H9.63l-.22-1.22h-1L8.19,42.6Zm1-1.71h.81L8.92,38.7Z"/><path class="cls-3" d="M10.77,42.6V37.74h1a1.62,1.62,0,0,1,1.08.3,1.25,1.25,0,0,1,.34,1q0,.94-.6,1.13l.69,2.44h-.66L12,40.32h-.52V42.6Zm.68-2.77h.25a.92.92,0,0,0,.63-.17.84.84,0,0,0,.19-.63.93.93,0,0,0-.16-.62.82.82,0,0,0-.61-.18h-.3Z"/><path class="cls-3" d="M13.88,42.6V37.74h.68v4.37H15.8v.49Z"/><path class="cls-3" d="M17.46,42.65a1.62,1.62,0,0,1-.62-.11,1,1,0,0,1-.41-.32,1.42,1.42,0,0,1-.22-.49,2.72,2.72,0,0,1-.07-.66V39.24a1.82,1.82,0,0,1,.31-1.15,1.22,1.22,0,0,1,1-.39,1.22,1.22,0,0,1,1,.39,1.82,1.82,0,0,1,.31,1.15v1.84a1.89,1.89,0,0,1-.31,1.17A1.2,1.2,0,0,1,17.46,42.65Zm-.33-.59a.92.92,0,0,0,.66,0,.43.43,0,0,0,.2-.19.89.89,0,0,0,.09-.28,2.34,2.34,0,0,0,0-.37V39.1a2.24,2.24,0,0,0,0-.37.85.85,0,0,0-.09-.27.41.41,0,0,0-.2-.18,1,1,0,0,0-.66,0,.4.4,0,0,0-.2.18.83.83,0,0,0-.09.27,2.13,2.13,0,0,0,0,.37v2.13a2.23,2.23,0,0,0,0,.37.87.87,0,0,0,.09.28A.42.42,0,0,0,17.13,42.06Z"/><path class="cls-3" d="M19.46,42.6V37.74h1a1.62,1.62,0,0,1,1.08.3,1.25,1.25,0,0,1,.34,1q0,.94-.6,1.13L22,42.6H21.3l-.64-2.28h-.52V42.6Zm.68-2.77h.25a.92.92,0,0,0,.63-.17.84.84,0,0,0,.19-.63.93.93,0,0,0-.16-.62.82.82,0,0,0-.61-.18h-.3Z"/></g></g></svg>