<svg xmlns="http://www.w3.org/2000/svg" viewBox="0 0 157.69 89.59"><defs><style>.cls-1,.cls-11{fill:#fff;}.cls-2{fill:none;}.cls-2,.cls-3{stroke:#1f3238;stroke-miterlimit:10;}.cls-3{fill:#da4626;}.cls-4{font-size:3.04px;}.cls-10,.cls-12,.cls-15,.cls-4,.cls-7{fill:#1f3238;}.cls-4,.cls-7{font-family:Lato-Regular, Lato;}.cls-5{letter-spacing:-0.02em;}.cls-6{letter-spacing:0em;}.cls-7{font-size:3.04px;}.cls-8{letter-spacing:-0.01em;}.cls-9{letter-spacing:-0.02em;}.cls-10,.cls-11,.cls-12{font-size:7.01px;}.cls-10,.cls-11,.cls-12,.cls-15{font-family:Oswald-Regular, Oswald Regular;}.cls-12{letter-spacing:-0.04em;}.cls-13{letter-spacing:-0.03em;}.cls-14{letter-spacing:0em;}.cls-15{font-size:7.49px;}.cls-16{font-size:6px;}.cls-17{letter-spacing:-0.04em;}.cls-18{letter-spacing:-0.01em;}</style></defs><title>bbar-events-garden-bar@1x</title><g id="Layer_2" data-name="Layer 2"><g id="Layer_1-2" data-name="Layer 1"><rect class="cls-1" width="157.69" height="89.59"/><rect class="cls-2" x="58.83" y="49.43" width="44.48" height="38.02"/><rect class="cls-2" x="1.59" y="5.96" width="20.26" height="43.47"/><rect class="cls-2" x="21.85" y="5.96" width="41.79" height="43.47"/><rect class="cls-2" x="63.64" y="5.96" width="39.67" height="43.47"/><polygon class="cls-3" points="148.12 60.89 103.31 60.89 103.31 87.45 154.73 87.45 148.12 60.89"/><text class="cls-4" transform="translate(121.52 3.5)">E 4th <tspan class="cls-5" x="7.87" y="0">S</tspan><tspan class="cls-6" x="9.45" y="0">t</tspan></text><text class="cls-7" transform="matrix(0.25, 0.97, -0.97, 0.25, 137.01, 8.01)"><tspan class="cls-8">Bow</tspan><tspan x="6.02" y="0">er</tspan><tspan class="cls-9" x="8.73" y="0">y</tspan></text><rect class="cls-1" x="9.25" y="5.64" width="10.67" height="0.61"/><rect class="cls-1" x="46.33" y="48.99" width="10.67" height="0.88"/><rect class="cls-1" x="65.6" y="48.99" width="10.67" height="0.88"/><rect class="cls-1" x="16.57" y="11.24" width="10.67" height="0.68" transform="translate(33.48 -10.32) rotate(90)"/><rect class="cls-1" x="16.55" y="43.45" width="10.69" height="0.68" transform="translate(65.68 21.89) rotate(90)"/><rect class="cls-1" x="58.31" y="11.21" width="10.67" height="0.77" transform="translate(75.24 -52.05) rotate(90)"/><rect class="cls-1" x="58.32" y="43.41" width="10.67" height="0.75" transform="translate(107.44 -19.87) rotate(90)"/><rect class="cls-1" x="53.5" y="56.12" width="10.67" height="0.75" transform="translate(115.32 -2.34) rotate(90)"/><rect class="cls-1" x="97.97" y="77.87" width="10.67" height="0.75" transform="translate(181.56 -25.06) rotate(90)"/><rect class="cls-1" x="147.63" y="78.05" width="10.67" height="1.88" transform="translate(191.94 -88.7) rotate(75.77)"/><text class="cls-10" transform="translate(24.89 15.89)">DINING<tspan x="0" y="8.41">ROOM</tspan></text><text class="cls-10" transform="translate(63.64 60.89)">CLUB<tspan x="0" y="8.41">ROOM</tspan></text><text class="cls-11" transform="translate(107.03 70.88)">GARDEN<tspan x="0" y="8.41">BAR</tspan></text><polygon class="cls-2" points="134.45 5.96 148.12 60.89 103.31 60.89 103.31 5.96 134.45 5.96"/><text class="cls-12" transform="translate(66.98 15.89)">P<tspan class="cls-13" x="3.1" y="0">A</tspan><tspan class="cls-14" x="6.33" y="0">TIO</tspan></text><rect class="cls-1" x="106.02" y="60.44" width="10.67" height="0.98"/><rect class="cls-1" x="81.71" y="26.9" width="42.88" height="1.58" transform="translate(130.84 -75.46) rotate(90)"/><text class="cls-10" transform="translate(107.03 15.89)">OUTSIDE<tspan x="0" y="8.41">GARDEN</tspan></text><rect class="cls-1" x="104.95" y="4.83" width="10.67" height="1.88"/><text class="cls-15" transform="translate(2.66 15.89)">FRONT<tspan x="0" y="8.99">BAR</tspan><tspan x="0" y="17.98">&amp;</tspan><tspan class="cls-16"><tspan class="cls-17" x="0" y="25.18">P</tspan><tspan x="2.66" y="25.18">AR</tspan><tspan class="cls-18" x="8.72" y="25.18">L</tspan><tspan x="11.06" y="25.18">OR</tspan></tspan></text></g></g></svg>