<svg xmlns="http://www.w3.org/2000/svg" viewBox="0 0 158.72 89.91"><defs><style>.cls-1{fill:#fff;}.cls-2{fill:none;}.cls-2,.cls-4{stroke:#1f3238;stroke-miterlimit:10;}.cls-3{fill:#1f3238;}.cls-4{fill:#da4626;}</style></defs><title>bbar-events-patio</title><g id="Layer_2" data-name="Layer 2"><g id="Layer_1-2" data-name="Layer 1"><rect class="cls-1" width="158.72" height="89.91"/><rect class="cls-2" x="60.04" y="49.82" width="44.89" height="38.37"/><rect class="cls-2" x="2.28" y="5.95" width="20.44" height="43.87"/><rect class="cls-2" x="22.73" y="5.95" width="42.17" height="43.87"/><polygon class="cls-2" points="150.15 61.39 104.93 61.39 104.93 88.19 156.82 88.19 150.15 61.39"/><path class="cls-3" d="M124.95,3.23v.24h-1.36V1.27h1.36v.24h-1.06v.73h.86v.23h-.86v.75Z"/><path class="cls-3" d="M127.56,2.68v.16a.06.06,0,0,1,0,0l0,0h-.27v.58H127V2.89h-1l-.05,0a.08.08,0,0,1,0,0l0-.14L127,1.27h.25V2.68Zm-.57,0V1.77s0-.06,0-.09,0-.06,0-.1l-.8,1.09Z"/><path class="cls-3" d="M128.34,3.5a.37.37,0,0,1-.28-.1.41.41,0,0,1-.1-.3v-1h-.23a.05.05,0,0,1,0,0V2l.25,0,.06-.48a.06.06,0,0,1,0,0h.18v.54h.45v.2h-.45v.93a.2.2,0,0,0,0,.15.16.16,0,0,0,.12,0h.07l.05,0,0,0h0a0,0,0,0,1,0,0l.08.13a.51.51,0,0,1-.17.1A.58.58,0,0,1,128.34,3.5Z"/><path class="cls-3" d="M129.24,2.13a.83.83,0,0,1,.22-.17.6.6,0,0,1,.28-.06.56.56,0,0,1,.22,0,.43.43,0,0,1,.16.12.53.53,0,0,1,.1.19.81.81,0,0,1,0,.24v1H130v-1a.42.42,0,0,0-.08-.27.3.3,0,0,0-.25-.1.46.46,0,0,0-.23.06.75.75,0,0,0-.19.16V3.47H129V1.21h.27Z"/><path class="cls-3" d="M132.66,1.62l0,0h0l-.06,0-.09-.06-.13-.06a.54.54,0,0,0-.18,0l-.18,0a.36.36,0,0,0-.13.07.29.29,0,0,0-.08.11.34.34,0,0,0,0,.13.25.25,0,0,0,0,.15.4.4,0,0,0,.12.1l.17.07.19.07.19.08a.7.7,0,0,1,.17.11.47.47,0,0,1,.12.16.53.53,0,0,1,0,.23.76.76,0,0,1,0,.27.63.63,0,0,1-.14.22.65.65,0,0,1-.23.15.85.85,0,0,1-.31.05,1,1,0,0,1-.39-.08.92.92,0,0,1-.3-.21l.09-.14,0,0h0l0,0,.06,0,.07.05.09.05.12,0,.15,0a.57.57,0,0,0,.19,0,.42.42,0,0,0,.14-.08.35.35,0,0,0,.09-.13.42.42,0,0,0,0-.16.27.27,0,0,0,0-.16.37.37,0,0,0-.12-.11l-.17-.07L132,2.44l-.19-.07a.61.61,0,0,1-.17-.11.5.5,0,0,1-.12-.17.59.59,0,0,1,0-.25.58.58,0,0,1,0-.23.57.57,0,0,1,.13-.19.65.65,0,0,1,.21-.14.79.79,0,0,1,.29-.05.93.93,0,0,1,.34.06.81.81,0,0,1,.27.17Z"/><path class="cls-3" d="M133.54,3.5a.37.37,0,0,1-.28-.1.41.41,0,0,1-.1-.3v-1h-.23a.05.05,0,0,1,0,0V2l.25,0,.06-.48a.06.06,0,0,1,0,0h.18v.54h.45v.2h-.45v.93a.2.2,0,0,0,0,.15.16.16,0,0,0,.12,0h.07l.05,0,0,0h0a0,0,0,0,1,0,0l.08.13a.51.51,0,0,1-.17.1A.58.58,0,0,1,133.54,3.5Z"/><path class="cls-3" d="M141.31,8.43a1.38,1.38,0,0,1,0,.35.66.66,0,0,1-.05.26.43.43,0,0,1-.14.18.64.64,0,0,1-.22.1h-.16l-.15,0a.51.51,0,0,1-.14-.09.7.7,0,0,1-.13-.16.67.67,0,0,1-.08.4.46.46,0,0,1-.29.2.62.62,0,0,1-.26,0,.55.55,0,0,1-.23-.1.69.69,0,0,1-.18-.2,1.08,1.08,0,0,1-.13-.31L139,8.3l2.13-.55ZM139.43,9a.74.74,0,0,0,.08.21.41.41,0,0,0,.12.13.32.32,0,0,0,.14.05h.16a.33.33,0,0,0,.23-.18.56.56,0,0,0,0-.38l-.12-.46-.74.19ZM141,8.09l-.73.19.1.38a.75.75,0,0,0,.08.21.42.42,0,0,0,.11.13.3.3,0,0,0,.14.06.4.4,0,0,0,.16,0,.34.34,0,0,0,.25-.18.59.59,0,0,0,0-.37Z"/><path class="cls-3" d="M141.17,10.38a.77.77,0,0,1,0,.31.64.64,0,0,1-.1.27.7.7,0,0,1-.21.21,1.11,1.11,0,0,1-.64.17.71.71,0,0,1-.28-.08.63.63,0,0,1-.21-.19.8.8,0,0,1-.13-.28.81.81,0,0,1,0-.31.65.65,0,0,1,.1-.27.68.68,0,0,1,.21-.21,1.08,1.08,0,0,1,.64-.17.7.7,0,0,1,.28.08.67.67,0,0,1,.21.19A.8.8,0,0,1,141.17,10.38Zm-1.34.35a.4.4,0,0,0,.24.3.88.88,0,0,0,.84-.22.4.4,0,0,0,.06-.37.49.49,0,0,0-.09-.19.39.39,0,0,0-.15-.11.53.53,0,0,0-.2,0,1,1,0,0,0-.25,0,.71.71,0,0,0-.39.22A.41.41,0,0,0,139.83,10.72Z"/><path class="cls-3" d="M142,13.49l-1.63-.1-.05-.21s0,0,0-.07l.94-.6.06,0,.07,0h-.15l-1.11-.08a.06.06,0,0,1-.07,0l-.05-.2,1.38-.88.05.21a.09.09,0,0,1,0,.06l0,0-.89.54-.19.09h.22l1.06.07,0,0a.07.07,0,0,1,0,0l0,.12a.08.08,0,0,1,0,.05l0,0-.89.56-.1.06-.09,0h.21l1,0,0,0a.09.09,0,0,1,0,0Z"/><path class="cls-3" d="M141,15.29a.52.52,0,0,1-.13-.09.78.78,0,0,1-.11-.13,1,1,0,0,1-.08-.15,1.1,1.1,0,0,1-.06-.16.79.79,0,0,1,0-.3.66.66,0,0,1,.1-.27.76.76,0,0,1,.21-.21,1,1,0,0,1,.33-.14.9.9,0,0,1,.31,0,.72.72,0,0,1,.27.08.68.68,0,0,1,.21.18.74.74,0,0,1,.13.28.69.69,0,0,1,0,.26.58.58,0,0,1-.08.23A.62.62,0,0,1,142,15a.84.84,0,0,1-.27.12h-.09a.06.06,0,0,1,0,0l-.26-1a.88.88,0,0,0-.24.1.54.54,0,0,0-.15.14.39.39,0,0,0-.07.18.53.53,0,0,0,0,.2.6.6,0,0,0,.07.17L141,15l.07.07a.11.11,0,0,1,0,.05.06.06,0,0,1,0,.06Zm.65-.4.16-.07a.42.42,0,0,0,.11-.11.35.35,0,0,0,.05-.14.48.48,0,0,0-.2-.44.54.54,0,0,0-.34-.06Z"/><path class="cls-3" d="M142.18,15.63a.69.69,0,0,1,.29.11.39.39,0,0,1,.15.23.4.4,0,0,1,0,.09.27.27,0,0,1,0,.09l-.2,0a0,0,0,0,1,0,0,.28.28,0,0,1,0-.06.49.49,0,0,0,0-.09.37.37,0,0,0-.05-.12.32.32,0,0,0-.09-.08l-.12-.05-.15,0L141,16l-.07-.27,1.51-.39,0,.15a.09.09,0,0,1,0,.06l-.05,0Z"/><path class="cls-3" d="M143,17.68l-2.17-.34-.06,0a.09.09,0,0,1,0-.06l-.05-.2.67.12,1.26-1,.06.23a.08.08,0,0,1,0,.06l0,0-.84.65-.12.07h.14l1,.15,0,0a.08.08,0,0,1,0,0Z"/><rect class="cls-1" x="10.01" y="5.63" width="10.77" height="0.61"/><rect class="cls-1" x="47.42" y="49.38" width="10.77" height="0.89"/><rect class="cls-4" x="64.9" y="5.95" width="40.03" height="43.87"/><rect class="cls-1" x="66.88" y="49.38" width="10.77" height="0.89"/><rect class="cls-1" x="17.39" y="11.29" width="10.77" height="0.69" transform="translate(34.41 -11.14) rotate(90)"/><rect class="cls-1" x="17.38" y="43.79" width="10.79" height="0.68" transform="translate(66.9 21.36) rotate(90)"/><rect class="cls-1" x="59.52" y="11.26" width="10.77" height="0.78" transform="translate(76.54 -53.26) rotate(90)"/><rect class="cls-1" x="59.53" y="43.76" width="10.77" height="0.75" transform="translate(109.04 -20.78) rotate(90)"/><rect class="cls-1" x="54.66" y="56.58" width="10.77" height="0.75" transform="translate(117 -3.09) rotate(90)"/><rect class="cls-1" x="99.54" y="78.53" width="10.77" height="0.75" transform="translate(183.83 -26.02) rotate(90)"/><rect class="cls-1" x="149.65" y="78.71" width="10.77" height="1.9" transform="translate(194.15 -90.2) rotate(75.77)"/><path class="cls-3" d="M26.24,16V10.26h1.24a1.71,1.71,0,0,1,1.31.42A1.94,1.94,0,0,1,29.17,12v2.11a2.2,2.2,0,0,1-.38,1.41,1.53,1.53,0,0,1-1.26.46Zm.8-.57h.45a1.27,1.27,0,0,0,.32,0,1.06,1.06,0,0,0,.23-.09.41.41,0,0,0,.16-.16,1,1,0,0,0,.15-.48c0-.12,0-.23,0-.31s0-.21,0-.37V12.1c0-.14,0-.25,0-.35s0-.19,0-.28a.85.85,0,0,0-.06-.23.8.8,0,0,0-.11-.17.44.44,0,0,0-.16-.12l-.23-.07-.31,0H27Z"/><path class="cls-3" d="M30,16V10.26h.78V16Z"/><path class="cls-3" d="M31.72,16V10.26h.54l1.63,3.8v-3.8h.67V16H34l-1.65-3.91V16Z"/><path class="cls-3" d="M35.49,16V10.26h.78V16Z"/><path class="cls-3" d="M37.2,16V10.26h.54l1.63,3.8v-3.8H40V16h-.51l-1.65-3.91V16Z"/><path class="cls-3" d="M42.3,16.05a1.28,1.28,0,0,1-1.13-.49,2.53,2.53,0,0,1-.35-1.46V12.19a4.92,4.92,0,0,1,0-.69,2.33,2.33,0,0,1,.15-.55,1.16,1.16,0,0,1,.28-.41,1.2,1.2,0,0,1,.44-.25,2,2,0,0,1,.63-.09,1.44,1.44,0,0,1,1.14.4,1.91,1.91,0,0,1,.35,1.27v.21H43.1v-.18c0-.16,0-.29,0-.4a1.47,1.47,0,0,0-.06-.3.5.5,0,0,0-.12-.22.56.56,0,0,0-.21-.12,1,1,0,0,0-.33,0,1,1,0,0,0-.26,0,.71.71,0,0,0-.19.09.43.43,0,0,0-.13.15,1,1,0,0,0-.13.42c0,.1,0,.18,0,.26s0,.18,0,.29v2.12a2.06,2.06,0,0,0,.16.95.77.77,0,0,0,1.22,0,2.24,2.24,0,0,0,.17-1v-.4h-.73v-.57H43.9V16h-.51l-.08-.66A1,1,0,0,1,42.3,16.05Z"/><path class="cls-3" d="M26.24,24.47V18.75h1.15a1.9,1.9,0,0,1,1.28.36,1.47,1.47,0,0,1,.41,1.16q0,1.1-.71,1.34l.82,2.87h-.77l-.75-2.69H27v2.69Zm.8-3.26h.3a1.09,1.09,0,0,0,.74-.21,1,1,0,0,0,.22-.74,1.09,1.09,0,0,0-.19-.73,1,1,0,0,0-.72-.21H27Z"/><path class="cls-3" d="M31.37,24.53a1.9,1.9,0,0,1-.73-.13,1.11,1.11,0,0,1-.49-.38,1.67,1.67,0,0,1-.26-.58,3.19,3.19,0,0,1-.08-.77V20.51a2.16,2.16,0,0,1,.36-1.36,1.79,1.79,0,0,1,2.4,0,2.15,2.15,0,0,1,.37,1.35v2.17a2.22,2.22,0,0,1-.37,1.38A1.41,1.41,0,0,1,31.37,24.53Zm-.39-.7a1.07,1.07,0,0,0,.78,0,.5.5,0,0,0,.23-.22,1.05,1.05,0,0,0,.11-.33,2.78,2.78,0,0,0,0-.44V20.34a2.65,2.65,0,0,0,0-.43,1,1,0,0,0-.11-.32.47.47,0,0,0-.23-.21,1.15,1.15,0,0,0-.78,0,.47.47,0,0,0-.23.21,1,1,0,0,0-.11.32,2.65,2.65,0,0,0,0,.43v2.51a2.78,2.78,0,0,0,0,.44,1.05,1.05,0,0,0,.11.33A.5.5,0,0,0,31,23.84Z"/><path class="cls-3" d="M35.18,24.53a1.9,1.9,0,0,1-.73-.13A1.11,1.11,0,0,1,34,24a1.67,1.67,0,0,1-.26-.58,3.19,3.19,0,0,1-.08-.77V20.51A2.16,2.16,0,0,1,34,19.15a1.79,1.79,0,0,1,2.4,0,2.15,2.15,0,0,1,.37,1.35v2.17a2.22,2.22,0,0,1-.37,1.38A1.41,1.41,0,0,1,35.18,24.53Zm-.39-.7a1.07,1.07,0,0,0,.78,0,.5.5,0,0,0,.23-.22,1.05,1.05,0,0,0,.11-.33,2.78,2.78,0,0,0,0-.44V20.34a2.65,2.65,0,0,0,0-.43,1,1,0,0,0-.11-.32.47.47,0,0,0-.23-.21,1.15,1.15,0,0,0-.78,0,.47.47,0,0,0-.23.21,1,1,0,0,0-.11.32,2.65,2.65,0,0,0,0,.43v2.51a2.78,2.78,0,0,0,0,.44,1.05,1.05,0,0,0,.11.33A.5.5,0,0,0,34.79,23.84Z"/><path class="cls-3" d="M37.52,24.47l.11-5.73h.78l1,4.65,1-4.65h.78l.11,5.73h-.65l-.06-4.16-1,4.16H39.2l-1-4.16-.06,4.16Z"/><path class="cls-3" d="M66.78,61.45a1.85,1.85,0,0,1-.62-.1,1.21,1.21,0,0,1-.44-.26,1.3,1.3,0,0,1-.28-.41,2,2,0,0,1-.15-.52,4,4,0,0,1,0-.61v-2a4.38,4.38,0,0,1,0-.65,2.12,2.12,0,0,1,.15-.53,1.17,1.17,0,0,1,.28-.4,1.2,1.2,0,0,1,.44-.25,2,2,0,0,1,.62-.09,1.34,1.34,0,0,1,1.11.42,1.94,1.94,0,0,1,.33,1.23v.46h-.76v-.4c0-.09,0-.16,0-.21s0-.11,0-.18a1.06,1.06,0,0,0,0-.17l0-.15a.39.39,0,0,0-.06-.13l-.09-.1a.34.34,0,0,0-.12-.08l-.16,0-.2,0a1,1,0,0,0-.29,0,.48.48,0,0,0-.2.11.7.7,0,0,0-.13.17.76.76,0,0,0-.07.24,2.75,2.75,0,0,0,0,.28q0,.14,0,.34v2.27a1.77,1.77,0,0,0,.16.9.63.63,0,0,0,.58.25,1,1,0,0,0,.27,0,.42.42,0,0,0,.19-.11.77.77,0,0,0,.12-.17.73.73,0,0,0,.07-.23c0-.1,0-.19,0-.27s0-.19,0-.32v-.42h.76v.42a3.66,3.66,0,0,1,0,.59,1.92,1.92,0,0,1-.14.49,1.11,1.11,0,0,1-.26.38,1.13,1.13,0,0,1-.41.23A1.83,1.83,0,0,1,66.78,61.45Z"/><path class="cls-3" d="M69,61.39V55.66h.8v5.15h1.46v.57Z"/><path class="cls-3" d="M73.91,61.36a2.18,2.18,0,0,1-1.27,0,1.1,1.1,0,0,1-.71-.68,2.27,2.27,0,0,1-.14-.55,5.2,5.2,0,0,1,0-.67v-3.8h.76V59.5c0,.16,0,.3,0,.42a2,2,0,0,0,.06.36.88.88,0,0,0,.13.29.6.6,0,0,0,.22.18.74.74,0,0,0,.34.07.73.73,0,0,0,.34-.07.6.6,0,0,0,.22-.18.89.89,0,0,0,.13-.29,2,2,0,0,0,.06-.36c0-.12,0-.26,0-.42V55.66h.76v3.8a5.2,5.2,0,0,1,0,.67,2.32,2.32,0,0,1-.14.55,1.1,1.1,0,0,1-.71.68Z"/><path class="cls-3" d="M75.64,61.39V55.66h1.31a1.66,1.66,0,0,1,1.16.35,1.41,1.41,0,0,1,.38,1.08q0,1.09-.82,1.21a1.18,1.18,0,0,1,.74.48,1.74,1.74,0,0,1,.23,1A1.82,1.82,0,0,1,78.27,61a1.37,1.37,0,0,1-1.11.43Zm.8-3.34h.47a.88.88,0,0,0,.69-.22,1.12,1.12,0,0,0,.19-.74,1.64,1.64,0,0,0,0-.3,1.1,1.1,0,0,0-.06-.22.38.38,0,0,0-.12-.15l-.16-.1a.8.8,0,0,0-.22-.05l-.26,0h-.51Zm0,2.76H77a.86.86,0,0,0,.71-.24,1.36,1.36,0,0,0,.19-.82,1.26,1.26,0,0,0-.23-.82.91.91,0,0,0-.74-.27h-.47Z"/><path class="cls-3" d="M65.35,69.88V64.15H66.5a1.9,1.9,0,0,1,1.28.36,1.47,1.47,0,0,1,.41,1.16q0,1.1-.71,1.34l.82,2.87h-.77l-.75-2.69h-.62v2.69Zm.8-3.26h.3a1.09,1.09,0,0,0,.74-.21,1,1,0,0,0,.22-.74,1.09,1.09,0,0,0-.19-.73,1,1,0,0,0-.72-.21h-.35Z"/><path class="cls-3" d="M70.47,69.94a1.9,1.9,0,0,1-.73-.13,1.11,1.11,0,0,1-.49-.38,1.67,1.67,0,0,1-.26-.58,3.19,3.19,0,0,1-.08-.77V65.92a2.16,2.16,0,0,1,.36-1.36,1.79,1.79,0,0,1,2.4,0A2.15,2.15,0,0,1,72,65.92v2.17a2.22,2.22,0,0,1-.37,1.38A1.41,1.41,0,0,1,70.47,69.94Zm-.39-.7a1.07,1.07,0,0,0,.78,0A.5.5,0,0,0,71.1,69a1.05,1.05,0,0,0,.11-.33,2.78,2.78,0,0,0,0-.44V65.75a2.65,2.65,0,0,0,0-.43A1,1,0,0,0,71.1,65a.47.47,0,0,0-.23-.21,1.15,1.15,0,0,0-.78,0,.47.47,0,0,0-.23.21,1,1,0,0,0-.11.32,2.65,2.65,0,0,0,0,.43v2.51a2.78,2.78,0,0,0,0,.44,1.05,1.05,0,0,0,.11.33A.5.5,0,0,0,70.09,69.24Z"/><path class="cls-3" d="M74.29,69.94a1.9,1.9,0,0,1-.73-.13,1.11,1.11,0,0,1-.49-.38,1.67,1.67,0,0,1-.26-.58,3.19,3.19,0,0,1-.08-.77V65.92a2.16,2.16,0,0,1,.36-1.36,1.79,1.79,0,0,1,2.4,0,2.15,2.15,0,0,1,.37,1.35v2.17a2.22,2.22,0,0,1-.37,1.38A1.41,1.41,0,0,1,74.29,69.94Zm-.39-.7a1.07,1.07,0,0,0,.78,0,.5.5,0,0,0,.23-.22A1.05,1.05,0,0,0,75,68.7a2.78,2.78,0,0,0,0-.44V65.75a2.65,2.65,0,0,0,0-.43,1,1,0,0,0-.11-.32.47.47,0,0,0-.23-.21,1.15,1.15,0,0,0-.78,0,.47.47,0,0,0-.23.21,1,1,0,0,0-.11.32,2.65,2.65,0,0,0,0,.43v2.51a2.78,2.78,0,0,0,0,.44,1.05,1.05,0,0,0,.11.33A.5.5,0,0,0,73.9,69.24Z"/><path class="cls-3" d="M76.63,69.88l.11-5.73h.78l1,4.65,1-4.65h.78l.11,5.73h-.65l-.06-4.16-1,4.16h-.45l-1-4.16-.06,4.16Z"/><path class="cls-3" d="M110.49,71.54a1.28,1.28,0,0,1-1.13-.49,2.53,2.53,0,0,1-.35-1.46V67.67a4.92,4.92,0,0,1,0-.69,2.33,2.33,0,0,1,.15-.55,1.16,1.16,0,0,1,.28-.41,1.2,1.2,0,0,1,.44-.25,2,2,0,0,1,.63-.09,1.44,1.44,0,0,1,1.14.4,1.91,1.91,0,0,1,.35,1.27v.21h-.75v-.18c0-.16,0-.29,0-.4a1.47,1.47,0,0,0-.06-.3.5.5,0,0,0-.12-.22.56.56,0,0,0-.21-.12,1,1,0,0,0-.33,0,1,1,0,0,0-.26,0,.71.71,0,0,0-.19.09.43.43,0,0,0-.13.15,1,1,0,0,0-.13.42c0,.1,0,.18,0,.26s0,.18,0,.29v2.12a2.06,2.06,0,0,0,.16.95.77.77,0,0,0,1.22,0,2.24,2.24,0,0,0,.17-1v-.4h-.73v-.57h1.45v2.84h-.51l-.08-.66A1,1,0,0,1,110.49,71.54Z"/><path class="cls-3" d="M112.6,71.47l1.22-5.73h.77l1.22,5.73h-.76L114.79,70h-1.16l-.27,1.44Zm1.13-2h1l-.48-2.59Z"/><path class="cls-3" d="M116.39,71.47V65.74h1.15a1.9,1.9,0,0,1,1.28.36,1.47,1.47,0,0,1,.41,1.16q0,1.1-.71,1.34l.82,2.87h-.77l-.75-2.69h-.62v2.69Zm.8-3.26h.3a1.09,1.09,0,0,0,.74-.21,1,1,0,0,0,.22-.74,1.09,1.09,0,0,0-.19-.73,1,1,0,0,0-.72-.21h-.35Z"/><path class="cls-3" d="M120.07,71.47V65.74h1.24a1.71,1.71,0,0,1,1.31.42,1.94,1.94,0,0,1,.38,1.33V69.6a2.2,2.2,0,0,1-.38,1.41,1.53,1.53,0,0,1-1.26.46Zm.8-.57h.45a1.27,1.27,0,0,0,.32,0,1.06,1.06,0,0,0,.23-.09.41.41,0,0,0,.16-.16,1,1,0,0,0,.15-.48c0-.12,0-.23,0-.31s0-.21,0-.37V67.58c0-.14,0-.25,0-.35s0-.19,0-.28a.85.85,0,0,0-.06-.23.8.8,0,0,0-.11-.17.44.44,0,0,0-.16-.12l-.23-.07-.31,0h-.43Z"/><path class="cls-3" d="M123.79,71.47V65.74H126v.59h-1.42v1.89h1.15v.57h-1.15v2.1H126v.57Z"/><path class="cls-3" d="M126.67,71.47V65.74h.54l1.63,3.8v-3.8h.67v5.73H129l-1.65-3.91v3.91Z"/><path class="cls-3" d="M109.13,80V74.23h1.31a1.66,1.66,0,0,1,1.16.35,1.41,1.41,0,0,1,.38,1.08q0,1.09-.82,1.21a1.18,1.18,0,0,1,.74.48,1.74,1.74,0,0,1,.23,1,1.82,1.82,0,0,1-.36,1.21,1.37,1.37,0,0,1-1.11.43Zm.8-3.34h.47a.88.88,0,0,0,.69-.22,1.12,1.12,0,0,0,.19-.74,1.64,1.64,0,0,0,0-.3,1.1,1.1,0,0,0-.06-.22.38.38,0,0,0-.12-.15l-.16-.1a.8.8,0,0,0-.22-.05l-.26,0h-.51Zm0,2.76h.54a.86.86,0,0,0,.71-.24,1.36,1.36,0,0,0,.19-.82,1.26,1.26,0,0,0-.23-.82.91.91,0,0,0-.74-.27h-.47Z"/><path class="cls-3" d="M112.52,80l1.22-5.73h.77L115.73,80H115l-.26-1.44h-1.16L113.27,80Zm1.13-2h1l-.48-2.59Z"/><path class="cls-3" d="M116.31,80V74.23h1.15a1.9,1.9,0,0,1,1.28.36,1.47,1.47,0,0,1,.41,1.16q0,1.1-.71,1.34l.82,2.87h-.77l-.75-2.69h-.62V80Zm.8-3.26h.3a1.09,1.09,0,0,0,.74-.21,1,1,0,0,0,.22-.74,1.09,1.09,0,0,0-.19-.73,1,1,0,0,0-.72-.21h-.35Z"/><path class="cls-3" d="M3.81,16V9.92H6.15v.61H4.65v2H5.81v.6H4.65V16Z"/><path class="cls-3" d="M6.73,16V9.92H7.95a2,2,0,0,1,1.35.38,1.56,1.56,0,0,1,.43,1.23q0,1.17-.75,1.42l.87,3H9l-.8-2.85H7.58V16Zm.84-3.45h.32a1.15,1.15,0,0,0,.79-.22,1.05,1.05,0,0,0,.24-.79,1.16,1.16,0,0,0-.2-.78,1,1,0,0,0-.77-.22H7.58Z"/><path class="cls-3" d="M12.16,16a2,2,0,0,1-.78-.14,1.18,1.18,0,0,1-.51-.4,1.78,1.78,0,0,1-.28-.61,3.4,3.4,0,0,1-.09-.82v-2.3a2.28,2.28,0,0,1,.39-1.44,1.53,1.53,0,0,1,1.27-.49,1.52,1.52,0,0,1,1.27.49,2.27,2.27,0,0,1,.39,1.43v2.3a2.35,2.35,0,0,1-.39,1.46A1.5,1.5,0,0,1,12.16,16Zm-.41-.74a1.14,1.14,0,0,0,.82,0,.53.53,0,0,0,.25-.23,1.14,1.14,0,0,0,.12-.35,2.94,2.94,0,0,0,0-.47V11.61a2.83,2.83,0,0,0,0-.46,1.1,1.1,0,0,0-.12-.34.51.51,0,0,0-.25-.23,1.22,1.22,0,0,0-.82,0,.51.51,0,0,0-.25.23,1.1,1.1,0,0,0-.12.34,2.84,2.84,0,0,0,0,.46v2.66a3,3,0,0,0,0,.47,1.14,1.14,0,0,0,.12.35A.53.53,0,0,0,11.75,15.31Z"/><path class="cls-3" d="M14.66,16V9.92h.57l1.72,4v-4h.71V16h-.54l-1.75-4.14V16Z"/><path class="cls-3" d="M19.23,16V10.54H18.13V9.92h3v.63H20.08V16Z"/><path class="cls-3" d="M3.81,25V18.91H5.19a1.75,1.75,0,0,1,1.23.37,1.5,1.5,0,0,1,.4,1.15q0,1.16-.87,1.28a1.24,1.24,0,0,1,.78.51,1.84,1.84,0,0,1,.25,1,1.93,1.93,0,0,1-.38,1.28A1.45,1.45,0,0,1,5.42,25Zm.84-3.53h.5a.93.93,0,0,0,.73-.23,1.18,1.18,0,0,0,.2-.78,1.72,1.72,0,0,0,0-.31A1.14,1.14,0,0,0,6,19.88a.39.39,0,0,0-.12-.16l-.17-.1a.85.85,0,0,0-.23-.06l-.28,0H4.65Zm0,2.93h.57A.91.91,0,0,0,6,24.11a1.43,1.43,0,0,0,.2-.87,1.34,1.34,0,0,0-.24-.87,1,1,0,0,0-.78-.29h-.5Z"/><path class="cls-3" d="M7.39,25l1.29-6.06H9.5L10.8,25H10l-.28-1.53H8.48L8.2,25Zm1.2-2.13h1L9.1,20.1Z"/><path class="cls-3" d="M11.41,25V18.91h1.22a2,2,0,0,1,1.35.38,1.56,1.56,0,0,1,.43,1.23q0,1.17-.75,1.42l.87,3h-.82l-.8-2.85h-.66V25Zm.84-3.45h.32a1.15,1.15,0,0,0,.79-.22,1.05,1.05,0,0,0,.24-.79,1.16,1.16,0,0,0-.2-.78,1,1,0,0,0-.77-.22h-.37Z"/><path class="cls-3" d="M5.08,34a1.25,1.25,0,0,1-1-.38,1.39,1.39,0,0,1-.35-1,1.91,1.91,0,0,1,.24-1,3.23,3.23,0,0,1,.65-.8l-.17-.32-.18-.35-.15-.33A2,2,0,0,1,4,29.55a1.77,1.77,0,0,1,0-.37,1.35,1.35,0,0,1,.35-1,1.24,1.24,0,0,1,.94-.37,1.39,1.39,0,0,1,.92.31,1,1,0,0,1,.36.82,1.7,1.7,0,0,1-.1.57,2.28,2.28,0,0,1-.29.55c-.12.17-.24.33-.36.46s-.24.26-.39.4l.92,1.44a3.8,3.8,0,0,0,.3-1.21h.8a2.63,2.63,0,0,1-.18.9,3.48,3.48,0,0,1-.41.81.9.9,0,0,0,.26.22.65.65,0,0,0,.33.09V34H7.34l-.16,0L7,34l-.14-.07-.12-.07-.12-.1-.1-.09-.1-.11-.09-.09a1.56,1.56,0,0,1-.55.43A1.71,1.71,0,0,1,5.08,34Zm0-.66a1.05,1.05,0,0,0,.81-.45L5,31.49a1.81,1.81,0,0,0-.29.54,2,2,0,0,0-.11.63,1,1,0,0,0,.12.5A.42.42,0,0,0,5.08,33.37Zm.08-2.85a2.8,2.8,0,0,0,.43-.72A2.11,2.11,0,0,0,5.77,29a.45.45,0,0,0-.13-.34.49.49,0,0,0-.35-.13.41.41,0,0,0-.37.2.9.9,0,0,0-.12.48A3.47,3.47,0,0,0,5.16,30.51Z"/><path class="cls-3" d="M3.71,41.16V36.3h1.2a1.13,1.13,0,0,1,.92.34,1.53,1.53,0,0,1,.28,1,1.31,1.31,0,0,1-.31.92,1.16,1.16,0,0,1-.89.33H4.39v2.26Zm.68-2.75H4.7a.9.9,0,0,0,.61-.16.83.83,0,0,0,.17-.61c0-.12,0-.22,0-.3a1,1,0,0,0,0-.22.36.36,0,0,0-.22-.26A.71.71,0,0,0,5,36.8H4.39Z"/><path class="cls-3" d="M6.1,41.16l1-4.86h.65l1,4.86H8.18L8,39.94H7l-.23,1.22Zm1-1.71h.81l-.41-2.19Z"/><path class="cls-3" d="M9.32,41.16V36.3h1a1.62,1.62,0,0,1,1.08.3,1.25,1.25,0,0,1,.34,1q0,.94-.6,1.13l.69,2.44h-.66l-.64-2.28H10v2.28ZM10,38.4h.25a.92.92,0,0,0,.63-.17.84.84,0,0,0,.19-.63.93.93,0,0,0-.16-.62.82.82,0,0,0-.61-.18H10Z"/><path class="cls-3" d="M12.43,41.16V36.3h.68v4.37h1.24v.49Z"/><path class="cls-3" d="M16,41.21a1.62,1.62,0,0,1-.62-.11,1,1,0,0,1-.41-.32,1.42,1.42,0,0,1-.22-.49,2.72,2.72,0,0,1-.07-.66V37.8A1.82,1.82,0,0,1,15,36.65a1.22,1.22,0,0,1,1-.39,1.22,1.22,0,0,1,1,.39,1.82,1.82,0,0,1,.31,1.15v1.84A1.89,1.89,0,0,1,17,40.81,1.2,1.2,0,0,1,16,41.21Zm-.33-.59a.92.92,0,0,0,.66,0,.43.43,0,0,0,.2-.19.89.89,0,0,0,.09-.28,2.35,2.35,0,0,0,0-.37V37.66a2.24,2.24,0,0,0,0-.37.85.85,0,0,0-.09-.27.41.41,0,0,0-.2-.18,1,1,0,0,0-.66,0,.4.4,0,0,0-.2.18.83.83,0,0,0-.09.27,2.13,2.13,0,0,0,0,.37v2.13a2.24,2.24,0,0,0,0,.37.86.86,0,0,0,.09.28A.42.42,0,0,0,15.68,40.62Z"/><path class="cls-3" d="M18,41.16V36.3h1a1.62,1.62,0,0,1,1.08.3,1.25,1.25,0,0,1,.34,1q0,.94-.6,1.13l.69,2.44h-.66l-.64-2.28h-.52v2.28Zm.68-2.77h.25a.92.92,0,0,0,.63-.17.84.84,0,0,0,.19-.63A.93.93,0,0,0,19.6,37a.82.82,0,0,0-.61-.18h-.3Z"/><polygon class="cls-2" points="136.35 5.95 150.15 61.39 104.93 61.39 104.93 5.95 136.35 5.95"/><path class="cls-1" d="M68.72,16V10.26h1.42a1.33,1.33,0,0,1,1.08.4,1.81,1.81,0,0,1,.33,1.18,1.54,1.54,0,0,1-.36,1.09,1.36,1.36,0,0,1-1.05.39h-.62V16Zm.8-3.24h.36a1.06,1.06,0,0,0,.72-.19,1,1,0,0,0,.2-.71c0-.14,0-.26,0-.36a1.31,1.31,0,0,0,0-.26.51.51,0,0,0-.09-.19.5.5,0,0,0-.16-.12.81.81,0,0,0-.25-.07l-.35,0h-.37Z"/><path class="cls-1" d="M71.53,16l1.22-5.73h.77L74.75,16H74l-.26-1.44H72.56L72.29,16Zm1.13-2h1l-.48-2.59Z"/><path class="cls-1" d="M75.69,16V10.85h-1v-.59h2.85v.59h-1V16Z"/><path class="cls-1" d="M78,16V10.26h.78V16Z"/><path class="cls-1" d="M81.14,16a1.9,1.9,0,0,1-.73-.13,1.11,1.11,0,0,1-.49-.38,1.67,1.67,0,0,1-.26-.58,3.19,3.19,0,0,1-.08-.77V12a2.16,2.16,0,0,1,.36-1.36,1.79,1.79,0,0,1,2.4,0A2.15,2.15,0,0,1,82.71,12v2.17a2.22,2.22,0,0,1-.37,1.38A1.41,1.41,0,0,1,81.14,16Zm-.39-.7a1.07,1.07,0,0,0,.78,0,.5.5,0,0,0,.23-.22,1.05,1.05,0,0,0,.11-.33,2.78,2.78,0,0,0,0-.44V11.85a2.65,2.65,0,0,0,0-.43,1,1,0,0,0-.11-.32.47.47,0,0,0-.23-.21,1.15,1.15,0,0,0-.78,0,.47.47,0,0,0-.23.21,1,1,0,0,0-.11.32,2.65,2.65,0,0,0,0,.43v2.51a2.78,2.78,0,0,0,0,.44,1.05,1.05,0,0,0,.11.33A.5.5,0,0,0,80.75,15.35Z"/><rect class="cls-1" x="107.66" y="60.94" width="10.77" height="0.99"/><rect class="cls-1" x="83.44" y="27.4" width="43.28" height="0.98" transform="translate(132.96 -77.19) rotate(90)"/><path class="cls-3" d="M110.59,16a1.9,1.9,0,0,1-.73-.13,1.11,1.11,0,0,1-.49-.38,1.67,1.67,0,0,1-.26-.58,3.19,3.19,0,0,1-.08-.77V12a2.16,2.16,0,0,1,.36-1.36,1.79,1.79,0,0,1,2.4,0,2.15,2.15,0,0,1,.37,1.35v2.17a2.22,2.22,0,0,1-.37,1.38A1.41,1.41,0,0,1,110.59,16Zm-.39-.7a1.07,1.07,0,0,0,.78,0,.5.5,0,0,0,.23-.22,1.05,1.05,0,0,0,.11-.33,2.78,2.78,0,0,0,0-.44V11.85a2.65,2.65,0,0,0,0-.43,1,1,0,0,0-.11-.32.47.47,0,0,0-.23-.21,1.15,1.15,0,0,0-.78,0,.47.47,0,0,0-.23.21,1,1,0,0,0-.11.32,2.65,2.65,0,0,0,0,.43v2.51a2.78,2.78,0,0,0,0,.44,1.05,1.05,0,0,0,.11.33A.5.5,0,0,0,110.2,15.35Z"/><path class="cls-3" d="M115.05,16a2.18,2.18,0,0,1-1.27,0,1.1,1.1,0,0,1-.71-.68,2.27,2.27,0,0,1-.14-.55,5.2,5.2,0,0,1,0-.67v-3.8h.76v3.83c0,.16,0,.3,0,.42a2,2,0,0,0,.06.36.88.88,0,0,0,.13.29.6.6,0,0,0,.22.18.74.74,0,0,0,.34.07.73.73,0,0,0,.34-.07.6.6,0,0,0,.22-.18.89.89,0,0,0,.13-.29,2,2,0,0,0,.06-.36c0-.12,0-.26,0-.42V10.26h.76v3.8a5.2,5.2,0,0,1,0,.67,2.32,2.32,0,0,1-.14.55,1.1,1.1,0,0,1-.71.68Z"/><path class="cls-3" d="M117.37,16V10.85h-1v-.59h2.85v.59h-1V16Z"/><path class="cls-3" d="M121,16a1.36,1.36,0,0,1-1.1-.45,2,2,0,0,1-.42-1.22l.71-.19q.08,1.23.81,1.23a.61.61,0,0,0,.47-.17.71.71,0,0,0,.16-.5,1.24,1.24,0,0,0,0-.33,1,1,0,0,0-.14-.29,2.11,2.11,0,0,0-.19-.23l-.25-.24-1-.85a1.54,1.54,0,0,1-.56-1.27,1.28,1.28,0,0,1,.36-1,1.39,1.39,0,0,1,1-.35,1.32,1.32,0,0,1,1,.35,1.85,1.85,0,0,1,.41,1.13l-.67.19c0-.12,0-.24,0-.33a1.49,1.49,0,0,0-.08-.29.8.8,0,0,0-.13-.24.54.54,0,0,0-.21-.14.68.68,0,0,0-.3,0q-.63,0-.63.63a.92.92,0,0,0,.09.42,1.32,1.32,0,0,0,.29.36l1,.85a3,3,0,0,1,.6.72,1.73,1.73,0,0,1,.22.88,1.32,1.32,0,0,1-.38,1A1.36,1.36,0,0,1,121,16Z"/><path class="cls-3" d="M123,16V10.26h.78V16Z"/><path class="cls-3" d="M124.72,16V10.26H126a1.71,1.71,0,0,1,1.31.42,1.94,1.94,0,0,1,.38,1.33v2.11a2.2,2.2,0,0,1-.38,1.41A1.53,1.53,0,0,1,126,16Zm.8-.57H126a1.27,1.27,0,0,0,.32,0,1.06,1.06,0,0,0,.23-.09.41.41,0,0,0,.16-.16,1,1,0,0,0,.15-.48c0-.12,0-.23,0-.31s0-.21,0-.37V12.1c0-.14,0-.25,0-.35s0-.19,0-.28a.85.85,0,0,0-.06-.23.8.8,0,0,0-.11-.17.44.44,0,0,0-.16-.12l-.23-.07-.31,0h-.43Z"/><path class="cls-3" d="M128.45,16V10.26h2.22v.59h-1.42v1.89h1.15v.57h-1.15v2.1h1.44V16Z"/><path class="cls-3" d="M110.49,24.54a1.28,1.28,0,0,1-1.13-.49,2.53,2.53,0,0,1-.35-1.46V20.68a4.92,4.92,0,0,1,0-.69,2.33,2.33,0,0,1,.15-.55,1.16,1.16,0,0,1,.28-.41,1.2,1.2,0,0,1,.44-.25,2,2,0,0,1,.63-.09,1.44,1.44,0,0,1,1.14.4,1.91,1.91,0,0,1,.35,1.27v.21h-.75V20.4c0-.16,0-.29,0-.4a1.47,1.47,0,0,0-.06-.3.5.5,0,0,0-.12-.22.56.56,0,0,0-.21-.12,1,1,0,0,0-.33,0,1,1,0,0,0-.26,0,.71.71,0,0,0-.19.09.43.43,0,0,0-.13.15,1,1,0,0,0-.13.42c0,.1,0,.18,0,.26s0,.18,0,.29v2.12a2.06,2.06,0,0,0,.16.95.77.77,0,0,0,1.22,0,2.24,2.24,0,0,0,.17-1v-.4h-.73v-.57h1.45v2.84h-.51l-.08-.66A1,1,0,0,1,110.49,24.54Z"/><path class="cls-3" d="M112.6,24.47l1.22-5.73h.77l1.22,5.73h-.76L114.79,23h-1.16l-.27,1.44Zm1.13-2h1l-.48-2.59Z"/><path class="cls-3" d="M116.39,24.47V18.75h1.15a1.9,1.9,0,0,1,1.28.36,1.47,1.47,0,0,1,.41,1.16q0,1.1-.71,1.34l.82,2.87h-.77l-.75-2.69h-.62v2.69Zm.8-3.26h.3a1.09,1.09,0,0,0,.74-.21,1,1,0,0,0,.22-.74,1.09,1.09,0,0,0-.19-.73,1,1,0,0,0-.72-.21h-.35Z"/><path class="cls-3" d="M120.07,24.47V18.75h1.24a1.71,1.71,0,0,1,1.31.42,1.94,1.94,0,0,1,.38,1.33V22.6a2.2,2.2,0,0,1-.38,1.41,1.53,1.53,0,0,1-1.26.46Zm.8-.57h.45a1.27,1.27,0,0,0,.32,0,1.06,1.06,0,0,0,.23-.09.41.41,0,0,0,.16-.16,1,1,0,0,0,.15-.48c0-.12,0-.23,0-.31s0-.21,0-.37V20.59c0-.14,0-.25,0-.35s0-.19,0-.28a.85.85,0,0,0-.06-.23.8.8,0,0,0-.11-.17.44.44,0,0,0-.16-.12l-.23-.07-.31,0h-.43Z"/><path class="cls-3" d="M123.79,24.47V18.75H126v.59h-1.42v1.89h1.15v.57h-1.15v2.1H126v.57Z"/><path class="cls-3" d="M126.67,24.47V18.75h.54l1.63,3.8v-3.8h.67v5.73H129l-1.65-3.91v3.91Z"/><rect class="cls-1" x="106.58" y="4.82" width="10.77" height="1.9"/></g></g></svg>