<svg xmlns="http://www.w3.org/2000/svg" viewBox="0 0 169.43 95.6"><defs><style>.cls-1,.cls-13{fill:#fff;}.cls-2{fill:none;}.cls-2,.cls-9{stroke:#1f3238;stroke-miterlimit:10;}.cls-3{font-size:3.24px;}.cls-10,.cls-14,.cls-3,.cls-5,.cls-8{fill:#1f3238;}.cls-3,.cls-5{font-family:Lato-Regular, Lato;}.cls-4{letter-spacing:-0.02em;}.cls-5{font-size:3.24px;}.cls-6{letter-spacing:-0.01em;}.cls-7{letter-spacing:-0.02em;}.cls-10,.cls-13,.cls-8{font-size:7.47px;}.cls-10,.cls-13,.cls-14,.cls-8{font-family:Oswald-Regular, Oswald Regular;}.cls-9{fill:#da4626;}.cls-10{letter-spacing:-0.04em;}.cls-11{letter-spacing:-0.03em;}.cls-12{letter-spacing:0em;}.cls-14{font-size:7.49px;}.cls-15{font-size:6px;}.cls-16{letter-spacing:-0.04em;}.cls-17{letter-spacing:-0.01em;}</style></defs><title>bbar-events-outside-garden@1x</title><g id="Layer_2" data-name="Layer 2"><g id="Layer_1-2" data-name="Layer 1"><rect class="cls-1" width="169.43" height="95.6"/><rect class="cls-2" x="63.97" y="53.14" width="47.38" height="40.5"/><rect class="cls-2" x="3.01" y="6.84" width="21.58" height="46.3"/><rect class="cls-2" x="24.59" y="6.84" width="44.51" height="46.3"/><rect class="cls-2" x="69.1" y="6.84" width="42.25" height="46.3"/><polygon class="cls-2" points="159.08 65.35 111.35 65.35 111.35 93.64 166.12 93.64 159.08 65.35"/><text class="cls-3" transform="translate(130.75 4.22)">E 4th <tspan class="cls-4" x="8.38" y="0">S</tspan><tspan x="10.07" y="0">t</tspan></text><text class="cls-5" transform="matrix(0.25, 0.97, -0.97, 0.25, 147.24, 9.03)"><tspan class="cls-6">Bow</tspan><tspan x="6.41" y="0">er</tspan><tspan class="cls-7" x="9.3" y="0">y</tspan></text><rect class="cls-1" x="11.17" y="6.5" width="11.36" height="0.65"/><rect class="cls-1" x="50.66" y="52.68" width="11.36" height="0.94"/><rect class="cls-1" x="71.19" y="52.68" width="11.36" height="0.94"/><rect class="cls-1" x="18.96" y="12.47" width="11.36" height="0.72" transform="translate(37.47 -11.81) rotate(90)"/><rect class="cls-1" x="18.94" y="46.77" width="11.39" height="0.72" transform="translate(71.77 22.49) rotate(90)"/><rect class="cls-1" x="63.42" y="12.43" width="11.36" height="0.82" transform="translate(81.95 -56.26) rotate(90)"/><rect class="cls-1" x="63.43" y="46.74" width="11.36" height="0.79" transform="translate(116.25 -21.98) rotate(90)"/><rect class="cls-1" x="58.29" y="60.27" width="11.36" height="0.79" transform="translate(124.64 -3.31) rotate(90)"/><rect class="cls-1" x="105.67" y="83.44" width="11.36" height="0.79" transform="translate(195.19 -27.51) rotate(90)"/><rect class="cls-1" x="158.56" y="83.63" width="11.36" height="2.01" transform="translate(205.91 -95.37) rotate(75.77)"/><text class="cls-8" transform="translate(27.82 17.42)">DINING<tspan x="0" y="8.96">AREA</tspan></text><text class="cls-8" transform="translate(69.1 65.35)">CLUB<tspan x="0" y="8.96">ROOM</tspan></text><text class="cls-8" transform="translate(115.31 75.99)">GARDEN<tspan x="0" y="8.96">BAR</tspan></text><polygon class="cls-9" points="144.52 6.84 159.08 65.35 111.35 65.35 111.35 6.84 144.52 6.84"/><text class="cls-10" transform="translate(72.66 17.42)">P<tspan class="cls-11" x="3.31" y="0">A</tspan><tspan class="cls-12" x="6.74" y="0">TIO</tspan></text><rect class="cls-1" x="114.23" y="64.88" width="11.36" height="1.04"/><rect class="cls-1" x="88.17" y="29.32" width="45.68" height="1.32" transform="translate(140.99 -81.02) rotate(90)"/><text class="cls-13" transform="translate(115.31 17.42)">OUTSIDE<tspan x="0" y="8.96">GARDEN</tspan></text><rect class="cls-1" x="113.1" y="5.64" width="11.36" height="1.51"/><text class="cls-14" transform="translate(4.78 17.42)">FRONT<tspan x="0" y="8.99">BAR</tspan><tspan x="0" y="17.98">&amp;</tspan><tspan class="cls-15"><tspan class="cls-16" x="0" y="25.18">P</tspan><tspan x="2.66" y="25.18">AR</tspan><tspan class="cls-17" x="8.72" y="25.18">L</tspan><tspan x="11.06" y="25.18">OR</tspan></tspan></text></g></g></svg>