<svg xmlns="http://www.w3.org/2000/svg" viewBox="0 0 162.83 93.34"><defs><style>.cls-1{fill:#fff;}.cls-2{fill:#da4626;}.cls-2,.cls-3{stroke:#1f3238;stroke-miterlimit:10;}.cls-3{fill:none;}.cls-4{fill:#1f3238;}</style></defs><title>bbar-events-club-room</title><g id="Layer_2" data-name="Layer 2"><g id="Layer_1-2" data-name="Layer 1"><rect class="cls-1" width="162.83" height="93.34"/><rect class="cls-2" x="61.41" y="50.63" width="45.53" height="38.92"/><rect class="cls-3" x="2.82" y="6.13" width="20.74" height="44.5"/><rect class="cls-3" x="23.56" y="6.13" width="42.77" height="44.5"/><rect class="cls-3" x="66.34" y="6.13" width="40.61" height="44.5"/><polygon class="cls-3" points="152.81 62.36 106.94 62.36 106.94 89.55 159.58 89.55 152.81 62.36"/><path class="cls-4" d="M127.25,3.36v.25h-1.38V1.38h1.38v.25h-1.07v.74H127V2.6h-.87v.76Z"/><path class="cls-4" d="M129.9,2.81V3a.06.06,0,0,1,0,0l0,0h-.28v.59h-.24V3h-1l-.05,0a.07.07,0,0,1,0,0l0-.14,1.09-1.44h.26V2.81Zm-.58,0V1.88s0-.06,0-.09,0-.06,0-.1l-.81,1.11Z"/><path class="cls-4" d="M130.7,3.64a.38.38,0,0,1-.29-.1.41.41,0,0,1-.1-.3v-1h-.23a.06.06,0,0,1,0,0V2.09l.26,0,.06-.49a.07.07,0,0,1,0,0h.18v.54H131v.2h-.46v.95a.21.21,0,0,0,0,.15.17.17,0,0,0,.13,0h.08l.05,0,0,0h0a0,0,0,0,1,0,0l.08.13a.53.53,0,0,1-.17.1A.59.59,0,0,1,130.7,3.64Z"/><path class="cls-4" d="M131.61,2.24a.81.81,0,0,1,.22-.17.65.65,0,0,1,.51,0,.46.46,0,0,1,.16.12.54.54,0,0,1,.1.19.87.87,0,0,1,0,.25v1h-.28v-1a.43.43,0,0,0-.08-.28.3.3,0,0,0-.25-.1.46.46,0,0,0-.23.06.72.72,0,0,0-.2.16V3.61h-.28V1.32h.28Z"/><path class="cls-4" d="M135.07,1.73l0,0h0l-.06,0-.09-.06-.13-.06a.54.54,0,0,0-.18,0,.52.52,0,0,0-.18,0,.37.37,0,0,0-.13.07.31.31,0,0,0-.08.11.35.35,0,0,0,0,.14.25.25,0,0,0,0,.15.42.42,0,0,0,.12.11l.17.08.2.07.2.08a.7.7,0,0,1,.17.11.48.48,0,0,1,.12.16.53.53,0,0,1,0,.23.76.76,0,0,1-.05.28.64.64,0,0,1-.15.22.67.67,0,0,1-.24.15.85.85,0,0,1-.32.05,1,1,0,0,1-.4-.08.94.94,0,0,1-.3-.21l.09-.14,0,0h0l0,0,.06,0,.07.05.1.05.12,0,.15,0a.59.59,0,0,0,.19,0,.44.44,0,0,0,.14-.08.36.36,0,0,0,.09-.13.43.43,0,0,0,0-.17.27.27,0,0,0,0-.17.37.37,0,0,0-.12-.11l-.17-.07-.2-.06-.2-.07a.64.64,0,0,1-.17-.11.49.49,0,0,1-.12-.17.59.59,0,0,1,0-.25.6.6,0,0,1,.18-.43.65.65,0,0,1,.22-.14.78.78,0,0,1,.3-.05.93.93,0,0,1,.34.06.8.8,0,0,1,.27.17Z"/><path class="cls-4" d="M136,3.64a.38.38,0,0,1-.29-.1.42.42,0,0,1-.1-.3v-1h-.23a.06.06,0,0,1,0,0V2.09l.26,0,.06-.49a.07.07,0,0,1,0,0h.18v.54h.46v.2h-.46v.95a.2.2,0,0,0,0,.15.17.17,0,0,0,.12,0h.08l.05,0,0,0h0a0,0,0,0,1,0,0l.08.13a.53.53,0,0,1-.17.1A.59.59,0,0,1,136,3.64Z"/><path class="cls-4" d="M143.86,8.64a1.34,1.34,0,0,1,0,.35.7.7,0,0,1-.05.27.45.45,0,0,1-.14.18.63.63,0,0,1-.22.1l-.16,0-.16,0a.56.56,0,0,1-.15-.1.71.71,0,0,1-.13-.16.67.67,0,0,1-.08.4.47.47,0,0,1-.3.2.64.64,0,0,1-.26,0,.56.56,0,0,1-.23-.1.73.73,0,0,1-.19-.21,1.12,1.12,0,0,1-.13-.31l-.2-.76,2.16-.56Zm-1.91.57a.78.78,0,0,0,.08.21.42.42,0,0,0,.12.13.31.31,0,0,0,.15.05.45.45,0,0,0,.16,0,.34.34,0,0,0,.23-.19.58.58,0,0,0,0-.38l-.12-.47-.75.19Zm1.58-.91-.74.19.1.39a.76.76,0,0,0,.08.21.44.44,0,0,0,.11.13.32.32,0,0,0,.14.06.38.38,0,0,0,.16,0,.34.34,0,0,0,.25-.19.59.59,0,0,0,0-.38Z"/><path class="cls-4" d="M143.72,10.61a.77.77,0,0,1,0,.32.68.68,0,0,1-.1.27.73.73,0,0,1-.21.21,1.12,1.12,0,0,1-.65.17.71.71,0,0,1-.29-.08.62.62,0,0,1-.22-.19.78.78,0,0,1-.13-.29.83.83,0,0,1,0-.32.64.64,0,0,1,.1-.27.72.72,0,0,1,.21-.21,1.13,1.13,0,0,1,.65-.17.74.74,0,0,1,.29.08.66.66,0,0,1,.22.19A.79.79,0,0,1,143.72,10.61Zm-1.36.35a.41.41,0,0,0,.24.3.89.89,0,0,0,.85-.22.41.41,0,0,0,.06-.38.52.52,0,0,0-.09-.19.4.4,0,0,0-.15-.11.51.51,0,0,0-.2,0,1.06,1.06,0,0,0-.25,0,.71.71,0,0,0-.39.22A.4.4,0,0,0,142.35,11Z"/><path class="cls-4" d="M144.51,13.77l-1.66-.1-.06-.21s0,0,0-.07l1-.61.07,0,.07,0h-.15l-1.12-.08a.06.06,0,0,1-.07,0l-.05-.2,1.4-.89.05.21a.1.1,0,0,1,0,.06l0,0-.91.55-.2.09h.22l1.07.07,0,0a.07.07,0,0,1,0,0l0,.12a.08.08,0,0,1,0,.05l0,0-.91.57-.1.06-.09.05h.22l1.06,0,0,0a.1.1,0,0,1,0,0Z"/><path class="cls-4" d="M143.57,15.59a.56.56,0,0,1-.14-.09l-.11-.13a1,1,0,0,1-.08-.15,1,1,0,0,1-.06-.16.78.78,0,0,1,0-.31.65.65,0,0,1,.1-.27.74.74,0,0,1,.22-.22,1.1,1.1,0,0,1,.34-.15,1,1,0,0,1,.31,0,.74.74,0,0,1,.28.08.68.68,0,0,1,.22.18.74.74,0,0,1,.13.28.69.69,0,0,1,0,.27.6.6,0,0,1-.26.42.84.84,0,0,1-.28.12h-.09s0,0,0,0l-.26-1a1,1,0,0,0-.24.11.51.51,0,0,0-.15.15.42.42,0,0,0-.07.18.55.55,0,0,0,0,.2.58.58,0,0,0,.07.17l.08.11.07.08a.11.11,0,0,1,0,.05.06.06,0,0,1,0,.06Zm.66-.4a.54.54,0,0,0,.16-.07.37.37,0,0,0,.11-.11.32.32,0,0,0,.06-.14.44.44,0,0,0,0-.17.43.43,0,0,0-.19-.28.55.55,0,0,0-.35-.06Z"/><path class="cls-4" d="M144.74,15.94a.72.72,0,0,1,.29.12.4.4,0,0,1,.15.24.32.32,0,0,1,0,.09.28.28,0,0,1,0,.09l-.21,0a0,0,0,0,1,0,0,.38.38,0,0,1,0-.07.44.44,0,0,0,0-.09.4.4,0,0,0-.05-.12.31.31,0,0,0-.09-.08l-.12-.05-.15,0-1,.25-.07-.27,1.53-.39,0,.15a.09.09,0,0,1,0,.06l-.05,0Z"/><path class="cls-4" d="M145.6,18l-2.2-.34-.06,0a.08.08,0,0,1,0-.06l-.05-.2.68.12,1.28-1,.06.23a.09.09,0,0,1,0,.06l0,0-.86.66-.12.07h.15l1.06.15,0,0a.09.09,0,0,1,0,0Z"/><rect class="cls-1" x="10.66" y="5.8" width="10.92" height="0.62"/><rect class="cls-1" x="48.61" y="50.18" width="10.92" height="0.9"/><rect class="cls-1" x="68.35" y="50.18" width="10.92" height="0.9"/><rect class="cls-1" x="18.15" y="11.54" width="10.92" height="0.7" transform="translate(35.5 -11.72) rotate(90)"/><rect class="cls-1" x="18.13" y="44.51" width="10.95" height="0.69" transform="translate(68.46 21.24) rotate(90)"/><rect class="cls-1" x="60.88" y="11.51" width="10.92" height="0.79" transform="translate(78.24 -54.44) rotate(90)"/><rect class="cls-1" x="60.89" y="44.47" width="10.92" height="0.76" transform="translate(111.21 -21.5) rotate(90)"/><rect class="cls-1" x="55.95" y="57.48" width="10.92" height="0.76" transform="translate(119.27 -3.55) rotate(90)"/><rect class="cls-1" x="101.48" y="79.75" width="10.92" height="0.76" transform="translate(187.07 -26.81) rotate(90)"/><rect class="cls-1" x="152.31" y="79.93" width="10.92" height="1.93" transform="translate(197.41 -91.92) rotate(75.77)"/><path class="cls-4" d="M27.12,16.3V10.49h1.26a1.73,1.73,0,0,1,1.33.43,2,2,0,0,1,.39,1.34V14.4a2.23,2.23,0,0,1-.38,1.43,1.56,1.56,0,0,1-1.27.47Zm.81-.58h.46a1.27,1.27,0,0,0,.33,0,1,1,0,0,0,.24-.09.41.41,0,0,0,.16-.16,1.18,1.18,0,0,0,.1-.21,1.23,1.23,0,0,0,.05-.28c0-.12,0-.23,0-.32s0-.21,0-.38V12.36c0-.14,0-.26,0-.35s0-.19,0-.29a.89.89,0,0,0-.06-.24.82.82,0,0,0-.11-.17.43.43,0,0,0-.16-.13,1,1,0,0,0-.23-.07l-.31,0h-.44Z"/><path class="cls-4" d="M30.94,16.3V10.49h.79V16.3Z"/><path class="cls-4" d="M32.68,16.3V10.49h.55l1.65,3.86V10.49h.68V16.3H35l-1.68-4v4Z"/><path class="cls-4" d="M36.5,16.3V10.49h.8V16.3Z"/><path class="cls-4" d="M38.24,16.3V10.49h.55l1.65,3.86V10.49h.68V16.3H40.6l-1.67-4v4Z"/><path class="cls-4" d="M43.41,16.37a1.29,1.29,0,0,1-1.14-.5,2.57,2.57,0,0,1-.35-1.48V12.45a4.92,4.92,0,0,1,0-.7,2.28,2.28,0,0,1,.15-.56,1.15,1.15,0,0,1,.28-.42,1.21,1.21,0,0,1,.45-.25,2,2,0,0,1,.63-.09,1.46,1.46,0,0,1,1.16.41A2,2,0,0,1,45,12.13v.21h-.76v-.18c0-.16,0-.3,0-.4a1.43,1.43,0,0,0-.06-.3.51.51,0,0,0-.13-.22.59.59,0,0,0-.21-.12,1,1,0,0,0-.33,0,.94.94,0,0,0-.27,0,.66.66,0,0,0-.2.09.44.44,0,0,0-.13.15,1.15,1.15,0,0,0-.09.19,1.23,1.23,0,0,0,0,.24c0,.1,0,.18,0,.26s0,.18,0,.3v2.15a2.11,2.11,0,0,0,.16,1,.79.79,0,0,0,1.24,0,2.26,2.26,0,0,0,.17-1V14h-.74v-.58H45V16.3h-.52l-.08-.67A1,1,0,0,1,43.41,16.37Z"/><path class="cls-4" d="M27.12,24.91V19.1h1.17a1.93,1.93,0,0,1,1.29.36A1.49,1.49,0,0,1,30,20.64q0,1.12-.72,1.36l.83,2.92h-.79l-.76-2.73h-.63v2.73Zm.81-3.31h.3A1.1,1.1,0,0,0,29,21.4a1,1,0,0,0,.23-.76A1.1,1.1,0,0,0,29,19.9a1,1,0,0,0-.73-.21h-.36Z"/><path class="cls-4" d="M32.32,25a1.94,1.94,0,0,1-.74-.13,1.12,1.12,0,0,1-.49-.38,1.67,1.67,0,0,1-.27-.59,3.23,3.23,0,0,1-.08-.79v-2.2a2.19,2.19,0,0,1,.37-1.38,1.81,1.81,0,0,1,2.43,0,2.18,2.18,0,0,1,.37,1.37v2.2a2.26,2.26,0,0,1-.37,1.39A1.44,1.44,0,0,1,32.32,25Zm-.39-.71a1.1,1.1,0,0,0,.79,0A.5.5,0,0,0,33,24a1.05,1.05,0,0,0,.11-.33,2.85,2.85,0,0,0,0-.45V20.72a2.74,2.74,0,0,0,0-.44A1,1,0,0,0,33,20a.48.48,0,0,0-.24-.21,1.17,1.17,0,0,0-.79,0,.48.48,0,0,0-.24.21,1,1,0,0,0-.11.32,2.72,2.72,0,0,0,0,.44v2.54a2.83,2.83,0,0,0,0,.45,1.07,1.07,0,0,0,.11.33A.51.51,0,0,0,31.93,24.27Z"/><path class="cls-4" d="M36.19,25a1.94,1.94,0,0,1-.75-.13,1.13,1.13,0,0,1-.49-.38,1.69,1.69,0,0,1-.27-.59,3.28,3.28,0,0,1-.08-.79v-2.2A2.19,2.19,0,0,1,35,19.51a1.81,1.81,0,0,1,2.43,0,2.18,2.18,0,0,1,.37,1.37v2.2a2.25,2.25,0,0,1-.37,1.39A1.43,1.43,0,0,1,36.19,25Zm-.39-.71a1.1,1.1,0,0,0,.79,0,.51.51,0,0,0,.24-.22,1.07,1.07,0,0,0,.11-.33,2.83,2.83,0,0,0,0-.45V20.72a2.72,2.72,0,0,0,0-.44,1,1,0,0,0-.11-.32.48.48,0,0,0-.24-.21,1.17,1.17,0,0,0-.79,0,.48.48,0,0,0-.24.21,1,1,0,0,0-.11.32,2.74,2.74,0,0,0,0,.44v2.54a2.85,2.85,0,0,0,0,.45,1.05,1.05,0,0,0,.11.33A.5.5,0,0,0,35.8,24.27Z"/><path class="cls-4" d="M38.57,24.91l.11-5.81h.79l1,4.71,1-4.71h.79l.11,5.81h-.66l-.06-4.22-1,4.22h-.46l-1-4.22-.06,4.22Z"/><path class="cls-1" d="M68.24,62.42a1.9,1.9,0,0,1-.63-.1,1.25,1.25,0,0,1-.45-.27,1.31,1.31,0,0,1-.28-.42,2,2,0,0,1-.15-.53,4.1,4.1,0,0,1,0-.62V58.44a4.36,4.36,0,0,1,0-.65,2.16,2.16,0,0,1,.15-.54,1.2,1.2,0,0,1,.28-.41,1.22,1.22,0,0,1,.45-.25,2,2,0,0,1,.63-.09,1.36,1.36,0,0,1,1.12.42,2,2,0,0,1,.34,1.25v.46h-.77v-.41c0-.09,0-.16,0-.21s0-.11,0-.19a1,1,0,0,0,0-.17l0-.15a.39.39,0,0,0-.06-.13l-.09-.1a.35.35,0,0,0-.12-.08l-.16,0-.2,0a1.11,1.11,0,0,0-.29,0,.49.49,0,0,0-.21.12.71.71,0,0,0-.13.17.77.77,0,0,0-.08.24,2.85,2.85,0,0,0,0,.29c0,.09,0,.21,0,.34v2.3a1.79,1.79,0,0,0,.17.91.64.64,0,0,0,.58.26,1,1,0,0,0,.28,0,.41.41,0,0,0,.19-.12.74.74,0,0,0,.12-.17.76.76,0,0,0,.07-.24c0-.1,0-.19,0-.28s0-.19,0-.33V60.2h.77v.43a3.75,3.75,0,0,1,0,.6,2,2,0,0,1-.14.49,1.12,1.12,0,0,1-.27.38,1.15,1.15,0,0,1-.42.24A1.85,1.85,0,0,1,68.24,62.42Z"/><path class="cls-1" d="M70.48,62.36V56.55h.81v5.23h1.48v.58Z"/><path class="cls-1" d="M75.47,62.33a2,2,0,0,1-.64.1,2,2,0,0,1-.65-.1,1.11,1.11,0,0,1-.72-.69,2.28,2.28,0,0,1-.14-.55,5.33,5.33,0,0,1,0-.68V56.55h.77v3.89c0,.17,0,.31,0,.43a2.11,2.11,0,0,0,.06.37.85.85,0,0,0,.13.29.6.6,0,0,0,.23.18.76.76,0,0,0,.34.07.75.75,0,0,0,.34-.07.62.62,0,0,0,.22-.19.9.9,0,0,0,.13-.3,1.9,1.9,0,0,0,.06-.37c0-.12,0-.26,0-.43V56.55h.77V60.4a5.35,5.35,0,0,1,0,.68,2.37,2.37,0,0,1-.14.55,1.12,1.12,0,0,1-.72.69Z"/><path class="cls-1" d="M77.23,62.36V56.55h1.33a1.68,1.68,0,0,1,1.17.35,1.43,1.43,0,0,1,.38,1.1q0,1.11-.83,1.23a1.19,1.19,0,0,1,.75.48,1.77,1.77,0,0,1,.24,1,1.85,1.85,0,0,1-.37,1.22,1.39,1.39,0,0,1-1.12.44ZM78,59h.48a.89.89,0,0,0,.7-.22,1.14,1.14,0,0,0,.19-.75,1.58,1.58,0,0,0,0-.3,1.16,1.16,0,0,0-.06-.22.37.37,0,0,0-.12-.15l-.16-.1a.84.84,0,0,0-.22-.06l-.27,0H78Zm0,2.8h.55a.87.87,0,0,0,.72-.25,1.38,1.38,0,0,0,.19-.83,1.28,1.28,0,0,0-.23-.83.92.92,0,0,0-.75-.27H78Z"/><path class="cls-1" d="M66.79,71V65.16H68a1.93,1.93,0,0,1,1.29.36,1.49,1.49,0,0,1,.41,1.18q0,1.12-.72,1.36L69.78,71H69l-.76-2.73H67.6V71Zm.81-3.31h.3a1.1,1.1,0,0,0,.75-.21,1,1,0,0,0,.23-.75,1.1,1.1,0,0,0-.2-.74,1,1,0,0,0-.73-.21H67.6Z"/><path class="cls-1" d="M72,71a1.94,1.94,0,0,1-.74-.13,1.13,1.13,0,0,1-.49-.38,1.68,1.68,0,0,1-.27-.59,3.28,3.28,0,0,1-.08-.79v-2.2a2.19,2.19,0,0,1,.37-1.37,1.81,1.81,0,0,1,2.43,0,2.18,2.18,0,0,1,.37,1.37v2.21a2.26,2.26,0,0,1-.37,1.39A1.44,1.44,0,0,1,72,71Zm-.39-.71a1.11,1.11,0,0,0,.79,0,.52.52,0,0,0,.24-.22,1.08,1.08,0,0,0,.11-.33,2.82,2.82,0,0,0,0-.45V66.78a2.71,2.71,0,0,0,0-.44,1,1,0,0,0-.11-.32.48.48,0,0,0-.24-.22,1.17,1.17,0,0,0-.79,0,.48.48,0,0,0-.24.22,1,1,0,0,0-.11.32,2.71,2.71,0,0,0,0,.44v2.54a2.82,2.82,0,0,0,0,.45,1.08,1.08,0,0,0,.11.33A.52.52,0,0,0,71.6,70.33Z"/><path class="cls-1" d="M75.86,71a1.94,1.94,0,0,1-.75-.13,1.14,1.14,0,0,1-.49-.38,1.69,1.69,0,0,1-.27-.59,3.24,3.24,0,0,1-.08-.79v-2.2a2.19,2.19,0,0,1,.37-1.37,1.81,1.81,0,0,1,2.43,0,2.18,2.18,0,0,1,.37,1.37v2.21a2.26,2.26,0,0,1-.37,1.39A1.43,1.43,0,0,1,75.86,71Zm-.39-.71a1.11,1.11,0,0,0,.79,0,.51.51,0,0,0,.24-.22,1.06,1.06,0,0,0,.11-.33,2.84,2.84,0,0,0,0-.45V66.78a2.73,2.73,0,0,0,0-.44,1,1,0,0,0-.11-.32.48.48,0,0,0-.24-.22,1.17,1.17,0,0,0-.79,0,.48.48,0,0,0-.24.22,1,1,0,0,0-.11.32,2.73,2.73,0,0,0,0,.44v2.54a2.84,2.84,0,0,0,0,.45,1.06,1.06,0,0,0,.11.33A.51.51,0,0,0,75.47,70.33Z"/><path class="cls-1" d="M78.23,71l.11-5.81h.79l1,4.71,1-4.71H82L82.1,71h-.65l-.06-4.22-1,4.22h-.46l-1-4.22L78.9,71Z"/><path class="cls-4" d="M112.59,72.65a1.3,1.3,0,0,1-1.14-.5,2.58,2.58,0,0,1-.35-1.48V68.73a4.92,4.92,0,0,1,0-.7,2.24,2.24,0,0,1,.15-.56,1.16,1.16,0,0,1,.28-.42,1.23,1.23,0,0,1,.45-.25,2,2,0,0,1,.63-.09,1.46,1.46,0,0,1,1.16.41,2,2,0,0,1,.35,1.29v.21h-.76v-.18c0-.16,0-.3,0-.4a1.44,1.44,0,0,0-.06-.3.51.51,0,0,0-.13-.22.57.57,0,0,0-.21-.12,1,1,0,0,0-.33,0,1,1,0,0,0-.27,0,.77.77,0,0,0-.2.09.47.47,0,0,0-.13.15,1.19,1.19,0,0,0-.09.19,1.27,1.27,0,0,0,0,.24c0,.1,0,.19,0,.26s0,.18,0,.3v2.15a2.1,2.1,0,0,0,.16,1,.79.79,0,0,0,1.24,0,2.27,2.27,0,0,0,.17-1v-.41h-.74V69.7h1.47v2.88h-.52l-.08-.67A1,1,0,0,1,112.59,72.65Z"/><path class="cls-4" d="M114.72,72.58,116,66.77h.78L118,72.58h-.77l-.27-1.46h-1.18l-.28,1.46Zm1.15-2h1l-.49-2.62Z"/><path class="cls-4" d="M118.57,72.58V66.77h1.17a1.94,1.94,0,0,1,1.29.36,1.49,1.49,0,0,1,.41,1.18q0,1.12-.72,1.36l.83,2.92h-.79L120,69.86h-.63v2.73Zm.81-3.31h.3a1.1,1.1,0,0,0,.75-.21,1,1,0,0,0,.23-.75,1.11,1.11,0,0,0-.19-.74,1,1,0,0,0-.73-.21h-.36Z"/><path class="cls-4" d="M122.3,72.58V66.77h1.26a1.73,1.73,0,0,1,1.33.43,2,2,0,0,1,.39,1.35v2.14a2.23,2.23,0,0,1-.38,1.43,1.55,1.55,0,0,1-1.27.47Zm.81-.58h.46a1.32,1.32,0,0,0,.33,0l.24-.09a.41.41,0,0,0,.16-.16,1.25,1.25,0,0,0,.1-.21,1.3,1.3,0,0,0,.05-.28c0-.12,0-.23,0-.32s0-.21,0-.38V68.64c0-.14,0-.26,0-.35s0-.19,0-.29a.87.87,0,0,0-.06-.23.82.82,0,0,0-.11-.17.43.43,0,0,0-.17-.13l-.23-.07-.31,0h-.44Z"/><path class="cls-4" d="M126.08,72.58V66.77h2.25v.6h-1.44v1.92h1.17v.58h-1.17V72h1.46v.58Z"/><path class="cls-4" d="M129,72.58V66.77h.55l1.65,3.86V66.77h.68v5.81h-.52l-1.68-4v4Z"/><path class="cls-4" d="M111.21,81.2V75.39h1.33a1.69,1.69,0,0,1,1.17.35,1.44,1.44,0,0,1,.38,1.1q0,1.11-.83,1.23a1.19,1.19,0,0,1,.75.49,1.76,1.76,0,0,1,.24,1,1.85,1.85,0,0,1-.37,1.22,1.39,1.39,0,0,1-1.12.44Zm.81-3.38h.48a.89.89,0,0,0,.7-.22,1.13,1.13,0,0,0,.2-.75,1.59,1.59,0,0,0,0-.3,1.07,1.07,0,0,0-.06-.22.37.37,0,0,0-.12-.15l-.16-.1a.8.8,0,0,0-.22-.06l-.27,0H112Zm0,2.8h.55a.87.87,0,0,0,.72-.25,1.38,1.38,0,0,0,.19-.83,1.28,1.28,0,0,0-.23-.83.92.92,0,0,0-.75-.28H112Z"/><path class="cls-4" d="M114.64,81.2l1.24-5.81h.78l1.24,5.81h-.77l-.27-1.46h-1.18l-.28,1.46Zm1.15-2h1l-.49-2.62Z"/><path class="cls-4" d="M118.49,81.2V75.39h1.17a1.93,1.93,0,0,1,1.29.36,1.49,1.49,0,0,1,.41,1.18q0,1.12-.72,1.36l.83,2.92h-.79l-.76-2.73h-.63V81.2Zm.81-3.31h.3a1.1,1.1,0,0,0,.75-.21,1,1,0,0,0,.23-.75,1.11,1.11,0,0,0-.19-.74,1,1,0,0,0-.73-.21h-.36Z"/><polygon class="cls-3" points="138.82 6.13 152.81 62.36 106.94 62.36 106.94 6.13 138.82 6.13"/><path class="cls-4" d="M70.21,16.3V10.49h1.44a1.35,1.35,0,0,1,1.1.41,1.83,1.83,0,0,1,.34,1.2,1.56,1.56,0,0,1-.37,1.1,1.38,1.38,0,0,1-1.07.4H71V16.3ZM71,13h.37a1.07,1.07,0,0,0,.73-.19,1,1,0,0,0,.2-.72q0-.22,0-.36a1.18,1.18,0,0,0,0-.27.52.52,0,0,0-.1-.19.48.48,0,0,0-.17-.12.86.86,0,0,0-.25-.07l-.35,0H71Z"/><path class="cls-4" d="M73.07,16.3l1.24-5.81h.78l1.24,5.81h-.77l-.27-1.46H74.11l-.28,1.46Zm1.15-2h1l-.49-2.62Z"/><path class="cls-4" d="M77.28,16.3V11.09H76.22v-.6h2.89v.6h-1V16.3Z"/><path class="cls-4" d="M79.6,16.3V10.49h.79V16.3Z"/><path class="cls-4" d="M82.82,16.36a1.94,1.94,0,0,1-.75-.13,1.13,1.13,0,0,1-.49-.38,1.69,1.69,0,0,1-.27-.59,3.28,3.28,0,0,1-.08-.79v-2.2a2.19,2.19,0,0,1,.37-1.38,1.81,1.81,0,0,1,2.43,0,2.18,2.18,0,0,1,.37,1.37v2.2A2.25,2.25,0,0,1,84,15.88,1.43,1.43,0,0,1,82.82,16.36Zm-.39-.71a1.1,1.1,0,0,0,.79,0,.51.51,0,0,0,.24-.22,1.07,1.07,0,0,0,.11-.33,2.83,2.83,0,0,0,0-.45V12.11a2.72,2.72,0,0,0,0-.44,1,1,0,0,0-.11-.32.48.48,0,0,0-.24-.21,1.17,1.17,0,0,0-.79,0,.48.48,0,0,0-.24.21,1,1,0,0,0-.11.32,2.74,2.74,0,0,0,0,.44v2.54a2.85,2.85,0,0,0,0,.45,1.05,1.05,0,0,0,.11.33A.5.5,0,0,0,82.42,15.66Z"/><rect class="cls-1" x="109.71" y="61.91" width="10.92" height="1"/><rect class="cls-1" x="84.83" y="27.57" width="43.9" height="1.62" transform="translate(135.16 -78.41) rotate(90)"/><path class="cls-4" d="M112.69,16.36a1.92,1.92,0,0,1-.75-.13,1.13,1.13,0,0,1-.49-.38,1.69,1.69,0,0,1-.27-.59,3.27,3.27,0,0,1-.08-.79v-2.2a2.19,2.19,0,0,1,.37-1.38,1.81,1.81,0,0,1,2.43,0,2.18,2.18,0,0,1,.37,1.37v2.2a2.25,2.25,0,0,1-.37,1.39A1.43,1.43,0,0,1,112.69,16.36Zm-.39-.71a1.08,1.08,0,0,0,.79,0,.5.5,0,0,0,.24-.22,1.07,1.07,0,0,0,.11-.33,2.85,2.85,0,0,0,0-.45V12.11a2.71,2.71,0,0,0,0-.44,1,1,0,0,0-.11-.32.48.48,0,0,0-.24-.21,1.17,1.17,0,0,0-.79,0,.48.48,0,0,0-.24.21,1,1,0,0,0-.11.32,2.72,2.72,0,0,0,0,.44v2.54a2.87,2.87,0,0,0,0,.45,1,1,0,0,0,.11.33A.5.5,0,0,0,112.29,15.66Z"/><path class="cls-4" d="M117.21,16.27a1.93,1.93,0,0,1-.64.1,2,2,0,0,1-.65-.1,1.1,1.1,0,0,1-.72-.69,2.29,2.29,0,0,1-.14-.55,5.32,5.32,0,0,1,0-.68V10.49h.77v3.89c0,.17,0,.31,0,.43a2.09,2.09,0,0,0,.06.37.86.86,0,0,0,.13.3.62.62,0,0,0,.23.18.76.76,0,0,0,.34.07.75.75,0,0,0,.34-.07.61.61,0,0,0,.22-.19.9.9,0,0,0,.13-.3,1.91,1.91,0,0,0,.06-.36c0-.12,0-.27,0-.43V10.49h.77v3.85a5.33,5.33,0,0,1,0,.68,2.38,2.38,0,0,1-.14.55,1.11,1.11,0,0,1-.72.69Z"/><path class="cls-4" d="M119.57,16.3V11.09h-1.06v-.6h2.89v.6h-1V16.3Z"/><path class="cls-4" d="M123.21,16.36a1.38,1.38,0,0,1-1.12-.45,2,2,0,0,1-.43-1.24l.72-.2q.08,1.25.82,1.25a.62.62,0,0,0,.47-.17.72.72,0,0,0,.16-.51,1.25,1.25,0,0,0,0-.34,1,1,0,0,0-.14-.29,2.07,2.07,0,0,0-.19-.23l-.25-.25-1-.87a1.73,1.73,0,0,1-.43-.56,1.75,1.75,0,0,1-.13-.72,1.3,1.3,0,0,1,.37-1,1.41,1.41,0,0,1,1-.36,1.34,1.34,0,0,1,1,.36,1.89,1.89,0,0,1,.42,1.14l-.68.19c0-.13,0-.24,0-.34a1.54,1.54,0,0,0-.08-.3.79.79,0,0,0-.14-.24.54.54,0,0,0-.21-.15.7.7,0,0,0-.31,0q-.64,0-.64.64a.93.93,0,0,0,.09.43,1.34,1.34,0,0,0,.29.36l1,.87a3,3,0,0,1,.61.74,1.76,1.76,0,0,1,.23.89,1.34,1.34,0,0,1-.39,1A1.38,1.38,0,0,1,123.21,16.36Z"/><path class="cls-4" d="M125.28,16.3V10.49h.8V16.3Z"/><path class="cls-4" d="M127,16.3V10.49h1.26a1.73,1.73,0,0,1,1.33.43,2,2,0,0,1,.39,1.34V14.4a2.23,2.23,0,0,1-.38,1.43,1.55,1.55,0,0,1-1.27.47Zm.81-.58h.46a1.31,1.31,0,0,0,.33,0,1.1,1.1,0,0,0,.24-.09.4.4,0,0,0,.16-.16,1.17,1.17,0,0,0,.1-.21,1.19,1.19,0,0,0,.05-.28c0-.12,0-.23,0-.32s0-.21,0-.38V12.36c0-.14,0-.26,0-.35a2.85,2.85,0,0,0,0-.29.89.89,0,0,0-.06-.24.86.86,0,0,0-.11-.17.44.44,0,0,0-.16-.13l-.23-.07-.31,0h-.44Z"/><path class="cls-4" d="M130.8,16.3V10.49H133v.6h-1.44V13h1.17v.58h-1.17v2.13h1.46v.58Z"/><path class="cls-4" d="M112.59,25a1.3,1.3,0,0,1-1.14-.5A2.57,2.57,0,0,1,111.1,23V21.06a4.91,4.91,0,0,1,0-.7,2.26,2.26,0,0,1,.15-.56,1.15,1.15,0,0,1,.28-.42,1.2,1.2,0,0,1,.45-.25,2,2,0,0,1,.63-.09,1.46,1.46,0,0,1,1.16.41,2,2,0,0,1,.35,1.29V21h-.76v-.18c0-.16,0-.3,0-.4a1.44,1.44,0,0,0-.06-.3.51.51,0,0,0-.13-.22.59.59,0,0,0-.21-.12,1.07,1.07,0,0,0-.33,0,1,1,0,0,0-.27,0,.71.71,0,0,0-.2.09.45.45,0,0,0-.13.15,1.15,1.15,0,0,0-.09.19,1.25,1.25,0,0,0,0,.24c0,.1,0,.19,0,.26s0,.18,0,.3v2.15a2.1,2.1,0,0,0,.16,1,.79.79,0,0,0,1.24,0,2.26,2.26,0,0,0,.17-1v-.41h-.74V22h1.47v2.88h-.52l-.08-.67A1,1,0,0,1,112.59,25Z"/><path class="cls-4" d="M114.72,24.91,116,19.1h.78L118,24.91h-.77l-.27-1.46h-1.18l-.28,1.46Zm1.15-2h1l-.49-2.62Z"/><path class="cls-4" d="M118.57,24.91V19.1h1.17a1.94,1.94,0,0,1,1.29.36,1.5,1.5,0,0,1,.41,1.18q0,1.12-.72,1.36l.83,2.91h-.79L120,22.19h-.63v2.73Zm.81-3.31h.3a1.1,1.1,0,0,0,.75-.21,1,1,0,0,0,.23-.76,1.11,1.11,0,0,0-.19-.74,1,1,0,0,0-.73-.21h-.36Z"/><path class="cls-4" d="M122.3,24.91V19.1h1.26a1.73,1.73,0,0,1,1.33.43,2,2,0,0,1,.39,1.34V23a2.23,2.23,0,0,1-.38,1.43,1.55,1.55,0,0,1-1.27.47Zm.81-.58h.46a1.32,1.32,0,0,0,.33,0,1.11,1.11,0,0,0,.24-.09.41.41,0,0,0,.16-.16,1.18,1.18,0,0,0,.1-.21,1.3,1.3,0,0,0,.05-.28c0-.12,0-.23,0-.32s0-.21,0-.38V21c0-.14,0-.26,0-.35s0-.19,0-.29a.88.88,0,0,0-.06-.24.81.81,0,0,0-.11-.17.42.42,0,0,0-.17-.13,1,1,0,0,0-.23-.07l-.31,0h-.44Z"/><path class="cls-4" d="M126.08,24.91V19.1h2.25v.6h-1.44v1.92h1.17v.58h-1.17v2.13h1.46v.58Z"/><path class="cls-4" d="M129,24.91V19.1h.55L131.2,23V19.1h.68v5.81h-.52l-1.68-4v4Z"/><rect class="cls-1" x="108.62" y="4.97" width="10.92" height="1.93"/><path class="cls-4" d="M4.68,16.29V10.23H7v.61H5.53v2H6.69v.6H5.53v2.84Z"/><path class="cls-4" d="M7.61,16.29V10.23H8.83a2,2,0,0,1,1.35.38,1.56,1.56,0,0,1,.43,1.23q0,1.17-.75,1.42l.87,3H9.91l-.8-2.85H8.45v2.85Zm.84-3.45h.32a1.15,1.15,0,0,0,.79-.22,1,1,0,0,0,.24-.79,1.16,1.16,0,0,0-.2-.78,1,1,0,0,0-.77-.22H8.45Z"/><path class="cls-4" d="M13,16.36a2,2,0,0,1-.78-.13,1.19,1.19,0,0,1-.51-.4,1.76,1.76,0,0,1-.28-.61,3.4,3.4,0,0,1-.09-.82v-2.3a2.27,2.27,0,0,1,.39-1.44A1.52,1.52,0,0,1,13,10.17a1.52,1.52,0,0,1,1.27.49,2.27,2.27,0,0,1,.39,1.43v2.3a2.36,2.36,0,0,1-.39,1.46A1.49,1.49,0,0,1,13,16.36Zm-.41-.74a1.15,1.15,0,0,0,.82,0,.54.54,0,0,0,.25-.23,1.14,1.14,0,0,0,.12-.35,3,3,0,0,0,0-.47V11.91a2.82,2.82,0,0,0,0-.46,1.1,1.1,0,0,0-.12-.34.51.51,0,0,0-.25-.22,1.22,1.22,0,0,0-.82,0,.51.51,0,0,0-.25.22,1.1,1.1,0,0,0-.12.34,2.84,2.84,0,0,0,0,.46v2.66a3,3,0,0,0,0,.47,1.14,1.14,0,0,0,.12.35A.54.54,0,0,0,12.63,15.62Z"/><path class="cls-4" d="M15.54,16.29V10.23h.57l1.72,4v-4h.71v6.06H18l-1.75-4.14v4.14Z"/><path class="cls-4" d="M20.11,16.29V10.85H19v-.62h3v.63H21v5.44Z"/><path class="cls-4" d="M4.68,25.28V19.21H6.07a1.75,1.75,0,0,1,1.23.37,1.5,1.5,0,0,1,.4,1.15q0,1.16-.87,1.28a1.24,1.24,0,0,1,.78.51,1.84,1.84,0,0,1,.25,1,1.93,1.93,0,0,1-.38,1.28,1.45,1.45,0,0,1-1.17.46Zm.84-3.53H6a.93.93,0,0,0,.73-.23,1.18,1.18,0,0,0,.2-.78,1.72,1.72,0,0,0,0-.31,1.14,1.14,0,0,0-.07-.23A.38.38,0,0,0,6.74,20l-.17-.1a.85.85,0,0,0-.23-.06l-.28,0H5.53Zm0,2.93H6.1a.91.91,0,0,0,.75-.26,1.44,1.44,0,0,0,.2-.87,1.33,1.33,0,0,0-.24-.87A1,1,0,0,0,6,22.39h-.5Z"/><path class="cls-4" d="M8.27,25.28l1.29-6.06h.82l1.29,6.06h-.8l-.28-1.53H9.36l-.29,1.53Zm1.2-2.13h1L10,20.41Z"/><path class="cls-4" d="M12.29,25.28V19.21h1.22a2,2,0,0,1,1.35.38,1.56,1.56,0,0,1,.43,1.23q0,1.17-.75,1.42l.87,3h-.82l-.8-2.85h-.66v2.85Zm.84-3.45h.32a1.15,1.15,0,0,0,.79-.22,1,1,0,0,0,.24-.79,1.16,1.16,0,0,0-.2-.78,1,1,0,0,0-.77-.22h-.37Z"/><path class="cls-4" d="M6,34.33A1.25,1.25,0,0,1,5,34a1.39,1.39,0,0,1-.35-1,1.92,1.92,0,0,1,.24-1,3.23,3.23,0,0,1,.65-.8l-.17-.32-.18-.35L5,30.23a2,2,0,0,1-.12-.37,1.76,1.76,0,0,1,0-.37,1.35,1.35,0,0,1,.35-1,1.24,1.24,0,0,1,.94-.37,1.39,1.39,0,0,1,.92.3,1,1,0,0,1,.36.82,1.7,1.7,0,0,1-.1.57,2.28,2.28,0,0,1-.29.55c-.12.18-.24.33-.36.46s-.24.26-.39.4l.92,1.44a3.8,3.8,0,0,0,.3-1.21h.8a2.64,2.64,0,0,1-.18.9,3.45,3.45,0,0,1-.41.81.91.91,0,0,0,.26.22.66.66,0,0,0,.33.09v.82H8.22l-.16,0-.14,0-.14-.07-.12-.07L7.56,34l-.1-.09-.1-.11-.09-.09a1.55,1.55,0,0,1-.55.43A1.71,1.71,0,0,1,6,34.33Zm0-.66a1.05,1.05,0,0,0,.81-.45l-.93-1.43a1.83,1.83,0,0,0-.29.54,2,2,0,0,0-.11.63,1,1,0,0,0,.12.5A.42.42,0,0,0,6,33.67ZM6,30.82a2.82,2.82,0,0,0,.43-.72,2.11,2.11,0,0,0,.18-.83.45.45,0,0,0-.13-.34.49.49,0,0,0-.35-.13.41.41,0,0,0-.37.2.91.91,0,0,0-.12.48A3.48,3.48,0,0,0,6,30.82Z"/><path class="cls-4" d="M4.59,41.47V36.61h1.2a1.13,1.13,0,0,1,.92.34A1.53,1.53,0,0,1,7,38a1.31,1.31,0,0,1-.31.92,1.16,1.16,0,0,1-.89.33H5.27v2.26Zm.68-2.75h.31a.9.9,0,0,0,.61-.16A.83.83,0,0,0,6.35,38c0-.12,0-.22,0-.3a1,1,0,0,0,0-.22.42.42,0,0,0-.08-.16.41.41,0,0,0-.14-.1.71.71,0,0,0-.21-.06H5.27Z"/><path class="cls-4" d="M7,41.47l1-4.86h.65l1,4.86H9.06l-.22-1.22h-1l-.23,1.22Zm1-1.71h.81l-.41-2.19Z"/><path class="cls-4" d="M10.2,41.47V36.61h1a1.62,1.62,0,0,1,1.08.3,1.25,1.25,0,0,1,.34,1q0,.94-.6,1.13l.69,2.44H12l-.64-2.28h-.52v2.28Zm.68-2.77h.25a.92.92,0,0,0,.63-.17.84.84,0,0,0,.19-.63.93.93,0,0,0-.16-.62.82.82,0,0,0-.61-.18h-.3Z"/><path class="cls-4" d="M13.31,41.47V36.61H14V41h1.24v.49Z"/><path class="cls-4" d="M16.89,41.52a1.62,1.62,0,0,1-.62-.11,1,1,0,0,1-.41-.32,1.42,1.42,0,0,1-.22-.49,2.72,2.72,0,0,1-.07-.66V38.11A1.82,1.82,0,0,1,15.87,37a1.22,1.22,0,0,1,1-.39,1.22,1.22,0,0,1,1,.39,1.82,1.82,0,0,1,.31,1.15v1.84a1.89,1.89,0,0,1-.31,1.17A1.2,1.2,0,0,1,16.89,41.52Zm-.33-.59a.92.92,0,0,0,.66,0,.43.43,0,0,0,.2-.19.89.89,0,0,0,.09-.28,2.34,2.34,0,0,0,0-.37V38a2.24,2.24,0,0,0,0-.37.85.85,0,0,0-.09-.27.41.41,0,0,0-.2-.18,1,1,0,0,0-.66,0,.4.4,0,0,0-.2.18.83.83,0,0,0-.09.27,2.13,2.13,0,0,0,0,.37v2.13a2.23,2.23,0,0,0,0,.37.87.87,0,0,0,.09.28A.42.42,0,0,0,16.56,40.93Z"/><path class="cls-4" d="M18.89,41.47V36.61h1a1.62,1.62,0,0,1,1.08.3,1.25,1.25,0,0,1,.34,1q0,.94-.6,1.13l.69,2.44h-.66l-.64-2.28h-.52v2.28Zm.68-2.77h.25a.92.92,0,0,0,.63-.17.84.84,0,0,0,.19-.63.93.93,0,0,0-.16-.62.82.82,0,0,0-.61-.18h-.3Z"/></g></g></svg>