<svg xmlns="http://www.w3.org/2000/svg" viewBox="0 0 161.4 91.3"><defs><style>.cls-1{fill:#fff;}.cls-2{fill:none;}.cls-2,.cls-3{stroke:#1f3238;stroke-miterlimit:10;}.cls-3{fill:#da4626;}.cls-4{fill:#1f3238;}</style></defs><title>bbar-events-dining-room</title><g id="Layer_2" data-name="Layer 2"><g id="Layer_1-2" data-name="Layer 1"><rect class="cls-1" width="161.4" height="91.3"/><rect class="cls-2" x="60.95" y="50.73" width="45.66" height="39.03"/><rect class="cls-2" x="2.2" y="6.11" width="20.8" height="44.62"/><rect class="cls-3" x="23" y="6.11" width="42.89" height="44.62"/><rect class="cls-2" x="65.89" y="6.11" width="40.72" height="44.62"/><polygon class="cls-2" points="152.61 62.49 106.61 62.49 106.61 89.75 159.39 89.75 152.61 62.49"/><path class="cls-4" d="M127,3.34v.25H125.6V1.34H127v.25H125.9v.74h.87v.24h-.87v.76Z"/><path class="cls-4" d="M129.64,2.77v.16a.06.06,0,0,1,0,0l0,0h-.28v.59h-.24V3h-1L128,3a.08.08,0,0,1,0,0l0-.14L129,1.34h.26V2.77Zm-.58,0V1.85s0-.06,0-.09,0-.07,0-.1l-.82,1.11Z"/><path class="cls-4" d="M130.43,3.61a.38.38,0,0,1-.29-.1.42.42,0,0,1-.1-.3v-1h-.19l0,0a.06.06,0,0,1,0,0V2.06l.26,0,.06-.49a.06.06,0,0,1,0,0h.18V2h.46v.2h-.46v.95a.2.2,0,0,0,0,.15.17.17,0,0,0,.13,0h.08l.05,0,0,0h0l0,0,.08.13a.51.51,0,0,1-.17.11A.59.59,0,0,1,130.43,3.61Z"/><path class="cls-4" d="M131.35,2.21a.86.86,0,0,1,.22-.17.61.61,0,0,1,.28-.06.56.56,0,0,1,.23,0,.44.44,0,0,1,.17.12.54.54,0,0,1,.1.19.84.84,0,0,1,0,.25v1h-.28v-1A.43.43,0,0,0,132,2.3a.31.31,0,0,0-.25-.1.46.46,0,0,0-.23.06.75.75,0,0,0-.2.16V3.58h-.28V1.28h.28Z"/><path class="cls-4" d="M134.82,1.69l0,0h0l-.06,0-.09-.06-.13-.06a.57.57,0,0,0-.18,0,.56.56,0,0,0-.18,0,.39.39,0,0,0-.13.07.3.3,0,0,0-.08.11.35.35,0,0,0,0,.14.25.25,0,0,0,0,.16.39.39,0,0,0,.12.11l.17.08.2.07.2.08a.69.69,0,0,1,.17.11.5.5,0,0,1,.12.16.54.54,0,0,1,0,.23.76.76,0,0,1,0,.28.64.64,0,0,1-.15.22.68.68,0,0,1-.24.15.85.85,0,0,1-.32.05,1,1,0,0,1-.4-.08.92.92,0,0,1-.3-.21l.09-.14,0,0h0l0,0,.06,0,.08.05.1.05.12,0,.15,0a.56.56,0,0,0,.19,0,.4.4,0,0,0,.14-.08.37.37,0,0,0,.09-.13.43.43,0,0,0,0-.17.28.28,0,0,0,0-.17.37.37,0,0,0-.12-.11l-.17-.07-.2-.06-.2-.07a.65.65,0,0,1-.17-.11.51.51,0,0,1-.12-.17.61.61,0,0,1,.13-.68.68.68,0,0,1,.22-.14.8.8,0,0,1,.3-.05,1,1,0,0,1,.34.06.83.83,0,0,1,.27.17Z"/><path class="cls-4" d="M135.72,3.61a.38.38,0,0,1-.29-.1.42.42,0,0,1-.1-.3v-1h-.19l0,0a.06.06,0,0,1,0,0V2.06l.26,0,.06-.49a.06.06,0,0,1,0,0h.18V2h.46v.2h-.46v.95a.2.2,0,0,0,0,.15.17.17,0,0,0,.13,0h.08l.05,0,0,0h0l0,0,.08.13a.51.51,0,0,1-.17.11A.59.59,0,0,1,135.72,3.61Z"/><path class="cls-4" d="M143.62,8.62a1.35,1.35,0,0,1,0,.35.67.67,0,0,1-.05.27.43.43,0,0,1-.14.18.63.63,0,0,1-.23.11h-.16l-.16,0a.55.55,0,0,1-.15-.1.71.71,0,0,1-.13-.16.66.66,0,0,1-.08.4.46.46,0,0,1-.3.21.61.61,0,0,1-.26,0,.55.55,0,0,1-.23-.1.71.71,0,0,1-.19-.21,1.11,1.11,0,0,1-.13-.31l-.2-.77,2.17-.56Zm-1.92.57a.72.72,0,0,0,.08.21.44.44,0,0,0,.12.13.33.33,0,0,0,.15.05.45.45,0,0,0,.17,0,.33.33,0,0,0,.23-.19.57.57,0,0,0,0-.38l-.12-.47-.76.2Zm1.58-.91-.74.19.1.39a.78.78,0,0,0,.08.21.43.43,0,0,0,.11.13.3.3,0,0,0,.14.06.38.38,0,0,0,.16,0,.34.34,0,0,0,.25-.19.6.6,0,0,0,0-.38Z"/><path class="cls-4" d="M143.48,10.61a.83.83,0,0,1,0,.32.65.65,0,0,1-.1.27.73.73,0,0,1-.21.21,1,1,0,0,1-.31.13,1,1,0,0,1-.34,0,.72.72,0,0,1-.29-.08.67.67,0,0,1-.22-.19.8.8,0,0,1-.13-.29.82.82,0,0,1,0-.32.67.67,0,0,1,.1-.27.74.74,0,0,1,.21-.21,1,1,0,0,1,.31-.13,1,1,0,0,1,.34,0,.73.73,0,0,1,.29.08.67.67,0,0,1,.22.19A.82.82,0,0,1,143.48,10.61Zm-1.37.35a.41.41,0,0,0,.24.3.72.72,0,0,0,.45,0,.73.73,0,0,0,.4-.22.41.41,0,0,0,.06-.38.51.51,0,0,0-.09-.19.39.39,0,0,0-.15-.11.56.56,0,0,0-.21,0,1,1,0,0,0-.25,0,.73.73,0,0,0-.39.22A.41.41,0,0,0,142.11,11Z"/><path class="cls-4" d="M144.27,13.77l-1.66-.1-.06-.21s0,0,0-.07l1-.61.07,0,.07,0h-.15l-1.13-.08a.06.06,0,0,1-.07,0l-.05-.2,1.4-.89.05.21a.09.09,0,0,1,0,.06l0,0-.91.55-.19.09h.22l1.08.07,0,0a.07.07,0,0,1,0,0l0,.12a.09.09,0,0,1,0,.05l0,0-.91.57-.1.06-.09.05h.22l1.06,0,0,0a.09.09,0,0,1,0,0Z"/><path class="cls-4" d="M143.34,15.6a.53.53,0,0,1-.14-.09l-.11-.13a1,1,0,0,1-.08-.15,1.18,1.18,0,0,1-.06-.17.82.82,0,0,1,0-.31.68.68,0,0,1,.1-.27.76.76,0,0,1,.22-.22,1.08,1.08,0,0,1,.34-.14.91.91,0,0,1,.31,0,.71.71,0,0,1,.28.08.68.68,0,0,1,.22.18.75.75,0,0,1,.13.28.71.71,0,0,1,0,.27.58.58,0,0,1-.08.24.62.62,0,0,1-.18.19.83.83,0,0,1-.28.12h-.09a.06.06,0,0,1,0,0l-.26-1a1,1,0,0,0-.24.11.55.55,0,0,0-.15.15.42.42,0,0,0-.07.18.53.53,0,0,0,0,.21.61.61,0,0,0,.07.17l.08.11.07.07a.12.12,0,0,1,0,.06.06.06,0,0,1,0,.06Zm.66-.4a.54.54,0,0,0,.17-.07.39.39,0,0,0,.11-.11.37.37,0,0,0,.06-.15.43.43,0,0,0,0-.17.42.42,0,0,0-.19-.28.54.54,0,0,0-.35-.06Z"/><path class="cls-4" d="M144.51,15.95a.72.72,0,0,1,.29.12.4.4,0,0,1,.15.24.37.37,0,0,1,0,.1.24.24,0,0,1,0,.09l-.21,0a0,0,0,0,1,0,0,.31.31,0,0,1,0-.06.44.44,0,0,0,0-.09.38.38,0,0,0-.05-.12.3.3,0,0,0-.09-.09l-.12-.05-.16,0-1,.25-.07-.27,1.53-.4,0,.15a.09.09,0,0,1,0,.07l-.05,0Z"/><path class="cls-4" d="M145.37,18l-2.21-.34-.06,0a.09.09,0,0,1,0-.06l-.05-.2.68.12,1.28-1,.06.23a.09.09,0,0,1,0,.06l0,0-.86.66-.12.08h.15l1.07.15,0,0a.09.09,0,0,1,0,0Z"/><rect class="cls-1" x="10.06" y="5.78" width="10.95" height="0.63"/><rect class="cls-1" x="48.12" y="50.28" width="10.95" height="0.9"/><rect class="cls-1" x="67.91" y="50.28" width="10.95" height="0.91"/><rect class="cls-1" x="17.57" y="11.53" width="10.95" height="0.7" transform="translate(34.93 -11.17) rotate(90)"/><rect class="cls-1" x="17.56" y="44.59" width="10.98" height="0.69" transform="translate(67.98 21.89) rotate(90)"/><rect class="cls-1" x="60.42" y="11.5" width="10.95" height="0.79" transform="translate(77.79 -54.01) rotate(90)"/><rect class="cls-1" x="60.43" y="44.56" width="10.95" height="0.76" transform="translate(110.85 -20.97) rotate(90)"/><rect class="cls-1" x="55.48" y="57.6" width="10.95" height="0.76" transform="translate(118.94 -2.97) rotate(90)"/><rect class="cls-1" x="101.14" y="79.93" width="10.95" height="0.76" transform="translate(186.92 -26.3) rotate(90)"/><rect class="cls-1" x="152.11" y="80.11" width="10.95" height="1.93" transform="translate(197.44 -91.6) rotate(75.77)"/><path class="cls-1" d="M26.57,16.31V10.48h1.26a1.74,1.74,0,0,1,1.33.43,2,2,0,0,1,.39,1.35V14.4a2.24,2.24,0,0,1-.38,1.43,1.56,1.56,0,0,1-1.28.47Zm.81-.58h.46a1.32,1.32,0,0,0,.33,0,1.06,1.06,0,0,0,.24-.09.42.42,0,0,0,.16-.16,1,1,0,0,0,.15-.49c0-.12,0-.23,0-.32s0-.21,0-.38V12.35c0-.14,0-.26,0-.35a2.85,2.85,0,0,0,0-.29.87.87,0,0,0-.06-.24.8.8,0,0,0-.11-.17.43.43,0,0,0-.17-.13l-.23-.07-.31,0h-.44Z"/><path class="cls-1" d="M30.4,16.31V10.48h.8v5.83Z"/><path class="cls-1" d="M32.14,16.31V10.48h.55l1.65,3.87V10.48H35v5.83h-.52l-1.68-4v4Z"/><path class="cls-1" d="M36,16.31V10.48h.8v5.83Z"/><path class="cls-1" d="M37.72,16.31V10.48h.55l1.65,3.87V10.48h.68v5.83h-.52l-1.68-4v4Z"/><path class="cls-1" d="M42.91,16.38a1.3,1.3,0,0,1-1.15-.5,2.58,2.58,0,0,1-.35-1.48V12.45a4.94,4.94,0,0,1,0-.7,2.31,2.31,0,0,1,.15-.56,1.17,1.17,0,0,1,.28-.42,1.21,1.21,0,0,1,.45-.25,2,2,0,0,1,.64-.09,1.46,1.46,0,0,1,1.16.41,2,2,0,0,1,.35,1.29v.21h-.76v-.18c0-.16,0-.3,0-.41a1.53,1.53,0,0,0-.06-.3.51.51,0,0,0-.13-.22.57.57,0,0,0-.22-.12,1,1,0,0,0-.33,0,1,1,0,0,0-.27,0,.65.65,0,0,0-.2.09.42.42,0,0,0-.14.15,1.08,1.08,0,0,0-.09.19,1.17,1.17,0,0,0,0,.24c0,.1,0,.19,0,.27s0,.18,0,.3v2.16a2.1,2.1,0,0,0,.16,1,.79.79,0,0,0,1.24,0,2.26,2.26,0,0,0,.17-1V14h-.74v-.58h1.48v2.89H44l-.08-.67A1,1,0,0,1,42.91,16.38Z"/><path class="cls-1" d="M26.57,24.94V19.12h1.17a1.94,1.94,0,0,1,1.3.36,1.5,1.5,0,0,1,.41,1.18q0,1.12-.72,1.36l.83,2.92h-.79L28,22.21h-.63v2.73Zm.81-3.32h.31a1.1,1.1,0,0,0,.76-.21,1,1,0,0,0,.23-.76,1.11,1.11,0,0,0-.19-.75,1,1,0,0,0-.74-.21h-.36Z"/><path class="cls-1" d="M31.79,25a1.93,1.93,0,0,1-.75-.13,1.13,1.13,0,0,1-.49-.38,1.68,1.68,0,0,1-.27-.59,3.24,3.24,0,0,1-.08-.79V20.91a2.19,2.19,0,0,1,.37-1.38,1.82,1.82,0,0,1,2.44,0,2.18,2.18,0,0,1,.37,1.38v2.21a2.26,2.26,0,0,1-.37,1.4A1.44,1.44,0,0,1,31.79,25Zm-.4-.71a1.1,1.1,0,0,0,.79,0,.51.51,0,0,0,.24-.23,1.06,1.06,0,0,0,.11-.33,2.84,2.84,0,0,0,0-.45V20.74a2.73,2.73,0,0,0,0-.44,1,1,0,0,0-.11-.32.48.48,0,0,0-.24-.22,1.16,1.16,0,0,0-.79,0,.49.49,0,0,0-.24.22,1,1,0,0,0-.11.32,2.74,2.74,0,0,0,0,.44v2.55a2.86,2.86,0,0,0,0,.45,1.06,1.06,0,0,0,.11.33A.52.52,0,0,0,31.39,24.3Z"/><path class="cls-1" d="M35.67,25a1.93,1.93,0,0,1-.75-.13,1.13,1.13,0,0,1-.49-.38,1.68,1.68,0,0,1-.27-.59,3.24,3.24,0,0,1-.08-.79V20.91a2.19,2.19,0,0,1,.37-1.38,1.82,1.82,0,0,1,2.44,0,2.18,2.18,0,0,1,.37,1.38v2.21a2.26,2.26,0,0,1-.37,1.4A1.44,1.44,0,0,1,35.67,25Zm-.4-.71a1.1,1.1,0,0,0,.79,0,.51.51,0,0,0,.24-.23,1.06,1.06,0,0,0,.11-.33,2.84,2.84,0,0,0,0-.45V20.74a2.73,2.73,0,0,0,0-.44A1,1,0,0,0,36.3,20a.48.48,0,0,0-.24-.22,1.16,1.16,0,0,0-.79,0A.49.49,0,0,0,35,20a1,1,0,0,0-.11.32,2.74,2.74,0,0,0,0,.44v2.55a2.86,2.86,0,0,0,0,.45,1.06,1.06,0,0,0,.11.33A.52.52,0,0,0,35.27,24.3Z"/><path class="cls-1" d="M38,24.94l.11-5.83h.79l1,4.73,1-4.73h.79l.11,5.83h-.66l-.06-4.23-1,4.23h-.46l-1-4.23-.06,4.23Z"/><path class="cls-4" d="M67.81,62.56a1.88,1.88,0,0,1-.64-.1,1.23,1.23,0,0,1-.45-.27,1.31,1.31,0,0,1-.28-.42,2.07,2.07,0,0,1-.15-.53,4.28,4.28,0,0,1,0-.62V58.56a4.4,4.4,0,0,1,0-.66,2.13,2.13,0,0,1,.15-.54,1.21,1.21,0,0,1,.28-.41,1.24,1.24,0,0,1,.45-.25,2,2,0,0,1,.63-.09,1.36,1.36,0,0,1,1.13.42,2,2,0,0,1,.34,1.25v.46H68.5v-.41c0-.09,0-.16,0-.21s0-.11,0-.19a1,1,0,0,0,0-.17l0-.15a.4.4,0,0,0-.06-.13l-.09-.1a.34.34,0,0,0-.12-.08l-.16,0-.2,0a1.07,1.07,0,0,0-.29,0,.48.48,0,0,0-.21.12.72.72,0,0,0-.13.17.77.77,0,0,0-.08.24,2.58,2.58,0,0,0,0,.29c0,.09,0,.21,0,.34v2.3a1.8,1.8,0,0,0,.17.91.64.64,0,0,0,.59.26,1,1,0,0,0,.28,0,.42.42,0,0,0,.19-.12.8.8,0,0,0,.12-.17.77.77,0,0,0,.07-.24q0-.15,0-.28c0-.08,0-.19,0-.33v-.43h.77v.43a3.79,3.79,0,0,1,0,.6,2,2,0,0,1-.14.49,1.14,1.14,0,0,1-.27.38,1.16,1.16,0,0,1-.42.24A1.85,1.85,0,0,1,67.81,62.56Z"/><path class="cls-4" d="M70.05,62.5V56.67h.81v5.24h1.49v.58Z"/><path class="cls-4" d="M75.06,62.46a2.22,2.22,0,0,1-1.29,0,1.11,1.11,0,0,1-.72-.69,2.34,2.34,0,0,1-.14-.56,5.36,5.36,0,0,1,0-.68V56.67h.77v3.9c0,.17,0,.31,0,.43a2,2,0,0,0,.06.37.9.9,0,0,0,.13.3.64.64,0,0,0,.23.18.77.77,0,0,0,.34.07.75.75,0,0,0,.34-.07.62.62,0,0,0,.22-.19.92.92,0,0,0,.13-.3,2,2,0,0,0,.06-.37c0-.12,0-.27,0-.43v-3.9H76v3.86a5.17,5.17,0,0,1,0,.68,2.3,2.3,0,0,1-.14.56,1.11,1.11,0,0,1-.72.69Z"/><path class="cls-4" d="M76.82,62.5V56.67h1.33a1.69,1.69,0,0,1,1.18.36,1.44,1.44,0,0,1,.38,1.1q0,1.11-.84,1.23a1.19,1.19,0,0,1,.75.49,1.77,1.77,0,0,1,.24,1,1.85,1.85,0,0,1-.37,1.23,1.39,1.39,0,0,1-1.13.44Zm.81-3.39h.48a.9.9,0,0,0,.7-.22,1.14,1.14,0,0,0,.2-.75,1.6,1.6,0,0,0,0-.3,1.12,1.12,0,0,0-.06-.22.37.37,0,0,0-.12-.15l-.16-.1a.81.81,0,0,0-.22-.06l-.27,0h-.52Zm0,2.81h.55a.87.87,0,0,0,.72-.25,1.38,1.38,0,0,0,.19-.83,1.28,1.28,0,0,0-.23-.83.93.93,0,0,0-.75-.28h-.48Z"/><path class="cls-4" d="M66.35,71.13V65.3h1.17a1.94,1.94,0,0,1,1.3.36,1.5,1.5,0,0,1,.41,1.18q0,1.12-.72,1.36l.83,2.92h-.79l-.77-2.73h-.63v2.73Zm.81-3.32h.31a1.1,1.1,0,0,0,.76-.21,1,1,0,0,0,.23-.76,1.11,1.11,0,0,0-.19-.75,1,1,0,0,0-.74-.21h-.36Z"/><path class="cls-4" d="M71.57,71.19a1.93,1.93,0,0,1-.75-.13,1.13,1.13,0,0,1-.49-.38,1.68,1.68,0,0,1-.27-.59A3.24,3.24,0,0,1,70,69.3V67.1a2.19,2.19,0,0,1,.37-1.38,1.82,1.82,0,0,1,2.44,0,2.18,2.18,0,0,1,.37,1.38v2.21a2.26,2.26,0,0,1-.37,1.4A1.44,1.44,0,0,1,71.57,71.19Zm-.4-.71a1.1,1.1,0,0,0,.79,0,.51.51,0,0,0,.24-.23,1.06,1.06,0,0,0,.11-.33,2.84,2.84,0,0,0,0-.45V66.93a2.73,2.73,0,0,0,0-.44,1,1,0,0,0-.11-.32.48.48,0,0,0-.24-.22,1.16,1.16,0,0,0-.79,0,.49.49,0,0,0-.24.22,1,1,0,0,0-.11.32,2.74,2.74,0,0,0,0,.44v2.55a2.86,2.86,0,0,0,0,.45,1.06,1.06,0,0,0,.11.33A.52.52,0,0,0,71.17,70.48Z"/><path class="cls-4" d="M75.45,71.19a1.93,1.93,0,0,1-.75-.13,1.13,1.13,0,0,1-.49-.38,1.68,1.68,0,0,1-.27-.59,3.24,3.24,0,0,1-.08-.79V67.1a2.19,2.19,0,0,1,.37-1.38,1.82,1.82,0,0,1,2.44,0A2.18,2.18,0,0,1,77,67.1v2.21a2.26,2.26,0,0,1-.37,1.4A1.44,1.44,0,0,1,75.45,71.19Zm-.4-.71a1.1,1.1,0,0,0,.79,0,.51.51,0,0,0,.24-.23,1.06,1.06,0,0,0,.11-.33,2.84,2.84,0,0,0,0-.45V66.93a2.73,2.73,0,0,0,0-.44,1,1,0,0,0-.11-.32.48.48,0,0,0-.24-.22,1.16,1.16,0,0,0-.79,0,.49.49,0,0,0-.24.22,1,1,0,0,0-.11.32,2.74,2.74,0,0,0,0,.44v2.55a2.86,2.86,0,0,0,0,.45,1.06,1.06,0,0,0,.11.33A.52.52,0,0,0,75.05,70.48Z"/><path class="cls-4" d="M77.83,71.13l.11-5.83h.79l1,4.73,1-4.73h.79l.11,5.83H81L81,66.9l-1,4.23h-.46l-1-4.23-.06,4.23Z"/><path class="cls-4" d="M112.28,72.82a1.3,1.3,0,0,1-1.15-.5,2.58,2.58,0,0,1-.35-1.48V68.89a4.94,4.94,0,0,1,0-.7,2.31,2.31,0,0,1,.15-.56,1.17,1.17,0,0,1,.28-.42,1.21,1.21,0,0,1,.45-.25,2,2,0,0,1,.64-.09,1.46,1.46,0,0,1,1.16.41,2,2,0,0,1,.35,1.29v.21h-.76V68.6c0-.16,0-.3,0-.41a1.53,1.53,0,0,0-.06-.3.51.51,0,0,0-.13-.22.57.57,0,0,0-.22-.12,1,1,0,0,0-.33,0,1,1,0,0,0-.27,0,.65.65,0,0,0-.2.09.42.42,0,0,0-.14.15,1.08,1.08,0,0,0-.09.19,1.17,1.17,0,0,0,0,.24c0,.1,0,.19,0,.27s0,.18,0,.3v2.16a2.1,2.1,0,0,0,.16,1,.79.79,0,0,0,1.24,0,2.26,2.26,0,0,0,.17-1v-.41h-.74v-.58h1.48v2.89h-.52l-.08-.67A1,1,0,0,1,112.28,72.82Z"/><path class="cls-4" d="M114.42,72.75l1.24-5.83h.78l1.24,5.83h-.77l-.27-1.47h-1.18l-.28,1.47Zm1.15-2h1l-.49-2.63Z"/><path class="cls-4" d="M118.28,72.75V66.92h1.17a1.94,1.94,0,0,1,1.3.36,1.5,1.5,0,0,1,.41,1.18q0,1.12-.72,1.36l.83,2.92h-.79L119.72,70h-.63v2.73Zm.81-3.32h.31a1.1,1.1,0,0,0,.76-.21,1,1,0,0,0,.23-.76,1.11,1.11,0,0,0-.19-.75,1,1,0,0,0-.74-.21h-.36Z"/><path class="cls-4" d="M122,72.75V66.92h1.26a1.74,1.74,0,0,1,1.33.43A2,2,0,0,1,125,68.7v2.14a2.24,2.24,0,0,1-.38,1.43,1.56,1.56,0,0,1-1.28.47Zm.81-.58h.46a1.32,1.32,0,0,0,.33,0,1.06,1.06,0,0,0,.24-.09.42.42,0,0,0,.16-.16,1,1,0,0,0,.15-.49c0-.12,0-.23,0-.32s0-.21,0-.38V68.79c0-.14,0-.26,0-.35a2.85,2.85,0,0,0,0-.29.87.87,0,0,0-.06-.24.8.8,0,0,0-.11-.17.43.43,0,0,0-.17-.13l-.23-.07-.31,0h-.44Z"/><path class="cls-4" d="M125.8,72.75V66.92h2.26v.6h-1.44v1.92h1.17V70h-1.17v2.14h1.46v.58Z"/><path class="cls-4" d="M128.73,72.75V66.92h.55l1.65,3.87V66.92h.68v5.83h-.52l-1.68-4v4Z"/><path class="cls-4" d="M110.89,81.38V75.56h1.33a1.69,1.69,0,0,1,1.18.36,1.44,1.44,0,0,1,.38,1.1q0,1.11-.84,1.23a1.19,1.19,0,0,1,.75.49,1.77,1.77,0,0,1,.24,1,1.85,1.85,0,0,1-.37,1.23,1.39,1.39,0,0,1-1.13.44ZM111.7,78h.48a.9.9,0,0,0,.7-.22,1.14,1.14,0,0,0,.2-.75,1.6,1.6,0,0,0,0-.3,1.12,1.12,0,0,0-.06-.22.37.37,0,0,0-.12-.15l-.16-.1a.81.81,0,0,0-.22-.06l-.27,0h-.52Zm0,2.81h.55a.87.87,0,0,0,.72-.25,1.38,1.38,0,0,0,.19-.83,1.28,1.28,0,0,0-.23-.83.93.93,0,0,0-.75-.28h-.48Z"/><path class="cls-4" d="M114.34,81.38l1.24-5.83h.78l1.24,5.83h-.77l-.27-1.47h-1.18l-.28,1.47Zm1.15-2h1L116,76.7Z"/><path class="cls-4" d="M118.2,81.38V75.56h1.17a1.94,1.94,0,0,1,1.3.36,1.5,1.5,0,0,1,.41,1.18q0,1.12-.72,1.36l.83,2.92h-.79l-.77-2.73H119v2.73Zm.81-3.32h.31a1.1,1.1,0,0,0,.76-.21,1,1,0,0,0,.23-.76,1.11,1.11,0,0,0-.19-.75,1,1,0,0,0-.74-.21H119Z"/><polygon class="cls-2" points="138.57 6.11 152.61 62.49 106.61 62.49 106.61 6.11 138.57 6.11"/><path class="cls-4" d="M69.78,16.31V10.48h1.44a1.35,1.35,0,0,1,1.1.41,1.84,1.84,0,0,1,.34,1.2,1.57,1.57,0,0,1-.37,1.11,1.39,1.39,0,0,1-1.07.4h-.64v2.71Zm.81-3.3H71a1.08,1.08,0,0,0,.73-.19,1,1,0,0,0,.2-.73c0-.15,0-.27,0-.36a1.31,1.31,0,0,0,0-.27.5.5,0,0,0-.1-.19.48.48,0,0,0-.17-.12.83.83,0,0,0-.25-.07l-.35,0h-.38Z"/><path class="cls-4" d="M72.64,16.31l1.24-5.83h.78l1.24,5.83h-.77l-.27-1.47H73.69l-.28,1.47Zm1.15-2h1l-.49-2.63Z"/><path class="cls-4" d="M76.87,16.31V11.08H75.81v-.6h2.9v.6h-1v5.22Z"/><path class="cls-4" d="M79.19,16.31V10.48H80v5.83Z"/><path class="cls-4" d="M82.42,16.37a1.93,1.93,0,0,1-.75-.13,1.13,1.13,0,0,1-.49-.38,1.68,1.68,0,0,1-.27-.59,3.24,3.24,0,0,1-.08-.79V12.27a2.19,2.19,0,0,1,.37-1.38,1.82,1.82,0,0,1,2.44,0A2.18,2.18,0,0,1,84,12.27v2.21a2.26,2.26,0,0,1-.37,1.4A1.44,1.44,0,0,1,82.42,16.37Zm-.4-.71a1.1,1.1,0,0,0,.79,0,.51.51,0,0,0,.24-.23,1.06,1.06,0,0,0,.11-.33,2.84,2.84,0,0,0,0-.45V12.1a2.73,2.73,0,0,0,0-.44,1,1,0,0,0-.11-.32.48.48,0,0,0-.24-.22,1.16,1.16,0,0,0-.79,0,.49.49,0,0,0-.24.22,1,1,0,0,0-.11.32,2.74,2.74,0,0,0,0,.44v2.55a2.86,2.86,0,0,0,0,.45,1.06,1.06,0,0,0,.11.33A.52.52,0,0,0,82,15.66Z"/><rect class="cls-1" x="109.39" y="62.04" width="10.95" height="1"/><rect class="cls-1" x="84.44" y="27.6" width="44.02" height="1.62" transform="translate(134.87 -78.04) rotate(90)"/><path class="cls-4" d="M112.37,16.37a1.93,1.93,0,0,1-.75-.13,1.13,1.13,0,0,1-.49-.38,1.68,1.68,0,0,1-.27-.59,3.24,3.24,0,0,1-.08-.79V12.27a2.19,2.19,0,0,1,.37-1.38,1.82,1.82,0,0,1,2.44,0,2.18,2.18,0,0,1,.37,1.38v2.21a2.26,2.26,0,0,1-.37,1.4A1.44,1.44,0,0,1,112.37,16.37Zm-.4-.71a1.1,1.1,0,0,0,.79,0,.51.51,0,0,0,.24-.23,1.06,1.06,0,0,0,.11-.33,2.84,2.84,0,0,0,0-.45V12.1a2.73,2.73,0,0,0,0-.44,1,1,0,0,0-.11-.32.48.48,0,0,0-.24-.22,1.16,1.16,0,0,0-.79,0,.49.49,0,0,0-.24.22,1,1,0,0,0-.11.32,2.74,2.74,0,0,0,0,.44v2.55a2.86,2.86,0,0,0,0,.45,1.06,1.06,0,0,0,.11.33A.52.52,0,0,0,112,15.66Z"/><path class="cls-4" d="M116.92,16.27a2.22,2.22,0,0,1-1.29,0,1.11,1.11,0,0,1-.72-.69,2.34,2.34,0,0,1-.14-.56,5.36,5.36,0,0,1,0-.68V10.48h.77v3.9c0,.17,0,.31,0,.43a2,2,0,0,0,.06.37.9.9,0,0,0,.13.3.64.64,0,0,0,.23.18.77.77,0,0,0,.34.07.75.75,0,0,0,.34-.07.62.62,0,0,0,.22-.19.92.92,0,0,0,.13-.3,2,2,0,0,0,.06-.37c0-.12,0-.27,0-.43v-3.9h.77v3.86a5.17,5.17,0,0,1,0,.68,2.3,2.3,0,0,1-.14.56,1.11,1.11,0,0,1-.72.69Z"/><path class="cls-4" d="M119.28,16.31V11.08h-1.06v-.6h2.9v.6h-1v5.22Z"/><path class="cls-4" d="M122.93,16.37a1.39,1.39,0,0,1-1.12-.45,2,2,0,0,1-.43-1.24l.72-.2q.08,1.25.83,1.25a.62.62,0,0,0,.48-.17.72.72,0,0,0,.16-.51,1.25,1.25,0,0,0,0-.34,1,1,0,0,0-.14-.29,2,2,0,0,0-.19-.23l-.25-.25-1-.87a1.73,1.73,0,0,1-.43-.56,1.75,1.75,0,0,1-.13-.73,1.3,1.3,0,0,1,.37-1,1.41,1.41,0,0,1,1-.36,1.34,1.34,0,0,1,1,.36,1.89,1.89,0,0,1,.42,1.15l-.68.19c0-.13,0-.24,0-.34a1.55,1.55,0,0,0-.08-.3.79.79,0,0,0-.14-.24.54.54,0,0,0-.21-.15.7.7,0,0,0-.31,0q-.64,0-.64.64a.94.94,0,0,0,.09.43,1.33,1.33,0,0,0,.3.36l1,.87a3,3,0,0,1,.61.74,1.76,1.76,0,0,1,.23.89,1.35,1.35,0,0,1-.39,1A1.39,1.39,0,0,1,122.93,16.37Z"/><path class="cls-4" d="M125,16.31V10.48h.8v5.83Z"/><path class="cls-4" d="M126.75,16.31V10.48H128a1.74,1.74,0,0,1,1.33.43,2,2,0,0,1,.39,1.35V14.4a2.24,2.24,0,0,1-.38,1.43,1.56,1.56,0,0,1-1.28.47Zm.81-.58H128a1.32,1.32,0,0,0,.33,0,1.06,1.06,0,0,0,.24-.09.42.42,0,0,0,.16-.16,1,1,0,0,0,.15-.49c0-.12,0-.23,0-.32s0-.21,0-.38V12.35c0-.14,0-.26,0-.35a2.85,2.85,0,0,0,0-.29.87.87,0,0,0-.06-.24.8.8,0,0,0-.11-.17.43.43,0,0,0-.17-.13l-.23-.07-.31,0h-.44Z"/><path class="cls-4" d="M130.54,16.31V10.48h2.26v.6h-1.44V13h1.17v.58h-1.17v2.14h1.46v.58Z"/><path class="cls-4" d="M112.28,25a1.3,1.3,0,0,1-1.15-.5,2.58,2.58,0,0,1-.35-1.48V21.08a4.94,4.94,0,0,1,0-.7,2.31,2.31,0,0,1,.15-.56,1.17,1.17,0,0,1,.28-.42,1.21,1.21,0,0,1,.45-.25,2,2,0,0,1,.64-.09,1.46,1.46,0,0,1,1.16.41,2,2,0,0,1,.35,1.29V21h-.76v-.18c0-.16,0-.3,0-.41a1.53,1.53,0,0,0-.06-.3.51.51,0,0,0-.13-.22.57.57,0,0,0-.22-.12,1,1,0,0,0-.33,0,1,1,0,0,0-.27,0,.65.65,0,0,0-.2.09.42.42,0,0,0-.14.15,1.08,1.08,0,0,0-.09.19,1.17,1.17,0,0,0,0,.24c0,.1,0,.19,0,.27s0,.18,0,.3v2.16a2.1,2.1,0,0,0,.16,1,.79.79,0,0,0,1.24,0,2.26,2.26,0,0,0,.17-1v-.41h-.74v-.58h1.48v2.89h-.52l-.08-.67A1,1,0,0,1,112.28,25Z"/><path class="cls-4" d="M114.42,24.94l1.24-5.83h.78l1.24,5.83h-.77l-.27-1.47h-1.18l-.28,1.47Zm1.15-2h1l-.49-2.63Z"/><path class="cls-4" d="M118.28,24.94V19.11h1.17a1.94,1.94,0,0,1,1.3.36,1.5,1.5,0,0,1,.41,1.18q0,1.12-.72,1.36l.83,2.92h-.79l-.77-2.73h-.63v2.73Zm.81-3.32h.31a1.1,1.1,0,0,0,.76-.21,1,1,0,0,0,.23-.76,1.11,1.11,0,0,0-.19-.75,1,1,0,0,0-.74-.21h-.36Z"/><path class="cls-4" d="M122,24.94V19.11h1.26a1.74,1.74,0,0,1,1.33.43,2,2,0,0,1,.39,1.35V23a2.24,2.24,0,0,1-.38,1.43,1.56,1.56,0,0,1-1.28.47Zm.81-.58h.46a1.32,1.32,0,0,0,.33,0,1.06,1.06,0,0,0,.24-.09.42.42,0,0,0,.16-.16,1,1,0,0,0,.15-.49c0-.12,0-.23,0-.32s0-.21,0-.38V21c0-.14,0-.26,0-.35a2.85,2.85,0,0,0,0-.29.87.87,0,0,0-.06-.24.8.8,0,0,0-.11-.17.43.43,0,0,0-.17-.13l-.23-.07-.31,0h-.44Z"/><path class="cls-4" d="M125.81,24.94V19.11h2.26v.6h-1.44v1.92h1.17v.58h-1.17v2.14h1.46v.58Z"/><path class="cls-4" d="M128.74,24.94V19.11h.55L130.94,23V19.11h.68v5.83h-.52l-1.68-4v4Z"/><rect class="cls-1" x="108.3" y="4.95" width="10.95" height="1.93"/><path class="cls-4" d="M4.14,16.31V10.24H6.48v.61H5v2H6.14v.6H5v2.84Z"/><path class="cls-4" d="M7.07,16.31V10.24H8.28a2,2,0,0,1,1.35.38,1.56,1.56,0,0,1,.43,1.23q0,1.17-.75,1.42l.87,3H9.36l-.8-2.85H7.91v2.85Zm.84-3.45h.32A1.15,1.15,0,0,0,9,12.64a1,1,0,0,0,.24-.79,1.16,1.16,0,0,0-.2-.78,1,1,0,0,0-.77-.22H7.91Z"/><path class="cls-4" d="M12.5,16.37a2,2,0,0,1-.78-.13,1.19,1.19,0,0,1-.51-.4,1.76,1.76,0,0,1-.28-.61,3.4,3.4,0,0,1-.09-.82v-2.3a2.27,2.27,0,0,1,.39-1.44,1.52,1.52,0,0,1,1.27-.49,1.52,1.52,0,0,1,1.27.49,2.27,2.27,0,0,1,.39,1.43v2.3a2.36,2.36,0,0,1-.39,1.46A1.49,1.49,0,0,1,12.5,16.37Zm-.41-.74a1.15,1.15,0,0,0,.82,0,.54.54,0,0,0,.25-.23,1.14,1.14,0,0,0,.12-.35,3,3,0,0,0,0-.47V11.93a2.82,2.82,0,0,0,0-.46,1.1,1.1,0,0,0-.12-.34.51.51,0,0,0-.25-.22,1.22,1.22,0,0,0-.82,0,.51.51,0,0,0-.25.22,1.1,1.1,0,0,0-.12.34,2.84,2.84,0,0,0,0,.46v2.66a3,3,0,0,0,0,.47,1.14,1.14,0,0,0,.12.35A.54.54,0,0,0,12.09,15.63Z"/><path class="cls-4" d="M15,16.31V10.24h.57l1.72,4v-4H18v6.06h-.54l-1.75-4.14v4.14Z"/><path class="cls-4" d="M19.57,16.31V10.87H18.46v-.62h3v.63H20.41v5.44Z"/><path class="cls-4" d="M4.14,25.3V19.23H5.53a1.75,1.75,0,0,1,1.23.37,1.5,1.5,0,0,1,.4,1.15q0,1.16-.87,1.28a1.24,1.24,0,0,1,.78.51,1.84,1.84,0,0,1,.25,1,1.93,1.93,0,0,1-.38,1.28,1.45,1.45,0,0,1-1.17.46ZM5,21.76h.5a.93.93,0,0,0,.73-.23,1.18,1.18,0,0,0,.2-.78,1.72,1.72,0,0,0,0-.31,1.14,1.14,0,0,0-.07-.23A.38.38,0,0,0,6.2,20L6,19.95a.85.85,0,0,0-.23-.06l-.28,0H5Zm0,2.93h.57a.91.91,0,0,0,.75-.26,1.44,1.44,0,0,0,.2-.87,1.33,1.33,0,0,0-.24-.87,1,1,0,0,0-.78-.29H5Z"/><path class="cls-4" d="M7.73,25.3,9,19.23h.82l1.29,6.06h-.8l-.28-1.53H8.82L8.53,25.3Zm1.2-2.13h1l-.51-2.74Z"/><path class="cls-4" d="M11.75,25.3V19.23H13a2,2,0,0,1,1.35.38,1.56,1.56,0,0,1,.43,1.23q0,1.17-.75,1.42l.87,3H14l-.8-2.85h-.66V25.3Zm.84-3.45h.32a1.15,1.15,0,0,0,.79-.22,1,1,0,0,0,.24-.79,1.16,1.16,0,0,0-.2-.78,1,1,0,0,0-.77-.22h-.37Z"/><path class="cls-4" d="M5.41,34.35a1.25,1.25,0,0,1-1-.38,1.39,1.39,0,0,1-.35-1,1.92,1.92,0,0,1,.24-1,3.23,3.23,0,0,1,.65-.8l-.17-.32-.18-.35-.15-.33a2,2,0,0,1-.12-.37,1.76,1.76,0,0,1,0-.37,1.35,1.35,0,0,1,.35-1,1.24,1.24,0,0,1,.94-.37,1.39,1.39,0,0,1,.92.3,1,1,0,0,1,.36.82,1.7,1.7,0,0,1-.1.57,2.28,2.28,0,0,1-.29.55c-.12.18-.24.33-.36.46s-.24.26-.39.4l.92,1.44A3.8,3.8,0,0,0,7,31.5h.8a2.64,2.64,0,0,1-.18.9,3.45,3.45,0,0,1-.41.81.91.91,0,0,0,.26.22.66.66,0,0,0,.33.09v.82H7.68l-.16,0-.14,0-.14-.07-.12-.07L7,34.05,6.91,34l-.1-.11-.09-.09a1.55,1.55,0,0,1-.55.43A1.71,1.71,0,0,1,5.41,34.35Zm0-.66a1.05,1.05,0,0,0,.81-.45L5.3,31.81a1.83,1.83,0,0,0-.29.54A2,2,0,0,0,4.9,33a1,1,0,0,0,.12.5A.42.42,0,0,0,5.41,33.69Zm.08-2.85a2.82,2.82,0,0,0,.43-.72,2.11,2.11,0,0,0,.18-.83A.45.45,0,0,0,6,28.95a.49.49,0,0,0-.35-.13.41.41,0,0,0-.37.2.91.91,0,0,0-.12.48A3.48,3.48,0,0,0,5.49,30.84Z"/><path class="cls-4" d="M4,41.48V36.63h1.2a1.13,1.13,0,0,1,.92.34,1.53,1.53,0,0,1,.28,1,1.31,1.31,0,0,1-.31.92,1.16,1.16,0,0,1-.89.33H4.72v2.26Zm.68-2.75H5a.9.9,0,0,0,.61-.16A.83.83,0,0,0,5.81,38c0-.12,0-.22,0-.3a1,1,0,0,0,0-.22.42.42,0,0,0-.08-.16.41.41,0,0,0-.14-.1.71.71,0,0,0-.21-.06H4.72Z"/><path class="cls-4" d="M6.43,41.48l1-4.86h.65l1,4.86H8.52l-.22-1.22h-1l-.23,1.22Zm1-1.71h.81L7.8,37.58Z"/><path class="cls-4" d="M9.65,41.48V36.63h1a1.62,1.62,0,0,1,1.08.3,1.25,1.25,0,0,1,.34,1q0,.94-.6,1.13l.69,2.44h-.66l-.64-2.28h-.52v2.28Zm.68-2.77h.25a.92.92,0,0,0,.63-.17.84.84,0,0,0,.19-.63.93.93,0,0,0-.16-.62.82.82,0,0,0-.61-.18h-.3Z"/><path class="cls-4" d="M12.77,41.48V36.63h.68V41h1.24v.49Z"/><path class="cls-4" d="M16.34,41.54a1.62,1.62,0,0,1-.62-.11,1,1,0,0,1-.41-.32,1.42,1.42,0,0,1-.22-.49A2.72,2.72,0,0,1,15,40V38.12A1.82,1.82,0,0,1,15.33,37a1.22,1.22,0,0,1,1-.39,1.22,1.22,0,0,1,1,.39,1.82,1.82,0,0,1,.31,1.15V40a1.89,1.89,0,0,1-.31,1.17A1.2,1.2,0,0,1,16.34,41.54ZM16,40.95a.92.92,0,0,0,.66,0,.43.43,0,0,0,.2-.19.89.89,0,0,0,.09-.28,2.34,2.34,0,0,0,0-.37V38a2.24,2.24,0,0,0,0-.37.85.85,0,0,0-.09-.27.41.41,0,0,0-.2-.18,1,1,0,0,0-.66,0,.4.4,0,0,0-.2.18.83.83,0,0,0-.09.27,2.13,2.13,0,0,0,0,.37v2.13a2.23,2.23,0,0,0,0,.37.87.87,0,0,0,.09.28A.42.42,0,0,0,16,40.95Z"/><path class="cls-4" d="M18.34,41.48V36.63h1a1.62,1.62,0,0,1,1.08.3,1.25,1.25,0,0,1,.34,1q0,.94-.6,1.13l.69,2.44h-.66l-.64-2.28H19v2.28ZM19,38.72h.25a.92.92,0,0,0,.63-.17.84.84,0,0,0,.19-.63.93.93,0,0,0-.16-.62.82.82,0,0,0-.61-.18H19Z"/></g></g></svg>