<svg xmlns="http://www.w3.org/2000/svg" viewBox="0 0 168.07 95.62"><defs><style>.cls-1{fill:#fff;}.cls-2{fill:none;}.cls-2,.cls-3{stroke:#1f3238;stroke-miterlimit:10;}.cls-3{fill:#da4626;}.cls-4{fill:#1f3238;}</style></defs><title>bbar-events-front-bar-and-parlor</title><g id="Layer_2" data-name="Layer 2"><g id="Layer_1-2" data-name="Layer 1"><rect class="cls-1" width="168.07" height="95.62"/><rect class="cls-2" x="63.45" y="52.97" width="47.53" height="40.63"/><rect class="cls-3" x="2.29" y="6.52" width="21.65" height="46.45"/><rect class="cls-2" x="23.94" y="6.52" width="44.65" height="46.45"/><rect class="cls-2" x="68.59" y="6.52" width="42.39" height="46.45"/><polygon class="cls-2" points="158.86 65.22 110.98 65.22 110.98 93.6 165.93 93.6 158.86 65.22"/><path class="cls-4" d="M132.18,3.63v.26h-1.44V1.56h1.44v.26h-1.12v.77H132v.25h-.91v.8Z"/><path class="cls-4" d="M134.95,3v.17a.07.07,0,0,1,0,0l0,0h-.29v.61h-.25V3.28h-1l-.06,0a.09.09,0,0,1,0,0l0-.15,1.13-1.5h.27V3Zm-.61,0v-1s0-.06,0-.09,0-.07,0-.1L133.51,3Z"/><path class="cls-4" d="M135.78,3.92a.4.4,0,0,1-.3-.11.44.44,0,0,1-.11-.31v-1h-.2l0,0a.06.06,0,0,1,0,0V2.31l.27,0,.07-.51a.07.07,0,0,1,0,0l0,0h.15v.57h.48v.21h-.48v1a.21.21,0,0,0,0,.16.18.18,0,0,0,.13,0h.08l.06,0,0,0h0a.05.05,0,0,1,0,0l.08.14a.55.55,0,0,1-.18.11A.62.62,0,0,1,135.78,3.92Z"/><path class="cls-4" d="M136.73,2.46a.87.87,0,0,1,.23-.18.64.64,0,0,1,.3-.07.59.59,0,0,1,.24,0,.46.46,0,0,1,.17.13.55.55,0,0,1,.11.2.88.88,0,0,1,0,.26v1h-.29v-1a.45.45,0,0,0-.08-.29.32.32,0,0,0-.26-.1.49.49,0,0,0-.24.06.78.78,0,0,0-.21.17V3.89h-.29V1.49h.29Z"/><path class="cls-4" d="M140.34,1.92l0,0h0l-.07,0-.09-.06L140,1.82a.58.58,0,0,0-.19,0,.54.54,0,0,0-.19,0,.41.41,0,0,0-.14.08.32.32,0,0,0-.08.11.36.36,0,0,0,0,.14.26.26,0,0,0,0,.16.41.41,0,0,0,.13.11l.18.08.21.07.21.08a.73.73,0,0,1,.18.11.53.53,0,0,1,.13.17.56.56,0,0,1,0,.24.79.79,0,0,1-.05.29.66.66,0,0,1-.15.23.71.71,0,0,1-.25.16.91.91,0,0,1-.33.06,1,1,0,0,1-.41-.08,1,1,0,0,1-.32-.22l.09-.15,0,0h0l0,0,.06,0,.08.06.1.06.13,0,.16,0a.61.61,0,0,0,.2,0,.44.44,0,0,0,.15-.09.39.39,0,0,0,.09-.13.45.45,0,0,0,0-.17.29.29,0,0,0,0-.17.39.39,0,0,0-.13-.11l-.18-.08-.21-.07-.21-.08a.65.65,0,0,1-.18-.11.49.49,0,0,1-.13-.17.62.62,0,0,1,0-.26.61.61,0,0,1,0-.24.59.59,0,0,1,.14-.21.68.68,0,0,1,.23-.14.82.82,0,0,1,.31-.05,1,1,0,0,1,.36.06.84.84,0,0,1,.28.18Z"/><path class="cls-4" d="M141.28,3.92a.4.4,0,0,1-.3-.11.44.44,0,0,1-.11-.31v-1h-.2l0,0a.06.06,0,0,1,0,0V2.31l.27,0,.07-.51a.07.07,0,0,1,0,0l0,0h.15v.57h.48v.21h-.48v1a.21.21,0,0,0,0,.16.18.18,0,0,0,.13,0h.08l.06,0,0,0h0a.05.05,0,0,1,0,0l.08.14a.55.55,0,0,1-.18.11A.62.62,0,0,1,141.28,3.92Z"/><path class="cls-4" d="M149.51,9.14a1.42,1.42,0,0,1,.05.37.7.7,0,0,1-.05.28.46.46,0,0,1-.15.19.66.66,0,0,1-.24.11l-.17,0a.49.49,0,0,1-.16,0,.6.6,0,0,1-.15-.1.77.77,0,0,1-.13-.17.71.71,0,0,1-.08.42.48.48,0,0,1-.31.21.63.63,0,0,1-.27,0,.58.58,0,0,1-.24-.1.75.75,0,0,1-.2-.22,1.15,1.15,0,0,1-.13-.33l-.21-.8,2.26-.58Zm-2,.59a.82.82,0,0,0,.09.22.46.46,0,0,0,.13.13.37.37,0,0,0,.15.06.48.48,0,0,0,.17,0,.35.35,0,0,0,.24-.2.61.61,0,0,0,0-.4L148.17,9l-.79.2Zm1.65-.95-.77.2.1.4a.83.83,0,0,0,.09.22.44.44,0,0,0,.12.14.3.3,0,0,0,.15.06.4.4,0,0,0,.17,0,.36.36,0,0,0,.26-.2.63.63,0,0,0,0-.39Z"/><path class="cls-4" d="M149.36,11.2a.85.85,0,0,1,0,.33.69.69,0,0,1-.1.28.73.73,0,0,1-.22.22,1.07,1.07,0,0,1-.33.14,1.09,1.09,0,0,1-.36,0,.73.73,0,0,1-.3-.09.68.68,0,0,1-.23-.2.85.85,0,0,1-.14-.3.87.87,0,0,1,0-.33.71.71,0,0,1,.1-.28.75.75,0,0,1,.22-.22,1,1,0,0,1,.33-.14,1,1,0,0,1,.35,0,.73.73,0,0,1,.3.08.69.69,0,0,1,.23.2A.86.86,0,0,1,149.36,11.2Zm-1.42.37a.42.42,0,0,0,.25.31.76.76,0,0,0,.47,0,.77.77,0,0,0,.41-.23.42.42,0,0,0,.07-.39.53.53,0,0,0-.09-.2.41.41,0,0,0-.16-.12.54.54,0,0,0-.21,0,1.05,1.05,0,0,0-.26,0,.75.75,0,0,0-.41.23A.43.43,0,0,0,147.94,11.57Z"/><path class="cls-4" d="M150.19,14.5l-1.73-.1-.06-.22s0-.05,0-.07l1-.63.07,0,.07,0h-.16l-1.17-.08a.07.07,0,0,1-.07,0l-.05-.21,1.46-.93.06.22a.09.09,0,0,1,0,.06l0,0-.95.57-.2.1h.23l1.12.07,0,0a.07.07,0,0,1,0,0l0,.12a.09.09,0,0,1,0,.06l0,0-.95.6-.1.06-.1.05h.23l1.11,0,0,0a.09.09,0,0,1,0,0Z"/><path class="cls-4" d="M149.22,16.4a.55.55,0,0,1-.14-.1.81.81,0,0,1-.12-.14.94.94,0,0,1-.09-.16,1,1,0,0,1-.06-.17.84.84,0,0,1,0-.32.67.67,0,0,1,.1-.28.76.76,0,0,1,.23-.23,1.11,1.11,0,0,1,.35-.15,1,1,0,0,1,.33,0,.79.79,0,0,1,.29.08.69.69,0,0,1,.23.19.78.78,0,0,1,.14.3.75.75,0,0,1,0,.28.63.63,0,0,1-.08.25.65.65,0,0,1-.19.2.86.86,0,0,1-.29.13h-.09s0,0,0,0l-.28-1.07a1,1,0,0,0-.25.11.57.57,0,0,0-.16.15.43.43,0,0,0-.07.19.55.55,0,0,0,0,.21.65.65,0,0,0,.07.17l.09.12.08.08a.12.12,0,0,1,0,.06.06.06,0,0,1,0,.06Zm.69-.42a.55.55,0,0,0,.17-.07.41.41,0,0,0,.12-.12.37.37,0,0,0,.06-.15.44.44,0,0,0,0-.18.45.45,0,0,0-.2-.29.57.57,0,0,0-.36-.06Z"/><path class="cls-4" d="M150.43,16.76a.75.75,0,0,1,.3.12.43.43,0,0,1,.16.25.44.44,0,0,1,0,.1.27.27,0,0,1,0,.09l-.21,0a0,0,0,0,1-.05,0,.4.4,0,0,1,0-.07.41.41,0,0,0,0-.1.43.43,0,0,0-.06-.13.32.32,0,0,0-.09-.09l-.13-.06-.16,0-1,.26-.07-.28,1.6-.41,0,.16a.09.09,0,0,1,0,.07l-.05,0Z"/><path class="cls-4" d="M151.33,18.93l-2.3-.36-.06,0a.1.1,0,0,1,0-.06l-.05-.21.71.13,1.33-1,.06.24a.1.1,0,0,1,0,.06l0,0-.9.69-.13.08h.15l1.11.16,0,0a.09.09,0,0,1,0,0Z"/><rect class="cls-1" x="10.47" y="6.17" width="11.4" height="0.65"/><rect class="cls-1" x="50.09" y="52.5" width="11.4" height="0.94"/><rect class="cls-1" x="70.69" y="52.5" width="11.4" height="0.94"/><rect class="cls-1" x="18.29" y="12.16" width="11.4" height="0.73" transform="translate(36.51 -11.46) rotate(90)"/><rect class="cls-1" x="18.27" y="46.58" width="11.43" height="0.72" transform="translate(70.93 22.96) rotate(90)"/><rect class="cls-1" x="62.89" y="12.13" width="11.4" height="0.82" transform="translate(81.14 -56.05) rotate(90)"/><rect class="cls-1" x="62.91" y="46.55" width="11.4" height="0.8" transform="translate(115.55 -21.66) rotate(90)"/><rect class="cls-1" x="57.75" y="60.12" width="11.4" height="0.8" transform="translate(123.97 -2.93) rotate(90)"/><rect class="cls-1" x="105.28" y="83.37" width="11.4" height="0.8" transform="translate(194.75 -27.21) rotate(90)"/><rect class="cls-1" x="158.34" y="83.56" width="11.4" height="2.01" transform="translate(205.69 -95.23) rotate(75.77)"/><path class="cls-4" d="M27.65,17.14V11.07H29a1.81,1.81,0,0,1,1.39.45,2,2,0,0,1,.4,1.4v2.23a2.33,2.33,0,0,1-.4,1.49,1.62,1.62,0,0,1-1.33.49Zm.84-.61H29a1.38,1.38,0,0,0,.34,0,1.17,1.17,0,0,0,.25-.09.43.43,0,0,0,.17-.17,1.27,1.27,0,0,0,.1-.22,1.32,1.32,0,0,0,.05-.29c0-.13,0-.24,0-.33s0-.22,0-.4V13c0-.15,0-.27,0-.37s0-.2,0-.3a.79.79,0,0,0-.18-.43.48.48,0,0,0-.17-.13,1.1,1.1,0,0,0-.24-.07l-.33,0H28.5Z"/><path class="cls-4" d="M31.64,17.14V11.07h.83v6.06Z"/><path class="cls-4" d="M33.45,17.14V11.07H34l1.72,4v-4h.71v6.06h-.54L34.17,13v4.14Z"/><path class="cls-4" d="M37.45,17.14V11.07h.83v6.06Z"/><path class="cls-4" d="M39.26,17.14V11.07h.57l1.72,4v-4h.71v6.06h-.54L40,13v4.14Z"/><path class="cls-4" d="M44.66,17.21a1.35,1.35,0,0,1-1.19-.52,2.69,2.69,0,0,1-.37-1.54v-2a5,5,0,0,1,0-.73,2.35,2.35,0,0,1,.16-.58,1.21,1.21,0,0,1,.29-.44,1.27,1.27,0,0,1,.46-.26,2.13,2.13,0,0,1,.66-.09,1.52,1.52,0,0,1,1.21.43,2,2,0,0,1,.37,1.35V13h-.79v-.19c0-.17,0-.31,0-.42a1.51,1.51,0,0,0-.06-.32.53.53,0,0,0-.13-.23.59.59,0,0,0-.23-.13,1.06,1.06,0,0,0-.34,0,1,1,0,0,0-.28,0,.72.72,0,0,0-.2.09.46.46,0,0,0-.14.16,1.2,1.2,0,0,0-.09.2,1.28,1.28,0,0,0-.05.25c0,.1,0,.19,0,.28s0,.19,0,.31v2.25a2.19,2.19,0,0,0,.17,1,.82.82,0,0,0,1.29,0,2.36,2.36,0,0,0,.18-1.06v-.42h-.77v-.6h1.54v3h-.54l-.08-.7A1.06,1.06,0,0,1,44.66,17.21Z"/><path class="cls-4" d="M27.65,26.13V20.06h1.22a2,2,0,0,1,1.35.38,1.56,1.56,0,0,1,.43,1.23q0,1.17-.75,1.42l.87,3H30l-.8-2.85H28.5v2.85Zm.84-3.45h.32a1.15,1.15,0,0,0,.79-.22,1,1,0,0,0,.24-.79,1.16,1.16,0,0,0-.2-.78,1,1,0,0,0-.77-.22H28.5Z"/><path class="cls-4" d="M33.09,26.19a2,2,0,0,1-.78-.13,1.19,1.19,0,0,1-.51-.4,1.76,1.76,0,0,1-.28-.61,3.4,3.4,0,0,1-.09-.82v-2.3a2.27,2.27,0,0,1,.39-1.44,1.89,1.89,0,0,1,2.54,0,2.27,2.27,0,0,1,.39,1.43v2.3a2.36,2.36,0,0,1-.39,1.46A1.49,1.49,0,0,1,33.09,26.19Zm-.41-.74a1.15,1.15,0,0,0,.82,0,.54.54,0,0,0,.25-.23,1.14,1.14,0,0,0,.12-.35,3,3,0,0,0,0-.47V21.75a2.82,2.82,0,0,0,0-.46,1.1,1.1,0,0,0-.12-.34.51.51,0,0,0-.25-.22,1.22,1.22,0,0,0-.82,0,.51.51,0,0,0-.25.22,1.1,1.1,0,0,0-.12.34,2.84,2.84,0,0,0,0,.46v2.66a3,3,0,0,0,0,.47,1.14,1.14,0,0,0,.12.35A.54.54,0,0,0,32.67,25.45Z"/><path class="cls-4" d="M37.12,26.19a2,2,0,0,1-.78-.13,1.19,1.19,0,0,1-.51-.4,1.76,1.76,0,0,1-.28-.61,3.4,3.4,0,0,1-.09-.82v-2.3a2.27,2.27,0,0,1,.39-1.44,1.89,1.89,0,0,1,2.54,0,2.27,2.27,0,0,1,.39,1.43v2.3a2.36,2.36,0,0,1-.39,1.46A1.49,1.49,0,0,1,37.12,26.19Zm-.41-.74a1.15,1.15,0,0,0,.82,0,.54.54,0,0,0,.25-.23,1.14,1.14,0,0,0,.12-.35,3,3,0,0,0,0-.47V21.75a2.82,2.82,0,0,0,0-.46,1.1,1.1,0,0,0-.12-.34.51.51,0,0,0-.25-.22,1.22,1.22,0,0,0-.82,0,.51.51,0,0,0-.25.22,1.1,1.1,0,0,0-.12.34,2.84,2.84,0,0,0,0,.46v2.66a3,3,0,0,0,0,.47,1.14,1.14,0,0,0,.12.35A.54.54,0,0,0,36.71,25.45Z"/><path class="cls-4" d="M39.6,26.13l.11-6.06h.83L41.61,25l1.08-4.92h.83l.11,6.06h-.68l-.07-4.41-1,4.41h-.47l-1-4.41-.07,4.41Z"/><path class="cls-4" d="M70.58,65.29a2,2,0,0,1-.66-.1,1.3,1.3,0,0,1-.47-.28,1.35,1.35,0,0,1-.3-.44,2.14,2.14,0,0,1-.16-.55,4.33,4.33,0,0,1,0-.65V61.13a4.47,4.47,0,0,1,0-.68,2.19,2.19,0,0,1,.16-.56,1.25,1.25,0,0,1,.3-.43,1.28,1.28,0,0,1,.47-.26,2.07,2.07,0,0,1,.66-.09,1.42,1.42,0,0,1,1.17.44,2,2,0,0,1,.35,1.3v.48h-.8V60.9c0-.09,0-.17,0-.22s0-.12,0-.2a1.15,1.15,0,0,0,0-.18l0-.15a.43.43,0,0,0-.06-.14l-.09-.11a.35.35,0,0,0-.12-.08l-.17,0-.21,0a1.11,1.11,0,0,0-.31,0,.51.51,0,0,0-.22.12.75.75,0,0,0-.14.18.84.84,0,0,0-.08.25c0,.1,0,.2,0,.3s0,.21,0,.36v2.4a1.87,1.87,0,0,0,.17,1,.67.67,0,0,0,.61.27,1,1,0,0,0,.29,0,.44.44,0,0,0,.2-.12.75.75,0,0,0,.13-.18.78.78,0,0,0,.07-.25,2.77,2.77,0,0,0,0-.29c0-.09,0-.2,0-.34V63h.8v.45a4,4,0,0,1,0,.62,2.09,2.09,0,0,1-.15.51,1.19,1.19,0,0,1-.28.4,1.21,1.21,0,0,1-.44.25A1.93,1.93,0,0,1,70.58,65.29Z"/><path class="cls-4" d="M72.92,65.22V59.16h.84v5.46h1.55v.61Z"/><path class="cls-4" d="M78.13,65.18a2,2,0,0,1-.67.1,2,2,0,0,1-.67-.1,1.16,1.16,0,0,1-.75-.72,2.38,2.38,0,0,1-.15-.58,5.42,5.42,0,0,1,0-.71v-4h.8v4.06c0,.17,0,.32,0,.45a2.1,2.1,0,0,0,.07.38.92.92,0,0,0,.14.31.63.63,0,0,0,.24.19.79.79,0,0,0,.36.08.77.77,0,0,0,.36-.08.63.63,0,0,0,.23-.19.94.94,0,0,0,.14-.31,2,2,0,0,0,.07-.38c0-.13,0-.28,0-.45V59.16h.8v4a5.59,5.59,0,0,1,0,.71,2.43,2.43,0,0,1-.15.58,1.26,1.26,0,0,1-.29.45A1.24,1.24,0,0,1,78.13,65.18Z"/><path class="cls-4" d="M80,65.22V59.16h1.39a1.75,1.75,0,0,1,1.23.37,1.5,1.5,0,0,1,.4,1.15q0,1.16-.87,1.28a1.24,1.24,0,0,1,.78.51,1.84,1.84,0,0,1,.25,1,1.93,1.93,0,0,1-.38,1.28,1.45,1.45,0,0,1-1.17.46Zm.84-3.53h.5a.93.93,0,0,0,.73-.23,1.18,1.18,0,0,0,.2-.78,1.72,1.72,0,0,0,0-.31,1.14,1.14,0,0,0-.07-.23A.38.38,0,0,0,82,60l-.17-.1a.85.85,0,0,0-.23-.06l-.28,0h-.54Zm0,2.93h.57a.91.91,0,0,0,.75-.26,1.44,1.44,0,0,0,.2-.87,1.33,1.33,0,0,0-.24-.87,1,1,0,0,0-.78-.29h-.5Z"/><path class="cls-4" d="M69.07,74.21V68.14h1.22a2,2,0,0,1,1.35.38,1.56,1.56,0,0,1,.43,1.23q0,1.17-.75,1.42l.87,3h-.82l-.8-2.85h-.66v2.85Zm.84-3.45h.32a1.15,1.15,0,0,0,.79-.22,1,1,0,0,0,.24-.79A1.16,1.16,0,0,0,71,69a1,1,0,0,0-.77-.22h-.37Z"/><path class="cls-4" d="M74.5,74.27a2,2,0,0,1-.78-.13,1.19,1.19,0,0,1-.51-.4,1.76,1.76,0,0,1-.28-.61,3.4,3.4,0,0,1-.09-.82V70a2.27,2.27,0,0,1,.39-1.44,1.89,1.89,0,0,1,2.54,0A2.27,2.27,0,0,1,76.15,70v2.3a2.36,2.36,0,0,1-.39,1.46A1.49,1.49,0,0,1,74.5,74.27Zm-.41-.74a1.15,1.15,0,0,0,.82,0,.54.54,0,0,0,.25-.23,1.14,1.14,0,0,0,.12-.35,3,3,0,0,0,0-.47V69.83a2.82,2.82,0,0,0,0-.46,1.1,1.1,0,0,0-.12-.34.51.51,0,0,0-.25-.22,1.22,1.22,0,0,0-.82,0,.51.51,0,0,0-.25.22,1.1,1.1,0,0,0-.12.34,2.84,2.84,0,0,0,0,.46v2.66a3,3,0,0,0,0,.47,1.14,1.14,0,0,0,.12.35A.54.54,0,0,0,74.09,73.54Z"/><path class="cls-4" d="M78.54,74.27a2,2,0,0,1-.78-.13,1.19,1.19,0,0,1-.51-.4,1.76,1.76,0,0,1-.28-.61,3.4,3.4,0,0,1-.09-.82V70a2.27,2.27,0,0,1,.39-1.44,1.89,1.89,0,0,1,2.54,0A2.27,2.27,0,0,1,80.19,70v2.3a2.36,2.36,0,0,1-.39,1.46A1.49,1.49,0,0,1,78.54,74.27Zm-.41-.74a1.15,1.15,0,0,0,.82,0,.54.54,0,0,0,.25-.23,1.14,1.14,0,0,0,.12-.35,3,3,0,0,0,0-.47V69.83a2.82,2.82,0,0,0,0-.46,1.1,1.1,0,0,0-.12-.34.51.51,0,0,0-.25-.22,1.22,1.22,0,0,0-.82,0,.51.51,0,0,0-.25.22,1.1,1.1,0,0,0-.12.34,2.84,2.84,0,0,0,0,.46v2.66a3,3,0,0,0,0,.47,1.14,1.14,0,0,0,.12.35A.54.54,0,0,0,78.12,73.54Z"/><path class="cls-4" d="M81,74.21l.11-6.06H82L83,73.06l1.08-4.92h.83L85,74.21h-.68l-.07-4.41-1,4.41h-.47l-1-4.41-.07,4.41Z"/><path class="cls-4" d="M116.87,76a1.35,1.35,0,0,1-1.19-.52,2.69,2.69,0,0,1-.37-1.54v-2a5,5,0,0,1,0-.73,2.35,2.35,0,0,1,.16-.58,1.21,1.21,0,0,1,.29-.44,1.27,1.27,0,0,1,.46-.26,2.13,2.13,0,0,1,.66-.09,1.52,1.52,0,0,1,1.21.43,2,2,0,0,1,.37,1.35v.22h-.79v-.19c0-.17,0-.31,0-.42a1.51,1.51,0,0,0-.06-.32.53.53,0,0,0-.13-.23.59.59,0,0,0-.23-.13,1.06,1.06,0,0,0-.34,0,1,1,0,0,0-.28,0,.72.72,0,0,0-.2.09.46.46,0,0,0-.14.16,1.2,1.2,0,0,0-.09.2,1.28,1.28,0,0,0-.05.25c0,.1,0,.19,0,.28s0,.19,0,.31V74a2.19,2.19,0,0,0,.17,1,.82.82,0,0,0,1.29,0,2.36,2.36,0,0,0,.18-1.06v-.42H117v-.6h1.54v3H118l-.08-.7A1.06,1.06,0,0,1,116.87,76Z"/><path class="cls-4" d="M119.1,75.89l1.29-6.06h.82l1.29,6.06h-.8l-.28-1.53h-1.23l-.29,1.53Zm1.2-2.13h1L120.81,71Z"/><path class="cls-4" d="M123.12,75.89V69.83h1.22a2,2,0,0,1,1.35.38,1.56,1.56,0,0,1,.43,1.23q0,1.17-.75,1.42l.87,3h-.82l-.8-2.85H124v2.85Zm.84-3.45h.32a1.15,1.15,0,0,0,.79-.22,1,1,0,0,0,.24-.79,1.16,1.16,0,0,0-.2-.78,1,1,0,0,0-.77-.22H124Z"/><path class="cls-4" d="M127,75.89V69.83h1.32a1.81,1.81,0,0,1,1.39.45,2,2,0,0,1,.4,1.4v2.23a2.33,2.33,0,0,1-.4,1.49,1.62,1.62,0,0,1-1.33.49Zm.84-.61h.48a1.38,1.38,0,0,0,.34,0,1.17,1.17,0,0,0,.25-.09.43.43,0,0,0,.17-.17,1.27,1.27,0,0,0,.1-.22,1.32,1.32,0,0,0,.05-.29c0-.13,0-.24,0-.33s0-.22,0-.4v-2c0-.15,0-.27,0-.37s0-.2,0-.3a.79.79,0,0,0-.18-.43.48.48,0,0,0-.17-.13,1.1,1.1,0,0,0-.24-.07l-.33,0h-.46Z"/><path class="cls-4" d="M131,75.89V69.83h2.35v.63h-1.5v2H133v.6H131.8v2.22h1.52v.61Z"/><path class="cls-4" d="M134,75.89V69.83h.57l1.72,4v-4H137v6.06h-.54l-1.75-4.14v4.14Z"/><path class="cls-4" d="M115.43,84.88V78.82h1.39a1.75,1.75,0,0,1,1.23.37,1.5,1.5,0,0,1,.4,1.15q0,1.16-.87,1.28a1.24,1.24,0,0,1,.78.51,1.84,1.84,0,0,1,.25,1,1.93,1.93,0,0,1-.38,1.28,1.45,1.45,0,0,1-1.17.46Zm.84-3.53h.5a.93.93,0,0,0,.73-.23,1.18,1.18,0,0,0,.2-.78,1.72,1.72,0,0,0,0-.31,1.14,1.14,0,0,0-.07-.23.38.38,0,0,0-.12-.16l-.17-.1a.85.85,0,0,0-.23-.06l-.28,0h-.54Zm0,2.93h.57a.91.91,0,0,0,.75-.26,1.44,1.44,0,0,0,.2-.87,1.33,1.33,0,0,0-.24-.87,1,1,0,0,0-.78-.29h-.5Z"/><path class="cls-4" d="M119,84.88l1.29-6.06h.82l1.29,6.06h-.8l-.28-1.53h-1.23l-.29,1.53Zm1.2-2.13h1L120.72,80Z"/><path class="cls-4" d="M123,84.88V78.82h1.22a2,2,0,0,1,1.35.38,1.56,1.56,0,0,1,.43,1.23q0,1.17-.75,1.42l.87,3h-.82l-.8-2.85h-.66v2.85Zm.84-3.45h.32a1.15,1.15,0,0,0,.79-.22,1,1,0,0,0,.24-.79,1.16,1.16,0,0,0-.2-.78,1,1,0,0,0-.77-.22h-.37Z"/><path class="cls-1" d="M4.72,17.14V11.07H7.06v.61H5.57v2H6.73v.6H5.57v2.84Z"/><path class="cls-1" d="M7.65,17.14V11.07H8.87a2,2,0,0,1,1.35.38,1.56,1.56,0,0,1,.43,1.23q0,1.17-.75,1.42l.87,3H9.95l-.8-2.85H8.49v2.85Zm.84-3.45h.32a1.15,1.15,0,0,0,.79-.22,1.05,1.05,0,0,0,.24-.79,1.16,1.16,0,0,0-.2-.78,1,1,0,0,0-.77-.22H8.49Z"/><path class="cls-1" d="M13.08,17.2a2,2,0,0,1-.78-.14,1.18,1.18,0,0,1-.51-.4,1.78,1.78,0,0,1-.28-.61,3.4,3.4,0,0,1-.09-.82v-2.3a2.28,2.28,0,0,1,.39-1.44A1.53,1.53,0,0,1,13.08,11a1.52,1.52,0,0,1,1.27.49,2.27,2.27,0,0,1,.39,1.43v2.3a2.35,2.35,0,0,1-.39,1.46A1.5,1.5,0,0,1,13.08,17.2Zm-.41-.74a1.14,1.14,0,0,0,.82,0,.53.53,0,0,0,.25-.23,1.14,1.14,0,0,0,.12-.35,2.94,2.94,0,0,0,0-.47V12.76a2.83,2.83,0,0,0,0-.46,1.1,1.1,0,0,0-.12-.34.51.51,0,0,0-.25-.23,1.22,1.22,0,0,0-.82,0,.51.51,0,0,0-.25.23,1.1,1.1,0,0,0-.12.34,2.84,2.84,0,0,0,0,.46v2.66a3,3,0,0,0,0,.47,1.14,1.14,0,0,0,.12.35A.53.53,0,0,0,12.67,16.46Z"/><path class="cls-1" d="M15.58,17.14V11.07h.57l1.72,4v-4h.71v6.06H18L16.29,13v4.14Z"/><path class="cls-1" d="M20.15,17.14V11.7H19v-.63h3v.63H21v5.44Z"/><path class="cls-1" d="M4.72,26.13V20.06H6.11a1.75,1.75,0,0,1,1.23.37,1.5,1.5,0,0,1,.4,1.15q0,1.16-.87,1.28a1.24,1.24,0,0,1,.78.51,1.84,1.84,0,0,1,.25,1,1.93,1.93,0,0,1-.38,1.28,1.45,1.45,0,0,1-1.17.46Zm.84-3.53h.5a.93.93,0,0,0,.73-.23,1.18,1.18,0,0,0,.2-.78,1.72,1.72,0,0,0,0-.31A1.14,1.14,0,0,0,6.9,21a.39.39,0,0,0-.12-.16l-.17-.1a.85.85,0,0,0-.23-.06l-.28,0H5.57Zm0,2.93h.57a.91.91,0,0,0,.75-.26,1.43,1.43,0,0,0,.2-.87,1.34,1.34,0,0,0-.24-.87,1,1,0,0,0-.78-.29h-.5Z"/><path class="cls-1" d="M8.31,26.13l1.29-6.06h.82l1.29,6.06h-.8l-.28-1.53H9.4l-.29,1.53ZM9.51,24h1L10,21.25Z"/><path class="cls-1" d="M12.33,26.13V20.06h1.22a2,2,0,0,1,1.35.38,1.56,1.56,0,0,1,.43,1.23q0,1.17-.75,1.42l.87,3h-.82l-.8-2.85h-.66v2.85Zm.84-3.45h.32a1.15,1.15,0,0,0,.79-.22,1.05,1.05,0,0,0,.24-.79,1.16,1.16,0,0,0-.2-.78,1,1,0,0,0-.77-.22h-.37Z"/><path class="cls-1" d="M6,35.18a1.25,1.25,0,0,1-1-.38,1.39,1.39,0,0,1-.35-1,1.91,1.91,0,0,1,.24-1,3.23,3.23,0,0,1,.65-.8l-.17-.32-.18-.35-.15-.33a2,2,0,0,1-.12-.37,1.77,1.77,0,0,1,0-.37,1.35,1.35,0,0,1,.35-1A1.24,1.24,0,0,1,6.2,29a1.39,1.39,0,0,1,.92.31,1,1,0,0,1,.36.82,1.7,1.7,0,0,1-.1.57,2.28,2.28,0,0,1-.29.55c-.12.17-.24.33-.36.46s-.24.26-.39.4l.92,1.44a3.8,3.8,0,0,0,.3-1.21h.8a2.63,2.63,0,0,1-.18.9,3.48,3.48,0,0,1-.41.81.9.9,0,0,0,.26.22.65.65,0,0,0,.33.09v.82H8.26l-.16,0-.14,0-.14-.07L7.71,35l-.12-.1-.1-.09-.1-.11-.09-.09a1.56,1.56,0,0,1-.55.43A1.71,1.71,0,0,1,6,35.18Zm0-.66a1.05,1.05,0,0,0,.81-.45l-.93-1.43a1.81,1.81,0,0,0-.29.54,2,2,0,0,0-.11.63,1,1,0,0,0,.12.5A.42.42,0,0,0,6,34.52Zm.08-2.85a2.8,2.8,0,0,0,.43-.72,2.11,2.11,0,0,0,.18-.82.45.45,0,0,0-.13-.34.49.49,0,0,0-.35-.13.41.41,0,0,0-.37.2.9.9,0,0,0-.12.48A3.47,3.47,0,0,0,6.07,31.67Z"/><path class="cls-1" d="M4.63,42.31V37.46h1.2a1.13,1.13,0,0,1,.92.34,1.53,1.53,0,0,1,.28,1,1.31,1.31,0,0,1-.31.92,1.16,1.16,0,0,1-.89.33H5.3v2.26Zm.68-2.75h.31a.9.9,0,0,0,.61-.16.83.83,0,0,0,.17-.61c0-.12,0-.22,0-.3a1,1,0,0,0,0-.22A.36.36,0,0,0,6.12,38,.71.71,0,0,0,5.91,38H5.3Z"/><path class="cls-1" d="M7,42.31l1-4.86h.65l1,4.86H9.1l-.22-1.22h-1l-.23,1.22Zm1-1.71h.81l-.41-2.19Z"/><path class="cls-1" d="M10.24,42.31V37.46h1a1.62,1.62,0,0,1,1.08.3,1.25,1.25,0,0,1,.34,1q0,.94-.6,1.13l.69,2.44h-.66L11.44,40h-.52v2.28Zm.68-2.77h.25a.92.92,0,0,0,.63-.17.84.84,0,0,0,.19-.63.93.93,0,0,0-.16-.62.82.82,0,0,0-.61-.18h-.3Z"/><path class="cls-1" d="M13.35,42.31V37.46H14v4.37h1.24v.49Z"/><path class="cls-1" d="M16.93,42.37a1.62,1.62,0,0,1-.62-.11,1,1,0,0,1-.41-.32,1.42,1.42,0,0,1-.22-.49,2.72,2.72,0,0,1-.07-.66V39a1.82,1.82,0,0,1,.31-1.15,1.22,1.22,0,0,1,1-.39,1.22,1.22,0,0,1,1,.39A1.82,1.82,0,0,1,18.25,39v1.84A1.89,1.89,0,0,1,17.94,42,1.2,1.2,0,0,1,16.93,42.37Zm-.33-.59a.92.92,0,0,0,.66,0,.43.43,0,0,0,.2-.19.89.89,0,0,0,.09-.28,2.35,2.35,0,0,0,0-.37V38.81a2.24,2.24,0,0,0,0-.37.85.85,0,0,0-.09-.27.41.41,0,0,0-.2-.18,1,1,0,0,0-.66,0,.4.4,0,0,0-.2.18.83.83,0,0,0-.09.27,2.13,2.13,0,0,0,0,.37v2.13a2.24,2.24,0,0,0,0,.37.86.86,0,0,0,.09.28A.42.42,0,0,0,16.6,41.78Z"/><path class="cls-1" d="M18.92,42.31V37.46h1a1.62,1.62,0,0,1,1.08.3,1.25,1.25,0,0,1,.34,1q0,.94-.6,1.13l.69,2.44h-.66L20.13,40H19.6v2.28Zm.68-2.77h.25a.92.92,0,0,0,.63-.17.84.84,0,0,0,.19-.63.93.93,0,0,0-.16-.62.82.82,0,0,0-.61-.18h-.3Z"/><polygon class="cls-2" points="144.25 6.52 158.86 65.22 110.98 65.22 110.98 6.52 144.25 6.52"/><path class="cls-4" d="M72.64,17.14V11.07h1.5a1.41,1.41,0,0,1,1.15.43,1.91,1.91,0,0,1,.35,1.25,1.63,1.63,0,0,1-.38,1.15,1.44,1.44,0,0,1-1.11.41h-.66v2.82Zm.84-3.43h.38a1.12,1.12,0,0,0,.76-.2,1,1,0,0,0,.21-.76c0-.15,0-.28,0-.38a1.4,1.4,0,0,0,0-.28.53.53,0,0,0-.1-.2.51.51,0,0,0-.17-.12.89.89,0,0,0-.26-.07l-.37,0h-.4Z"/><path class="cls-4" d="M75.62,17.14l1.29-6.06h.82L79,17.14h-.8l-.28-1.53H76.71l-.29,1.53ZM76.82,15h1l-.51-2.74Z"/><path class="cls-4" d="M80,17.14V11.7H78.91v-.62h3v.63H80.86v5.44Z"/><path class="cls-4" d="M82.44,17.14V11.07h.83v6.06Z"/><path class="cls-4" d="M85.79,17.2a2,2,0,0,1-.78-.13,1.19,1.19,0,0,1-.51-.4,1.76,1.76,0,0,1-.28-.61,3.4,3.4,0,0,1-.09-.82v-2.3a2.27,2.27,0,0,1,.39-1.44,1.89,1.89,0,0,1,2.54,0,2.27,2.27,0,0,1,.39,1.43v2.3a2.36,2.36,0,0,1-.39,1.46A1.49,1.49,0,0,1,85.79,17.2Zm-.41-.74a1.15,1.15,0,0,0,.82,0,.54.54,0,0,0,.25-.23,1.14,1.14,0,0,0,.12-.35,3,3,0,0,0,0-.47V12.76a2.82,2.82,0,0,0,0-.46,1.1,1.1,0,0,0-.12-.34.51.51,0,0,0-.25-.22,1.22,1.22,0,0,0-.82,0,.51.51,0,0,0-.25.22,1.1,1.1,0,0,0-.12.34,2.84,2.84,0,0,0,0,.46v2.66a3,3,0,0,0,0,.47,1.14,1.14,0,0,0,.12.35A.54.54,0,0,0,85.38,16.46Z"/><rect class="cls-1" x="113.87" y="64.74" width="11.4" height="1.04"/><rect class="cls-1" x="87.9" y="28.9" width="45.83" height="1.69" transform="translate(140.55 -81.07) rotate(90)"/><path class="cls-4" d="M117,17.2a2,2,0,0,1-.78-.13,1.19,1.19,0,0,1-.51-.4,1.76,1.76,0,0,1-.28-.61,3.4,3.4,0,0,1-.09-.82v-2.3a2.27,2.27,0,0,1,.39-1.44,1.89,1.89,0,0,1,2.54,0,2.27,2.27,0,0,1,.39,1.43v2.3a2.36,2.36,0,0,1-.39,1.46A1.49,1.49,0,0,1,117,17.2Zm-.41-.74a1.15,1.15,0,0,0,.82,0,.54.54,0,0,0,.25-.23,1.14,1.14,0,0,0,.12-.35,3,3,0,0,0,0-.47V12.76a2.82,2.82,0,0,0,0-.46,1.1,1.1,0,0,0-.12-.34.51.51,0,0,0-.25-.22,1.22,1.22,0,0,0-.82,0,.51.51,0,0,0-.25.22,1.1,1.1,0,0,0-.12.34,2.84,2.84,0,0,0,0,.46v2.66a3,3,0,0,0,0,.47,1.14,1.14,0,0,0,.12.35A.54.54,0,0,0,116.56,16.46Z"/><path class="cls-4" d="M121.7,17.1a2,2,0,0,1-.67.1,2,2,0,0,1-.67-.1,1.16,1.16,0,0,1-.75-.72,2.38,2.38,0,0,1-.15-.58,5.42,5.42,0,0,1,0-.71v-4h.8v4.06c0,.17,0,.32,0,.45a2.1,2.1,0,0,0,.07.38.92.92,0,0,0,.14.31.63.63,0,0,0,.24.19.79.79,0,0,0,.36.08.77.77,0,0,0,.36-.08.63.63,0,0,0,.23-.19.94.94,0,0,0,.14-.31,2,2,0,0,0,.07-.38c0-.13,0-.28,0-.45V11.07h.8v4a5.59,5.59,0,0,1,0,.71,2.43,2.43,0,0,1-.15.58,1.26,1.26,0,0,1-.29.45A1.24,1.24,0,0,1,121.7,17.1Z"/><path class="cls-4" d="M124.16,17.14V11.7h-1.11v-.62h3v.63H125v5.44Z"/><path class="cls-4" d="M128,17.2a1.44,1.44,0,0,1-1.17-.47,2.13,2.13,0,0,1-.45-1.29l.75-.21q.08,1.3.86,1.3a.64.64,0,0,0,.5-.18.75.75,0,0,0,.17-.53,1.3,1.3,0,0,0,0-.35,1,1,0,0,0-.15-.31,2.19,2.19,0,0,0-.2-.24l-.27-.26-1-.9a1.62,1.62,0,0,1-.59-1.34,1.36,1.36,0,0,1,.38-1,1.47,1.47,0,0,1,1-.37,1.39,1.39,0,0,1,1.09.38,2,2,0,0,1,.44,1.19l-.71.2c0-.13,0-.25,0-.35a1.67,1.67,0,0,0-.08-.31.84.84,0,0,0-.14-.25.59.59,0,0,0-.22-.15.73.73,0,0,0-.32,0q-.67,0-.67.67a1,1,0,0,0,.09.45,1.39,1.39,0,0,0,.31.38l1,.9a3.16,3.16,0,0,1,.63.77,1.83,1.83,0,0,1,.24.93,1.4,1.4,0,0,1-.4,1.05A1.45,1.45,0,0,1,128,17.2Z"/><path class="cls-4" d="M130.12,17.14V11.07H131v6.06Z"/><path class="cls-4" d="M131.94,17.14V11.07h1.32a1.81,1.81,0,0,1,1.39.45,2,2,0,0,1,.4,1.4v2.23a2.33,2.33,0,0,1-.4,1.49,1.62,1.62,0,0,1-1.33.49Zm.84-.61h.48a1.38,1.38,0,0,0,.34,0,1.17,1.17,0,0,0,.25-.09.43.43,0,0,0,.17-.17,1.27,1.27,0,0,0,.1-.22,1.32,1.32,0,0,0,.05-.29c0-.13,0-.24,0-.33s0-.22,0-.4V13c0-.15,0-.27,0-.37s0-.2,0-.3a.79.79,0,0,0-.18-.43.48.48,0,0,0-.17-.13,1.1,1.1,0,0,0-.24-.07l-.33,0h-.46Z"/><path class="cls-4" d="M135.88,17.14V11.07h2.35v.63h-1.5v2H138v.6h-1.22v2.22h1.52v.61Z"/><path class="cls-4" d="M116.87,26.2a1.35,1.35,0,0,1-1.19-.52,2.69,2.69,0,0,1-.37-1.54v-2a5,5,0,0,1,0-.73,2.35,2.35,0,0,1,.16-.58,1.21,1.21,0,0,1,.29-.44,1.27,1.27,0,0,1,.46-.26,2.13,2.13,0,0,1,.66-.09,1.52,1.52,0,0,1,1.21.43,2,2,0,0,1,.37,1.35V22h-.79v-.19c0-.17,0-.31,0-.42a1.51,1.51,0,0,0-.06-.32.53.53,0,0,0-.13-.23.59.59,0,0,0-.23-.13,1.06,1.06,0,0,0-.34,0,1,1,0,0,0-.28,0,.72.72,0,0,0-.2.09.46.46,0,0,0-.14.16,1.2,1.2,0,0,0-.09.2,1.28,1.28,0,0,0-.05.25c0,.1,0,.19,0,.28s0,.19,0,.31v2.25a2.19,2.19,0,0,0,.17,1,.82.82,0,0,0,1.29,0,2.36,2.36,0,0,0,.18-1.06v-.42H117v-.6h1.54v3H118l-.08-.7A1.06,1.06,0,0,1,116.87,26.2Z"/><path class="cls-4" d="M119.1,26.13l1.29-6.06h.82l1.29,6.06h-.8l-.28-1.53h-1.23l-.29,1.53ZM120.3,24h1l-.51-2.74Z"/><path class="cls-4" d="M123.12,26.13V20.06h1.22a2,2,0,0,1,1.35.38,1.56,1.56,0,0,1,.43,1.23q0,1.17-.75,1.42l.87,3h-.82l-.8-2.85H124v2.85Zm.84-3.45h.32a1.15,1.15,0,0,0,.79-.22,1,1,0,0,0,.24-.79,1.16,1.16,0,0,0-.2-.78,1,1,0,0,0-.77-.22H124Z"/><path class="cls-4" d="M127,26.13V20.06h1.32a1.81,1.81,0,0,1,1.39.45,2,2,0,0,1,.4,1.4v2.23a2.33,2.33,0,0,1-.4,1.49,1.62,1.62,0,0,1-1.33.49Zm.84-.61h.48a1.38,1.38,0,0,0,.34,0,1.17,1.17,0,0,0,.25-.09.43.43,0,0,0,.17-.17,1.27,1.27,0,0,0,.1-.22,1.32,1.32,0,0,0,.05-.29c0-.13,0-.24,0-.33s0-.22,0-.4V22c0-.15,0-.27,0-.37s0-.2,0-.3a.79.79,0,0,0-.18-.43.48.48,0,0,0-.17-.13,1.1,1.1,0,0,0-.24-.07l-.33,0h-.46Z"/><path class="cls-4" d="M131,26.13V20.06h2.35v.63h-1.5v2H133v.6H131.8v2.22h1.52v.61Z"/><path class="cls-4" d="M134,26.13V20.06h.57l1.72,4v-4H137v6.06h-.54L134.72,22v4.14Z"/><rect class="cls-1" x="112.73" y="5.31" width="11.4" height="2.01"/></g></g></svg>