<svg xmlns="http://www.w3.org/2000/svg" viewBox="0 0 161.4 91.3"><defs><style>.cls-1,.cls-9{fill:#fff;}.cls-2{fill:none;}.cls-2,.cls-3{stroke:#1f3238;stroke-miterlimit:10;}.cls-3{fill:#da4626;}.cls-4{font-size:3.12px;}.cls-10,.cls-13,.cls-4,.cls-6{fill:#1f3238;}.cls-4,.cls-6{font-family:Lato-Regular, Lato;}.cls-5{letter-spacing:-0.02em;}.cls-6{font-size:3.12px;letter-spacing:-0.01em;}.cls-7{letter-spacing:0em;}.cls-8{letter-spacing:-0.02em;}.cls-10,.cls-9{font-size:7.2px;}.cls-10,.cls-13,.cls-9{font-family:Oswald-Regular, Oswald Regular;}.cls-11{letter-spacing:-0.04em;}.cls-12{letter-spacing:-0.03em;}.cls-13{font-size:7.49px;}.cls-14{font-size:6px;}.cls-15{letter-spacing:-0.04em;}.cls-16{letter-spacing:-0.01em;}</style></defs><title>bbar-events-dining-room@1x</title><g id="Layer_2" data-name="Layer 2"><g id="Layer_1-2" data-name="Layer 1"><rect class="cls-1" width="161.4" height="91.3"/><rect class="cls-2" x="60.95" y="50.73" width="45.66" height="39.03"/><rect class="cls-2" x="2.2" y="6.11" width="20.8" height="44.62"/><rect class="cls-3" x="23" y="6.11" width="42.89" height="44.62"/><rect class="cls-2" x="65.89" y="6.11" width="40.72" height="44.62"/><polygon class="cls-2" points="152.61 62.49 106.61 62.49 106.61 89.75 159.39 89.75 152.61 62.49"/><text class="cls-4" transform="translate(125.31 3.58)">E 4th <tspan class="cls-5" x="8.08" y="0">S</tspan><tspan x="9.71" y="0">t</tspan></text><text class="cls-6" transform="matrix(0.25, 0.97, -0.97, 0.25, 141.2, 8.21)">Bow<tspan class="cls-7" x="6.18" y="0">er</tspan><tspan class="cls-8" x="8.96" y="0">y</tspan></text><rect class="cls-1" x="10.06" y="5.78" width="10.95" height="0.63"/><rect class="cls-1" x="48.12" y="50.28" width="10.95" height="0.9"/><rect class="cls-1" x="67.91" y="50.28" width="10.95" height="0.91"/><rect class="cls-1" x="17.57" y="11.53" width="10.95" height="0.7" transform="translate(34.93 -11.17) rotate(90)"/><rect class="cls-1" x="17.56" y="44.59" width="10.98" height="0.69" transform="translate(67.98 21.89) rotate(90)"/><rect class="cls-1" x="60.42" y="11.5" width="10.95" height="0.79" transform="translate(77.79 -54.01) rotate(90)"/><rect class="cls-1" x="60.43" y="44.56" width="10.95" height="0.76" transform="translate(110.85 -20.97) rotate(90)"/><rect class="cls-1" x="55.48" y="57.6" width="10.95" height="0.76" transform="translate(118.94 -2.97) rotate(90)"/><rect class="cls-1" x="101.14" y="79.93" width="10.95" height="0.76" transform="translate(186.92 -26.3) rotate(90)"/><rect class="cls-1" x="152.11" y="80.11" width="10.95" height="1.93" transform="translate(197.44 -91.6) rotate(75.77)"/><text class="cls-9" transform="translate(26.11 16.31)">DINING<tspan x="0" y="8.63">ROOM</tspan></text><text class="cls-10" transform="translate(65.89 62.49)">CLUB<tspan x="0" y="8.63">ROOM</tspan></text><text class="cls-10" transform="translate(110.43 72.75)">GARDEN<tspan x="0" y="8.63">BAR</tspan></text><polygon class="cls-2" points="138.57 6.11 152.61 62.49 106.61 62.49 106.61 6.11 138.57 6.11"/><text class="cls-10" transform="translate(69.32 16.31)"><tspan class="cls-11">P</tspan><tspan class="cls-12" x="3.19" y="0">A</tspan><tspan x="6.49" y="0">TIO</tspan></text><rect class="cls-1" x="109.39" y="62.04" width="10.95" height="1"/><rect class="cls-1" x="84.44" y="27.6" width="44.02" height="1.62" transform="translate(134.87 -78.04) rotate(90)"/><text class="cls-10" transform="translate(110.43 16.31)">OUTSIDE<tspan x="0" y="8.63">GARDEN</tspan></text><rect class="cls-1" x="108.3" y="4.95" width="10.95" height="1.93"/><text class="cls-13" transform="translate(3.66 16.31)">FRONT<tspan x="0" y="8.99">BAR</tspan><tspan x="0" y="17.98">&amp;</tspan><tspan class="cls-14"><tspan class="cls-15" x="0" y="25.18">P</tspan><tspan x="2.66" y="25.18">AR</tspan><tspan class="cls-16" x="8.72" y="25.18">L</tspan><tspan x="11.06" y="25.18">OR</tspan></tspan></text></g></g></svg>