<svg xmlns="http://www.w3.org/2000/svg" viewBox="0 0 162.83 93.34"><defs><style>.cls-1,.cls-11{fill:#fff;}.cls-2{fill:#da4626;}.cls-2,.cls-3{stroke:#1f3238;stroke-miterlimit:10;}.cls-3{fill:none;}.cls-4{font-size:3.12px;}.cls-10,.cls-14,.cls-4,.cls-7{fill:#1f3238;}.cls-4,.cls-7{font-family:Lato-Regular, Lato;}.cls-5{letter-spacing:-0.02em;}.cls-6{letter-spacing:0em;}.cls-7{font-size:3.12px;}.cls-8{letter-spacing:-0.01em;}.cls-9{letter-spacing:-0.02em;}.cls-10,.cls-11{font-size:7.18px;}.cls-10,.cls-11,.cls-14{font-family:Oswald-Regular, Oswald Regular;}.cls-12{letter-spacing:-0.04em;}.cls-13{letter-spacing:-0.03em;}.cls-14{font-size:7.49px;}.cls-15{font-size:6px;}.cls-16{letter-spacing:-0.04em;}.cls-17{letter-spacing:-0.01em;}</style></defs><title>bbar-events-club-room@1x</title><g id="Layer_2" data-name="Layer 2"><g id="Layer_1-2" data-name="Layer 1"><rect class="cls-1" width="162.83" height="93.34"/><rect class="cls-2" x="61.41" y="50.63" width="45.53" height="38.92"/><rect class="cls-3" x="2.82" y="6.13" width="20.74" height="44.5"/><rect class="cls-3" x="23.56" y="6.13" width="42.77" height="44.5"/><rect class="cls-3" x="66.34" y="6.13" width="40.61" height="44.5"/><polygon class="cls-3" points="152.81 62.36 106.94 62.36 106.94 89.55 159.58 89.55 152.81 62.36"/><text class="cls-4" transform="translate(125.59 3.61)">E 4th <tspan class="cls-5" x="8.06" y="0">S</tspan><tspan class="cls-6" x="9.68" y="0">t</tspan></text><text class="cls-7" transform="matrix(0.25, 0.97, -0.97, 0.25, 141.45, 8.23)"><tspan class="cls-8">Bow</tspan><tspan x="6.16" y="0">er</tspan><tspan class="cls-9" x="8.94" y="0">y</tspan></text><rect class="cls-1" x="10.66" y="5.8" width="10.92" height="0.62"/><rect class="cls-1" x="48.61" y="50.18" width="10.92" height="0.9"/><rect class="cls-1" x="68.35" y="50.18" width="10.92" height="0.9"/><rect class="cls-1" x="18.15" y="11.54" width="10.92" height="0.7" transform="translate(35.5 -11.72) rotate(90)"/><rect class="cls-1" x="18.13" y="44.51" width="10.95" height="0.69" transform="translate(68.46 21.24) rotate(90)"/><rect class="cls-1" x="60.88" y="11.51" width="10.92" height="0.79" transform="translate(78.24 -54.44) rotate(90)"/><rect class="cls-1" x="60.89" y="44.47" width="10.92" height="0.76" transform="translate(111.21 -21.5) rotate(90)"/><rect class="cls-1" x="55.95" y="57.48" width="10.92" height="0.76" transform="translate(119.27 -3.55) rotate(90)"/><rect class="cls-1" x="101.48" y="79.75" width="10.92" height="0.76" transform="translate(187.07 -26.81) rotate(90)"/><rect class="cls-1" x="152.31" y="79.93" width="10.92" height="1.93" transform="translate(197.41 -91.92) rotate(75.77)"/><text class="cls-10" transform="translate(26.67 16.3)">DINING<tspan x="0" y="8.61">ROOM</tspan></text><text class="cls-11" transform="translate(66.34 62.36)">CLUB<tspan x="0" y="8.61">ROOM</tspan></text><text class="cls-10" transform="translate(110.75 72.58)">GARDEN<tspan x="0" y="8.61">BAR</tspan></text><polygon class="cls-3" points="138.82 6.13 152.81 62.36 106.94 62.36 106.94 6.13 138.82 6.13"/><text class="cls-10" transform="translate(69.76 16.3)"><tspan class="cls-12">P</tspan><tspan class="cls-13" x="3.18" y="0">A</tspan><tspan x="6.48" y="0">TIO</tspan></text><rect class="cls-1" x="109.71" y="61.91" width="10.92" height="1"/><rect class="cls-1" x="84.83" y="27.57" width="43.9" height="1.62" transform="translate(135.16 -78.41) rotate(90)"/><text class="cls-10" transform="translate(110.75 16.3)">OUTSIDE<tspan x="0" y="8.61">GARDEN</tspan></text><rect class="cls-1" x="108.62" y="4.97" width="10.92" height="1.93"/><text class="cls-14" transform="translate(4.21 16.29)">FRONT<tspan x="0" y="8.99">BAR</tspan><tspan x="0" y="17.98">&amp;</tspan><tspan class="cls-15"><tspan class="cls-16" x="0" y="25.18">P</tspan><tspan x="2.66" y="25.18">AR</tspan><tspan class="cls-17" x="8.72" y="25.18">L</tspan><tspan x="11.06" y="25.18">OR</tspan></tspan></text></g></g></svg>