<svg xmlns="http://www.w3.org/2000/svg" viewBox="0 0 157.69 89.59"><defs><style>.cls-1{fill:#fff;}.cls-2{fill:none;}.cls-2,.cls-3{stroke:#1f3238;stroke-miterlimit:10;}.cls-3{fill:#da4626;}.cls-4{fill:#1f3238;}</style></defs><title>bbar-events-garden-bar</title><g id="Layer_2" data-name="Layer 2"><g id="Layer_1-2" data-name="Layer 1"><rect class="cls-1" width="157.69" height="89.59"/><rect class="cls-2" x="58.83" y="49.43" width="44.48" height="38.02"/><rect class="cls-2" x="1.59" y="5.96" width="20.26" height="43.47"/><rect class="cls-2" x="21.85" y="5.96" width="41.79" height="43.47"/><rect class="cls-2" x="63.64" y="5.96" width="39.67" height="43.47"/><polygon class="cls-3" points="148.12 60.89 103.31 60.89 103.31 87.45 154.73 87.45 148.12 60.89"/><path class="cls-4" d="M123.14,3.26V3.5H121.8V1.32h1.34v.24h-1v.72h.85v.23h-.85v.75Z"/><path class="cls-4" d="M125.74,2.71v.16a.06.06,0,0,1,0,0l0,0h-.27V3.5h-.24V2.92h-1l-.05,0a.07.07,0,0,1,0,0l0-.14,1.06-1.41h.25V2.71Zm-.57,0v-.9s0-.06,0-.09,0-.06,0-.1l-.79,1.08Z"/><path class="cls-4" d="M126.51,3.52a.37.37,0,0,1-.28-.1.41.41,0,0,1-.1-.29V2.18h-.23a.06.06,0,0,1,0,0V2l.25,0,.06-.48,0,0h.18V2h.45v.2h-.45v.93a.2.2,0,0,0,0,.14.17.17,0,0,0,.12,0h.07l.05,0,0,0h0a0,0,0,0,1,0,0l.08.13a.51.51,0,0,1-.17.1A.58.58,0,0,1,126.51,3.52Z"/><path class="cls-4" d="M127.4,2.16a.83.83,0,0,1,.22-.17.59.59,0,0,1,.28-.06.55.55,0,0,1,.22,0,.43.43,0,0,1,.16.12.54.54,0,0,1,.1.19.8.8,0,0,1,0,.24v1h-.27v-1a.41.41,0,0,0-.08-.27.3.3,0,0,0-.24-.1.45.45,0,0,0-.22.06.74.74,0,0,0-.19.16V3.5h-.27V1.26h.27Z"/><path class="cls-4" d="M130.79,1.66l0,0h0l-.06,0-.09-.06-.13-.06a.53.53,0,0,0-.18,0,.5.5,0,0,0-.17,0,.37.37,0,0,0-.13.07.28.28,0,0,0-.08.11.33.33,0,0,0,0,.13.24.24,0,0,0,0,.15.38.38,0,0,0,.12.1l.17.07.19.06.19.08a.69.69,0,0,1,.17.11.49.49,0,0,1,.12.16.53.53,0,0,1,0,.23.74.74,0,0,1,0,.27.62.62,0,0,1-.14.22.66.66,0,0,1-.23.15.85.85,0,0,1-.31.05,1,1,0,0,1-.39-.08.89.89,0,0,1-.3-.21l.08-.14,0,0h0l0,0,.06,0,.07.05.09.05.12,0,.15,0a.56.56,0,0,0,.19,0,.4.4,0,0,0,.14-.08A.36.36,0,0,0,130.6,3a.41.41,0,0,0,0-.16.27.27,0,0,0,0-.16.37.37,0,0,0-.12-.11l-.17-.07-.19-.06-.19-.07a.64.64,0,0,1-.17-.11.5.5,0,0,1-.12-.16.58.58,0,0,1,0-.24.58.58,0,0,1,.18-.42.64.64,0,0,1,.21-.13.77.77,0,0,1,.29-.05.9.9,0,0,1,.33.06.77.77,0,0,1,.26.17Z"/><path class="cls-4" d="M131.66,3.52a.37.37,0,0,1-.28-.1.41.41,0,0,1-.1-.29V2.18h-.23a.06.06,0,0,1,0,0V2l.25,0,.06-.48,0,0h.18V2H132v.2h-.45v.93a.2.2,0,0,0,0,.14.17.17,0,0,0,.12,0h.07l.05,0,0,0h0a0,0,0,0,1,0,0l.08.13a.51.51,0,0,1-.17.1A.58.58,0,0,1,131.66,3.52Z"/><path class="cls-4" d="M139.37,8.41a1.29,1.29,0,0,1,0,.35.69.69,0,0,1,0,.26.44.44,0,0,1-.14.18.61.61,0,0,1-.22.1h-.16l-.15,0a.51.51,0,0,1-.14-.09.72.72,0,0,1-.13-.15.65.65,0,0,1-.08.39.45.45,0,0,1-.29.2.62.62,0,0,1-.26,0,.55.55,0,0,1-.23-.1.69.69,0,0,1-.18-.2,1.07,1.07,0,0,1-.12-.3l-.19-.75,2.11-.55ZM137.5,9a.73.73,0,0,0,.08.2.42.42,0,0,0,.12.13.32.32,0,0,0,.14.05H138a.33.33,0,0,0,.23-.18.56.56,0,0,0,0-.37l-.12-.46-.73.19ZM139,8.08l-.72.19.1.38a.72.72,0,0,0,.08.2.41.41,0,0,0,.11.13.29.29,0,0,0,.14.06.4.4,0,0,0,.15,0,.33.33,0,0,0,.24-.18.59.59,0,0,0,0-.37Z"/><path class="cls-4" d="M139.23,10.34a.79.79,0,0,1,0,.31.65.65,0,0,1-.1.26.7.7,0,0,1-.21.2,1.07,1.07,0,0,1-.64.16.7.7,0,0,1-.28-.08.64.64,0,0,1-.21-.18.87.87,0,0,1-.15-.59.64.64,0,0,1,.1-.26A.71.71,0,0,1,138,10a1.08,1.08,0,0,1,.64-.16.7.7,0,0,1,.28.08.66.66,0,0,1,.21.18A.81.81,0,0,1,139.23,10.34Zm-1.33.34a.39.39,0,0,0,.23.29.86.86,0,0,0,.83-.21.39.39,0,0,0,.06-.37.47.47,0,0,0-.09-.18.36.36,0,0,0-.15-.11.51.51,0,0,0-.2,0,1,1,0,0,0-.25,0,.7.7,0,0,0-.38.22A.4.4,0,0,0,137.9,10.68Z"/><path class="cls-4" d="M140,13.43l-1.62-.1-.05-.21s0,0,0-.07l.93-.59.06,0,.06,0h-.15l-1.1-.07a.06.06,0,0,1-.07,0l-.05-.2,1.37-.87.05.21a.08.08,0,0,1,0,.06l0,0-.89.53-.19.09h.21l1,.06,0,0,0,0,0,.11a.08.08,0,0,1,0,.05l0,0-.89.56-.09.05-.09.05h.21l1,0,0,0a.08.08,0,0,1,0,0Z"/><path class="cls-4" d="M139.09,15.2a.48.48,0,0,1-.13-.09.72.72,0,0,1-.11-.13,1,1,0,0,1-.08-.15,1.05,1.05,0,0,1-.06-.16.76.76,0,0,1,0-.3.65.65,0,0,1,.09-.27.73.73,0,0,1,.21-.21,1.08,1.08,0,0,1,.33-.14.91.91,0,0,1,.3,0,.71.71,0,0,1,.27.08.67.67,0,0,1,.21.18.75.75,0,0,1,.13.28.68.68,0,0,1,0,.26.56.56,0,0,1-.08.23.59.59,0,0,1-.18.18.82.82,0,0,1-.27.12h-.09a.06.06,0,0,1,0,0l-.26-1a.92.92,0,0,0-.24.1.5.5,0,0,0-.15.14.4.4,0,0,0-.07.17.52.52,0,0,0,0,.2.6.6,0,0,0,.07.17l.08.11.07.07a.12.12,0,0,1,0,.05.06.06,0,0,1,0,.06Zm.64-.39a.51.51,0,0,0,.16-.07.39.39,0,0,0,.11-.11.35.35,0,0,0,.05-.14.4.4,0,0,0,0-.17.42.42,0,0,0-.19-.27.53.53,0,0,0-.34-.06Z"/><path class="cls-4" d="M140.23,15.54a.7.7,0,0,1,.29.11.39.39,0,0,1,.15.23.44.44,0,0,1,0,.09.26.26,0,0,1,0,.08l-.2,0a0,0,0,0,1,0,0,.29.29,0,0,1,0-.06.41.41,0,0,0,0-.09.35.35,0,0,0-.05-.12.29.29,0,0,0-.09-.08l-.12-.05-.15,0-.94.24L139,15.6l1.49-.39,0,.15a.09.09,0,0,1,0,.06l-.05,0Z"/><path class="cls-4" d="M141.08,17.58l-2.15-.33-.06,0a.09.09,0,0,1,0-.06l-.05-.2.66.12,1.25-1,.06.23a.08.08,0,0,1,0,.06l0,0-.84.64-.12.07h.14l1,.15,0,0a.08.08,0,0,1,0,0Z"/><rect class="cls-1" x="9.25" y="5.64" width="10.67" height="0.61"/><rect class="cls-1" x="46.33" y="48.99" width="10.67" height="0.88"/><rect class="cls-1" x="65.6" y="48.99" width="10.67" height="0.88"/><rect class="cls-1" x="16.57" y="11.24" width="10.67" height="0.68" transform="translate(33.48 -10.32) rotate(90)"/><rect class="cls-1" x="16.55" y="43.45" width="10.69" height="0.68" transform="translate(65.68 21.89) rotate(90)"/><rect class="cls-1" x="58.31" y="11.21" width="10.67" height="0.77" transform="translate(75.24 -52.05) rotate(90)"/><rect class="cls-1" x="58.32" y="43.41" width="10.67" height="0.75" transform="translate(107.44 -19.87) rotate(90)"/><rect class="cls-1" x="53.5" y="56.12" width="10.67" height="0.75" transform="translate(115.32 -2.34) rotate(90)"/><rect class="cls-1" x="97.97" y="77.87" width="10.67" height="0.75" transform="translate(181.56 -25.06) rotate(90)"/><rect class="cls-1" x="147.63" y="78.05" width="10.67" height="1.88" transform="translate(191.94 -88.7) rotate(75.77)"/><path class="cls-4" d="M25.33,15.89V10.22h1.23a1.69,1.69,0,0,1,1.3.42,1.92,1.92,0,0,1,.38,1.31V14a2.18,2.18,0,0,1-.37,1.39,1.51,1.51,0,0,1-1.24.46Zm.79-.57h.45a1.26,1.26,0,0,0,.32,0,1,1,0,0,0,.23-.09.4.4,0,0,0,.16-.16,1.19,1.19,0,0,0,.1-.2,1.25,1.25,0,0,0,0-.27c0-.12,0-.22,0-.31s0-.21,0-.37V12c0-.14,0-.25,0-.35a2.74,2.74,0,0,0,0-.28.85.85,0,0,0-.06-.23.84.84,0,0,0-.11-.17.43.43,0,0,0-.16-.12,1,1,0,0,0-.23-.07l-.3,0h-.43Z"/><path class="cls-4" d="M29.06,15.89V10.22h.78v5.68Z"/><path class="cls-4" d="M30.76,15.89V10.22h.54L32.91,14V10.22h.66v5.68h-.51L31.43,12v3.88Z"/><path class="cls-4" d="M34.5,15.89V10.22h.78v5.68Z"/><path class="cls-4" d="M36.19,15.89V10.22h.54L38.34,14V10.22H39v5.68H38.5L36.86,12v3.88Z"/><path class="cls-4" d="M41.25,16a1.27,1.27,0,0,1-1.12-.49A2.51,2.51,0,0,1,39.79,14v-1.9a4.84,4.84,0,0,1,0-.68A2.21,2.21,0,0,1,40,10.9a1.14,1.14,0,0,1,.28-.41,1.18,1.18,0,0,1,.43-.24,2,2,0,0,1,.62-.09,1.42,1.42,0,0,1,1.13.4,1.9,1.9,0,0,1,.35,1.26V12H42v-.18c0-.16,0-.29,0-.4a1.51,1.51,0,0,0-.06-.3.49.49,0,0,0-.12-.22.57.57,0,0,0-.21-.12,1,1,0,0,0-.32,0,1,1,0,0,0-.26,0,.71.71,0,0,0-.19.09.42.42,0,0,0-.13.15,1.1,1.1,0,0,0-.08.18,1.2,1.2,0,0,0,0,.23c0,.09,0,.18,0,.26s0,.17,0,.29v2.1a2,2,0,0,0,.16.94.77.77,0,0,0,1.21,0,2.22,2.22,0,0,0,.16-1v-.4h-.72v-.56h1.44v2.81h-.5l-.08-.65A1,1,0,0,1,41.25,16Z"/><path class="cls-4" d="M25.33,24.3V18.63h1.14a1.89,1.89,0,0,1,1.26.35,1.46,1.46,0,0,1,.4,1.15q0,1.1-.7,1.33l.81,2.85h-.77l-.75-2.66h-.61V24.3Zm.79-3.23h.3a1.08,1.08,0,0,0,.74-.2,1,1,0,0,0,.22-.74,1.08,1.08,0,0,0-.19-.73,1,1,0,0,0-.72-.21h-.35Z"/><path class="cls-4" d="M30.41,24.37a1.87,1.87,0,0,1-.73-.13,1.1,1.1,0,0,1-.48-.37,1.64,1.64,0,0,1-.26-.58,3.19,3.19,0,0,1-.08-.77V20.38A2.13,2.13,0,0,1,29.22,19a1.77,1.77,0,0,1,2.38,0A2.12,2.12,0,0,1,32,20.38v2.15a2.2,2.2,0,0,1-.37,1.36A1.4,1.4,0,0,1,30.41,24.37ZM30,23.68a1.08,1.08,0,0,0,.77,0,.5.5,0,0,0,.23-.22,1.05,1.05,0,0,0,.11-.32,2.72,2.72,0,0,0,0-.44V20.21a2.59,2.59,0,0,0,0-.43,1,1,0,0,0-.11-.32.48.48,0,0,0-.23-.21,1.15,1.15,0,0,0-.77,0,.48.48,0,0,0-.23.21,1,1,0,0,0-.11.32,2.71,2.71,0,0,0,0,.43V22.7a2.85,2.85,0,0,0,0,.44,1,1,0,0,0,.11.32A.49.49,0,0,0,30,23.68Z"/><path class="cls-4" d="M34.19,24.37a1.87,1.87,0,0,1-.73-.13,1.1,1.1,0,0,1-.48-.37,1.64,1.64,0,0,1-.26-.58,3.19,3.19,0,0,1-.08-.77V20.38A2.13,2.13,0,0,1,33,19a1.77,1.77,0,0,1,2.38,0,2.12,2.12,0,0,1,.36,1.34v2.15a2.2,2.2,0,0,1-.37,1.36A1.4,1.4,0,0,1,34.19,24.37Zm-.39-.69a1.08,1.08,0,0,0,.77,0,.5.5,0,0,0,.23-.22,1.05,1.05,0,0,0,.11-.32,2.72,2.72,0,0,0,0-.44V20.21a2.59,2.59,0,0,0,0-.43,1,1,0,0,0-.11-.32.48.48,0,0,0-.23-.21,1.15,1.15,0,0,0-.77,0,.48.48,0,0,0-.23.21,1,1,0,0,0-.11.32,2.71,2.71,0,0,0,0,.43V22.7a2.85,2.85,0,0,0,0,.44,1,1,0,0,0,.11.32A.49.49,0,0,0,33.81,23.68Z"/><path class="cls-4" d="M36.51,24.3l.11-5.68h.77l1,4.6,1-4.6h.77l.11,5.68h-.64l-.06-4.12-1,4.13h-.44l-1-4.12-.06,4.13Z"/><path class="cls-4" d="M65.5,61a1.85,1.85,0,0,1-.62-.1,1.21,1.21,0,0,1-.44-.26,1.27,1.27,0,0,1-.28-.41,2,2,0,0,1-.15-.51,4.06,4.06,0,0,1,0-.61v-2a4.31,4.31,0,0,1,0-.64,2.11,2.11,0,0,1,.15-.52,1.17,1.17,0,0,1,.28-.4,1.2,1.2,0,0,1,.44-.25,2,2,0,0,1,.62-.09,1.33,1.33,0,0,1,1.1.41,1.91,1.91,0,0,1,.33,1.22v.45h-.75v-.4c0-.09,0-.16,0-.2v-.18a1,1,0,0,0,0-.17l0-.14a.38.38,0,0,0-.06-.13l-.09-.1a.34.34,0,0,0-.12-.08l-.15,0-.2,0a1,1,0,0,0-.29,0,.46.46,0,0,0-.2.11.69.69,0,0,0-.13.17.75.75,0,0,0-.07.24,2.69,2.69,0,0,0,0,.28c0,.09,0,.2,0,.33v2.25a1.77,1.77,0,0,0,.16.89.63.63,0,0,0,.57.25.93.93,0,0,0,.27,0,.41.41,0,0,0,.19-.11.65.65,0,0,0,.18-.4,2.6,2.6,0,0,0,0-.27c0-.08,0-.19,0-.32v-.42h.75v.42a3.72,3.72,0,0,1,0,.58,1.93,1.93,0,0,1-.14.48,1.09,1.09,0,0,1-.26.37,1.12,1.12,0,0,1-.41.23A1.82,1.82,0,0,1,65.5,61Z"/><path class="cls-4" d="M67.69,60.89V55.21h.79v5.11h1.45v.57Z"/><path class="cls-4" d="M72.57,60.86a2.14,2.14,0,0,1-1.26,0,1.08,1.08,0,0,1-.71-.67,2.23,2.23,0,0,1-.14-.54,5.1,5.1,0,0,1,0-.67V55.21h.75V59c0,.16,0,.3,0,.42a2.07,2.07,0,0,0,.06.36.87.87,0,0,0,.13.29.61.61,0,0,0,.22.18.75.75,0,0,0,.33.07.74.74,0,0,0,.33-.07.59.59,0,0,0,.22-.18.89.89,0,0,0,.13-.29,1.89,1.89,0,0,0,.06-.36c0-.12,0-.26,0-.42v-3.8h.75V59a5.29,5.29,0,0,1,0,.67,2.33,2.33,0,0,1-.14.54,1.08,1.08,0,0,1-.7.67Z"/><path class="cls-4" d="M74.28,60.89V55.21h1.3a1.64,1.64,0,0,1,1.15.35,1.4,1.4,0,0,1,.37,1.08q0,1.09-.81,1.2a1.17,1.17,0,0,1,.73.47,1.73,1.73,0,0,1,.23,1,1.81,1.81,0,0,1-.36,1.2,1.36,1.36,0,0,1-1.1.43Zm.79-3.31h.47a.87.87,0,0,0,.68-.22,1.11,1.11,0,0,0,.19-.73,1.61,1.61,0,0,0,0-.29,1.18,1.18,0,0,0-.06-.21.36.36,0,0,0-.12-.15l-.16-.1a.78.78,0,0,0-.21-.06l-.26,0h-.5Zm0,2.74h.53a.85.85,0,0,0,.7-.24,1.35,1.35,0,0,0,.19-.81,1.25,1.25,0,0,0-.22-.81.9.9,0,0,0-.73-.27h-.47Z"/><path class="cls-4" d="M64.08,69.3V63.63h1.14a1.89,1.89,0,0,1,1.26.35,1.46,1.46,0,0,1,.4,1.15q0,1.1-.7,1.33L67,69.3h-.77l-.75-2.66h-.61V69.3Zm.79-3.23h.3a1.08,1.08,0,0,0,.74-.2,1,1,0,0,0,.22-.74,1.08,1.08,0,0,0-.19-.73,1,1,0,0,0-.72-.21h-.35Z"/><path class="cls-4" d="M69.17,69.36a1.87,1.87,0,0,1-.73-.13,1.1,1.1,0,0,1-.48-.37,1.64,1.64,0,0,1-.26-.58,3.19,3.19,0,0,1-.08-.77V65.37A2.13,2.13,0,0,1,68,64a1.77,1.77,0,0,1,2.38,0,2.12,2.12,0,0,1,.36,1.34v2.15a2.2,2.2,0,0,1-.37,1.36A1.4,1.4,0,0,1,69.17,69.36Zm-.39-.69a1.08,1.08,0,0,0,.77,0,.5.5,0,0,0,.23-.22,1.05,1.05,0,0,0,.11-.32,2.72,2.72,0,0,0,0-.44V65.21a2.59,2.59,0,0,0,0-.43,1,1,0,0,0-.11-.32.48.48,0,0,0-.23-.21,1.15,1.15,0,0,0-.77,0,.48.48,0,0,0-.23.21,1,1,0,0,0-.11.32,2.71,2.71,0,0,0,0,.43v2.48a2.85,2.85,0,0,0,0,.44,1,1,0,0,0,.11.32A.49.49,0,0,0,68.78,68.67Z"/><path class="cls-4" d="M72.95,69.36a1.87,1.87,0,0,1-.73-.13,1.1,1.1,0,0,1-.48-.37,1.64,1.64,0,0,1-.26-.58,3.19,3.19,0,0,1-.08-.77V65.37A2.13,2.13,0,0,1,71.76,64a1.77,1.77,0,0,1,2.38,0,2.12,2.12,0,0,1,.36,1.34v2.15a2.2,2.2,0,0,1-.37,1.36A1.4,1.4,0,0,1,72.95,69.36Zm-.39-.69a1.08,1.08,0,0,0,.77,0,.5.5,0,0,0,.23-.22,1.05,1.05,0,0,0,.11-.32,2.72,2.72,0,0,0,0-.44V65.21a2.59,2.59,0,0,0,0-.43,1,1,0,0,0-.11-.32.48.48,0,0,0-.23-.21,1.15,1.15,0,0,0-.77,0,.48.48,0,0,0-.23.21,1,1,0,0,0-.11.32,2.71,2.71,0,0,0,0,.43v2.48a2.85,2.85,0,0,0,0,.44,1,1,0,0,0,.11.32A.49.49,0,0,0,72.56,68.67Z"/><path class="cls-4" d="M75.26,69.3l.11-5.68h.77l1,4.6,1-4.6h.77L79,69.3h-.64l-.06-4.12-1,4.13h-.44l-1-4.12-.06,4.13Z"/><path class="cls-1" d="M108.83,70.95a1.26,1.26,0,0,1-1.12-.49,2.51,2.51,0,0,1-.34-1.44v-1.9a4.85,4.85,0,0,1,0-.68,2.19,2.19,0,0,1,.15-.54,1.13,1.13,0,0,1,.28-.41,1.18,1.18,0,0,1,.43-.25,2,2,0,0,1,.62-.09,1.42,1.42,0,0,1,1.13.4,1.9,1.9,0,0,1,.35,1.26V67h-.74v-.18c0-.16,0-.29,0-.4a1.51,1.51,0,0,0-.06-.3.48.48,0,0,0-.12-.22.57.57,0,0,0-.21-.12,1,1,0,0,0-.32,0,1,1,0,0,0-.26,0,.65.65,0,0,0-.19.09.42.42,0,0,0-.13.15,1.14,1.14,0,0,0-.08.19,1.2,1.2,0,0,0,0,.23c0,.09,0,.18,0,.26s0,.17,0,.29v2.1a2,2,0,0,0,.16.94.77.77,0,0,0,1.21,0,2.22,2.22,0,0,0,.16-1v-.4H109v-.56h1.44v2.81h-.5l-.08-.65A1,1,0,0,1,108.83,70.95Z"/><path class="cls-1" d="M110.91,70.88l1.21-5.67h.76l1.21,5.67h-.75l-.26-1.43h-1.15l-.27,1.43Zm1.12-2H113l-.48-2.56Z"/><path class="cls-1" d="M114.67,70.88V65.2h1.14a1.89,1.89,0,0,1,1.26.35,1.46,1.46,0,0,1,.4,1.15q0,1.09-.7,1.32l.81,2.85h-.77l-.75-2.66h-.61v2.66Zm.79-3.23h.3a1.08,1.08,0,0,0,.74-.2,1,1,0,0,0,.22-.74,1.08,1.08,0,0,0-.19-.73,1,1,0,0,0-.72-.21h-.35Z"/><path class="cls-1" d="M118.31,70.88V65.2h1.23a1.69,1.69,0,0,1,1.3.42,1.92,1.92,0,0,1,.38,1.31V69a2.18,2.18,0,0,1-.37,1.4,1.52,1.52,0,0,1-1.24.46Zm.79-.57h.45a1.31,1.31,0,0,0,.32,0,1.07,1.07,0,0,0,.23-.09.4.4,0,0,0,.16-.16,1.23,1.23,0,0,0,.1-.2,1.24,1.24,0,0,0,0-.27c0-.12,0-.22,0-.31s0-.21,0-.37V67c0-.14,0-.25,0-.35a2.7,2.7,0,0,0,0-.28.85.85,0,0,0-.06-.23.82.82,0,0,0-.11-.17.43.43,0,0,0-.16-.12l-.23-.07-.3,0h-.43Z"/><path class="cls-1" d="M122,70.88V65.2h2.2v.58h-1.41v1.88h1.14v.56h-1.14v2.08h1.42v.57Z"/><path class="cls-1" d="M124.86,70.88V65.2h.54L127,69V65.2h.66v5.67h-.51L125.53,67v3.88Z"/><path class="cls-1" d="M107.47,79.29V73.61h1.3a1.64,1.64,0,0,1,1.15.35,1.4,1.4,0,0,1,.37,1.07q0,1.09-.81,1.2a1.16,1.16,0,0,1,.73.47,1.73,1.73,0,0,1,.23,1,1.81,1.81,0,0,1-.36,1.19,1.36,1.36,0,0,1-1.1.43Zm.79-3.31h.47a.87.87,0,0,0,.68-.22,1.12,1.12,0,0,0,.19-.73,1.6,1.6,0,0,0,0-.29,1.13,1.13,0,0,0-.06-.21.37.37,0,0,0-.12-.15l-.16-.1a.82.82,0,0,0-.21-.05l-.26,0h-.5Zm0,2.74h.53a.85.85,0,0,0,.7-.24,1.35,1.35,0,0,0,.19-.81,1.25,1.25,0,0,0-.22-.81.9.9,0,0,0-.73-.27h-.47Z"/><path class="cls-1" d="M110.83,79.29,112,73.61h.76L114,79.29h-.75L113,77.86h-1.15l-.27,1.43Zm1.12-2h.95l-.48-2.56Z"/><path class="cls-1" d="M114.59,79.29V73.61h1.14A1.89,1.89,0,0,1,117,74a1.46,1.46,0,0,1,.4,1.15q0,1.09-.7,1.32l.81,2.85h-.77L116,76.63h-.61v2.66Zm.79-3.23h.3a1.08,1.08,0,0,0,.74-.2,1,1,0,0,0,.22-.74,1.08,1.08,0,0,0-.19-.73,1,1,0,0,0-.72-.21h-.35Z"/><polygon class="cls-2" points="134.45 5.96 148.12 60.89 103.31 60.89 103.31 5.96 134.45 5.96"/><path class="cls-4" d="M67.43,15.89V10.22h1.41a1.31,1.31,0,0,1,1.07.4,1.78,1.78,0,0,1,.33,1.17,1.53,1.53,0,0,1-.36,1.08,1.35,1.35,0,0,1-1,.39h-.62v2.64Zm.79-3.21h.36a1,1,0,0,0,.72-.18,1,1,0,0,0,.2-.71c0-.14,0-.26,0-.35a1.31,1.31,0,0,0,0-.26.51.51,0,0,0-.09-.19.48.48,0,0,0-.16-.12.82.82,0,0,0-.24-.06l-.34,0h-.37Z"/><path class="cls-4" d="M70.22,15.89l1.21-5.68h.76l1.21,5.68h-.75l-.26-1.43H71.24L71,15.89Zm1.12-2h.95l-.48-2.56Z"/><path class="cls-4" d="M74.33,15.89V10.8h-1v-.59h2.83v.59h-1v5.09Z"/><path class="cls-4" d="M76.6,15.89V10.22h.78v5.68Z"/><path class="cls-4" d="M79.74,16a1.87,1.87,0,0,1-.73-.13,1.1,1.1,0,0,1-.48-.37,1.64,1.64,0,0,1-.26-.58,3.19,3.19,0,0,1-.08-.77V12a2.13,2.13,0,0,1,.36-1.34,1.77,1.77,0,0,1,2.38,0A2.12,2.12,0,0,1,81.29,12v2.15a2.2,2.2,0,0,1-.37,1.36A1.4,1.4,0,0,1,79.74,16Zm-.39-.69a1.08,1.08,0,0,0,.77,0,.5.5,0,0,0,.23-.22,1.05,1.05,0,0,0,.11-.32,2.72,2.72,0,0,0,0-.44V11.8a2.59,2.59,0,0,0,0-.43,1,1,0,0,0-.11-.32.48.48,0,0,0-.23-.21,1.15,1.15,0,0,0-.77,0,.48.48,0,0,0-.23.21,1,1,0,0,0-.11.32,2.71,2.71,0,0,0,0,.43v2.48a2.85,2.85,0,0,0,0,.44,1,1,0,0,0,.11.32A.49.49,0,0,0,79.35,15.26Z"/><rect class="cls-1" x="106.02" y="60.44" width="10.67" height="0.98"/><rect class="cls-1" x="81.71" y="26.9" width="42.88" height="1.58" transform="translate(130.84 -75.46) rotate(90)"/><path class="cls-4" d="M108.92,16a1.87,1.87,0,0,1-.73-.13,1.1,1.1,0,0,1-.48-.37,1.64,1.64,0,0,1-.26-.58,3.19,3.19,0,0,1-.08-.77V12a2.13,2.13,0,0,1,.36-1.34,1.77,1.77,0,0,1,2.38,0,2.12,2.12,0,0,1,.36,1.34v2.15a2.2,2.2,0,0,1-.37,1.36A1.4,1.4,0,0,1,108.92,16Zm-.39-.69a1.08,1.08,0,0,0,.77,0,.5.5,0,0,0,.23-.22,1.05,1.05,0,0,0,.11-.32,2.72,2.72,0,0,0,0-.44V11.8a2.59,2.59,0,0,0,0-.43,1,1,0,0,0-.11-.32.48.48,0,0,0-.23-.21,1.15,1.15,0,0,0-.77,0,.48.48,0,0,0-.23.21,1,1,0,0,0-.11.32,2.71,2.71,0,0,0,0,.43v2.48a2.85,2.85,0,0,0,0,.44,1,1,0,0,0,.11.32A.49.49,0,0,0,108.53,15.26Z"/><path class="cls-4" d="M113.34,15.86a2.14,2.14,0,0,1-1.26,0,1.08,1.08,0,0,1-.71-.67,2.23,2.23,0,0,1-.14-.54,5.1,5.1,0,0,1,0-.67V10.22H112V14c0,.16,0,.3,0,.42a2.07,2.07,0,0,0,.06.36.87.87,0,0,0,.13.29.61.61,0,0,0,.22.18.75.75,0,0,0,.33.07.74.74,0,0,0,.33-.07.59.59,0,0,0,.22-.18.89.89,0,0,0,.13-.29,1.89,1.89,0,0,0,.06-.36c0-.12,0-.26,0-.42v-3.8h.75V14a5.29,5.29,0,0,1,0,.67,2.33,2.33,0,0,1-.14.54,1.08,1.08,0,0,1-.7.67Z"/><path class="cls-4" d="M115.64,15.89V10.8h-1v-.59h2.83v.59h-1v5.09Z"/><path class="cls-4" d="M119.2,16a1.35,1.35,0,0,1-1.09-.44,2,2,0,0,1-.42-1.21l.71-.19q.07,1.22.8,1.22a.61.61,0,0,0,.46-.17.7.7,0,0,0,.16-.5,1.23,1.23,0,0,0,0-.33.92.92,0,0,0-.14-.29,2.19,2.19,0,0,0-.18-.23l-.25-.24-1-.85a1.52,1.52,0,0,1-.55-1.26,1.27,1.27,0,0,1,.36-1,1.38,1.38,0,0,1,1-.35,1.3,1.3,0,0,1,1,.35,1.84,1.84,0,0,1,.41,1.12l-.67.18q0-.18,0-.33a1.53,1.53,0,0,0-.08-.29.77.77,0,0,0-.13-.24.55.55,0,0,0-.21-.14.68.68,0,0,0-.3,0q-.63,0-.63.62a.92.92,0,0,0,.09.42,1.29,1.29,0,0,0,.29.35l1,.85a3,3,0,0,1,.59.72,1.71,1.71,0,0,1,.22.87,1.31,1.31,0,0,1-.38,1A1.36,1.36,0,0,1,119.2,16Z"/><path class="cls-4" d="M121.22,15.89V10.22H122v5.68Z"/><path class="cls-4" d="M122.92,15.89V10.22h1.23a1.69,1.69,0,0,1,1.3.42,1.92,1.92,0,0,1,.38,1.31V14a2.18,2.18,0,0,1-.37,1.39,1.51,1.51,0,0,1-1.24.46Zm.79-.57h.45a1.26,1.26,0,0,0,.32,0,1,1,0,0,0,.23-.09.4.4,0,0,0,.16-.16,1.19,1.19,0,0,0,.1-.2,1.25,1.25,0,0,0,0-.27c0-.12,0-.22,0-.31s0-.21,0-.37V12c0-.14,0-.25,0-.35a2.74,2.74,0,0,0,0-.28.85.85,0,0,0-.06-.23.84.84,0,0,0-.11-.17.43.43,0,0,0-.16-.12,1,1,0,0,0-.23-.07l-.3,0h-.43Z"/><path class="cls-4" d="M126.61,15.89V10.22h2.2v.59H127.4v1.88h1.14v.57H127.4v2.08h1.42v.57Z"/><path class="cls-4" d="M108.83,24.37a1.27,1.27,0,0,1-1.12-.49,2.51,2.51,0,0,1-.34-1.44v-1.9a4.84,4.84,0,0,1,0-.68,2.21,2.21,0,0,1,.15-.54,1.14,1.14,0,0,1,.28-.41,1.18,1.18,0,0,1,.43-.24,2,2,0,0,1,.62-.09A1.42,1.42,0,0,1,110,19a1.9,1.9,0,0,1,.35,1.26v.21h-.74v-.18c0-.16,0-.29,0-.4a1.51,1.51,0,0,0-.06-.3.49.49,0,0,0-.12-.22.57.57,0,0,0-.21-.12,1,1,0,0,0-.32,0,1,1,0,0,0-.26,0,.71.71,0,0,0-.19.09.42.42,0,0,0-.13.15,1.1,1.1,0,0,0-.08.18,1.2,1.2,0,0,0,0,.23c0,.09,0,.18,0,.26s0,.17,0,.29v2.1a2,2,0,0,0,.16.94.77.77,0,0,0,1.21,0,2.22,2.22,0,0,0,.16-1v-.4H109v-.56h1.44V24.3h-.5l-.08-.65A1,1,0,0,1,108.83,24.37Z"/><path class="cls-4" d="M110.91,24.3l1.21-5.68h.76l1.21,5.68h-.75l-.26-1.43h-1.15l-.27,1.43Zm1.12-2H113l-.48-2.56Z"/><path class="cls-4" d="M114.67,24.3V18.63h1.14a1.89,1.89,0,0,1,1.26.35,1.46,1.46,0,0,1,.4,1.15q0,1.1-.7,1.33l.81,2.85h-.77l-.75-2.66h-.61V24.3Zm.79-3.23h.3a1.08,1.08,0,0,0,.74-.2,1,1,0,0,0,.22-.74,1.08,1.08,0,0,0-.19-.73,1,1,0,0,0-.72-.21h-.35Z"/><path class="cls-4" d="M118.31,24.3V18.63h1.23a1.69,1.69,0,0,1,1.3.42,1.92,1.92,0,0,1,.38,1.31v2.09a2.18,2.18,0,0,1-.37,1.39,1.51,1.51,0,0,1-1.24.46Zm.79-.57h.45a1.26,1.26,0,0,0,.32,0,1,1,0,0,0,.23-.09.4.4,0,0,0,.16-.16,1.19,1.19,0,0,0,.1-.2,1.25,1.25,0,0,0,0-.27c0-.12,0-.22,0-.31s0-.21,0-.37V20.45c0-.14,0-.25,0-.35a2.74,2.74,0,0,0,0-.28.85.85,0,0,0-.06-.23.84.84,0,0,0-.11-.17.43.43,0,0,0-.16-.12,1,1,0,0,0-.23-.07l-.3,0h-.43Z"/><path class="cls-4" d="M122,24.3V18.63h2.2v.59h-1.41v1.88h1.14v.57h-1.14v2.08h1.42v.57Z"/><path class="cls-4" d="M124.86,24.3V18.63h.54L127,22.4V18.63h.66V24.3h-.51l-1.64-3.88V24.3Z"/><rect class="cls-1" x="104.95" y="4.83" width="10.67" height="1.88"/><path class="cls-4" d="M3.13,15.89V9.83H5.47v.61H4v2H5.14v.6H4v2.84Z"/><path class="cls-4" d="M6.06,15.89V9.83H7.27a2,2,0,0,1,1.35.38,1.56,1.56,0,0,1,.43,1.23q0,1.17-.75,1.42l.87,3H8.35L7.56,13H6.9v2.85Zm.84-3.45h.32A1.15,1.15,0,0,0,8,12.22a1,1,0,0,0,.24-.79,1.16,1.16,0,0,0-.2-.78,1,1,0,0,0-.77-.22H6.9Z"/><path class="cls-4" d="M11.49,16a2,2,0,0,1-.78-.13,1.19,1.19,0,0,1-.51-.4,1.76,1.76,0,0,1-.28-.61A3.4,3.4,0,0,1,9.83,14v-2.3a2.27,2.27,0,0,1,.39-1.44,1.52,1.52,0,0,1,1.27-.49,1.52,1.52,0,0,1,1.27.49,2.27,2.27,0,0,1,.39,1.43V14a2.36,2.36,0,0,1-.39,1.46A1.49,1.49,0,0,1,11.49,16Zm-.41-.74a1.15,1.15,0,0,0,.82,0,.54.54,0,0,0,.25-.23,1.14,1.14,0,0,0,.12-.35,3,3,0,0,0,0-.47V11.52a2.82,2.82,0,0,0,0-.46,1.1,1.1,0,0,0-.12-.34.51.51,0,0,0-.25-.22,1.22,1.22,0,0,0-.82,0,.51.51,0,0,0-.25.22,1.1,1.1,0,0,0-.12.34,2.84,2.84,0,0,0,0,.46v2.66a3,3,0,0,0,0,.47,1.14,1.14,0,0,0,.12.35A.54.54,0,0,0,11.08,15.22Z"/><path class="cls-4" d="M14,15.89V9.83h.57l1.72,4v-4H17v6.06h-.54L14.7,11.75v4.14Z"/><path class="cls-4" d="M18.56,15.89V10.45H17.45V9.83h3v.63H19.4v5.44Z"/><path class="cls-4" d="M3.13,24.88V18.82H4.52a1.75,1.75,0,0,1,1.23.37,1.5,1.5,0,0,1,.4,1.15q0,1.16-.87,1.28a1.24,1.24,0,0,1,.78.51,1.84,1.84,0,0,1,.25,1,1.93,1.93,0,0,1-.38,1.28,1.45,1.45,0,0,1-1.17.46ZM4,21.35h.5a.93.93,0,0,0,.73-.23,1.18,1.18,0,0,0,.2-.78,1.72,1.72,0,0,0,0-.31,1.14,1.14,0,0,0-.07-.23.38.38,0,0,0-.12-.16L5,19.53a.85.85,0,0,0-.23-.06l-.28,0H4Zm0,2.93h.57A.91.91,0,0,0,5.3,24a1.44,1.44,0,0,0,.2-.87,1.33,1.33,0,0,0-.24-.87A1,1,0,0,0,4.48,22H4Z"/><path class="cls-4" d="M6.72,24.88,8,18.82h.82l1.29,6.06h-.8L9,23.35H7.81l-.29,1.53Zm1.2-2.13h1L8.42,20Z"/><path class="cls-4" d="M10.74,24.88V18.82H12a2,2,0,0,1,1.35.38,1.56,1.56,0,0,1,.43,1.23q0,1.17-.75,1.42l.87,3H13L12.24,22h-.66v2.85Zm.84-3.45h.32a1.15,1.15,0,0,0,.79-.22,1,1,0,0,0,.24-.79,1.16,1.16,0,0,0-.2-.78,1,1,0,0,0-.77-.22h-.37Z"/><path class="cls-4" d="M4.4,33.94a1.25,1.25,0,0,1-1-.38,1.39,1.39,0,0,1-.35-1,1.92,1.92,0,0,1,.24-1,3.23,3.23,0,0,1,.65-.8l-.17-.32-.18-.35-.15-.33a2,2,0,0,1-.12-.37,1.76,1.76,0,0,1,0-.37,1.35,1.35,0,0,1,.35-1,1.24,1.24,0,0,1,.94-.37,1.39,1.39,0,0,1,.92.3,1,1,0,0,1,.36.82,1.7,1.7,0,0,1-.1.57,2.28,2.28,0,0,1-.29.55c-.12.18-.24.33-.36.46s-.24.26-.39.4l.92,1.44A3.8,3.8,0,0,0,6,31.08h.8a2.64,2.64,0,0,1-.18.9,3.45,3.45,0,0,1-.41.81.91.91,0,0,0,.26.22.66.66,0,0,0,.33.09v.82H6.67l-.16,0-.14,0-.14-.07-.12-.07L6,33.64l-.1-.09-.1-.11-.09-.09a1.55,1.55,0,0,1-.55.43A1.71,1.71,0,0,1,4.4,33.94Zm0-.66a1.05,1.05,0,0,0,.81-.45l-.93-1.43a1.83,1.83,0,0,0-.29.54,2,2,0,0,0-.11.63,1,1,0,0,0,.12.5A.42.42,0,0,0,4.4,33.27Zm.08-2.85a2.82,2.82,0,0,0,.43-.72,2.11,2.11,0,0,0,.18-.83A.45.45,0,0,0,5,28.53a.49.49,0,0,0-.35-.13.41.41,0,0,0-.37.2.91.91,0,0,0-.12.48A3.48,3.48,0,0,0,4.48,30.42Z"/><path class="cls-4" d="M3,41.07V36.21h1.2a1.13,1.13,0,0,1,.92.34,1.53,1.53,0,0,1,.28,1,1.31,1.31,0,0,1-.31.92,1.16,1.16,0,0,1-.89.33H3.71v2.26Zm.68-2.75H4a.9.9,0,0,0,.61-.16.83.83,0,0,0,.17-.61c0-.12,0-.22,0-.3a1,1,0,0,0,0-.22.42.42,0,0,0-.08-.16.41.41,0,0,0-.14-.1.71.71,0,0,0-.21-.06H3.71Z"/><path class="cls-4" d="M5.42,41.07l1-4.86h.65l1,4.86H7.51l-.22-1.22h-1l-.23,1.22Zm1-1.71H7.2l-.41-2.19Z"/><path class="cls-4" d="M8.64,41.07V36.21h1a1.62,1.62,0,0,1,1.08.3,1.25,1.25,0,0,1,.34,1q0,.94-.6,1.13l.69,2.44h-.66l-.64-2.28H9.32v2.28Zm.68-2.77h.25a.92.92,0,0,0,.63-.17.84.84,0,0,0,.19-.63.93.93,0,0,0-.16-.62.82.82,0,0,0-.61-.18h-.3Z"/><path class="cls-4" d="M11.76,41.07V36.21h.68v4.37h1.24v.49Z"/><path class="cls-4" d="M15.34,41.12a1.62,1.62,0,0,1-.62-.11,1,1,0,0,1-.41-.32,1.42,1.42,0,0,1-.22-.49,2.72,2.72,0,0,1-.07-.66V37.71a1.82,1.82,0,0,1,.31-1.15,1.22,1.22,0,0,1,1-.39,1.22,1.22,0,0,1,1,.39,1.82,1.82,0,0,1,.31,1.15v1.84a1.89,1.89,0,0,1-.31,1.17A1.2,1.2,0,0,1,15.34,41.12ZM15,40.53a.92.92,0,0,0,.66,0,.43.43,0,0,0,.2-.19.89.89,0,0,0,.09-.28,2.34,2.34,0,0,0,0-.37V37.57a2.24,2.24,0,0,0,0-.37.85.85,0,0,0-.09-.27.41.41,0,0,0-.2-.18,1,1,0,0,0-.66,0,.4.4,0,0,0-.2.18.83.83,0,0,0-.09.27,2.13,2.13,0,0,0,0,.37v2.13a2.23,2.23,0,0,0,0,.37.87.87,0,0,0,.09.28A.42.42,0,0,0,15,40.53Z"/><path class="cls-4" d="M17.33,41.07V36.21h1a1.62,1.62,0,0,1,1.08.3,1.25,1.25,0,0,1,.34,1q0,.94-.6,1.13l.69,2.44h-.66l-.64-2.28H18v2.28ZM18,38.31h.25a.92.92,0,0,0,.63-.17.84.84,0,0,0,.19-.63.93.93,0,0,0-.16-.62.82.82,0,0,0-.61-.18H18Z"/></g></g></svg>