<svg xmlns="http://www.w3.org/2000/svg" viewBox="0 0 1097 373"><defs><style>.cls-1,.cls-2{fill:#fff;}.cls-2,.cls-4{font-size:12px;font-family:Oswald-MediumItalic, Oswald;}.cls-3{letter-spacing:-0.01em;}.cls-5{letter-spacing:0em;}.cls-6{fill:#008442;}.cls-7{fill:#fbcc0c;}.cls-8{fill:#f16422;}.cls-9{fill:#d64527;}.cls-10{fill:#aa3522;}</style></defs><title>bbar-street-map-trpt</title><g id="Layer_2" data-name="Layer 2"><g id="Layer_1-2" data-name="Layer 1"><path d="M1043.5,0h3.5c-1.13,2.21-2.21,4.44-3.39,6.62-2.67,4.94-5.39,9.86-8.12,14.82.5.31.77.49,1.06.65Q1060,35,1083.37,47.8c4.51,2.47,9.09,4.8,13.63,7.2v4c-.63-.4-1.25-.82-1.9-1.18L1053.56,35l-19.63-10.77-20.3,36.87c.82.52,1.43,1,2.07,1.32q38.76,21.91,77.54,43.79c1.2.68,2.5,1.18,3.76,1.77v4l-84.94-48L991.7,101c1.17.66,2.1,1.19,3,1.71q36.69,20.26,73.39,40.51c9.61,5.3,19.25,10.54,28.88,15.81v6.5c-.18.15-.43.26-.54.45q-8.22,14.82-16.41,29.65c-.07.12,0,.32,0,.75l17,9.15V209c-3.44-1.82-6.88-3.63-10.3-5.47-2.82-1.51-5.61-3.07-8.54-4.67l-18.35,33.25c9.82,5.45,19.33,10.75,28.86,16,2.75,1.52,5.56,2.93,8.34,4.39V256a23.41,23.41,0,0,1-2.47-1q-17-9.43-34-18.89c-.69-.38-1.42-.7-2.2-1.09l-18.89,34.32c.79.47,1.41.87,2.06,1.22q13.43,7.42,26.86,14.82,14.31,7.85,28.66,15.64v3.5c-.82-.37-1.68-.69-2.46-1.12l-47.39-26.14c-3-1.68-6.1-3.34-9.32-5.1L1018,306.26c.71.44,1.32.86,2,1.21q30.75,17.07,61.51,34.11c5.15,2.85,10.36,5.61,15.54,8.41v3.5a17.45,17.45,0,0,1-2-.82q-29.69-16.46-59.36-32.94l-19.16-10.61L999.15,344.2c.77.47,1.31.84,1.89,1.16,10.8,5.92,21.62,11.8,32.4,17.74,5.89,3.25,11.71,6.6,17.57,9.9h-6.5c-.67-.46-1.31-1-2-1.37q-14.18-7.8-28.38-15.56l-16.55-9L983,373h-3.5a12.12,12.12,0,0,1,.69-1.82q6.43-11.27,12.9-22.52c.56-1,1.1-2,1.73-3.1L887.88,286.5l-18.45,33.31c.8.47,1.43.86,2.08,1.22q28.36,15.48,56.72,31,19.15,10.47,38.27,21h-7a17.32,17.32,0,0,0-1.92-1.41q-43.86-24-87.74-47.89c-.62-.34-1.29-.58-2-.92l-18.12,33.33c5.1,2.89,10,5.6,14.77,8.37s9.71,5.67,14.56,8.52h-6.5l-24.3-14.27L840.5,373H837l8.37-15.77-97.82-53.88-19.36,34.93c.86.5,1.56.93,2.27,1.33q28.69,15.94,57.38,31.88A24.18,24.18,0,0,1,790,373h-6.5a11.57,11.57,0,0,0-1.49-1.17q-26.78-14.89-53.57-29.74a20.55,20.55,0,0,0-1.92-.81L709.5,373H700l19.57-35.84L615.33,279.25,594.61,317c1,.54,1.73,1,2.51,1.41q31.35,17.07,62.69,34.14Q678.43,362.76,697,373h-7a16.42,16.42,0,0,0-1.91-1.42Q655.46,353.79,622.82,336l-29.75-16.21L572.91,355.6l2.81,1.57L604,373h-6.5l-26-14.63c-4.82,7.11-5.61,9.23-5.52,14.63H551.5c1.72-2.5,3.39-5,5.16-7.48,2.58-3.59,5.23-7.12,7.89-10.74-.88-.62-1.13-.83-1.41-1Q536.46,338.86,509.76,324a43,43,0,0,0-5.09-2l-10,37.87c5.58,2.19,10.86,4.22,16.1,6.33,5.61,2.25,11.19,4.58,16.78,6.87h-52l.82-2.89-32.07-14.86L439,373h-3.5l6-19.12-31-14.56c-2.62,7.83-5.14,15.3-7.6,22.79-1.19,3.61-2.27,7.26-3.4,10.89H396l11.67-35L377,323.58c-.41,1-.72,1.64-1,2.33q-6.17,16.31-12.32,32.62c-1.8,4.8-3.5,9.64-5.25,14.47H355c1-2,.31-3.36-1.55-4.45a30.11,30.11,0,0,1-3.16-2.43l-15.47-12.06c-2.08,3.39-4.06,6.54-6,9.74s-3.57,6.14-5.36,9.21H314a26.82,26.82,0,0,1,1.25-2.63c4.31-7.07,8.66-14.13,13.11-21.38l-15-11.71c-4.64,7-9.08,13.75-13.49,20.49-3.32,5.06-6.59,10.16-9.88,15.24h-4c14.78-22.15,29.79-44.17,42.23-67.95-.52-.2-1.12-.45-1.73-.65-11-3.47-22.07-6.89-33.06-10.46-1.84-.6-2.6-.08-3.54,1.41Q277,315.71,264,336l-15.32,24,5.11,2.85L272,373h-6.5l-18.6-10.48L240.5,373H231a25.81,25.81,0,0,1,1.19-2.39c2.51-4,5.05-8,7.69-12.1L206.25,337,183.5,373H180a14.52,14.52,0,0,1,.74-1.53q8.19-13,16.41-25.94c2.16-3.41,4.31-6.83,6.52-10.35L171.5,314c-.47.66-.88,1.17-1.23,1.72q-16.21,25.33-32.39,50.67c-1.37,2.15-2.59,4.4-3.88,6.6h-4l38.75-60.79-32.65-21.47-45.69,71c1.24.82,2.36,1.54,3.45,2.29L107,373h-5.5l-12.82-8.69L83.5,373h-4l6.59-10.27L51.54,340.81,31,373H27.5c1.78-2.89,3.53-5.81,5.35-8.68,5.29-8.34,10.61-16.67,16-25.2L18.75,320c-3.66,5.77-7.14,11.34-10.69,16.85C5.42,340.92,2.69,344.95,0,349q0-2.75,0-5.5l16.13-25.16c-3.16-2-6-3.89-8.89-5.67-2.38-1.45-4.82-2.79-7.24-4.17v-4l17.81,11.09,45.88-72.5L31.26,221.76c-.59.86-1.09,1.52-1.53,2.22Q17.32,244,4.91,264.1C3.35,266.61,1.64,269,0,271.5q0-3,0-6a18.52,18.52,0,0,0,1.5-1.86q9-14.5,18-29L28.53,220c-1.38-.95-2.59-1.81-3.82-2.63L0,201v-4l30.28,20.3L71,153.5,38.8,132.29c-.67,1-1.19,1.78-1.67,2.55q-16.8,27-33.62,54A36.68,36.68,0,0,1,0,193v-5a10.88,10.88,0,0,0,1.25-1.41q10.06-16.19,20.08-32.41c.29-.47.48-1,.86-1.78L0,149.5q0-1.5,0-3a19.52,19.52,0,0,1,2,.07c6.67.9,13.34,1.87,20,2.69.9.11,2.35-.13,2.74-.73,3.86-5.89,7.55-11.89,11.37-18-2-1.35-3.84-2.65-5.73-3.83-4.94-3.06-9.89-6.11-14.89-9.06-.67-.39-2.12-.63-2.44-.26-2.76,3.15-5.79,6.2-7.87,9.79C3,131,1.69,135.37,0,139.5q0-11.5,0-23L3.75,108l-3-.14L0,115V98l3.77,1.85.48-.61L0,94V90l7.39,7.53L33.16,24.21a9.46,9.46,0,0,0-9.93-.87C15.55,26.71,7.75,29.8,0,33V29.5c7.61-3.11,15.16-6.38,22.85-9.25,2.3-.86,5-.8,7.54-.74,1.3,0,2.58,1,3.84,1.47,2.39-4,2.51-4.22,1.12-8.17C33.84,8.5,32.13,4.27,30.5,0H34l4.54,11.79L43.5,0h9l-10,23a7.4,7.4,0,0,0,1.22-.2q15.53-6,31-12.12a3.23,3.23,0,0,0,1.46-.86C78.54,6.56,80.76,3.27,83,0h4a66.93,66.93,0,0,0-4.22,6.16,18.64,18.64,0,0,1-12.34,9.59,44.58,44.58,0,0,0-4.89,1.85L43.2,26.33l41.33,27L115,5.09,108,0h14L87.14,55l32.94,21.37c.66-1,1.22-1.79,1.74-2.61l25.51-40c6.62-10.39,13.25-20.77,19.81-31.2.42-.67.25-1.71.36-2.58h6c.11.2.17.48.34.59C184.3,7.35,194.76,14.1,205.4,21L219,0h4L208.09,22.39l30.52,21.33,22.9-35.65L249.5,0h6l8.34,5.88L266.5,0h4c6.16,7.59,14.64,7.81,23.53,7.48L292.5,0h2l.89,6.91.78.38L305,0h2c-2.19,3.78-6.06,5.52-9.43,7.88-.61.43-1.43,1.43-1.3,1.94,1.52,5.62,3.2,11.2,5,17.24L318.5,0H322c-.39.72-.75,1.47-1.19,2.17q-8.29,13.06-16.6,26.1c-.47.74-.9,1.51-1.4,2.37l32.73,21.19,21.58-33.55L330,0h6c.12.2.2.46.37.58,7.43,5,14.86,9.94,22.46,15,1.72-2.65,3.42-5.19,5-7.78S367,2.61,368.5,0h4l-11,17.38,32.1,21.39L415,5.56,407,0h6l3.69,2.91L418.5,0H422l-2.43,4.64,32.66,21.12c4.53-6.41,9-12.64,13.34-18.92,1.55-2.23,3-4.56,4.43-6.84h14.5a3.66,3.66,0,0,0,.84.46Q510.66,6.4,536,12.3a2.49,2.49,0,0,0,1.86-.16c3.41-2.85,6.75-5.8,10.17-8.78L542.5,0h21l-1,1.91,9.07,4.92L573,0h8.5l-2.45,10.45c10.24,5.31,21.75,7.77,30.72,15.73L624.5,0h9L628,10.92l22.37-2.07V8.38L634,0h7.5a17.17,17.17,0,0,0,2,1.35c3.85,2,7.68,4,11.61,5.73a10.18,10.18,0,0,0,4.48.88c4.06-.18,8.11-.7,12.17-1,13.09-.85,26.2-1.57,39.28-2.54a19.2,19.2,0,0,0,6.29-2.16C717.91,2,718.11.8,718.5,0H732l-5.85.75,27,14.64c1.33-2.45,2.6-4.68,3.76-7C758.3,5.65,759.63,2.81,761,0h9.5L760.36,19.43,863,78.13l19.44-35.25c-.77-.48-1.38-.88-2-1.25Q850,24.35,819.48,7.05c-4-2.29-8-4.7-12-7.05H814a14.49,14.49,0,0,0,1.7,1.32q21.15,12,42.31,24l26,14.72,20-36.2L898,0h17.5l-2.73,4.88,98.13,54.7,20.26-36.8c-2-1.1-3.76-2.12-5.57-3.12L990,0h7a5.82,5.82,0,0,0,1,.94q16.68,9.18,33.38,18.32a11.54,11.54,0,0,0,1.48.55ZM909.95,246.54,1015.61,305l60-107.61-106-58.8-38.82,70.86,15.06,7.78-.61,1.21-15.31-7.52ZM228.43,146.8l67.12,44,48.06-74.54L275.74,72.94l-4.56,7-2.5-1.76,4.42-7-33.78-23-48.27,74.37,34.69,22.61,4.34-6.66,2.52,1.75ZM528,178.66l.81-2.69c2.25-7.57,2.35-15.79,7-22.68l-26.18-16c.83-.5,1.12-.78,1.22-.72,8.66,5.08,17.3,10.18,26.22,15.46a41.69,41.69,0,0,1,.63-5c4.2-16.75,6.37-34,13.18-50.1a2.74,2.74,0,0,0,.17-2.06C548.83,91,549.23,87,550.33,83q8.22-30.34,16.4-60.69a19.89,19.89,0,0,0,.32-2c-4.88-.82-9.69-1.15-14.18-2.5-5.83-1.76-9.63-.39-13.17,4.69-5.08,7.29-11.65,13.58-16.41,21-16.07,25.18-31.62,50.69-47.39,76.07-3.58,5.76-7.23,11.47-10.76,17l28.39,20c.05-.76.12-1.26.12-1.76s-.07-1.26-.12-1.89c.63.06,1.48-.09,1.82.25a2.51,2.51,0,0,1,.52,1.93,10.25,10.25,0,0,1-1.12,2.42Zm6.86-163c-.22-.34-.25-.45-.31-.46Q507.5,8.84,480.4,2.55A2.84,2.84,0,0,0,478,3.4c-6.87,9.62-13.92,19.13-20.38,29-14.65,22.45-29,45.09-43.46,67.66-.53.82-1,1.68-1.86,3.1,14.69,10.76,30.54,19.39,45.66,29.4.65-1,1.16-1.73,1.64-2.5q20.48-32.84,41-65.69c9.39-15,18-30.6,30.15-43.71C532.22,19.07,533.55,17.29,534.9,15.67Zm-166,61.41L264.27,9.58,241.21,45.47c34,24.19,69.21,45.71,104.09,68.19Zm453.43,74.81L718.38,94l-20.15,36,104.24,57.84Zm67.07,131.87,106.94,59.05,17.39-35.25L908.48,249.31ZM721,334.38l19.32-34.93L636,241.49l-19.19,35ZM658.22,201.5c33.84,21.14,68,41.3,103.31,59.76L781,226.68,676.76,168.36ZM1009.39,62.32,911.24,7.64,891.13,44.1,988.9,99.53ZM711.28,90,613.81,35.38l-20,36.84,97.29,53.9Zm-33,75.63L782.56,224,801,190.62,696.7,132.75Zm41.61-74.36,103.93,57.89,18.46-33.47L738.39,58.33Zm206.85,118.8-97.3-54.2-19.8,35.9,97.51,53.33ZM971.29,136,1077,194.57l18.21-32.83L990.38,103.87ZM759.6,264.72,656.31,204.83l-18.82,33.88,104.39,58Zm-.82-242.58L739.94,55.6l103.88,57.32,17.67-32ZM866.24,319.08,885.1,285l-97-54.39-19.71,35c7.53,5.15,17.59,6.14,21.95,15.14,1.63-.59,2.93-1.46,4.24-1.47a23.22,23.22,0,0,1,16.12,6.05,30.66,30.66,0,0,0,8.5,6,18,18,0,0,1,4.17,2.66c4.21,3.39,8,7.61,12.6,10.18C845.75,309.56,856,314.08,866.24,319.08Zm3.93-237,98.36,52.4,19.06-32.07-98-55.55Zm-4.72,238.44c-7.63-3.77-14.88-7.48-22.25-10.93a58.64,58.64,0,0,1-15.11-9.51c-3.17-2.89-6.85-5.21-10.33-7.74-2.53-1.84-5.25-3.43-7.61-5.46A23.47,23.47,0,0,0,795.76,281a5.1,5.1,0,0,0-3,.75c-1.9,1.34-3,.87-4.28-.92s-2.61-4.17-4.5-5.26c-5.24-3-10.78-5.48-16.43-8.28L749.07,300.6l97.88,53.91Zm21.18-38.24,19.05-34.42-97.54-53.35-18.44,33.4ZM849.46,119.61,831,153.11l97.4,54.24,18.49-34ZM556.62,146.1l94.43,51.49,18.64-33.32-93.37-52.48Zm410.24-9-98.2-52.31-17.68,32,97.41,53.74ZM419.12,212.19l85.08,55.35c.37-1.12.58-1.67.73-2.22,3.57-12.81,7.09-25.63,10.77-38.41.53-1.85.26-2.74-1.36-3.8q-30.56-19.85-61-39.85c-4.16-2.73-8.28-5.53-12.7-8.49ZM649.49,200.3l-94.68-51.62c-2.2,4.79-4.66,9.24-6.32,14-2.31,6.58-3.94,13.4-6,20.06-.57,1.82-.14,2.59,1.44,3.48Q586,209.8,628.13,233.5c.7.39,1.43.74,2.26,1.16ZM712.8,87.24l18.4-32.83c-2.47-1.41-4.71-2.68-6.94-4-21.81-12.63-43.59-25.29-65.46-37.81a10.14,10.14,0,0,0-5.44-.92c-6.81.46-13.59,1.25-20.39,1.78s-6.84.47-10.24,6.38l-7.35,12.76Zm-171.64,101a11.16,11.16,0,0,0-.56,1.32c-3.3,12.36-6.56,24.73-9.93,37.07-.46,1.68.37,2.18,1.53,2.83q29.13,16.15,58.23,32.34c6.39,3.55,12.79,7.08,19.29,10.68l19.12-34.91Zm67,87L529.38,231.5c-3.87,14-7.58,27.55-11.4,41.06-.54,1.92.67,2.27,1.81,2.91L585,311.78c.77.43,1.56.8,2.49,1.27ZM497.54,292.9l5.88-22.15-85.79-55.81-11.42,20.59c4.31,2.76,8.47,5.35,12.52,8.08,1.15.77,3.64,1.31,2.38,3.3s-2.8,0-4-.71c-4.15-2.55-8.22-5.21-12.45-7.91-2.95,5.26-5.75,10.27-8.55,15.27-.4.71-.75,1.45-1.52,3C428.57,269.59,462.86,281.22,497.54,292.9ZM381.22,136.71c-11.68-6.44-22.5-13.88-34.4-19.63l-48.66,75.46,33.32,21.84ZM133.49,289,99,266.32,53.22,338.16l34.56,21.92ZM203.71,23.59,171,2.5,122.75,78.13,154.94,99Zm-46.14,77.15,30.89,20L236.8,46.26,206.47,25.08Zm284.8,71.69L517,221.3l10.44-39.63c-22.28-12.88-43.13-27.55-64-42.42ZM176,222.82,141.41,200l-40.76,63.67,34.55,22.71ZM44.22,117.63,82.84,56,40.39,28.21,14.5,101.86C26,104.23,34.33,112.1,44.22,117.63Zm553.93,2.77,73.08,41.14,18.3-32.72L616.35,88.38ZM66.3,244.81,20.42,317.33l30.16,19.15,45.8-71.88ZM241.59,355.87,283.4,290.5c-13-4.38-22.91-13.66-34.75-20.12l-40.73,63.93Zm290.13-23.26c.38-.81.75-1.54,1.07-2.28q3.91-9.18,7.81-18.36a5.83,5.83,0,0,1,1-2,1.44,1.44,0,0,1,2.58,1.24,10,10,0,0,1-1,2.55l-8.72,20.53,31.25,17.33,20.15-35.77-69.2-38.54-11.09,40.94Zm-361.25-23,40.78-63.78-32.53-21.39-40.9,63.68Zm75.65-41.08-32.29-20.92-40.74,63.72,32.24,21.21ZM73.58,155.23l-40.7,63.83,32.61,21.47,39.77-64.4Zm186.65,16.15-33.44-21.91-39.35,61.46,33.74,21.94c1.89-2.28,4-4.11,5.16-6.41,1.41-2.77,2-5.93,3.15-9.36-2.62-2.18-5.84-4.81-9-7.51a5.07,5.07,0,0,1-1.81-2.27c-.75-3.32-1.27-6.7-1.81-10.07-.06-.37.28-.81.43-1.22a3.57,3.57,0,0,1,1.22,2.11c.48,2.36.87,4.75,1.38,7.11a4.73,4.73,0,0,0,.92,2.47c3.3,2.89,6.72,5.64,10.26,8.58Zm31.9,104.84,37.52-59.29L296.49,195.2l-38.84,61.11C268.81,263.8,279.61,271.53,292.13,276.22ZM46.77,119.45l32.49,21,39.17-61.41L85.48,57.69Zm214.93,52.89c-.45.56-.84,1-1.15,1.45Q244.74,198,229,222.32a3.59,3.59,0,0,0-.77,2c.31,2.66-1.26,4.34-2.84,6.07-.88,1-1.7,2-2.71,3.18L255,254.68l38.9-61.2ZM121.06,80.77,81.9,142.19l31.83,20.59,39.51-61.12Zm17.74,117.5-30.91-20.4L68.11,242.25,98,261.92Zm-22.44-33.78,31.29,20.24,39.28-61.2-31.07-20.17Zm220.21,57L314.38,256l2,2.09c-1,1.91-3.16-2.07-3.74,1.45l2.26,1-.78,1-2.68-.72L300,279.34c.74.27,1.27.5,1.82.67l29.24,9.24c6.45,2,6.46,2,10.25-3.5,2.66-3.89,5.29-7.79,7.92-11.66l-2.69-2.21.39-.72,3.45,1.2,18.22-29.89Zm-151.73-12.3,39.3-61.38-34.65-22.59-3.29,5.36c2.4,2,4.53,4,6.91,5.64,2,1.4,1.85,2.53.65,4.43-9.55,15.21-19,30.5-28.46,45.76-1.39,2.24-2.77,4.49-4.22,6.85Zm251-41.73,20.45-32.18c-.91-.61-1.65-1.13-2.41-1.61-12.27-7.68-24.57-15.32-36.79-23.08a68.73,68.73,0,0,1-6.37-5.17L390,138.06Zm286.78-165c-3.06,1.7-5.34,3.45-7.91,4.25A39.7,39.7,0,0,1,705.69,8c-10.54.71-21.08,1.32-31.63,1.91-2.72.15-2.12,2.6-2.85,4-.21.42.72,1.82,1.45,2.25q27.1,16.17,54.28,32.21c1.89,1.12,3.85,2.13,5.86,3.23l18.84-33.45ZM481.07,353.65l15.68-57.74-31.18-10.58-16.29,53.51ZM338.28,218.8l49.63,32.71L397.68,234c-7.94-5.3-15.63-10.39-23.28-15.55-2.88-1.94-3.2-3.77-1.42-6.74l11.39-19-20.58-13.64ZM446.45,337.5l16.13-53.05-30.12-10.7-16.55,49.42ZM382.87,134l21.62-33.93-33-21.31-22.76,35.3Zm17.29,128.17L383,307.77l30.14,14.1,16.44-49.16Zm-4-221.71,32.51,21.67,21.77-33.82L417.71,7.17Zm-25.63,34L391.9,41.4,359.76,20,338.17,53.54Zm35.6,23L427,64.8,394.51,43.14l-21.29,33Zm27.67,72.74-21.57-14.46L388,191.4l24.29,16.21ZM575.3,21.79l-9.43,35.48,20.44,11.52,19.3-35.46C596.87,25.63,586.88,22,575.3,21.79ZM410.93,154.88l-22.8-13.93-22.64,35.48,21.24,14.08Zm-39.47,89.48-30.35,48c5.38,1.71,10.79,3.32,16.12,5.19,1.87.66,2.76.28,3.76-1.38,8.13-13.55,16.35-27.05,24.53-40.57a11.17,11.17,0,0,0,.6-1.42ZM357,367.45l17.15-45.24L358.8,315l-22.34,36.36ZM592.54,75c-7.06,10.12-10.33,21.69-14.45,32.88a1.74,1.74,0,0,0,.52,1.58c5.53,3.15,11.1,6.22,16.8,9.38l18.19-32ZM351,312.07,331.55,306,315,334.62l15,11.7Zm36-117.61c-3.73,6.18-7.26,12.2-11,18.11-1.07,1.71-1,2.63.75,3.76,7,4.5,13.91,9.13,20.86,13.7.52.34,1.09.61,1.74,1l11.44-20.65Zm-227.28-2.1,11.45-18.44q10.46-16.85,20.88-33.71c.4-.65.6-2.08.23-2.43-2.18-2-4.56-3.85-7-5.84l-35,54.47ZM585.38,70.09,565.78,59c-.24.23-.42.32-.46.46-2.55,9.12-5.11,18.24-7.59,27.38a4.08,4.08,0,0,0,.13,2.91c2.37,3.67,4.78,7.36,8.87,9.46C573.81,90,580.67,80.86,585.38,70.09ZM393.12,258.75l-25.44,42L380,306.3c.34-.67.63-1.15.83-1.67q7.61-20.15,15.19-40.3c1.31-3.48,1.31-3.49-1.88-5.2A10.55,10.55,0,0,0,393.12,258.75ZM268.27.54l-3.06,6,34.87,22.3c-1.48-5.12-2.77-9.57-4.06-14C294.34,9.07,294.33,9,288.27,9c-7,0-13.28-1.75-18.22-7.06A16.92,16.92,0,0,0,268.27.54ZM561,107.74l-9-9.25c-6.26,13.8-8,30.21-11.82,46.13C544.56,130.21,554.38,118.93,561,107.74Zm-14.21-92.5c6.28,1.06,11.85,2,17.41,3,3.73.66,3.72.7,4.77-3.42L555.81,7.53Zm116.8-4.49v.64l4.26,2.15,1.24-3.22ZM467.34,356.36l-.21.64,9.36,4.13.24-.57Z"/><path class="cls-1" d="M697,373q-18.59-10.2-37.18-20.4-31.33-17.1-62.69-34.14c-.78-.43-1.56-.87-2.51-1.41l20.72-37.8,104.24,57.91L700,373Z"/><path class="cls-1" d="M966.5,373q-19.13-10.51-38.27-21-28.35-15.5-56.72-31c-.65-.35-1.28-.75-2.08-1.22l18.45-33.31,106.94,59.06c-.63,1.13-1.16,2.12-1.73,3.1q-6.45,11.26-12.9,22.52a12.12,12.12,0,0,0-.69,1.82Z"/><path class="cls-1" d="M1097,159c-9.63-5.27-19.27-10.51-28.88-15.81q-36.71-20.24-73.39-40.51c-.93-.51-1.86-1-3-1.71l20.36-37L1097,112Z"/><path class="cls-1" d="M807.5,0c4,2.35,8,4.76,12,7.05q30.47,17.32,61,34.58c.64.36,1.25.77,2,1.25L863,78.13,760.36,19.43,770.5,0Z"/><path class="cls-1" d="M790,373a24.18,24.18,0,0,0-2.16-1.52q-28.68-16-57.38-31.88c-.72-.4-1.42-.83-2.27-1.33l19.36-34.93,97.82,53.88L837,373Z"/><path class="cls-1" d="M1097,108c-1.26-.59-2.56-1.09-3.76-1.77q-38.78-21.88-77.54-43.79c-.64-.36-1.25-.79-2.07-1.32l20.3-36.87L1053.56,35l41.54,22.8c.65.36,1.27.79,1.9,1.18Z"/><path class="cls-1" d="M990,0l35.58,19.65c1.81,1,3.61,2,5.57,3.12l-20.26,36.8L912.77,4.88,915.5,0Z"/><path class="cls-1" d="M1051,373c-5.85-3.3-11.68-6.66-17.57-9.9-10.78-5.95-21.6-11.83-32.4-17.74-.58-.32-1.12-.69-1.89-1.16l17.31-35.07,19.16,10.61q29.68,16.47,59.36,32.94a17.45,17.45,0,0,0,2,.82V373Z"/><path class="cls-1" d="M107,373l-13.13-8.94c-1.1-.74-2.21-1.46-3.45-2.29l45.69-71,32.65,21.47L130,373Z"/><path class="cls-1" d="M272,373l-18.24-10.21-5.11-2.85L264,336q13-20.3,25.93-40.63c.94-1.48,1.7-2,3.54-1.41,11,3.57,22,7,33.06,10.46.61.19,1.21.45,1.73.65C315.79,328.83,300.78,350.85,286,373Z"/><path class="cls-1" d="M1097,350c-5.18-2.8-10.38-5.56-15.54-8.41q-30.77-17-61.51-34.11c-.64-.36-1.25-.77-2-1.21l19.83-34.12c3.22,1.76,6.28,3.42,9.32,5.1l47.39,26.14c.79.43,1.64.75,2.46,1.12Z"/><path class="cls-1" d="M0,271.5c1.64-2.46,3.35-4.89,4.91-7.4q12.44-20,24.82-40.12c.43-.7.93-1.36,1.53-2.22l32.42,21.34-45.88,72.5L0,304.5Q0,288,0,271.5Z"/><path class="cls-1" d="M167.5,0c-.11.87.06,1.91-.36,2.58-6.56,10.43-13.19,20.81-19.81,31.2l-25.51,40c-.52.82-1.08,1.63-1.74,2.61L87.14,55,122,0Z"/><path class="cls-1" d="M604,373l-28.28-15.83-2.81-1.57,20.16-35.78L622.82,336q32.64,17.77,65.27,35.55A16.42,16.42,0,0,1,690,373Z"/><path class="cls-1" d="M0,193a36.68,36.68,0,0,0,3.5-4.14q16.86-27,33.62-54c.48-.77,1-1.52,1.67-2.55L71,153.5,30.28,217.3,0,197Q0,195,0,193Z"/><path class="cls-1" d="M879,373c-4.85-2.84-9.69-5.71-14.56-8.52s-9.67-5.48-14.77-8.37l18.12-33.33c.76.34,1.43.58,2,.92q43.88,23.93,87.74,47.89A17.32,17.32,0,0,1,959.5,373Z"/><path class="cls-1" d="M134,373c1.29-2.2,2.51-4.45,3.88-6.6q16.17-25.35,32.39-50.67c.35-.54.75-1.05,1.23-1.72l32.18,21.16c-2.22,3.52-4.37,6.93-6.52,10.35q-8.2,13-16.41,25.94A14.52,14.52,0,0,0,180,373Z"/><path class="cls-1" d="M1097,55c-4.55-2.4-9.12-4.73-13.63-7.2Q1059.94,35,1036.55,22.1c-.29-.16-.56-.34-1.06-.65,2.72-5,5.45-9.88,8.12-14.82,1.18-2.18,2.26-4.41,3.39-6.62h36.5L1097,7.5Z"/><path class="cls-1" d="M1097,301q-14.33-7.82-28.66-15.64-13.45-7.38-26.86-14.82c-.65-.36-1.27-.75-2.06-1.22L1058.3,235c.78.39,1.51.71,2.2,1.09q17,9.44,34,18.89a23.41,23.41,0,0,0,2.47,1Z"/><path class="cls-1" d="M527.5,373c-5.59-2.29-11.17-4.62-16.78-6.87-5.24-2.11-10.51-4.14-16.1-6.33l10-37.87a43,43,0,0,1,5.09,2q26.72,14.86,53.38,29.82c.28.16.53.37,1.41,1-2.66,3.61-5.31,7.15-7.89,10.74-1.77,2.46-3.45,5-5.16,7.48Z"/><path class="cls-1" d="M898,0l6,3.85-20,36.2L858,25.33q-21.16-12-42.31-24A14.49,14.49,0,0,1,814,0Z"/><path class="cls-1" d="M108,0l7,5.09L84.53,53.32l-41.33-27L65.56,17.6a44.58,44.58,0,0,1,4.89-1.85A18.64,18.64,0,0,0,82.78,6.16,66.93,66.93,0,0,1,87,0Z"/><path class="cls-1" d="M0,349c2.69-4.05,5.42-8.08,8.05-12.16,3.55-5.52,7-11.08,10.69-16.85l30.14,19.14c-5.43,8.53-10.75,16.85-16,25.2-1.82,2.87-3.57,5.78-5.35,8.68H0Q0,361,0,349Z"/><path class="cls-1" d="M330,0l27.12,18.28L335.54,51.83,302.81,30.64c.5-.85.93-1.62,1.4-2.37q8.3-13.05,16.6-26.1c.44-.69.79-1.44,1.19-2.17Z"/><path class="cls-1" d="M358.5,373c1.75-4.82,3.45-9.66,5.25-14.47q6.12-16.33,12.32-32.62c.26-.69.57-1.36,1-2.33L407.67,338,396,373Z"/><path class="cls-1" d="M249.5,0l12,8.07-22.9,35.65L208.09,22.39,223,0Z"/><path class="cls-1" d="M0,33c7.75-3.2,15.55-6.29,23.23-9.65a9.46,9.46,0,0,1,9.93.87L7.39,97.53,0,90Z"/><path class="cls-1" d="M407,0l8,5.56L393.6,38.77,361.5,17.38,372.5,0Z"/><path class="cls-1" d="M1097,252.5c-2.78-1.46-5.59-2.87-8.34-4.39-9.53-5.26-19-10.56-28.86-16l18.35-33.25c2.92,1.6,5.72,3.15,8.54,4.67,3.43,1.84,6.87,3.65,10.3,5.47Z"/><path class="cls-1" d="M183.5,373l22.75-36,33.63,21.54c-2.64,4.14-5.18,8.11-7.69,12.1A25.81,25.81,0,0,0,231,373Z"/><path class="cls-1" d="M709.5,373l17-31.72a20.55,20.55,0,0,1,1.92.81q26.8,14.85,53.57,29.74A11.57,11.57,0,0,1,783.5,373Z"/><path class="cls-1" d="M31,373l20.54-32.19,34.54,21.93L79.5,373Z"/><path class="cls-1" d="M399.5,373c1.13-3.63,2.21-7.28,3.4-10.89,2.46-7.49,5-15,7.6-22.79l31,14.56-6,19.12Z"/><path class="cls-1" d="M0,201l24.71,16.33c1.24.82,2.45,1.68,3.82,2.63l-9.06,14.66q-9,14.51-18,29A18.52,18.52,0,0,1,0,265.5Q0,233.25,0,201Z"/><path class="cls-1" d="M983,373l14.55-26,16.55,9q14.2,7.77,28.38,15.56c.71.39,1.35.91,2,1.37Z"/><path class="cls-1" d="M30.5,0c1.63,4.27,3.34,8.5,4.86,12.8C36.75,16.75,36.63,17,34.24,21c-1.27-.51-2.55-1.44-3.84-1.47-2.52-.05-5.24-.11-7.54.74C15.16,23.12,7.61,26.39,0,29.5V0Z"/><path class="cls-1" d="M0,139.5c1.69-4.13,3-8.49,5.18-12.31,2.08-3.58,5.11-6.64,7.87-9.79.32-.37,1.78-.13,2.44.26,5,3,10,6,14.89,9.06,1.89,1.18,3.71,2.47,5.73,3.83-3.82,6.09-7.51,12.09-11.37,18-.39.6-1.84.84-2.74.73-6.68-.83-13.35-1.79-20-2.69a19.52,19.52,0,0,0-2-.07Q0,143,0,139.5Z"/><path class="cls-1" d="M470,0c-1.47,2.28-2.88,4.61-4.43,6.84-4.37,6.27-8.81,12.51-13.34,18.92L419.57,4.64,422,0Z"/><path class="cls-1" d="M624.5,0,609.78,26.18c-9-8-20.48-10.42-30.72-15.73L581.5,0Z"/><path class="cls-1" d="M290,373c3.29-5.08,6.57-10.17,9.88-15.24,4.41-6.73,8.85-13.45,13.49-20.49l15,11.71c-4.46,7.26-8.8,14.31-13.11,21.38A26.82,26.82,0,0,0,314,373Z"/><path class="cls-1" d="M219,0,205.4,21C194.76,14.1,184.3,7.35,173.84.59c-.17-.11-.23-.39-.34-.59Z"/><path class="cls-1" d="M83,0c-2.24,3.27-4.46,6.56-6.75,9.8a3.23,3.23,0,0,1-1.46.86q-15.52,6.08-31,12.12a7.4,7.4,0,0,1-1.22.2l10-23Z"/><path class="cls-1" d="M1043.5,0l-10.61,19.81a11.54,11.54,0,0,1-1.48-.55Q1014.71,10.12,998,.94A5.82,5.82,0,0,1,997,0Z"/><path class="cls-1" d="M0,149.5l22.19,2.9c-.38.79-.57,1.31-.86,1.78q-10,16.22-20.08,32.41A10.88,10.88,0,0,1,0,188Q0,168.75,0,149.5Z"/><path class="cls-1" d="M718.5,0c-.39.8-.59,2-1.21,2.31A19.2,19.2,0,0,1,711,4.46c-13.08,1-26.19,1.69-39.28,2.54-4.06.26-8.11.79-12.17,1a10.18,10.18,0,0,1-4.48-.88c-3.93-1.78-7.76-3.78-11.61-5.73a17.17,17.17,0,0,1-2-1.35Z"/><path class="cls-1" d="M542.5,0,548,3.37c-3.42,3-6.75,5.92-10.17,8.78a2.49,2.49,0,0,1-1.86.16Q510.66,6.41,485.34.46A3.66,3.66,0,0,1,484.5,0Z"/><path class="cls-1" d="M439,373l5.24-17.75,32.07,14.86L475.5,373Z"/><path class="cls-1" d="M1097,205.5l-17-9.15c0-.43-.06-.63,0-.75q8.19-14.83,16.41-29.65c.11-.19.35-.3.54-.45Z"/><path class="cls-1" d="M323.5,373c1.78-3.07,3.54-6.16,5.36-9.21s3.89-6.35,6-9.74l15.47,12.06a30.11,30.11,0,0,0,3.16,2.43C355.31,369.64,356,371,355,373Z"/><path class="cls-1" d="M0,308.5c2.42,1.39,4.86,2.72,7.24,4.17,2.9,1.77,5.74,3.65,8.89,5.67L0,343.5Q0,326,0,308.5Z"/><path class="cls-1" d="M761,0c-1.37,2.81-2.7,5.65-4.12,8.44-1.16,2.28-2.43,4.5-3.76,7L726.15.75,732,0Z"/><path class="cls-1" d="M318.5,0,301.24,27.06c-1.77-6-3.46-11.61-5-17.24-.14-.51.68-1.51,1.3-1.94,3.37-2.36,7.25-4.1,9.43-7.88Z"/><path class="cls-1" d="M368.5,0c-1.54,2.61-3,5.24-4.64,7.82s-3.31,5.13-5,7.78c-7.59-5.07-15-10-22.46-15C336.2.46,336.12.2,336,0Z"/><path class="cls-1" d="M566,373c-.08-5.4.71-7.52,5.52-14.63l26,14.63Z"/><path class="cls-1" d="M840.5,373l7.7-14.27L872.5,373Z"/><path class="cls-1" d="M292.5,0,294,7.48c-8.89.33-17.37.11-23.53-7.48Z"/><path class="cls-1" d="M240.5,373l6.4-10.48L265.5,373Z"/><path class="cls-1" d="M634,0l16.37,8.38v.47L628,10.92,633.5,0Z"/><path class="cls-1" d="M83.5,373l5.18-8.69L101.5,373Z"/><path class="cls-1" d="M43.5,0l-5,11.79L34,0Z"/><path d="M1097,7.5,1083.5,0H1097Z"/><path class="cls-1" d="M573,0l-1.42,6.83-9.07-4.92,1-1.91Z"/><path class="cls-1" d="M305,0l-8.83,7.29-.78-.38L294.5,0Z"/><path class="cls-1" d="M266.5,0l-2.66,5.88L255.5,0Z"/><path class="cls-1" d="M0,115l.71-7.13,3,.14L0,116.5Q0,115.75,0,115Z"/><path class="cls-1" d="M0,94l4.24,5.25-.48.61L0,98Z"/><path class="cls-1" d="M418.5,0l-1.81,2.91L413,0Z"/><path class="cls-1" d="M909.95,246.54l19.94-35.61,15.31,7.52.61-1.21-15.06-7.78,38.82-70.86,106,58.8-60,107.61Z"/><path class="cls-1" d="M228.43,146.8l4.17-6.61-2.52-1.75-4.34,6.66-34.69-22.61,48.27-74.37,33.78,23-4.42,7,2.5,1.76,4.56-7,67.88,43.33-48.06,74.54Zm10.91-17.08L265.43,89l-2.66-1.63L236.71,128Z"/><path class="cls-1" d="M528,178.66l-33.28-21a10.25,10.25,0,0,0,1.12-2.42,2.51,2.51,0,0,0-.52-1.93c-.34-.35-1.2-.19-1.82-.25,0,.63.11,1.26.12,1.89s-.06,1-.12,1.76l-28.39-20c3.52-5.58,7.18-11.29,10.76-17,15.77-25.37,31.32-50.89,47.39-76.07,4.76-7.46,11.33-13.75,16.41-21,3.54-5.08,7.34-6.44,13.17-4.69,4.49,1.35,9.3,1.68,14.18,2.5a19.89,19.89,0,0,1-.32,2Q558.54,52.65,550.33,83c-1.09,4-1.49,8,.72,11.83a2.74,2.74,0,0,1-.17,2.06c-6.81,16.07-9,33.35-13.18,50.1a41.69,41.69,0,0,0-.63,5c-8.93-5.27-17.57-10.38-26.22-15.46-.1-.06-.39.22-1.22.72l26.18,16c-4.62,6.9-4.72,15.11-7,22.68Z"/><path class="cls-1" d="M534.9,15.67c-1.34,1.62-2.68,3.4-4.18,5C518.55,33.81,510,49.38,500.57,64.41q-20.52,32.82-41,65.69c-.48.77-1,1.51-1.64,2.5-15.12-10-31-18.65-45.66-29.4.85-1.43,1.33-2.28,1.86-3.1C428.62,77.52,443,54.87,457.61,32.43c6.46-9.9,13.51-19.4,20.38-29a2.84,2.84,0,0,1,2.41-.85q27.11,6.24,54.19,12.66C534.64,15.22,534.67,15.32,534.9,15.67Z"/><path class="cls-1" d="M368.9,77.08l-23.6,36.58c-34.88-22.47-70.13-44-104.09-68.19L264.27,9.58Z"/><path class="cls-1" d="M822.32,151.88l-19.85,36L698.23,130l20.15-36Z"/><path class="cls-1" d="M889.39,283.76l19.09-34.44,105.24,58.24-17.39,35.25Z"/><path class="cls-1" d="M721,334.38,616.84,276.49l19.19-35,104.32,58Z"/><path class="cls-1" d="M658.22,201.5l18.54-33.14L781,226.68l-19.46,34.57C726.18,242.8,692.07,222.63,658.22,201.5Z"/><path class="cls-1" d="M1009.39,62.32,988.9,99.53,891.13,44.1,911.24,7.64Z"/><path class="cls-1" d="M711.28,90l-20.23,36.13-97.29-53.9,20-36.84Z"/><path class="cls-1" d="M678.29,165.62l18.4-32.86L801,190.62,782.56,224Z"/><path class="cls-1" d="M719.91,91.25l18.48-32.92L842.3,115.67l-18.46,33.47Z"/><path class="cls-1" d="M926.76,210.06l-19.59,35-97.51-53.33,19.8-35.9Z"/><path class="cls-1" d="M971.29,136l19.09-32.1,104.81,57.87L1077,194.57Z"/><path class="cls-1" d="M759.6,264.72l-17.71,32-104.39-58,18.82-33.88Z"/><path class="cls-1" d="M758.77,22.14,861.49,80.88l-17.67,32L739.94,55.6Z"/><path class="cls-1" d="M866.24,319.08c-10.28-5-20.49-9.52-30.23-14.89-4.65-2.57-8.39-6.78-12.6-10.18a18,18,0,0,0-4.17-2.66,30.66,30.66,0,0,1-8.5-6,23.22,23.22,0,0,0-16.12-6.05c-1.31,0-2.61.88-4.24,1.47-4.36-9-14.42-10-21.95-15.14l19.71-35,97,54.39Z"/><path class="cls-1" d="M870.17,82.08l19.44-35.23,98,55.55-19.06,32.07Z"/><path class="cls-1" d="M865.45,320.52l-18.51,34L749.07,300.6l18.47-33.36c5.65,2.8,11.19,5.27,16.43,8.28,1.89,1.09,3.18,3.36,4.5,5.26s2.38,2.26,4.28.92a5.1,5.1,0,0,1,3-.75,23.47,23.47,0,0,1,14.39,5.91c2.36,2,5.09,3.62,7.61,5.46,3.48,2.54,7.16,4.86,10.33,7.74a58.64,58.64,0,0,0,15.11,9.51C850.57,313,857.82,316.75,865.45,320.52Z"/><path class="cls-1" d="M886.63,282.28,789.7,227.91l18.44-33.4,97.54,53.35Z"/><path class="cls-1" d="M849.46,119.61l97.41,53.76-18.49,34L831,153.11Z"/><path class="cls-1" d="M556.62,146.1l19.7-34.31,93.37,52.48-18.64,33.32Z"/><path class="cls-1" d="M966.86,137.14l-18.47,33.48L851,116.87l17.68-32Z"/><path class="cls-1" d="M419.12,212.19l21.5-37.42c4.42,3,8.54,5.76,12.7,8.49q30.49,20,61,39.85c1.63,1.06,1.9,1.95,1.36,3.8-3.67,12.78-7.19,25.61-10.77,38.41-.16.56-.36,1.1-.73,2.22Z"/><path class="cls-1" d="M649.49,200.3l-19.1,34.35c-.83-.43-1.56-.77-2.26-1.16Q586,209.84,543.89,186.21c-1.59-.89-2-1.66-1.44-3.48,2.1-6.66,3.73-13.48,6-20.06,1.66-4.74,4.12-9.19,6.32-14Z"/><path class="cls-1" d="M712.8,87.24l-97.43-54.6,7.35-12.76C626.12,14,626.13,14,633,13.5s13.59-1.32,20.39-1.78a10.14,10.14,0,0,1,5.44.92c21.87,12.52,43.65,25.18,65.46,37.81,2.23,1.29,4.47,2.55,6.94,4Z"/><path class="cls-1" d="M541.16,188.26l87.68,49.34L609.71,272.5c-6.5-3.6-12.9-7.13-19.29-10.68q-29.11-16.17-58.23-32.34c-1.17-.65-2-1.15-1.53-2.83,3.37-12.34,6.63-24.71,9.93-37.07A11.16,11.16,0,0,1,541.16,188.26Z"/><path class="cls-1" d="M608.19,275.27l-20.71,37.78c-.92-.47-1.72-.84-2.49-1.27l-65.2-36.31c-1.13-.63-2.35-1-1.81-2.91,3.82-13.52,7.53-27.06,11.4-41.06Z"/><path class="cls-1" d="M497.54,292.9c-34.68-11.69-69-23.31-103-36.37.77-1.51,1.12-2.25,1.52-3,2.79-5,5.6-10,8.55-15.27,4.23,2.7,8.3,5.36,12.45,7.91,1.21.75,2.77,2.67,4,.71s-1.23-2.53-2.38-3.3c-4.06-2.74-8.21-5.32-12.52-8.08l11.42-20.59,85.79,55.81Z"/><path class="cls-1" d="M381.22,136.71l-49.74,77.68-33.32-21.84,48.66-75.46C358.72,122.83,369.54,130.27,381.22,136.71Z"/><path class="cls-1" d="M133.49,289,87.78,360.08,53.22,338.16,99,266.32Z"/><path class="cls-1" d="M203.71,23.59,154.94,99l-32.2-20.9L171,2.5Z"/><path class="cls-1" d="M157.56,100.74l48.9-75.65L236.8,46.26l-48.35,74.49Z"/><path class="cls-1" d="M442.37,172.42l21.07-33.17c20.87,14.87,41.71,29.54,64,42.42L517,221.3Z"/><path class="cls-1" d="M176,222.82,135.2,286.37l-34.55-22.71L141.41,200Z"/><path class="cls-1" d="M44.22,117.63C34.33,112.1,26,104.23,14.5,101.86L40.39,28.21,82.84,56Z"/><path class="cls-1" d="M598.14,120.4l18.2-32,73.18,40.45-18.3,32.72Z"/><path class="cls-1" d="M66.3,244.81,96.38,264.6l-45.8,71.88L20.42,317.33Z"/><path class="cls-1" d="M241.59,355.87l-33.67-21.57,40.73-63.93c11.84,6.46,21.74,15.74,34.75,20.12Z"/><path class="cls-1" d="M531.72,332.61l-26.1-14.33,11.09-40.94,69.2,38.54-20.15,35.77L534.5,334.32l8.72-20.53a10,10,0,0,0,1-2.55,1.44,1.44,0,0,0-2.58-1.24,5.83,5.83,0,0,0-1,2q-3.91,9.18-7.81,18.36C532.47,331.08,532.1,331.8,531.72,332.61Z"/><path class="cls-1" d="M170.47,309.58,137.82,288.1l40.9-63.68,32.53,21.39Z"/><path class="cls-1" d="M246.13,268.51l-40.79,64-32.24-21.21,40.74-63.72Z"/><path class="cls-1" d="M73.58,155.23l31.68,20.9-39.77,64.4L32.87,219.06Z"/><path class="cls-1" d="M260.23,171.38l-29.15,44.92c-3.55-2.94-7-5.69-10.26-8.58a4.73,4.73,0,0,1-.92-2.47c-.5-2.36-.89-4.74-1.38-7.11A3.57,3.57,0,0,0,217.3,196c-.15.41-.49.85-.43,1.22.54,3.37,1.06,6.75,1.81,10.07a5.07,5.07,0,0,0,1.81,2.27c3.16,2.7,6.37,5.33,9,7.51-1.11,3.43-1.74,6.6-3.15,9.36-1.17,2.3-3.27,4.13-5.16,6.41l-33.74-21.94,39.35-61.46Z"/><path class="cls-1" d="M292.13,276.22c-12.52-4.69-23.32-12.42-34.48-19.91l38.84-61.11,33.16,21.73Z"/><path class="cls-1" d="M46.77,119.45l38.7-61.77,32.95,21.38L79.26,140.48Z"/><path class="cls-1" d="M261.71,172.35l32.17,21.14L255,254.68l-32.33-21.06c1-1.19,1.82-2.21,2.71-3.18,1.58-1.73,3.15-3.41,2.84-6.07a3.59,3.59,0,0,1,.77-2Q244.73,198,260.56,173.8C260.86,173.32,261.26,172.91,261.71,172.35Z"/><path class="cls-1" d="M121.06,80.77l32.18,20.9-39.51,61.12L81.9,142.19Z"/><path class="cls-1" d="M138.8,198.26,98,261.92,68.11,242.25l39.78-64.38Z"/><path class="cls-1" d="M116.35,164.49l39.51-61.12,31.07,20.17-39.28,61.2Z"/><path class="cls-1" d="M336.56,221.47l32.05,21L350.4,272.37l-3.45-1.2-.39.72,2.69,2.21c-2.62,3.87-5.26,7.77-7.92,11.66-3.79,5.53-3.79,5.53-10.25,3.5L301.84,280c-.55-.17-1.08-.4-1.82-.67L311.4,260.8l2.68.72.78-1-2.26-1c.58-3.52,2.7.46,3.74-1.45l-2-2.09Z"/><path class="cls-1" d="M184.84,209.18l-23.76-15.92c1.45-2.35,2.83-4.6,4.22-6.85,9.47-15.26,18.91-30.55,28.46-45.76,1.19-1.9,1.37-3-.65-4.43-2.38-1.64-4.5-3.65-6.91-5.64l3.29-5.36,34.65,22.59Z"/><path class="cls-1" d="M435.88,167.45,390,138.06l20.79-32.65a68.73,68.73,0,0,0,6.37,5.17c12.22,7.76,24.52,15.4,36.79,23.08.76.48,1.5,1,2.41,1.61Z"/><path class="cls-1" d="M722.66,2.43l29,15.75L732.8,51.63c-2-1.11-4-2.12-5.86-3.23q-27.16-16.07-54.28-32.21c-.72-.43-1.66-1.83-1.45-2.25.73-1.44.13-3.89,2.85-4,10.54-.59,21.09-1.2,31.63-1.91a39.7,39.7,0,0,0,9.06-1.31C717.32,5.88,719.6,4.13,722.66,2.43Z"/><path class="cls-1" d="M481.07,353.65l-31.79-14.8,16.29-53.51,31.18,10.58Z"/><path class="cls-1" d="M338.28,218.8l25.51-39.72,20.58,13.64-11.39,19c-1.78,3-1.46,4.8,1.42,6.74,7.65,5.16,15.34,10.25,23.28,15.55l-9.77,17.53Z"/><path class="cls-1" d="M446.45,337.5l-30.53-14.33,16.55-49.42,30.12,10.7Z"/><path class="cls-1" d="M382.87,134l-34.13-19.94,22.76-35.3,33,21.31Z"/><path class="cls-1" d="M400.17,262.22l29.37,10.47-16.44,49.16L383,307.77Z"/><path class="cls-1" d="M396.2,40.51,417.71,7.17l32.77,21.19L428.72,62.18Z"/><path class="cls-1" d="M370.58,74.47,338.17,53.54,359.76,20,391.9,41.4Z"/><path class="cls-1" d="M406.18,97.47l-33-21.3,21.29-33L427,64.8Z"/><path class="cls-1" d="M433.85,170.21l-21.51,37.4L388,191.4l24.23-35.65Z"/><path class="cls-1" d="M575.3,21.79c11.57.2,21.57,3.83,30.31,11.54l-19.3,35.46L565.88,57.27Z"/><path class="cls-1" d="M410.93,154.88,386.72,190.5l-21.24-14.08,22.64-35.48Z"/><path class="cls-1" d="M371.45,244.36l14.66,9.83a11.17,11.17,0,0,1-.6,1.42c-8.18,13.52-16.4,27-24.53,40.57-1,1.66-1.88,2-3.76,1.38-5.33-1.86-10.74-3.48-16.12-5.19Z"/><path class="cls-1" d="M357,367.45l-20.56-16.07L358.8,315l15.37,7.19Z"/><path class="cls-1" d="M592.54,75,613.6,86.85l-18.19,32c-5.7-3.16-11.27-6.23-16.8-9.38a1.74,1.74,0,0,1-.52-1.58C582.2,96.7,585.48,85.13,592.54,75Z"/><path class="cls-1" d="M351,312.07l-21,34.25-15-11.7L331.55,306Z"/><path class="cls-1" d="M387,194.46l23.82,15.89L399.38,231c-.65-.36-1.22-.62-1.74-1-6.95-4.57-13.86-9.21-20.86-13.7-1.77-1.14-1.82-2.06-.75-3.76C379.74,206.66,383.28,200.65,387,194.46Z"/><path class="cls-1" d="M159.72,192.36l-9.44-6,35-54.47c2.43,2,4.81,3.81,7,5.84.37.35.17,1.78-.23,2.43q-10.37,16.9-20.88,33.71Z"/><path class="cls-1" d="M585.38,70.09c-4.7,10.77-11.57,20-18.64,29.15-4.09-2.1-6.5-5.79-8.87-9.46a4.08,4.08,0,0,1-.13-2.91c2.48-9.14,5-18.26,7.59-27.38,0-.14.23-.23.46-.46Z"/><path class="cls-1" d="M393.12,258.75a10.55,10.55,0,0,1,1,.38c3.19,1.71,3.2,1.71,1.88,5.2q-7.59,20.15-15.19,40.3c-.2.52-.49,1-.83,1.67l-12.32-5.56Z"/><path class="cls-1" d="M268.27.54A16.92,16.92,0,0,1,270.05,2C275,7.27,281.24,9.06,288.27,9c6.06,0,6.07.05,7.75,5.83,1.3,4.45,2.58,8.9,4.06,14L265.21,6.57Z"/><path class="cls-1" d="M561,107.74c-6.65,11.19-16.47,22.46-20.86,36.88C544,128.7,545.73,112.3,552,98.5Z"/><path class="cls-1" d="M546.81,15.24l9-7.71L569,14.79c-1,4.12-1,4.08-4.77,3.42C558.66,17.22,553.09,16.31,546.81,15.24Z"/><path class="cls-1" d="M663.62,10.75l5.49-.43-1.24,3.22-4.26-2.15Z"/><path class="cls-1" d="M467.34,356.36l9.4,4.2-.24.57L467.14,357Z"/><path d="M239.34,129.71,236.71,128l26.06-40.7L265.43,89Z"/><text class="cls-2" transform="matrix(0.23, -0.97, 0.97, 0.23, 515.85, 267.25)">B<tspan class="cls-3" x="6.63" y="0">o</tspan><tspan x="11.96" y="0">wery</tspan></text><text class="cls-4" transform="matrix(0.88, 0.48, -0.48, 0.88, 579.68, 203.47)">E 4th St</text><text class="cls-4" transform="matrix(0.88, 0.48, -0.48, 0.88, 601.64, 168.42)">E 5th St</text><text class="cls-4" transform="matrix(0.88, 0.48, -0.48, 0.88, 558.51, 241.56)">E 3<tspan class="cls-5" x="14.07" y="0">r</tspan><tspan x="18.19" y="0">d St</tspan></text><text class="cls-4" transform="matrix(0.53, -0.85, 0.85, 0.53, 457.68, 124.97)">Broadway-Lafayette</text><text class="cls-4" transform="translate(340.67 192.81) rotate(-58.31)">Broadway</text><text class="cls-2" transform="translate(389.58 325.54) rotate(25.42)">Houston St</text><rect class="cls-1" x="573.13" y="38.95" width="67.15" height="15.48" transform="translate(99.41 -289.36) rotate(29.12)"/><text class="cls-4" transform="translate(581.27 37.56) rotate(29.12)">Astor Place</text><text class="cls-4" transform="matrix(0.88, 0.48, -0.48, 0.88, 534.89, 281.56)">E 2nd St</text><text class="cls-4" transform="matrix(0.84, 0.54, -0.54, 0.84, 443.96, 225.93)">Bond St</text><circle class="cls-6" cx="552.43" cy="29.79" r="8.24"/><path class="cls-1" d="M553.78,27.07a1.06,1.06,0,0,0-.2-.56,1.14,1.14,0,0,0-1-.5,1.5,1.5,0,0,0-1.44,1.14,7.07,7.07,0,0,0-.32,1.85,2.33,2.33,0,0,1,.9-.67,3.28,3.28,0,0,1,3.48.74,3.42,3.42,0,0,1,.9,2.44,4.13,4.13,0,0,1-.88,2.61,3.26,3.26,0,0,1-2.74,1.13,3.16,3.16,0,0,1-2.95-1.67,6.81,6.81,0,0,1-.74-3.37,15.29,15.29,0,0,1,.1-2,6,6,0,0,1,.71-2.25,3.62,3.62,0,0,1,1.19-1.23,3.2,3.2,0,0,1,1.75-.47,3.47,3.47,0,0,1,2.35.76,2.87,2.87,0,0,1,1,2Zm-2.47,6a1.47,1.47,0,0,0,1.17.54,1.3,1.3,0,0,0,1.09-.52,2.17,2.17,0,0,0,.4-1.35,2,2,0,0,0-.45-1.42,1.45,1.45,0,0,0-1.11-.49,1.48,1.48,0,0,0-.94.32,1.82,1.82,0,0,0-.61,1.53A2.07,2.07,0,0,0,551.32,33Z"/><circle class="cls-6" cx="382.95" cy="235.71" r="8.24"/><path class="cls-1" d="M384.31,233a1.06,1.06,0,0,0-.2-.56,1.14,1.14,0,0,0-1-.5,1.5,1.5,0,0,0-1.44,1.14,7.07,7.07,0,0,0-.32,1.85,2.33,2.33,0,0,1,.9-.67,3.28,3.28,0,0,1,3.48.74,3.42,3.42,0,0,1,.9,2.44,4.13,4.13,0,0,1-.88,2.61,3.26,3.26,0,0,1-2.74,1.13,3.16,3.16,0,0,1-2.95-1.67,6.81,6.81,0,0,1-.74-3.37,15.29,15.29,0,0,1,.1-2,6,6,0,0,1,.71-2.25,3.62,3.62,0,0,1,1.19-1.23,3.2,3.2,0,0,1,1.75-.47,3.47,3.47,0,0,1,2.35.76,2.87,2.87,0,0,1,1,2Zm-2.47,6a1.47,1.47,0,0,0,1.17.54,1.3,1.3,0,0,0,1.09-.52,2.17,2.17,0,0,0,.4-1.35,2,2,0,0,0-.45-1.42,1.45,1.45,0,0,0-1.11-.49,1.48,1.48,0,0,0-.94.32,1.82,1.82,0,0,0-.61,1.53A2.07,2.07,0,0,0,381.85,239Z"/><circle class="cls-7" cx="477.27" cy="22.14" r="8.24"/><path class="cls-1" d="M473.77,17.82h1.89l3.43,6v-6h1.68v8.64H479l-3.52-6.13v6.13h-1.68Z"/><circle class="cls-7" cx="496.96" cy="22.14" r="8.24"/><path class="cls-1" d="M500.8,23.75a3.22,3.22,0,0,1-.67,1.23l1,.93-.94,1-1-1a3.65,3.65,0,0,1-2.21.6,4,4,0,0,1-2.79-1,4.57,4.57,0,0,1-1.34-3.56,4.53,4.53,0,0,1,1.37-3.58,4,4,0,0,1,2.78-1,4,4,0,0,1,2.81,1,4.39,4.39,0,0,1,1.31,3.39A5.75,5.75,0,0,1,500.8,23.75Zm-3.27,1.16a3,3,0,0,0,.4-.15l-.87-.83.93-1,.88.83a4.11,4.11,0,0,0,.29-.74,4.24,4.24,0,0,0,.13-1.11,3.69,3.69,0,0,0-.59-2.25,2,2,0,0,0-1.74-.79,2.12,2.12,0,0,0-1.71.76,3.48,3.48,0,0,0-.64,2.28,3.15,3.15,0,0,0,.91,2.54,2.13,2.13,0,0,0,1.42.5A2.32,2.32,0,0,0,497.52,24.91Z"/><circle class="cls-7" cx="516.22" cy="22.14" r="8.24"/><path class="cls-1" d="M518.2,18a2.14,2.14,0,0,1,.81.6,2.69,2.69,0,0,1,.43.73,2.42,2.42,0,0,1,.16.91,2.59,2.59,0,0,1-.31,1.21,1.74,1.74,0,0,1-1,.84,1.61,1.61,0,0,1,.85.68,2.84,2.84,0,0,1,.25,1.35v.58a4.32,4.32,0,0,0,0,.8.72.72,0,0,0,.33.49v.22h-2q-.08-.29-.12-.46a4.25,4.25,0,0,1-.08-.74v-.8a1.63,1.63,0,0,0-.29-1.1,1.45,1.45,0,0,0-1-.28h-1.76v3.39H512.7V17.82h4.13A3.76,3.76,0,0,1,518.2,18Zm-3.73,1.28v2.32h1.94a2.07,2.07,0,0,0,.87-.14,1,1,0,0,0,.51-1,1.09,1.09,0,0,0-.5-1.05,1.79,1.79,0,0,0-.83-.15Z"/><rect class="cls-1" x="379.02" y="282.53" width="76.62" height="22.38"/><circle class="cls-8" cx="425.11" cy="294.99" r="8.24"/><path class="cls-1" d="M422,290.67h6.16v1.52h-4.37v2h3.83v1.5h-3.83v3.62H422Z"/><circle class="cls-8" cx="387.26" cy="294.99" r="8.24"/><path class="cls-1" d="M390.62,291.59a2.2,2.2,0,0,1,.4,1.32,1.92,1.92,0,0,1-.4,1.27,2.06,2.06,0,0,1-.66.49,1.92,1.92,0,0,1,1,.76,2.29,2.29,0,0,1,.34,1.27,2.52,2.52,0,0,1-.38,1.38,2.38,2.38,0,0,1-1.59,1.11,6,6,0,0,1-1.22.12H384.2v-8.64h4.17A2.65,2.65,0,0,1,390.62,291.59Zm-4.69.58v1.9H388a1.74,1.74,0,0,0,.91-.21.82.82,0,0,0,.35-.76.77.77,0,0,0-.46-.8,3.25,3.25,0,0,0-1-.13Zm0,3.33v2.3H388a2,2,0,0,0,.88-.15,1.09,1.09,0,0,0,.57-1.08.93.93,0,0,0-.55-.93,2.18,2.18,0,0,0-.86-.15Z"/><circle class="cls-8" cx="406.18" cy="294.99" r="8.24"/><path class="cls-1" d="M408.06,290.86a2.85,2.85,0,0,1,1.47,1.1,3.85,3.85,0,0,1,.62,1.39,6.69,6.69,0,0,1,.16,1.43,5.74,5.74,0,0,1-.69,2.92,3.12,3.12,0,0,1-2.9,1.61H403v-8.64h3.72A4.54,4.54,0,0,1,408.06,290.86Zm-3.31,1.31v5.64h1.67a1.8,1.8,0,0,0,1.78-1.26,4.43,4.43,0,0,0,.28-1.65,4.05,4.05,0,0,0-.41-2,1.75,1.75,0,0,0-1.65-.71Z"/><circle class="cls-8" cx="444.03" cy="294.99" r="8.24"/><path class="cls-1" d="M445.61,291.18h2.6v8.64h-1.68V294q0-.25,0-.71t0-.7l-1.64,7.25h-1.75l-1.62-7.25q0,.25,0,.7t0,.71v5.84h-1.68v-8.64h2.63l1.57,6.79Z"/><path class="cls-9" d="M538.75,145.57q-3.92-14.66-18.71-18.14c-1.09-.25-2.22-.34-3.33-.51h-2.76c-.76.1-1.53.16-2.29.3-9.52,1.79-16,7.22-19.19,16.36a19.44,19.44,0,0,0,.08,13.68A63.48,63.48,0,0,0,498,168a170,170,0,0,0,14.78,20.06c.83,1,1.68,2,2.56,3l.59-.65c4-4.65,7.9-9.46,11.49-14.48a96.43,96.43,0,0,0,9.69-16.14C539.17,155.23,540.08,150.52,538.75,145.57Z"/><path class="cls-10" d="M520,127.43c-1.09-.25-2.22-.34-3.33-.51h-1.39v64.15l.58-.64c4-4.65,7.9-9.46,11.49-14.48a96.43,96.43,0,0,0,9.69-16.14c2.09-4.59,3-9.29,1.66-14.25Q534.83,130.91,520,127.43Z"/><path class="cls-1" d="M504.06,151.71v-9.64a1.07,1.07,0,0,1,1.32-1.31H522a5.24,5.24,0,0,1,5.13,5.18c0,1.88-.24,3.77-.26,5.66a22.3,22.3,0,0,0,.25,5.09c.65,2.86-1.88,6-5.37,6-5.47-.08-10.94-.1-16.43-.1a1,1,0,0,1-1.23-1.26c.07-3.21,0-6.42,0-9.64h0Zm1.4,9.18c2.19-.62,2.73-1.39,2.72-3.1V144.91a.87.87,0,0,1,1-1.06h4.21c2.84.1,5.68.34,8.51.36a5.33,5.33,0,0,0,2-1l-.14-.6a13.33,13.33,0,0,0-2.68-.61c-4.79-.09-9.6-.08-14.4-.13-.93,0-1.2.32-1.15,1.3V155.6c-.16,1.79-.16,3.52-.16,5.35Zm3.44-1.71a1.72,1.72,0,0,0,.54.26c3.66.06,7.31.14,11,.13a2.29,2.29,0,0,0,2.56-1.79,37.37,37.37,0,0,0,.11-4.93.69.69,0,0,0-.45-.42c-1-.29-2.29,1.15-2.18,2.18.2,2,.29,3.09-2.29,2.91-2-.14-4.06-.13-6.09-.21a3.14,3.14,0,0,0-3.18,1.93Zm-.07-7.78a1.15,1.15,0,0,0,.4.25c4.16,0,8.32.08,12.48,0a1.87,1.87,0,0,0,1.33-1.23,20.77,20.77,0,0,0,0-4.18,1.85,1.85,0,0,0-.73-1.24,3.51,3.51,0,0,0-1.72.83,1.72,1.72,0,0,0-.08,1.24c.29,1.7-.07,2.56-1.26,2.6h-4.74c-2,0-4.21-.42-5.69,1.78Zm6.7,4.9h0q1.22.06,2.43,0a2,2,0,0,0,.75-.61,2,2,0,0,0-.72-.76,48.71,48.71,0,0,0-5,0,2.23,2.23,0,0,0-.87.69,2.29,2.29,0,0,0,.86.68,23.67,23.67,0,0,0,2.57.06Zm3.25-8.12v-.52a9.69,9.69,0,0,0-1.49-.3,37.1,37.1,0,0,0-4.07,0,2.91,2.91,0,0,0-1,.52,2.81,2.81,0,0,0,1,.63c1.45.1,2.89.13,4.35.1a4.86,4.86,0,0,0,1.23-.38Z"/></g></g></svg>