<?xml version="1.0" encoding="utf-8"?>
<!-- Generator: Adobe Illustrator 20.0.0, SVG Export Plug-In . SVG Version: 6.00 Build 0)  -->
<svg version="1.1" id="Layer_1" xmlns="http://www.w3.org/2000/svg" xmlns:xlink="http://www.w3.org/1999/xlink" x="0px" y="0px"
	 viewBox="0 0 234.7 19.3" style="enable-background:new 0 0 234.7 19.3;" xml:space="preserve">
<style type="text/css">
	.st0{fill:#D64527;}
</style>
<title>bbar-logo</title>
<path class="st0" d="M38.4,19.2c-2.5,0-5,0-7.6,0c-0.9,0-1-0.5-1-1.1c0-1.8,0-3.5,0-5.3c0-3.9,0.1-7.7,0-11.6c0-0.9,0.2-1.2,1.1-1.2
	c4.8,0,9.6,0,14.5,0c2.5,0,4.5,2,4.5,4.5c0,0.1,0,0.1,0,0.2c-0.1,2.3,0,4.5,0,6.8c0,1.5,0,3.1,0,4.6c0,1.3-2.3,3.2-4.5,3.1
	S40.7,19.2,38.4,19.2L38.4,19.2L38.4,19.2z M47.5,1.9c-0.8-0.4-1.6-0.6-2.5-0.8c-4.3-0.1-8.7,0-13,0c-0.4-0.1-0.8,0.1-0.9,0.5
	c0,0.1,0,0.3,0,0.4c0.1,2.3,0.2,4.6,0.1,6.8c0,2.7-0.2,5.5-0.2,8.2c0.1,0.3,0.3,0.6,0.5,0.8c0.7-0.4,1.3-0.9,1.8-1.5
	c0.2-0.8,0.3-1.7,0.2-2.5c0-3.1-0.1-6.3-0.2-9.4c-0.1-0.7,0.3-1.4,1-1.5c0.2,0,0.3,0,0.5,0c2.4,0.1,4.7,0,7.1,0c1,0,2,0,2.9,0.2
	C46,3.3,46.7,3,47.5,1.9L47.5,1.9z M34.3,16.1l0.1,0.4H36c2.8,0,5.5,0,8.3,0c0.9,0,2,0,2.1-1.2c0.1-1.5,0.1-2.9,0.1-4.4
	c0-0.7-0.5-0.9-1-0.5c-0.8,0.7-1.7,1.2-1.4,2.6s-0.1,1.6-1.5,1.6h-5.9C35.7,14.6,34.8,15.2,34.3,16.1z M40.3,9.6c1.6,0,3.2,0,4.7,0
	c1,0,1.6-0.3,1.5-1.4s0-2-0.1-3.1c-0.1-0.5-0.2-1-0.5-1.4c-0.6,0.2-1.1,0.5-1.6,0.9c-0.2,0.2-0.2,0.6-0.2,0.9
	c0.3,2.3,0.2,2.4-2.1,2.4c-1.7,0-3.3-0.1-5,0c-0.7,0.1-1.4,0.3-2,0.6c-0.2,0.2-0.4,0.5-0.6,0.8c0.3,0.2,0.6,0.3,0.9,0.3
	C37,9.7,38.7,9.7,40.3,9.6L40.3,9.6z M36.8,13.2c0.3,0.2,0.6,0.3,0.9,0.4c1.5,0,2.9,0,4.4,0c0.3-0.1,0.5-0.3,0.6-0.5
	c-0.1-0.3-0.3-0.6-0.6-0.7c-1.5,0-2.9,0-4.4,0C37.3,12.6,37,12.9,36.8,13.2L36.8,13.2z M36.8,6.1l0,0.4c0.4,0.2,0.9,0.3,1.3,0.4
	c1.2,0,2.5,0,3.8,0c0.3-0.1,0.6-0.2,0.8-0.4c-0.3-0.2-0.6-0.4-0.9-0.5c-1.3-0.1-2.7,0-4,0C37.4,5.9,37.1,6,36.8,6.1L36.8,6.1z"/>
<path class="st0" d="M0,9.5c0-2.8,0-5.6,0-8.4c-0.1-0.5,0.2-1,0.7-1.1C0.9,0,1,0,1.2,0C6,0,10.8,0,15.7,0c2.5,0.1,4.4,2.1,4.5,4.5
	c0,1.6-0.2,3.3-0.2,4.9c-0.1,1.5,0,3,0.2,4.4c0.6,2.5-1.6,5.2-4.7,5.2C10.7,19,5.9,19,1.1,19c-0.5,0.1-1-0.2-1.1-0.6
	c0-0.2,0-0.3,0-0.5C0.1,15.1,0,12.3,0,9.5L0,9.5L0,9.5z M1.3,17.5c1.9-0.5,2.4-1.2,2.4-2.7c0-3.7,0-7.5,0-11.2
	C3.5,3.2,3.8,2.8,4.2,2.7c0.1,0,0.2,0,0.3,0c1.2,0,2.5,0,3.7,0c2.5,0.1,5,0.3,7.4,0.3c0.6-0.2,1.2-0.5,1.8-0.9l-0.1-0.5
	c-0.8-0.3-1.5-0.4-2.3-0.5C10.8,1,6.6,1,2.4,0.9c-0.8,0-1,0.3-1,1.1c0,3.6,0,7.2,0,10.9C1.2,14.5,1.2,16,1.3,17.5L1.3,17.5z
	 M4.3,16.1c0.1,0.1,0.3,0.2,0.5,0.2c3.2,0,6.4,0.1,9.6,0.1c1,0.1,2-0.5,2.2-1.6c0.1-1.4,0.2-2.9,0.1-4.3c-0.1-0.2-0.2-0.3-0.4-0.4
	c-0.9-0.2-2,1-1.9,1.9c0.2,1.7,0.2,2.7-2,2.5c-1.8-0.1-3.5-0.1-5.3-0.2C5.8,14.3,4.7,15,4.3,16.1L4.3,16.1z M4.2,9.3
	c0.1,0.1,0.2,0.2,0.4,0.2c3.6,0,7.2,0.1,10.9,0c0.5-0.1,1-0.5,1.2-1.1c0.1-1.2,0.1-2.4,0-3.6C16.5,4.3,16.3,4,16,3.7
	c-0.6,0.1-1.1,0.3-1.5,0.7c-0.2,0.3-0.2,0.7-0.1,1.1c0.2,1.5-0.1,2.2-1.1,2.3c-1.4,0-2.8,0-4.1,0C7.4,7.8,5.5,7.4,4.2,9.3L4.2,9.3z
	 M10,13.5L10,13.5c0.7,0,1.4,0,2.1,0c0.3-0.1,0.5-0.3,0.6-0.5c-0.1-0.3-0.4-0.5-0.6-0.7c-1.5-0.1-2.9-0.1-4.4,0
	c-0.3,0.1-0.6,0.3-0.8,0.6c0.2,0.3,0.5,0.5,0.8,0.6C8.6,13.6,9.3,13.6,10,13.5L10,13.5z M12.9,6.5V6c-0.4-0.1-0.9-0.2-1.3-0.3
	c-1.2,0-2.4-0.1-3.5,0C7.7,5.8,7.4,6,7.1,6.2C7.4,6.4,7.7,6.6,8,6.8c1.3,0.1,2.5,0.1,3.8,0.1C12.2,6.8,12.5,6.7,12.9,6.5L12.9,6.5z"
	/>
<path class="st0" d="M173.4,12.8l5.7,6.3c-0.3,0.1-0.7,0.1-1,0.1c-2-0.1-3.9-0.1-5.9,0c-1.8,0.2-2.8-0.7-3.8-1.9
	c-1.2-1.5-2.4-2.9-3.6-4.4c-0.3-0.2-0.6-0.3-0.9-0.4c-0.1,0.3-0.2,0.6-0.2,0.9c0,1.6,0,3.2,0,4.9c0.1,0.4-0.2,0.9-0.7,0.9
	c-0.1,0-0.2,0-0.3,0h-5.6c-0.4,0.1-0.8-0.2-0.9-0.6c0-0.1,0-0.2,0-0.4c0-5.8,0-11.5,0-17.3c-0.1-0.5,0.2-0.9,0.7-1
	c0.1,0,0.2,0,0.3,0c5.1,0,10.1,0,15.2,0c2.2,0.1,3.9,1.8,3.9,4c-0.1,1.3-0.1,2.6,0,3.9c0.4,1.8-0.6,3.5-2.4,4.1
	c-0.1,0.1-0.3,0.2-0.4,0.3C173.5,12.4,173.5,12.6,173.4,12.8z M174.1,1.8c-0.8-0.3-1.7-0.5-2.5-0.6c-4.3-0.1-8.6,0-12.9-0.1
	c-0.6-0.1-1.2,0.3-1.3,0.9c0,0.2,0,0.3,0,0.5c0,1.2,0.1,2.4,0.1,3.7c0,3.7,0,7.4,0,11.1c0.1,0.3,0.3,0.5,0.6,0.6
	c1.1-0.2,1.8-1.2,1.7-2.3c-0.1-0.3-0.1-0.6-0.1-0.9c0-3.6,0.1-7.3,0.1-10.9c-0.1-0.4,0.1-0.8,0.6-0.9c0.1,0,0.3,0,0.4,0
	c1.5,0,3,0,4.5,0c2-0.1,4,0,6,0.2C172.6,3.3,173.3,3,174.1,1.8L174.1,1.8z M160.8,9.7c1.9,0,3.4,0,5,0c2,0,4,0.1,6,0.1
	c0.6,0,1.3,0,1.3-0.9c0-1.5,0-2.9-0.1-4.4c0-0.8-0.6-1-1.2-0.5c-0.8,0.5-1.2,1.5-1,2.4c0.2,1.5,0,1.5-1.4,1.5c-2,0-3.9,0-5.9,0
	C162.2,7.9,161.2,8.6,160.8,9.7z M172.1,16.7c-0.3-0.5-0.6-0.9-0.9-1.4c-1.3-1.5-2.6-3-3.9-4.5c-0.4-0.5-0.8-0.8-1.4-0.3
	s-0.9,0.9-0.2,1.7c1.5,1.7,2.9,3.4,4.3,5.1c0.3,0.3,0.6,0.5,1,0.5C171.5,17.5,171.9,17.1,172.1,16.7L172.1,16.7z M163.4,6.3
	c0.3,0.2,0.5,0.4,0.9,0.5c1.5,0,3.1,0.1,4.6,0.1c0.3-0.1,0.5-0.3,0.6-0.5c-0.2-0.2-0.5-0.3-0.7-0.4c-1.5,0-2.9,0-4.4,0
	C164.1,6,163.7,6.1,163.4,6.3L163.4,6.3z"/>
<path class="st0" d="M141,7.9c3.2,0,6.4,0,9.5,0c1.2,0,1.7,0.8,1.7,2.1c-0.1,1.5-0.1,3.1,0,4.6c0.2,2.5-1.7,4.6-4.5,4.6
	c-3.7,0-7.4,0-11.1,0c-2.2,0.1-4.1-1.7-4.1-3.9c0-0.2,0-0.5,0-0.7c0.2-3.3,0.2-6.7,0-10c-0.1-2.9,1.7-4.3,4.2-4.5
	c3.7-0.2,7.3-0.1,11,0c2.4-0.1,4.5,1.8,4.5,4.2c0,0.1,0,0.2,0,0.3c0.2,0.6-0.2,1.1-0.7,1.3c-0.2,0-0.3,0.1-0.5,0
	c-3.4,0-6.9,0-10.3,0c-1,0-1.5,0.1-1.4,1.3c0.1,1.8-0.1,3.6,0,5.4c0.1,0.4,0.4,0.8,0.8,0.9c1.4,0.1,2.8,0.1,4.3,0.1
	c0.3-0.1,0.5-0.3,0.6-0.5c-0.2-0.3-0.4-0.5-0.6-0.6c-0.8-0.1-1.6-0.1-2.4,0c-0.9,0.1-1.1-0.3-1.1-1.1C141,10.2,141,9.2,141,7.9z
	 M142.1,11.7c1.2,0,2.2,0,3.3,0c0.4,0,0.7,0,1.1,0.2c0.2,0.7,0.2,1.3,0.1,2c-0.3,0.4-0.8,0.7-1.3,0.7c-1.9,0.1-3.8,0-5.7,0
	c-0.7,0.1-1.4,0.3-2.1,0.5c-0.3,0.2-0.6,0.3-1,0.3c-0.3-0.3-0.4-0.7-0.4-1.1c0-3,0-6,0-9c0-2,0.5-2.5,2.6-2.6s4.4-0.1,6.6,0
	c0.8,0,1.6,0.2,2.5,0.2c0.5,0,0.9-0.1,1.3-0.3c0.3-0.2,0.4-0.4,0.5-0.7c-0.1-0.2-0.3-0.4-0.6-0.5c-0.7-0.2-1.4-0.3-2.1-0.4
	c-3.2,0-6.3,0-9.5,0c-2.3,0-3.6,1.3-3.6,3.5c0,2.8-0.1,5.6-0.1,8.4c0,1.1,0.1,2.2,0.3,3.3c0.1,0.9,0.6,0.9,1.4,0.5
	c0.4-0.3,1-0.5,1.5-0.5c3.4,0,6.7,0.1,10.1,0.1c1,0,1.8-0.7,1.9-1.7c0,0,0,0,0,0c0.1-1.3,0.1-2.5,0-3.8c-0.1-0.4-0.4-0.6-0.8-0.7
	c-1.4-0.1-2.8,0-4.1,0C143,10.2,142.3,10.8,142.1,11.7L142.1,11.7z"/>
<path class="st0" d="M97.4,12.7l6,6.5c-0.8,0-1.2,0.1-1.6,0.1c-1.8-0.1-3.7-0.1-5.5,0c-1.7,0.2-2.7-0.7-3.7-1.8
	c-1.2-1.4-2.4-2.9-3.7-4.3c-0.3-0.2-0.5-0.4-0.8-0.5c-0.2,0.3-0.3,0.7-0.3,1c0,1.5,0,3.1,0,4.6c0.1,0.4-0.1,0.9-0.6,1
	c-0.1,0-0.3,0-0.4,0c-1.6,0-3.2,0-4.9,0c-0.5,0.1-1-0.2-1.1-0.7c0-0.1,0-0.3,0-0.4c0-5.6,0-11.3,0-16.9c-0.1-0.5,0.2-1,0.7-1.1
	c0.2,0,0.3,0,0.5,0c4.7,0,9.3,0,14,0c2,0,3.8,1,4.7,2.8c0.2,0.3,0.2,0.7,0.2,1c0,1.4-0.1,2.8,0,4.2c0.2,1.5-0.6,2.9-1.9,3.6
	L97.4,12.7z M98.3,2.2V1.8c-0.9-0.3-1.8-0.5-2.8-0.6C91.4,1,87.3,1.1,83.1,1c-1.2,0-1.4,0.5-1.4,1.5c0,4.1,0.1,8.1,0.1,12.2
	c0,0.8-0.1,1.6-0.1,2.4c0,0.6,0.1,1.1,0.9,0.8c1-0.5,1.7-1.5,1.7-2.6c0-3.8,0-7.5,0-11.2c0-0.8,0.2-1.1,1.1-1.1c1.6,0.1,3.3,0,5,0
	c1.7-0.1,3.5,0,5.2,0.2C96.6,3.2,97.6,2.9,98.3,2.2L98.3,2.2z M84.8,9.7h3.2c2.7,0,5.4,0,8.1,0c0.5,0,1-0.3,1.2-0.8
	c0.1-1.4,0.2-2.8,0.1-4.2c0-0.9-0.7-1.1-1.4-0.6c-0.9,0.5-1.4,1.5-1.2,2.5c0.2,1.1-0.2,1.4-1.3,1.4c-2,0-3.9,0-5.9,0
	C86.3,7.8,85.7,8.6,84.8,9.7z M90.7,10c-0.2,0.1-0.5,0.3-0.7,0.5c-0.9,0.8-0.7,1.4,0.3,2.5c1.3,1.4,2.6,2.9,3.9,4.4
	c0.6,0.7,1.1,0.7,1.7,0s0.2-1.4-0.3-1.9c-1-1.1-2-2.3-3-3.4C91.9,11.3,91.3,10.7,90.7,10L90.7,10z M93.9,6.4l-0.1-0.5
	c-1.7,0-3.4,0-5.1,0C88.3,6,88,6.2,87.7,6.4c0.3,0.2,0.6,0.4,1,0.5c1.3,0,2.7,0,4,0C93.1,6.7,93.5,6.6,93.9,6.4L93.9,6.4z"/>
<path class="st0" d="M77.8,19.2c-2.4,0.1-4.8,0.1-7.2-0.1c-0.6-0.1-1.3-1.3-1.6-2.1c-0.7-1.8-0.9-2-2.8-2c-1.1,0-2.3,0-3.4,0
	c-0.6-0.1-1.2,0.3-1.3,1c0,0,0,0,0,0c-0.3,1-0.8,1.9-1.3,2.8c-0.2,0.2-0.5,0.4-0.8,0.4c-2.2,0-4.3,0-6.5,0c-0.1,0-0.3-0.1-0.4-0.2
	l1.3-2.3c1.4-2.6,2.9-5.2,4.3-7.9s2.6-5.2,3.9-7.8c0.2-0.7,0.9-1.1,1.6-1c0.6,0,1.1,0,1.7,0c2.6,0,2.7,0.1,3.8,2.5
	c1,2.1,2.2,4,3.2,6c0.5,1,1,2.1,1.6,3.1s1.1,2,1.6,3C76,16.1,76.8,17.6,77.8,19.2z M66,1.1c-0.8,0-1.6,0-2.4,0
	c-0.3,0.1-0.5,0.2-0.6,0.5c-0.3,0.5-0.6,1.1-0.9,1.6c-1.5,2.9-3,5.8-4.5,8.6c-1,1.9-2,3.7-3,5.6c1.1,0.1,2.2-0.4,3-1.2
	c1.3-2.4,2.6-4.8,3.9-7.2C62.9,6.4,63.9,3.5,66,1.1z M60.5,12.1c3.2,0.2,6.4,0.2,9.6-0.1l-4.4-8.1l-0.6,0.1c-0.1,1.1-0.1,2.1,0,3.2
	c0.4,1.1,0.9,2.2,1.5,3.3C64.3,10.4,62.1,10.2,60.5,12.1L60.5,12.1z M72.6,16.7c0-0.1,0-0.3-0.1-0.4c-0.7-1.2-1.4-2.4-2.1-3.5
	c-0.1-0.2-0.4-0.2-0.6-0.2c-0.8,0.4-1.1,1.3-0.7,2.1c0.5,0.8,0.9,1.6,1.5,2.4c0.2,0.3,0.4,0.5,0.8,0.6C71.8,17.4,72.2,17,72.6,16.7
	L72.6,16.7z"/>
<path class="st0" d="M205,19.2c-1.8,0-3.6,0-5.4,0c-1.1,0-2.1-0.2-3.1-0.4c-1.2-0.3-2-1.5-2-2.7c0-4.7,0-9.3-0.1-13.9
	c0-0.4,0-0.8,0.2-1.2c0.1-0.4,0.4-0.7,0.8-0.8c1.8-0.1,3.7-0.1,5.6,0c0.4,0.1,0.7,0.4,0.8,0.8c0,2.9,0,5.7,0,8.6c0,1.1,0,2.2,0,3.3
	c0,0.9,0.6,0.8,1.1,0.8c2.8,0,5.7,0.1,8.5,0c1.2,0,1.5,0.3,1.4,1.5c-0.1,1.1-0.1,2.1-0.1,3.2c0.1,0.4-0.1,0.8-0.5,1
	c-0.2,0-0.3,0-0.5,0C209.4,19.3,207.2,19.3,205,19.2L205,19.2L205,19.2z M197.9,15.8c-0.1-0.1-0.1-0.2-0.1-0.3c0-3.5-0.1-7,0.1-10.5
	c0.1-1.1-0.4-2.1-1.2-2.9c-0.2-0.2-0.5-0.3-0.8-0.3c-0.1,0.3-0.2,0.6-0.2,0.8c0,2.6,0,5.2,0,7.8c0,1.7,0,3.5,0,5.2
	c0,1.5,0.7,1.7,1.9,1c0.3-0.2,0.6-0.3,1-0.4c2.7,0.1,5.3,0.3,8,0.3c1.6,0,3.4,0.3,4.3-1.8c-2.3,0-4.4,0-6.6,0s-4.3-0.5-6.2,1.2
	C198,15.9,197.9,15.8,197.9,15.8L197.9,15.8z"/>
<path class="st0" d="M226.9,19.3c-2.2,0-4.4,0.1-6.6,0s-4.2-1.4-4.1-4.2c0.1-4.6,0.1-9.3,0-14c-0.1-0.5,0.2-0.9,0.6-1
	c0.1,0,0.2,0,0.4,0c1.7,0,3.4,0,5.1,0c0.9,0,1.1,0.3,1.1,1.2c0,3.6,0,7.3,0,10.9c0,1.5,0,1.5,1.5,1.5c2.9,0,5.8,0,8.6,0
	c0.5-0.1,1.1,0.2,1.2,0.8c0,0.1,0,0.3,0,0.4c0,1.1,0,2.2,0,3.3c0.1,0.5-0.3,1.1-0.8,1.2c-0.1,0-0.3,0-0.4,0
	C231.3,19.3,229.1,19.3,226.9,19.3L226.9,19.3L226.9,19.3z M217.5,1.6c-0.1,0.3-0.1,0.6-0.2,0.9c0,4.3,0,8.5,0.1,12.8
	c0,0.4,0.1,0.8,0.3,1.2c0.3,0.7,0.8,0.9,1.5,0.4c0.4-0.3,0.9-0.5,1.4-0.5c3.1,0.1,6.1,0.2,9.2,0.3c1.5,0.1,2.5-0.7,3.6-1.9
	c-0.6,0-0.9-0.1-1.2-0.1c-2.7,0-5.3,0-7.9,0c-1.2-0.1-2.4,0.1-3.4,0.7c-0.9,0.6-1.2,0.1-1.2-0.8c0-3.1-0.1-6.1,0.1-9.2
	C219.9,3.8,219,2.2,217.5,1.6L217.5,1.6z"/>
<path class="st0" d="M119.9,11.2c-0.5,0-1,0.1-1.5,0.1c-0.8,0-1.5,0-2.2,0.1c-0.3,0.1-0.5,0.3-0.7,0.6c0.2,0.2,0.5,0.3,0.8,0.4
	c1.7,0,3.5,0,5.2,0c0.8,0,1.1,0.2,1,1c-0.1,0.4-0.1,0.7,0,1.1c0.2,0.5,0,1-0.5,1.2c-0.2,0.1-0.4,0.1-0.6,0c-1-0.1-1.4,0.3-1.3,1.3
	c0,2.1,0,2.1-2.2,2.2h-0.2c-2,0.1-2,0.1-2-2c0-1.6,0-1.5-1.6-1.6c-1.8-0.2-2.9-0.8-2.9-2.9s0.1-4,0-5.9c-0.1-1.5,1-2.9,2.5-3
	c0.2,0,0.3,0,0.5,0c1.2,0,1.6-0.5,1.5-1.6c-0.1-1.9,0-1.9,1.9-2h0.6c1.9,0.1,2,0.1,1.9,2c0,1.2,0.3,1.7,1.5,1.5c0.4-0.2,0.8,0,1,0.4
	c0.1,0.2,0.1,0.4,0,0.6c-0.3,2.9,0.7,2.6-2.7,2.7c-1,0-2-0.1-3-0.1c-0.4,0-0.8,0.1-1.3,0.2v0.5c0.9,0.1,1.9,0.1,2.8,0.2
	c1.7,0.1,1.7,0.1,1.6,1.7C119.9,10.2,119.9,10.7,119.9,11.2z M121,5.2l-0.1-0.4c-2.5,0-5.1-0.1-7.6,0c-1,0-1.4,0.9-1.4,1.9
	c0,2.2,0,4.4,0,6.6c0,0.9,0.4,1.1,1.2,0.7c0.3-0.2,0.7-0.2,1-0.2c2,0,3.9,0,5.9,0c0.3-0.1,0.6-0.3,0.9-0.5c-2.1-0.2-4.2-0.3-6.3-0.1
	c-1.1,0.1-1.3,0.2-1.4-1c0-1.6,0-3.2,0-4.8c-0.1-0.8,0.4-1.5,1.1-1.6c0.2,0,0.4,0,0.5,0c1.3,0,2.6,0.1,3.9,0
	C119.5,5.5,120.3,5.4,121,5.2L121,5.2z M118.9,9.2c-1.6-1-4.4-0.6-5,0.5C115.6,9.5,117.1,10,118.9,9.2L118.9,9.2z M116.5,1l-0.3,0.3
	c0,0.6,0,1.2,0,1.9c0.1,0.3,0.2,0.5,0.5,0.6c0.2,0,0.4,0,0.6-0.2c0.2-0.6,0.2-1.1,0.1-1.7C117.1,1.5,116.8,1.2,116.5,1L116.5,1z
	 M116,17.7l0.4,0.3c0.4-0.2,0.7-0.4,0.9-0.8c0.1-0.6,0-1.2-0.2-1.7c-0.2-0.1-0.4-0.2-0.6-0.1c-0.2,0.1-0.4,0.3-0.5,0.6
	C116,16.6,116,17.2,116,17.7z"/>
<path class="st0" d="M189.7,9.6c0,2.9,0,5.8,0,8.8c-0.1,0.4-0.3,0.7-0.7,0.8c-1.9,0.1-3.7,0.1-5.6,0c-0.4-0.2-0.6-0.6-0.7-1
	c0-2.2,0-4.4,0-6.6c0-3.5,0-6.9,0-10.4c-0.1-0.5,0.1-1,0.6-1.1c0.2,0,0.3-0.1,0.5,0c1.6,0,3.2,0,4.9,0c0.9,0,1.2,0.2,1.1,1.2
	c-0.1,2.8,0,5.6,0,8.4l0,0L189.7,9.6z M187.9,18.2c-0.1-0.3-0.3-0.6-0.5-0.9c-1.1-0.6-1.2-1.6-1.1-2.8c0-2.5,0-5,0-7.5
	c0-2.1-0.5-4.4,2-5.6c0-0.1,0-0.2,0-0.3c-1.2,0-2.4,0-3.6,0c-0.3,0.2-0.5,0.5-0.5,0.9c0,5,0,10-0.1,15c-0.1,0.5,0.2,1,0.7,1.1
	c0.1,0,0.1,0,0.2,0C185.8,18.2,186.7,18.2,187.9,18.2L187.9,18.2z"/>
<path d="M38.4,54c-2.5,0-5,0-7.6,0c-0.9,0-1-0.5-1-1.1c0-1.8,0-3.5,0-5.3c0-3.9,0.1-7.7,0-11.6c0-0.9,0.2-1.2,1.1-1.2
	c4.8,0,9.6,0,14.5,0c2.5,0,4.5,2,4.5,4.5c0,0.1,0,0.1,0,0.2c-0.1,2.3,0,4.5,0,6.8c0,1.5,0,3.1,0,4.6c0,1.3-2.3,3.2-4.5,3.1
	S40.7,53.9,38.4,54L38.4,54L38.4,54z M47.5,36.6c-0.8-0.4-1.6-0.6-2.5-0.8c-4.3-0.1-8.7,0-13,0c-0.4-0.1-0.8,0.1-0.9,0.5
	c0,0.1,0,0.3,0,0.4c0.1,2.3,0.2,4.6,0.1,6.8c0,2.7-0.2,5.5-0.2,8.2c0.1,0.3,0.3,0.6,0.5,0.8c0.7-0.4,1.3-0.9,1.8-1.5
	c0.2-0.8,0.3-1.7,0.2-2.5c0-3.1-0.1-6.3-0.2-9.4c-0.1-0.7,0.3-1.4,1-1.5c0.2,0,0.3,0,0.5,0c2.4,0.1,4.7,0,7.1,0c1,0,2,0,2.9,0.2
	C46,38.1,46.7,37.7,47.5,36.6L47.5,36.6z M34.3,50.8l0.1,0.4h1.6c2.8,0,5.5,0,8.3,0c0.9,0,2,0,2.1-1.2c0.1-1.5,0.1-2.9,0.1-4.4
	c0-0.7-0.5-0.9-1-0.5c-0.8,0.7-1.7,1.2-1.4,2.6s-0.1,1.6-1.5,1.6h-5.9C35.7,49.4,34.8,49.9,34.3,50.8z M40.3,44.4c1.6,0,3.2,0,4.7,0
	c1,0,1.6-0.3,1.5-1.4s0-2-0.1-3.1c-0.1-0.5-0.2-1-0.5-1.4c-0.6,0.2-1.1,0.5-1.6,0.9c-0.2,0.2-0.2,0.6-0.2,0.9
	c0.3,2.3,0.2,2.4-2.1,2.4c-1.7,0-3.3-0.1-5,0c-0.7,0.1-1.4,0.3-2,0.6c-0.2,0.2-0.4,0.5-0.6,0.8c0.3,0.2,0.6,0.3,0.9,0.3
	C37.1,44.4,38.7,44.4,40.3,44.4L40.3,44.4z M36.8,48c0.3,0.2,0.6,0.3,0.9,0.4c1.5,0,2.9,0,4.4,0c0.3-0.1,0.5-0.3,0.6-0.5
	c-0.1-0.3-0.3-0.6-0.6-0.7c-1.5,0-2.9,0-4.4,0C37.3,47.4,37,47.6,36.8,48L36.8,48z M36.8,40.8l0,0.4c0.4,0.2,0.9,0.3,1.3,0.4
	c1.2,0,2.5,0,3.8,0c0.3-0.1,0.6-0.2,0.8-0.4c-0.3-0.2-0.6-0.4-0.9-0.5c-1.3-0.1-2.7,0-4,0C37.4,40.7,37.1,40.7,36.8,40.8L36.8,40.8z
	"/>
<path d="M0.1,44.3c0-2.8,0-5.6,0-8.4c-0.1-0.5,0.2-1,0.7-1.1c0.2,0,0.3,0,0.5,0c4.8,0,9.6,0,14.5,0c2.5,0.1,4.4,2.1,4.5,4.5
	c0,1.6-0.2,3.3-0.2,4.9c-0.1,1.5,0,3,0.2,4.4c0.6,2.5-1.6,5.2-4.7,5.2c-4.8-0.1-9.5-0.1-14.3-0.1c-0.5,0.1-1-0.2-1.1-0.6
	c0-0.2,0-0.3,0-0.5C0.1,49.9,0.1,47.1,0.1,44.3L0.1,44.3L0.1,44.3z M1.3,52.3c1.9-0.5,2.4-1.2,2.4-2.7c0-3.7,0-7.5,0-11.2
	c-0.1-0.4,0.2-0.8,0.6-0.9c0.1,0,0.2,0,0.3,0c1.2,0,2.5,0,3.7,0c2.5,0.1,5,0.3,7.4,0.3c0.6-0.2,1.2-0.5,1.8-0.9l-0.1-0.5
	c-0.8-0.3-1.5-0.4-2.3-0.5c-4.2-0.1-8.4-0.1-12.5-0.1c-0.8,0-1,0.3-1,1.1c0,3.6,0,7.2,0,10.9C1.2,49.3,1.2,50.8,1.3,52.3L1.3,52.3z
	 M4.3,50.8C4.4,50.9,4.6,51,4.7,51c3.2,0,6.4,0.1,9.6,0.1c1,0.1,2-0.5,2.2-1.6c0.1-1.4,0.2-2.9,0.1-4.3c-0.1-0.2-0.2-0.3-0.4-0.4
	c-0.9-0.2-2,1-1.9,1.9c0.2,1.7,0.2,2.7-2,2.5c-1.8-0.1-3.5-0.1-5.3-0.2C5.8,49.1,4.7,49.8,4.3,50.8L4.3,50.8z M4.2,44
	c0.1,0.1,0.2,0.2,0.4,0.2c3.6,0,7.2,0.1,10.9,0c0.5-0.1,1-0.5,1.2-1.1c0.1-1.2,0.1-2.4,0-3.6c-0.1-0.4-0.3-0.8-0.6-1.1
	c-0.6,0.1-1.1,0.3-1.5,0.7c-0.2,0.3-0.2,0.7-0.1,1.1c0.2,1.5-0.1,2.2-1.1,2.3c-1.4,0-2.8,0-4.1,0C7.4,42.6,5.5,42.2,4.2,44L4.2,44z
	 M10.1,48.3L10.1,48.3c0.7,0,1.4,0,2.1,0c0.3-0.1,0.5-0.3,0.6-0.5c-0.1-0.3-0.4-0.5-0.6-0.7c-1.5-0.1-2.9-0.1-4.4,0
	c-0.3,0.1-0.6,0.3-0.8,0.6c0.2,0.3,0.5,0.5,0.8,0.6C8.6,48.4,9.3,48.4,10.1,48.3L10.1,48.3z M12.9,41.2v-0.5
	c-0.4-0.1-0.9-0.2-1.3-0.3c-1.2,0-2.4-0.1-3.5,0c-0.3,0.1-0.6,0.2-0.9,0.5c0.3,0.2,0.6,0.4,0.9,0.5c1.3,0.1,2.5,0.1,3.8,0.1
	C12.2,41.5,12.5,41.4,12.9,41.2L12.9,41.2z"/>
<path d="M173.5,47.5l5.7,6.3c-0.3,0.1-0.7,0.1-1,0.1c-2-0.1-3.9-0.1-5.9,0c-1.8,0.2-2.8-0.7-3.8-1.9c-1.2-1.5-2.4-2.9-3.6-4.4
	c-0.3-0.2-0.6-0.3-0.9-0.4c-0.1,0.3-0.2,0.6-0.2,0.9c0,1.6,0,3.2,0,4.9c0.1,0.4-0.2,0.9-0.7,0.9c-0.1,0-0.2,0-0.3,0h-5.6
	c-0.4,0.1-0.8-0.2-0.9-0.6c0-0.1,0-0.2,0-0.4c0-5.8,0-11.5,0-17.3c-0.1-0.5,0.2-0.9,0.7-1c0.1,0,0.2,0,0.3,0c5.1,0,10.1,0,15.2,0
	c2.2,0.1,3.9,1.8,3.9,4c-0.1,1.3-0.1,2.6,0,3.9c0.4,1.8-0.6,3.5-2.4,4.1c-0.1,0.1-0.3,0.2-0.4,0.3C173.5,47.2,173.5,47.4,173.5,47.5
	z M174.2,36.5c-0.8-0.3-1.7-0.5-2.5-0.6c-4.3-0.1-8.6,0-12.9-0.1c-0.6-0.1-1.2,0.3-1.3,0.9c0,0.2,0,0.3,0,0.5c0,1.2,0.1,2.4,0.1,3.7
	c0,3.7,0,7.4,0,11.1c0.1,0.3,0.3,0.5,0.6,0.6c1.1-0.2,1.8-1.2,1.7-2.3c-0.1-0.3-0.1-0.6-0.1-0.9c0-3.6,0.1-7.3,0.1-10.9
	c-0.1-0.4,0.1-0.8,0.6-0.9c0.1,0,0.3,0,0.4,0c1.5,0,3,0,4.5,0c2-0.1,4,0,6,0.2C172.6,38.1,173.3,37.8,174.2,36.5L174.2,36.5z
	 M160.8,44.4c1.9,0,3.4,0,5,0c2,0,4,0.1,6,0.1c0.6,0,1.3,0,1.3-0.9c0-1.5,0-2.9-0.1-4.4c0-0.8-0.6-1-1.2-0.5c-0.8,0.5-1.2,1.5-1,2.4
	c0.2,1.5,0,1.5-1.4,1.5c-2,0-3.9,0-5.9,0C162.2,42.7,161.2,43.4,160.8,44.4z M172.1,51.4c-0.3-0.5-0.6-0.9-0.9-1.4
	c-1.3-1.5-2.6-3-3.9-4.5c-0.4-0.5-0.8-0.8-1.4-0.3s-0.9,0.9-0.2,1.7c1.5,1.7,2.9,3.4,4.3,5.1c0.3,0.3,0.6,0.5,1,0.5
	C171.5,52.2,171.9,51.9,172.1,51.4L172.1,51.4z M163.4,41.1c0.3,0.2,0.5,0.4,0.9,0.5c1.5,0,3.1,0.1,4.6,0.1c0.3-0.1,0.5-0.3,0.6-0.5
	c-0.2-0.2-0.5-0.3-0.7-0.4c-1.5,0-2.9,0-4.4,0C164.1,40.7,163.7,40.9,163.4,41.1L163.4,41.1z"/>
<path d="M141,42.7c3.2,0,6.4,0,9.5,0c1.2,0,1.7,0.8,1.7,2.1c-0.1,1.5-0.1,3.1,0,4.6c0.2,2.5-1.7,4.6-4.5,4.6c-3.7,0-7.4,0-11.1,0
	c-2.2,0.1-4.1-1.7-4.1-3.9c0-0.2,0-0.5,0-0.7c0.2-3.3,0.2-6.7,0-10c-0.1-2.9,1.7-4.3,4.2-4.5c3.7-0.2,7.3-0.1,11,0
	c2.4-0.1,4.5,1.8,4.5,4.2c0,0.1,0,0.2,0,0.3c0.2,0.6-0.2,1.1-0.7,1.3c-0.2,0-0.3,0.1-0.5,0c-3.4,0-6.9,0-10.3,0
	c-1,0-1.5,0.1-1.4,1.3c0.1,1.8-0.1,3.6,0,5.4c0.1,0.4,0.4,0.8,0.8,0.9c1.4,0.1,2.8,0.1,4.3,0.1c0.3-0.1,0.5-0.3,0.6-0.5
	c-0.2-0.3-0.4-0.5-0.6-0.6c-0.8-0.1-1.6-0.1-2.4,0c-0.9,0.1-1.1-0.3-1.1-1.1C141.1,45,141,44,141,42.7z M142.1,46.4
	c1.2,0,2.2,0,3.3,0c0.4,0,0.7,0,1.1,0.2c0.2,0.7,0.2,1.3,0.1,2c-0.3,0.4-0.8,0.7-1.3,0.7c-1.9,0.1-3.8,0-5.7,0
	c-0.7,0.1-1.4,0.3-2.1,0.5c-0.3,0.2-0.6,0.3-1,0.3c-0.3-0.3-0.4-0.7-0.4-1.1c0-3,0-6,0-9c0-2,0.5-2.5,2.6-2.6s4.4-0.1,6.6,0
	c0.8,0,1.6,0.2,2.5,0.2c0.5,0,0.9-0.1,1.3-0.3c0.3-0.2,0.4-0.4,0.5-0.7c-0.1-0.2-0.3-0.4-0.6-0.5c-0.7-0.2-1.4-0.3-2.1-0.4
	c-3.2,0-6.3,0-9.5,0c-2.3,0-3.6,1.3-3.6,3.5c0,2.8-0.1,5.6-0.1,8.4c0,1.1,0.1,2.2,0.3,3.3c0.1,0.9,0.6,0.9,1.4,0.5
	c0.4-0.3,1-0.5,1.5-0.5c3.4,0,6.7,0.1,10.1,0.1c1,0,1.8-0.7,1.9-1.7c0,0,0,0,0,0c0.1-1.3,0.1-2.5,0-3.8c-0.1-0.4-0.4-0.6-0.8-0.7
	c-1.4-0.1-2.8,0-4.1,0C143,44.9,142.3,45.6,142.1,46.4L142.1,46.4z"/>
<path d="M97.4,47.4l6,6.5c-0.8,0-1.2,0.1-1.6,0.1c-1.8-0.1-3.7-0.1-5.5,0c-1.7,0.2-2.7-0.7-3.7-1.8c-1.2-1.4-2.4-2.9-3.7-4.3
	c-0.3-0.2-0.5-0.4-0.8-0.5c-0.2,0.3-0.3,0.7-0.3,1c0,1.5,0,3.1,0,4.6c0.1,0.4-0.1,0.9-0.6,1c-0.1,0-0.3,0-0.4,0c-1.6,0-3.2,0-4.9,0
	c-0.5,0.1-1-0.2-1.1-0.7c0-0.1,0-0.3,0-0.4c0-5.6,0-11.3,0-16.9c-0.1-0.5,0.2-1,0.7-1.1c0.2,0,0.3,0,0.5,0c4.7,0,9.3,0,14,0
	c2,0,3.8,1,4.7,2.8c0.2,0.3,0.2,0.7,0.2,1c0,1.4-0.1,2.8,0,4.2c0.2,1.5-0.6,2.9-1.9,3.6L97.4,47.4z M98.3,37v-0.5
	c-0.9-0.3-1.8-0.5-2.8-0.6c-4.1-0.1-8.3,0-12.4-0.1c-1.2,0-1.4,0.5-1.4,1.5c0,4.1,0.1,8.1,0.1,12.2c0,0.8-0.1,1.6-0.1,2.4
	c0,0.6,0.1,1.1,0.9,0.8c1-0.5,1.7-1.5,1.7-2.6c0-3.8,0-7.5,0-11.2c0-0.8,0.2-1.1,1.1-1.1c1.6,0.1,3.3,0,5,0c1.7-0.1,3.5,0,5.2,0.2
	C96.6,38,97.6,37.7,98.3,37L98.3,37z M84.8,44.4H88c2.7,0,5.4,0,8.1,0c0.5,0,1-0.3,1.2-0.8c0.1-1.4,0.2-2.8,0.1-4.2
	c0-0.9-0.7-1.1-1.4-0.6c-0.9,0.5-1.4,1.5-1.2,2.5c0.2,1.1-0.2,1.4-1.3,1.4c-2,0-3.9,0-5.9,0C86.3,42.6,85.7,43.4,84.8,44.4z
	 M90.7,44.8c-0.2,0.1-0.5,0.3-0.7,0.5c-0.9,0.8-0.7,1.4,0.3,2.5c1.3,1.4,2.6,2.9,3.9,4.4c0.6,0.7,1.1,0.7,1.7,0s0.2-1.4-0.3-1.9
	c-1-1.1-2-2.3-3-3.4C91.9,46.1,91.3,45.4,90.7,44.8L90.7,44.8z M93.9,41.2l-0.1-0.5c-1.7,0-3.4,0-5.1,0c-0.3,0.1-0.6,0.3-0.9,0.5
	c0.3,0.2,0.6,0.4,1,0.5c1.3,0,2.7,0,4,0C93.1,41.5,93.5,41.4,93.9,41.2L93.9,41.2z"/>
<path d="M77.8,54c-2.4,0.1-4.8,0.1-7.2-0.1c-0.6-0.1-1.3-1.3-1.6-2.1c-0.7-1.8-0.9-2-2.8-2c-1.1,0-2.3,0-3.4,0
	c-0.6-0.1-1.2,0.3-1.3,1c0,0,0,0,0,0c-0.3,1-0.8,1.9-1.3,2.8c-0.2,0.2-0.5,0.4-0.8,0.4c-2.2,0-4.3,0-6.5,0c-0.1,0-0.3-0.1-0.4-0.2
	l1.3-2.3c1.4-2.6,2.9-5.2,4.3-7.9s2.6-5.2,3.9-7.8c0.2-0.7,0.9-1.1,1.6-1c0.6,0,1.1,0,1.7,0c2.6,0,2.7,0.1,3.8,2.5
	c1,2.1,2.2,4,3.2,6c0.5,1,1,2.1,1.6,3.1s1.1,2,1.6,3C76.1,50.9,76.8,52.3,77.8,54z M66.1,35.8c-0.8,0-1.6,0-2.4,0
	c-0.3,0.1-0.5,0.2-0.6,0.5c-0.3,0.5-0.6,1.1-0.9,1.6c-1.5,2.9-3,5.8-4.5,8.6c-1,1.9-2,3.7-3,5.6c1.1,0.1,2.2-0.4,3-1.2
	c1.3-2.4,2.6-4.8,3.9-7.2C62.9,41.1,63.9,38.3,66.1,35.8z M60.5,46.8c3.2,0.2,6.4,0.2,9.6-0.1l-4.4-8.1l-0.6,0.1
	c-0.1,1.1-0.1,2.1,0,3.2c0.4,1.1,0.9,2.2,1.5,3.3C64.3,45.2,62.1,44.9,60.5,46.8L60.5,46.8z M72.6,51.5c0-0.1,0-0.3-0.1-0.4
	c-0.7-1.2-1.4-2.4-2.1-3.5c-0.1-0.2-0.4-0.2-0.6-0.2c-0.8,0.4-1.1,1.3-0.7,2.1c0.5,0.8,0.9,1.6,1.5,2.4c0.2,0.3,0.4,0.5,0.8,0.6
	C71.8,52.2,72.2,51.8,72.6,51.5L72.6,51.5z"/>
<path d="M205,54c-1.8,0-3.6,0-5.4,0c-1.1,0-2.1-0.2-3.1-0.4c-1.2-0.3-2-1.5-2-2.7c0-4.7,0-9.3-0.1-13.9c0-0.4,0-0.8,0.2-1.2
	c0.1-0.4,0.4-0.7,0.8-0.8c1.8-0.1,3.7-0.1,5.6,0c0.4,0.1,0.7,0.4,0.8,0.8c0,2.9,0,5.7,0,8.6c0,1.1,0,2.2,0,3.3
	c0,0.9,0.6,0.8,1.1,0.8c2.8,0,5.7,0.1,8.5,0c1.2,0,1.5,0.3,1.4,1.5c-0.1,1.1-0.1,2.1-0.1,3.2c0.1,0.4-0.1,0.8-0.5,1
	c-0.2,0-0.3,0-0.5,0C209.4,54.1,207.2,54.1,205,54L205,54L205,54z M197.9,50.6c-0.1-0.1-0.1-0.2-0.1-0.3c0-3.5-0.1-7,0.1-10.5
	c0.1-1.1-0.4-2.1-1.2-2.9c-0.2-0.2-0.5-0.3-0.8-0.3c-0.1,0.3-0.2,0.6-0.2,0.8c0,2.6,0,5.2,0,7.8c0,1.7,0,3.5,0,5.2
	c0,1.5,0.7,1.7,1.9,1c0.3-0.2,0.6-0.3,1-0.4c2.7,0.1,5.3,0.3,8,0.3c1.6,0,3.4,0.3,4.3-1.8c-2.3,0-4.4,0-6.6,0s-4.3-0.5-6.2,1.2
	C198,50.6,197.9,50.6,197.9,50.6L197.9,50.6z"/>
<path d="M226.9,54c-2.2,0-4.4,0.1-6.6,0s-4.2-1.4-4.1-4.2c0.1-4.6,0.1-9.3,0-14c-0.1-0.5,0.2-0.9,0.6-1c0.1,0,0.2,0,0.4,0
	c1.7,0,3.4,0,5.1,0c0.9,0,1.1,0.3,1.1,1.2c0,3.6,0,7.3,0,10.9c0,1.5,0,1.5,1.5,1.5c2.9,0,5.8,0,8.6,0c0.5-0.1,1.1,0.2,1.2,0.8
	c0,0.1,0,0.3,0,0.4c0,1.1,0,2.2,0,3.3c0.1,0.5-0.3,1.1-0.8,1.2c-0.1,0-0.3,0-0.4,0C231.3,54.1,229.1,54.1,226.9,54L226.9,54
	L226.9,54z M217.5,36.3c-0.1,0.3-0.1,0.6-0.2,0.9c0,4.3,0,8.5,0.1,12.8c0,0.4,0.1,0.8,0.3,1.2c0.3,0.7,0.8,0.9,1.5,0.4
	c0.4-0.3,0.9-0.5,1.4-0.5c3.1,0.1,6.1,0.2,9.2,0.3c1.5,0.1,2.5-0.7,3.6-1.9c-0.6,0-0.9-0.1-1.2-0.1c-2.7,0-5.3,0-7.9,0
	c-1.2-0.1-2.4,0.1-3.4,0.7c-0.9,0.6-1.2,0.1-1.2-0.8c0-3.1-0.1-6.1,0.1-9.2C219.9,38.5,219,37,217.5,36.3L217.5,36.3z"/>
<path d="M119.9,45.9c-0.5,0-1,0.1-1.5,0.1c-0.8,0-1.5,0-2.2,0.1c-0.3,0.1-0.5,0.3-0.7,0.6c0.2,0.2,0.5,0.3,0.8,0.4
	c1.7,0,3.5,0,5.2,0c0.8,0,1.1,0.2,1,1c-0.1,0.4-0.1,0.7,0,1.1c0.2,0.5,0,1-0.5,1.2c-0.2,0.1-0.4,0.1-0.6,0c-1-0.1-1.4,0.3-1.3,1.3
	c0,2.1,0,2.1-2.2,2.2h-0.2c-2,0.1-2,0.1-2-2c0-1.6,0-1.5-1.6-1.6c-1.8-0.2-2.9-0.8-2.9-2.9s0.1-4,0-5.9c-0.1-1.5,1-2.9,2.5-3
	c0.2,0,0.3,0,0.5,0c1.2,0,1.6-0.5,1.5-1.6c-0.1-1.9,0-1.9,1.9-2h0.6c1.9,0.1,2,0.1,1.9,2c0,1.2,0.3,1.7,1.5,1.5c0.4-0.2,0.8,0,1,0.4
	c0.1,0.2,0.1,0.4,0,0.6c-0.3,2.9,0.7,2.6-2.7,2.7c-1,0-2-0.1-3-0.1c-0.4,0-0.8,0.1-1.3,0.2v0.5c0.9,0.1,1.9,0.1,2.8,0.2
	c1.7,0.1,1.7,0.1,1.6,1.7C119.9,45,119.9,45.4,119.9,45.9z M121.1,39.9l-0.1-0.4c-2.5,0-5.1-0.1-7.6,0c-1,0-1.4,0.9-1.4,1.9
	c0,2.2,0,4.4,0,6.6c0,0.9,0.4,1.1,1.2,0.7c0.3-0.2,0.7-0.2,1-0.2c2,0,3.9,0,5.9,0c0.3-0.1,0.6-0.3,0.9-0.5c-2.1-0.2-4.2-0.3-6.3-0.1
	c-1.1,0.1-1.3,0.2-1.4-1c0-1.6,0-3.2,0-4.8c-0.1-0.8,0.4-1.5,1.1-1.6c0.2,0,0.4,0,0.5,0c1.3,0,2.6,0.1,3.9,0
	C119.5,40.3,120.3,40.1,121.1,39.9L121.1,39.9z M118.9,43.9c-1.6-1-4.4-0.6-5,0.5C115.6,44.3,117.2,44.7,118.9,43.9L118.9,43.9z
	 M116.5,35.8l-0.3,0.3c0,0.6,0,1.2,0,1.9c0.1,0.3,0.2,0.5,0.5,0.6c0.2,0,0.4,0,0.6-0.2c0.2-0.6,0.2-1.1,0.1-1.7
	C117.1,36.3,116.8,36,116.5,35.8L116.5,35.8z M116.1,52.5l0.4,0.3c0.4-0.2,0.7-0.4,0.9-0.8c0.1-0.6,0-1.2-0.2-1.7
	c-0.2-0.1-0.4-0.2-0.6-0.1c-0.2,0.1-0.4,0.3-0.5,0.6C116,51.3,116,51.9,116.1,52.5z"/>
<path d="M189.7,44.4c0,2.9,0,5.8,0,8.8c-0.1,0.4-0.3,0.7-0.7,0.8c-1.9,0.1-3.7,0.1-5.6,0c-0.4-0.2-0.6-0.6-0.7-1c0-2.2,0-4.4,0-6.6
	c0-3.5,0-6.9,0-10.4c-0.1-0.5,0.1-1,0.6-1.1c0.2,0,0.3-0.1,0.5,0c1.6,0,3.2,0,4.9,0c0.9,0,1.2,0.2,1.1,1.2c-0.1,2.8,0,5.6,0,8.4l0,0
	L189.7,44.4z M187.9,53c-0.1-0.3-0.3-0.6-0.5-0.9c-1.1-0.6-1.2-1.6-1.1-2.8c0-2.5,0-5,0-7.5c0-2.1-0.5-4.4,2-5.6c0-0.1,0-0.2,0-0.3
	c-1.2,0-2.4,0-3.6,0c-0.3,0.2-0.5,0.5-0.5,0.9c0,5,0,10-0.1,15c-0.1,0.5,0.2,1,0.7,1.1c0.1,0,0.1,0,0.2,0
	C185.8,53,186.7,53,187.9,53L187.9,53z"/>
</svg>
