<svg xmlns="http://www.w3.org/2000/svg" viewBox="0 0 352.25 341.14"><defs><style>.cls-1,.cls-15,.cls-2,.cls-24,.cls-6{fill:#fff;}.cls-1{stroke:#fff;stroke-miterlimit:10;stroke-width:6px;}.cls-15,.cls-2,.cls-6{font-size:12px;font-family:Lato-Regular, Lato;}.cls-3{letter-spacing:-0.02em;}.cls-4{letter-spacing:0em;}.cls-5{letter-spacing:-0.02em;}.cls-6,.cls-9{letter-spacing:-0.01em;}.cls-7{letter-spacing:0em;}.cls-8{letter-spacing:-0.02em;}.cls-10{letter-spacing:0em;}.cls-11{letter-spacing:-0.01em;}.cls-12{letter-spacing:-0.01em;}.cls-13{letter-spacing:0em;}.cls-14{letter-spacing:0em;}.cls-15{letter-spacing:-0.01em;}.cls-16{letter-spacing:-0.02em;}.cls-17{letter-spacing:-0.01em;}.cls-18{letter-spacing:-0.02em;}.cls-19{letter-spacing:-0.01em;}.cls-20{letter-spacing:-0.03em;}.cls-21{letter-spacing:-0.02em;}.cls-22{letter-spacing:-0.02em;}.cls-23{letter-spacing:0em;}.cls-25{fill:#d64728;}</style></defs><title>BBar Map</title><g id="Layer_2" data-name="Layer 2"><g id="Layer_1-2" data-name="Layer 1"><polyline class="cls-1" points="179.41 340.43 241.16 88.36 252.35 42.69"/><line class="cls-1" x1="42.32" y1="289.01" x2="211.64" y2="12.28"/><line class="cls-1" x1="2.52" y1="243.83" x2="159.5" y2="1.63"/><polyline class="cls-1" points="73.29 6.75 208.06 89.52 236.59 107.04 350.68 177.11"/><line class="cls-1" x1="47.03" y1="33.06" x2="334.98" y2="205.71"/><line class="cls-1" x1="137.3" y1="133.78" x2="316.48" y2="241.03"/><line class="cls-1" x1="12.05" y1="99.46" x2="208.04" y2="223.59"/><line class="cls-1" x1="19.9" y1="184.4" x2="260.41" y2="284.22"/><text class="cls-2" transform="translate(282.44 167.78) rotate(31.54)">E 3<tspan class="cls-3" x="16.96" y="0">r</tspan><tspan class="cls-4" x="21.1" y="0">d </tspan><tspan class="cls-5" x="30.89" y="0">S</tspan><tspan x="37.13" y="0">t</tspan></text><text class="cls-2" transform="translate(264.24 203.37) rotate(31.54)">E 2nd <tspan class="cls-5" x="33.45" y="0">S</tspan><tspan x="39.69" y="0">t</tspan></text><text class="cls-6" transform="translate(159.45 140.57) rotate(31.54)">B<tspan class="cls-7" x="7.67" y="0">ond </tspan><tspan class="cls-8" x="30.96" y="0">S</tspan><tspan class="cls-7" x="37.2" y="0">t</tspan></text><text class="cls-2" transform="matrix(0.52, -0.85, 0.85, 0.52, 115.59, 157.39)">L<tspan class="cls-9" x="6.16" y="0">a</tspan><tspan class="cls-10" x="12.04" y="0">f</tspan><tspan class="cls-11" x="16.21" y="0">a</tspan><tspan class="cls-12" x="22.03" y="0">y</tspan><tspan class="cls-13" x="28.04" y="0">e</tspan><tspan class="cls-14" x="34.34" y="0">tt</tspan><tspan class="cls-7" x="42.5" y="0">e </tspan><tspan class="cls-8" x="51.91" y="0">S</tspan><tspan class="cls-4" x="58.15" y="0">t</tspan></text><text class="cls-15" transform="translate(73.06 122.71) rotate(-56.91)">B<tspan class="cls-16" x="7.63" y="0">r</tspan><tspan class="cls-7" x="11.75" y="0">oad</tspan><tspan class="cls-17" x="31.24" y="0">w</tspan><tspan class="cls-11" x="40.59" y="0">a</tspan><tspan class="cls-18" x="46.41" y="0">y</tspan></text><text class="cls-2" transform="translate(136.49 172.12) rotate(32.66)"><tspan class="cls-19">B</tspan><tspan x="7.64" y="0">leec</tspan><tspan class="cls-20" x="28.87" y="0">k</tspan><tspan x="34.63" y="0">e</tspan><tspan class="cls-21" x="40.96" y="0">r</tspan><tspan x="45.08" y="0"> </tspan><tspan class="cls-5" x="48.15" y="0">S</tspan><tspan x="54.39" y="0">t</tspan></text><text class="cls-2" transform="translate(115.63 218.38) rotate(22.64)"><tspan class="cls-22">H</tspan><tspan x="8.98" y="0">ous</tspan><tspan class="cls-23" x="27.67" y="0">t</tspan><tspan x="31.94" y="0">on </tspan><tspan class="cls-8" x="48.51" y="0">S</tspan><tspan x="54.75" y="0">t</tspan></text><text class="cls-2" transform="translate(297.78 138.57) rotate(31.54)">E 4th <tspan class="cls-8" x="31.03" y="0">S</tspan><tspan class="cls-7" x="37.27" y="0">t</tspan></text><polygon class="cls-24" points="237.26 107.04 211.98 90.69 218.91 69.11 242.44 84.73 237.26 107.04"/><path class="cls-25" d="M220.45,86.72V81.39a.59.59,0,0,1,.73-.72h9.17a2.9,2.9,0,0,1,2.83,2.87c0,1-.13,2.09-.15,3.13a12.33,12.33,0,0,0,.14,2.82,2.88,2.88,0,0,1-3,3.3c-3,0-6-.06-9.08-.06a.56.56,0,0,1-.68-.7c0-1.78,0-3.55,0-5.33h0Zm.77,5.07c1.21-.34,1.51-.77,1.5-1.71V83a.48.48,0,0,1,.57-.58h2.33c1.57.06,3.14.19,4.7.2a3,3,0,0,0,1.12-.58l-.08-.33a7.37,7.37,0,0,0-1.48-.34c-2.65-.05-5.31,0-8-.07-.51,0-.67.18-.63.72v6.89c-.09,1-.09,1.95-.09,3Zm1.9-.94a1,1,0,0,0,.3.15c2,0,4,.08,6.06.07a1.27,1.27,0,0,0,1.41-1,20.66,20.66,0,0,0,.06-2.73.38.38,0,0,0-.25-.23c-.54-.16-1.27.63-1.2,1.2.11,1.1.16,1.71-1.27,1.61-1.12-.08-2.24-.07-3.37-.11a1.74,1.74,0,0,0-1.76,1.07Zm0-4.3a.63.63,0,0,0,.22.14c2.3,0,4.6,0,6.9,0a1,1,0,0,0,.74-.68,11.48,11.48,0,0,0,0-2.31,1,1,0,0,0-.41-.68,1.94,1.94,0,0,0-1,.46,1,1,0,0,0,0,.68c.16.94,0,1.41-.7,1.44h-2.62c-1.13,0-2.33-.23-3.15,1Zm3.7,2.71h0q.67,0,1.34,0a1.1,1.1,0,0,0,.41-.34,1.12,1.12,0,0,0-.4-.42,26.93,26.93,0,0,0-2.77,0,1.23,1.23,0,0,0-.48.38,1.27,1.27,0,0,0,.48.37,13.08,13.08,0,0,0,1.42,0Zm1.79-4.49v-.29a5.36,5.36,0,0,0-.82-.16,20.51,20.51,0,0,0-2.25,0,1.61,1.61,0,0,0-.57.29,1.55,1.55,0,0,0,.56.35c.8.06,1.6.07,2.4.06a2.69,2.69,0,0,0,.68-.21Z"/></g></g></svg>