<svg xmlns="http://www.w3.org/2000/svg" viewBox="0 0 1097 373"><defs><style>.cls-1{font-size:12px;font-family:Oswald-MediumItalic, Oswald;}.cls-1,.cls-5{fill:#1f3238;}.cls-2{letter-spacing:0em;}.cls-3{fill:#018543;}.cls-4{fill:#fff;}.cls-6{fill:#fbcd13;}.cls-7{fill:#f16624;}.cls-8{fill:#d64728;}.cls-9{fill:#aa3724;}</style></defs><title>bbar-street-map-trpt</title><g id="Layer_2" data-name="Layer 2"><g id="Layer_1-2" data-name="Layer 1"><text class="cls-1" transform="matrix(0.88, 0.48, -0.48, 0.88, 580.27, 203.3)">E 4th St</text><text class="cls-1" transform="matrix(0.88, 0.48, -0.48, 0.88, 602.23, 168.25)">E 5th St</text><text class="cls-1" transform="matrix(0.88, 0.48, -0.48, 0.88, 559.1, 241.38)">E 3<tspan class="cls-2" x="14.07" y="0">r</tspan><tspan x="18.19" y="0">d St</tspan></text><text class="cls-1" transform="matrix(0.53, -0.85, 0.85, 0.53, 458.25, 124.85)">Lafayette</text><text class="cls-1" transform="translate(341.23 192.75) rotate(-58.31)">Broadway</text><text class="cls-1" transform="matrix(0.87, 0.49, -0.49, 0.87, 611.03, 48.12)">Astor Place</text><text class="cls-1" transform="matrix(0.88, 0.48, -0.48, 0.88, 535.49, 281.38)">E 2nd St</text><text class="cls-1" transform="matrix(0.84, 0.54, -0.54, 0.84, 444.54, 225.8)">Bond St</text><circle class="cls-3" cx="553.02" cy="29.68" r="8.24"/><path class="cls-4" d="M554.37,27a1.06,1.06,0,0,0-.2-.56,1.14,1.14,0,0,0-1-.5A1.5,1.5,0,0,0,551.72,27a7.07,7.07,0,0,0-.32,1.85,2.33,2.33,0,0,1,.9-.67,3.28,3.28,0,0,1,3.48.74,3.42,3.42,0,0,1,.9,2.44,4.13,4.13,0,0,1-.88,2.61A3.26,3.26,0,0,1,553,35.16a3.16,3.16,0,0,1-2.95-1.67,6.81,6.81,0,0,1-.74-3.37,15.29,15.29,0,0,1,.1-2,6,6,0,0,1,.71-2.25,3.62,3.62,0,0,1,1.19-1.23,3.2,3.2,0,0,1,1.75-.47,3.47,3.47,0,0,1,2.35.76,2.87,2.87,0,0,1,1,2Zm-2.47,6a1.47,1.47,0,0,0,1.17.54,1.3,1.3,0,0,0,1.09-.52,2.17,2.17,0,0,0,.4-1.35,2,2,0,0,0-.45-1.42,1.45,1.45,0,0,0-1.11-.49,1.48,1.48,0,0,0-.94.32,1.82,1.82,0,0,0-.61,1.53A2.07,2.07,0,0,0,551.91,32.92Z"/><path class="cls-5" d="M401.74,324.39a.58.58,0,0,0-.29-.06.62.62,0,0,0-.25.07.88.88,0,0,0-.23.2l-.2.26-.2.31-1.3,2.13c-.13.24-.23.42-.29.54a.69.69,0,0,0-.07.42.44.44,0,0,0,.28.33.59.59,0,0,0,.54,0,.92.92,0,0,0,.23-.19,2,2,0,0,0,.2-.26l.2-.31,1.3-2.12.28-.52,0,0a.71.71,0,0,0,.06-.42A.45.45,0,0,0,401.74,324.39Z"/><path class="cls-5" d="M516.84,243.58a1.11,1.11,0,0,0-.45,0,.44.44,0,0,0-.34.38.54.54,0,0,0,.14.55,2.74,2.74,0,0,0,.89.45l.42.14.28-1.17-.63-.22Z"/><path class="cls-5" d="M510.7,260.36l-.26-.08a1.35,1.35,0,0,0-.3,0,.9.9,0,0,0-.4.06.66.66,0,0,0-.28.27,2.15,2.15,0,0,0-.2.43c-.05.15-.11.35-.17.6l-.06.23,2.61.92.13-.55a1.54,1.54,0,0,0-.07-1.17A1.89,1.89,0,0,0,510.7,260.36Z"/><path class="cls-5" d="M419.77,333.6a.72.72,0,0,0,.06-.42.45.45,0,0,0-.28-.33.58.58,0,0,0-.29-.06.62.62,0,0,0-.25.07.86.86,0,0,0-.23.2,2.69,2.69,0,0,0-.2.26l-.2.31-1.3,2.13q-.2.35-.29.54a.68.68,0,0,0-.07.42.45.45,0,0,0,.28.33.61.61,0,0,0,.29.06.59.59,0,0,0,.25-.07.92.92,0,0,0,.23-.19,2.09,2.09,0,0,0,.2-.26l.2-.31,1.3-2.12.28-.52Z"/><path class="cls-5" d="M1053.56,35l41.54,22.8c.65.36,1.27.79,1.9,1.18V55c-4.55-2.4-9.12-4.73-13.63-7.2Q1059.94,35,1036.55,22.1c-.29-.16-.56-.34-1.06-.65,2.72-5,5.45-9.88,8.12-14.82,1.18-2.18,2.26-4.41,3.39-6.62h-3.5l-10.61,19.81a11.54,11.54,0,0,1-1.48-.55Q1014.71,10.12,998,.94A5.83,5.83,0,0,1,997,0h-7l35.58,19.65c1.81,1,3.61,2,5.57,3.12l-20.26,36.8L912.77,4.88,915.5,0H898l6,3.85-20,36.2L858,25.33q-21.16-12-42.31-24A14.49,14.49,0,0,1,814,0h-6.5c4,2.35,8,4.76,12,7.05q30.47,17.32,61,34.58c.64.36,1.25.77,2,1.25L863,78.13,760.36,19.43,770.5,0H761c-1.37,2.81-2.7,5.65-4.12,8.44-1.16,2.28-2.43,4.5-3.76,7L726.15.75,732,0H718.5c-.39.8-.59,2-1.21,2.31A19.2,19.2,0,0,1,711,4.46c-13.08,1-26.19,1.69-39.28,2.54-4.06.26-8.11.79-12.17,1a10.18,10.18,0,0,1-4.48-.88c-3.93-1.78-7.76-3.78-11.61-5.73a17.18,17.18,0,0,1-2-1.35H634l16.37,8.38v.47L628,10.92,633.5,0h-9L609.78,26.18c-9-8-20.48-10.42-30.72-15.73L581.5,0H573l-1.42,6.83-9.07-4.92,1-1.91h-21L548,3.37c-3.42,3-6.75,5.92-10.17,8.78a2.49,2.49,0,0,1-1.86.16Q510.66,6.41,485.34.46A3.66,3.66,0,0,1,484.5,0H470c-1.47,2.28-2.88,4.61-4.43,6.84-4.37,6.27-8.81,12.51-13.34,18.92L419.57,4.64,422,0h-3.5l-1.81,2.91L413,0h-6l8,5.56L393.6,38.77,361.5,17.38,372.5,0h-4c-1.54,2.61-3,5.24-4.64,7.82s-3.31,5.13-5,7.78c-7.59-5.07-15-10-22.46-15C336.2.46,336.12.2,336,0h-6l27.12,18.28L335.54,51.83,302.81,30.64c.5-.85.93-1.62,1.4-2.37q8.3-13.05,16.6-26.1c.44-.69.79-1.44,1.19-2.17h-3.5L301.24,27.06c-1.77-6-3.46-11.61-5-17.24-.14-.51.68-1.51,1.3-1.94,3.37-2.36,7.25-4.1,9.43-7.88h-2l-8.83,7.29-.78-.38L294.5,0h-2L294,7.48c-8.89.33-17.37.11-23.53-7.48h-4l-2.66,5.88L255.5,0h-6l12,8.07-22.9,35.65L208.09,22.39,223,0h-4L205.4,21C194.76,14.1,184.3,7.35,173.84.59c-.17-.11-.23-.39-.34-.59h-6c-.11.87.06,1.91-.36,2.58-6.56,10.43-13.19,20.81-19.81,31.2l-25.51,40c-.52.82-1.08,1.63-1.74,2.61L87.14,55,122,0H108l7,5.09L84.53,53.32l-41.33-27L65.56,17.6a44.57,44.57,0,0,1,4.89-1.85A18.64,18.64,0,0,0,82.78,6.16,66.94,66.94,0,0,1,87,0H83c-2.24,3.27-4.46,6.56-6.75,9.8a3.23,3.23,0,0,1-1.46.86q-15.52,6.08-31,12.12a7.41,7.41,0,0,1-1.22.2l10-23h-9l-5,11.79L34,0H30.5c1.63,4.26,3.34,8.5,4.86,12.8C36.75,16.75,36.63,17,34.24,21c-1.27-.51-2.55-1.44-3.84-1.47-2.52-.05-5.24-.11-7.54.74C15.16,23.12,7.61,26.39,0,29.5V33c7.75-3.2,15.55-6.29,23.23-9.65a9.46,9.46,0,0,1,9.93.87L7.39,97.53,0,90v4l4.24,5.25-.48.61L0,98v17l.71-7.13,3,.14L0,116.5v23c1.69-4.13,3-8.49,5.18-12.31,2.08-3.58,5.11-6.64,7.87-9.79.32-.37,1.78-.13,2.44.26,5,3,10,6,14.89,9.06,1.89,1.18,3.71,2.47,5.73,3.83-3.82,6.09-7.51,12.09-11.37,18-.39.6-1.84.84-2.74.73-6.68-.83-13.35-1.79-20-2.69a19.48,19.48,0,0,0-2-.07v3l22.19,2.9c-.38.79-.57,1.31-.86,1.78q-10,16.22-20.08,32.41A10.88,10.88,0,0,1,0,188v5a36.68,36.68,0,0,0,3.5-4.14q16.86-27,33.62-54c.48-.77,1-1.52,1.67-2.55L71,153.5,30.28,217.3,0,197v4l24.71,16.33c1.24.82,2.45,1.68,3.82,2.63l-9.06,14.66q-9,14.51-18,29A18.54,18.54,0,0,1,0,265.5v6c1.64-2.46,3.35-4.89,4.91-7.4q12.44-20,24.82-40.12c.43-.7.93-1.36,1.53-2.22l32.42,21.34-45.88,72.5L0,304.5v4c2.42,1.39,4.86,2.72,7.24,4.17,2.9,1.77,5.74,3.65,8.89,5.67L0,343.5V349c2.69-4.05,5.42-8.08,8.05-12.16,3.55-5.52,7-11.08,10.69-16.85l30.14,19.14c-5.43,8.53-10.75,16.85-16,25.2-1.82,2.87-3.57,5.78-5.35,8.68H31l20.54-32.19,34.54,21.93L79.5,373h4l5.18-8.69L101.5,373H107l-13.13-8.94c-1.1-.74-2.21-1.46-3.45-2.29l45.69-71,32.65,21.47L130,373h4c1.29-2.2,2.51-4.45,3.88-6.6q16.17-25.35,32.39-50.67c.35-.54.75-1.05,1.23-1.72l32.18,21.16c-2.22,3.52-4.37,6.94-6.52,10.35q-8.2,13-16.41,25.94A14.53,14.53,0,0,0,180,373h3.5l22.75-36,33.63,21.54c-2.64,4.14-5.18,8.11-7.69,12.1A25.82,25.82,0,0,0,231,373h9.5l6.4-10.48L265.5,373H272l-18.24-10.21-5.11-2.85L264,336q13-20.3,25.93-40.63c.94-1.48,1.7-2,3.54-1.41,11,3.57,22,7,33.06,10.46.61.19,1.21.45,1.73.65C315.79,328.83,300.78,350.85,286,373h4c3.29-5.08,6.57-10.17,9.88-15.24,4.41-6.73,8.85-13.45,13.49-20.49l15,11.71c-4.46,7.26-8.8,14.31-13.11,21.38A26.83,26.83,0,0,0,314,373h9.5c1.78-3.07,3.54-6.16,5.36-9.21s3.89-6.35,6-9.74l15.47,12.06a30.06,30.06,0,0,0,3.16,2.43C355.31,369.64,356,371,355,373h3.5c1.75-4.82,3.45-9.66,5.25-14.47q6.12-16.33,12.32-32.62c.26-.69.57-1.36,1-2.33L407.67,338,396,373h3.5c1.13-3.63,2.21-7.28,3.4-10.89,2.46-7.49,5-15,7.6-22.79l31,14.56-6,19.12H439l5.24-17.75,32.07,14.86L475.5,373h52c-5.59-2.29-11.17-4.62-16.78-6.87-5.24-2.11-10.51-4.14-16.1-6.33l10-37.87a42.93,42.93,0,0,1,5.09,2q26.72,14.86,53.38,29.82c.28.16.53.37,1.41,1-2.66,3.61-5.31,7.15-7.89,10.74-1.77,2.46-3.45,5-5.16,7.48H566c-.08-5.4.71-7.52,5.52-14.63l26,14.63H604l-28.28-15.83-2.81-1.57,20.16-35.78L622.82,336q32.64,17.77,65.27,35.55A16.44,16.44,0,0,1,690,373h7q-18.59-10.2-37.18-20.4-31.33-17.1-62.69-34.14c-.78-.43-1.56-.87-2.51-1.41l20.72-37.8,104.24,57.91L700,373h9.5l17-31.72a20.57,20.57,0,0,1,1.92.81q26.8,14.85,53.57,29.74A11.56,11.56,0,0,1,783.5,373H790a24.2,24.2,0,0,0-2.16-1.52q-28.68-16-57.38-31.88c-.72-.4-1.42-.83-2.27-1.33l19.36-34.93,97.82,53.88L837,373h3.5l7.7-14.27L872.5,373H879c-4.85-2.84-9.69-5.71-14.56-8.52s-9.67-5.48-14.77-8.37l18.12-33.33c.76.34,1.43.58,2,.92q43.88,23.93,87.74,47.89A17.32,17.32,0,0,1,959.5,373h7q-19.13-10.51-38.27-21-28.35-15.5-56.72-31c-.65-.35-1.28-.75-2.08-1.21l18.45-33.31,106.94,59.06c-.63,1.13-1.16,2.12-1.73,3.1q-6.45,11.26-12.9,22.52a12.12,12.12,0,0,0-.69,1.82H983l14.55-26,16.55,9q14.2,7.77,28.38,15.56c.71.39,1.35.91,2,1.37h6.5c-5.85-3.3-11.68-6.66-17.57-9.9-10.78-5.95-21.6-11.83-32.4-17.74-.58-.32-1.12-.69-1.89-1.16l17.31-35.07,19.16,10.61q29.68,16.47,59.36,32.94a17.45,17.45,0,0,0,2,.82V350c-5.18-2.8-10.38-5.56-15.54-8.41q-30.77-17-61.51-34.11c-.64-.36-1.25-.77-2-1.21l19.83-34.12c3.22,1.76,6.28,3.42,9.32,5.1l47.39,26.14c.79.43,1.64.75,2.46,1.12V301q-14.33-7.82-28.66-15.64-13.45-7.38-26.86-14.82c-.65-.36-1.27-.75-2.06-1.22L1058.3,235c.78.39,1.51.71,2.2,1.09q17,9.44,34,18.89a23.43,23.43,0,0,0,2.47,1v-3.5c-2.78-1.46-5.59-2.87-8.34-4.39-9.53-5.26-19-10.56-28.85-16l18.35-33.25c2.92,1.6,5.72,3.15,8.54,4.67,3.43,1.84,6.87,3.65,10.3,5.47v-3.5l-17-9.15c0-.43-.06-.63,0-.75q8.19-14.83,16.41-29.65c.11-.19.35-.3.54-.45V159c-9.63-5.27-19.27-10.51-28.88-15.81q-36.71-20.24-73.39-40.51c-.93-.52-1.86-1-3-1.71l20.36-37L1097,112v-4c-1.26-.59-2.56-1.09-3.76-1.77q-38.78-21.88-77.54-43.79c-.64-.36-1.25-.79-2.07-1.32l20.3-36.87ZM889.61,46.85l98,55.55-19.06,32.07-98.36-52.4Zm-21,38,98.2,52.31-18.47,33.48L851,116.87Zm-273.24,34c-5.7-3.16-11.27-6.23-16.8-9.38a1.74,1.74,0,0,1-.52-1.58C582.2,96.7,585.48,85.13,592.54,75L613.6,86.85Zm20.94-30.48,73.18,40.45-18.3,32.72L598.14,120.4ZM566.73,99.25c-4.09-2.1-6.5-5.79-8.87-9.46a4.08,4.08,0,0,1-.13-2.91c2.48-9.14,5-18.26,7.59-27.38,0-.14.23-.23.46-.46l19.6,11.05C580.67,80.86,573.81,90,566.73,99.25Zm-5.71,8.5c-6.65,11.19-16.47,22.46-20.86,36.88C544,128.7,545.73,112.3,552,98.49Zm-18.58,75c2.1-6.66,3.73-13.48,6-20.06,1.66-4.74,4.12-9.19,6.32-14l94.68,51.62-19.1,34.35c-.83-.43-1.56-.77-2.26-1.16Q586,209.84,543.89,186.21C542.31,185.32,541.88,184.55,542.45,182.73Zm14.17-36.64,19.7-34.31,93.37,52.48-18.64,33.32Zm120.14,22.26L781,226.68l-19.46,34.57c-35.35-18.46-69.47-38.62-103.31-59.76Zm1.53-2.74,18.4-32.86L801,190.62,782.56,224ZM698.23,130l20.15-36,103.94,57.89-19.85,36Zm21.67-38.76,18.48-32.92L842.3,115.67l-18.46,33.47Zm109.55,64.61,97.3,54.2-19.59,35-97.51-53.33Zm1.52-2.74,18.48-33.5,97.41,53.76-18.49,34Zm-72.21-131L861.49,80.88l-17.67,32L739.94,55.6Zm-87.56-8.2c.73-1.44.13-3.89,2.85-4,10.54-.59,21.09-1.2,31.63-1.91a39.69,39.69,0,0,0,9.06-1.31c2.57-.8,4.84-2.55,7.91-4.25l29,15.75L732.8,51.63c-2-1.11-4-2.11-5.86-3.23q-27.16-16.07-54.28-32.21C671.94,15.76,671,14.36,671.22,13.94Zm-7.6-3.19,5.49-.43-1.24,3.22-4.26-2.15Zm-40.89,9.13C626.12,14,626.13,14,633,13.5s13.59-1.32,20.39-1.78a10.14,10.14,0,0,1,5.44.92c21.87,12.52,43.65,25.18,65.46,37.81,2.23,1.29,4.47,2.55,6.94,4L712.8,87.24l-97.43-54.6Zm-8.91,15.5L711.28,90l-20.23,36.13-97.29-53.9ZM575.3,21.79c11.57.2,21.57,3.83,30.31,11.54l-19.3,35.46L565.88,57.27ZM555.81,7.53,569,14.79c-1,4.12-1,4.08-4.77,3.42-5.56-1-11.13-1.9-17.41-3ZM539.69,22.47c3.54-5.08,7.34-6.44,13.17-4.69,4.49,1.35,9.3,1.68,14.18,2.5a19.89,19.89,0,0,1-.32,2Q558.54,52.65,550.33,83c-1.09,4-1.49,8,.72,11.83a2.74,2.74,0,0,1-.17,2.06c-6.81,16.07-9,33.35-13.18,50.1a41.69,41.69,0,0,0-.63,5c-8.93-5.27-17.57-10.38-26.22-15.46-.1-.06-.39.22-1.22.72l26.18,16c-4.62,6.9-4.72,15.11-7,22.68l-.81,2.69-33.28-21a10.24,10.24,0,0,0,1.12-2.42,2.51,2.51,0,0,0-.52-1.93c-.34-.35-1.2-.19-1.82-.25,0,.63.11,1.26.12,1.89s-.06,1-.12,1.76l-28.39-20c3.52-5.58,7.18-11.29,10.76-17,15.77-25.37,31.32-50.89,47.39-76.07C528,36,534.61,29.75,539.69,22.47ZM524.09,237.9a.51.51,0,0,0-.42-.33l-.12,0-1-.11-5.89-.53.37-1.54,4.57.71-4.19-2.29.37-1.54,6.53,4.06a1.92,1.92,0,0,1,.91,1.15,3.3,3.3,0,0,1-.05,1.63v0l0,.19-1.1-.39A2.43,2.43,0,0,0,524.09,237.9ZM520,252.76l-.33,1.36-6.82-1.3.31-1.29,4.46.94-4.14-2.26.28-1.15,4.5.84L514,247.72l.3-1.25,6.31,3.42-.32,1.32-4.34-.71Zm-6.33,7.2a2.21,2.21,0,0,1,1.21,0l.46.13a3.19,3.19,0,0,1,1.82,1.37,2.94,2.94,0,0,1,.21,2.2l-.65,2.69-9.21-3.27.56-2.3a4.81,4.81,0,0,1,.39-1.1A2.22,2.22,0,0,1,509,259a1.41,1.41,0,0,1,.86-.3,2.72,2.72,0,0,1,.73.07l.44.14q1.72.62,1.57,2.07A1.76,1.76,0,0,1,513.63,260Zm2.78-.46-.44-.13-2.14-.76a3,3,0,0,1-1.58-1.14,2.27,2.27,0,0,1-.21-1.83,1.88,1.88,0,0,1,1-1.41,2.16,2.16,0,0,1,1.39-.06l.45.14,2.14.76a3,3,0,0,1,1.59,1.14,2.3,2.3,0,0,1,.21,1.83,1.85,1.85,0,0,1-1,1.4A2.17,2.17,0,0,1,516.41,259.49Zm2.87-12.14c-.17,0-.36-.1-.55-.16l-1.81-.65a3.44,3.44,0,0,1-1.74-1.16,2.23,2.23,0,0,1-.23-1.86,2.43,2.43,0,0,1,.43-1,1.24,1.24,0,0,1,.67-.45,2.26,2.26,0,0,1,.91,0l.4.08a5.87,5.87,0,0,1,.73.23l.82.29-.64,2.66,1,.35.62.2h.06a.73.73,0,0,0,.43,0,.44.44,0,0,0,.27-.36.55.55,0,0,0-.11-.54,1.55,1.55,0,0,0-.63-.35l-.5-.18.36-1.49.39.14a2.58,2.58,0,0,1,1.44,1.07,2.26,2.26,0,0,1,.17,1.73,1.85,1.85,0,0,1-1,1.44A2.41,2.41,0,0,1,519.28,247.35Zm-3.46-7,.38-1.56,1,.35a2.07,2.07,0,0,1-.74-1.81,1,1,0,0,1,.09-.23l1.52.55a1.61,1.61,0,0,0-.24.54,1.34,1.34,0,0,0,0,.65,1.92,1.92,0,0,0,.39.68l4.54,1.61-.38,1.56ZM517,221.3l-74.63-48.88,21.07-33.17c20.87,14.87,41.71,29.54,64,42.42Zm-178.71-2.5,25.51-39.72,20.58,13.64-11.39,19c-1.78,3-1.46,4.8,1.42,6.74,7.65,5.16,15.34,10.25,23.28,15.55l-9.77,17.53Zm47.83,35.39a11.18,11.18,0,0,1-.6,1.42c-8.18,13.52-16.4,27-24.53,40.57-1,1.66-1.88,2-3.76,1.38-5.33-1.86-10.74-3.48-16.12-5.19l30.35-48ZM382.87,134l-34.13-19.94,22.76-35.3,33,21.31Zm5.25,6.9,22.8,13.93L386.72,190.5l-21.24-14.08Zm-6.9-4.24-49.74,77.68-33.32-21.84,48.66-75.46C358.72,122.83,369.54,130.26,381.22,136.71ZM397.64,230c-6.95-4.57-13.86-9.21-20.86-13.7-1.77-1.14-1.82-2.06-.75-3.76,3.7-5.91,7.24-11.92,11-18.11l23.82,15.89L399.38,231C398.73,230.64,398.16,230.37,397.64,230ZM388,191.4l24.23-35.65,21.57,14.46-21.51,37.4ZM390,138.06l20.79-32.65a68.71,68.71,0,0,0,6.37,5.17c12.22,7.76,24.52,15.4,36.79,23.08.76.48,1.5,1,2.41,1.61l-20.45,32.18ZM457.61,32.43c6.46-9.9,13.51-19.4,20.38-29a2.84,2.84,0,0,1,2.41-.85q27.11,6.24,54.19,12.66c.05,0,.08.12.31.46-1.34,1.62-2.68,3.4-4.18,5C518.55,33.81,510,49.38,500.57,64.41q-20.52,32.82-41,65.69c-.48.77-1,1.51-1.64,2.5-15.12-10-31-18.65-45.66-29.4.85-1.43,1.33-2.28,1.86-3.1C428.62,77.52,443,54.87,457.61,32.43ZM417.71,7.17l32.77,21.19L428.72,62.18,396.2,40.51Zm-23.2,36L427,64.8,406.18,97.47l-33-21.3ZM359.76,20,391.9,41.4,370.58,74.47,338.17,53.54ZM268.27.54A16.92,16.92,0,0,1,270.05,2C275,7.27,281.24,9.06,288.27,9c6.06,0,6.07.05,7.75,5.83,1.3,4.45,2.58,8.9,4.06,14L265.21,6.57Zm-4,9L368.9,77.08l-23.6,36.58c-34.88-22.47-70.13-44-104.09-68.19Zm-25,38.54,33.78,23-4.42,7,2.5,1.76,4.56-7,67.88,43.33-48.06,74.54-67.12-44,4.17-6.61-2.52-1.75-4.34,6.66-34.69-22.61Zm-123,116.37,39.51-61.12,31.07,20.17-39.28,61.2Zm22.44,33.78L98,261.92,68.11,242.25l39.78-64.38Zm46.48-66.32c2.43,2,4.81,3.81,7,5.84.37.35.17,1.78-.23,2.43q-10.37,16.9-20.88,33.71l-11.45,18.44-9.44-6Zm-20,54.47c9.47-15.26,18.91-30.55,28.46-45.76,1.19-1.9,1.37-3-.65-4.43-2.38-1.64-4.5-3.65-6.91-5.64l3.29-5.36,34.65,22.59-39.3,61.38-23.76-15.93C162.53,190.9,163.9,188.65,165.29,186.4Zm61.49-36.94,33.44,21.91-29.15,44.92c-3.55-2.94-7-5.69-10.26-8.58a4.73,4.73,0,0,1-.92-2.47c-.5-2.36-.89-4.74-1.38-7.11A3.57,3.57,0,0,0,217.3,196c-.15.41-.49.85-.43,1.22.54,3.37,1.06,6.75,1.81,10.07a5.07,5.07,0,0,0,1.81,2.27c3.16,2.7,6.37,5.33,9,7.51-1.11,3.43-1.74,6.6-3.15,9.36-1.17,2.3-3.27,4.13-5.16,6.41l-33.74-21.94Zm-1.43,81c1.58-1.73,3.15-3.41,2.84-6.07a3.59,3.59,0,0,1,.77-2Q244.73,198,260.56,173.8c.31-.47.7-.89,1.15-1.45l32.17,21.14L255,254.68l-32.33-21.06C223.66,232.43,224.47,231.4,225.35,230.44ZM206.47,25.08,236.8,46.26l-48.35,74.49-30.89-20ZM171,2.5l32.74,21.09L154.94,99l-32.2-20.9ZM121.06,80.77l32.18,20.9-39.51,61.12L81.9,142.19ZM14.5,101.86,40.39,28.21,82.84,56,44.22,117.63C34.33,112.1,26,104.23,14.5,101.86Zm32.28,17.59,38.7-61.77,32.95,21.38L79.26,140.48Zm-13.9,99.6,40.7-63.83,31.68,20.9-39.77,64.4Zm17.7,117.42L20.42,317.32,66.3,244.81,96.38,264.6Zm37.2,23.61L53.22,338.16,99,266.32,133.49,289Zm47.42-73.71-34.55-22.71L141.41,200,176,222.82Zm35.27,23.21L137.82,288.1l40.9-63.68,32.53,21.39Zm34.87,22.93-32.24-21.21,40.74-63.72,32.29,20.91Zm36.25,23.36-33.67-21.57,40.73-63.93c11.84,6.46,21.74,15.74,34.75,20.12Zm50.54-79.65c-12.52-4.69-23.32-12.42-34.48-19.91l38.84-61.11,33.16,21.73Zm9.71,3.79c-.55-.17-1.08-.4-1.82-.67L311.4,260.8l2.68.72.78-1-2.26-1c.58-3.52,2.7.46,3.74-1.45l-2-2.09,22.18-34.51,32.05,21L350.4,272.37l-3.45-1.2-.39.72,2.69,2.21c-2.62,3.87-5.26,7.77-7.92,11.66-3.79,5.54-3.79,5.53-10.25,3.5ZM330,346.32l-15-11.7L331.55,306l19.5,6.09Zm27,21.13-20.56-16.07L358.8,315l15.37,7.19Zm23-61.15-12.32-5.56,25.44-42a10.56,10.56,0,0,1,1,.38c3.19,1.71,3.2,1.71,1.88,5.2q-7.59,20.15-15.19,40.3C380.64,305.15,380.34,305.63,380,306.3Zm20.16-44.08,29.37,10.47-16.44,49.16L383,307.77Zm-6.18,65,2.31-3.78-1.83-.87-2.31,3.78-1.57-.74,5.09-8.34,1.57.74-2.13,3.5,1.83.87,2.13-3.49,1.56.74L395.54,328Zm6.43,2.47a2.3,2.3,0,0,1-1.84-.17,1.86,1.86,0,0,1-1.17-1.26,2.18,2.18,0,0,1,.25-1.37c.06-.13.14-.27.22-.41l1.18-1.94a3,3,0,0,1,1.44-1.32,2.27,2.27,0,0,1,1.83.17,1.88,1.88,0,0,1,1.17,1.26,2.17,2.17,0,0,1-.23,1.37,4.2,4.2,0,0,1-.23.42l-1.18,1.94A3,3,0,0,1,400.42,329.72Zm3.72,2.35.34-.56a2.78,2.78,0,0,1-1.91-.07,1,1,0,0,1-.41-.34.75.75,0,0,1-.13-.45,1.84,1.84,0,0,1,.08-.49,1.51,1.51,0,0,1,.11-.25l.13-.24,2.91-4.77,1.45.69L404,330.07l-.09.15a.69.69,0,0,0-.08.31c0,.12.08.22.24.29h0a1.42,1.42,0,0,0,.8,0l2.91-4.76,1.45.69-3.63,6Zm7.33-3h0a.59.59,0,0,0-.45,0,.61.61,0,0,0-.35.27l0,0a1.25,1.25,0,0,0,.09.88l.42,1.2a3.49,3.49,0,0,1,.25,1.07,1.64,1.64,0,0,1-.17.8l-.11.2a1.87,1.87,0,0,1-1.23.92,2.45,2.45,0,0,1-1.59-.22,1.87,1.87,0,0,1-1-1,2.17,2.17,0,0,1,.06-1.51l1.34.15q-.39,1.11.22,1.4h0a.68.68,0,0,0,.5,0,.65.65,0,0,0,.37-.32v0a1.43,1.43,0,0,0-.12-1.05l-.44-1.12a2.15,2.15,0,0,1,0-1.75,1.54,1.54,0,0,1,.12-.2,2,2,0,0,1,1.2-.9A2.17,2.17,0,0,1,412,328a1.62,1.62,0,0,1,.93,1,2.07,2.07,0,0,1-.11,1.41l-1.19-.08Q412,329.3,411.46,329Zm2.26,7.61q-.67-.24-1-.38l0,0a1.82,1.82,0,0,1-.64-.48,1,1,0,0,1-.24-.57,1.7,1.7,0,0,1,.09-.65c0-.11.08-.23.13-.35a3.19,3.19,0,0,1,.21-.38l2.08-3.4-.62-.29.56-.92.61.29,1.07-1.74,1.46.69-1.06,1.75,1,.46-.56.92-1-.46-2.12,3.46-.06.12a.55.55,0,0,0-.07.37.63.63,0,0,0,.35.35,3.55,3.55,0,0,0,.47.18Zm4.5,1.54a2.3,2.3,0,0,1-1.84-.17,1.86,1.86,0,0,1-1.17-1.26,2.18,2.18,0,0,1,.24-1.38c.06-.13.14-.27.22-.41l1.18-1.94a3,3,0,0,1,1.44-1.32,2.27,2.27,0,0,1,1.83.17,1.88,1.88,0,0,1,1.17,1.26,2.16,2.16,0,0,1-.23,1.37,4.11,4.11,0,0,1-.23.42l-1.18,1.94A3,3,0,0,1,418.23,338.18Zm8.38-2.18a1.69,1.69,0,0,1-.09.23,1.62,1.62,0,0,1-.14.25l-2.91,4.77-1.45-.69,2.71-4.45.09-.17a.66.66,0,0,0,.08-.29c0-.12-.08-.22-.25-.3a1.49,1.49,0,0,0-.84,0L420.92,340l-1.45-.69,3.63-6,1.45.69-.36.58a2.8,2.8,0,0,1,1.94.05,1,1,0,0,1,.42.34.75.75,0,0,1,.14.44A1.82,1.82,0,0,1,426.61,336Zm6.33,6.81a3.56,3.56,0,0,1-.19.35,2.58,2.58,0,0,1-1.51,1.19,2.64,2.64,0,0,1-1.93-.19q-2.15-1-1-3.35l.17-.34,1.54.37q-.12.2-.21.39-.65,1.36.21,1.77a.83.83,0,0,0,.69.05,1.18,1.18,0,0,0,.54-.5l.1-.19a1.69,1.69,0,0,0,.16-.52,1.71,1.71,0,0,0,0-.62,6.5,6.5,0,0,0-.22-.69l-.58-1.54a3.06,3.06,0,0,1-.21-1.22,2.34,2.34,0,0,1,.24-.88,4,4,0,0,1,.2-.37,2.55,2.55,0,0,1,1.51-1.22,2.82,2.82,0,0,1,2,.23l0,0a2.58,2.58,0,0,1,.74.49,1.65,1.65,0,0,1,.42.6,1.72,1.72,0,0,1,.1.69,2.53,2.53,0,0,1-.13.73,4.48,4.48,0,0,1-.26.62l-.08.16-1.5-.37c.07-.11.12-.22.17-.33a1.94,1.94,0,0,0,.11-.24,2.3,2.3,0,0,0,.14-.52A.64.64,0,0,0,434,337a.75.75,0,0,0-.33-.27l-.06,0a1,1,0,0,0-.7,0,1.06,1.06,0,0,0-.54.46l-.1.18a1.16,1.16,0,0,0-.14.55,2.45,2.45,0,0,0,.18.79l.59,1.54a4.44,4.44,0,0,1,.29,1.53A2.73,2.73,0,0,1,432.94,342.81Zm5.77-2-.56.92-1-.46-2.12,3.46-.06.12a.53.53,0,0,0-.07.37.62.62,0,0,0,.35.35,3.5,3.5,0,0,0,.47.18l-.64,1.06q-.67-.24-1-.38l0,0a1.82,1.82,0,0,1-.64-.48,1,1,0,0,1-.24-.57,1.72,1.72,0,0,1,.09-.65,3.56,3.56,0,0,1,.13-.35,3.48,3.48,0,0,1,.21-.38l2.08-3.4-.62-.29.56-.92.61.29,1.07-1.74,1.46.69-1.06,1.75Zm-22.8-17.64,16.55-49.42,30.12,10.7L446.45,337.5Zm60.59,38L467.14,357l.21-.64,9.4,4.2Zm4.57-7.48-31.79-14.8,16.29-53.51,31.18,10.58Zm16.47-60.74c-34.68-11.69-69-23.31-103-36.37.77-1.51,1.12-2.25,1.52-3,2.79-5,5.6-10,8.55-15.27,4.23,2.7,8.3,5.36,12.45,7.91,1.21.75,2.77,2.67,4,.71s-1.23-2.53-2.38-3.3c-4.06-2.74-8.21-5.32-12.52-8.08l11.42-20.59,85.79,55.81Zm6.67-25.37-85.08-55.35,21.5-37.42c4.42,3,8.54,5.76,12.7,8.49q30.49,20,61,39.85c1.63,1.06,1.9,1.95,1.36,3.8-3.67,12.78-7.19,25.6-10.77,38.41C504.79,265.87,504.58,266.41,504.21,267.54Zm61.55,84.11L534.5,334.32l8.72-20.53a10,10,0,0,0,1-2.55,1.44,1.44,0,0,0-2.58-1.24,5.83,5.83,0,0,0-1,2q-3.91,9.18-7.81,18.36c-.32.74-.69,1.47-1.07,2.28l-26.1-14.33,11.09-40.94,69.2,38.54Zm21.72-38.6c-.92-.47-1.72-.84-2.49-1.27l-65.2-36.31c-1.13-.63-2.35-1-1.81-2.91,3.82-13.52,7.53-27.06,11.4-41.06l78.81,43.76Zm22.23-40.55c-6.5-3.6-12.9-7.13-19.29-10.68q-29.11-16.17-58.23-32.34c-1.17-.65-2-1.15-1.53-2.83,3.37-12.34,6.63-24.71,9.93-37.07a11.17,11.17,0,0,1,.56-1.32l87.68,49.34ZM721,334.38,616.84,276.49l19.19-35,104.32,58Zm20.86-37.68-104.39-58,18.82-33.88L759.6,264.72Zm105.06,57.81L749.07,300.6l18.47-33.36c5.65,2.8,11.19,5.27,16.43,8.28,1.89,1.09,3.18,3.36,4.5,5.26s2.38,2.26,4.28.92a5.1,5.1,0,0,1,3-.75,23.47,23.47,0,0,1,14.39,5.91c2.36,2,5.09,3.62,7.61,5.46,3.48,2.54,7.16,4.86,10.33,7.74a58.64,58.64,0,0,0,15.11,9.51c7.37,3.45,14.62,7.17,22.25,10.93Zm19.3-35.43c-10.28-5-20.49-9.52-30.23-14.89-4.65-2.57-8.39-6.78-12.6-10.18a18,18,0,0,0-4.17-2.66,30.66,30.66,0,0,1-8.5-6,23.22,23.22,0,0,0-16.12-6.05c-1.31,0-2.61.88-4.24,1.47-4.36-9-14.42-10-21.95-15.14l19.71-35,97,54.39Zm20.38-36.8L789.7,227.91l18.44-33.4,97.54,53.35Zm109.71,60.53L889.39,283.76l19.09-34.44,105.24,58.24Zm19.27-37.8L909.95,246.54l19.94-35.61,15.31,7.52.61-1.21-15.06-7.78,38.82-70.86,106,58.79Zm79.58-143.27L1077,194.57,971.29,136l19.09-32.1ZM988.9,99.53,891.13,44.1,911.24,7.64l98.15,54.68Z"/><path class="cls-5" d="M517.37,256.95l-.29-.15-.35-.13-2.35-.84-.57-.17h0a.71.71,0,0,0-.42,0,.45.45,0,0,0-.26.34.58.58,0,0,0,0,.3.62.62,0,0,0,.12.23.86.86,0,0,0,.24.18l.29.15.34.13,2.35.84.58.17a.7.7,0,0,0,.43,0,.44.44,0,0,0,.26-.34.59.59,0,0,0,0-.3.58.58,0,0,0-.12-.23A.91.91,0,0,0,517.37,256.95Z"/><path class="cls-5" d="M516.08,263.62a1.87,1.87,0,0,0,0-.9,1.09,1.09,0,0,0-.38-.59,2.88,2.88,0,0,0-.83-.42l-.36-.11a1.53,1.53,0,0,0-.94,0,1.35,1.35,0,0,0-.66,1l-.13.55,3.12,1.11Z"/><path class="cls-5" d="M265.51,90l-2.66-1.63-26.06,40.7,2.63,1.67Z"/><circle class="cls-3" cx="383.54" cy="235.6" r="8.24"/><path class="cls-4" d="M384.9,232.89a1.06,1.06,0,0,0-.2-.56,1.14,1.14,0,0,0-1-.5,1.5,1.5,0,0,0-1.44,1.14,7.07,7.07,0,0,0-.32,1.85,2.33,2.33,0,0,1,.9-.67,3.28,3.28,0,0,1,3.48.74,3.42,3.42,0,0,1,.9,2.44,4.13,4.13,0,0,1-.88,2.61,3.26,3.26,0,0,1-2.74,1.13,3.16,3.16,0,0,1-2.95-1.67,6.81,6.81,0,0,1-.74-3.37,15.29,15.29,0,0,1,.1-2,6,6,0,0,1,.71-2.25,3.62,3.62,0,0,1,1.19-1.23,3.2,3.2,0,0,1,1.75-.47,3.47,3.47,0,0,1,2.35.76,2.87,2.87,0,0,1,1,2Zm-2.47,6a1.47,1.47,0,0,0,1.17.54,1.3,1.3,0,0,0,1.09-.52,2.17,2.17,0,0,0,.4-1.35,2,2,0,0,0-.45-1.42,1.45,1.45,0,0,0-1.11-.49,1.48,1.48,0,0,0-.94.32,1.82,1.82,0,0,0-.61,1.53A2.07,2.07,0,0,0,382.43,238.85Z"/><circle class="cls-6" cx="477.86" cy="22.03" r="8.24"/><path class="cls-4" d="M474.36,17.71h1.89l3.43,6v-6h1.68v8.64h-1.8L476,20.22v6.13h-1.68Z"/><circle class="cls-6" cx="497.55" cy="22.03" r="8.24"/><path class="cls-4" d="M501.38,23.64a3.22,3.22,0,0,1-.67,1.23l1,.93-.94,1-1-1a3.65,3.65,0,0,1-2.21.6,4,4,0,0,1-2.79-1,4.57,4.57,0,0,1-1.34-3.56,4.53,4.53,0,0,1,1.37-3.58,4,4,0,0,1,2.78-1,4,4,0,0,1,2.81,1,4.39,4.39,0,0,1,1.31,3.39A5.75,5.75,0,0,1,501.38,23.64Zm-3.27,1.16a3,3,0,0,0,.4-.15l-.87-.83.93-1,.88.83a4.11,4.11,0,0,0,.29-.74,4.24,4.24,0,0,0,.13-1.11,3.69,3.69,0,0,0-.59-2.25,2,2,0,0,0-1.74-.79,2.12,2.12,0,0,0-1.71.76,3.48,3.48,0,0,0-.64,2.28,3.15,3.15,0,0,0,.91,2.54,2.13,2.13,0,0,0,1.42.5A2.32,2.32,0,0,0,498.11,24.8Z"/><circle class="cls-6" cx="516.81" cy="22.03" r="8.24"/><path class="cls-4" d="M518.79,17.94a2.14,2.14,0,0,1,.81.6,2.69,2.69,0,0,1,.43.73,2.42,2.42,0,0,1,.16.91,2.59,2.59,0,0,1-.31,1.21,1.74,1.74,0,0,1-1,.84,1.61,1.61,0,0,1,.85.68,2.84,2.84,0,0,1,.25,1.35v.58a4.32,4.32,0,0,0,0,.8.72.72,0,0,0,.33.49v.22h-2q-.08-.29-.12-.46a4.25,4.25,0,0,1-.08-.74v-.8a1.63,1.63,0,0,0-.29-1.1,1.45,1.45,0,0,0-1-.28h-1.76v3.39h-1.76V17.71h4.13A3.76,3.76,0,0,1,518.79,17.94Zm-3.73,1.28v2.32H517a2.07,2.07,0,0,0,.87-.14,1,1,0,0,0,.51-1,1.09,1.09,0,0,0-.5-1.05,1.79,1.79,0,0,0-.83-.15Z"/><circle class="cls-7" cx="425.7" cy="294.88" r="8.24"/><path class="cls-4" d="M422.62,290.56h6.16v1.52h-4.37v2h3.83v1.5h-3.83v3.62h-1.79Z"/><circle class="cls-7" cx="387.85" cy="294.88" r="8.24"/><path class="cls-4" d="M391.2,291.48a2.2,2.2,0,0,1,.4,1.32,1.92,1.92,0,0,1-.4,1.27,2.06,2.06,0,0,1-.66.49,1.92,1.92,0,0,1,1,.76,2.29,2.29,0,0,1,.34,1.27,2.52,2.52,0,0,1-.38,1.38,2.38,2.38,0,0,1-1.59,1.11,6,6,0,0,1-1.22.12h-3.89v-8.64H389A2.65,2.65,0,0,1,391.2,291.48Zm-4.69.58V294h2.1a1.74,1.74,0,0,0,.91-.21.82.82,0,0,0,.35-.76.77.77,0,0,0-.46-.8,3.25,3.25,0,0,0-1-.13Zm0,3.33v2.3h2.1a2,2,0,0,0,.88-.15,1.09,1.09,0,0,0,.57-1.08.93.93,0,0,0-.55-.93,2.18,2.18,0,0,0-.86-.15Z"/><circle class="cls-7" cx="406.77" cy="294.88" r="8.24"/><path class="cls-4" d="M408.65,290.75a2.85,2.85,0,0,1,1.47,1.1,3.85,3.85,0,0,1,.62,1.39,6.69,6.69,0,0,1,.16,1.43,5.74,5.74,0,0,1-.69,2.92,3.12,3.12,0,0,1-2.9,1.61h-3.72v-8.64h3.72A4.54,4.54,0,0,1,408.65,290.75Zm-3.31,1.31v5.64H407a1.8,1.8,0,0,0,1.78-1.26,4.43,4.43,0,0,0,.28-1.65,4.05,4.05,0,0,0-.41-2,1.75,1.75,0,0,0-1.65-.71Z"/><circle class="cls-7" cx="444.62" cy="294.88" r="8.24"/><path class="cls-4" d="M446.2,291.07h2.6v8.64h-1.68v-5.84q0-.25,0-.71t0-.7l-1.64,7.25h-1.75l-1.62-7.25q0,.25,0,.7t0,.71v5.84h-1.68v-8.64h2.63l1.57,6.79Z"/><path class="cls-8" d="M539.34,145.46q-3.92-14.66-18.71-18.14c-1.09-.25-2.22-.34-3.33-.51h-2.76c-.76.1-1.53.16-2.29.3-9.52,1.79-16,7.22-19.19,16.36a19.44,19.44,0,0,0,.08,13.68,63.48,63.48,0,0,0,5.42,10.78A170,170,0,0,0,513.34,188c.83,1,1.68,2,2.56,3l.59-.65c4-4.65,7.9-9.46,11.49-14.48a96.43,96.43,0,0,0,9.69-16.14C539.76,155.12,540.67,150.41,539.34,145.46Z"/><path class="cls-9" d="M520.63,127.33c-1.09-.25-2.22-.34-3.33-.51h-1.39V191l.58-.64c4-4.65,7.9-9.46,11.49-14.48a96.43,96.43,0,0,0,9.69-16.14c2.09-4.59,3-9.29,1.66-14.25Q535.42,130.8,520.63,127.33Z"/><path class="cls-4" d="M504.65,151.6V142a1.07,1.07,0,0,1,1.32-1.31h16.59a5.24,5.24,0,0,1,5.13,5.18c0,1.88-.24,3.77-.26,5.66a22.3,22.3,0,0,0,.25,5.09c.65,2.86-1.88,6-5.37,6-5.47-.08-10.94-.1-16.43-.1a1,1,0,0,1-1.23-1.26c.07-3.21,0-6.42,0-9.64h0Zm1.4,9.18c2.19-.62,2.73-1.39,2.72-3.1V144.8a.87.87,0,0,1,1-1.06H514c2.84.1,5.68.34,8.51.36a5.33,5.33,0,0,0,2-1l-.14-.6a13.33,13.33,0,0,0-2.68-.61c-4.79-.09-9.6-.08-14.4-.13-.93,0-1.2.32-1.15,1.3v12.47c-.16,1.79-.16,3.52-.16,5.35Zm3.44-1.71a1.72,1.72,0,0,0,.54.26c3.66.06,7.31.14,11,.13a2.29,2.29,0,0,0,2.56-1.79,37.37,37.37,0,0,0,.11-4.93.69.69,0,0,0-.45-.42c-1-.29-2.29,1.15-2.18,2.18.2,2,.29,3.09-2.29,2.91-2-.14-4.06-.13-6.09-.21a3.14,3.14,0,0,0-3.18,1.93Zm-.07-7.78a1.15,1.15,0,0,0,.4.25c4.16,0,8.32.08,12.48,0a1.87,1.87,0,0,0,1.33-1.23,20.77,20.77,0,0,0,0-4.18,1.85,1.85,0,0,0-.73-1.24,3.51,3.51,0,0,0-1.72.83,1.72,1.72,0,0,0-.08,1.24c.29,1.7-.07,2.56-1.26,2.6H515.1c-2,0-4.21-.42-5.69,1.78Zm6.7,4.9h0q1.22.06,2.43,0a2,2,0,0,0,.75-.61,2,2,0,0,0-.72-.76,48.71,48.71,0,0,0-5,0,2.23,2.23,0,0,0-.87.69,2.29,2.29,0,0,0,.86.68,23.67,23.67,0,0,0,2.57.06Zm3.25-8.12v-.52a9.69,9.69,0,0,0-1.49-.3,37.1,37.1,0,0,0-4.07,0,2.91,2.91,0,0,0-1,.52,2.81,2.81,0,0,0,1,.63c1.45.1,2.89.13,4.35.1a4.86,4.86,0,0,0,1.23-.38Z"/></g></g></svg>