<svg xmlns="http://www.w3.org/2000/svg" viewBox="0 0 372.85 373"><defs><style>.cls-1,.cls-2{fill:#fff;}.cls-2,.cls-4{font-size:12px;font-family:Oswald-MediumItalic, Oswald;}.cls-3{letter-spacing:-0.01em;}.cls-5{letter-spacing:0em;}.cls-6{fill:#008442;}.cls-7{fill:#fbcc0c;}.cls-8{fill:#f16422;}.cls-9{fill:#d64527;}.cls-10{fill:#aa3522;}</style></defs><title>bbar-street-map-trpt-sq</title><g id="Layer_2" data-name="Layer 2"><g id="Layer_1-2" data-name="Layer 1"><rect class="cls-1" width="372.85" height="373"/><path d="M364.56,9.9l8.29-.48V6.34L362.21,7c-4.06.26-8.11.79-12.17,1a10.19,10.19,0,0,1-4.48-.88C341.63,5.31,337.8,3.3,334,1.35A17.18,17.18,0,0,1,332,0h-7.5l16.37,8.38v.47l-22.37,2.07L324,0h-9L300.27,26.18c-9-8-20.48-10.42-30.72-15.73L272,0h-8.5l-1.42,6.83L253,1.91,254,0H233l5.51,3.37c-3.42,3-6.75,5.92-10.17,8.78a2.49,2.49,0,0,1-1.86.16Q201.15,6.42,175.83.46A3.66,3.66,0,0,1,175,0h-14.5c-1.47,2.28-2.88,4.61-4.43,6.84-4.37,6.27-8.81,12.51-13.34,18.92L110.06,4.64,112.49,0H109l-1.81,2.91L103.49,0h-6l8,5.56L84.09,38.77,52,17.38,63,0H59c-1.54,2.61-3,5.24-4.64,7.82s-3.31,5.13-5,7.78c-7.59-5.07-15-10-22.46-15C26.69.46,26.61.2,26.49,0h-6L47.61,18.28,26,51.83,0,35v3.79L59.39,77.08l-23.6,36.58C23.88,106,11.93,98.42,0,90.82V94.5l34.11,21.77L0,169.17v5.78l37.31-57.86c11.9,5.75,22.72,13.18,34.4,19.63L22,214.39,0,200v3.74l20.14,13.2L0,248.76v15.13l1.9-3.09,2.68.72.78-1-2.26-1c.58-3.52,2.7.46,3.74-1.45l-2-2.09,22.18-34.51,32.05,21L40.89,272.37l-3.45-1.2-.39.72,2.69,2.21c-2.62,3.87-5.26,7.77-7.92,11.66-3.79,5.53-3.79,5.53-10.25,3.5L0,282.44v16.63l17,5.33c.61.19,1.21.45,1.73.65C12.94,316.1,6.61,326.76,0,337.23v5.91l3.87-5.87,15,11.71c-4.46,7.26-8.8,14.31-13.11,21.38A26.83,26.83,0,0,0,4.49,373H14c1.78-3.07,3.54-6.16,5.36-9.21s3.89-6.35,6-9.74l15.47,12.06a30.12,30.12,0,0,0,3.16,2.43c1.86,1.08,2.55,2.43,1.55,4.45H49c1.75-4.82,3.45-9.66,5.25-14.47q6.12-16.33,12.32-32.62c.26-.69.57-1.36,1-2.33L98.16,338,86.49,373H90c1.13-3.63,2.21-7.28,3.4-10.89,2.46-7.49,5-15,7.6-22.79l31,14.56L126,373h3.5l5.24-17.75,32.07,14.86L166,373h52c-5.59-2.29-11.17-4.62-16.78-6.87C196,364,190.7,362,185.12,359.8l10-37.87a43,43,0,0,1,5.09,2q26.72,14.86,53.38,29.82c.28.16.53.37,1.41,1-2.66,3.61-5.31,7.15-7.89,10.74-1.77,2.46-3.45,5-5.16,7.48h14.5c-.08-5.4.71-7.52,5.52-14.63L288,373h6.5l-28.28-15.83-2.81-1.57,20.16-35.78L313.31,336l59.54,32.42V365q-11.26-6.19-22.54-12.35Q319,335.5,287.62,318.46c-.78-.43-1.56-.87-2.51-1.41l20.72-37.8,67,37.24v-3.59l-65.52-36.4,19.19-35,46.33,25.74v-3.59L328,238.72l18.82-33.88,26,15.1v-3.58q-12.1-7.34-24.13-14.86l18.54-33.14,5.59,3.13v-3.6l-4.06-2.27,4.06-7.25V141.65l-11.13,19.9L288.64,120.4l18.2-32,66,36.48V121.3L284.25,72.22l20-36.84,68.55,38.4v-3.6l-67-37.54,7.35-12.76c3.4-5.91,3.4-5.85,10.24-6.38s13.59-1.32,20.39-1.78a10.14,10.14,0,0,1,5.44.92q11.8,6.75,23.56,13.57V22l-9.69-5.76c-.72-.43-1.66-1.83-1.45-2.25C362.44,12.5,361.84,10,364.56,9.9ZM246.3,7.53l13.18,7.25c-1,4.12-1,4.08-4.77,3.42-5.56-1-11.13-1.9-17.41-3ZM230.18,22.47c3.54-5.08,7.34-6.44,13.17-4.69,4.49,1.35,9.3,1.68,14.18,2.5a19.89,19.89,0,0,1-.32,2Q249,52.65,240.82,83c-1.09,4-1.49,8,.72,11.83a2.74,2.74,0,0,1-.17,2.06c-6.81,16.07-9,33.35-13.18,50.1a41.69,41.69,0,0,0-.63,5c-8.93-5.27-17.57-10.38-26.22-15.46-.1-.06-.39.22-1.22.72l26.18,16c-4.62,6.9-4.72,15.11-7,22.68l-.81,2.69-33.28-21a10.25,10.25,0,0,0,1.12-2.42,2.51,2.51,0,0,0-.52-1.93c-.34-.35-1.2-.19-1.82-.25,0,.63.11,1.26.12,1.89s-.06,1-.12,1.76l-28.39-20c3.52-5.58,7.18-11.29,10.76-17,15.77-25.37,31.32-50.89,47.39-76.07C218.54,36,225.1,29.75,230.18,22.47Zm18.17,67.32a4.08,4.08,0,0,1-.13-2.91c2.48-9.14,5-18.26,7.59-27.38,0-.14.23-.23.46-.46l19.6,11.05c-4.7,10.77-11.57,20-18.64,29.15C253.14,97.15,250.72,93.46,248.35,89.79Zm3.17,18c-6.65,11.19-16.47,22.46-20.86,36.88,3.84-15.92,5.56-32.32,11.82-46.13Zm-173,83.65,24.23-35.65,21.57,14.46-21.51,37.4Zm22.78,19L89.87,231c-.65-.36-1.22-.62-1.74-1-6.95-4.57-13.86-9.21-20.86-13.7-1.77-1.14-1.82-2.06-.75-3.76,3.7-5.91,7.24-11.92,11-18.11ZM80.46,138.06l20.79-32.65a68.71,68.71,0,0,0,6.37,5.17c12.22,7.76,24.52,15.4,36.79,23.08.76.48,1.5,1,2.41,1.61l-20.45,32.18Zm73.46,1.19c20.87,14.87,41.71,29.54,64,42.42L207.48,221.3l-74.63-48.88ZM148.11,32.43c6.46-9.9,13.51-19.4,20.38-29a2.85,2.85,0,0,1,2.41-.85Q198,8.79,225.08,15.2c.05,0,.08.12.31.46-1.34,1.62-2.68,3.4-4.18,5C209,33.81,200.45,49.38,191.06,64.41q-20.52,32.82-41,65.69c-.48.77-1,1.51-1.64,2.5-15.12-10-31-18.65-45.66-29.4.85-1.43,1.33-2.28,1.86-3.1C119.11,77.52,133.46,54.87,148.11,32.43ZM108.2,7.17,141,28.36,119.21,62.18,86.69,40.51ZM85,43.14,117.51,64.8,96.67,97.47l-33-21.3ZM28.66,53.54,50.25,20,82.39,41.4,61.07,74.47Zm10.57,60.57L62,78.81l33,21.31L73.36,134Zm39.38,26.83,22.8,13.93L77.21,190.5,56,176.43ZM28.77,218.8l25.51-39.72,20.58,13.64-11.39,19c-1.78,3-1.46,4.8,1.42,6.74,7.65,5.16,15.34,10.25,23.28,15.55L78.4,251.51Zm33.17,25.56,14.66,9.83a11.17,11.17,0,0,1-.6,1.42c-8.18,13.52-16.4,27-24.53,40.57-1,1.66-1.88,2-3.76,1.38-5.33-1.86-10.74-3.48-16.12-5.19Zm-41.45,102-15-11.7L22,306l19.5,6.09Zm27,21.13L27,351.38,49.29,315l15.37,7.19Zm23-61.15-12.32-5.56,25.44-42a10.54,10.54,0,0,1,1,.38c3.19,1.71,3.2,1.71,1.88,5.2q-7.59,20.15-15.19,40.3C71.13,305.15,70.84,305.63,70.5,306.3Zm2.95,1.46,17.21-45.54L120,272.7l-16.44,49.16Zm33,15.41L123,273.75l30.12,10.7L136.94,337.5Zm60.59,38L157.63,357l.21-.64,9.4,4.2Zm4.57-7.48-31.79-14.8,16.29-53.51,31.18,10.58ZM188,292.9c-34.68-11.69-69-23.31-103-36.37.77-1.51,1.12-2.25,1.52-3,2.79-5,5.6-10,8.55-15.27,4.23,2.7,8.3,5.36,12.45,7.91,1.21.75,2.77,2.67,4,.71s-1.23-2.53-2.38-3.3c-4.06-2.74-8.21-5.32-12.52-8.08l11.42-20.59,85.79,55.81Zm6.67-25.37-85.08-55.35,21.5-37.42c4.42,3,8.54,5.76,12.7,8.49q30.49,20,61,39.85c1.63,1.06,1.9,1.95,1.36,3.79-3.67,12.78-7.19,25.61-10.77,38.41C195.28,265.87,195.07,266.41,194.7,267.54Zm61.55,84.11L225,334.32l8.72-20.53a10,10,0,0,0,1-2.55A1.44,1.44,0,0,0,232.1,310a5.83,5.83,0,0,0-1,2q-3.91,9.18-7.81,18.36c-.32.74-.69,1.47-1.07,2.28l-26.1-14.33,11.09-40.94,69.2,38.54ZM278,313.05c-.92-.47-1.72-.84-2.49-1.27l-65.2-36.31c-1.13-.63-2.35-1-1.81-2.91C212.3,259,216,245.5,219.88,231.5l78.81,43.76ZM300.2,272.5c-6.5-3.6-12.9-7.13-19.29-10.68q-29.11-16.17-58.23-32.34c-1.17-.65-2-1.15-1.53-2.83,3.37-12.34,6.63-24.71,9.93-37.07a11.16,11.16,0,0,1,.56-1.32l87.68,49.34Zm20.68-37.85c-.83-.43-1.56-.77-2.26-1.16q-42.11-23.66-84.24-47.29c-1.59-.89-2-1.66-1.44-3.48,2.1-6.66,3.73-13.48,6-20.06,1.66-4.74,4.12-9.19,6.32-14L340,200.3Zm39.3-70.4-18.64,33.32L247.11,146.1l19.7-34.31ZM304.09,86.85l-18.19,32c-5.7-3.16-11.27-6.23-16.8-9.38a1.74,1.74,0,0,1-.52-1.58C272.69,96.7,276,85.13,283,75ZM276.81,68.79,256.37,57.27l9.43-35.48c11.57.2,21.57,3.83,30.31,11.54Zm81.54-55.25-4.26-2.15v-.64l5.49-.43Z"/><path d="M0,19.94,11.3,2.17c.44-.69.79-1.44,1.19-2.17H9L0,14.1Z"/><text class="cls-2" transform="matrix(0.23, -0.97, 0.97, 0.23, 206.34, 267.25)">B<tspan class="cls-3" x="6.63" y="0">o</tspan><tspan x="11.96" y="0">wery</tspan></text><text class="cls-4" transform="matrix(0.88, 0.48, -0.48, 0.88, 270.17, 203.47)">E 4th St</text><text class="cls-4" transform="matrix(0.88, 0.48, -0.48, 0.88, 292.13, 168.42)">E 5th St</text><text class="cls-4" transform="matrix(0.88, 0.48, -0.48, 0.88, 249, 241.56)">E 3<tspan class="cls-5" x="14.07" y="0">r</tspan><tspan x="18.19" y="0">d St</tspan></text><text class="cls-4" transform="matrix(0.53, -0.85, 0.85, 0.53, 148.17, 124.97)">Broadway-Lafayette</text><text class="cls-4" transform="translate(31.16 192.81) rotate(-58.31)">Broadway</text><text class="cls-2" transform="translate(80.07 325.54) rotate(25.42)">Houston St</text><rect class="cls-1" x="263.62" y="38.95" width="67.15" height="15.48" transform="translate(60.29 -138.73) rotate(29.12)"/><text class="cls-4" transform="translate(271.76 37.56) rotate(29.12)">Astor Place</text><text class="cls-4" transform="matrix(0.88, 0.48, -0.48, 0.88, 225.38, 281.56)">E 2nd St</text><text class="cls-4" transform="matrix(0.84, 0.54, -0.54, 0.84, 134.45, 225.93)">Bond St</text><circle class="cls-6" cx="242.92" cy="29.79" r="8.24"/><path class="cls-1" d="M244.27,27.07a1.06,1.06,0,0,0-.2-.56,1.14,1.14,0,0,0-1-.5,1.5,1.5,0,0,0-1.44,1.14A7.07,7.07,0,0,0,241.3,29a2.33,2.33,0,0,1,.9-.67,3.28,3.28,0,0,1,3.48.74,3.42,3.42,0,0,1,.9,2.44,4.13,4.13,0,0,1-.88,2.61,3.26,3.26,0,0,1-2.74,1.13A3.16,3.16,0,0,1,240,33.59a6.81,6.81,0,0,1-.74-3.37,15.29,15.29,0,0,1,.1-2,6,6,0,0,1,.71-2.25,3.62,3.62,0,0,1,1.19-1.23,3.2,3.2,0,0,1,1.75-.47,3.47,3.47,0,0,1,2.35.76,2.87,2.87,0,0,1,1,2Zm-2.47,6a1.47,1.47,0,0,0,1.17.54,1.3,1.3,0,0,0,1.09-.52,2.17,2.17,0,0,0,.4-1.35,2,2,0,0,0-.45-1.42,1.45,1.45,0,0,0-1.11-.49,1.48,1.48,0,0,0-.94.32,1.82,1.82,0,0,0-.61,1.53A2.07,2.07,0,0,0,241.81,33Z"/><circle class="cls-6" cx="73.45" cy="235.71" r="8.24"/><path class="cls-1" d="M74.8,233a1.06,1.06,0,0,0-.2-.56,1.14,1.14,0,0,0-1-.5,1.5,1.5,0,0,0-1.44,1.14,7.07,7.07,0,0,0-.32,1.85,2.33,2.33,0,0,1,.9-.67,3.28,3.28,0,0,1,3.48.74,3.42,3.42,0,0,1,.9,2.44,4.13,4.13,0,0,1-.88,2.61,3.26,3.26,0,0,1-2.74,1.13,3.16,3.16,0,0,1-2.95-1.67,6.81,6.81,0,0,1-.74-3.37,15.29,15.29,0,0,1,.1-2,6,6,0,0,1,.71-2.25,3.62,3.62,0,0,1,1.19-1.23,3.2,3.2,0,0,1,1.75-.47,3.47,3.47,0,0,1,2.35.76,2.87,2.87,0,0,1,1,2Zm-2.47,6a1.47,1.47,0,0,0,1.17.54,1.3,1.3,0,0,0,1.09-.52,2.17,2.17,0,0,0,.4-1.35,2,2,0,0,0-.45-1.42,1.45,1.45,0,0,0-1.11-.49,1.48,1.48,0,0,0-.94.32,1.82,1.82,0,0,0-.61,1.53A2.07,2.07,0,0,0,72.34,239Z"/><circle class="cls-7" cx="167.76" cy="22.14" r="8.24"/><path class="cls-1" d="M164.26,17.82h1.89l3.43,6v-6h1.68v8.64h-1.8l-3.52-6.13v6.13h-1.68Z"/><circle class="cls-7" cx="187.45" cy="22.14" r="8.24"/><path class="cls-1" d="M191.29,23.75a3.22,3.22,0,0,1-.67,1.23l1,.93-.94,1-1-1a3.65,3.65,0,0,1-2.21.6,4,4,0,0,1-2.79-1,4.57,4.57,0,0,1-1.34-3.56,4.53,4.53,0,0,1,1.37-3.58,4,4,0,0,1,2.78-1,4,4,0,0,1,2.81,1,4.39,4.39,0,0,1,1.31,3.39A5.75,5.75,0,0,1,191.29,23.75ZM188,24.91a3,3,0,0,0,.4-.15l-.87-.83.93-1,.88.83a4.11,4.11,0,0,0,.29-.74,4.24,4.24,0,0,0,.13-1.11,3.69,3.69,0,0,0-.59-2.25,2,2,0,0,0-1.74-.79,2.12,2.12,0,0,0-1.71.76,3.48,3.48,0,0,0-.64,2.28,3.15,3.15,0,0,0,.91,2.54,2.13,2.13,0,0,0,1.42.5A2.32,2.32,0,0,0,188,24.91Z"/><circle class="cls-7" cx="206.71" cy="22.14" r="8.24"/><path class="cls-1" d="M208.69,18a2.14,2.14,0,0,1,.81.6,2.69,2.69,0,0,1,.43.73,2.42,2.42,0,0,1,.16.91,2.59,2.59,0,0,1-.31,1.21,1.74,1.74,0,0,1-1,.84,1.61,1.61,0,0,1,.85.68,2.84,2.84,0,0,1,.25,1.35v.58a4.32,4.32,0,0,0,0,.8.72.72,0,0,0,.33.49v.22h-2q-.08-.29-.12-.46a4.25,4.25,0,0,1-.08-.74v-.8a1.63,1.63,0,0,0-.29-1.1,1.45,1.45,0,0,0-1-.28H205v3.39h-1.76V17.82h4.13A3.76,3.76,0,0,1,208.69,18ZM205,19.32v2.32h1.94a2.07,2.07,0,0,0,.87-.14,1,1,0,0,0,.51-1,1.09,1.09,0,0,0-.5-1.05,1.79,1.79,0,0,0-.83-.15Z"/><rect class="cls-1" x="69.51" y="282.53" width="76.62" height="22.38"/><circle class="cls-8" cx="115.6" cy="294.99" r="8.24"/><path class="cls-1" d="M112.52,290.67h6.16v1.52h-4.37v2h3.83v1.5h-3.83v3.62h-1.79Z"/><circle class="cls-8" cx="77.75" cy="294.99" r="8.24"/><path class="cls-1" d="M81.11,291.59a2.2,2.2,0,0,1,.4,1.32,1.92,1.92,0,0,1-.4,1.27,2.06,2.06,0,0,1-.66.49,1.92,1.92,0,0,1,1,.76,2.29,2.29,0,0,1,.34,1.27,2.52,2.52,0,0,1-.38,1.38,2.38,2.38,0,0,1-1.59,1.11,6,6,0,0,1-1.22.12H74.69v-8.64h4.17A2.65,2.65,0,0,1,81.11,291.59Zm-4.69.58v1.9h2.1a1.74,1.74,0,0,0,.91-.21.82.82,0,0,0,.35-.76.77.77,0,0,0-.46-.8,3.25,3.25,0,0,0-1-.13Zm0,3.33v2.3h2.1a2,2,0,0,0,.88-.15,1.09,1.09,0,0,0,.57-1.08.93.93,0,0,0-.55-.93,2.18,2.18,0,0,0-.86-.15Z"/><circle class="cls-8" cx="96.67" cy="294.99" r="8.24"/><path class="cls-1" d="M98.55,290.86A2.85,2.85,0,0,1,100,292a3.85,3.85,0,0,1,.62,1.39,6.69,6.69,0,0,1,.16,1.43,5.74,5.74,0,0,1-.69,2.92,3.12,3.12,0,0,1-2.9,1.61H93.49v-8.64h3.72A4.54,4.54,0,0,1,98.55,290.86Zm-3.31,1.31v5.64h1.67a1.8,1.8,0,0,0,1.78-1.26A4.43,4.43,0,0,0,99,294.9a4.05,4.05,0,0,0-.41-2,1.75,1.75,0,0,0-1.65-.71Z"/><circle class="cls-8" cx="134.52" cy="294.99" r="8.24"/><path class="cls-1" d="M136.1,291.18h2.6v8.64H137V294q0-.25,0-.71t0-.7l-1.64,7.25h-1.75L132,292.57q0,.25,0,.7t0,.71v5.84h-1.68v-8.64H133l1.57,6.79Z"/><path class="cls-9" d="M229.24,145.57q-3.92-14.66-18.71-18.14c-1.09-.25-2.22-.34-3.33-.51h-2.76c-.76.1-1.53.16-2.29.3-9.52,1.79-16,7.22-19.19,16.36a19.44,19.44,0,0,0,.08,13.68A63.48,63.48,0,0,0,188.46,168a170,170,0,0,0,14.78,20.06c.83,1,1.68,2,2.56,3l.59-.65c4-4.65,7.9-9.46,11.49-14.48a96.43,96.43,0,0,0,9.69-16.14C229.66,155.23,230.57,150.52,229.24,145.57Z"/><path class="cls-10" d="M210.53,127.43c-1.09-.25-2.22-.34-3.33-.51h-1.39v64.15l.58-.64c4-4.65,7.9-9.46,11.49-14.48a96.43,96.43,0,0,0,9.69-16.14c2.09-4.59,3-9.29,1.66-14.25Q225.32,130.91,210.53,127.43Z"/><path class="cls-1" d="M194.55,151.71v-9.64a1.07,1.07,0,0,1,1.32-1.31h16.59a5.24,5.24,0,0,1,5.13,5.18c0,1.88-.24,3.77-.26,5.66a22.3,22.3,0,0,0,.25,5.09c.65,2.86-1.88,6-5.37,6-5.47-.08-10.94-.1-16.43-.1a1,1,0,0,1-1.23-1.26c.07-3.21,0-6.42,0-9.64h0Zm1.4,9.18c2.19-.62,2.73-1.39,2.72-3.1V144.91a.87.87,0,0,1,1-1.06h4.21c2.84.1,5.68.34,8.51.36a5.33,5.33,0,0,0,2-1l-.14-.6a13.33,13.33,0,0,0-2.68-.61c-4.79-.09-9.6-.08-14.4-.13-.93,0-1.2.32-1.15,1.3V155.6c-.16,1.79-.16,3.52-.16,5.35Zm3.44-1.71a1.72,1.72,0,0,0,.54.26c3.66.06,7.31.14,11,.13a2.29,2.29,0,0,0,2.56-1.79,37.37,37.37,0,0,0,.11-4.93.69.69,0,0,0-.45-.42c-1-.29-2.29,1.15-2.18,2.18.2,2,.29,3.09-2.29,2.91-2-.14-4.06-.13-6.09-.21a3.14,3.14,0,0,0-3.18,1.93Zm-.07-7.78a1.15,1.15,0,0,0,.4.25c4.16,0,8.32.08,12.48,0a1.87,1.87,0,0,0,1.33-1.23,20.77,20.77,0,0,0,0-4.18,1.85,1.85,0,0,0-.73-1.24,3.51,3.51,0,0,0-1.72.83,1.72,1.72,0,0,0-.08,1.24c.29,1.7-.07,2.56-1.26,2.6H205c-2,0-4.21-.42-5.69,1.78Zm6.7,4.9h0q1.22.06,2.43,0a2,2,0,0,0,.75-.61,2,2,0,0,0-.72-.76,48.71,48.71,0,0,0-5,0,2.23,2.23,0,0,0-.87.69,2.29,2.29,0,0,0,.86.68,23.67,23.67,0,0,0,2.57.06Zm3.25-8.12v-.52a9.69,9.69,0,0,0-1.49-.3,37.1,37.1,0,0,0-4.07,0,2.91,2.91,0,0,0-1,.52,2.81,2.81,0,0,0,1,.63c1.45.1,2.89.13,4.35.1a4.86,4.86,0,0,0,1.23-.38Z"/></g></g></svg>