<svg xmlns="http://www.w3.org/2000/svg" viewBox="0 0 354.55 322.78"><defs><style>.cls-1,.cls-15,.cls-2,.cls-26,.cls-6{fill:#fff;}.cls-1{stroke:#fff;stroke-miterlimit:10;stroke-width:6px;}.cls-15,.cls-2,.cls-6{font-size:12px;font-family:Lato-Regular, Lato;}.cls-3{letter-spacing:-0.02em;}.cls-4{letter-spacing:0em;}.cls-5{letter-spacing:-0.02em;}.cls-6,.cls-9{letter-spacing:-0.01em;}.cls-7{letter-spacing:0em;}.cls-8{letter-spacing:-0.02em;}.cls-10{letter-spacing:0em;}.cls-11{letter-spacing:-0.01em;}.cls-12{letter-spacing:-0.01em;}.cls-13{letter-spacing:0em;}.cls-14{letter-spacing:0em;}.cls-15{letter-spacing:-0.01em;}.cls-16{letter-spacing:-0.02em;}.cls-17{letter-spacing:-0.01em;}.cls-18{letter-spacing:-0.02em;}.cls-19{letter-spacing:-0.01em;}.cls-20{letter-spacing:-0.02em;}.cls-21{letter-spacing:-0.01em;}.cls-22{letter-spacing:-0.03em;}.cls-23{letter-spacing:-0.02em;}.cls-24{letter-spacing:-0.02em;}.cls-25{letter-spacing:-0.01em;}.cls-27{fill:#d64728;}.cls-28{fill:#008442;}.cls-29{fill:#fccc0e;}.cls-30{fill:#f16624;}</style></defs><title>bbar-map</title><g id="Layer_2" data-name="Layer 2"><g id="Layer_1-2" data-name="Layer 1"><polyline class="cls-1" points="186.09 322.09 231.19 131.57 239.37 97.05"/><line class="cls-1" x1="81" y1="254.87" x2="217.26" y2="32.17"/><line class="cls-1" x1="35.32" y1="223.25" x2="174.33" y2="8.78"/><polyline class="cls-1" points="62.85 52.89 189.98 130.97 216.9 147.5 324.53 213.61"/><polyline class="cls-1" points="95.18 8.78 220.43 85.71 246.95 102 352.98 167.12"/><line class="cls-1" x1="36.58" y1="79.2" x2="306.19" y2="240.84"/><line class="cls-1" x1="126.85" y1="179.92" x2="287.84" y2="276.28"/><line class="cls-1" x1="1.61" y1="145.6" x2="197.59" y2="269.73"/><text class="cls-2" transform="translate(261.33 207.67) rotate(31.54)">E 3<tspan class="cls-3" x="16.96" y="0">r</tspan><tspan class="cls-4" x="21.1" y="0">d </tspan><tspan class="cls-5" x="30.89" y="0">S</tspan><tspan x="37.13" y="0">t</tspan></text><text class="cls-2" transform="translate(242.22 240.84) rotate(31.54)">E 2nd <tspan class="cls-5" x="33.45" y="0">S</tspan><tspan x="39.69" y="0">t</tspan></text><text class="cls-6" transform="translate(144.19 184.42) rotate(31.54)">B<tspan class="cls-7" x="7.67" y="0">ond </tspan><tspan class="cls-8" x="30.96" y="0">S</tspan><tspan class="cls-7" x="37.2" y="0">t</tspan></text><text class="cls-2" transform="matrix(0.52, -0.85, 0.85, 0.52, 105.14, 203.53)">L<tspan class="cls-9" x="6.16" y="0">a</tspan><tspan class="cls-10" x="12.04" y="0">f</tspan><tspan class="cls-11" x="16.21" y="0">a</tspan><tspan class="cls-12" x="22.03" y="0">y</tspan><tspan class="cls-13" x="28.04" y="0">e</tspan><tspan class="cls-14" x="34.34" y="0">tt</tspan><tspan class="cls-7" x="42.5" y="0">e </tspan><tspan class="cls-8" x="51.91" y="0">S</tspan><tspan class="cls-4" x="58.15" y="0">t</tspan></text><text class="cls-15" transform="translate(62.62 168.85) rotate(-56.91)">B<tspan class="cls-16" x="7.63" y="0">r</tspan><tspan class="cls-7" x="11.75" y="0">oad</tspan><tspan class="cls-17" x="31.24" y="0">w</tspan><tspan class="cls-11" x="40.59" y="0">a</tspan><tspan class="cls-18" x="46.41" y="0">y</tspan></text><text class="cls-2" transform="matrix(0.22, -0.97, 0.97, 0.22, 181.47, 313.32)"><tspan class="cls-9">Bo</tspan><tspan class="cls-19" x="14.38" y="0">w</tspan><tspan x="23.72" y="0">er</tspan><tspan class="cls-20" x="34.43" y="0">y</tspan></text><text class="cls-2" transform="translate(124.04 217.27) rotate(32.66)"><tspan class="cls-21">B</tspan><tspan x="7.64" y="0">leec</tspan><tspan class="cls-22" x="28.87" y="0">k</tspan><tspan x="34.63" y="0">e</tspan><tspan class="cls-23" x="40.96" y="0">r</tspan><tspan x="45.08" y="0"> </tspan><tspan class="cls-5" x="48.15" y="0">S</tspan><tspan x="54.39" y="0">t</tspan></text><text class="cls-2" transform="translate(278.67 178.05) rotate(31.54)">E 4th <tspan class="cls-8" x="31.03" y="0">S</tspan><tspan class="cls-7" x="37.27" y="0">t</tspan></text><text class="cls-2" transform="translate(303.95 127.13) rotate(31.54)"><tspan class="cls-5">S</tspan><tspan x="6.24" y="0">t. </tspan><tspan class="cls-24" x="16.45" y="0">M</tspan><tspan x="27.41" y="0">arks</tspan></text><text class="cls-2" transform="translate(205.2 67.1) rotate(31.54)">As<tspan class="cls-14" x="13.32" y="0">t</tspan><tspan x="17.59" y="0">o</tspan><tspan class="cls-23" x="24.4" y="0">r</tspan><tspan x="28.51" y="0"> </tspan><tspan class="cls-10" x="31.58" y="0">P</tspan><tspan class="cls-4" x="38.75" y="0">la</tspan><tspan class="cls-25" x="47.55" y="0">c</tspan><tspan class="cls-7" x="53.17" y="0">e</tspan></text><text class="cls-2" transform="translate(107.83 8.78) rotate(31.54)">E 8th <tspan class="cls-8" x="31.03" y="0">S</tspan><tspan class="cls-7" x="37.27" y="0">t.</tspan></text><polygon class="cls-26" points="220.03 173.37 194.75 157.02 201.69 135.44 225.22 151.06 220.03 173.37"/><path class="cls-27" d="M206.26,154.41v-5.33a.59.59,0,0,1,.73-.72h9.17a2.9,2.9,0,0,1,2.83,2.87c0,1-.13,2.09-.15,3.13a12.33,12.33,0,0,0,.14,2.82,2.88,2.88,0,0,1-3,3.3c-3,0-6-.06-9.08-.06a.56.56,0,0,1-.68-.7c0-1.78,0-3.55,0-5.33h0Zm.77,5.07c1.21-.34,1.51-.77,1.5-1.71v-7.12a.48.48,0,0,1,.57-.58h2.33c1.57.06,3.14.19,4.7.2a3,3,0,0,0,1.12-.58l-.08-.33a7.37,7.37,0,0,0-1.48-.34c-2.65-.05-5.31,0-8-.07-.51,0-.67.18-.63.72v6.89c-.09,1-.09,1.95-.09,3Zm1.9-.94a1,1,0,0,0,.3.15c2,0,4,.08,6.06.07a1.27,1.27,0,0,0,1.41-1,20.66,20.66,0,0,0,.06-2.73.38.38,0,0,0-.25-.23c-.54-.16-1.27.63-1.2,1.2.11,1.1.16,1.71-1.27,1.61-1.12-.08-2.24-.07-3.37-.11a1.74,1.74,0,0,0-1.76,1.07Zm0-4.3a.63.63,0,0,0,.22.14c2.3,0,4.6,0,6.9,0a1,1,0,0,0,.74-.68,11.48,11.48,0,0,0,0-2.31,1,1,0,0,0-.41-.68,1.94,1.94,0,0,0-1,.46,1,1,0,0,0,0,.68c.16.94,0,1.41-.7,1.44H212c-1.13,0-2.33-.23-3.15,1Zm3.7,2.71h0q.67,0,1.34,0a1.1,1.1,0,0,0,.41-.34,1.12,1.12,0,0,0-.4-.42,26.93,26.93,0,0,0-2.77,0,1.23,1.23,0,0,0-.48.38,1.27,1.27,0,0,0,.48.37,13.08,13.08,0,0,0,1.42,0Zm1.79-4.49v-.29a5.36,5.36,0,0,0-.82-.16,20.51,20.51,0,0,0-2.25,0,1.61,1.61,0,0,0-.57.29,1.55,1.55,0,0,0,.56.35c.8.06,1.6.07,2.4.06a2.69,2.69,0,0,0,.68-.21Z"/><circle class="cls-28" cx="198.77" cy="87.95" r="8.24"/><path class="cls-26" d="M200.13,85.23a1.06,1.06,0,0,0-.2-.56,1.14,1.14,0,0,0-1-.5,1.5,1.5,0,0,0-1.44,1.14,7.07,7.07,0,0,0-.32,1.85,2.33,2.33,0,0,1,.9-.67,3.28,3.28,0,0,1,3.48.74,3.42,3.42,0,0,1,.9,2.44,4.13,4.13,0,0,1-.88,2.61,3.26,3.26,0,0,1-2.74,1.13,3.16,3.16,0,0,1-2.95-1.67,6.81,6.81,0,0,1-.74-3.37,15.29,15.29,0,0,1,.1-2,6,6,0,0,1,.71-2.25,3.62,3.62,0,0,1,1.19-1.23,3.2,3.2,0,0,1,1.75-.47,3.47,3.47,0,0,1,2.35.76,2.87,2.87,0,0,1,1,2Zm-2.47,6a1.47,1.47,0,0,0,1.17.54,1.3,1.3,0,0,0,1.09-.52,2.17,2.17,0,0,0,.4-1.35,2,2,0,0,0-.45-1.42,1.45,1.45,0,0,0-1.11-.49,1.48,1.48,0,0,0-.94.32,1.82,1.82,0,0,0-.61,1.53A2.07,2.07,0,0,0,197.66,91.2Z"/><circle class="cls-28" cx="83.15" cy="217.27" r="8.24"/><path class="cls-26" d="M84.51,214.55a1.06,1.06,0,0,0-.2-.56,1.14,1.14,0,0,0-1-.5,1.5,1.5,0,0,0-1.44,1.14,7.07,7.07,0,0,0-.32,1.85,2.33,2.33,0,0,1,.9-.67,3.28,3.28,0,0,1,3.48.74,3.42,3.42,0,0,1,.9,2.44,4.13,4.13,0,0,1-.88,2.61,3.26,3.26,0,0,1-2.74,1.13,3.16,3.16,0,0,1-2.95-1.67,6.81,6.81,0,0,1-.74-3.37,15.29,15.29,0,0,1,.1-2,6,6,0,0,1,.71-2.25,3.62,3.62,0,0,1,1.19-1.23,3.2,3.2,0,0,1,1.75-.47,3.47,3.47,0,0,1,2.35.76,2.87,2.87,0,0,1,1,2Zm-2.47,6a1.47,1.47,0,0,0,1.17.54,1.3,1.3,0,0,0,1.09-.52,2.17,2.17,0,0,0,.4-1.35,2,2,0,0,0-.45-1.42,1.45,1.45,0,0,0-1.11-.49,1.48,1.48,0,0,0-.94.32,1.82,1.82,0,0,0-.61,1.53A2.07,2.07,0,0,0,82,220.51Z"/><circle class="cls-29" cx="91.39" cy="49.26" r="8.24"/><path class="cls-26" d="M87.89,44.94h1.89l3.43,6v-6h1.68v8.64h-1.8l-3.52-6.13v6.13H87.89Z"/><circle class="cls-29" cx="111.08" cy="49.26" r="8.24"/><path class="cls-26" d="M114.92,50.87a3.22,3.22,0,0,1-.67,1.23l1,.93-.94,1-1-1a3.65,3.65,0,0,1-2.21.6,4,4,0,0,1-2.79-1,4.57,4.57,0,0,1-1.34-3.56,4.53,4.53,0,0,1,1.37-3.58,4,4,0,0,1,2.78-1,4,4,0,0,1,2.81,1,4.39,4.39,0,0,1,1.31,3.39A5.75,5.75,0,0,1,114.92,50.87ZM111.64,52a3,3,0,0,0,.4-.15l-.87-.83.93-1,.88.83a4.11,4.11,0,0,0,.29-.74,4.24,4.24,0,0,0,.13-1.11,3.69,3.69,0,0,0-.59-2.25,2,2,0,0,0-1.74-.79,2.12,2.12,0,0,0-1.71.76,3.48,3.48,0,0,0-.64,2.28,3.15,3.15,0,0,0,.91,2.54,2.13,2.13,0,0,0,1.42.5A2.32,2.32,0,0,0,111.64,52Z"/><circle class="cls-29" cx="130.34" cy="49.26" r="8.24"/><path class="cls-26" d="M132.32,45.16a2.14,2.14,0,0,1,.81.6,2.69,2.69,0,0,1,.43.73,2.42,2.42,0,0,1,.16.91,2.59,2.59,0,0,1-.31,1.21,1.74,1.74,0,0,1-1,.84,1.61,1.61,0,0,1,.85.68,2.84,2.84,0,0,1,.25,1.35v.58a4.32,4.32,0,0,0,0,.8.72.72,0,0,0,.33.49v.22h-2q-.08-.29-.12-.46a4.25,4.25,0,0,1-.08-.74v-.8a1.63,1.63,0,0,0-.29-1.1,1.45,1.45,0,0,0-1-.28h-1.76v3.39h-1.76V44.94H131A3.76,3.76,0,0,1,132.32,45.16Zm-3.73,1.28v2.32h1.94a2.07,2.07,0,0,0,.87-.14,1,1,0,0,0,.51-1,1.09,1.09,0,0,0-.5-1.05,1.79,1.79,0,0,0-.83-.15Z"/><circle class="cls-30" cx="139.8" cy="265.68" r="8.24"/><path class="cls-26" d="M136.73,261.37h6.16v1.52h-4.37v2h3.83v1.5h-3.83V270h-1.79Z"/><circle class="cls-30" cx="101.96" cy="265.68" r="8.24"/><path class="cls-26" d="M105.31,262.28a2.2,2.2,0,0,1,.4,1.32,1.92,1.92,0,0,1-.4,1.27,2.06,2.06,0,0,1-.66.49,1.92,1.92,0,0,1,1,.76,2.29,2.29,0,0,1,.34,1.27,2.52,2.52,0,0,1-.38,1.38,2.38,2.38,0,0,1-1.59,1.11,6,6,0,0,1-1.22.12H98.9v-8.64h4.17A2.65,2.65,0,0,1,105.31,262.28Zm-4.69.58v1.9h2.1a1.74,1.74,0,0,0,.91-.21.82.82,0,0,0,.35-.76.77.77,0,0,0-.46-.8,3.25,3.25,0,0,0-1-.13Zm0,3.33v2.3h2.1a2,2,0,0,0,.88-.15,1.09,1.09,0,0,0,.57-1.08.93.93,0,0,0-.55-.93,2.18,2.18,0,0,0-.86-.15Z"/><circle class="cls-30" cx="120.88" cy="265.68" r="8.24"/><path class="cls-26" d="M122.76,261.55a2.85,2.85,0,0,1,1.47,1.1,3.85,3.85,0,0,1,.62,1.39,6.69,6.69,0,0,1,.16,1.43,5.74,5.74,0,0,1-.69,2.92,3.12,3.12,0,0,1-2.9,1.61H117.7v-8.64h3.72A4.54,4.54,0,0,1,122.76,261.55Zm-3.31,1.31v5.64h1.67a1.8,1.8,0,0,0,1.78-1.26,4.43,4.43,0,0,0,.28-1.65,4.05,4.05,0,0,0-.41-2,1.75,1.75,0,0,0-1.65-.71Z"/><circle class="cls-30" cx="158.73" cy="265.68" r="8.24"/><path class="cls-26" d="M160.31,261.88h2.6v8.64h-1.68v-5.84q0-.25,0-.71t0-.7l-1.64,7.25h-1.75l-1.62-7.25q0,.25,0,.7t0,.71v5.84h-1.68v-8.64h2.63l1.57,6.79Z"/></g></g></svg>