<svg xmlns="http://www.w3.org/2000/svg" viewBox="0 0 699.12 27.49"><defs><style>.cls-1{fill:none;stroke:#1e3238;stroke-miterlimit:10;stroke-width:0.25px;}.cls-2{fill:#1e3238;}.cls-3{fill:#d64627;}</style></defs><title>bbar-taco-mask</title><g id="Layer_2" data-name="Layer 2"><g id="Layer_1-2" data-name="Layer 1"><line class="cls-1" y1="12.7" x2="327.16" y2="12.7"/><line class="cls-1" y1="14.79" x2="327.16" y2="14.79"/><line class="cls-1" x1="371.96" y1="12.7" x2="699.12" y2="12.7"/><line class="cls-1" x1="371.96" y1="14.79" x2="699.12" y2="14.79"/><path class="cls-2" d="M350.11,14.39l-.47-1.11c.22-.06.61-.21.64-.16a7,7,0,0,1,.41,1Z"/><path class="cls-2" d="M348.75,14.47c-.55-.67-.64-1.11-.1-1.44.11-.06.61.25.59.3A8.18,8.18,0,0,1,348.75,14.47Z"/><path class="cls-2" d="M340.49,16c.76-.35,1.25-.1,1.45.66a4,4,0,0,1,1.22-.3,1.15,1.15,0,0,1,.8.57.9.9,0,0,1-.27.82c-.19.14-.58,0-.87,0-.05,0,0-.32-.07-.49l.92.27c0-.24,0-.66-.08-.69a2,2,0,0,0-1.06-.06c-.74.21-1.44.52-2.28.84a1.61,1.61,0,0,0,1.46.74,11.17,11.17,0,0,1,1.46,0,1.92,1.92,0,0,1,1.08.55c.17.2,0,.67,0,1a3.73,3.73,0,0,1-.81-.42,6.11,6.11,0,0,1-.69-.84l-.24.12.28,2.11a10.55,10.55,0,0,1,1.15.18,2.24,2.24,0,0,1,0,.52l-.86-.05a2.46,2.46,0,0,0,.63,2.57,25.35,25.35,0,0,0,3.25,2.28c.14.09.47-.12.71-.2l-.07-.28a4.48,4.48,0,0,1-1.48-.26,1.57,1.57,0,0,1-.58-1.08c0-.14.56-.46.88-.5.17,0,.38.41.58.64l-.34.29-.48-.74c-.12.17-.43.46-.38.55a1.39,1.39,0,0,0,.69.69,12.47,12.47,0,0,0,1.86.21c.2-.88.63-.92,1.23-.2.58-.68,1-.71,1.23.21a12.84,12.84,0,0,0,1.83-.2,1.46,1.46,0,0,0,.76-.65c.06-.1-.23-.42-.35-.61l-.63.75a2.28,2.28,0,0,1-.21-.45c.26-.2.56-.48.84-.47s.63.43.6.6a1.5,1.5,0,0,1-.6,1,5.89,5.89,0,0,1-1.66.27c.3.24.56.57.67.53a6.42,6.42,0,0,0,3.87-3.09,7,7,0,0,0,.31-1.86l-1,.11c0-.18-.06-.51,0-.52a10.34,10.34,0,0,1,1.15-.19l.28-2.05-.23-.16a6.29,6.29,0,0,1-.72.84,3.67,3.67,0,0,1-.81.4c0-.34-.15-.92,0-1a7.18,7.18,0,0,1,1.77-.61c.53-.12,1.11-.07,1.62-.22.29-.08.5-.43.63-.54-.8-.29-1.54-.6-2.3-.82a1.67,1.67,0,0,0-1,0c-.13,0-.12.45,0,.78a1,1,0,0,1,.23-.21,1.81,1.81,0,0,1,.5-.14s.14.19.11.24-.28.43-.35.4c-.33-.1-.89-.25-.91-.44s.2-.91.43-1c.45-.12,1,0,1.38,0s.88-.34,1.34-.48c0,0,.12.31.18.47h-.93c.05.16.08.55.24.61a1.11,1.11,0,0,0,.88-.09.79.79,0,0,0,.1-.74c-.17-.38-.5-.69-.7-1.06a8.85,8.85,0,0,1-.42-1.17,3.87,3.87,0,0,1,1.78,3.55c-.33,1.1-1.28,1.29-2.32,1.44-.16,1.15-.37,2.3-.48,3.47a4.3,4.3,0,0,1-1.69,3,8.06,8.06,0,0,1-10.75.08,4.26,4.26,0,0,1-1.81-3.22c0-.52-.15-1-.2-1.55-.1-1-.14-1.85-1.54-2.11s-1.52-1.8-.59-3.07a1.16,1.16,0,0,0,.09-1.46c-2.41-4.48-.43-10.61,4.75-13a4.15,4.15,0,0,1,.83-.2l.11.29c-.35.18-.72.34-1.05.55a20.9,20.9,0,0,0-2,1.39c-1.07.89-1.14,1.17-.57,2.44a1.73,1.73,0,0,1-.55,2.33,2.89,2.89,0,0,0-.78.85.9.9,0,0,0,.08.79c.11.16.46.15.63.2l.06-1c.16.08.46.18.45.23-.06.34-.09.8-.31,1a1,1,0,0,1-.95-.05,1.53,1.53,0,0,1-.28-1.13c.07-.34.43-.62.7-1-.17-.19-.5-.4-.54-.65a1.88,1.88,0,0,1,.28-.94s.33.05.5.08l-.48.88c.19,0,.59.23.71.12a1.17,1.17,0,0,0,.39-.88,9.71,9.71,0,0,0-.58-1.65c-1.94,1.86-2.38,6.2-1.12,8.54l.09-.9c.07,0,.13,0,.14.07s0,.37,0,.48a2.44,2.44,0,0,1-.2,3.17l-.22.88a2.85,2.85,0,0,0,1,.15c.14,0,.21-.45.41-.92C341,16.47,340.53,17,340.49,16Z"/><path class="cls-2" d="M344.2,21.9c.21-1.3.9-1.67,2.18-1.42a9.32,9.32,0,0,0,2.12-.08c.22,0,.44,0,.65,0s.53,0,.79,0,.41-.12.56-.06a3.89,3.89,0,0,0,2.39.08c1.4-.24,2.1.55,1.78,2-.24,1-1.25.77-1.9,1.09a9,9,0,0,1-2.08.47s-.06,0-.09,0c-.8-.08-1.61-.14-2.41-.26-.5-.07-1-.25-1.49-.35a5.82,5.82,0,0,1-1.65-.33C344.67,22.86,344.48,22.3,344.2,21.9Zm5.27.55.82,1.34.85-1.45Zm1.28-.42.29-.23-.77-1.11L349.51,22Zm-2.41.34-.25.26.76,1.16.73-1.36Zm.88-.29.29-.22-.68-1.17L348,22Zm1.81.29.7,1.11.67-1.19Zm1.36-.51-.57-1.08c-.15.09-.39.15-.43.27a4.83,4.83,0,0,0-.14.94ZM347,22.3l-.22.24.61.95.67-1.1Zm.51-1.58-.36,0-.27,1.15H348Z"/><path class="cls-2" d="M345.92.77c2.49-1.32,7.82-1.19,11.3,2.45,2.86,3,3.56,7.68,1.37,10.91a5.41,5.41,0,0,1,.18-.93,8.93,8.93,0,0,0-.49-7.66c-.17-.31-.38-.6-.7-1.11-.12,1.06-1.14,1.76-.32,2.7.13.15.56,0,1,0l-.71-.86c.12-.09.29-.27.35-.24s.49.29.47.41A9.9,9.9,0,0,1,358,7.86c.09.12.48.42.54.78a1.73,1.73,0,0,1-.32,1.2,1,1,0,0,1-.94,0c-.21-.2-.18-.66-.21-1a3.38,3.38,0,0,1,.48-.12l-.07,1c.25-.09.65-.12.73-.29s.11-.76,0-.87a2.75,2.75,0,0,1-1-4,1.23,1.23,0,0,0-.43-1.09,15.41,15.41,0,0,0-4.07-2.4A13.37,13.37,0,0,1,349.9.57a1.15,1.15,0,0,0-1.65.56.67.67,0,0,1-.6.21C347.1,1.2,346.56,1,345.92.77Z"/><path class="cls-2" d="M345.46,15.82a3,3,0,1,1,3.05-3.05A3.07,3.07,0,0,1,345.46,15.82Zm2.31-3.06a3.47,3.47,0,0,0-2.34-2.34c-.79,0-2.42,1.65-2.37,2.4a3.51,3.51,0,0,0,2.38,2.28A3.26,3.26,0,0,0,347.77,12.77Z"/><path class="cls-2" d="M356.09,11.63a1.83,1.83,0,0,1,.42,2.37,3.11,3.11,0,0,1-3.46,1.78,3.06,3.06,0,0,1-.09-6c.69-.16,1.37-.18,1.79.57l.45.43c-.19,0-.48.16-.55.08-.74-.75-1.44-.22-2.16,0-.55.17-1.41,1.72-1.09,2.16.45.62.45,1.46,1.56,1.8.82.25,1.24-.11,1.83-.22a2,2,0,0,0,1.07-2.38,4.09,4.09,0,0,1-.15-1.16Z"/><path class="cls-2" d="M349.59,15.47c.87.65,1.69,1.29,1.31,2.49-.09.28-.46.47-.7.69-.53-.65-1.72.62-2-.71C347.94,17.05,348.3,16.35,349.59,15.47Z"/><path class="cls-2" d="M345.72,4.7l-.81.65-.4-.91-.85-.52.74-.66.26-1,.91.51.83-.18c0,.26.07.53.11.79s0,.32.05.48,0,.53,0,.79Z"/><path class="cls-2" d="M354.72,3.29l.71.61-.76.5-.52,1-.68-.66-1-.07.32-1-.17-.87h1l.82-.41Z"/><path class="cls-2" d="M347.31,8.33l.43.52c-1.4-.85-2.7-.46-4,.23-.2.11-.6-.16-.91-.25.17-.31.27-.78.53-.89a4,4,0,0,1,3.22.06c.27.11.53.25.79.37Z"/><path class="cls-2" d="M352.62,8a3.89,3.89,0,0,1,3.15-.06c.26.12.36.59.54.9-.34.08-.72.3-1,.21C354.47,8.79,353.67,8.42,352.62,8Z"/><path class="cls-2" d="M349.41,4.45l.93,1.43c-.46,0-.89.22-1.17.08-.57-.28-1.18-.68-1-1.48,0-.16.43-.3.67-.31s.37.19.56.29Z"/><path class="cls-2" d="M356.73,4.88a1.74,1.74,0,0,1-1.19,1.62c-.24.08-.61-.21-.91-.34a3.77,3.77,0,0,1,.6-.53C355.71,5.36,356.22,5.13,356.73,4.88Z"/><path class="cls-2" d="M347.34,8.36c.14-.32.24-.87.42-.9a1.68,1.68,0,0,1,1.12.32,5.08,5.08,0,0,1,.85,1l0,0c-.06.06-.14.18-.18.17-.74-.19-1.48-.39-2.22-.59Z"/><path class="cls-2" d="M349.73,8.77A1.34,1.34,0,0,1,351,7.41c.24,0,.52.33.78.5a2.91,2.91,0,0,1-.68.5,11.93,11.93,0,0,1-1.37.33Z"/><path class="cls-2" d="M343,5.48l1.56.57a4.69,4.69,0,0,1-.38.66c-.49-.19-1-.45-1.43-.69Z"/><path class="cls-2" d="M349.41,4.47l.27-.05c.35-.1.88-.4,1-.27.46.4.31.91-.33,1.55l-1-1.23S349.41,4.47,349.41,4.47Z"/><path class="cls-2" d="M346.57,18.92c-.14-1.26-1.4-.61-1.86-1.31a8.47,8.47,0,0,1,1.53.26,1.26,1.26,0,0,1,.58.68c.06.14-.12.53-.23.55a1.79,1.79,0,0,1-.85-.12c-.05,0,0-.33,0-.5Z"/><path class="cls-2" d="M354.48,17.62c-.75.35-1.33.62-1.91.91,0,0,0,.22.06.36l.7-.44c0,.14.15.38.11.41-.21.16-.5.39-.69.34s-.51-.48-.46-.59a1.63,1.63,0,0,1,.72-.78A6.17,6.17,0,0,1,354.48,17.62Z"/><path class="cls-2" d="M356.09,11.63l-.38-.52-.5-.3-.45-.43.12-.34,1.62,1.61Z"/><path class="cls-2" d="M341.09,12.05c-.26-.29-.56-.58-.53-.62a6.32,6.32,0,0,1,.73-.76c.13.19.38.4.35.55A3.11,3.11,0,0,1,341.09,12.05Z"/><path class="cls-2" d="M358,12a3,3,0,0,1-.52-.8c0-.15.22-.36.35-.55a6.68,6.68,0,0,1,.71.76S358.25,11.76,358,12Z"/><path class="cls-2" d="M348,16.46a9.76,9.76,0,0,1-1,1c-.09.07-.41-.14-.62-.22a1.9,1.9,0,0,1,.39-.45,10.94,10.94,0,0,1,1-.49Z"/><path class="cls-2" d="M351.36,16.38a8.93,8.93,0,0,1,1,.46c.15.09.22.31.32.48-.19.07-.48.26-.56.2a11.17,11.17,0,0,1-1-1Z"/><path class="cls-2" d="M350.18,2.39l-.47-1.11c.22-.06.61-.21.64-.16a7,7,0,0,1,.41,1Z"/><path class="cls-2" d="M348.82,2.55c-.55-.67-.64-1.11-.1-1.44.11-.06.61.25.59.3A8.18,8.18,0,0,1,348.82,2.55Z"/><path class="cls-3" d="M352.8,12.75v-.84a.09.09,0,0,1,.06-.12h1.51a.46.46,0,0,1,.45.45c0,.16,0,.33,0,.49a1.94,1.94,0,0,0,0,.44.45.45,0,0,1-.47.52h-1.43a.09.09,0,0,1-.11-.11c0-.28,0-.56,0-.84h0Zm.12.8c.19-.05.24-.12.24-.27V12.16a.08.08,0,0,1,.06-.09h.4l.74,0a.46.46,0,0,0,.18-.09V12l-.23-.05H353c-.08,0-.1,0-.1.11v1.09c0,.16,0,.31,0,.47Zm.3-.15,0,0h1a.2.2,0,0,0,.22-.16,3.26,3.26,0,0,0,0-.43.06.06,0,0,0,0,0c-.08,0-.2.1-.19.19s0,.27-.2.25l-.53,0a.27.27,0,0,0-.28.17Zm0-.68,0,0h1.09a.16.16,0,0,0,.12-.11,1.81,1.81,0,0,0,0-.36.16.16,0,0,0-.06-.11.31.31,0,0,0-.15.07.15.15,0,0,0,0,.11c0,.15,0,.22-.11.23h-.41c-.18,0-.37,0-.5.15Zm.58.43H354l.06-.05A.18.18,0,0,0,354,13h-.44a.19.19,0,0,0-.08.06l.07.06h.22Zm.29-.71v0l-.13,0h-.36l-.09,0,.09.05H354l.11,0Z"/><path class="cls-3" d="M344.41,12.84V12a.09.09,0,0,1,.06-.12H346a.46.46,0,0,1,.45.45c0,.16,0,.33,0,.49a1.94,1.94,0,0,0,0,.44.45.45,0,0,1-.47.52h-1.43a.09.09,0,0,1-.11-.11c0-.28,0-.56,0-.84h0Zm.12.8c.19-.05.24-.12.24-.27V12.24a.08.08,0,0,1,.06-.09h.4l.74,0a.46.46,0,0,0,.18-.09V12l-.23-.05h-1.25c-.08,0-.1,0-.1.11v1.09c0,.16,0,.31,0,.47Zm.3-.15,0,0h1a.2.2,0,0,0,.22-.16,3.26,3.26,0,0,0,0-.43.06.06,0,0,0,0,0c-.08,0-.2.1-.19.19s0,.27-.2.25l-.53,0a.27.27,0,0,0-.28.17Zm0-.68,0,0H346a.16.16,0,0,0,.12-.11,1.81,1.81,0,0,0,0-.36.16.16,0,0,0-.06-.11.31.31,0,0,0-.15.07.15.15,0,0,0,0,.11c0,.15,0,.22-.11.23h-.41c-.18,0-.37,0-.5.15Zm.58.43h.21l.06-.05a.18.18,0,0,0-.06-.07h-.44a.19.19,0,0,0-.08.06l.07.06h.22Zm.29-.71v0l-.13,0h-.36l-.09,0,.09.05h.38l.11,0Z"/></g></g></svg>