<svg xmlns="http://www.w3.org/2000/svg" viewBox="0 0 10.48 10.5"><defs><style>.cls-1{fill:#fff;}</style></defs><title>down-arrow</title><g id="Layer_2" data-name="Layer 2"><g id="Layer_1-2" data-name="Layer 1"><path class="cls-1" d="M4.87,0h.74l.08,0A4.91,4.91,0,0,1,6.9.27,5.23,5.23,0,0,1,10.42,6,4.94,4.94,0,0,1,9,8.92a5,5,0,0,1-5.24,1.32A5.05,5.05,0,0,1,.08,6.15C0,6,0,5.78,0,5.59V4.87c0-.17,0-.34.07-.5A5.21,5.21,0,0,1,2,1.11a5.1,5.1,0,0,1,2.44-1Zm.27,1.06A4.18,4.18,0,1,0,9.42,5,4.18,4.18,0,0,0,5.14,1.06Z"/><path class="cls-1" d="M4.71,5.58c0-.32,0-.62,0-.91s0-.81,0-1.22a.54.54,0,0,1,.36-.54.53.53,0,0,1,.69.54c0,.67,0,1.33,0,2,0,0,0,.07,0,.13l.07-.06.5-.5a.52.52,0,0,1,.9.25.5.5,0,0,1-.14.48L5.61,7.23a.5.5,0,0,1-.74,0L3.39,5.75a.52.52,0,0,1,0-.74.52.52,0,0,1,.75,0l.49.48Z"/></g></g></svg>