<svg xmlns="http://www.w3.org/2000/svg" viewBox="0 0 75.93 75.93"><defs><style>.cls-1{fill:#d64627;}.cls-2{fill:#fff;}</style></defs><title>menu-dinner-oj</title><g id="Layer_2" data-name="Layer 2"><g id="Layer_1-2" data-name="Layer 1"><circle class="cls-1" cx="37.97" cy="37.97" r="37.97"/><path class="cls-2" d="M19.35,32c-.05,0-.08,0-.09,0s0,0-.09,0v-.64a.5.5,0,0,0,.08-.28V30.3a3.64,3.64,0,0,0,0-.55,3.58,3.58,0,0,1,0-.55V26.87a1.43,1.43,0,0,0-.08-.57l-.3-.23a.38.38,0,0,0-.13-.09.09.09,0,0,1-.06-.09.81.81,0,0,1-.3-.38,1.36,1.36,0,0,1,.42-.66,1.49,1.49,0,0,1,.6-.28,4.29,4.29,0,0,1,.7-.09,4.21,4.21,0,0,0,.7-.09h.45l.49,0a1,1,0,0,1,.49.09h.15a2.74,2.74,0,0,1,1.47.42,8.1,8.1,0,0,1,.85.6q.47.38,1.15,1a1.63,1.63,0,0,1,0,.92A2.49,2.49,0,0,0,26,28.71V29a2.41,2.41,0,0,1,.23,1,8.27,8.27,0,0,0,.08,1.09v.15a.42.42,0,0,1,0,.19.42.42,0,0,0,0,.19V32a.35.35,0,0,1,.13.36,1.12,1.12,0,0,0-.06.36.47.47,0,0,1,0,.17.46.46,0,0,0,0,.17v2l-.15,2.38v.08a2.45,2.45,0,0,1,0,.74q0,.36-.11.74a.83.83,0,0,0-.08.38h0l0,.08h-.08a.51.51,0,0,0,.08.34l-.15,1.43v1.06a1.31,1.31,0,0,0-.08.42v2.15c0,.1,0,.15.08.15a.22.22,0,0,0-.08.15v1.62a.25.25,0,0,1-.11.23.28.28,0,0,1,0,.28l-.15.21v.15a3.6,3.6,0,0,1-1.3,2,8.22,8.22,0,0,1-2.06,1.09l-.87.15h-.19a1.79,1.79,0,0,0-.83-.17l-.83,0h-.08a.7.7,0,0,1-.49-.17.91.91,0,0,1-.26-.4.35.35,0,0,1,.09-.45l.4-.26.15-.15v-.34a.34.34,0,0,0,0-.15.33.33,0,0,1,0-.15v-.83a1.46,1.46,0,0,1-.08-.47v-.62a.46.46,0,0,0,0-.17.46.46,0,0,1,0-.17,10.89,10.89,0,0,1-.19-2,18.16,18.16,0,0,1,.11-2v-.15a4.84,4.84,0,0,1,0-.6A4.37,4.37,0,0,0,19,41a.31.31,0,0,1,.08-.23V39.27a.22.22,0,0,1,.08-.15v0a2.24,2.24,0,0,0,0-.4,2.2,2.2,0,0,1,0-.4,1.17,1.17,0,0,1,0-.32,1.19,1.19,0,0,0,0-.32V35.35l.08-.08a.42.42,0,0,0,0-.19.33.33,0,0,1,0-.15.83.83,0,0,1,.08-.38q0-.38,0-.77t0-.74v-1s.08,0,.09,0S19.3,32,19.35,32Zm1.36,4.64a3,3,0,0,0,0,.49,3.08,3.08,0,0,1,0,.49v1.74l-.34.26a1.61,1.61,0,0,1,0,1.58.51.51,0,0,1,.34-.08l-.26.42a4.55,4.55,0,0,1,.11,1.3q0,.66-.11,1.42a2.19,2.19,0,0,1,.23.77c0,.26,0,.54,0,.81v1.55c0,.2,0,.42,0,.64a1.55,1.55,0,0,0,.09.64,2.66,2.66,0,0,0,1.45-.15,3.54,3.54,0,0,0,1.19-1,.15.15,0,0,1,0-.11.16.16,0,0,0,0-.11.91.91,0,0,1,.34-.49v-.26l.15-.53V45h0a.3.3,0,0,0,.08-.23v-.19c0-.23,0-.48,0-.75s0-.55,0-.83v-.15a1.16,1.16,0,0,1,.08-.49V40.25a.68.68,0,0,0,.08-.3v-.53l.13-.55a2.41,2.41,0,0,0,.06-.55v-.19a.44.44,0,0,0,.08-.3v-.49l.08-.08v-.87a2.51,2.51,0,0,1,0-.41,2.63,2.63,0,0,0,0-.42v-.4a.58.58,0,0,1,.08-.25c-.05,0-.08,0-.08-.15V33.5a.33.33,0,0,1,0-.15.34.34,0,0,0,0-.15V32.3l-.15-.64v-.23a14.55,14.55,0,0,0-.13-2q-.13-1-.28-1.94a.9.9,0,0,0,0-.25.89.89,0,0,1,0-.25.43.43,0,0,1-.15-.3l-.55-.38a1,1,0,0,0-.58-.19.21.21,0,0,1-.15-.08.89.89,0,0,1-.25,0,1.22,1.22,0,0,0-.32,0,.65.65,0,0,1-.41,0,1.89,1.89,0,0,0-.45-.06,1,1,0,0,0-.45.11.87.87,0,0,0-.38.45.27.27,0,0,1,0,.41v.15c.18,0,.25,0,.23.13a.19.19,0,0,0,0,.21,1,1,0,0,1-.08.68,1,1,0,0,0-.08.68l.15.85a2.84,2.84,0,0,1,0,.92,6.13,6.13,0,0,0,0,1.66,3.89,3.89,0,0,1,0,.92c0,.29-.06.6-.11.92v.23a1.39,1.39,0,0,1,.15,1.07,3.62,3.62,0,0,0-.15,1Zm0-2.34s-.06-.08-.19-.15C20.65,34.22,20.71,34.27,20.71,34.3Zm4.94,7.05a.55.55,0,0,0,.09-.11s0,0,.09,0-.08,0-.09,0A.55.55,0,0,1,25.65,41.35Z"/><path class="cls-2" d="M27.58,31.13c0-.15,0-.29,0-.43a.5.5,0,0,1,.13-.32v-.15a1.42,1.42,0,0,1,.08-.45,1.42,1.42,0,0,0,.08-.45V29a.43.43,0,0,1-.13-.23,1.31,1.31,0,0,1,0-.23v-.15A.9.9,0,0,0,27.6,28a.45.45,0,0,1,0-.45.15.15,0,0,0-.08-.15.15.15,0,0,1-.08-.15v-.64a0,0,0,0,1,0-.08s.05-.08.15-.08c-.08-.08-.11-.13-.11-.15s0-.08.11-.15v-.45a1.67,1.67,0,0,1,0-.25,1.27,1.27,0,0,1,.13-.36V24.9h.15a.15.15,0,0,1,.08-.15A.15.15,0,0,0,28,24.6a.86.86,0,0,1,1.21,0,.29.29,0,0,1,.19.32,2.4,2.4,0,0,0,0,.43,8.55,8.55,0,0,1-.08,1.13,8.76,8.76,0,0,0-.08,1.17c0,.08,0,.18,0,.3a.48.48,0,0,1-.13.3v.15a4,4,0,0,1-.08.81,3.35,3.35,0,0,0-.08.7,9.85,9.85,0,0,0-.13,1.34c0,.44,0,.86,0,1.26v.15a1.24,1.24,0,0,1,.13.43c0,.14,0,.25,0,.32v1.51c0,.15,0,.25.08.28a.2.2,0,0,1,.08.17v.3a.46.46,0,0,1,0,.6V37a.13.13,0,0,0,.15.15v.15a1.23,1.23,0,0,0,.06.42.48.48,0,0,1-.06.38v.45a1.36,1.36,0,0,1,.13.91,2,2,0,0,0,0,.91c0,.38,0,.72,0,1a4.61,4.61,0,0,1-.13.92,3,3,0,0,1-.08.7,2.42,2.42,0,0,0-.08.55v.15a2.55,2.55,0,0,0-.13.66c0,.21,0,.4,0,.55v.15a6.2,6.2,0,0,1,0,.68,1.52,1.52,0,0,1-.26.68v.91c0,.15,0,.31,0,.47a1.27,1.27,0,0,1-.13.47l.15.15q.26.27,0,.75a.4.4,0,0,0,.08.23.41.41,0,0,1,.08.23l-.15.15a.48.48,0,0,1-.17.38,1.24,1.24,0,0,0-.28.38,1.28,1.28,0,0,1-.4-.68,4.14,4.14,0,0,1-.06-.68v-.45a.11.11,0,0,1,0-.08c-.05,0-.09-.08-.11-.08v-.94a.51.51,0,0,0-.06-.23.18.18,0,0,1,.06-.23.07.07,0,0,1-.08-.08q-.08-.07.08-.23c0-.15,0-.33,0-.55a2.58,2.58,0,0,0-.13-.66v-.45a1.86,1.86,0,0,0-.06-.45.64.64,0,0,1,.06-.45c0-.15,0-.3,0-.45a1.22,1.22,0,0,1,.13-.45V43a5.23,5.23,0,0,0,0-.58,1,1,0,0,1,.19-.66q-.26-.26,0-.75V40.1l-.45-1.36a.34.34,0,0,1,0-.38.34.34,0,0,0,0-.38v-.15a1,1,0,0,0-.08-.32,1,1,0,0,1-.08-.32V37a3.11,3.11,0,0,1,.08-.68,3.13,3.13,0,0,0,.08-.68v-.45s0,0,0-.08.05-.13.15-.23V33.43a.64.64,0,0,0,.06-.45,1.87,1.87,0,0,1-.06-.45,1.6,1.6,0,0,1,.08-.47,1.61,1.61,0,0,0,.08-.47Z"/><path class="cls-2" d="M30.56,28.79a.33.33,0,0,1,.08-.21.32.32,0,0,0,.08-.21v-.75h-.08l0,0s0,0,0,0,0,0,0-.08v-.15a5.86,5.86,0,0,0-.08-.92,6.31,6.31,0,0,1-.08-1v-.3l.3-.6a1.29,1.29,0,0,1,.57.53,2.5,2.5,0,0,1,.26.7q.08.36.11.68a1.48,1.48,0,0,0,.11.47,3.82,3.82,0,0,0,0,.51c0,.06,0,.1.08.11s.07.06.09.13.06.24.11.49l.17.53c.09.28.18.57.26.89s.18.62.28.92a2.36,2.36,0,0,0,.26.6.26.26,0,0,0,.09.17.26.26,0,0,1,.09.17.11.11,0,0,1,0,.08,2.2,2.2,0,0,1,.09.64c0,.3,0,.6.06.9a5.84,5.84,0,0,0,.11.79c0,.23.15.34.3.34v.6a1.81,1.81,0,0,1,.28.79q.06.45.17,1v.15h.15a2.41,2.41,0,0,0,.15.83,2.42,2.42,0,0,1,.15.83.63.63,0,0,0,.15.32.68.68,0,0,1,.15.4v.6a.15.15,0,0,1-.08.15A.15.15,0,0,0,35,40h.15c.23.08.34.18.34.32a1,1,0,0,0,.11.43v.45a.11.11,0,0,0,.08,0c0,.05.08.09.08.11v.15c.08.08.1.14.08.21s0,.13.08.21h.3a.21.21,0,0,0,.08-.15.23.23,0,0,0,0-.13.23.23,0,0,1,0-.13v-.15a.13.13,0,0,1-.15-.15v-.75A3,3,0,0,1,36,40a1.22,1.22,0,0,1,.13-.38A2.9,2.9,0,0,0,36.1,39a2.85,2.85,0,0,1-.08-.66.38.38,0,0,0,.09-.32.56.56,0,0,1,.21-.43V35.8c-.08-.23-.15-.45-.21-.68a2.51,2.51,0,0,1-.09-.68v-.3q0-.41,0-.87a4.49,4.49,0,0,1,.13-.91V31.05a.41.41,0,0,1,.08-.23.41.41,0,0,0,.08-.23v-.3a.66.66,0,0,1-.08-.3,1,1,0,0,1,.08-.38l.15-.38V27.32a11,11,0,0,1,.09-1.43A1.83,1.83,0,0,1,37,24.79l.3-.3a.4.4,0,0,0,.08.23.4.4,0,0,1,.08.23v.15a2.55,2.55,0,0,1,.13.58c0,.16,0,.31,0,.43v1.51a9.5,9.5,0,0,1-.15,1.56,10.19,10.19,0,0,0-.15,1.72v1.92a2.2,2.2,0,0,1-.08.6,2,2,0,0,0-.08.57v.45q0,1.13,0,2.24t.13,2.24v.42a11.1,11.1,0,0,0,.09,1.49q.09.7.21,1.34v.3a5.32,5.32,0,0,1-.09,1,5.28,5.28,0,0,0-.09,1,2,2,0,0,0,0,.45,1.23,1.23,0,0,0-.13.38,3.1,3.1,0,0,0,0,.38v.15h.15a6,6,0,0,1,.26,1.55q0,.83,0,1.58h-.15V49a2,2,0,0,1-.08.51q-.08.28-.17.55a3.45,3.45,0,0,1-.21.47,1.63,1.63,0,0,1-.15.25,1.69,1.69,0,0,1-.75-1.4,1.31,1.31,0,0,1,0-.38v-.91a4,4,0,0,0-.08-.81,3.18,3.18,0,0,1-.08-.66,1.84,1.84,0,0,1-.08-.75,1.85,1.85,0,0,0-.08-.75,1,1,0,0,0-.13-.47c-.09-.16-.18-.34-.26-.53l-.26-.57a1.28,1.28,0,0,1-.13-.55,1.65,1.65,0,0,1,0-.25,2.37,2.37,0,0,0,0-.32v-.3a.44.44,0,0,0-.15.3c-.08-.15-.15-.3-.21-.45a1.09,1.09,0,0,1-.09-.42s0-.06.08-.11a.11.11,0,0,0,.08,0,1.09,1.09,0,0,0-.21-.17c-.06,0-.09-.13-.09-.28l-.45-2c-.15,0-.2-.16-.15-.34a.29.29,0,0,0-.15-.38l-.26-.91a4.18,4.18,0,0,1-.17-.74A1.76,1.76,0,0,0,33.2,36a.3.3,0,0,0,0-.19.73.73,0,0,0-.09-.36A.73.73,0,0,1,33,35a2.1,2.1,0,0,0-.09-.66c-.06-.19-.13-.37-.21-.55a5.85,5.85,0,0,1-.21-.57,2.57,2.57,0,0,1-.09-.75v-.15c-.08-.23-.15-.45-.21-.68a2.39,2.39,0,0,1-.09-.64q-.53,0-.53.75s0,.06.08.11h.15a.48.48,0,0,0-.13.3c0,.13,0,.23,0,.3v.15a.31.31,0,0,1-.08.23s-.05.08-.08.08v.45a1.93,1.93,0,0,0,0,.38,2,2,0,0,1,0,.38,2.09,2.09,0,0,1-.08.42.86.86,0,0,0,.08.3.88.88,0,0,1,.08.3,1.41,1.41,0,0,1,0,.23.43.43,0,0,1-.13.23,1.93,1.93,0,0,1,.11.6.74.74,0,0,1-.08.34.76.76,0,0,0-.08.34.89.89,0,0,0,.21.51,1,1,0,0,1,.21.58v.91a.56.56,0,0,1,.15.42,2,2,0,0,1,0,.28A2.24,2.24,0,0,0,32,40a1,1,0,0,0,0,.28,1.07,1.07,0,0,1,0,.28,2.48,2.48,0,0,1-.11.72,2.4,2.4,0,0,0-.11.68.64.64,0,0,0,0,.26q0,.79,0,1.47a6.73,6.73,0,0,1-.13,1.21v1.58a.16.16,0,0,1,0,.11.34.34,0,0,1,0,.15.42.42,0,0,0,0,.19.33.33,0,0,0,0,.15v.15a.32.32,0,0,0-.13.36c0,.14,0,.21-.13.21v.15a.12.12,0,0,0,.11-.08.15.15,0,0,1,.15-.08s0,0,0,0a.11.11,0,0,1,0-.08l.08,0a.22.22,0,0,1,.08.15.34.34,0,0,1,0,.15.33.33,0,0,0,0,.15v.15a.27.27,0,0,1,.3.3v.3a1.28,1.28,0,0,1,0,.3v.34a2.51,2.51,0,0,1-.34,1.43l-.15-.15-.19.08q-.34,0-.53-.53h-.15a.56.56,0,0,1-.15-.42h-.15V48.51q0-.11,0-.3a.48.48,0,0,0-.13-.3,11.14,11.14,0,0,1,.13-1.64,11.06,11.06,0,0,0,.13-1.6,4.69,4.69,0,0,0-.11-1c0-.23,0-.42,0-.58a1.26,1.26,0,0,1,.13-.47.11.11,0,0,1,0-.08c-.05-.05-.09-.08-.11-.08v-4.6a3.16,3.16,0,0,0,0-.57,6.59,6.59,0,0,0-.06-.85,7.39,7.39,0,0,1-.06-1v-.15a2.07,2.07,0,0,0,0-.28,1.71,1.71,0,0,1,0-.25.7.7,0,0,1,.08-.38V34.3l-.15-.15s.06,0,.11-.08a.11.11,0,0,1,0-.08v-.26a.21.21,0,0,0,.08-.23.22.22,0,0,1,.08-.23v-.45a1.22,1.22,0,0,0-.08-.45,1,1,0,0,1-.08-.38.52.52,0,0,1,0-.23v-.45a6.31,6.31,0,0,1,.06-.75,8.3,8.3,0,0,0,.06-1Zm0,10.86c-.08,0-.11,0-.11.08s0,.08.11.08Zm.11-11.32a.28.28,0,0,0-.09-.11.17.17,0,0,1-.06-.15h.15Z"/><path class="cls-2" d="M39.08,28.79a.33.33,0,0,1,.08-.21.32.32,0,0,0,.08-.21v-.75h-.08l0,0s0,0,0,0,0,0,0-.08v-.15a5.86,5.86,0,0,0-.08-.92,6.31,6.31,0,0,1-.08-1v-.3l.3-.6a1.29,1.29,0,0,1,.57.53,2.5,2.5,0,0,1,.26.7q.08.36.11.68a1.48,1.48,0,0,0,.11.47,3.82,3.82,0,0,0,0,.51c0,.06,0,.1.08.11s.07.06.09.13.06.24.11.49l.17.53c.09.28.18.57.26.89s.18.62.28.92a2.36,2.36,0,0,0,.26.6.26.26,0,0,0,.09.17.26.26,0,0,1,.09.17.11.11,0,0,1,0,.08,2.2,2.2,0,0,1,.09.64c0,.3,0,.6.06.9a5.84,5.84,0,0,0,.11.79c0,.23.15.34.3.34v.6a1.81,1.81,0,0,1,.28.79q.06.45.17,1v.15H43a2.41,2.41,0,0,0,.15.83,2.42,2.42,0,0,1,.15.83.63.63,0,0,0,.15.32.68.68,0,0,1,.15.4v.6a.15.15,0,0,1-.08.15.15.15,0,0,0-.08.15h.15c.23.08.34.18.34.32a1,1,0,0,0,.11.43v.45a.11.11,0,0,0,.08,0c0,.05.08.09.08.11v.15c.08.08.1.14.08.21s0,.13.08.21h.3a.21.21,0,0,0,.08-.15.23.23,0,0,0,0-.13.23.23,0,0,1,0-.13v-.15a.13.13,0,0,1-.15-.15v-.75a3,3,0,0,1,0-.38,1.22,1.22,0,0,1,.13-.38,2.9,2.9,0,0,0-.08-.66,2.85,2.85,0,0,1-.08-.66.38.38,0,0,0,.09-.32.56.56,0,0,1,.21-.43V35.8c-.08-.23-.15-.45-.21-.68a2.51,2.51,0,0,1-.09-.68v-.3q0-.41,0-.87a4.49,4.49,0,0,1,.13-.91V31.05a.41.41,0,0,1,.08-.23.41.41,0,0,0,.08-.23v-.3a.66.66,0,0,1-.08-.3,1,1,0,0,1,.08-.38l.15-.38V27.32a11,11,0,0,1,.09-1.43,1.83,1.83,0,0,1,.47-1.09l.3-.3a.4.4,0,0,0,.08.23.4.4,0,0,1,.08.23v.15a2.55,2.55,0,0,1,.13.58c0,.16,0,.31,0,.43v1.51A9.5,9.5,0,0,1,46,29.18a10.19,10.19,0,0,0-.15,1.72v1.92a2.2,2.2,0,0,1-.08.6,2,2,0,0,0-.08.57v.45q0,1.13,0,2.24t.13,2.24v.42A11.1,11.1,0,0,0,46,40.84q.09.7.21,1.34v.3a5.32,5.32,0,0,1-.09,1,5.28,5.28,0,0,0-.09,1,2,2,0,0,0,0,.45,1.23,1.23,0,0,0-.13.38,3.1,3.1,0,0,0,0,.38v.15H46a6,6,0,0,1,.26,1.55q0,.83,0,1.58h-.15V49a2,2,0,0,1-.08.51q-.08.28-.17.55a3.45,3.45,0,0,1-.21.47,1.63,1.63,0,0,1-.15.25,1.69,1.69,0,0,1-.75-1.4,1.31,1.31,0,0,1,0-.38v-.91a4,4,0,0,0-.08-.81,3.18,3.18,0,0,1-.08-.66,1.84,1.84,0,0,1-.08-.75,1.85,1.85,0,0,0-.08-.75,1,1,0,0,0-.13-.47c-.09-.16-.18-.34-.26-.53l-.26-.57a1.28,1.28,0,0,1-.13-.55,1.65,1.65,0,0,1,0-.25,2.37,2.37,0,0,0,0-.32v-.3a.44.44,0,0,0-.15.3c-.08-.15-.15-.3-.21-.45a1.09,1.09,0,0,1-.09-.42s0-.06.08-.11a.11.11,0,0,0,.08,0,1.09,1.09,0,0,0-.21-.17c-.06,0-.09-.13-.09-.28l-.45-2c-.15,0-.2-.16-.15-.34a.29.29,0,0,0-.15-.38l-.26-.91a4.18,4.18,0,0,1-.17-.74,1.76,1.76,0,0,0-.28-.74.3.3,0,0,0,0-.19.73.73,0,0,0-.09-.36.73.73,0,0,1-.09-.36,2.1,2.1,0,0,0-.09-.66c-.06-.19-.13-.37-.21-.55a5.85,5.85,0,0,1-.21-.57,2.57,2.57,0,0,1-.09-.75v-.15c-.08-.23-.15-.45-.21-.68a2.39,2.39,0,0,1-.09-.64q-.53,0-.53.75s0,.06.08.11h.15a.48.48,0,0,0-.13.3c0,.13,0,.23,0,.3v.15a.31.31,0,0,1-.08.23s-.05.08-.08.08v.45a1.93,1.93,0,0,0,0,.38,2,2,0,0,1,0,.38,2.09,2.09,0,0,1-.08.42.86.86,0,0,0,.08.3.88.88,0,0,1,.08.3,1.41,1.41,0,0,1,0,.23.43.43,0,0,1-.13.23,1.93,1.93,0,0,1,.11.6.74.74,0,0,1-.08.34.76.76,0,0,0-.08.34.89.89,0,0,0,.21.51,1,1,0,0,1,.21.58v.91a.56.56,0,0,1,.15.42,2,2,0,0,1,0,.28,2.24,2.24,0,0,0,0,.32,1,1,0,0,0,0,.28,1.07,1.07,0,0,1,0,.28,2.48,2.48,0,0,1-.11.72,2.4,2.4,0,0,0-.11.68.64.64,0,0,0,0,.26q0,.79,0,1.47a6.73,6.73,0,0,1-.13,1.21v1.58a.16.16,0,0,1,0,.11.34.34,0,0,1,0,.15.42.42,0,0,0,0,.19.33.33,0,0,0,0,.15v.15a.32.32,0,0,0-.13.36c0,.14,0,.21-.13.21v.15a.12.12,0,0,0,.11-.08.15.15,0,0,1,.15-.08s0,0,0,0a.11.11,0,0,1,0-.08l.08,0a.22.22,0,0,1,.08.15.34.34,0,0,1,0,.15.33.33,0,0,0,0,.15v.15a.27.27,0,0,1,.3.3v.3a1.28,1.28,0,0,1,0,.3v.34a2.51,2.51,0,0,1-.34,1.43l-.15-.15-.19.08q-.34,0-.53-.53h-.15a.56.56,0,0,1-.15-.42H39V48.51q0-.11,0-.3a.48.48,0,0,0-.13-.3,11.14,11.14,0,0,1,.13-1.64,11.06,11.06,0,0,0,.13-1.6,4.69,4.69,0,0,0-.11-1c0-.23,0-.42,0-.58a1.26,1.26,0,0,1,.13-.47.11.11,0,0,1,0-.08c-.05-.05-.09-.08-.11-.08v-4.6a3.16,3.16,0,0,0,0-.57,6.59,6.59,0,0,0-.06-.85,7.39,7.39,0,0,1-.06-1v-.15a2.07,2.07,0,0,0,0-.28,1.71,1.71,0,0,1,0-.25.7.7,0,0,1,.08-.38V34.3l-.15-.15s.06,0,.11-.08a.11.11,0,0,1,0-.08v-.26A.21.21,0,0,0,39,33.5a.22.22,0,0,1,.08-.23v-.45a1.22,1.22,0,0,0-.08-.45,1,1,0,0,1-.08-.38.52.52,0,0,1,0-.23v-.45a6.31,6.31,0,0,1,.06-.75,8.3,8.3,0,0,0,.06-1Zm0,10.86c-.08,0-.11,0-.11.08s0,.08.11.08Zm.11-11.32a.28.28,0,0,0-.09-.11.17.17,0,0,1-.06-.15h.15Z"/><path class="cls-2" d="M48.85,43.54a.21.21,0,0,0,.08.15c.1.08.1.15,0,.23v.26a.83.83,0,0,0,0,.17.32.32,0,0,0,.09.17v.23l-.11.08v.6a.07.07,0,0,0-.08.08v2.45l.26,1.21a.82.82,0,0,0,.6.13,3.67,3.67,0,0,1,.68-.06.15.15,0,0,0,.11,0,.16.16,0,0,1,.11,0h1.55c0,.05,0,.08,0,.08s.06,0,.11.08-.09-.08-.11-.08,0,0,0-.08h.34a1.52,1.52,0,0,1,1.58.53h.15v.23a.72.72,0,0,1-.66.42,3.61,3.61,0,0,0-.77.08.22.22,0,0,0-.15.08l-2.9.23h-.64a1.12,1.12,0,0,0-.42-.08h-.23a.74.74,0,0,1-.87-.38,3.06,3.06,0,0,1-.21-1q0-.51,0-1c-.05,0-.05,0,0-.08a1.46,1.46,0,0,1-.08-.47v-.47a.31.31,0,0,0,0-.17.23.23,0,0,1,0-.13v-.15a5.47,5.47,0,0,1,0-.68,5.55,5.55,0,0,0,0-.68c0,.13,0,.19.08.19s-.08-.06-.08-.19v-.3a.22.22,0,0,0-.08-.15,1,1,0,0,0,.08-.36V44a1.41,1.41,0,0,0,0-.34,1.39,1.39,0,0,1,0-.34,5.47,5.47,0,0,1,0-.68,5.57,5.57,0,0,0,0-.68v-.42a1.31,1.31,0,0,1,.08-.42.15.15,0,0,0,.11,0,.15.15,0,0,1,.11,0,.15.15,0,0,0-.11,0,.15.15,0,0,1-.11,0V41a1.67,1.67,0,0,1-.08-.45V40q-.08-1.13-.06-2.32a14,14,0,0,1,.21-2.24q.08-.45.11-.87t0-.83v-.15l.15-1.24a.22.22,0,0,0-.08-.15l0,0a.07.07,0,0,1,0-.06.08.08,0,0,0,0-.06v-.15h.11a1.09,1.09,0,0,1-.08-.68c0-.2.1-.44.15-.72,0,0,.08,0,.08,0s0,0,.08,0-.08,0-.08,0,0,0-.08,0v-.23a1.33,1.33,0,0,0,.08-.41V28.53l-.08-.08H48q-.08-.87-.11-1.79a3.79,3.79,0,0,1,.34-1.75c.15-.25.33-.34.53-.26a.24.24,0,0,1,.17-.08h.17L51,24.49h.42q.53-.07,1-.11a2.21,2.21,0,0,1,1,.19.77.77,0,0,1,.43.25l.32.4a2.38,2.38,0,0,1-1,.64,4.32,4.32,0,0,1-1.06.17,8.16,8.16,0,0,1-1.09,0A4.53,4.53,0,0,0,50,26h-.23l-.41.15a3.38,3.38,0,0,0-.19,1.15A6.66,6.66,0,0,1,49,28.53a3.19,3.19,0,0,0,0,.36.62.62,0,0,1-.13.4.37.37,0,0,0,.26-.08,5.11,5.11,0,0,1,0,.66,4.37,4.37,0,0,0,0,.58.23.23,0,0,0-.08.17v.17A.34.34,0,0,1,49,31a.34.34,0,0,0-.06.17v2.57A11.18,11.18,0,0,0,48.85,35v1.47l.19.38h.3a.45.45,0,0,1,.49-.08h.23v0h.42l.53-.15h.15l.34-.15h.23a.22.22,0,0,0,.15-.08h.53a2.76,2.76,0,0,1,.91,0,1.11,1.11,0,0,1,.72.53,1,1,0,0,1-.6.72c-.05,0-.13.05-.23.15a.22.22,0,0,0-.15.08h-.15a.22.22,0,0,0-.15.08h-.57l-1.85.23H48.85a1.34,1.34,0,0,1-.08.49l.15.58a.93.93,0,0,1-.08.62v1a1.6,1.6,0,0,1-.08.51.84.84,0,0,1,.08.38Z"/><path class="cls-2" d="M60.43,43.69q.42,1.7.68,3.17t.49,2.87l.15.15v.26l-.6.6s-.05,0-.08-.08a.3.3,0,0,1-.08-.23v-.15a.26.26,0,0,0-.19-.08c-.08,0-.11-.05-.11-.15a.42.42,0,0,1,0-.19h-.15a2.53,2.53,0,0,1-.21-1,2.92,2.92,0,0,0-.09-.89,1.1,1.1,0,0,1-.21-.47,2.34,2.34,0,0,1-.09-.55v-.45a2,2,0,0,1-.17-.55,1.46,1.46,0,0,0-.28-.62,1.17,1.17,0,0,1-.06-.47,2,2,0,0,0-.06-.58l-.75-2.34v-.6a1.67,1.67,0,0,1-.3-.72,2,2,0,0,0-.3-.75l-.26-1.74a1.24,1.24,0,0,0-.45-.13l-.45,0h-.15V37.8a.41.41,0,0,1-.26.15v1.17a.5.5,0,0,0,.06.23.5.5,0,0,1,.06.23v1.73c0,.15,0,.3,0,.43a.5.5,0,0,0,.13.32v.45a.66.66,0,0,1,0,.26,1.57,1.57,0,0,1-.09.53,1.56,1.56,0,0,0-.09.53s.06,0,.11.08a.11.11,0,0,0,0,.08.42.42,0,0,0,0,.19.88.88,0,0,0,0,.25.93.93,0,0,1,0,.25c0,.18,0,.46,0,.85a4.43,4.43,0,0,1-.15,1v.3a1.34,1.34,0,0,1,.13.51c0,.19,0,.36,0,.51v.75a.11.11,0,0,0,.08,0c.05.05.08.09.08.11a2.25,2.25,0,0,0-.25,1,1.78,1.78,0,0,1-.32,1v.15a.27.27,0,0,1-.3-.3h-.15a4.45,4.45,0,0,1-.34-.81,2.82,2.82,0,0,1-.15-.85.52.52,0,0,1,0-.23.91.91,0,0,1-.08-.53.91.91,0,0,0-.08-.53v-.57l.15-.15v-.15s0,0,0,0a.15.15,0,0,1,0-.11.22.22,0,0,1,.08-.15V45.31a.27.27,0,0,0,0-.11.25.25,0,0,1,0-.11.54.54,0,0,1,.19-.38.62.62,0,0,0-.15-.45V42.78a.25.25,0,0,1-.08-.19.61.61,0,0,1,0-.19.62.62,0,0,0,0-.19h-.15a.61.61,0,0,1,.15-.45,0,0,0,0,1-.08,0c-.05,0-.08-.05-.08-.15v-.3a.24.24,0,0,0,0-.13.23.23,0,0,1,0-.13.22.22,0,0,1,.08-.15V36.33a1.17,1.17,0,0,1-.08-.34,2.87,2.87,0,0,1,0-.43,3.63,3.63,0,0,0,0-.55,3.67,3.67,0,0,1-.06-.4c0-.14,0-.27,0-.4q0-.41,0-.81t0-.77q0-1.13-.09-2.28t-.09-2.13c0-.15,0-.45,0-.89s.07-.91.13-1.4a9.94,9.94,0,0,1,.25-1.3q.15-.57.38-.57a2.71,2.71,0,0,1,.53.19,1,1,0,0,0,.32-.08,1.27,1.27,0,0,1,.43-.08,2.43,2.43,0,0,1,1,.21,4,4,0,0,1,.83.51,6.41,6.41,0,0,1,.74.7c.24.26.5.52.77.77l.6.75a1.25,1.25,0,0,1,.13.38,2.76,2.76,0,0,1,0,.34,1.43,1.43,0,0,1-.08.45,1.42,1.42,0,0,0-.08.45v.87a2.24,2.24,0,0,0,.3.6,1,1,0,0,1,.19.57v.15l-.15.15v1.47a2,2,0,0,1-.15.85,1.29,1.29,0,0,0-.15.47V34a.84.84,0,0,1-.09.38.84.84,0,0,0-.09.38.22.22,0,0,0,0,.15,3.4,3.4,0,0,0-.3.34.62.62,0,0,0-.11.38,5.13,5.13,0,0,1-1.32,1.62l-.3.3a.25.25,0,0,0-.08.19.7.7,0,0,0,0,.23.64.64,0,0,1,0,.19l.3.57a.34.34,0,0,1,0,.15.33.33,0,0,0,0,.15.12.12,0,0,0,.09.13c.06,0,.09,0,.09.06l-.11.11c.1,0,.15.1.15.3v.11a0,0,0,0,1,0,0s0,0,0,0,0,0,0,0v0l.87,2.79a.46.46,0,0,1,.08.4.86.86,0,0,0,.08.51ZM56.32,40h.15v.08c0,.05,0,.08.11.08a.31.31,0,0,1-.11-.19v-.11Zm.26,6.79h-.11v-.15Zm.26-21.2a.15.15,0,0,0-.15.09.65.65,0,0,1-.15.21.65.65,0,0,0,.15-.21A.15.15,0,0,1,56.84,25.58Zm2.19.87-.64-.4a3.33,3.33,0,0,0-.68-.32h-.15l-.11-.15h-.6v.15c0,.6,0,1.22,0,1.85s0,1.27,0,1.92q0,.75,0,1.49t-.11,1.49a1.35,1.35,0,0,1,0,.38,2.54,2.54,0,0,1-.09.68,2.67,2.67,0,0,0-.09.72v.15a4.37,4.37,0,0,0,0,.58,4.47,4.47,0,0,1,0,.58,2.37,2.37,0,0,1,0,.32c0,.09,0,.18-.06.28a.49.49,0,0,0,.15.41h.15a.13.13,0,0,0,.15.15.13.13,0,0,1-.15-.15H57a5.41,5.41,0,0,0,1.17-.13,2.1,2.1,0,0,0,1.06-.58l.42-.75.15-.42c0-.12.1-.24.15-.34a.76.76,0,0,0,.08-.34,2.32,2.32,0,0,0-.08-.38l.15-.11.3-1.21v-.57a.37.37,0,0,1-.08-.34,1.22,1.22,0,0,0-.08-.57l-.49-2.94A1.51,1.51,0,0,0,59,26.6Zm.38,13.69c-.08,0-.11,0-.11.08s0,.08.11.08Z"/></g></g></svg>