<svg xmlns="http://www.w3.org/2000/svg" viewBox="0 0 75.93 75.93"><defs><style>.cls-1{fill:#1f3238;}.cls-2{fill:#fff;}</style></defs><title>menu-dinner-icon</title><g id="Layer_2" data-name="Layer 2"><g id="Layer_1-2" data-name="Layer 1"><circle class="cls-1" cx="37.97" cy="37.97" r="37.97"/><path class="cls-2" d="M60,41.26a8.89,8.89,0,0,1-1.88-.33,8.72,8.72,0,0,1-2-.85,10,10,0,0,1-1.16-.77.5.5,0,0,0-.81.47,14.79,14.79,0,0,1-2.81,3.09,17.55,17.55,0,0,1-3.47,2.25.29.29,0,0,0-.16.08,23.65,23.65,0,0,1-12.71,2.09,19.11,19.11,0,0,1-7.72-2.66,6.39,6.39,0,0,0,.62-.37,7.14,7.14,0,0,0,1.7-1.66l.06-.08a16.56,16.56,0,0,0,2.48-6.18,19.15,19.15,0,0,0,.43-4.18c0-.22,0-.43,0-.64a19.82,19.82,0,0,0-.75-4.68c-.12-.43-.26-.86-.41-1.28h0a19,19,0,0,1,5-.09,22.81,22.81,0,0,1,6.85,1.72,20.88,20.88,0,0,1,8.2,6.12v.07a.36.36,0,0,0,.3.33.49.49,0,0,0,.27.17.53.53,0,0,0,.29.24.42.42,0,0,0,.45-.12c.21-.21.42-.42.64-.62a10.89,10.89,0,0,1,4.84-2.45,9.83,9.83,0,0,1,1.57-.21c.3,0,1.35-.19,1.17.31s-.41,1.14-.58,1.72a15,15,0,0,0-.43,1.78,10.27,10.27,0,0,0-.05,3.19,8.23,8.23,0,0,0,1.06,3c.38.63-.57.51-.95.48Zm-11.9,5.94a3.65,3.65,0,0,1-.58.27,6.12,6.12,0,0,1-3.3,0,23.37,23.37,0,0,0,2.41-.81l.26.41c.18.29.65,0,.46-.27l-.22-.35.8-.37.1.17.15.22c.2.28.67,0,.46-.27a3.15,3.15,0,0,1-.23-.35,19.83,19.83,0,0,0,2.38-1.44,7.47,7.47,0,0,1-2.69,2.76ZM41.92,48l.26,0,.82.22a3.94,3.94,0,0,1-.37.42c-.22.21-.28.13-.43-.09a3.55,3.55,0,0,1-.27-.5Zm-3.29.35c.6,0,1.2-.07,1.81-.14a.32.32,0,0,0,0,.08l.07.14.79,1.65a1.9,1.9,0,0,1-1.17.82c-.34.08-.69.14-1,.2q-.2-1-.36-2c0-.27-.09-.53-.12-.8Zm4.21,2.35a4.21,4.21,0,0,1-2.52,2.12c-1.91.67-4.79,1.07-6.31-.57a7,7,0,0,0,.65-.74l0,0a2.85,2.85,0,0,0,1.44.52c.39.05,1.23.18,1.55-.14s.25-1,.21-1.48c0-.35-.06-.71-.1-1.06s-.08-.67-.14-1h.45c0,.31.09.62.14.92q.18,1.1.41,2.2a.28.28,0,0,0,.33.19,7.75,7.75,0,0,0,1.8-.4,2.86,2.86,0,0,0,1.09-1,.27.27,0,0,0,0-.27L41,48.19l0,0h.09l.31,0c.18.44.5,1.23,1,1.23.28,0,.51-.26.7-.44a3.1,3.1,0,0,0,.44-.53,9.43,9.43,0,0,1-.7,2.36Zm-7.14-1.19A6.48,6.48,0,0,0,36,48.32c.37,0,.74,0,1.12.06.05.37.1.73.14,1.1s.1,1,.13,1.49c.07,1.11-1.93.49-2.42.13a6.89,6.89,0,0,0,.75-1.56Zm-1.82-1c-.09-.17-.18-.35-.26-.53l.79.13c-.23.25-.48.48-.53.4Zm-2.56-.92.81,1.69.4.83c.36.76-2.15,1.15-2.5,1.16a4,4,0,0,1-1.12-.14c-.92-.23-.49-1.09-.24-1.6a11.35,11.35,0,0,1,.57-1.06c.15-.25.3-.48.46-.72l.25-.35.26-.34c.36.13.73.25,1.09.37a.27.27,0,0,0,0,.18Zm.67,5a5.72,5.72,0,0,1-2.28.73,7.21,7.21,0,0,1-3.61-.58c-3.56-1.54-5.62-5.94-4.05-9.46a6.12,6.12,0,0,1,.67-1.15l.56.57a6.09,6.09,0,0,0-.62,3.38.28.28,0,0,0,.27.27,3.57,3.57,0,0,0,1.52-.53l.07,0,1.63-.76.24.15-1.52,1-.07,0a4.17,4.17,0,0,0-1.32,1c-.21.33.22.94.36,1.2A12.06,12.06,0,0,0,25,50.17a1.36,1.36,0,0,0,2.23-.1,13.22,13.22,0,0,0,1-1.61l.18-.29.88-1.43.38.16a15.6,15.6,0,0,0-1,1.4,9.08,9.08,0,0,0-.87,1.83c-.42,1.25.78,1.61,1.78,1.71A4.71,4.71,0,0,0,33,50.76c.39-.31,0-.78-.12-1.11l-.15-.3-.82-1.71c.35.09.7.18,1.05.26l.38.79c.09.19.24.48.49.48h0a1.07,1.07,0,0,0,.54-.23,3.32,3.32,0,0,0,.64-.68c0,.11,0,.22-.05.34a6.09,6.09,0,0,1-3,4ZM20.58,42.17a24,24,0,0,0-3.84,2.41c-.43.33-.85.68-1.26,1a7,7,0,0,1,4.39-4.46,6.89,6.89,0,0,1,1.32-.31.49.49,0,0,0,.29-.14c.19.25.38.5.58.73l-.06.08c-.48.2-1,.42-1.42.66ZM18,39.06a16,16,0,0,0-2.17-.29,6.44,6.44,0,0,1,2.33-.41,6.73,6.73,0,0,1,1.51.19c.21.05.42.11.63.19a12.53,12.53,0,0,0,.68,1.2l-.64.13a.4.4,0,0,0-.23-.3l-.53-.24A9.65,9.65,0,0,0,18,39.06ZM25.6,44.7l-1,.46-.34.17a4.44,4.44,0,0,1-1.14.48,5.55,5.55,0,0,1,.51-2.7l.44.4.08.07A18,18,0,0,0,25.6,44.7Zm3.19,1.82L27.91,48l-.27.44c-.47.76-1.24,2.52-2.28,1.39a10,10,0,0,1-.85-1.19c-.34-.51-.72-1-.06-1.49l.66-.45q.86-.59,1.74-1.15a19.35,19.35,0,0,0,1.93,1ZM22,30.88a15.36,15.36,0,0,1,4.5-3.51,17.42,17.42,0,0,1,4.31-1.71c.15.43.29.86.42,1.29a19.51,19.51,0,0,1,.39,9,18.53,18.53,0,0,1-1.67,4.88,9.56,9.56,0,0,1-1.09,1.71A6,6,0,0,1,27.13,44a4.76,4.76,0,0,1-.47.24c-.49-.32-1-.66-1.42-1l-.3-.25c-2.58-2.15-5-5.34-4.73-8.83a.44.44,0,0,0,0-.23A10.07,10.07,0,0,1,22,30.88Zm21.49-5.82c.66.29,1.32.62,2,1,.39.21.77.45,1.14.69a13.71,13.71,0,0,1,2.43,2,9.14,9.14,0,0,1,1.73,2.49,21.13,21.13,0,0,0-3-2.55q-.68-.48-1.39-.9l.2-.57a.23.23,0,0,0-.05-.25A.28.28,0,0,0,46,27l-.15.44a23.13,23.13,0,0,0-2.11-1,.28.28,0,0,0,.15-.24v-.3a.27.27,0,0,0-.22-.26h-.05a.28.28,0,0,0-.27.27v.3a.27.27,0,0,0,0,.08c-.72-.3-1.53-.56-2.21-.79v-.54a.18.18,0,0,0-.08-.15.35.35,0,0,0-.24-.05c-.12,0-.22.08-.22.2v.38c-.69-.17-1.23-.32-1.92-.45v-.76c0-.27-.55-.27-.55,0v.66c-.55-.1-1.2-.19-1.8-.25a21.51,21.51,0,0,0-2.58-.1q-.69,0-1.38.07c3.34-2.23,7.73-1,11.13.56Zm6.07-.54A18.6,18.6,0,0,1,51,26.8l0,0c-.14.24-.27.5-.38.76a9.74,9.74,0,0,0-.41,1l-.12-.14c-.06-.43-.13-.87-.21-1.3a12.69,12.69,0,0,0-.74-2.6,8,8,0,0,0-.6-1.17,7.34,7.34,0,0,1,1,1.1Zm4.1.47a9.65,9.65,0,0,1,1.83-1.34c-.36.41-.69.85-1,1.27l-.23.33a16,16,0,0,0-2,4.08l0,.05a.41.41,0,0,0,0,.38,8.64,8.64,0,0,0-.63,1.06,8.87,8.87,0,0,0-.72-1.29.66.66,0,0,0,0-.11,9.06,9.06,0,0,1,.41-1.17A9.57,9.57,0,0,1,53.64,25Zm3,2.42A10.79,10.79,0,0,0,53.37,31a11.15,11.15,0,0,0-.67,1.34.37.37,0,0,0,0,.36l-.39.37-.08-.11A8.64,8.64,0,0,0,52,32a.5.5,0,0,0,.17-.22,7.45,7.45,0,0,1,.73-1.39,8,8,0,0,1,3.74-3Zm4.48,11.76a8.81,8.81,0,0,1-.31-4.62,15.21,15.21,0,0,1,.55-2.12c.16-.49.72-1.37.52-1.92-.42-1.12-2.1-.77-3-.65A11.46,11.46,0,0,0,54,31.67a9.89,9.89,0,0,1,4.67-4.3.38.38,0,0,0,.23-.45l.4,0a.47.47,0,0,0,0-.94,8.54,8.54,0,0,0-3.16.65,8.91,8.91,0,0,0-2.48,1.54,16.34,16.34,0,0,1,1.21-2.19l.15-.23a7.3,7.3,0,0,1,2.87-2.85.49.49,0,0,0,.26-.23c.22,0,.45-.08.68-.11.6-.07.6-1,0-.94a10.59,10.59,0,0,0-7.3,4.35c-.29-.51-.59-1-.92-1.51a7.16,7.16,0,0,0-3-2.68.5.5,0,0,0-.62.18.46.46,0,0,0-.33.79,6.23,6.23,0,0,1,1.48,2.1A11.23,11.23,0,0,1,49,27.37a21.2,21.2,0,0,0-5.45-3.31c-3.93-1.74-8.81-2.79-12.42.22a.38.38,0,0,0-.15.4A17.56,17.56,0,0,0,26,26.56,13.42,13.42,0,0,0,19.17,34a.4.4,0,0,0,.09.43,8.46,8.46,0,0,0,.53,3.22,7.43,7.43,0,0,0-5.24.69.41.41,0,0,0-.23.4.48.48,0,0,0,.1.94,13.75,13.75,0,0,1,4.81.77,8,8,0,0,0-5,6.47c0,.36.27.5.55.43a.44.44,0,0,0,.38-.13,22.7,22.7,0,0,1,6-4.28c-1.79,4,.46,9,4.6,10.75a7.57,7.57,0,0,0,6.66-.23,6.74,6.74,0,0,0,.83-.54c1.77,2,5,1.59,7.28.86a5.26,5.26,0,0,0,2.78-2,8,8,0,0,0,1.12-3.24,6.76,6.76,0,0,0,3.87-.38A7.16,7.16,0,0,0,50.6,46.2a6.36,6.36,0,0,0,1.5-2.61.48.48,0,0,0,0-.21,16.46,16.46,0,0,0,1.94-2c.27-.32.52-.66.75-1a10.92,10.92,0,0,0,2.81,1.38c1,.33,2.65.76,3.7.29,1.39-.63.21-2-.14-2.89Z"/><path class="cls-2" d="M59.11,39a1.5,1.5,0,0,1-.29.05,4.65,4.65,0,0,1-2-.63c-.6-.27-1.19-.57-1.76-.9a.27.27,0,0,0-.27.46,21,21,0,0,0,2.28,1.12,8.42,8.42,0,0,0,1,.39,2,2,0,0,0,1.11,0c.33-.1.19-.62-.14-.52Z"/><path class="cls-2" d="M55.29,36c-.34.08-.2.6.14.52a3.75,3.75,0,0,1,2.45.23c.31.14.59-.32.27-.46A4.32,4.32,0,0,0,55.29,36Z"/><path class="cls-2" d="M58.11,33.24c.34-.06.2-.58-.14-.52a7.22,7.22,0,0,0-3.57,1.7c-.26.23.12.61.38.38a6.7,6.7,0,0,1,3.33-1.56Z"/><path class="cls-2" d="M56.77,44.83a2,2,0,0,0-.57-1l-.2-.17a.45.45,0,0,0,.06-.1c.16-.39.64-.15,1,.08l.22.18c.4.39-.11.78-.47,1ZM54.46,46a.44.44,0,0,0-.27-.13.42.42,0,0,0-.17-.14.77.77,0,0,1-.34-.3.79.79,0,0,1,0-.73,1.18,1.18,0,0,1,1.29-.52l.22.06a1.09,1.09,0,0,1,.74.95c0,.49-1,1.24-1.43.81Zm.72-2.73a2.14,2.14,0,0,0-2.28.83,1.72,1.72,0,0,0,.64,2.44.51.51,0,0,0,.19,0l.06.08c.74.76,2.1.26,2.67-.49a1.8,1.8,0,0,0,.27-.5.48.48,0,0,0,.4,0c1-.48,1.6-1.56.78-2.52a1.61,1.61,0,0,0-2.73.11Z"/><path class="cls-2" d="M49.53,37.23c-.61.23-1.22.46-1.83.71q-.69-1-1.42-1.88l-.47-.59c.53-.26,1.05-.51,1.59-.76l.51-.24.56.68c.5.63,1,1.27,1.47,1.92l-.42.15Zm-2.75,1.11q-1.26.56-2.48,1.18c-.37-.58-.74-1.15-1.12-1.72l-.43-.64c.68-.42,1.37-.82,2.08-1.19l.5-.26.46.58q.72.92,1.41,1.86l-.42.18Zm-3.5,1.73q-.66.36-1.31.74l-1-1.38-.5-.72q.64-.49,1.3-.94l.47-.31.44.65c.37.55.73,1.11,1.09,1.67l-.54.29Zm-4.22-3.45L38.61,36A11.24,11.24,0,0,1,40,34.83l.25-.18.65.86q.56.75,1.09,1.51l-.45.29c-.45.3-.89.62-1.32,1l-1.15-1.65Zm-.76-1.09-.07-.1a3.47,3.47,0,0,0-.06-1.16v-.06a1.92,1.92,0,0,0-1.45-1.37l-.41-.1a4,4,0,0,1,.89-1,5,5,0,0,1,.4-.3l.3.35q1,1.2,2,2.44l-.2.14a12,12,0,0,0-1.4,1.16Zm-1,1.43-.06.19a5.86,5.86,0,0,0-.29,2.08c0,.19,0,.37,0,.56a5.88,5.88,0,0,1-1.25,4.06c-1.34,1.53-3.56-.81-4.56-1.76h0A.3.3,0,0,0,31,42c.26-.37.49-.75.71-1.14a8.2,8.2,0,0,0,2.12,1.27,8.11,8.11,0,0,0,.79.28.27.27,0,0,0,.14-.52l-.11,0A7.44,7.44,0,0,1,32,40.39a14.3,14.3,0,0,0,.67-1.52l2.84,1.22c.31.14.59-.33.27-.46l-2.91-1.26h0a14,14,0,0,0,.7-4.39c0-.25,0-.5,0-.74a.21.21,0,0,0,.21.08c1.24-.15,3.11-.33,3.79.77a1.84,1.84,0,0,1,.26.83,4.16,4.16,0,0,1-.3,1.64l-.14.4Zm2-6.48.14-.07.64-.33.56.53q1.06,1,2.07,2.11l-.6.27a17,17,0,0,0-1.75.95c-.64-.82-1.31-1.63-2-2.43L38,31.14c.41-.24.83-.46,1.25-.67ZM42.44,29l.32-.09.6.58q1.08,1,2.1,2.15l-.54.18q-.86.29-1.7.63-1-1.06-2-2.08l-.63-.6A11.4,11.4,0,0,1,42.44,29ZM45,35.29l-.51.27c-.69.37-1.37.76-2,1.17-.35-.5-.72-1-1.08-1.5l-.66-.87a16.67,16.67,0,0,1,1.81-1l.6-.26.67.76c.41.46.81.93,1.21,1.41Zm1.31-2.72c.43.48.86,1,1.28,1.47l-.51.24q-.8.37-1.58.76c-.39-.48-.8-1-1.21-1.42l-.63-.71c.56-.22,1.13-.43,1.7-.62l.54-.18.41.46Zm5.89,3.77q-.86.26-1.7.55C50,36.24,49.51,35.6,49,35l-.58-.73,1.28-.56.06,0c.21-.17,0-.55-.34-.42l-1.37.6c-.42-.51-.86-1-1.29-1.5l-.34-.39.34-.11a.26.26,0,0,0,.18-.31.25.25,0,0,0-.33-.21l-.59.19c-.71-.77-1.44-1.52-2.18-2.25l-.43-.42.3,0a.26.26,0,0,0,.26-.23.25.25,0,0,0-.26-.3,5.41,5.41,0,0,0-.79.1q-.73-.69-1.48-1.35a.27.27,0,0,0-.13-.07c-.23,0-.46.25-.24.45l0,0,1.21,1.1-.22.07a14.57,14.57,0,0,0-1.91.83c-.7-.65-1.41-1.28-2.14-1.9-.26-.22-.65.16-.38.38l0,0q1,.85,2,1.74l-.43.21L39,30c-.44.22-.89.45-1.32.71-.46-.52-.92-1-1.4-1.52-.24-.25-.62.13-.38.38l.26.28c.36.38.71.77,1.06,1.16-.13.09-.26.19-.38.29a4.52,4.52,0,0,0-1,1.19.26.26,0,0,0,0,.16,11,11,0,0,0-2.08.09.28.28,0,0,0-.23.16c0-.24,0-.49-.08-.73s-.54-.34-.54,0c0,0,0,0,0,0v.05A13.53,13.53,0,0,1,30,42.47l-.08.1,0,0c-.15.26.2.59.41.34l.13-.17.29-.37,0,0A19.91,19.91,0,0,0,33,44.32,2.23,2.23,0,0,0,36.34,44a6.83,6.83,0,0,0,1.17-3.73c0-.52-.05-1-.05-1.56a5.58,5.58,0,0,1,.41-1.78l0,0,.09-.29a.26.26,0,0,0,.14-.08l.12-.13.38.54,1.18,1.7-.47.4c-.4.35-.8.71-1.18,1.09a.27.27,0,0,0,.33.42l0,0c.34-.35.7-.67,1.06-1L40.1,39l.51.73.9,1.3-.75.46q-1.15.73-2.27,1.52a.29.29,0,0,0,0,.49.22.22,0,0,0,.24,0q1.13-.81,2.3-1.54l.75-.46.23.33,1.28,1.86a.29.29,0,0,0,.51-.11.25.25,0,0,0,0-.17l-1.2-1.75-.3-.44,1.29-.73.54-.29.41.68q.91,1.51,1.75,3.08a.23.23,0,0,0,.2.13.28.28,0,0,0,.27-.41c-.55-1-1.13-2-1.73-3L44.59,40q1.25-.64,2.54-1.21l.39-.17.35.51q.68,1,1.32,2l0,0c.2.25.62,0,.44-.3-.42-.67-.86-1.32-1.31-2L48,38.39c.62-.26,1.24-.49,1.87-.72l.39-.14.21.3.47.66,0,0c.2.25.65,0,.45-.29L51,37.64l-.21-.28c.5-.17,1-.35,1.51-.48h0c.33-.14.19-.62-.15-.53Z"/><path class="cls-2" d="M36.8,36.74a9,9,0,0,1-3.12-.33.25.25,0,0,0-.32.19.26.26,0,0,0,.18.33,9.41,9.41,0,0,0,3.26.35.27.27,0,0,0,.24-.19.25.25,0,0,0-.24-.35Z"/><path class="cls-2" d="M26.46,36.58a1.26,1.26,0,0,0,1.16,0,.76.76,0,0,0,.3-.26,1.05,1.05,0,0,0,.13-.21,1.41,1.41,0,0,0-.22-2,1.27,1.27,0,0,0-2,.63v0a1.39,1.39,0,0,0,.62,1.74Z"/></g></g></svg>