<svg xmlns="http://www.w3.org/2000/svg" viewBox="0 0 75.93 75.93"><defs><style>.cls-1{fill:#d64627;}.cls-2{fill:#fff;}</style></defs><title>menu-cocktails-oj</title><g id="Layer_2" data-name="Layer 2"><g id="Layer_1-2" data-name="Layer 1"><circle class="cls-1" cx="37.97" cy="37.97" r="37.97"/><path class="cls-2" d="M9.32,42.18a3.74,3.74,0,0,1-1.59.73,2.92,2.92,0,0,1-1.48-.11A3.25,3.25,0,0,1,5,42a4.18,4.18,0,0,1-.88-1.38,4.92,4.92,0,0,1-.29-1.3,11.86,11.86,0,0,1,0-1.69A18.46,18.46,0,0,1,4,35.76,14.42,14.42,0,0,1,4.32,34a8.45,8.45,0,0,1,.52-1.43,2.37,2.37,0,0,1,.65-.88.68.68,0,0,1,.35-.15,1.12,1.12,0,0,1,.34,0l.35.1a1.51,1.51,0,0,0,.37.07L7,31.59l.13-.15a4.18,4.18,0,0,1,1.56.3A3.91,3.91,0,0,1,10,32.6a3.3,3.3,0,0,1,.81,1.32,3.13,3.13,0,0,1,.05,1.7l-.36.27a.77.77,0,0,1-.56,0,1.67,1.67,0,0,1-.53-.32,5.37,5.37,0,0,1-.51-.5l-.49-.53A2.34,2.34,0,0,0,8,34.18a.67.67,0,0,0-.47-.1.62.62,0,0,0-.38.24,1.33,1.33,0,0,0-.19.42,5,5,0,0,0-.11.53c0,.19-.06.37-.1.53s-.11.38-.17.65-.13.58-.19.91-.11.68-.15,1a7.55,7.55,0,0,0,0,1,4.14,4.14,0,0,0,.12.9,1.26,1.26,0,0,0,.34.63l1.14-1.14a1.17,1.17,0,0,0,.09-.24c0-.08,0-.16.05-.25A1.67,1.67,0,0,1,8,39.12a.6.6,0,0,1,.11-.2,1,1,0,0,1,.66-.4,3,3,0,0,1,.91,0,4.47,4.47,0,0,1,.92.2,2.43,2.43,0,0,1,.68.33v.61c-.16.21-.31.43-.45.66l-.44.7q-.23.35-.48.66A3.28,3.28,0,0,1,9.32,42.18ZM4.75,36.5l-.07-.08-.11-.05Zm.36-2.9.13,0c0-.09,0-.14,0-.16s0-.05-.07-.1Zm.18,4.1s0,0,0,0,0,0,0-.05Zm4,1.14s0,.07,0,.06l.06,0Zm.09-4.1.18.09v0l-.13-.09Z"/><path class="cls-2" d="M16.5,32.08l.17.06.13.07.13.07.19,0a.79.79,0,0,0,.11-.13.3.3,0,0,1,.14-.1.66.66,0,0,0,.07.29,1.43,1.43,0,0,0,.17.27l.21.24A1.27,1.27,0,0,0,18,33l.44,0v.28a1,1,0,0,1,.61.37,1,1,0,0,1,.15.55,4,4,0,0,1-.06.66,2.3,2.3,0,0,0,0,.69c0,.12,0,.3.08.56s.06.53.09.82,0,.59,0,.88a2.45,2.45,0,0,1-.09.72L19,39l-.22.4a5.48,5.48,0,0,0-.29,1.17,5.13,5.13,0,0,1-.21,1,1.89,1.89,0,0,1-.45.75,2.12,2.12,0,0,1-1,.5,4.41,4.41,0,0,1-2,.08,4.57,4.57,0,0,1-1.64-.67,4.52,4.52,0,0,1-1.21-1.16,4.18,4.18,0,0,1-.66-1.39.68.68,0,0,1,0-.46.75.75,0,0,0,.07-.38,15.42,15.42,0,0,1,0-2.45q.12-1.18.28-2.18l.1.07a.35.35,0,0,1,.07.12l.12,0,.75-1.08a3.12,3.12,0,0,1,.75-.79,2.22,2.22,0,0,1,1-.39,4.47,4.47,0,0,1,1.52.13.13.13,0,0,1,0-.07A.23.23,0,0,0,16,32l-.19-.1-.19-.1.14,0,.14,0v-.24a.31.31,0,0,1,.18.19.27.27,0,0,0,.19.17.81.81,0,0,0,0-.18.73.73,0,0,1,0-.18h.09c0,.07,0,.14,0,.2S16.5,32,16.5,32.08Zm-4.43,4.64.07.08.1,0-.08-.06ZM13.17,32a1.2,1.2,0,0,1,0,.23s-.07.05-.18.08l0-.11s0-.08,0-.13l-.17.06-.16.06a.7.7,0,0,1,.13-.18l.19-.14Zm2,7.89c0-.06,0-.24,0-.53s0-.62,0-1,0-.69,0-1,0-.51,0-.59l-.16-.5-.17-.5a4,4,0,0,0,.16-.43l-.12-.22-.12-.22a1,1,0,0,1,0-.42,1.23,1.23,0,0,0,0-.47l-.16,0a5.43,5.43,0,0,0-.62,1.13,7.63,7.63,0,0,0-.44,1.42,6.94,6.94,0,0,0-.14,1.53,4.28,4.28,0,0,0,.27,1.44l.19.48a2,2,0,0,0,.26.47,1.15,1.15,0,0,0,.37.33.73.73,0,0,0,.51.06l.14-.47Zm.24-4.4h0l0-.36-.06.08-.06.08Zm0,.61.11.13a.51.51,0,0,0,.17.08l-.14-.1Zm.36-4.52-.07.09-.21-.12v-.12l.14.07Zm-.12,2.87-.16-.13q.07.1.06.1Zm.12,1-.15-.07,0,.07.19,0Zm2-2.53-.26-.19a.82.82,0,0,0-.35-.1,2.13,2.13,0,0,0,0,.21,1.64,1.64,0,0,1,0,.2l-.16,0a.84.84,0,0,1,0-.16.93.93,0,0,0,0-.16.84.84,0,0,0-.44.17.65.65,0,0,0-.17.44l.07.08.09.08c.24-.08.45-.14.64-.19l.7-.18Zm-.86-.81.09,0,0,.06Z"/><path class="cls-2" d="M25,42.18a3.74,3.74,0,0,1-1.59.73,2.92,2.92,0,0,1-1.48-.11A3.25,3.25,0,0,1,20.69,42a4.18,4.18,0,0,1-.88-1.38,4.92,4.92,0,0,1-.29-1.3,11.86,11.86,0,0,1,0-1.69,18.46,18.46,0,0,1,.17-1.84A14.42,14.42,0,0,1,20,34a8.45,8.45,0,0,1,.52-1.43,2.37,2.37,0,0,1,.65-.88.68.68,0,0,1,.35-.15,1.12,1.12,0,0,1,.34,0l.35.1a1.51,1.51,0,0,0,.37.07l.13-.15.13-.15a4.18,4.18,0,0,1,1.56.3,3.91,3.91,0,0,1,1.32.85,3.3,3.3,0,0,1,.81,1.32,3.13,3.13,0,0,1,.05,1.7l-.36.27a.77.77,0,0,1-.56,0,1.67,1.67,0,0,1-.53-.32,5.37,5.37,0,0,1-.51-.5l-.49-.53a2.34,2.34,0,0,0-.47-.38.67.67,0,0,0-.47-.1.62.62,0,0,0-.38.24,1.33,1.33,0,0,0-.19.42,5,5,0,0,0-.11.53c0,.19-.06.37-.1.53s-.11.38-.17.65-.13.58-.19.91-.11.68-.15,1a7.55,7.55,0,0,0,0,1,4.14,4.14,0,0,0,.12.9,1.26,1.26,0,0,0,.34.63l1.14-1.14a1.17,1.17,0,0,0,.09-.24c0-.08,0-.16.05-.25a1.67,1.67,0,0,1,.06-.24.6.6,0,0,1,.11-.2,1,1,0,0,1,.66-.4,3,3,0,0,1,.91,0,4.47,4.47,0,0,1,.92.2,2.43,2.43,0,0,1,.68.33v.61c-.16.21-.31.43-.45.66l-.44.7q-.23.35-.48.66A3.28,3.28,0,0,1,25,42.18ZM20.43,36.5l-.07-.08-.11-.05Zm.36-2.9.13,0c0-.09,0-.14,0-.16s0-.05-.07-.1Zm.18,4.1s0,0,0,0,0,0,0-.05Zm4,1.14s0,.07,0,.06l.06,0Zm.09-4.1.18.09v0l-.13-.09Z"/><path class="cls-2" d="M33.33,43a6.76,6.76,0,0,0-.68-.38,1.61,1.61,0,0,1-.59-.48,4.09,4.09,0,0,1-.52-1q-.21-.56-.37-1.16t-.34-1.17a5.82,5.82,0,0,0-.44-1.07l-.13.1-.13.1a1.85,1.85,0,0,1-.16.22,1.76,1.76,0,0,0-.16.22,2.68,2.68,0,0,0-.09.71c0,.26,0,.52,0,.8s0,.55,0,.83a2.73,2.73,0,0,1-.16.79,1.73,1.73,0,0,1-.36.62,5.43,5.43,0,0,0-.45.56,1.75,1.75,0,0,1-1-.3,1.46,1.46,0,0,1-.52-.74,3,3,0,0,1-.13-1.05,9.91,9.91,0,0,1,.13-1.23V38.2q.21-1.11.43-2.27t.47-2.18c0-.23,0-.45,0-.68s0-.45,0-.68a.62.62,0,0,0,.4,0l.47-.17a3.84,3.84,0,0,1,.51-.16,1,1,0,0,1,.5,0l.25.23.24.23a4,4,0,0,0-.07.67,4.21,4.21,0,0,0,0,.72l.09,0,.53-.47q.3-.28.59-.61a3.81,3.81,0,0,0,.49-.69,1.8,1.8,0,0,0,.23-.72c.46.15.89.29,1.27.44a2.37,2.37,0,0,1,1,.7,3.4,3.4,0,0,1-.21.7,4.06,4.06,0,0,1-.32.62,1.11,1.11,0,0,0-.59.19,2.45,2.45,0,0,0-.47.43,5.56,5.56,0,0,0-.39.52,3.59,3.59,0,0,1-.36.46c.06.29.11.58.16.9s.1.62.16.92.13.59.2.87a4.63,4.63,0,0,0,.26.75,6.32,6.32,0,0,0,.3.58c.14.25.29.52.44.8a8.36,8.36,0,0,1,.38.81,1.56,1.56,0,0,1,.14.63l-.4,1a.28.28,0,0,1-.15,0h-.12a.31.31,0,0,0-.14,0A.7.7,0,0,0,33.33,43Zm-5-8c.06,0,.09,0,.08-.05a0,0,0,0,1,0,0l-.09,0Zm1.32-.13-.1-.07-.1-.09.06.13.06.13.09,0Zm2.13,4.1,0,.06,0,0Zm.28,2.67,0,.09,0-.09ZM32.55,39l-.07-.09s0,.06,0,.05Zm0-6.35.07.07.09-.07v0h-.13Zm.93,9.79.16-.12h-.07Zm.3-10.21h.12l0-.09h0Z"/><path class="cls-2" d="M32.95,31.44l.13,0,.08.08v0h0c-.08,0-.12-.07-.12-.08Zm.33,0a4.61,4.61,0,0,0,1.42.24q.86,0,1.84,0l2-.07a18,18,0,0,1,1.94,0,6.81,6.81,0,0,1,1.63.29,2.09,2.09,0,0,1,1.09.73,1.05,1.05,0,0,1,0,.24,1.23,1.23,0,0,1-.08.16,3.23,3.23,0,0,0-.76.34,2.81,2.81,0,0,1-.81.33,1.86,1.86,0,0,1-.44,0l-.41,0-.37,0a.71.71,0,0,0-.34.09q0,.52,0,1.3l.08,1.69q0,.9.06,1.85t-.05,1.79A9,9,0,0,1,39.84,42a2.13,2.13,0,0,1-.5,1l-.73-.22-.71-.18a11.33,11.33,0,0,1-.69-1.95q-.26-1-.47-2.24,0-1.1-.1-2.19T36.54,34a6,6,0,0,1-.72,0,5.72,5.72,0,0,1-.73-.1,2.76,2.76,0,0,1-.64-.21,1.07,1.07,0,0,1-.44-.36l-.2-.43-.16-.3a2.11,2.11,0,0,0-.18-.27L33.2,32c0-.13,0-.22,0-.28A1.49,1.49,0,0,1,33.27,31.47Zm1,1.53,0,0,0,.06,0,.06Zm.13.4.08-.05a.45.45,0,0,1,0-.11h-.09a.28.28,0,0,0,0,.09A.15.15,0,0,1,34.43,33.4Zm1.67.83.08-.07.08-.07.09.09-.09.12h-.12Zm.79,1.47.14-.16.14-.17h-.09l-.1.07-.1.07a.58.58,0,0,0,0,.1.7.7,0,0,1,0,.1Zm.07-1,.09,0,0-.16ZM37.42,36l0,0,0,0Zm.81-2.92,0,.06.07,0,0-.06Zm.42,2.78a.58.58,0,0,1-.21-.07l.08.08.13,0Zm-.09-1.23.12.09,0-.06Zm1,7.75-.12-.12h-.21s-.06.07-.07.07,0,0-.05.1a.33.33,0,0,1,.2,0l.24,0Zm-.28-4,0-.08-.07-.05.06.07Zm.12.86,0-.06-.05,0Zm.13,2,0-.05-.05,0,.05.16v.14s0,.08,0,.16h0a1.24,1.24,0,0,0,0-.22A.25.25,0,0,0,39.51,41.23Zm.12.81h-.09l0,.09,0,0h0Zm0-2.09h.09l-.09-.12Zm.12,1.11L39.62,41l0,.13,0,.13.07,0Z"/><path class="cls-2" d="M50.23,41.83l-.06.13-.06.13s0,.09,0,.17l0,.28,0,.32a2.25,2.25,0,0,1,0,.3,2,2,0,0,1-1,.26.9.9,0,0,1-.61-.3,1.71,1.71,0,0,1-.35-.7,7.15,7.15,0,0,1-.18-.93l-.13-1a4.21,4.21,0,0,0-.2-.86h-.9a5.58,5.58,0,0,0-.84.08q-.34.81-.69,1.58t-.66,1.55a1.84,1.84,0,0,0-.38,0l-.33,0-.32,0a1.15,1.15,0,0,1-.34,0,2.29,2.29,0,0,1-.42-.9,2,2,0,0,1,0-.79,4.76,4.76,0,0,1,.27-.81,5.32,5.32,0,0,0,.3-1,2.85,2.85,0,0,1-1.1-.18,5.63,5.63,0,0,1-.92-.46l0-.13,0,0,0,0a3.71,3.71,0,0,0,.6-.07l.78-.16q.4-.1.74-.21a3.15,3.15,0,0,0,.5-.2,4.69,4.69,0,0,1,.29-1.1q.21-.55.48-1.1t.55-1.09q.29-.54.51-1.07a6.8,6.8,0,0,0,.34-1,3.15,3.15,0,0,0,.07-1h.07l1-.09.58,0a4,4,0,0,1,.55,0,2,2,0,0,1,.46.1.68.68,0,0,1,.32.24,2.91,2.91,0,0,1,.23.94q.05.56.05,1.18t0,1.24a6.61,6.61,0,0,0,.1,1.1,2.61,2.61,0,0,1,0,.55l0,.52a3,3,0,0,0,0,.48,1,1,0,0,0,.16.44,1.67,1.67,0,0,1,.66.16,1.76,1.76,0,0,1,.44.35,1.25,1.25,0,0,1,0,.22l-.27.16-.29.22-.27.24a.7.7,0,0,0-.17.24,1.72,1.72,0,0,0,0,.51,4.09,4.09,0,0,0,.1.53q.07.27.14.51C50.16,41.55,50.2,41.7,50.23,41.83Zm-2.67-4q0-.24,0-.52c0-.19,0-.37,0-.53s0-.32,0-.47a2,2,0,0,0,0-.35,1.9,1.9,0,0,0-.28.4,5,5,0,0,0-.22.47l-.21.5-.21.49,0,.12Z"/><path class="cls-2" d="M51.4,42.14a2.25,2.25,0,0,1-.32-1A9.78,9.78,0,0,1,51,39.67a16.4,16.4,0,0,1,.14-1.7q.12-.9.27-1.72t.33-1.5a9.58,9.58,0,0,1,.32-1.07q.1-.25.24-.52t.26-.55a4.09,4.09,0,0,0,.19-.58,1.73,1.73,0,0,0,0-.59,5.5,5.5,0,0,1,.73.34,6.17,6.17,0,0,1,.79.51,4,4,0,0,1,.67.64,1.78,1.78,0,0,1,.38.7c0,.24-.07.47-.1.71s-.06.47-.1.71q-.12.76-.2,1.42t-.2,1.43a10.64,10.64,0,0,0-.11,1.44q0,.75-.07,1.44a5.63,5.63,0,0,1-.26,1.27,1.75,1.75,0,0,1-.65.9,2.18,2.18,0,0,0-.58-.13c-.21,0-.42,0-.63-.09a2.69,2.69,0,0,1-.59-.19A1.13,1.13,0,0,1,51.4,42.14ZM52.54,41l.07-.07-.07-.09Zm.36-8.66a.48.48,0,0,0,0,.12l.12,0h0a.45.45,0,0,1,0-.11Zm.16,5.24H53l0,.09.12,0Zm0-1.29.08,0,.08,0v0l-.06,0-.06,0Zm1.18,4.06,0,0,.09-.07v0h-.09Zm.19-4.19.05.08.08.05Z"/><path class="cls-2" d="M55.62,41.87c0-.19,0-.33,0-.42a1.39,1.39,0,0,0,0-.23L55.55,41a3,3,0,0,1-.06-.38l.13-.09.75.09v-.09q0-.43,0-.84c0-.27,0-.54,0-.82q.18-.84.38-1.75t.36-1.86a17.59,17.59,0,0,0,.21-1.91,11.75,11.75,0,0,0-.05-1.91l.72.13a5.05,5.05,0,0,1,.76.21,3.19,3.19,0,0,1,.67.33,1.19,1.19,0,0,1,.44.48,4.41,4.41,0,0,1,.13.87q0,.57,0,1.27t-.06,1.49q-.05.79-.12,1.51t-.16,1.33c-.06.4-.13.73-.19,1l0,.09c.44,0,.88,0,1.32-.07a12.27,12.27,0,0,1,1.26,0,6.73,6.73,0,0,1,1.16.13,2.74,2.74,0,0,1,1,.44,2.11,2.11,0,0,0,0,.3,1.79,1.79,0,0,0,0,.21,1.31,1.31,0,0,0,0,.16,1.13,1.13,0,0,1,0,.18.48.48,0,0,0-.33.06l-.34.21-.38.24a1.34,1.34,0,0,1-.42.16L61.1,42l-.95.16a5,5,0,0,0-1,.25,1,1,0,0,0-.29.15l-.3.19a1.45,1.45,0,0,1-.34.14.92.92,0,0,1-.42,0,.48.48,0,0,1-.22-.07l-.17-.13-.16-.13a.71.71,0,0,0-.16-.11,3,3,0,0,0-.44-.15l-.37-.1a1.76,1.76,0,0,1-.33-.13A1.31,1.31,0,0,1,55.62,41.87Zm.36-.53h.18v0l0,0H56Zm.67-1.39h0l.09,0v0l-.09-.13Zm.67.22L57.18,40l.08.07Zm.22-7.3.1.12.13-.07ZM57.8,37l0-.09,0,.09Zm1-4.1.27,0,0-.09-.22.09Zm4.81,8.29,0,.09h0l.18-.09-.13-.09Z"/><path class="cls-2" d="M68.91,36.58a4.41,4.41,0,0,1,.94.48,6.58,6.58,0,0,1,1.08.87A5.41,5.41,0,0,1,71.78,39,1.59,1.59,0,0,1,72,40.09q0,.27-.13.58a4.61,4.61,0,0,1-.2.61,2.8,2.8,0,0,1-.28.53,1,1,0,0,1-.38.34,1.53,1.53,0,0,1-.39.15,1.11,1.11,0,0,0-.37.16.32.32,0,0,0-.13.18.24.24,0,0,1-.18.16,3.29,3.29,0,0,1-1.36.13,5.18,5.18,0,0,1-1.37-.33A4.38,4.38,0,0,1,66.12,42a1.6,1.6,0,0,1-.59-.75l-.05,0-.05,0s0,.06-.05.07l-.08,0a.66.66,0,0,1-.16-.19,1.94,1.94,0,0,1-.07-.23l-.12,0-.06-.09a.82.82,0,0,0,.2-.1.91.91,0,0,0,.16-.15.8.8,0,0,0,0-.16l0-.11-.1,0s0,0,0-.08a.74.74,0,0,0,.32,0,.47.47,0,0,0,.21-.12.82.82,0,0,0,.14-.18l.15-.24.3-.05.29-.05a2.21,2.21,0,0,0,.41.33,4.32,4.32,0,0,0,.64.35,3.37,3.37,0,0,0,.71.23,1,1,0,0,0,.61,0,.84.84,0,0,0,.4-.46,1.73,1.73,0,0,0,.11-.66,1.93,1.93,0,0,0-.13-.67,1.07,1.07,0,0,0-.35-.48,3.18,3.18,0,0,0-.53-.3q-.3-.14-.64-.26L67,37.46l-.62-.19L66,37.23l-.31-.05-.11-.24a1.56,1.56,0,0,0-.13-.24l-.62-.55a1.31,1.31,0,0,1-.22-.54,2.88,2.88,0,0,1,0-.66,3.83,3.83,0,0,1,.09-.67,3.14,3.14,0,0,1,.18-.57,1.93,1.93,0,0,1,.29-.47l.34-.39.33-.4a2.4,2.4,0,0,0,.28-.46.9.9,0,0,1,.27.06l.19.1.14.11a.28.28,0,0,0,.13.07.32.32,0,0,0,.18,0l.19-.06.2-.05a.36.36,0,0,1,.21,0c.14.06.33.16.57.29l.73.43c.25.15.48.31.69.46a2.43,2.43,0,0,1,.45.39,1.93,1.93,0,0,1,0,.47l-.08.39-.14.11-.14.1a1.33,1.33,0,0,0-.42,0,1,1,0,0,1-.47,0,1.22,1.22,0,0,1-.38-.18,2.4,2.4,0,0,0-.42-.22.87.87,0,0,0-.43-.07.65.65,0,0,0-.42.29,1,1,0,0,0-.21.21,1.53,1.53,0,0,0-.22.37,1.27,1.27,0,0,0-.1.41.35.35,0,0,0,.15.33,1.33,1.33,0,0,0,.46.22l.55.13.58.1A4.24,4.24,0,0,1,68.91,36.58ZM68,41.95l.07,0,0,0h-.07Zm.1-8.67,0,0,0,0Zm.1-.06.31-.18v0h-.1Zm.44.3s0,0,0,0,0,0,0,0Zm.24,4.1-.1-.1a.24.24,0,0,1,0,.1.34.34,0,0,0,0,.11l0-.07Zm0,3.57,0,0,0,0,0,0,0,0,.07.07h0Zm-.07-6.74a.94.94,0,0,0,.24-.07v0h-.21l0,.07Zm0,6.26.05,0,0,0Zm2.18.52s0,0,0,0l0,0,0,0Z"/></g></g></svg>