<svg xmlns="http://www.w3.org/2000/svg" viewBox="0 0 75.93 75.93"><defs><style>.cls-1{fill:#1f3238;}.cls-2{fill:#fff;}</style></defs><title>menu-lunch-icon</title><g id="Layer_2" data-name="Layer 2"><g id="Layer_1-2" data-name="Layer 1"><circle class="cls-1" cx="37.97" cy="37.97" r="37.97"/><path class="cls-2" d="M26.07,43.41a7.43,7.43,0,0,1,1.28-1.62q-3.35-.93-6.64-2.05a.47.47,0,0,1-.46,0,.36.36,0,0,1-.19.08,12.16,12.16,0,0,0-1.87.39c-.47.15.3.29.49.36a6.3,6.3,0,0,1,.65.25.91.91,0,0,1,.57.88c0,.21-.15.39-.19.59a1.19,1.19,0,0,0,.07.72A7,7,0,0,1,21,42.14c.32-.17.81-.48,1.14-.15s.11,1.22.69,1l1.86-.66a.24.24,0,0,1,.3.23q0,.61,0,1.22l.73-.42a.22.22,0,0,1,.27,0ZM49.23,40.7c.2-.86-1-1.42-1.43-2-1.32.91-2.64,1.83-4,2.71a16,16,0,0,1-3.82,2c-3.16,1-6.53,0-9.64-.79l-2.46-.64,0,0a7,7,0,0,0-2,3l1.66-.39c.34-.08.89-.3,1.25-.15a.81.81,0,0,1,.53.67l2.78-.33c.17,0,.25.17.23.3l-.09.62a2.18,2.18,0,0,1,1.59-.46,1.45,1.45,0,0,1,1,.64c.38-.39.9-.8,1.44-.61a1.12,1.12,0,0,1,.71.62,10.85,10.85,0,0,1,1.36-.95.84.84,0,0,1,.81-.1,1,1,0,0,1,.42.53c.06.16.1.42.19.62a1.7,1.7,0,0,1,.65-1,1.68,1.68,0,0,1,.88-.37c.37,0,1.09.19,1.09-.42,0-.39.1-1,.63-1a1.94,1.94,0,0,1,.76.22c.25.1.69.3.77-.23a1.67,1.67,0,0,0-.18-.84.24.24,0,0,1,.17-.29,1.06,1.06,0,0,1,.85,0c.14.07,1.39.81,1.32.14s-.37-1.19.3-1.51a1.12,1.12,0,0,1,.74,0c.32.09,1.35.74,1.5.08ZM39.1,51.82l11.37-6.7c-.1-.73-1-1-1.67-1a.24.24,0,0,1-.13.36,2.48,2.48,0,0,0-1.16.8c-.2.24-.54-.1-.34-.34a2.88,2.88,0,0,1,1-.77,10.84,10.84,0,0,1-1.64.15,18.15,18.15,0,0,1-6.87,2.81,24.49,24.49,0,0,1-5.28,0q-1.28-.11-2.55-.25a.24.24,0,0,1-.22.18,8.81,8.81,0,0,0-2.71.58q2.92.31,5.82.85c.3.06.17.52-.13.46q-3.18-.59-6.4-.9a1.84,1.84,0,0,0-.76,1.83q5.74,1.25,11.56,2a.42.42,0,0,1,.11-.09Zm16.47-19.2a1.53,1.53,0,0,0-.15-2,.41.41,0,0,1-.11-.22A22.84,22.84,0,0,0,52,32.27c-.26.17-.5-.24-.24-.41A22.56,22.56,0,0,1,55,30,30.84,30.84,0,0,0,36.6,27.1a.41.41,0,0,1-.22.15A38.85,38.85,0,0,0,20.6,36.31a.41.41,0,0,1,0,.36,2.41,2.41,0,0,0,.25,2.53l.05.09c3.15,1.08,6.35,2,9.59,2.82,2.69.66,5.63,1.58,8.41,1,0-.5,0-1-.07-1.5,0-.31.47-.31.48,0q0,.7.06,1.4a8.2,8.2,0,0,0,.88-.28,20.21,20.21,0,0,0,4-2.26l4-2.76,7.21-4.93a.39.39,0,0,1,.07-.21Zm1.15,4.79a1.37,1.37,0,0,1,.44-1.89c-.58-.09-1.18-.14-1.21,0-.06.34,0,.82-.34,1s-1.84-.5-1.6.62c.09.39.08.72-.3.93a.93.93,0,0,1-1-.22c-.13-.1-.71-.62-.82-.09a.92.92,0,0,0,0,.55,2.34,2.34,0,0,1,.12.75c0,.38-.36.54-.69.57l-1.83.16a1.29,1.29,0,0,1,.17.77c-.06.84-.89,1-1.53.7a2,2,0,0,0-.83-.27c-.56,0-.29.64-.24.88a.86.86,0,0,1-.19.77c-.51.65-1.41-.21-2-.29a1.18,1.18,0,0,1-.34,1.42.83.83,0,0,1-.72,0c-.3-.11-1-.54-1,.08,0,.47-.06,1.18-.72,1.13-.47,0-.93-.19-1.35.12a1.32,1.32,0,0,0-.58,1.23.21.21,0,0,1,0,.11,19.51,19.51,0,0,0,6.07-2.63.2.2,0,0,1,.14-.08l2.1-1.29q4.13-2.53,8.22-5.14Zm1.16,1.48c.25-.16.71-.5.37-.67a3.48,3.48,0,0,0-.57-.17,2.07,2.07,0,0,1-.63-.28q-2.36,1.51-4.73,3a2.65,2.65,0,0,1,.83.29A13.54,13.54,0,0,1,56,39.65a.2.2,0,0,1,.22,0,.26.26,0,0,1-.09.42,12.86,12.86,0,0,0-2.61,1.25,1.07,1.07,0,0,1,0,.7l-.26,1.09,3.6-1.57a6,6,0,0,0,.93-.42c.31-.21.13-.47,0-.72a2.12,2.12,0,0,1-.27-1l-.78.29a.2.2,0,0,1-.23-.06.26.26,0,0,1,.11-.4l1.07-.4a.21.21,0,0,1,.15,0ZM58,35.2c.53-.25,1.07-.5,1-1.13-.17-1.29-1.8-1.18-2.74-1a.43.43,0,0,1-.43.09l-7.61,5.2a11.24,11.24,0,0,0,1.06,1.05.25.25,0,0,1,.14-.06l1.34-.12c.16,0,.92,0,.89-.3a3.89,3.89,0,0,0-.11-.48c-.08-.36-.16-.87.15-1.15a.79.79,0,0,1,1-.11c.12.08,1,.8.91.08a1.27,1.27,0,0,1,0-.6,1,1,0,0,1,.91-.7c.21,0,.94.3,1-.12a1.85,1.85,0,0,1,.1-.6c.15-.38.57-.41.92-.36.51.07,1,.16,1.54.24Zm1.7-1.71a1.75,1.75,0,0,1-.25,1.77c-.45.48-1.17.52-1.61,1a.37.37,0,0,1-.36.12.47.47,0,0,0,.13.76,3.64,3.64,0,0,0,.59.18,1.35,1.35,0,0,1,.83.5c.43.71,0,1.32-.61,1.73,0,.48.49.89.43,1.39A1.28,1.28,0,0,1,58,42l-4.28,1.86v0l-1.23,1.61a3,3,0,0,1-1.05,1.1.85.85,0,0,1-1.1-.42L39.52,52.54a.43.43,0,0,1-.17.06.44.44,0,0,1-.4.15,149.88,149.88,0,0,1-19.21-3.9.42.42,0,0,1-.31-.4q0-1.16,0-2.32a1.84,1.84,0,0,1-1.67-1.41A1.27,1.27,0,0,1,19,43.2,1.94,1.94,0,0,1,19,41.8c.14-.32-.73-.49-1-.58a2.19,2.19,0,0,1-.77-.42.8.8,0,0,1,.31-1.24,8.29,8.29,0,0,1,2.2-.53,3.29,3.29,0,0,1,.08-2.77.37.37,0,0,1,.07-.47,39.77,39.77,0,0,1,16-9.27.33.33,0,0,1,.27-.19,31.79,31.79,0,0,1,19.65,3.17A.37.37,0,0,1,56,30h0a2.39,2.39,0,0,1,.66,2,.22.22,0,0,1,.32.13,2.43,2.43,0,0,1,2.68,1.34Zm-7.5,7.68c0,.3-.49.3-.48,0v0l-3.56,2.19-.72.44a4.51,4.51,0,0,1,2.37,0,1.79,1.79,0,0,1,1.1,1.13.43.43,0,0,1,.29.75.42.42,0,0,1,0,.08l0,0c.09-.1.17-.2.24-.3l.49-.65.68-.89a.24.24,0,0,1,0-.09L53,42.15a.73.73,0,0,0,0-.55.25.25,0,0,1-.14-.14l-.32-.11c-.09,0-.39,0-.39-.18ZM32.07,46.35a.21.21,0,0,1-.11,0q1.32.15,2.64.26h.14a20.9,20.9,0,0,0,5,0c-.38-.18-.47-.58-.6-1s-.18-.65-.6-.37l-.53.37-1.16.82c-.18.13-.4-.08-.35-.27.18-.64-.7-.6-1-.39a3.93,3.93,0,0,0-.62.61.21.21,0,0,1-.16.07.24.24,0,0,1-.24-.18c-.26-1.32-1.83-.42-2.45,0Zm-.18,0a.29.29,0,0,1-.17-.3l.12-.85-2.9.34c-.26,0-.3-.33-.12-.45,0-.31-.2-.4-.5-.28l-.4.09-.69.16-1.37.32q1.81.39,3.64.65c.8.12,1.6.22,2.4.31Zm-4.07,1.37c0-.11.09-.28.23-.16h0c0-.12.1-.1.15-.13a5.54,5.54,0,0,1,2.23-.78l-.84-.12c-1.41-.21-2.82-.46-4.21-.77l0,0c-.75.56-.16,1.95.16,2.61a7.48,7.48,0,0,0,.72,1.18l.71.17a2.58,2.58,0,0,1,.87-2Zm-8-4a46.35,46.35,0,0,0,5.47,1.57.22.22,0,0,1,0-.12,7.69,7.69,0,0,1,.47-1.24l-.82.47a.24.24,0,0,1-.36-.21l0-1.29c-.52.19-1,.39-1.56.55a.78.78,0,0,1-.92-.16c-.34-.39.12-1.27-.8-.75a7.76,7.76,0,0,0-1.33,1,.4.4,0,0,1-.12.22Zm-.28.13h-.13A.42.42,0,0,1,19,44c-.52-.09-.53.65-.27.91a1.4,1.4,0,0,0,1,.38.22.22,0,0,1,.26-.11,19.08,19.08,0,0,1,3.57,1.33c.28.14,0,.55-.24.41a18.64,18.64,0,0,0-3.09-1.19.57.57,0,0,1,0,.09.47.47,0,0,1,0,.13c0,.71,0,1.43,0,2.14q2.62.71,5.27,1.32a6.52,6.52,0,0,1-.82-1.75,2.2,2.2,0,0,1,.11-2,45.89,45.89,0,0,1-5.13-1.49.25.25,0,0,1-.15-.33Z"/><path class="cls-2" d="M49.06,33.24c.26-.16.5.25.24.41q-4.24,2.6-8.31,5.46c-.25.18-.49-.24-.24-.41q4.07-2.86,8.31-5.46Z"/><path class="cls-2" d="M45.18,46.15a.24.24,0,0,1,.24.41L43,47.95a.24.24,0,0,1-.24-.41l2.43-1.39Z"/><path class="cls-2" d="M41.19,47.9c.28-.14.52.27.24.42a8.69,8.69,0,0,1-5.05.89c-.3,0-.3-.52,0-.48a8.24,8.24,0,0,0,4.81-.82Z"/><path class="cls-2" d="M39,39.59c.29-.11.41.35.13.46a9.28,9.28,0,0,1-5.62.36.24.24,0,0,1,.13-.46A8.84,8.84,0,0,0,39,39.59Z"/><path class="cls-2" d="M30.55,39.42c.29.09.17.55-.13.46a82.3,82.3,0,0,0-8.94-2.27c-.3-.06-.17-.52.13-.46a82.34,82.34,0,0,1,8.94,2.27Z"/></g></g></svg>