<svg xmlns="http://www.w3.org/2000/svg" viewBox="0 0 75.93 75.93"><defs><style>.cls-1{fill:#d64627;}.cls-2{fill:#fff;}</style></defs><title>menu-brunch-oj</title><g id="Layer_2" data-name="Layer 2"><g id="Layer_1-2" data-name="Layer 1"><circle class="cls-1" cx="37.97" cy="37.97" r="37.97"/><path class="cls-2" d="M13.47,40.38,13.28,28.9v-.17a2.7,2.7,0,0,1,.47-1.93.86.86,0,0,1,.59-.21,4,4,0,0,1,3.14,1.3,4.89,4.89,0,0,1,1.13,3.34,6,6,0,0,1-.68,2.66,5.38,5.38,0,0,1-1.61,2.05,6.5,6.5,0,0,1,2.46,2.94,9.71,9.71,0,0,1,.74,3.74A4.94,4.94,0,0,1,19,44.76a9,9,0,0,1-1,1.74,4.21,4.21,0,0,1-1.36,1.09,3.92,3.92,0,0,1-1.85.44h-.11q-1.32,0-1.32-.7ZM15.21,28.2q-.4,0-.4,1t.06,3.19q.05,2.17.06,3.15a2,2,0,0,0,1.25-1.21,14.62,14.62,0,0,0,.7-1.7q.28-.82.36-1v-1A2.63,2.63,0,0,0,16.62,29,1.77,1.77,0,0,0,15.21,28.2Zm2.05,17.06a4.05,4.05,0,0,0,.8-2.48,11.64,11.64,0,0,0-.23-2.47,6.86,6.86,0,0,0-.52-1.61,4,4,0,0,0-.65-.93,2.17,2.17,0,0,0-.74-.57h-1q.14,3.9.14,9.36A3.27,3.27,0,0,0,17.26,45.26Z"/><path class="cls-2" d="M21.28,47l.11-16.56V26.93a.65.65,0,0,1,.14-.47,1.17,1.17,0,0,1,.72-.14,2.77,2.77,0,0,1,1.19.28,3.08,3.08,0,0,1,1,.75,5.59,5.59,0,0,1,.69,1.1A5.92,5.92,0,0,1,25.69,31,8.89,8.89,0,0,1,25,34.17l-.33.81-.29.73a19.63,19.63,0,0,0,1.06,5.45q.36,1.13,1,3.1t.83,2.49v.07q0,1-.22,1.11a.79.79,0,0,1-.47.16q-.52,0-1-.76v-.1a35.38,35.38,0,0,0-1.77-7.76q-.74-2.37-1-3.52V47.08a1.22,1.22,0,0,1-.15.66.61.61,0,0,1-.55.23.75.75,0,0,1-.6-.23.81.81,0,0,1-.2-.56Zm1.56-19.35-.15,5.76q0,.87,0,1.3a8.1,8.1,0,0,0,1-1.09l.44-2.44a2.11,2.11,0,0,0,0-.44,6.14,6.14,0,0,0-.28-1.64Q23.48,27.74,22.83,27.62Z"/><path class="cls-2" d="M27.92,32.42l0-4.41a.84.84,0,0,1-.21-.58.87.87,0,0,1,.24-.61.76.76,0,0,1,.57-.26q1,0,1,2l.26,9.82a5.94,5.94,0,0,1,.28,1.5q.12,1.13.12,1.76a7.47,7.47,0,0,0,.2,1.54A13.43,13.43,0,0,0,31,45a4.94,4.94,0,0,0,1,1.6,1.64,1.64,0,0,0,1.14.66,1.1,1.1,0,0,0,.8-.26,1.36,1.36,0,0,0,.36-.72,7.79,7.79,0,0,0,.15-1.56V39.26q0-.9-.18-2.66T34,33.94v-.19L34,32.1l-.21-4.84a.64.64,0,0,1,.34-.56,1.35,1.35,0,0,1,.72-.21l.69.66v.47l-.21,1.72q0,2.36.26,7.1t.25,6.42q0,1.68,0,2.23a7.2,7.2,0,0,1-.21,1.19,3.25,3.25,0,0,1-.45,1,2.35,2.35,0,0,1-2.07,1,3.19,3.19,0,0,1-2.77-1.5A10.12,10.12,0,0,1,28.72,43a33.69,33.69,0,0,1-.63-4.62Q27.92,35.36,27.92,32.42Z"/><path class="cls-2" d="M37.77,33,38,27.81v-.18q0-1.41.62-1.41t1.52,2.62a138.33,138.33,0,0,1,4.16,15.71l0,.14.11-9.84V26.49a.85.85,0,0,1,.92-.7q.76,0,.76,1.1v.17a1.9,1.9,0,0,0-.17.83l-.18,10.44V47a1.69,1.69,0,0,1-.23.84.68.68,0,0,1-.58.41q-.59,0-2.32-5.81T39.2,29.9v9.27q0,1.35.2,4t.2,4a.5.5,0,0,1-.32.43,1.67,1.67,0,0,1-.81.17c-.33,0-.49-.15-.49-.44l.14-2q0-1.46-.18-4.74t-.18-4Z"/><path class="cls-2" d="M49.43,34l-.25,2v.68A40.52,40.52,0,0,0,49.33,41q.15,1.06.3,1.9A7.23,7.23,0,0,0,50,44.35a7.07,7.07,0,0,0,.57,1.12,2.06,2.06,0,0,0,1.83,1,2.26,2.26,0,0,0,1.2-.5,2.24,2.24,0,0,1,1.09-.5,1.19,1.19,0,0,1,.8.43,2.11,2.11,0,0,1-1.61,2,5.06,5.06,0,0,1-1.74.29,3.16,3.16,0,0,1-1.6-.38,3.53,3.53,0,0,1-1.1-1,5.93,5.93,0,0,1-.77-1.54,14.47,14.47,0,0,1-.52-1.86q-.17-.94-.28-2.15-.17-2-.18-4.47l0-3.38a14.14,14.14,0,0,1,.19-2.61,4.93,4.93,0,0,1-.08-.88,3.34,3.34,0,0,1,1.3-2.76,5,5,0,0,1,3.2-1,2.6,2.6,0,0,1,1.32.38,1.13,1.13,0,0,1,.65,1,.54.54,0,0,1-.23.47,1.42,1.42,0,0,1-.79.17.82.82,0,0,1-.77-.34h-.39v-.07a2.36,2.36,0,0,0-2.23,1,6.8,6.8,0,0,0-.55,3.23Z"/><path class="cls-2" d="M62,48.22q-.72,0-.72-.94,0-5.38-.25-10a8,8,0,0,0-1.42-.14,3,3,0,0,0-1.19.22q0,1.57.23,4.76T58.92,47a.87.87,0,0,1-.17.51.51.51,0,0,1-.44.23q-.77,0-1.13-4.84Q56.7,36.31,56.7,27c0-.34.16-.51.48-.51a1.32,1.32,0,0,1,.57.15,1.13,1.13,0,0,1,.43.31q-.1,1-.1,2.12l.19,5.8,0,1.06a4.42,4.42,0,0,0,.06.73L61,36.43l-.11-9.27v-.74a1.16,1.16,0,0,1,1.28,1,16.72,16.72,0,0,1,.1,2.39q0,1.92.27,8.13t.27,9.3a1.17,1.17,0,0,1-.23.7A.71.71,0,0,1,62,48.22Z"/></g></g></svg>