<svg xmlns="http://www.w3.org/2000/svg" viewBox="0 0 75.93 75.93"><defs><style>.cls-1{fill:#1f3238;}.cls-2{fill:#fff;}</style></defs><title>menu-desserts-icon</title><g id="Layer_2" data-name="Layer 2"><g id="Layer_1-2" data-name="Layer 1"><circle class="cls-1" cx="37.97" cy="37.97" r="37.97"/><path class="cls-2" d="M48.39,35.94l-.1,0,.1-.15s0,.08,0,.12Z"/><path class="cls-2" d="M24.27,32.55a4.45,4.45,0,0,1,.52-.21l-.15.29c-.22,0-.4,0-.38-.06v0Z"/><path class="cls-2" d="M52.51,46a10.92,10.92,0,0,1-2.37.43l-2.82.29L45,46.88l-3.07.22c-3.63.24-7.26.37-10.89.43q-2.73,0-5.45,0c-1.76,0-3.53,0-5.27-.13a8,8,0,0,1-1.59-.31h0a3.87,3.87,0,0,1-1-.46l0-.11a.39.39,0,0,0-.38-.26,1.51,1.51,0,0,1-.07-1.77C18,43,19.92,42.7,21.4,42.1a3.22,3.22,0,0,1,.07.41h0a3.64,3.64,0,0,0,.38,1h0a1.09,1.09,0,0,0-.36.31l-.06.1-.06,0a1,1,0,0,0-1.07.5,1.21,1.21,0,0,0,.33,1.4,2.69,2.69,0,0,0,1.66.6,25,25,0,0,0,2.77.17c3.61.06,7.23-.27,10.83-.47s7.11-.36,10.66-.59a12.82,12.82,0,0,0,3-.48,6.34,6.34,0,0,0,1.25-.54,1.54,1.54,0,0,0,.82-1.16.68.68,0,0,0,0-.21,1,1,0,0,0-.75-.75.49.49,0,0,0-.19,0,2.8,2.8,0,0,0,.19-.39.31.31,0,0,0-.13-.4c0-.49,0-1,0-1.47a7.8,7.8,0,0,1,1.37.44,4.8,4.8,0,0,1,2.31,1.91c.92,1.57-.49,3-1.9,3.47Zm.4.9a3.59,3.59,0,0,1-2,.91c-1.72.3-3.47.49-5.21.67l-2,.19q-4.1.35-8.21.39-2.49,0-5-.07a40.06,40.06,0,0,0-5.16,0,16.6,16.6,0,0,1-4.65,0,1.71,1.71,0,0,1-.61-.16,4,4,0,0,1-1.53-.83,2.72,2.72,0,0,1,.65.16h0a4.29,4.29,0,0,1,.57.07,37.65,37.65,0,0,0,5.13.18c6.44,0,12.88-.15,19.31-.64l2.47-.21c1.7-.15,3.43-.27,5.12-.57a6.16,6.16,0,0,0,1.46-.44c-.11.13-.22.25-.34.37Zm-7.21,3-2.43,0h-.21L37.79,50l-2.5,0-2.78,0H29.88c-.32,0-2.46.2-2.38-.35a.39.39,0,0,0,0-.08c.49,0,1,0,1.47,0,1.81.09,3.61.14,5.42.14h.89q4.07,0,8.12-.37l1.82-.16c.82-.08,1.63-.17,2.45-.27,0,.94-1.3.9-2,.91ZM21.23,34.3h0a.4.4,0,0,0-.38-.37.64.64,0,0,1,.2-.71,4.11,4.11,0,0,1,.89-.61l1.23-.74q1.81-1.07,3.66-2.08,2.66-1.45,5.38-2.78,2.38-1.15,4.82-2.2a.18.18,0,0,0,.07.06,18.5,18.5,0,0,1,3.39,2.28,8.85,8.85,0,0,1,1.39,1.56c.32.46-.36.44-.61.44A7.15,7.15,0,0,1,40.09,29a27.44,27.44,0,0,1-3.83-1.14,8.56,8.56,0,0,0-3.77-.59c-1.24.19,0,2,.21,2.48.15.31.45,1.16-.35,1a7.87,7.87,0,0,1-1-.44,7.84,7.84,0,0,0-2-.49,1.66,1.66,0,0,0-1.4.42c-.43.41-.15.94-.23,1.44s-.89.07-1.07,0a4.6,4.6,0,0,0-1,0,3.86,3.86,0,0,0-.61.09,4.92,4.92,0,0,0-1.22.46.19.19,0,0,0-.09.26.47.47,0,0,0,.37.58l.24,0a18.65,18.65,0,0,0,2,0c.95,0,2.69.22,2.75-1.14,0-.86.56-.65,1.1-.43a5.85,5.85,0,0,0,1.08.32,5.27,5.27,0,0,0,2.17-.05c1.32-.3.64-2,.3-2.93a6.54,6.54,0,0,1,.9.29l1.35.48a22.14,22.14,0,0,0,2.74.78,9.55,9.55,0,0,0,2.64.18,5.32,5.32,0,0,0,.85-.13,2.28,2.28,0,0,0,1-.49c1.12-1-.49-2.6-1.12-3.32a7.89,7.89,0,0,0-3.41-2.52L39,24l.46-.19.09-.05a1.7,1.7,0,0,0,1.77.66,2.27,2.27,0,0,0,2.14,1h0l0,.08a3.55,3.55,0,0,0,2.45,1.82,3.09,3.09,0,0,0,.66.06,3.45,3.45,0,0,0,1.62,1h0a2.61,2.61,0,0,0,.18.33.38.38,0,0,0,0,.16h0c0,.05,0,.1,0,.15l-4.58,1.17-1.5.38c-4.93,1.24-9.89,2.4-14.9,3.22-1.1.18-2.22.38-3.33.53-.64.08-1.28.15-1.92.18a1.82,1.82,0,0,1-.93-.23Zm16.94-10a.2.2,0,0,0,.14.12,6.88,6.88,0,0,1,3.27,2.23,12.15,12.15,0,0,1,1.29,1.59,1.25,1.25,0,0,1,.2,1.19c-.16.36-.63.49-1,.57a9.24,9.24,0,0,1-4.58-.4c-.72-.21-1.43-.46-2.14-.71a6,6,0,0,0-1.91-.54.22.22,0,0,0-.21.28l.46,1.54a1.68,1.68,0,0,1,.09.82c-.07.37-.73.43-1.12.46h-.18a5,5,0,0,1-1.8-.25c-.41-.13-.83-.43-1.28-.36a.76.76,0,0,0-.7.54,2.87,2.87,0,0,0,0,.54c0,.49-.4.6-.79.65l-.38,0c-.44,0-.9,0-1.34,0l-.83,0-.71,0c-.22,0-.4,0-.38-.06v0a4.45,4.45,0,0,1,.52-.21,4.32,4.32,0,0,1,1.66-.21c.31,0,.7.19,1.05.19a.67.67,0,0,0,.5-.19c.51-.51-.15-1.28.47-1.73s1.92,0,2.59.25a4.29,4.29,0,0,0,1.61.55h.13c.4-.07.56-.56.52-.9a6.24,6.24,0,0,0-.75-1.79c-.1-.2-.4-.64,0-.78a2,2,0,0,1,.6,0,7.76,7.76,0,0,1,1.19.14,40,40,0,0,1,4.18,1.27,12.23,12.23,0,0,0,2,.43,2.71,2.71,0,0,0,1.71-.12c.82-.57-1.1-2.25-1.47-2.58a17,17,0,0,0-3.29-2.24l.65-.27Zm1.49-2.46c.43-.88,1.87-1.78,2.61-.94l-.07,0a2.63,2.63,0,0,0-.82.87v0a.33.33,0,0,0-.18.17A2.4,2.4,0,0,0,41,23.66,1,1,0,0,1,40,23a.35.35,0,0,0-.19-.17.74.74,0,0,1-.11-1Zm3.82-.54a1.79,1.79,0,0,1,1.34.53l.22.21a3,3,0,0,0-.85.5.38.38,0,0,0-.17.05,2,2,0,0,0-.77,2.06,1.55,1.55,0,0,1-1.4-2.26v0a.36.36,0,0,0,.18-.16,1.81,1.81,0,0,1,.5-.55,1.85,1.85,0,0,1,.94-.35Zm2.29,1.39a1.78,1.78,0,0,1,.94.24,2.65,2.65,0,0,1,.77.66,1.59,1.59,0,0,0-.9.92,3.22,3.22,0,0,0-.31,2.1,3,3,0,0,1-2-1.36A2,2,0,0,1,44,23.78a.38.38,0,0,0,.31-.26l0-.1a2.07,2.07,0,0,1,1.38-.73Zm1.78,1.76a1.56,1.56,0,0,1,.87-.25,1.86,1.86,0,0,1,.88.27,2.12,2.12,0,0,1,.37.27A2.74,2.74,0,0,0,48,27.49a1.63,1.63,0,0,1-1-.95,2,2,0,0,1,0-1.19,3,3,0,0,1,.18-.46l0,0,0,0a.61.61,0,0,1,.08-.15.34.34,0,0,0,.18-.18ZM39,42.48q-5.44.38-10.88.61c-1.64.07-3.3.07-4.94.17l-.35,0-.22,0a.35.35,0,0,0-.06-.16,4.73,4.73,0,0,1-.47-2c0-.22-.06-.44-.1-.66h0c.35,0,.69.07,1,.09a44,44,0,0,0,6.07-.3c2.36-.2,4.71-.44,7.08-.49a31.76,31.76,0,0,0,3.35-.2c1.15-.15,2.29-.37,3.43-.56l1.6-.27c.54-.09,1.08-.19,1.61-.31a16.12,16.12,0,0,0,2.23-.65c0,.61,0,1.22-.07,1.83-.07.91-.73,1.33-1.53,1.6a18,18,0,0,1-2.57.64,42.58,42.58,0,0,1-4.87.54l-.4,0Zm-17-3,1.15,0c1.87,0,3.74-.09,5.6-.2,2.29-.13,4.6-.17,6.88-.42,1.11-.12,2.16-.47,3.28-.51A15.41,15.41,0,0,0,42,38l3-.73,2.94-.71.51-.12c0,.33,0,.65,0,1a13.55,13.55,0,0,1-1.67.54c-.66.17-1.33.31-2,.42l-2.09.35c-1.18.2-2.35.42-3.54.57s-2.22.13-3.34.15c-2.3.06-4.59.3-6.88.5a42.91,42.91,0,0,1-5.84.28c-.35,0-.71,0-1.05-.09h-.1l-.09-.69a.22.22,0,0,0,.14.06Zm1.24-1.13c.46,0,.92,0,1.38-.06l3.56-.22c2.38-.16,4.76-.34,7.13-.58A91.48,91.48,0,0,0,45,36q1.69-.36,3.37-.81c0,.22,0,.43,0,.65,0,0,0,.08,0,.12l-.1,0-3.3.8-2.94.71a15.41,15.41,0,0,1-3.22.47c-1.12,0-2.17.37-3.28.51-2.2.27-4.45.29-6.66.41-1.93.11-3.86.25-5.79.21l-1.18,0a.18.18,0,0,0-.18.08l-.05-.38c0-.17,0-.34-.06-.51a7.74,7.74,0,0,0,1.54.11Zm25.2-3.63q-1.68.46-3.38.82A91.65,91.65,0,0,1,35.24,37c-2.23.23-4.47.4-6.71.56l-3.36.21c-.65,0-1.31.1-2,.11a7.28,7.28,0,0,1-1.63-.14q-.15-1.29-.27-2.59a3.52,3.52,0,0,0,1.21.08c.34,0,.67-.06,1-.11l1.57-.22c3.51-.49,7-1.15,10.44-1.95q4.27-1,8.53-2.06l4.33-1.09q0,2.26,0,4.51v.36Zm2.72,9a1.67,1.67,0,0,1-.79.63,7.1,7.1,0,0,1-1.92.59,29,29,0,0,1-3.84.32l-3.31.18-4.91.27c-2.76.15-5.52.31-8.28.43-1.35.06-2.7.09-4.06,0l-1.08-.07L22,46a2,2,0,0,1-1-.43c-.38-.32-.46-1.32.31-1.17h0a1.15,1.15,0,0,0,.33,1,2,2,0,0,0,1.31.54,12.5,12.5,0,0,0,1.88-.1l4.29-.32c2.8-.2,5.6-.3,8.41-.25,1.24,0,2.47,0,3.7-.06a40.82,40.82,0,0,0,4.5-.48c1.57-.26,3.64-.53,4.69-1.84a.19.19,0,0,0,.22.06c.51-.16.61.49.46.81Zm.74-17.93s0,0,0,0h0c.05,0,.1,0,.15.09a2.73,2.73,0,0,1,.89,2.29,1.41,1.41,0,0,1-.53,1c-.4.3-1,.21-1.38.45a2.18,2.18,0,0,0-.93,2s0,0,0,0c0,.45,0,.91,0,1.36,0,.66,0,1.33,0,2q-.05,3.56,0,7.13v0c-.62,1.05-2.11,1.34-3.21,1.56a39,39,0,0,1-5.37.7c-1.8.11-3.61,0-5.41,0-1.37,0-2.74,0-4.11.1l-1.27.07c-1.79.11-3.58.26-5.36.39-.56,0-1.16.13-1.74.14a4.84,4.84,0,0,1-.81,0c-.34-.05-1-.49-.49-.82a1.85,1.85,0,0,1,1.05-.17h0c3.63-.11,7.26-.29,10.89-.5l1.1-.08c2-.12,4-.25,6-.42a19.89,19.89,0,0,0,6.48-1.34,2.33,2.33,0,0,0,1.35-1.88,16.81,16.81,0,0,0,.07-2.32l.05,0c.2-.09.11-.34-.06-.39,0-.26,0-.53,0-.79,0-.57,0-1.13,0-1.7q0-2.87,0-5.73a.37.37,0,0,0,0-.18.33.33,0,0,0,0-.36,1.38,1.38,0,0,1-.27-.7h0a2,2,0,0,1,.55-1.82,1.93,1.93,0,0,1,2.44-.09Zm2.7,15.6a6.77,6.77,0,0,0-3.8-2q0-2.84,0-5.68c0-.7,0-1.4.05-2.1s.19-1.23.94-1.4a2.14,2.14,0,0,0,1.84-1.65,3.27,3.27,0,0,0-2.91-4h-.14a2.89,2.89,0,0,0-2.22-1.12h0a3.11,3.11,0,0,0-2.51-1.51.37.37,0,0,0-.1-.3,2.84,2.84,0,0,0-2.37-1.08l-.33.05c-1.46-2.28-5.37.89-4,2.53a117.35,117.35,0,0,0-17.92,9.09,2.08,2.08,0,0,0-1,1.24,1.4,1.4,0,0,0,.45,1.28q.2,2.22.49,4.43.14,1.07.3,2.14c-1.35.62-2.87.86-4,1.88a2.87,2.87,0,0,0-.88,3.24,2.11,2.11,0,0,0,.75.89c1.21,2.26,4.09,2.69,6.47,2.54.86-.06,1.71-.17,2.57-.23l.56,0a1.13,1.13,0,0,0,1.09,1.17,25.86,25.86,0,0,0,3.13,0l6.6,0,6.6-.07c1.32,0,4.36.34,4.29-1.76v0l2.05-.28a7.13,7.13,0,0,0,2.06-.54,4.32,4.32,0,0,0,1.51-1.37c.24-.32.46-.66.68-1a.34.34,0,0,0,0-.35,3.44,3.44,0,0,0,.37-.54,3,3,0,0,0-.62-3.46Z"/><path class="cls-2" d="M20,48.73l.09,0h0l-.1,0Z"/><path class="cls-2" d="M20,48.73l-.27-.17.27.17Z"/></g></g></svg>