<svg xmlns="http://www.w3.org/2000/svg" viewBox="0 0 75.93 75.93"><defs><style>.cls-1{fill:#1f3238;}.cls-2{fill:#fff;}</style></defs><title>menu-cocktails-icon</title><g id="Layer_2" data-name="Layer 2"><g id="Layer_1-2" data-name="Layer 1"><circle class="cls-1" cx="37.97" cy="37.97" r="37.97"/><path class="cls-2" d="M36.12,53.55a3.85,3.85,0,0,1,.73-.22,1.27,1.27,0,0,0-.66,1.41l-.08,0c-.31-.07-.75-.37-.57-.76a1.07,1.07,0,0,1,.58-.42Z"/><path class="cls-2" d="M44.63,46a6.53,6.53,0,0,1-3.4,2.42c-1.46.52-1.8,2-1.78,3.37a5.92,5.92,0,0,0,.36,1.87c.17.47.92.27.75-.21-.05-.15-.1-.3-.13-.45a3.77,3.77,0,0,1,1.23.12c.35.09,1.59.59.9,1a6.58,6.58,0,0,1-3.26.71,12.94,12.94,0,0,1-3.11-.18l-.08,0c-.31-.07-.75-.37-.57-.76a1.07,1.07,0,0,1,.58-.42,3.85,3.85,0,0,1,.73-.22,4.92,4.92,0,0,1,.8-.09c0,.18,0,.36-.07.54-.08.49.68.7.75.21A8.36,8.36,0,0,0,38,49.22a3.2,3.2,0,0,0-1.42-1.16,14.23,14.23,0,0,1-2.18-1.42,8.17,8.17,0,0,1-2.65-6.9A11.07,11.07,0,0,1,32,38a18.38,18.38,0,0,1,2-4.66,5.67,5.67,0,0,0,.78-4.12,3.28,3.28,0,0,0-1.07-1.59c-.49-.44-1.62-1.4-.67-2a1.65,1.65,0,0,1,.58-.2c-.36,1.14.83,2.24,1.38,3.14,1,1.61.29,3.47-.5,5a13.79,13.79,0,0,0-1.62,4,.28.28,0,0,0,0,.11h0a2,2,0,0,1,0,.21,13.41,13.41,0,0,0,0,2.6,12.49,12.49,0,0,0,.4,2.3c.71,2.55,3.16,5.11,5.95,5a8.28,8.28,0,0,0,4.28-1.34,5.21,5.21,0,0,0,1.9-3.21,14.67,14.67,0,0,0,.33-3.13c0-.59,0-1.17,0-1.75a14.26,14.26,0,0,0-1.06-5c-.69-1.59-1.83-3.47-.85-5.18.36-.63,1-1,1.32-1.72a1.73,1.73,0,0,0,.11-1,1.67,1.67,0,0,1,.74.38c.69.64-.6,1.43-1,1.82a3.48,3.48,0,0,0-.92,1.67,3.31,3.31,0,0,0,.41,2.06,24.66,24.66,0,0,1,1.43,5.16,22.12,22.12,0,0,1,.4,3.06A10,10,0,0,1,44.63,46ZM33.12,23.56a10.18,10.18,0,0,0,.39-1.46l.77,1a4.63,4.63,0,0,1-.38,1.38l-.78-.93ZM31.92,22a7.27,7.27,0,0,0,.39-1.5l.66.87.17.22a10.44,10.44,0,0,1-.36,1.53q-.44-.55-.86-1.12Zm-.36-.49L31,20.75a8.66,8.66,0,0,0,.37-1.46l.26.34.29.39a6.82,6.82,0,0,1-.33,1.58l0-.06Zm-.86-1.27a2.06,2.06,0,0,1-.29-.46h0v.05a6,6,0,0,0-.53-.86s0,0,0-.06l.38-.21.35-.2c.26-.15.26,0,.43.21l0,0,0,0a.16.16,0,0,0,0,.06,7.91,7.91,0,0,1-.3,1.39Zm3.95,3.34.75,1-1.08.05a5.06,5.06,0,0,0,.33-1ZM45,38a.85.85,0,0,1-.54.19A5.48,5.48,0,0,1,43.25,38a1.59,1.59,0,0,0-1,.14,1.72,1.72,0,0,1-1.57.24,3,3,0,0,0-1.46-.27c-1.13.14-2.12,1-3.3.48a8.81,8.81,0,0,0-1-.54,2,2,0,0,0-.79.08c-.39.08-.76.1-.82-.35a9.7,9.7,0,0,1,1-2.87c.24-.47.49-.93.73-1.4a2,2,0,0,0,.28.68,1.24,1.24,0,0,0,.86.54.92.92,0,0,0,.88-.35c.25-.31.2-.87.47-1.16.64.54,1.33.36,1.54-.55.06-.23.06-.47.11-.69a.41.41,0,0,1,.76-.17,1.49,1.49,0,0,1,.2.51,2.39,2.39,0,0,0,.63,1.39,1,1,0,0,0,1,.17.68.68,0,0,0,.35-.29c.13-.28.11-.82.65-.55a.72.72,0,0,1,.24.19c.24.3.31.75.73.91a.58.58,0,0,0,.58-.1A14.48,14.48,0,0,1,45.11,38,.22.22,0,0,0,45,38ZM45,39.8a1.4,1.4,0,0,1-.4.16,3.68,3.68,0,0,1-1.1-.06,7.24,7.24,0,0,0-1.42.22,3.52,3.52,0,0,1-1.61-.29,1.93,1.93,0,0,0-1.31,0,3.22,3.22,0,0,1-1.55.32,12.66,12.66,0,0,1-1.32-.4,2.62,2.62,0,0,0-1.21,0,5.71,5.71,0,0,1-1.2.22,1,1,0,0,1-.65-.24l-.09,0q0-.59,0-1.16v-.1l.17.11a.83.83,0,0,0,.48.06l.16,0a1.38,1.38,0,0,1,1.12,0,3,3,0,0,0,1.33.56,4.51,4.51,0,0,0,1.85-.36,2.58,2.58,0,0,1,2.05-.1,1.77,1.77,0,0,0,1.48.09,5.89,5.89,0,0,1,.86-.4,3,3,0,0,1,1.29.2,1.76,1.76,0,0,0,.48,0,1.34,1.34,0,0,0,.65-.22v0c0,.44,0,.88,0,1.32a.2.2,0,0,0-.16,0Zm0,2.17c0,.42-.11.83-.2,1.23a4.63,4.63,0,0,1-2.75,3.53,6.07,6.07,0,0,1-5.2.15,7.1,7.1,0,0,1-3.5-5.07,1.38,1.38,0,0,0,.73.21,3.2,3.2,0,0,0,.62,0,4.24,4.24,0,0,1,2-.15,7.71,7.71,0,0,0,1.66.46c1.21.07,2.19-.83,3.42-.53a9.48,9.48,0,0,0,1.41.38,2.2,2.2,0,0,0,.72-.06c.21-.06.37-.15.54-.19a.7.7,0,0,1,.55.08Zm-.49-.55a1.34,1.34,0,0,0-.3.06,4.41,4.41,0,0,1-.69.23,2.34,2.34,0,0,1-.94-.17,5.42,5.42,0,0,0-1.43-.32,4.34,4.34,0,0,0-1.45.33,3.45,3.45,0,0,1-1.64.26c-.55-.08-1.05-.39-1.6-.5a3.35,3.35,0,0,0-1.48.15,3.13,3.13,0,0,1-1,.13.72.72,0,0,1-.64-.45.24.24,0,0,0-.12-.13c0-.11,0-.22,0-.33s0-.29,0-.44a1.49,1.49,0,0,0,.71.18c.59,0,1.22-.25,1.83-.28a5.56,5.56,0,0,1,1.6.42,2.39,2.39,0,0,0,1.46-.1,2.29,2.29,0,0,1,1.74-.15,3.76,3.76,0,0,0,1.74.22,3.64,3.64,0,0,0,.6-.13,2.15,2.15,0,0,1,1.09,0,1.57,1.57,0,0,0,.64,0,2.09,2.09,0,0,0,.55-.21s0,.1,0,.15c0,.38,0,.76-.06,1.14a1.17,1.17,0,0,0-.53-.08ZM38,25.26c1.82-.06,3.64-.05,5.45.06l.94,0,.21,0c.41.71-.38,1.52-.84,2a3.28,3.28,0,0,0-.89,1.8c-.22,1.45.52,2.81,1.09,4.08l.1.22a.21.21,0,0,0,0,.09c-.09.41-.53-.3-.59-.41a1.25,1.25,0,0,0-.35-.46,1.81,1.81,0,0,0-.35-.2.63.63,0,0,0-.61,0c-.32.23-.24.68-.52.9s-.64-.13-.77-.33a2.91,2.91,0,0,1-.28-.92c-.12-.51-.68-1.48-1.35-1a1.23,1.23,0,0,0-.5.83c-.05.22-.06.46-.11.68-.13.55-.6.42-.91.09a.22.22,0,0,0-.27,0c-.41.23-.48.66-.6,1.08s-.64.6-1,.27a.89.89,0,0,1-.27-.39,3.19,3.19,0,0,1-.14-.94h0a8.29,8.29,0,0,0,.38-1.11,4.35,4.35,0,0,0-.22-2.92c-.41-.91-2-2.2-1.44-3.28h0c.29,0,.58,0,.84,0h.25L38,25.26ZM36,21.6l-.2-.31A4.66,4.66,0,0,0,36.25,20l.46.77v0q-.21.57-.46,1.11L36,21.6Zm-1.12-1.8.55-1.06.19.32.22.38a.17.17,0,0,0,0,.05,4.23,4.23,0,0,1-.33,1.35q-.32-.51-.63-1Zm-.69-1.2a5.66,5.66,0,0,0,.33-.59,2.81,2.81,0,0,0,.17-.51l.15.26.32.53-.54,1.06-.43-.75ZM34.06,18l-.07.14-.13-.24-.15-.27c-.13-.25-.46-.57-.09-.7a4.49,4.49,0,0,1,.64-.22l.13.19a.22.22,0,0,0,0,.08,2.81,2.81,0,0,1-.14.63,3,3,0,0,1-.16.4Zm3.11,3.57a1,1,0,0,0-.29.51,1.18,1.18,0,0,0,0,.6l-.1,0-.23-.35c.17-.34.32-.7.46-1.05l.16.26Zm.35,1.82a1,1,0,0,0,.6,0c.46-.11.31-.72-.1-.77l-.34,0c-.11-.13.05-.47.19-.57a.63.63,0,0,1,.52,0,.83.83,0,0,0,.4.16.45.45,0,0,0,.47-.27.32.32,0,0,0-.17-.44l-.09,0,.16-.25a.76.76,0,0,1,.37-.13,1.94,1.94,0,0,1,.73.17,1.82,1.82,0,0,0,1.19-.07,1.69,1.69,0,0,0,1-1.07,2,2,0,0,0,.42.35l.11.07.51.27c.44.25.94.6.56.75s-.26.94.21.75a1.09,1.09,0,0,0,.27-.14c.13.12.1.22-.09.3a.39.39,0,0,0-.17.46.34.34,0,0,0,.26.25,1,1,0,0,1,.72.59.58.58,0,0,1-.21.89l-.07.06a24.64,24.64,0,0,0-2.56-.19c-1.36-.06-2.72-.05-4.08,0a.4.4,0,0,0-.34-.1c-.42.07-1.39.23-1.47-.43a.45.45,0,0,1,0-.12c0-.37.58-.43,1-.42ZM46.87,38.5l0-.16a35.11,35.11,0,0,0-1-5A18.35,18.35,0,0,0,45,31a2.28,2.28,0,0,1,.11-2.46c.65-1,2.33-1.66,1.42-3.06a1.63,1.63,0,0,0-.73-.59,1.12,1.12,0,0,0,.24-1.19,2.18,2.18,0,0,0-.8-1.1,1,1,0,0,0-.39-1.2,1.32,1.32,0,0,0-.35-.94,4.82,4.82,0,0,0-1.3-.74c-.41-.24-.47-.77-1-.85-.22,0-.53.1-.5.38a1,1,0,0,1-1.27,1.19A2.23,2.23,0,0,0,39,20.4a1.47,1.47,0,0,0-.75.87h-.35q-1.16-2-2.34-3.91c-.07-.11-.15-.28-.23-.45-.22-.43-.5-.93-.89-1A2.81,2.81,0,0,0,33,16.4a.75.75,0,0,0-.28,1c.18.39.39.78.61,1.17l.45.8c.55,1,1.13,1.91,1.74,2.84l.38.58,0,0a.23.23,0,0,0,.23.33,1.25,1.25,0,0,0-.33.64l-.78-1-2-2.61-1.51-2L31.38,18c-.48-.64-1-.27-1.57.06-.37.22-1.08.51-.78,1.07a14.78,14.78,0,0,0,1,1.61l.36.52c.85,1.22,1.76,2.39,2.72,3.53a2.38,2.38,0,0,0-.63.27,1.39,1.39,0,0,0-.61,1.37A2.75,2.75,0,0,0,33,28.07,2.82,2.82,0,0,1,34.1,30a4.75,4.75,0,0,1-.55,2.43,38.47,38.47,0,0,0-2,4.39,12,12,0,0,0-.44,1.9A11.18,11.18,0,0,0,31,41.59a8.59,8.59,0,0,0,4.68,6.86c.36.21.73.4,1.09.63a1.73,1.73,0,0,1,.78,1.27,8.89,8.89,0,0,1,.14,2.11c-1.21,0-3.25.45-2.94,2,.14.72,1,1,1.62,1.11a21.71,21.71,0,0,0,2.92.14,10.13,10.13,0,0,0,2.58-.38c.57-.16,1.44-.43,1.66-1.06.56-1.57-2.16-2.07-3.26-2a5.83,5.83,0,0,1,0-1.26,3.09,3.09,0,0,1,.35-1.2,1.85,1.85,0,0,1,1.14-.73,6.92,6.92,0,0,0,3.19-2.19c1.94-2.35,2.25-5.47,1.92-8.4Z"/></g></g></svg>