<svg xmlns="http://www.w3.org/2000/svg" viewBox="0 0 75.93 75.93"><defs><style>.cls-1{fill:#1f3238;}.cls-2{fill:#fff;}</style></defs><title>menu-lunch</title><g id="Layer_2" data-name="Layer 2"><g id="Layer_1-2" data-name="Layer 1"><circle class="cls-1" cx="37.97" cy="37.97" r="37.97"/><path class="cls-2" d="M17.65,44.68a14.64,14.64,0,0,1-5.23.88,3,3,0,0,1-3-1.69,8.62,8.62,0,0,1-.58-3.62q0-1.56.24-4.66T9.35,31q0-.33-.05-1c0-.42-.05-.74-.05-1s0-.34,0-.53A.94.94,0,0,1,10,28.2q.88,0,.88,2.06,0,1.79-.33,5.36T10.26,41q0,3.4,2.27,3.4A7.74,7.74,0,0,0,14.65,44a7.74,7.74,0,0,1,2.13-.43.73.73,0,0,1,.64.36A1.42,1.42,0,0,1,17.65,44.68Z"/><path class="cls-2" d="M28.48,35.95A23.49,23.49,0,0,1,28,40.43a8.72,8.72,0,0,1-1.54,4.08,3.83,3.83,0,0,1-2.87,1.31,4.51,4.51,0,0,1-3-.91,5,5,0,0,1-1.64-3.22,28.73,28.73,0,0,1-.15-3.78q0-1.23.15-3.69t.15-3.66a2.05,2.05,0,0,0-.15-.64,2,2,0,0,1-.15-.62c0-.17.14-.34.42-.53a1.34,1.34,0,0,1,.69-.28,4.4,4.4,0,0,0,.86,0q.33.08.28.58-.18.71-.38,1.84-.48,4.66-.48,5.75v3.28a6.76,6.76,0,0,0,.65,3,2.59,2.59,0,0,0,2.38,1.66q2.63,0,3.56-5.07a43.38,43.38,0,0,0,.45-7.18l.05-1.06a7.71,7.71,0,0,0,0-1.11,2.85,2.85,0,0,0-.25-1,2.69,2.69,0,0,1-.2-.47,1.13,1.13,0,0,1,.19-.57.53.53,0,0,1,.44-.31,1.34,1.34,0,0,1,.67.24c.26.16.39.32.39.49Z"/><path class="cls-2" d="M41.81,28.3a.3.3,0,0,1-.23.33l-.48.2q-.35.2-.63,2.27a20.16,20.16,0,0,0-.23,2.62l-.08,7.64a7.44,7.44,0,0,1-.43,2.19q-.53,1.51-1.33,1.51-1.23,0-2.29-2.29a29.36,29.36,0,0,1-1.2-3.43q-.77-2.53-2.28-7.59-.28.05-.3.5-.05.68-.4,3.52a28.87,28.87,0,0,0-.28,3.52q0,4.05.5,4.68a2.26,2.26,0,0,1,.28.45.68.68,0,0,1-.37.53,1.21,1.21,0,0,1-.65.25q-1,0-1-3.3,0-.45,0-1.28t0-1.28A25.19,25.19,0,0,1,30.67,36,25.27,25.27,0,0,0,31,32.7V29.45a.61.61,0,0,0,0-.16.6.6,0,0,1,0-.16q0-.65,1.28-.65a1.58,1.58,0,0,1,1.46.65,4.24,4.24,0,0,1,.2,1.11L34,31.47a52.13,52.13,0,0,0,1.81,6.62q1.74,5.34,2.52,5.33t.65-2.7l-.08-7.56a10.71,10.71,0,0,1,.48-3Q40,28,41,28A1.47,1.47,0,0,1,41.81,28.3Z"/><path class="cls-2" d="M53.09,41.36a3.41,3.41,0,0,1-.23,1.06,4.53,4.53,0,0,1-2.14,2.47,6.34,6.34,0,0,1-3.22.86,4.86,4.86,0,0,1-4.43-2.42,9.4,9.4,0,0,1-1.26-5.11,16,16,0,0,1,.78-5,9.21,9.21,0,0,1,2.62-4.28,3.93,3.93,0,0,1,2.59-1.13,3.09,3.09,0,0,1,2.89,1.86,7.77,7.77,0,0,1,.75,3.6,10.8,10.8,0,0,1-.33,2.44Q50.7,37.48,50,37.48a.78.78,0,0,1-.75-.55l.48-.35q.65-.63.65-3.07a7.47,7.47,0,0,0-.55-2.84q-.7-1.76-1.94-1.76a3,3,0,0,0-2.06,1.18,8.91,8.91,0,0,0-1.38,2,15.07,15.07,0,0,0-1.28,6.57,8.1,8.1,0,0,0,.91,4.13,3.81,3.81,0,0,0,3.52,1.91A4.34,4.34,0,0,0,50,44a4.6,4.6,0,0,0,1.66-1.85,6.54,6.54,0,0,1,.43-1.06.59.59,0,0,1,.5-.33Q53.09,40.8,53.09,41.36Z"/><path class="cls-2" d="M66.81,29.33l-.43.33a1.22,1.22,0,0,0-.28.45q-.55,1.44-.65,7.9.91.2.91.6a1.06,1.06,0,0,1-.23.58l-.73.3a30.18,30.18,0,0,0,.25,3.25c0,.08.1.33.25.75a2.59,2.59,0,0,1,.18.7,1,1,0,0,1-.23.6.65.65,0,0,1-.53.3q-.68,0-.93-1,0-.12-.2-1.6T64,40.6a4.64,4.64,0,0,1,.08-.86,22.08,22.08,0,0,0-3.69.43l-3.64.73-.45.45q0,1,0,1.93a3.4,3.4,0,0,0,.5,1.91q-.1.33-.31.33a1.42,1.42,0,0,0-.5.11,1.34,1.34,0,0,1-.44.11q-.48,0-.6-1.87-.05-1.17-.08-2.34l-.18-.25h-.1a1.05,1.05,0,0,1-.6-.19.57.57,0,0,1-.28-.49A1.21,1.21,0,0,1,54,40q.23-.36.45-.37h.28l.13,0q0-1.1,0-4.41a19.38,19.38,0,0,1,.6-6,.94.94,0,0,1,.91-.68,1.34,1.34,0,0,1,.78.26.79.79,0,0,1,.38.67,2.41,2.41,0,0,1-.23.68q-.26.63-.28.73a28.4,28.4,0,0,0-.69,7.3q0,1.13.43,1.13.13,0,1.34-.25a25.37,25.37,0,0,1,3.64-.5,3.62,3.62,0,0,0,.77-.14,4.3,4.3,0,0,1,1.06-.14q.52,0,.49-.71L64,35.42a30.39,30.39,0,0,1,.2-4.28q.38-3.37,1.36-3.37a1.14,1.14,0,0,1,.91.53A2,2,0,0,1,66.81,29.33Z"/></g></g></svg>