<svg xmlns="http://www.w3.org/2000/svg" viewBox="0 0 75.93 75.93"><defs><style>.cls-1{fill:#d64627;}.cls-2{fill:#fff;}</style></defs><title>menu-tacobar-oj</title><g id="Layer_2" data-name="Layer 2"><g id="Layer_1-2" data-name="Layer 1"><circle class="cls-1" cx="37.97" cy="37.97" r="37.97"/><path class="cls-2" d="M14.63,42.66c-.08.08-.12.13-.12.16s0,.08.12.16l-.55,0a1.6,1.6,0,0,1-.57-.14,5.63,5.63,0,0,1-.49-.49,1.34,1.34,0,0,0,.61-.13.8.8,0,0,0,.36-.51V38.29a.44.44,0,0,0,0-.16s-.05,0-.13,0l-.23-.24a.31.31,0,0,1,0-.47l.23-.25a.13.13,0,0,0,.13-.07A.16.16,0,0,0,14,37V33.9a1,1,0,0,0-.3-.37,1,1,0,0,0-.38-.18,1.14,1.14,0,0,0-.41,0,1.6,1.6,0,0,0-.39.1.65.65,0,0,0-.23.22,2,2,0,0,0-.2.38,3.39,3.39,0,0,0-.15.44,1.59,1.59,0,0,0-.06.42,6,6,0,0,1-.5-.5,1.64,1.64,0,0,1-.14-.38,1.55,1.55,0,0,1,0-.25h.33l.16-.15c0-.08,0-.13,0-.14a.25.25,0,0,0-.14,0c-.08-.1-.16-.12-.24-.05l-.24.21v-.16a1.9,1.9,0,0,0-.34-.49,1.63,1.63,0,0,0-.46-.36h9.06a1.59,1.59,0,0,0-.5.36,1.8,1.8,0,0,0-.35.49v.16l-.23-.21c-.07-.06-.15,0-.23.05h-.09a.14.14,0,0,0-.09.15.14.14,0,0,1,.1,0l.05.05,0,.07h.3a2.31,2.31,0,0,1,0,.25,1.4,1.4,0,0,1-.13.38l-.24.26-.24.25a1.8,1.8,0,0,0-.05-.42A2.75,2.75,0,0,0,17.5,34a1.79,1.79,0,0,0-.21-.38.66.66,0,0,0-.25-.22,1.59,1.59,0,0,0-.38-.1,1,1,0,0,0-.38,0,.71.71,0,0,0-.33.18.74.74,0,0,0-.2.37.52.52,0,0,0-.14.33,3.12,3.12,0,0,0,0,.34v2.58c.16.09.25.17.27.25a.77.77,0,0,1,0,.47c0,.08-.12.16-.27.24V41a2.93,2.93,0,0,0,0,.33.51.51,0,0,0,.14.32.53.53,0,0,0,.23.51,1.2,1.2,0,0,0,.58.13q0,.27-.47.49a1.59,1.59,0,0,1-.56.14l-.43,0v-.31h-.48Z"/><path class="cls-2" d="M22.41,39.62A1.13,1.13,0,0,0,22,39a.65.65,0,0,0-.53-.05,1.52,1.52,0,0,0-.57.36,3.66,3.66,0,0,0-.53.63L20.19,41a.62.62,0,0,1-.07.26.93.93,0,0,0-.07.39c.07.15.12.27.16.36a.54.54,0,0,0,.3.26.34.34,0,0,1-.1.23l-.22.23a1.19,1.19,0,0,1-.44.14l-.34,0V42.6a.13.13,0,0,0,0-.06.13.13,0,0,0-.12-.07l-.16.13v.33l-.32,0a.45.45,0,0,1-.3-.14l-.22-.23a.33.33,0,0,1-.1-.23,3.31,3.31,0,0,0,.46-.26,1,1,0,0,0,.33-.36.79.79,0,0,1,.08-.39.52.52,0,0,0,.08-.26l.62-2.81a1.1,1.1,0,0,1-.29-.38,1,1,0,0,1,0-.25.38.38,0,0,1,0-.18.51.51,0,0,1,.1-.15.91.91,0,0,1,.19-.15h.16l.46-2.37v-.79a.53.53,0,0,0-.1-.34.27.27,0,0,0-.2-.12v-.16a.34.34,0,0,1,.09-.22.27.27,0,0,1,.21-.1,1,1,0,0,1,.54-.26l.41,0V33a.88.88,0,0,0,.16.14.41.41,0,0,0,.16,0c.08,0,.12,0,.13,0a.39.39,0,0,0,0-.14c.08,0,.1,0,.06-.09a.37.37,0,0,1-.06-.21H22l.3,0a1.19,1.19,0,0,1,.32.09,1,1,0,0,1,.27.17q.49.25.49.49a.78.78,0,0,0-.5.12.43.43,0,0,0-.13.34v.79l.47,2.21a.42.42,0,0,1,.24.08.41.41,0,0,0,.24.08,2.69,2.69,0,0,1,.21.3l.1.18a.44.44,0,0,1-.1.25,2.47,2.47,0,0,0-.21.38H23.5L24.14,41a.47.47,0,0,0,.1.26,2.89,2.89,0,0,1,.21.39.92.92,0,0,0,.36.36,3,3,0,0,0,.59.26.34.34,0,0,1-.1.23l-.22.23a1.4,1.4,0,0,1-.53.14l-.41,0a.41.41,0,0,0,0-.16A1,1,0,0,0,24,42.6l-.16-.13-.11,0-.1.05-.1.06a.41.41,0,0,0,0,.16.88.88,0,0,0,.14.16l-.56,0a1.33,1.33,0,0,1-.54-.14c-.33-.16-.49-.31-.49-.46a2.62,2.62,0,0,0,.44-.26.43.43,0,0,0,.19-.36V41Zm-1.73-1.26.62-.44a1.08,1.08,0,0,1,.64-.2l-.64-2.5-.46,2.67Z"/><path class="cls-2" d="M25.27,36.94a6.27,6.27,0,0,1,.19-1.5,12,12,0,0,1,.43-1.4,2.77,2.77,0,0,1,.83-1,2.43,2.43,0,0,1,.9-.41,2.54,2.54,0,0,1,.81,0l.55,0h2.12a1,1,0,0,0-.41.35,2.73,2.73,0,0,1-.39.45c-.09-.08-.15-.12-.17-.12s-.08,0-.16.12-.12,0-.13,0a.44.44,0,0,0,0,.16l.15.16h.15a.19.19,0,0,1,.05.26q-.08.14-.2.39l-.25.23a.4.4,0,0,1-.25.11,2.39,2.39,0,0,0,0-.33,3.08,3.08,0,0,0-.09-.4,1.88,1.88,0,0,0-.15-.36.57.57,0,0,0-.22-.24,1,1,0,0,0-.94.08,2,2,0,0,0-.67.79,5.32,5.32,0,0,0-.44,1.24,10,10,0,0,0-.22,1.44v.19l.24.24a.38.38,0,0,1,.1.25.34.34,0,0,1-.1.23l-.24.23h-.16a10,10,0,0,0,.25,1.58A5.79,5.79,0,0,0,27.27,41a2.34,2.34,0,0,0,.73.87A1.06,1.06,0,0,0,29,42a.26.26,0,0,0,.22-.13,1.24,1.24,0,0,0,.15-.33,2.9,2.9,0,0,0,.09-.43,3.27,3.27,0,0,0,0-.41.39.39,0,0,1,.25.12,1.15,1.15,0,0,1,.25.37.94.94,0,0,1,.2.33.27.27,0,0,1-.05.33H30c-.08,0-.12,0-.13,0a.37.37,0,0,0,0,.14.28.28,0,0,0,0,.09.13.13,0,0,0,.13.07.34.34,0,0,0,.16,0l.17-.14.21.3.18.23.18.21.23.22H29l-.55,0a2.41,2.41,0,0,1-.81-.1,2.85,2.85,0,0,1-.9-.47,3,3,0,0,1-.83-1.07,5.9,5.9,0,0,1-.49-1.57,10.44,10.44,0,0,1-.13-1.69h-.15a2.19,2.19,0,0,1-.25-.23.34.34,0,0,1-.1-.23.38.38,0,0,1,.1-.25,2,2,0,0,1,.25-.24.47.47,0,0,1,0-.17S25.19,36.94,25.27,36.94Z"/><path class="cls-2" d="M37.65,39.23c0,.37,0,.7,0,1a3.94,3.94,0,0,1-.13.88,3.37,3.37,0,0,1-.34.82,4,4,0,0,1-.64.81,3.5,3.5,0,0,1-.79.43,1.19,1.19,0,0,1-.81.06V43.1c0-.1,0-.16-.1-.17l-.22,0a.1.1,0,0,0-.07,0,.17.17,0,0,0-.07.16v.15a1.29,1.29,0,0,1-.87-.06,4.79,4.79,0,0,1-.73-.43,3.58,3.58,0,0,1-.65-.81,3.5,3.5,0,0,1-.33-.82,3.94,3.94,0,0,1-.13-.88c0-.31,0-.64,0-1V38.11l-.22-.24a.32.32,0,0,1,0-.47l.22-.25v-.81c0-.36,0-.69,0-1a3.94,3.94,0,0,1,.13-.88,3.5,3.5,0,0,1,.33-.82,3.85,3.85,0,0,1,.65-.83,5.07,5.07,0,0,1,.73-.41,1.37,1.37,0,0,1,.87-.07v.16a.11.11,0,0,0,.07.12h.3a.11.11,0,0,0,.1-.12v-.16a1.28,1.28,0,0,1,.81.07,3.66,3.66,0,0,1,.79.41,4.35,4.35,0,0,1,.64.83,3.37,3.37,0,0,1,.34.82,3.94,3.94,0,0,1,.13.88q0,.46,0,1v.81a.71.71,0,0,1,.16.25.55.55,0,0,0,.17.24.56.56,0,0,0-.17.24.59.59,0,0,1-.16.24v1.13Zm-2.06-1.6a.58.58,0,0,0,.16-.24.7.7,0,0,1,.16-.25V35.35c0-.15,0-.3,0-.46a4.57,4.57,0,0,0-.05-.46,1.26,1.26,0,0,0-.1-.34,2,2,0,0,0-.46-.82.76.76,0,0,0-1.17,0,2,2,0,0,0-.46.82,1.26,1.26,0,0,0-.1.34,4.06,4.06,0,0,0-.05.46c0,.16,0,.31,0,.46v1.79a.54.54,0,0,1,.14.25,1.26,1.26,0,0,1,0,.47.46.46,0,0,1-.14.24v2c0,.17,0,.35,0,.52a3.82,3.82,0,0,0,.05.47,1.25,1.25,0,0,0,.1.33,2,2,0,0,0,.46.81.76.76,0,0,0,1.17,0,2,2,0,0,0,.46-.81,1.25,1.25,0,0,0,.1-.33,4.23,4.23,0,0,0,.05-.47c0-.17,0-.35,0-.52v-2a.58.58,0,0,1-.16-.24A.59.59,0,0,0,35.59,37.63Z"/><path class="cls-2" d="M45.93,32.6a4.34,4.34,0,0,1,1.2-.3,2.87,2.87,0,0,1,1.16.1,2,2,0,0,1,.92.6,2.32,2.32,0,0,1,.5,1.21,2.53,2.53,0,0,1,0,1.18,4.23,4.23,0,0,1-.49,1.2,2.29,2.29,0,0,0-.25.31.94.94,0,0,1-.38.31A2.91,2.91,0,0,1,50.1,38.4a3.37,3.37,0,0,1,.41,2.16A3,3,0,0,1,49.93,42a3.27,3.27,0,0,1-1.13.94,3.18,3.18,0,0,1-2.88,0h-.18l.16-.15a.3.3,0,0,0,0-.15.16.16,0,0,1-.17-.1.17.17,0,0,0-.31,0,.15.15,0,0,1-.16.1.4.4,0,0,0,0,.15.88.88,0,0,0,.13.15h-.58a1.28,1.28,0,0,1-.55-.13l-.24-.24-.24-.24A2.53,2.53,0,0,0,44.4,42a.43.43,0,0,0,.21-.38,1.12,1.12,0,0,0,.17-.38,1.69,1.69,0,0,0,0-.26V38.17h-.19a3.14,3.14,0,0,0-.21-.38.46.46,0,0,1-.09-.25.77.77,0,0,1,.09-.18l.1-.16a.79.79,0,0,1,.11-.14h.19V34.69a3,3,0,0,0,0-.41,1.21,1.21,0,0,0-.17-.41.36.36,0,0,0-.21-.33,1.19,1.19,0,0,0-.56-.11l.24-.24.24-.23a.85.85,0,0,1,.55-.31,4.36,4.36,0,0,1,.58,0,.47.47,0,0,0-.13.24.45.45,0,0,0,0,.12.7.7,0,0,0,.16.13h.31a.92.92,0,0,0,.17-.13l0-.12-.05-.12a.29.29,0,0,0-.1-.12Zm.44,4.61v-.15h.19a1.44,1.44,0,0,0,.61-.25,1.91,1.91,0,0,0,.46-.47,2.59,2.59,0,0,0,.31-.63,5.58,5.58,0,0,0,.19-.72v-.15a3.69,3.69,0,0,0-.26-.84,2,2,0,0,0-.42-.64.46.46,0,0,0-.47-.15c-.16,0-.3.27-.42.67a1.2,1.2,0,0,0-.17.41,3,3,0,0,0,0,.41Zm2.22,3.67a4.13,4.13,0,0,0,.11-1,2.59,2.59,0,0,0-.18-1,1.56,1.56,0,0,0-.54-.69A1.29,1.29,0,0,0,47,38h-.18a.41.41,0,0,0-.23.07.46.46,0,0,1-.26.07V41a1.68,1.68,0,0,0,0,.26,1.11,1.11,0,0,0,.17.38q.18.67.47.78a.63.63,0,0,0,.6-.1,2.11,2.11,0,0,0,.57-.63A3.28,3.28,0,0,0,48.59,40.88Z"/><path class="cls-2" d="M55.05,39.62a1.13,1.13,0,0,0-.43-.62.65.65,0,0,0-.53-.05,1.52,1.52,0,0,0-.57.36,3.66,3.66,0,0,0-.53.63L52.83,41a.62.62,0,0,1-.07.26.93.93,0,0,0-.07.39c.07.15.12.27.16.36a.54.54,0,0,0,.3.26.34.34,0,0,1-.1.23l-.22.23a1.19,1.19,0,0,1-.44.14l-.34,0V42.6a.13.13,0,0,0,0-.06.13.13,0,0,0-.12-.07l-.16.13v.33l-.32,0a.45.45,0,0,1-.3-.14l-.22-.23a.33.33,0,0,1-.1-.23,3.31,3.31,0,0,0,.46-.26,1,1,0,0,0,.33-.36.79.79,0,0,1,.08-.39.52.52,0,0,0,.08-.26l.62-2.81a1.1,1.1,0,0,1-.29-.38,1,1,0,0,1,0-.25.38.38,0,0,1,0-.18.51.51,0,0,1,.1-.15.91.91,0,0,1,.19-.15h.16L53,34.73v-.79a.53.53,0,0,0-.1-.34.27.27,0,0,0-.2-.12v-.16a.34.34,0,0,1,.09-.22A.27.27,0,0,1,53,33a1,1,0,0,1,.54-.26l.41,0V33a.88.88,0,0,0,.16.14.41.41,0,0,0,.16,0c.08,0,.12,0,.13,0a.39.39,0,0,0,0-.14c.08,0,.1,0,.06-.09a.37.37,0,0,1-.06-.21h.2l.3,0a1.19,1.19,0,0,1,.32.09,1,1,0,0,1,.27.17q.49.25.49.49a.78.78,0,0,0-.5.12.43.43,0,0,0-.13.34v.79l.47,2.21a.42.42,0,0,1,.24.08.41.41,0,0,0,.24.08,2.69,2.69,0,0,1,.21.3l.1.18a.44.44,0,0,1-.1.25,2.47,2.47,0,0,0-.21.38h-.16L56.78,41a.47.47,0,0,0,.1.26,2.89,2.89,0,0,1,.21.39.92.92,0,0,0,.36.36,3,3,0,0,0,.59.26.34.34,0,0,1-.1.23l-.22.23a1.4,1.4,0,0,1-.53.14l-.41,0a.41.41,0,0,0,0-.16,1,1,0,0,0-.14-.16l-.16-.13-.11,0-.1.05-.1.06a.41.41,0,0,0,0,.16.88.88,0,0,0,.14.16l-.56,0a1.33,1.33,0,0,1-.54-.14c-.33-.16-.49-.31-.49-.46a2.62,2.62,0,0,0,.44-.26.43.43,0,0,0,.19-.36V41Zm-1.73-1.26.62-.44a1.08,1.08,0,0,1,.64-.2l-.64-2.5-.46,2.67Z"/><path class="cls-2" d="M63.08,41q0-.47,0-1a4.31,4.31,0,0,0-.16-1,1.31,1.31,0,0,0-.58-.9A1.64,1.64,0,0,0,61,38.14V41a2.85,2.85,0,0,0,0,.32.48.48,0,0,0,.16.32.54.54,0,0,0,.21.5,1.07,1.07,0,0,0,.57.13l-.24.24-.24.24a1.45,1.45,0,0,1-.55.14l-.57,0,.16-.16a.35.35,0,0,0,0-.16h-.65a.47.47,0,0,0,0,.16.77.77,0,0,0,.12.16l-.54,0a1.55,1.55,0,0,1-.55-.14,5.17,5.17,0,0,1-.47-.47,1.11,1.11,0,0,0,.58-.13.54.54,0,0,0,.22-.5.49.49,0,0,0,.13-.32c0-.13,0-.24,0-.32V38.3l-.15-.16A2.07,2.07,0,0,1,59,37.9a.37.37,0,0,1-.1-.24.37.37,0,0,1,.1-.24,2.07,2.07,0,0,1,.23-.24l.15-.18v-2.4c0-.08,0-.19,0-.33a.5.5,0,0,0-.13-.33.62.62,0,0,0-.22-.44.8.8,0,0,0-.58-.21l.47-.47a1.38,1.38,0,0,1,.55-.16l.54,0a.8.8,0,0,0-.12.18.56.56,0,0,0,0,.16h.65a.41.41,0,0,0,0-.16,1,1,0,0,0-.16-.18h.18a4,4,0,0,1,1.23-.36,2.72,2.72,0,0,1,1.18.09,2.05,2.05,0,0,1,.93.6,2.21,2.21,0,0,1,.5,1.14,3.39,3.39,0,0,1-.47,2.41c-.08.09-.2.21-.35.35l-.47.47a1.8,1.8,0,0,1,.9.71,3.08,3.08,0,0,1,.41,1,3.91,3.91,0,0,1,.07,1.07q0,.53-.1.88a.92.92,0,0,0,.08.32.9.9,0,0,1,.08.32,1.11,1.11,0,0,0,.27.5.81.81,0,0,0,.53.13,1,1,0,0,0-.19.24.59.59,0,0,1-.3.23,1.34,1.34,0,0,1-.48.14l-.47,0c.08-.08.12-.13.12-.16s0-.08-.12-.16h-.36v.31l-.42,0a1.29,1.29,0,0,1-.52-.14l-.22-.24a.36.36,0,0,1-.1-.24.73.73,0,0,0,.44-.13.58.58,0,0,0,.18-.5.49.49,0,0,0,.16-.32A3.05,3.05,0,0,0,63.08,41Zm-1.6-7.87a.28.28,0,0,0-.21.12.62.62,0,0,0-.1.39A.47.47,0,0,0,61,34a2.67,2.67,0,0,0,0,.31V37a1.46,1.46,0,0,0,1-.38,2.15,2.15,0,0,0,.55-.83,2.8,2.8,0,0,0,.17-1,2.93,2.93,0,0,0-.16-.95,1.38,1.38,0,0,0-.42-.63A.56.56,0,0,0,61.48,33.16Z"/></g></g></svg>