<svg xmlns="http://www.w3.org/2000/svg" viewBox="0 0 75.93 75.93"><defs><style>.cls-1{fill:#d64627;}.cls-2{fill:#fff;}</style></defs><title>menu-desserts-oj</title><g id="Layer_2" data-name="Layer 2"><g id="Layer_1-2" data-name="Layer 1"><circle class="cls-1" cx="37.97" cy="37.97" r="37.97"/><path class="cls-2" d="M5,33.24l.42-.34a4,4,0,0,1,.45-.3,3.78,3.78,0,0,1,.76-.33l.79-.22a4.09,4.09,0,0,1,1.3-.15c.32,0,.63,0,.95.09a3,3,0,0,1,.92.27l.26.14.26.14.11.07.13.07a1.85,1.85,0,0,1,.57.36c.19.17.36.32.5.46a3.6,3.6,0,0,1,.71,1A6.06,6.06,0,0,1,13.72,37a7.94,7.94,0,0,1-.13,1.47A7.17,7.17,0,0,1,13,40.23a6.9,6.9,0,0,1-1,1.55A6.64,6.64,0,0,1,10.69,43,5.93,5.93,0,0,1,9,43.78a3.71,3.71,0,0,1-1.35.13,3.53,3.53,0,0,1-1.27-.35,3.32,3.32,0,0,1-1-.79,2.84,2.84,0,0,1-.62-1.2A2.38,2.38,0,0,1,4.67,41a3.76,3.76,0,0,1,0-.57c0-.08,0-.16,0-.24s0-.16.05-.24a1.11,1.11,0,0,1,.61-.74l.16.09-.08.13-.08.1a.52.52,0,0,0-.15.25c0,.09,0,.18,0,.27s0,.1,0,.14a.46.46,0,0,0,0,.14,3.11,3.11,0,0,0,.13.87,3.67,3.67,0,0,0,.35.82,1.58,1.58,0,0,0,.79.66,4.66,4.66,0,0,0,1,.27,1.33,1.33,0,0,0,.53,0,1.76,1.76,0,0,0,.47-.19,3.91,3.91,0,0,0,.43-.28l.42-.32q.5-.39,1-.78a5.71,5.71,0,0,0,.8-.85,4.76,4.76,0,0,0,.58-1,4.2,4.2,0,0,0,.3-1.2,18.6,18.6,0,0,0,.13-2,3.79,3.79,0,0,0-.05-.63,3,3,0,0,0-.17-.6l-.22-.58a3.72,3.72,0,0,0-.27-.56,2.39,2.39,0,0,0-.68-.75,5.15,5.15,0,0,0-.56-.38,3.73,3.73,0,0,0-.61-.29,2.77,2.77,0,0,0-1-.18H8.44l0,0a2.09,2.09,0,0,0,.1.3q.09.22.16.44a2.1,2.1,0,0,1,.08.47c0,.23,0,.45,0,.67a5.11,5.11,0,0,1,0,.67c0,.2,0,.39-.08.58s-.06.39-.08.58a8.66,8.66,0,0,1-.18,1.21q-.09.4-.16.81c0,.27-.09.54-.13.81a4.72,4.72,0,0,0-.06.74,4.45,4.45,0,0,1-.06.73,3.42,3.42,0,0,0,0,.37,1.67,1.67,0,0,0,0,.36,1.81,1.81,0,0,1,0,.4,3.49,3.49,0,0,1-.09.4h0v0a.57.57,0,0,0-.18.37.58.58,0,0,1-.18.37c-.09.08-.17.09-.24,0a.64.64,0,0,1-.19-.23A1.56,1.56,0,0,1,7,42.23q0-.18-.06-.27c0-.27-.09-.54-.11-.81s0-.54,0-.82q0-1,0-2.06t.09-2.09q0-.56.07-1.13l.09-1.13.06-.62.06-.61a.05.05,0,0,0,0,0,.16.16,0,0,1,0-.06l-.19,0-.16,0-.32.12-.3.13,0,0h0a1.13,1.13,0,0,0-.36.2l-.31.26s-.07.05-.1,0A.46.46,0,0,1,5,33.24Z"/><path class="cls-2" d="M22.65,38.36a.61.61,0,0,1,.2,0,.36.36,0,0,1,.2.06q-.25.76-.49,1.33T22,41a11.18,11.18,0,0,1-.83,1.39,8.59,8.59,0,0,1-.9,1.07,3.68,3.68,0,0,1-.94.69,3.32,3.32,0,0,1-1.06.33,3.65,3.65,0,0,1-2.21-.4,3.13,3.13,0,0,1-.75-.52,2.42,2.42,0,0,1-.54-.75,5.59,5.59,0,0,1-.3-.8,4.16,4.16,0,0,1-.15-.86,2.9,2.9,0,0,1,0-.68c0-.23.08-.45.13-.68a.84.84,0,0,1,.1-.23l.13-.23q.15-.27.32-.53a2.32,2.32,0,0,1,.41-.47,3.62,3.62,0,0,1,.34-.27l.37-.24.06,0h.06a.31.31,0,0,0,.23,0,.93.93,0,0,1,.24-.09l-.12-.07-.09-.06a3,3,0,0,1-1.17-1.12,2,2,0,0,1-.22-.62,2.88,2.88,0,0,1,0-.66,2.63,2.63,0,0,1,.19-.93,3.58,3.58,0,0,1,.47-.81,1.41,1.41,0,0,1,.16-.21l.18-.2a2.35,2.35,0,0,1,.36-.3l.39-.27L17,32.3l.16-.11a2.77,2.77,0,0,0-.16-.53,2.21,2.21,0,0,1-.15-.54H17l.21.13a.63.63,0,0,1,.17.19l.13.19.14.19.12-.05.12-.05a3.49,3.49,0,0,1,.5-.19,4.45,4.45,0,0,1,.52-.12,1.54,1.54,0,0,1,.58,0,2.76,2.76,0,0,1,.56.17l1.07.44.13.06.11.06,0,.06.12.21a.84.84,0,0,1,.09.22,1.13,1.13,0,0,1,0,.29.55.55,0,0,1-.1.27,1.87,1.87,0,0,1-.37.44,5.29,5.29,0,0,1-.64.41,2.21,2.21,0,0,1-.71.24,1.28,1.28,0,0,1-.79-.1,3.2,3.2,0,0,1-.68-.42l-.19-.16L18,33.44a.1.1,0,0,0-.15,0l-.27.22-.25.22a1.57,1.57,0,0,0-.18.24,1.64,1.64,0,0,1-.18.25,1.8,1.8,0,0,0-.33.61,2.32,2.32,0,0,0-.11.71,2,2,0,0,0,.13.7A1.62,1.62,0,0,0,17,37a2.05,2.05,0,0,0,.46.35.9.9,0,0,0,.55.11l.19,0a.44.44,0,0,1,.18,0l.17.1a.59.59,0,0,0,.17.09l.18.07a.11.11,0,0,1,.07.15.33.33,0,0,1-.13.14,1.08,1.08,0,0,1-.24.11l-.26.06a.52.52,0,0,1-.18,0,.39.39,0,0,0-.25,0l-.23.1a2.38,2.38,0,0,0-.87.74,1.8,1.8,0,0,0-.28.6,5.47,5.47,0,0,1-.21.63,6.16,6.16,0,0,0-.2.67,2.22,2.22,0,0,0-.05.7,3.27,3.27,0,0,0,.27,1,1.77,1.77,0,0,0,.67.77,2.71,2.71,0,0,0,2.07.21,3.25,3.25,0,0,0,1-.59,4.21,4.21,0,0,0,.79-.9,8.46,8.46,0,0,0,.67-1.16q.3-.63.53-1.18t.36-.93A3.79,3.79,0,0,1,22.65,38.36Zm-4.21-5.48c-.07,0-.11.07-.11.1s0,.07.07.12l.18.16.18.16.15.11.15.1a.73.73,0,0,0,.36.08l.36,0a.72.72,0,0,0,.36-.15l.31-.24a.16.16,0,0,0,.06-.07,1,1,0,0,0,0-.15l0-.13c0-.08,0-.13,0-.15l-.35-.1-.35-.07a2,2,0,0,0-.39,0h-.4a.35.35,0,0,0-.28.1.17.17,0,0,1-.07.06Z"/><path class="cls-2" d="M31.28,38.38c.18-.1.3-.11.36,0a.29.29,0,0,1,0,.33l-.18.13-.18.12-.3.2-.3.18-.27.17-.27.16-.25.15-.27.15-.15.07-.15.06a1.32,1.32,0,0,0-.3.13.26.26,0,0,0-.13.07l-.07,0-.07,0a.33.33,0,0,0,0,.27l.06.1.06.11.11.24a1.71,1.71,0,0,1,.08.26.55.55,0,0,1,0,.16,1.45,1.45,0,0,0,0,.16.55.55,0,0,1,0,.15.55.55,0,0,0,0,.15c0,.06,0,.12,0,.18s0,.12,0,.18a1.08,1.08,0,0,1,0,.18.83.83,0,0,0,0,.16v.09a.68.68,0,0,1,0,.36l-.06.16-.06.18a1.52,1.52,0,0,1-.19.49l-.14.23-.14.23-.05.07-.05.07-.15.15a2.82,2.82,0,0,1-1.13.8,5.78,5.78,0,0,1-.83.24l-.42.06-.44,0a3.21,3.21,0,0,1-1.3-.18l-.44-.18-.21-.11-.21-.13a1.46,1.46,0,0,1-.76-1.08,1.27,1.27,0,0,1,0-.44l.07-.21.08-.22a3.15,3.15,0,0,1,.52-.84,4.46,4.46,0,0,1,.73-.71l.33-.24a2.38,2.38,0,0,1,.34-.21l.36-.18.37-.18.28-.13.27-.13a5.38,5.38,0,0,0,.55-.25h.09a.17.17,0,0,0,0-.05.1.1,0,0,1,0,0l-.17-.31c-.05-.1-.11-.2-.16-.31a4.13,4.13,0,0,0-.58-.9c-.23-.27-.47-.54-.72-.79l-.57-.64-.56-.64-.42-.47a4.73,4.73,0,0,1-.4-.49,3.12,3.12,0,0,1-.31-.54,2.23,2.23,0,0,1-.17-.61,3.52,3.52,0,0,1,.07-1.16l.16-.64a2.3,2.3,0,0,1,.24-.59l.26-.44a.74.74,0,0,1,.39-.32l.17-.07.16-.09a6.7,6.7,0,0,1,1.2-.68,3.84,3.84,0,0,1,.92-.3,7.82,7.82,0,0,1,.95-.12,2.25,2.25,0,0,1,.63,0l.6.13a1.43,1.43,0,0,1,.45.16l.41.24.26.21a.78.78,0,0,1,.2.29l.08.19a1.67,1.67,0,0,1,.07.21c0,.12,0,.24,0,.36l0,.34v.35c0,.11,0,.23,0,.35l-.06.43-.06.43a1.26,1.26,0,0,1-.1.33,2.24,2.24,0,0,1-.18.3,2.06,2.06,0,0,1-.42.52.23.23,0,0,1-.24.06.12.12,0,0,1-.12-.07.25.25,0,0,1,0-.07.09.09,0,0,1,0-.06.43.43,0,0,0,.15-.17l.09-.2A3.92,3.92,0,0,0,29.2,34q.07-.26.13-.53a2.24,2.24,0,0,0,.06-.51v-.51a.82.82,0,0,0,0-.18l-.11-.32c0-.1-.07-.21-.1-.32a.6.6,0,0,0-.3-.4L28.51,31a.76.76,0,0,0-.37-.09h-.3l-.5.07-.5.1-.22.07-.22.07a4,4,0,0,0-.52.18q-.25.11-.49.25a1.36,1.36,0,0,0-.21.16l-.2.19-.2.18a1,1,0,0,0-.17.21.87.87,0,0,0-.1.16,1,1,0,0,0-.07.19,5.12,5.12,0,0,0-.09.61c0,.14,0,.27,0,.41a2.21,2.21,0,0,0,0,.41,1.21,1.21,0,0,0,.1.46,1.26,1.26,0,0,0,.21.36l.25.33q.47.64,1,1.22t1,1.21l.46.53.47.51a2,2,0,0,1,.27.3l.24.34,0,0,0,0a.13.13,0,0,1,0,.06.12.12,0,0,0,0,.06l.13,0,.11,0,.11,0,.13,0,.41-.18.41-.18.4-.21.4-.23a.34.34,0,0,0,.12-.06l.07,0,.07,0,.07,0,.07,0,.08,0,.08,0,.05,0Zm-3.72,4.52a1.46,1.46,0,0,0-.06-.58,2,2,0,0,0-.25-.67A7.17,7.17,0,0,1,27,41h-.09l-.06,0-.31.13-.3.12-.29.13-.3.13-.33.16-.16.08-.17.08a.38.38,0,0,0-.13.09l-.06.05-.06.05-.65.55a.53.53,0,0,1-.15.15l-.07.07-.07.07-.12.09a.35.35,0,0,0-.09.12l-.08.12-.07.13a.85.85,0,0,1-.07.13l-.07.12a.46.46,0,0,0,0,.27.7.7,0,0,0,.09.28.93.93,0,0,1,0,.14.86.86,0,0,0,0,.14.62.62,0,0,0,.41.46,3,3,0,0,0,.65.22.71.71,0,0,0,.27.06l.14,0h.14a1.57,1.57,0,0,0,.7-.07l.33-.12.33-.16a2.72,2.72,0,0,0,.37-.25,3,3,0,0,0,.31-.3,1.88,1.88,0,0,0,.37-.8A3.14,3.14,0,0,0,27.56,42.89Z"/><path class="cls-2" d="M40,38.38c.18-.1.3-.11.36,0a.29.29,0,0,1,0,.33l-.18.13-.18.12-.3.2-.3.18-.27.17-.27.16-.25.15-.27.15-.15.07-.15.06a1.32,1.32,0,0,0-.3.13.26.26,0,0,0-.13.07l-.07,0-.07,0a.33.33,0,0,0,0,.27l.06.1.06.11.11.24a1.71,1.71,0,0,1,.08.26.55.55,0,0,1,0,.16,1.45,1.45,0,0,0,0,.16.55.55,0,0,1,0,.15.55.55,0,0,0,0,.15c0,.06,0,.12,0,.18s0,.12,0,.18a1.08,1.08,0,0,1,0,.18.83.83,0,0,0,0,.16v.09a.68.68,0,0,1,0,.36l-.06.16-.06.18a1.52,1.52,0,0,1-.19.49l-.14.23-.14.23-.05.07-.05.07-.15.15a2.82,2.82,0,0,1-1.13.8,5.78,5.78,0,0,1-.83.24l-.42.06-.44,0a3.21,3.21,0,0,1-1.3-.18l-.44-.18-.21-.11-.21-.13a1.46,1.46,0,0,1-.76-1.08,1.27,1.27,0,0,1,0-.44l.07-.21.08-.22a3.15,3.15,0,0,1,.52-.84,4.46,4.46,0,0,1,.73-.71l.33-.24a2.38,2.38,0,0,1,.34-.21l.36-.18.37-.18.28-.13.27-.13a5.38,5.38,0,0,0,.55-.25h.09a.17.17,0,0,0,0-.05.1.1,0,0,1,0,0l-.17-.31c-.05-.1-.11-.2-.16-.31a4.13,4.13,0,0,0-.58-.9c-.23-.27-.47-.54-.72-.79l-.57-.64-.56-.64-.42-.47a4.73,4.73,0,0,1-.4-.49,3.12,3.12,0,0,1-.31-.54,2.23,2.23,0,0,1-.17-.61,3.52,3.52,0,0,1,.07-1.16l.16-.64a2.3,2.3,0,0,1,.24-.59l.26-.44a.74.74,0,0,1,.39-.32l.17-.07.16-.09a6.7,6.7,0,0,1,1.2-.68,3.84,3.84,0,0,1,.92-.3,7.82,7.82,0,0,1,.95-.12,2.25,2.25,0,0,1,.63,0l.6.13a1.43,1.43,0,0,1,.45.16l.41.24.26.21a.78.78,0,0,1,.2.29l.08.19a1.67,1.67,0,0,1,.07.21c0,.12,0,.24,0,.36l0,.34v.35c0,.11,0,.23,0,.35l-.06.43-.06.43a1.26,1.26,0,0,1-.1.33,2.24,2.24,0,0,1-.18.3,2.06,2.06,0,0,1-.42.52.23.23,0,0,1-.24.06.12.12,0,0,1-.12-.07.25.25,0,0,1,0-.07.09.09,0,0,1,0-.06.43.43,0,0,0,.15-.17l.09-.2A3.92,3.92,0,0,0,38,34q.07-.26.13-.53a2.24,2.24,0,0,0,.06-.51v-.51a.82.82,0,0,0,0-.18L38,31.94c0-.1-.07-.21-.1-.32a.6.6,0,0,0-.3-.4L37.27,31a.76.76,0,0,0-.37-.09h-.3l-.5.07-.5.1-.22.07-.22.07a4,4,0,0,0-.52.18q-.25.11-.49.25a1.36,1.36,0,0,0-.21.16l-.2.19-.2.18a1,1,0,0,0-.17.21.87.87,0,0,0-.1.16,1,1,0,0,0-.07.19,5.12,5.12,0,0,0-.09.61c0,.14,0,.27,0,.41a2.21,2.21,0,0,0,0,.41,1.21,1.21,0,0,0,.1.46,1.26,1.26,0,0,0,.21.36l.25.33q.47.64,1,1.22t1,1.21l.46.53.47.51a2,2,0,0,1,.27.3l.24.34,0,0,0,0a.13.13,0,0,1,0,.06.12.12,0,0,0,0,.06l.13,0,.11,0,.11,0,.13,0,.41-.18.41-.18L39,39l.4-.23a.34.34,0,0,0,.12-.06l.07,0,.07,0,.07,0,.07,0,.08,0,.08,0,.05,0Zm-3.72,4.52a1.46,1.46,0,0,0-.06-.58,2,2,0,0,0-.25-.67,7.17,7.17,0,0,1-.3-.68h-.09l-.06,0-.31.13-.3.12-.29.13-.3.13-.33.16-.16.08-.17.08a.38.38,0,0,0-.13.09l-.06.05-.06.05-.65.55a.53.53,0,0,1-.15.15l-.07.07-.07.07-.12.09a.35.35,0,0,0-.09.12l-.08.12-.07.13a.85.85,0,0,1-.07.13l-.07.12a.46.46,0,0,0,0,.27.7.7,0,0,0,.09.28.93.93,0,0,1,0,.14.86.86,0,0,0,0,.14.62.62,0,0,0,.41.46,3,3,0,0,0,.65.22.71.71,0,0,0,.27.06l.14,0h.14a1.57,1.57,0,0,0,.7-.07l.33-.12.33-.16a2.72,2.72,0,0,0,.37-.25,3,3,0,0,0,.31-.3,1.88,1.88,0,0,0,.37-.8A3.14,3.14,0,0,0,36.32,42.89Z"/><path class="cls-2" d="M48.12,38.36a.61.61,0,0,1,.2,0,.36.36,0,0,1,.2.06q-.25.76-.49,1.33T47.44,41a11.18,11.18,0,0,1-.83,1.39,8.59,8.59,0,0,1-.9,1.07,3.68,3.68,0,0,1-.94.69,3.32,3.32,0,0,1-1.06.33,3.65,3.65,0,0,1-2.21-.4,3.13,3.13,0,0,1-.75-.52,2.42,2.42,0,0,1-.54-.75,5.59,5.59,0,0,1-.3-.8,4.16,4.16,0,0,1-.15-.86,2.9,2.9,0,0,1,0-.68c0-.23.08-.45.13-.68a.84.84,0,0,1,.1-.23l.13-.23q.15-.27.32-.53a2.32,2.32,0,0,1,.41-.47,3.62,3.62,0,0,1,.34-.27l.37-.24.06,0h.06a.31.31,0,0,0,.23,0,.93.93,0,0,1,.24-.09L42,37.59,42,37.53a3,3,0,0,1-1.17-1.12,2,2,0,0,1-.22-.62,2.88,2.88,0,0,1,0-.66,2.63,2.63,0,0,1,.19-.93,3.58,3.58,0,0,1,.47-.81,1.41,1.41,0,0,1,.16-.21l.18-.2a2.35,2.35,0,0,1,.36-.3l.39-.27.16-.11.16-.11a2.77,2.77,0,0,0-.16-.53,2.21,2.21,0,0,1-.15-.54h.16l.21.13a.63.63,0,0,1,.17.19l.13.19.14.19.12-.05.12-.05a3.49,3.49,0,0,1,.5-.19,4.45,4.45,0,0,1,.52-.12,1.54,1.54,0,0,1,.58,0,2.76,2.76,0,0,1,.56.17l1.07.44.13.06.11.06,0,.06.12.21a.84.84,0,0,1,.09.22,1.13,1.13,0,0,1,0,.29.55.55,0,0,1-.1.27,1.87,1.87,0,0,1-.37.44,5.29,5.29,0,0,1-.64.41,2.21,2.21,0,0,1-.71.24,1.28,1.28,0,0,1-.79-.1,3.2,3.2,0,0,1-.68-.42l-.19-.16-.18-.18a.1.1,0,0,0-.15,0l-.27.22-.25.22a1.57,1.57,0,0,0-.18.24,1.64,1.64,0,0,1-.18.25,1.8,1.8,0,0,0-.33.61,2.32,2.32,0,0,0-.11.71,2,2,0,0,0,.13.7,1.62,1.62,0,0,0,.38.59,2.05,2.05,0,0,0,.46.35.9.9,0,0,0,.55.11l.19,0a.44.44,0,0,1,.18,0l.17.1a.59.59,0,0,0,.17.09l.18.07a.11.11,0,0,1,.07.15.33.33,0,0,1-.13.14,1.08,1.08,0,0,1-.24.11l-.26.06a.52.52,0,0,1-.18,0,.39.39,0,0,0-.25,0l-.23.1a2.38,2.38,0,0,0-.87.74,1.8,1.8,0,0,0-.28.6,5.47,5.47,0,0,1-.21.63,6.16,6.16,0,0,0-.2.67,2.22,2.22,0,0,0-.05.7,3.27,3.27,0,0,0,.27,1,1.77,1.77,0,0,0,.67.77,2.71,2.71,0,0,0,2.07.21,3.25,3.25,0,0,0,1-.59,4.21,4.21,0,0,0,.79-.9,8.46,8.46,0,0,0,.67-1.16q.3-.63.53-1.18t.36-.93A3.79,3.79,0,0,1,48.12,38.36Zm-4.21-5.48c-.07,0-.11.07-.11.1s0,.07.07.12l.18.16.18.16.15.11.15.1a.73.73,0,0,0,.36.08l.36,0a.72.72,0,0,0,.36-.15l.31-.24a.16.16,0,0,0,.06-.07,1,1,0,0,0,0-.15l0-.13c0-.08,0-.13,0-.15l-.35-.1-.35-.07a2,2,0,0,0-.39,0h-.4a.35.35,0,0,0-.28.1.17.17,0,0,1-.07.06Z"/><path class="cls-2" d="M58,38.51a.93.93,0,0,1,.35-.14c.1,0,.16,0,.16.19s0,.05-.09.16l-.18.38-.23.51-.23.53-.19.44-.1.23a3.92,3.92,0,0,0-.23.86,2.69,2.69,0,0,1-.27.84l-.21.39-.21.39a1.26,1.26,0,0,1-.17.26,2.22,2.22,0,0,1-.21.21,2.36,2.36,0,0,1-.54.39,1.55,1.55,0,0,1-.64.16h-.07a1.12,1.12,0,0,1-.87,0l-.16-.06A1.4,1.4,0,0,1,53.3,44a1.63,1.63,0,0,1-.39-.44,5.49,5.49,0,0,1-.33-.66l-.27-.67a10.3,10.3,0,0,1-.38-1.1L51.6,40a3.12,3.12,0,0,0-.32-.71,2.27,2.27,0,0,0-.51-.58,1.2,1.2,0,0,0-.25-.17l-.3-.14,0,.09-.09.5c0,.17-.05.34-.07.5a2.57,2.57,0,0,1-.15.59,3.18,3.18,0,0,0-.19.95c0,.35,0,.67-.06,1s0,.58-.07.87-.05.59-.08.87c0,.08,0,.15,0,.22s0,.14,0,.22,0,.25,0,.38,0,.25,0,.38a.14.14,0,0,1,0,.1l-.07.06s-.09,0-.12,0L49,45c0,.08,0,.12-.1.13a.11.11,0,0,0-.1.11,2,2,0,0,1-.28-.24.67.67,0,0,1-.16-.32A9,9,0,0,1,48.2,43q0-.82,0-1.62t0-1.51q0-.76,0-1.51t0-1.51q0-.76.1-1.51,0-.39.1-.77c0-.26.07-.51.1-.77s0-.28,0-.43,0-.3,0-.44a2.37,2.37,0,0,1,.11-.49c.05-.16.12-.32.19-.47s.06-.11.08-.12h.16a.94.94,0,0,1,.58.43.8.8,0,0,1,.1.26l.06.27.18.76,0,.27,0,.13,0,.11,0,0a.08.08,0,0,1,0-.06,2,2,0,0,1,.47-.63,3.55,3.55,0,0,1,.63-.45l.48-.25a3.66,3.66,0,0,1,.51-.18,1.72,1.72,0,0,1,.65,0l.16,0h.18a.64.64,0,0,1,.36.1l.3.21a1.09,1.09,0,0,1,.37.44.87.87,0,0,1,.1.19l.07.21a1.74,1.74,0,0,1,.11,1,6.1,6.1,0,0,1-.24,1,6.21,6.21,0,0,1-.52,1.07,3.5,3.5,0,0,1-.79.9.64.64,0,0,1-.16.1c-.23.13-.46.25-.7.36a3.87,3.87,0,0,1-.74.25l-.09,0,.49.31.28.23.28.23.18.17.18.19h0c.15.2.28.4.41.59a3.16,3.16,0,0,1,.3.64,1.44,1.44,0,0,0,.07.22,1.61,1.61,0,0,1,.07.22.39.39,0,0,1,0,.12c0,.08,0,.15.06.21l.06.21.22.71.06.18.06.18a1.32,1.32,0,0,1,0,.18.6.6,0,0,1,0,.18.49.49,0,0,0,.19.42l.1.09.11.09a.35.35,0,0,0,.28.06h.1a.48.48,0,0,0,.3-.07,1.52,1.52,0,0,0,.25-.2,4.59,4.59,0,0,0,.74-1.16q.4-.92.81-1.81l.82-1.8Zm-7.64-.27L50.8,38l.47-.23a4.36,4.36,0,0,0,.5-.27,1.71,1.71,0,0,0,.42-.38q.19-.24.36-.47l.33-.49A.45.45,0,0,0,53,36c0-.06,0-.14,0-.21s0-.37.05-.55,0-.37.05-.57a.47.47,0,0,0,0-.11.47.47,0,0,1,0-.11,2.65,2.65,0,0,0,.07-.9,1.37,1.37,0,0,0-.22-.58.24.24,0,0,0-.27-.1l-.18,0-.16,0L52.1,33l-.27.12a1.83,1.83,0,0,0-.87.83,1.92,1.92,0,0,0-.12.3c0,.1-.06.2-.1.31l0,.07,0,.07-.18.38-.18.38a.28.28,0,0,0,0,.15,3.78,3.78,0,0,1,0,.58q0,.28-.06.58a1.74,1.74,0,0,0,0,.42,1.33,1.33,0,0,1,0,.42.72.72,0,0,0,0,.3,3,3,0,0,1,0,.31h.09Z"/><path class="cls-2" d="M60.3,32.51l.11.3a2.14,2.14,0,0,1,.08.27l.08.38c0,.12,0,.25.07.38s0,.27,0,.4,0,.26,0,.4l0,.31c0,.15,0,.3.05.44s0,.3.05.44,0,.51.07.77a4.06,4.06,0,0,1,0,.77.68.68,0,0,0,0,.2,1.44,1.44,0,0,1,0,.21v0a.63.63,0,0,0,0,.31c0,.1,0,.2,0,.3a.26.26,0,0,1,0,.1.64.64,0,0,0,0,.1,3.92,3.92,0,0,0,0,.39,3.58,3.58,0,0,0,0,.39.77.77,0,0,1,0,.25,4.13,4.13,0,0,0-.14.53q-.05.27-.08.55a2.55,2.55,0,0,0,0,.38,1.07,1.07,0,0,1-.07.38.62.62,0,0,0,0,.19v.21a.73.73,0,0,0,0,.16.79.79,0,0,1,0,.16l0,.53v.28a2.44,2.44,0,0,1,0,.27l0,.18,0,.18a2.3,2.3,0,0,0,0,.27,2.09,2.09,0,0,1,0,.25.6.6,0,0,1,0,.16.81.81,0,0,1,0,.18.24.24,0,0,0,0,.07.27.27,0,0,1,0,.07c0,.1,0,.16-.07.18s-.08.13,0,.19v0s0,0,0,0l-.15,0a.19.19,0,0,0-.13,0,.34.34,0,0,0-.12.07l-.1.09a.53.53,0,0,1-.26-.21.84.84,0,0,1-.11-.3l-.06-.66-.06-.66c0-.22,0-.43,0-.64s0-.42,0-.62,0-.27,0-.4,0-.26,0-.4,0-.36,0-.53a4.86,4.86,0,0,0,0-.53c0-.15,0-.3,0-.44s0-.3,0-.46l0-.36,0-.37c0-.22,0-.43,0-.65s0-.43,0-.65,0-.27,0-.39,0-.25,0-.38c0-.31,0-.61,0-.9s0-.6,0-.9,0-.43,0-.64a6,6,0,0,1,.08-.64c0-.17.06-.34.08-.52s.05-.36.08-.53l-.24,0-.24,0-.53,0-.55,0h-.53a1.49,1.49,0,0,1-.74-.24l-.09-.07a.25.25,0,0,1,.14-.11l.16,0,.34,0,.34,0,.83-.07.84-.07h1.73a1.91,1.91,0,0,0,.38,0l.86,0q.43,0,.86,0l.14,0a.26.26,0,0,1,.13.07l.07,0,.08,0a.32.32,0,0,1-.16.11l-.18.05,0,.05,0,.05a.27.27,0,0,1-.27.18,1.61,1.61,0,0,0-.44,0l-.46.06-.29,0-.29,0-.3,0h-.3l-.13,0Z"/><path class="cls-2" d="M70.86,38.38c.18-.1.3-.11.36,0a.29.29,0,0,1,0,.33l-.18.13-.18.12-.3.2-.3.18-.27.17-.27.16-.25.15-.27.15-.15.07-.15.06a1.32,1.32,0,0,0-.3.13.26.26,0,0,0-.13.07l-.07,0-.07,0a.33.33,0,0,0,0,.27l.06.1.06.11.11.24a1.71,1.71,0,0,1,.08.26.55.55,0,0,1,0,.16,1.45,1.45,0,0,0,0,.16.55.55,0,0,1,0,.15.55.55,0,0,0,0,.15c0,.06,0,.12,0,.18s0,.12,0,.18a1.08,1.08,0,0,1,0,.18.83.83,0,0,0,0,.16v.09a.68.68,0,0,1,0,.36l-.06.16-.06.18a1.52,1.52,0,0,1-.19.49l-.14.23-.14.23-.05.07-.05.07-.15.15a2.82,2.82,0,0,1-1.13.8,5.78,5.78,0,0,1-.83.24l-.42.06-.44,0a3.21,3.21,0,0,1-1.3-.18l-.44-.18-.21-.11-.21-.13a1.46,1.46,0,0,1-.76-1.08,1.27,1.27,0,0,1,0-.44l.07-.21.08-.22a3.15,3.15,0,0,1,.52-.84,4.46,4.46,0,0,1,.73-.71l.33-.24a2.38,2.38,0,0,1,.34-.21l.36-.18.37-.18.28-.13.27-.13a5.38,5.38,0,0,0,.55-.25h.09a.17.17,0,0,0,0-.05.1.1,0,0,1,0,0l-.17-.31c-.05-.1-.11-.2-.16-.31a4.13,4.13,0,0,0-.58-.9c-.23-.27-.47-.54-.72-.79l-.57-.64-.56-.64-.42-.47a4.73,4.73,0,0,1-.4-.49,3.12,3.12,0,0,1-.31-.54,2.23,2.23,0,0,1-.17-.61,3.52,3.52,0,0,1,.07-1.16l.16-.64a2.3,2.3,0,0,1,.24-.59l.26-.44a.74.74,0,0,1,.39-.32l.17-.07.16-.09a6.7,6.7,0,0,1,1.2-.68,3.84,3.84,0,0,1,.92-.3,7.82,7.82,0,0,1,.95-.12,2.25,2.25,0,0,1,.63,0l.6.13a1.43,1.43,0,0,1,.45.16l.41.24.26.21a.78.78,0,0,1,.2.29l.08.19a1.67,1.67,0,0,1,.07.21c0,.12,0,.24,0,.36l0,.34v.35c0,.11,0,.23,0,.35l-.06.43-.06.43a1.26,1.26,0,0,1-.1.33,2.24,2.24,0,0,1-.18.3,2.06,2.06,0,0,1-.42.52.23.23,0,0,1-.24.06.12.12,0,0,1-.12-.07.25.25,0,0,1,0-.07.09.09,0,0,1,0-.06.43.43,0,0,0,.15-.17l.09-.2a3.92,3.92,0,0,0,.17-.51q.07-.26.13-.53a2.24,2.24,0,0,0,.06-.51v-.51a.82.82,0,0,0,0-.18l-.11-.32c0-.1-.07-.21-.1-.32a.6.6,0,0,0-.3-.4L68.09,31a.76.76,0,0,0-.37-.09h-.3l-.5.07-.5.1-.22.07-.22.07a4,4,0,0,0-.52.18q-.25.11-.49.25a1.36,1.36,0,0,0-.21.16l-.2.19-.2.18a1,1,0,0,0-.17.21.87.87,0,0,0-.1.16,1,1,0,0,0-.07.19,5.12,5.12,0,0,0-.09.61c0,.14,0,.27,0,.41a2.21,2.21,0,0,0,0,.41,1.21,1.21,0,0,0,.1.46,1.26,1.26,0,0,0,.21.36l.25.33q.47.64,1,1.22t1,1.21l.46.53.47.51a2,2,0,0,1,.27.3l.24.34,0,0,0,0a.13.13,0,0,1,0,.06.12.12,0,0,0,0,.06l.13,0,.11,0,.11,0,.13,0,.41-.18.41-.18.4-.21.4-.23a.34.34,0,0,0,.12-.06l.07,0,.07,0,.07,0,.07,0,.08,0,.08,0,.05,0Zm-3.72,4.52a1.46,1.46,0,0,0-.06-.58,2,2,0,0,0-.25-.67,7.17,7.17,0,0,1-.3-.68h-.09l-.06,0-.31.13-.3.12-.29.13-.3.13-.33.16-.16.08-.17.08a.38.38,0,0,0-.13.09l-.06.05-.06.05-.65.55a.53.53,0,0,1-.15.15l-.07.07-.07.07-.12.09a.35.35,0,0,0-.09.12l-.08.12-.07.13a.85.85,0,0,1-.07.13l-.07.12a.46.46,0,0,0,0,.27.7.7,0,0,0,.09.28.93.93,0,0,1,0,.14.86.86,0,0,0,0,.14.62.62,0,0,0,.41.46,3,3,0,0,0,.65.22.71.71,0,0,0,.27.06l.14,0h.14a1.57,1.57,0,0,0,.7-.07l.33-.12.33-.16a2.72,2.72,0,0,0,.37-.25,3,3,0,0,0,.31-.3,1.88,1.88,0,0,0,.37-.8A3.14,3.14,0,0,0,67.14,42.89Z"/></g></g></svg>