<svg xmlns="http://www.w3.org/2000/svg" viewBox="0 0 75.93 75.93"><defs><style>.cls-1{fill:#1f3238;}.cls-2{fill:#fff;}</style></defs><title>menu-tacobar-icon</title><g id="Layer_2" data-name="Layer 2"><g id="Layer_1-2" data-name="Layer 1"><circle class="cls-1" cx="37.97" cy="37.97" r="37.97"/><path class="cls-2" d="M59.08,37.36c-3.71,5.07-9.63,7.75-15.38,9.81-3.2,1.14-6.42,2.2-9.6,3.41a24.87,24.87,0,0,1-4.73,1.36,35.8,35.8,0,0,1-5.29.34c.25-.89.55-1.77.88-2.64a30.21,30.21,0,0,1,1.32-3,.25.25,0,0,0,.07-.13c.4-.77.83-1.52,1.29-2.25a27.1,27.1,0,0,1,6.13-6.84A27.29,27.29,0,0,1,42.93,33a25.9,25.9,0,0,1,7.43-1.56,9.52,9.52,0,0,1,2.92.45,9.63,9.63,0,0,1,1.56.67,10.08,10.08,0,0,1,4.39,4.66.43.43,0,0,0-.15.13Zm-35.73,12a1.23,1.23,0,0,1-.34-.44,1.3,1.3,0,0,1-.11-.54A1.7,1.7,0,0,1,24,47a.58.58,0,0,1,.51.09.78.78,0,0,1,.2.24.22.22,0,0,0,.2.12q-.48,1-.88,2.13a1.19,1.19,0,0,1-.71-.28Zm-.19,3.09a.39.39,0,0,0,0,.29.26.26,0,0,1-.14,0,.22.22,0,0,0,0-.27,1.21,1.21,0,0,0-.41-.26h0a6.44,6.44,0,0,1-.48-1c-.22-.75.39-1.24,1-1.36h0a1.8,1.8,0,0,0,.73.29c-.27.78-.52,1.56-.73,2.35Zm-1.45-.34c-.57.08-1.26.61-1.83.53a.83.83,0,0,1-.59-.4c-.32-.48.1-1,.55-1.13a1.09,1.09,0,0,0,.62-.35.81.81,0,0,0,.05-.85,1.52,1.52,0,0,0-.16-.29,3.81,3.81,0,0,0-.54-.54A2.49,2.49,0,0,1,19.21,48a2.68,2.68,0,0,1-.1-1,2.41,2.41,0,0,1,.12-.6c.15-.51.36-.25.56-.12a1,1,0,0,0,1.34-.16,1.36,1.36,0,0,0,.36-1.09c-.08-.62-.75-.78-1.16-1.1s.21-.65.4-.81a1.15,1.15,0,0,0,.38-.59,1.77,1.77,0,0,0,0-.82,3.51,3.51,0,0,1-.1-1,3,3,0,0,1,1.53-1.92c.37-.15.61.12.83.46a3,3,0,0,0,.63.88.81.81,0,0,0,1.08,0,.51.51,0,0,0,.09-.1c.21-.32,0-.85,0-1.17a1.23,1.23,0,0,1,1-1.63,1.13,1.13,0,0,1,.61.19,1.44,1.44,0,0,0-.11.55,2.11,2.11,0,0,1-.17,1c-.09.18-.18.36-.25.55a1.19,1.19,0,0,0,.11,1.09,1.72,1.72,0,0,0-1,.37,3.87,3.87,0,0,1-1.42,1l-.63.17a3.58,3.58,0,0,0-.79.3A1.28,1.28,0,0,0,22,44.1a.94.94,0,0,0,.34.36c.23.16.52.29.71.4l.77.45a2,2,0,0,0-1.55.71,1.65,1.65,0,0,0-.55,1.64,1.54,1.54,0,0,0-.52.79A1.44,1.44,0,0,0,21.88,50a1.79,1.79,0,0,0-.1,1.64A3.9,3.9,0,0,0,22,52l-.24,0Zm-3.8-5.35c0-.21-.08-.43-.1-.65a15.16,15.16,0,0,1,.79-5.23l0-.15a26.12,26.12,0,0,1,1.52-4.37,3.55,3.55,0,0,0,1-.35l.29-.15a2,2,0,0,0,1-.89.87.87,0,0,0,0-.8,1.07,1.07,0,0,0-.83-.46,15.45,15.45,0,0,1,1.13-1.46,18.68,18.68,0,0,1,3.93-3.34,29.6,29.6,0,0,1,3.07-1.73A18.94,18.94,0,0,1,36.34,25a2.7,2.7,0,0,0-.08.47,3,3,0,0,1-1.58.33,3.26,3.26,0,0,0-1,.16c-1,.37-1.17,1.54-2,2a.65.65,0,0,1-.29.09,6.73,6.73,0,0,1-1.32-.3.91.91,0,0,0-.87.44,1.2,1.2,0,0,0-.14.27,3.13,3.13,0,0,0,.26,2.11l.08.18c-.17.12-.32.25-.46.37A4,4,0,0,0,28,32.21a2.4,2.4,0,0,0-.25.9.21.21,0,0,0-.08-.14c-1-.86-2.86-.73-2.93.89a1.43,1.43,0,0,0,.08.4,1,1,0,0,1-.32,1.06,9.5,9.5,0,0,0-.94.83A3.65,3.65,0,0,0,23,38.34l-.18,0c-1.08-.17-2.32,1.62-2.34,2.55,0,.55.25,1.17.06,1.65a.87.87,0,0,1-.39.42.81.81,0,0,0-.36,1.19,1.55,1.55,0,0,0,.65.5.91.91,0,0,1,.55.57c.14.43-.26.76-.65.79s-1.08-.82-1.46-.05a3.07,3.07,0,0,0,.56,3.45c.22.24,1.1.91.39,1.18l-.23.07a13.82,13.82,0,0,1-1.73-3.91Zm3.42-12.55h0a.83.83,0,0,1,.6.08.3.3,0,0,1,.16.4,1,1,0,0,1-.26.36,1.4,1.4,0,0,1-.2.17,4.34,4.34,0,0,1-1.25.61,18.11,18.11,0,0,1,.9-1.61ZM36.8,28a3.44,3.44,0,0,1,.28.39l.16.27a.22.22,0,0,0,.31.09,6.36,6.36,0,0,0,.2,1.32,7.1,7.1,0,0,0,.34,1h0l-.15.07a1.7,1.7,0,0,0-.57-.62,1.66,1.66,0,0,0-.78-.26v0c-.18-.26-.36-.53-.53-.8s-.46-.76-.67-1.15a1.06,1.06,0,0,1-.16-1c.19-.39.83.06,1,.18h0l.15.11,0,.26a.22.22,0,0,0,.35.13Zm-.08-2.32a.18.18,0,0,0,0-.17,3.53,3.53,0,0,1,.08-.43s.37.48.55.73l.09.13a4.43,4.43,0,0,1,.31.73,6.81,6.81,0,0,0-.22,1.54.31.31,0,0,1,0,0c-.06-.09-.13-.19-.21-.29a5.63,5.63,0,0,0-.49-.55c0-.22-.07-.44-.1-.66a5.33,5.33,0,0,1,0-1.06ZM37.94,25h.16a.33.33,0,0,0,.37-.22,5.58,5.58,0,0,1,.61,0,3.29,3.29,0,0,0,.59,0,4.19,4.19,0,0,0-.42.68,1.44,1.44,0,0,0-.76.23,1.31,1.31,0,0,0-.44.43c-.07-.16-.15-.31-.23-.47a.28.28,0,0,0,0-.08.56.56,0,0,1,.12-.53Zm4.83-1.65a7.43,7.43,0,0,1,3.74.24l.87.27a6.72,6.72,0,0,0-1.83,0,4.9,4.9,0,0,0-1.92.75h0a.24.24,0,1,0-.42.24l0,.05a5.35,5.35,0,0,0-.63.59c-.13-.4-.34-.86-.74-.72A5.62,5.62,0,0,0,40,25.87a1.13,1.13,0,0,0-.27-.3,3.72,3.72,0,0,1,.8-1.06l.07-.07.18-.14a5.18,5.18,0,0,1,2-1Zm6.56,1.59.47.25a4.84,4.84,0,0,1,1.75,1.61,2.75,2.75,0,0,1,.36,1v0a2.68,2.68,0,0,0-1.11-.16,1.5,1.5,0,0,0-.43-.7c-.25-.25-.56-.47-.8-.72a4.22,4.22,0,0,0-2.33-.79c-.61-.07-1.69-.12-2.07.49-.13.21.09.47.2.63a3.61,3.61,0,0,1,.41.83,5.41,5.41,0,0,1,.21.82,2,2,0,0,0-.61,0,.21.21,0,0,0-.07-.16l-.48-.45-.71-.65a.66.66,0,0,0-.88,0,1.74,1.74,0,0,0-.49,1,6.58,6.58,0,0,0-.2,1.68.22.22,0,0,0,.08.18v0l.06.42v0l-.09,0a3,3,0,0,0-.1-.35c-.1-.27-.26-.5-.63-.42l-.08,0a4,4,0,0,1,.11-1.77,4.53,4.53,0,0,1,.8-1.53,5,5,0,0,1,.84-.83.24.24,0,0,0,.33-.24,4.91,4.91,0,0,1,1.63-.7,6,6,0,0,1,3.83.55Zm-3.44,1.54c-.19-.35-.41-.35.07-.52A2.68,2.68,0,0,1,47,25.88a6.13,6.13,0,0,1,2,.5c.28.13.48.44.71.64l.2.16a1,1,0,0,1,.43.53,2.2,2.2,0,0,0-.7.37c-.34.27-.48.73-.75,1.05a.66.66,0,0,1-.15.14c-.56.39-1.36-.34-1.79-.66a2.42,2.42,0,0,0-.54-.31.24.24,0,0,0,0-.18,5.06,5.06,0,0,0-.15-.67,5.24,5.24,0,0,0-.41-1Zm-2.75,3.58-.07-.5a.19.19,0,0,0-.06-.11v0a6.51,6.51,0,0,1,.28-1.77c.19-.64.71-.15,1,.09l.13.12.49.46-.19.08a2.06,2.06,0,0,0-.76.7c-.28.4-.34,1.31-.92,1.24a.26.26,0,0,0,.12-.28Zm-1.72-2.39a4.62,4.62,0,0,0-.1,1.92,4.49,4.49,0,0,0-.88.44,13.5,13.5,0,0,0,0-2.75,5.16,5.16,0,0,0-.19-.88l0-.1.08,0a5.32,5.32,0,0,1,1-.72c.1-.05.63-.39.72-.17l.23.58a5.16,5.16,0,0,0-.82,1.72Zm-3.4,1a5.18,5.18,0,0,1,.08-1.21.25.25,0,0,0,.3-.29c0-.13-.07-.26-.11-.39l.1-.24a1,1,0,0,1,.75-.57.27.27,0,0,0,.29.07.67.67,0,0,1,.23.23,1.31,1.31,0,0,1,.14.32A6.71,6.71,0,0,1,40,27.61c0,.24,0,.48.06.72a12.06,12.06,0,0,1-.08,2,.26.26,0,0,0,0,.08c-.31.3-.71.76-1.12.7l-.19,0A6.83,6.83,0,0,1,38.24,30,6.41,6.41,0,0,1,38,28.63ZM25.75,44.82c.19-.39.61-.59.92-.88a.76.76,0,0,0,.14-.17.94.94,0,0,0,.1-.57,2.11,2.11,0,0,0-.12-.43c-.16-.5.6-.6.9-.63a.25.25,0,0,0,.23-.22.26.26,0,0,0,.3,0l0,.05q-.68.9-1.28,1.86c-.42.66-.81,1.33-1.17,2a1.11,1.11,0,0,1,0-1Zm1.42-6.37c.05-.36-.09-.68.11-1a1.64,1.64,0,0,1,.7-.56,2.63,2.63,0,0,0,.49,1.5c.82,1.17-1.07,1.16-1.4,1.79a.68.68,0,0,0,0,.53l-.26-.05a.2.2,0,0,0,0-.25c-.39-.59.31-1.32.39-1.93ZM30,31a.45.45,0,0,1,.22-.07c.26,0,.39.32.53.54l.08.11a1.64,1.64,0,0,0,.83.51,4.74,4.74,0,0,1,.65.24.19.19,0,0,0,.15.09l.09.06a.26.26,0,0,0,.24,0,2.12,2.12,0,0,0-.87,1.34c0,.33.15,1.3-.58,1.15a7.07,7.07,0,0,0-.91-.25,2.31,2.31,0,0,0-1.64.46,2.18,2.18,0,0,0-.75,1.15l-.1,0a4.34,4.34,0,0,0-.53.31.25.25,0,0,0-.1-.29h0a1.29,1.29,0,0,1,.22-1.53h0a2.59,2.59,0,0,0,.56-.73,2.74,2.74,0,0,0,.17-.87v-.09A2.45,2.45,0,0,1,29,31.77,4.17,4.17,0,0,1,30,31Zm2.88,1.15-.2-.14c-.36-.89.28-1.49,1.05-1.62a1.86,1.86,0,0,1,.77,0,1.41,1.41,0,0,1,.76.48A1.74,1.74,0,0,0,35,31.89a.51.51,0,0,0-.59-.19h0a4.53,4.53,0,0,0-1.39.66.19.19,0,0,0,0-.27Zm4.49-.86a1.24,1.24,0,0,1,.17.29,6.1,6.1,0,0,0-.34.66,1.15,1.15,0,0,1-1.06.71,1.3,1.3,0,0,1-.63-.19.66.66,0,0,1-.17-.16l0,0a.22.22,0,0,0,.18-.29,1.12,1.12,0,0,1,.2-1.07.26.26,0,0,0,.16-.16l.15-.11a.84.84,0,0,1,.3-.11l.12.17a.26.26,0,0,0,.46-.08,1.36,1.36,0,0,1,.5.4ZM29.47,29c0-.34.07-.77.56-.78a2.72,2.72,0,0,1,.79.23h0a1.63,1.63,0,0,0,1.77-.72c.27-.32.46-.7.73-1a1.7,1.7,0,0,1,1.25-.51h.08A5,5,0,0,0,36.21,26a5.74,5.74,0,0,0,.07.93c-.51-.34-1-.46-1.42,0a1.41,1.41,0,0,0,.08,1.58A16.53,16.53,0,0,0,36,30.33l-.19.07-.18.1c-1.1-1.37-3.73-.52-3.5,1.22L32,31.66a1.63,1.63,0,0,1-.69-.35,6,6,0,0,1-.39-.58l-.07-.08a.84.84,0,0,0-1-.11,3.06,3.06,0,0,1-.22-.6,3.12,3.12,0,0,1-.1-.89ZM25,37.26a1.78,1.78,0,0,0-.41.75,1.69,1.69,0,0,0,0,.79c0,.16.09.33.13.49.1.42-.21.69-.57.37a1.88,1.88,0,0,1-.41-.56v0a2.15,2.15,0,0,0-.33-.51.23.23,0,0,0,.1-.19s0,0,0-.05a3.21,3.21,0,0,1,.52-2c.36-.45.9-.67,1.22-1.17s-.09-1,0-1.58c.18-.91,1.22-.83,1.85-.46a1.53,1.53,0,0,1,.22.16.26.26,0,0,0,.41-.12c0,.17,0,.35-.07.51-.11.56-.73.87-1,1.37a1.89,1.89,0,0,0,.11,1.41.24.24,0,0,0,.12.14.22.22,0,0,0,.23.2h0L27,37a1.74,1.74,0,0,0-.84-.25,1.56,1.56,0,0,0-1.2.51Zm.14,8.21-.07,0h0l-2-1.15c-.45-.27-.93-.49-.65-1.1.19-.41.73-.55,1.12-.65A3.46,3.46,0,0,0,25.07,42c.64-.6,1.24-1.15,2.17-.69a.22.22,0,0,0,.15,0l.31.36h0c-.56.12-1.1.17-1.35.73a1,1,0,0,0,0,.7c.17.55-.35.75-.67,1a1.65,1.65,0,0,0-.57,1.36Zm-2.39,1.87h-.13a1.53,1.53,0,0,0-.5.09c-.11-.5.34-.94.68-1.27a1.23,1.23,0,0,1,.86-.36,3.43,3.43,0,0,1,.59,0,.19.19,0,0,0,.21-.12l.35.2a.22.22,0,0,0,.23,0l.11,0h.09a1.28,1.28,0,0,0,.24.38l-.36.73a1,1,0,0,0-.37-.35,1.47,1.47,0,0,0-1-.1,1.66,1.66,0,0,0-1,.75Zm0,2a1.75,1.75,0,0,0-.53.27,1,1,0,0,1,.31-1.83l0,.14a1.53,1.53,0,0,0,.26,1.42Zm5.53-7.74-.05-.07-.57-.79c-.32-.45.22-.55.56-.73s.95-.66.92-1.18-.51-1-.66-1.59a1.58,1.58,0,0,1,.2-1.23,1.9,1.9,0,0,1,1-.79,2.19,2.19,0,0,1,1.39.12,2.21,2.21,0,0,0,.58.12h0a.81.81,0,0,0,.74-.73c0-.26,0-.53,0-.8a1.5,1.5,0,0,1,.6-1,3.57,3.57,0,0,1,.72-.47l.06,0a5.4,5.4,0,0,1,.55-.26c.29-.12.42.26.51.44a1.32,1.32,0,0,0,1,.69,1.92,1.92,0,0,0,1.14-.13l.1,0A2.42,2.42,0,0,0,37.84,32a.74.74,0,0,1,.48-.46l0,.09a.24.24,0,0,0,.43,0,.88.88,0,0,0,.6-.1,4.85,4.85,0,0,0,.59-.45,6.17,6.17,0,0,1,1-.81c.16-.09.95-.55,1.07-.17,0,.1.05.19.07.29a2.64,2.64,0,0,0,.18.56.85.85,0,0,0,.13.19,1,1,0,0,0,1,.29c.69-.18,1.4-.57,1.92,0L44,31.8a32.67,32.67,0,0,0-9.44,4,26.61,26.61,0,0,0-6.27,6,.2.2,0,0,0,0-.19ZM52.88,29.07a.44.44,0,0,1,0,.18c-.13.84.31,1,1.07,1.09l1.54.26a1.78,1.78,0,0,1,.8.31.58.58,0,0,1,.19.29,3.91,3.91,0,0,1,.1.61,1.38,1.38,0,0,0,.57.82c.31.23,1.38.81.87,1.33a11.37,11.37,0,0,0-4.17-2.74,9,9,0,0,0-1.71-.47,14.87,14.87,0,0,0-6.26.56,1.78,1.78,0,0,0-.37-.39,1.34,1.34,0,0,0-.78-.29,2.19,2.19,0,0,0-.9.18,2.55,2.55,0,0,1-.61.18.41.41,0,0,1-.38-.15l0,0A1.09,1.09,0,0,0,44,30.24a1.57,1.57,0,0,0,.12-.23,2.69,2.69,0,0,1,.39-.85A1.62,1.62,0,0,1,46,28.66a2.29,2.29,0,0,1,1,.55l.23.18a2.26,2.26,0,0,0,1.12.45.86.86,0,0,0,.22,0,1.29,1.29,0,0,0,.91-.69c.14-.21.27-.43.41-.61a1.59,1.59,0,0,1,1.53-.42c.4.07,1.37.42,1.49.94Zm4.86,3.37a1.47,1.47,0,0,1-.71-.88,9.73,9.73,0,0,0,.71.88ZM60,36.86a9.86,9.86,0,0,0-1.66-2.59h0a.87.87,0,0,0,.18-1l.06.07a.24.24,0,0,0,.34-.34,13.65,13.65,0,0,1-1.54-1.75,6.75,6.75,0,0,1-.85-1.91,3.45,3.45,0,0,0-1.79-2.5c-.7-.26-1.52-.31-2-1A11,11,0,0,1,52,24.38c-.65-1.21-2-1-3.06-.65a.25.25,0,0,0,0,.47.21.21,0,0,0,.15,0,5.83,5.83,0,0,1,1-.27,1.45,1.45,0,0,1,1.24.29A3.79,3.79,0,0,1,52,25.59c.49,1.09,1.35,1.29,2.41,1.64a2.22,2.22,0,0,1,1.33,1.37c.23.54.38,1.14.56,1.66l.06.15a3.75,3.75,0,0,0-1.17-.33l-.92-.15c-.33-.06-1.05,0-1-.54.13-.78-.48-1.19-1.14-1.47a.25.25,0,0,0,.15-.28,3.06,3.06,0,0,0-.35-1,4.63,4.63,0,0,0-1.2-1.35,8.08,8.08,0,0,0-1.08-.7,6.76,6.76,0,0,0-.82-.37,6.48,6.48,0,0,0-.65-.21.26.26,0,0,0-.11-.4c-.33-.12-.66-.24-1-.34a8.76,8.76,0,0,0-4.69-.36,5,5,0,0,0-2.22,1.16,4.35,4.35,0,0,1-1.17.21c-.23,0-.48,0-.72,0a.44.44,0,0,0-.26-.12c-3-.31-6.08.94-8.73,2.24a22.69,22.69,0,0,0-7.43,5.5A21.87,21.87,0,0,0,17.68,41,15.14,15.14,0,0,0,17,46.28a12.58,12.58,0,0,0,1.92,4.77l0,.06a1.17,1.17,0,0,0-.15,1.17,1.32,1.32,0,0,0,1.28.79c.66,0,1.48-.71,2.15-.58.37.52.89.94,1.36.52a.4.4,0,0,0,.28.11,42,42,0,0,0,5.25-.3,23.86,23.86,0,0,0,5-1.35c3.32-1.24,6.68-2.37,10-3.56C50.05,45.79,56,43,59.82,37.78a.35.35,0,0,0,0-.37.46.46,0,0,0,.14-.55Z"/><path class="cls-2" d="M54.45,37.28c-.2,0-.59,0-.54-.32s.4-.37.6-.45l.06,0a.23.23,0,0,0,.11.06c.2,0,.46.16.48.4s-.51.36-.72.35Zm.36-1.21a.23.23,0,0,0-.25.09.26.26,0,0,0-.3-.07c-.43.18-.93.5-.84,1s.69.61,1.14.63,1-.23,1.07-.75a1,1,0,0,0-.83-1Z"/><path class="cls-2" d="M44.53,39a1,1,0,0,1-.35.3c-.14.08-.54.27-.64,0s.34-.46.55-.54a4.06,4.06,0,0,1,.48.06h0a.57.57,0,0,1-.06.13Zm-.37-.68a.2.2,0,0,0-.13,0,.18.18,0,0,0-.14.05c-.43.18-.92.49-.82,1s.71.61,1.15.43,1-.62.87-1.09-.58-.38-.92-.41Z"/><path class="cls-2" d="M41.84,38.71a5,5,0,0,1-1.58.79c-.6.18-.75-.31-1.19-.51a.88.88,0,0,0-.82.2c-.16.11-.66.68-.82.12a1.75,1.75,0,0,1,1.67-2.11.24.24,0,0,0,.21-.14h.09A2.87,2.87,0,0,1,40,37c.45,0,.4.32.61.53a.8.8,0,0,0,.86.17c.24-.06,1-.66,1,.12,0,.37-.44.71-.69.9Zm.44-1.81c-.3,0-1.16.49-1.36.2-.42-.63-.93-.67-1.64-.51a.21.21,0,0,0-.16.13h0a2.28,2.28,0,0,0-1.73.88A2.16,2.16,0,0,0,37,39.65c.27.54.83.5,1.26.14.15-.13.52-.53.75-.19a.94.94,0,0,0,.28.29,1.41,1.41,0,0,0,.91.12c1.08-.15,3.35-1.4,2.61-2.76a.72.72,0,0,0-.57-.35Z"/><path class="cls-2" d="M39.45,45.46a.88.88,0,0,0-.34.11.71.71,0,0,1-.61.15c-.25,0-.35-.15-.28-.39a3.1,3.1,0,0,1,1-.78.27.27,0,0,0,.08-.07h.06c.39-.07.88,0,1,.41.24.65-.62.51-1,.58ZM39.24,44a.2.2,0,0,0-.14.09l-.11,0c-.53.28-1.48.85-1.31,1.56.07.31.61.47.87.53a.88.88,0,0,0,.46,0,.73.73,0,0,0,.2-.11,1,1,0,0,1,.62-.16c.72,0,1.21-.41,1.06-1.17s-1-.85-1.64-.74Z"/><path class="cls-2" d="M31,49.17c-.35.12-.89.09-.88-.42a.54.54,0,0,0-.49-.56c-.37,0-.66.54-.91.74s-1,.58-1.21,0c-.14-.33.09-.7.29-1a3.61,3.61,0,0,1,2.71-1.17c.37,0,.64.06.41.48a1.54,1.54,0,0,0-.18.52.71.71,0,0,0,.37.74l.19.08c.13.36,0,.55-.3.59Zm.43-1.05c-.66-.26.8-1.54-.17-1.73a4,4,0,0,0-3.65,1.07.24.24,0,0,0-.13.1l-.08.12-.24.29a.19.19,0,0,0,0,.2,1.22,1.22,0,0,0,.08,1.24c.42.61,1.27.26,1.74,0,.21-.14.69-.81.67-.29a.66.66,0,0,0,.31.57,1.67,1.67,0,0,0,1.83-.35.7.7,0,0,0-.33-1.15Z"/><path class="cls-2" d="M25.77,31a1.86,1.86,0,0,0,.44-.27l.06.06a.63.63,0,0,1,.18.16s-.19.07-.18.07c-.18,0-.36.09-.54.11s-.12,0-.12,0,.11-.12.16-.15Zm0,.61.41-.08.2,0a.68.68,0,0,0,.48-.24c.21-.35-.07-.68-.37-.87a.21.21,0,0,0-.29,0,.24.24,0,0,0-.36,0,3.16,3.16,0,0,1-.46.27.64.64,0,0,0-.14.13.59.59,0,0,0-.13.29c-.06.4.33.57.66.52Z"/></g></g></svg>