<svg xmlns="http://www.w3.org/2000/svg" viewBox="0 0 75.93 75.93"><defs><style>.cls-1{fill:#1f3238;}.cls-2{fill:#fff;}</style></defs><title>menu-brunch-icon</title><g id="Layer_2" data-name="Layer 2"><g id="Layer_1-2" data-name="Layer 1"><circle class="cls-1" cx="37.97" cy="37.97" r="37.97"/><path class="cls-2" d="M36.45,55.57q0-2.19,0-4.38h-.51q-.18,2.21-.15,4.44a1.18,1.18,0,0,0,.67-.05Zm.11-30.78-.05,0a2.37,2.37,0,0,1-.95-.69,1.8,1.8,0,0,0-1.47,1.75,5.42,5.42,0,0,0,2.47-1ZM39,24.33a2.92,2.92,0,0,1-1.94.57,5.89,5.89,0,0,1-3,1.35,2,2,0,0,0,.27.62c1.36-.1,4.46-.8,4.65-2.55ZM39,23a1.7,1.7,0,0,0-1-1.48,3.63,3.63,0,0,0-.1.68c0,.49-.79.5-.77,0a4.69,4.69,0,0,1,.11-.81,1.36,1.36,0,0,0-1.38.95,1.41,1.41,0,0,0,1,1.72C37.57,24.21,39,24,39,23Zm1.66,2.06a2.29,2.29,0,0,0-.81-.68c-.23,2.2-3.58,3.12-5.42,3.25h-.07a.42.42,0,0,1-.1.11,3.07,3.07,0,0,0-1,1.21c2.81-.43,5.81-1.31,7.39-3.88Zm.08,32.35c.18,0,.2,0,.06-.05a4.45,4.45,0,0,0-.68-.44,7,7,0,0,0-2.93-.86.38.38,0,0,1-.23.13,2,2,0,0,1-1.42.14.39.39,0,0,1-.25.12,11.17,11.17,0,0,0-3.6.91,14.28,14.28,0,0,0,6.4.45c.67-.08,1.35-.18,2-.29l.64-.1Zm.2-30.19a2.3,2.3,0,0,0,0-1.72c-1.7,2.57-4.79,3.48-7.71,3.9h-.09a2.57,2.57,0,0,0-.09.71c0,.54,1.1.19,1.45.14s1-.14,1.44-.24a8,8,0,0,0,4.91-2.68.43.43,0,0,1,.11-.1Zm.8,2.35a3,3,0,0,0-.2-.33.34.34,0,0,1-.28-.33,3.12,3.12,0,0,0-.48-.39,11,11,0,0,1-6.3,2.5,5.49,5.49,0,0,1-1.47.18,3.09,3.09,0,0,0-1.1,1.57,6.27,6.27,0,0,0,2.85-.15,27,27,0,0,0,2.79-.68,7.79,7.79,0,0,0,4.19-2.35Zm.3,1.7A2.93,2.93,0,0,0,41.88,30a8.58,8.58,0,0,1-4.27,2.32,27.8,27.8,0,0,1-3.19.76,6,6,0,0,1-2.7.07c-.15.48-.34,1.2-.13,1.25a9.33,9.33,0,0,0,3.83,0,27.26,27.26,0,0,0,3.72-1,4.58,4.58,0,0,0,2.76-2A.35.35,0,0,1,42,31.3ZM41,44a27.43,27.43,0,0,0,1.46-7.18,19.63,19.63,0,0,1-8,.76,8.7,8.7,0,0,1-3.36-1.25,31.73,31.73,0,0,0,3.41,13.81l0,.05a6.91,6.91,0,0,0,3.48,0c1.59-1.68,2.31-4.08,3-6.23ZM42.8,33.42a3.44,3.44,0,0,0-.57-1.08,6.25,6.25,0,0,1-3.25,2,21.52,21.52,0,0,1-4.84,1.08,8.84,8.84,0,0,1-2.53-.15l-.33-.1h-.11c-.27,0,.26.46.31.49.21.13.42.26.65.37l.41.19c3.56-.31,7.19-.87,10.28-2.78ZM42.59,36a3.5,3.5,0,0,0,.31-2.12,22.27,22.27,0,0,1-9.44,2.68l.11,0a10.87,10.87,0,0,0,2.86.39,26,26,0,0,0,6.15-1Zm4.3-13.76c.21-.35.23-.8-.28-.78a1.11,1.11,0,0,0-.57.17,3.53,3.53,0,0,0-.87.91,18.3,18.3,0,0,0-1.25,2,29.34,29.34,0,0,0-1.87,4.28,3.66,3.66,0,0,1,.5.93q.75-1.68,1.65-3.28c.42-.75.87-1.49,1.34-2.22s.93-1.29,1.35-2Zm.49-1.32c.83.5.37,1.43,0,2-.58.81-1.14,1.64-1.65,2.49A41.85,41.85,0,0,0,42.82,31a.33.33,0,0,1,0,.08,3.87,3.87,0,0,1-.08.63,4.24,4.24,0,0,1,.57,4.67h0v0a27.9,27.9,0,0,1-1.63,8.18c-.76,2.25-1.53,4.69-3.28,6.38a.35.35,0,0,1-.44.06,6.91,6.91,0,0,1-.72.11q0,2.09,0,4.17a7.43,7.43,0,0,1,3.73,1.26c.38.27.89.72.58,1.23s-1.36.49-1.89.57c-3.07.46-6.24.68-9.13-.64a.39.39,0,0,1,0-.66A12.29,12.29,0,0,1,35,55.71q0-2.31.15-4.61a7.43,7.43,0,0,1-.92-.2.35.35,0,0,1-.25-.22.37.37,0,0,1-.15-.16,32.58,32.58,0,0,1-3.51-15.09.66.66,0,0,1,0-.44,1,1,0,0,1,.36-.48,1,1,0,0,1,0-.26,5.6,5.6,0,0,1,1.61-3.51,1.85,1.85,0,0,1-.1-.94,3.74,3.74,0,0,1,1.45-2.6,2.58,2.58,0,0,1,1.48-3.81,2.12,2.12,0,0,1,0-1.36,2.17,2.17,0,0,1,2.3-1.36l0,0a4.35,4.35,0,0,1,.52-.89c.29-.39,1,0,.66.39a4.06,4.06,0,0,0-.41.68,2.37,2.37,0,0,1,1.4,2.6.36.36,0,0,1,.08.13A3,3,0,0,1,41.36,28l.11.09a25.87,25.87,0,0,1,2.18-4.71c.71-1.16,2.05-3.52,3.74-2.51Z"/></g></g></svg>