<svg xmlns="http://www.w3.org/2000/svg" viewBox="0 0 278.41 185.58"><defs><style>.cls-1{fill:#1f3238;}.cls-2{fill:#fff;}</style></defs><title>taco-bar-logo-rct</title><g id="Layer_2" data-name="Layer 2"><g id="Layer_1-2" data-name="Layer 1"><rect class="cls-1" x="0.06" width="278.29" height="185.58"/><path class="cls-2" d="M72.94,106.63c-.23.23-.34.37-.34.44s.11.22.34.44q-.67,0-1.58-.06a4.52,4.52,0,0,1-1.62-.4,16.13,16.13,0,0,1-1.4-1.4,3.81,3.81,0,0,0,1.76-.36,2.29,2.29,0,0,0,1-1.46v-9.7a1.22,1.22,0,0,0,0-.44s-.16-.06-.38-.06L70.06,93a.88.88,0,0,1,0-1.35l.66-.72a.36.36,0,0,0,.38-.21.47.47,0,0,0,0-.21V81.61a2.94,2.94,0,0,0-.85-1.06A2.8,2.8,0,0,0,69.21,80,3.23,3.23,0,0,0,68,80a4.51,4.51,0,0,0-1.1.3,1.84,1.84,0,0,0-.66.64A6,6,0,0,0,65.72,82a10,10,0,0,0-.42,1.25,4.61,4.61,0,0,0-.17,1.19A17.27,17.27,0,0,1,63.68,83a4.64,4.64,0,0,1-.4-1.1,4.42,4.42,0,0,1-.06-.72h.93l.47-.42a.35.35,0,0,0-.47-.47q-.34-.42-.68-.15t-.68.61V80.3a5.45,5.45,0,0,0-1-1.4,4.73,4.73,0,0,0-1.31-1H86.42a4.56,4.56,0,0,0-1.42,1,5.23,5.23,0,0,0-1,1.4v.47c-.23-.23-.44-.43-.66-.61s-.43-.13-.66.15a.81.81,0,0,0-.25,0,.39.39,0,0,0-.25.42.41.41,0,0,1,.27.06l.15.15a1.61,1.61,0,0,0,.08.21h.85a6.75,6.75,0,0,1,0,.72,3.9,3.9,0,0,1-.38,1.1q-.34.38-.7.74l-.7.7a5.25,5.25,0,0,0-.15-1.19,8.19,8.19,0,0,0-.4-1.25,5.24,5.24,0,0,0-.59-1.08,1.87,1.87,0,0,0-.72-.64,4.53,4.53,0,0,0-1.08-.3,2.87,2.87,0,0,0-1.1,0,2,2,0,0,0-.93.51,2.13,2.13,0,0,0-.57,1.06,1.5,1.5,0,0,0-.4.93,9.36,9.36,0,0,0-.06,1v7.37q.68.38.78.72a2.23,2.23,0,0,1,0,1.35q-.11.34-.78.68V102a8.77,8.77,0,0,0,.06,1,1.47,1.47,0,0,0,.4.91,1.51,1.51,0,0,0,.66,1.46,3.45,3.45,0,0,0,1.67.36q0,.76-1.35,1.4a4.5,4.5,0,0,1-1.6.4q-.88.06-1.22.06v-.89H72.94Z"/><path class="cls-2" d="M95.19,98A3.22,3.22,0,0,0,94,96.2,1.86,1.86,0,0,0,92.44,96a4.32,4.32,0,0,0-1.63,1,10.45,10.45,0,0,0-1.5,1.8L88.84,102a1.75,1.75,0,0,1-.19.74,2.68,2.68,0,0,0-.19,1.12q.3.64.44,1a1.56,1.56,0,0,0,.87.74,1,1,0,0,1-.3.66l-.64.66a3.4,3.4,0,0,1-1.27.4q-.64.06-1,.06v-.93a.39.39,0,0,0,0-.17.38.38,0,0,0-.34-.21l-.47.38v.93a8.65,8.65,0,0,1-.91-.06,1.29,1.29,0,0,1-.87-.4l-.63-.66a1,1,0,0,1-.3-.66,9.63,9.63,0,0,0,1.31-.74,2.87,2.87,0,0,0,.93-1,2.24,2.24,0,0,1,.23-1.12,1.51,1.51,0,0,0,.23-.74l1.78-8a3.13,3.13,0,0,1-.83-1.1,2.66,2.66,0,0,1-.11-.72,1.13,1.13,0,0,1,.13-.51,1.46,1.46,0,0,1,.28-.42,2.51,2.51,0,0,1,.53-.42H88L89.3,84V81.73a1.52,1.52,0,0,0-.27-1,.76.76,0,0,0-.57-.34V80a1,1,0,0,1,.25-.64.77.77,0,0,1,.59-.3,2.87,2.87,0,0,1,1.55-.74A10.74,10.74,0,0,1,92,78.18V79a2.5,2.5,0,0,0,.47.4,1.16,1.16,0,0,0,.47.06c.23,0,.35,0,.38-.06a1.06,1.06,0,0,0,0-.4q.34,0,.17-.25a1,1,0,0,1-.17-.59l.57,0q.4,0,.87.08a3.5,3.5,0,0,1,.91.25,3,3,0,0,1,.78.49q1.4.72,1.4,1.4a2.24,2.24,0,0,0-1.44.34,1.23,1.23,0,0,0-.38,1V84l1.36,6.31a1.19,1.19,0,0,1,.68.23,1.18,1.18,0,0,0,.68.23,7.73,7.73,0,0,1,.59.85,4.84,4.84,0,0,1,.3.51,1.25,1.25,0,0,1-.28.72,7.15,7.15,0,0,0-.61,1.1h-.47l1.82,8a1.33,1.33,0,0,0,.28.74,8.48,8.48,0,0,1,.61,1.12,2.65,2.65,0,0,0,1,1,8.75,8.75,0,0,0,1.69.74,1,1,0,0,1-.3.66l-.64.66a4,4,0,0,1-1.5.4q-.83.06-1.16.06a1.17,1.17,0,0,0-.06-.47,2.55,2.55,0,0,0-.4-.47l-.47-.38a.8.8,0,0,0-.32.06,1.68,1.68,0,0,0-.28.15l-.3.17a1.17,1.17,0,0,0,.06.47,2.52,2.52,0,0,0,.4.47q-.68,0-1.59-.06a3.82,3.82,0,0,1-1.55-.4q-1.4-.68-1.4-1.31a7.69,7.69,0,0,0,1.27-.74,1.23,1.23,0,0,0,.55-1V102Zm-5-3.6L92,93.1a3.07,3.07,0,0,1,1.82-.57L92,85.38,90.7,93Z"/><path class="cls-2" d="M103.36,90.29a17.85,17.85,0,0,1,.55-4.3,34.49,34.49,0,0,1,1.23-4,7.91,7.91,0,0,1,2.37-3,7,7,0,0,1,2.56-1.16,7.24,7.24,0,0,1,2.31-.13,14.61,14.61,0,0,0,1.57.13H120a2.85,2.85,0,0,0-1.17,1,7.7,7.7,0,0,1-1.12,1.29c-.25-.23-.42-.34-.49-.34s-.22.11-.45.34q-.34,0-.38.06a1.23,1.23,0,0,0,0,.44l.42.47h.42a.54.54,0,0,1,.15.74q-.23.4-.57,1.12-.34.34-.72.66a1.16,1.16,0,0,1-.72.32,6.69,6.69,0,0,0-.08-1,8.43,8.43,0,0,0-.25-1.14,5.36,5.36,0,0,0-.42-1,1.66,1.66,0,0,0-.64-.68,3,3,0,0,0-2.69.23,5.8,5.8,0,0,0-1.91,2.27,15.15,15.15,0,0,0-1.25,3.56,28.8,28.8,0,0,0-.63,4.11v.55a7.85,7.85,0,0,1,.68.68,1.08,1.08,0,0,1,.3.72,1,1,0,0,1-.3.66q-.3.32-.68.66H107a28.52,28.52,0,0,0,.7,4.51,16.63,16.63,0,0,0,1.4,3.87,6.68,6.68,0,0,0,2.08,2.48,3,3,0,0,0,2.77.32.75.75,0,0,0,.64-.38,3.54,3.54,0,0,0,.42-1,7.93,7.93,0,0,0,.25-1.23,9.18,9.18,0,0,0,.08-1.16,1.12,1.12,0,0,1,.72.34,3.29,3.29,0,0,1,.72,1.06,2.72,2.72,0,0,1,.57.93.77.77,0,0,1-.15.93h-.42c-.23,0-.35,0-.38.06a1,1,0,0,0,0,.4.79.79,0,0,0,0,.25.36.36,0,0,0,.38.21,1,1,0,0,0,.45-.06,5,5,0,0,0,.49-.4l.59.87c.17.24.34.46.51.66l.53.59c.18.2.4.41.66.64h-6.06q-.51,0-1.57.06a6.87,6.87,0,0,1-2.31-.3,8.1,8.1,0,0,1-2.56-1.33,8.54,8.54,0,0,1-2.37-3,16.89,16.89,0,0,1-1.4-4.49,29.87,29.87,0,0,1-.38-4.83h-.42a6.75,6.75,0,0,1-.72-.66,1,1,0,0,1-.3-.66,1.08,1.08,0,0,1,.3-.72,5.62,5.62,0,0,1,.72-.68,1.42,1.42,0,0,1,0-.49S103.13,90.29,103.36,90.29Z"/><path class="cls-2" d="M138.76,96.85q0,1.57,0,2.88a11.29,11.29,0,0,1-.36,2.52,9.68,9.68,0,0,1-1,2.35,11.38,11.38,0,0,1-1.84,2.33,10,10,0,0,1-2.24,1.23,3.38,3.38,0,0,1-2.33.17v-.42q0-.42-.3-.49a3,3,0,0,0-.63-.06.29.29,0,0,0-.21.08.5.5,0,0,0-.21.47v.42a3.66,3.66,0,0,1-2.48-.17,13.78,13.78,0,0,1-2.1-1.23,9.57,9.57,0,0,1-2.82-4.68,11.29,11.29,0,0,1-.36-2.52q0-1.31,0-2.88V93.63q-.34-.34-.64-.68a.92.92,0,0,1,0-1.35l.64-.72V88.55q0-1.52,0-2.84a11.3,11.3,0,0,1,.36-2.52,10.19,10.19,0,0,1,1-2.35A11,11,0,0,1,125,78.47a14.66,14.66,0,0,1,2.1-1.16,3.93,3.93,0,0,1,2.48-.19v.47a.33.33,0,0,0,.21.34.47.47,0,0,0,.21,0,4.49,4.49,0,0,0,.63,0,.31.31,0,0,0,.3-.34v-.47a3.66,3.66,0,0,1,2.33.19,10.49,10.49,0,0,1,2.24,1.16,12.37,12.37,0,0,1,1.84,2.37,9.69,9.69,0,0,1,1,2.35,11.3,11.3,0,0,1,.36,2.52q0,1.31,0,2.84v2.33a2,2,0,0,1,.44.72,1.57,1.57,0,0,0,.49.68,1.57,1.57,0,0,0-.49.68,1.7,1.7,0,0,1-.44.68v3.22Zm-5.89-4.57a1.71,1.71,0,0,0,.44-.68,2,2,0,0,1,.44-.72V85.76q0-.64,0-1.31a13,13,0,0,0-.15-1.31,3.58,3.58,0,0,0-.28-1A5.68,5.68,0,0,0,132,79.81a2.18,2.18,0,0,0-3.34,0,5.67,5.67,0,0,0-1.31,2.35,3.55,3.55,0,0,0-.27,1,12.43,12.43,0,0,0-.15,1.31q0,.68,0,1.31v5.12a1.55,1.55,0,0,1,.4.72,3.65,3.65,0,0,1,0,1.35,1.32,1.32,0,0,1-.4.68v5.82q0,.74,0,1.48a11.69,11.69,0,0,0,.15,1.35,3.52,3.52,0,0,0,.27,1,5.67,5.67,0,0,0,1.31,2.31,2.18,2.18,0,0,0,3.34,0,5.68,5.68,0,0,0,1.31-2.31,3.55,3.55,0,0,0,.28-1,12.13,12.13,0,0,0,.15-1.35q0-.74,0-1.48V93.63a1.7,1.7,0,0,1-.44-.68A1.71,1.71,0,0,0,132.87,92.28Z"/><path class="cls-2" d="M162.43,77.88a12.51,12.51,0,0,1,3.43-.87,8.21,8.21,0,0,1,3.3.28A5.66,5.66,0,0,1,171.79,79a6.64,6.64,0,0,1,1.44,3.45,7.25,7.25,0,0,1,0,3.39,12,12,0,0,1-1.4,3.43,6.53,6.53,0,0,0-.72.89,2.69,2.69,0,0,1-1.1.89,8.34,8.34,0,0,1,4.32,3.41,9.63,9.63,0,0,1,1.19,6.16,8.66,8.66,0,0,1-1.67,4.15,9.34,9.34,0,0,1-3.22,2.69,9.1,9.1,0,0,1-8.24,0h-.51a4.76,4.76,0,0,0,.44-.42.86.86,0,0,0,.06-.42.46.46,0,0,1-.49-.28.5.5,0,0,0-.89,0,.43.43,0,0,1-.45.28,1.23,1.23,0,0,0,0,.42,2.71,2.71,0,0,0,.38.42q-.72,0-1.65,0a3.65,3.65,0,0,1-1.57-.38l-.68-.7-.68-.7a7.29,7.29,0,0,0,1.61-.72,1.23,1.23,0,0,0,.59-1.1,3.2,3.2,0,0,0,.49-1.08,4.7,4.7,0,0,0,.06-.74V93.8h-.55a9.15,9.15,0,0,0-.59-1.1,1.31,1.31,0,0,1-.25-.72,2.1,2.1,0,0,1,.25-.51l.28-.44a2.31,2.31,0,0,1,.32-.4h.55V83.85a8.47,8.47,0,0,0-.06-1.16,3.49,3.49,0,0,0-.49-1.16,1,1,0,0,0-.59-1,3.43,3.43,0,0,0-1.61-.32q.34-.38.68-.7l.68-.66a2.41,2.41,0,0,1,1.57-.89,12.4,12.4,0,0,1,1.65-.13,1.35,1.35,0,0,0-.38.68,1.4,1.4,0,0,0,0,.34,2.05,2.05,0,0,0,.45.38,2.37,2.37,0,0,0,.89,0,2.65,2.65,0,0,0,.49-.38l-.08-.34a3.58,3.58,0,0,1-.15-.34.84.84,0,0,0-.27-.34Zm1.27,13.17v-.42h.55a4.12,4.12,0,0,0,1.74-.72,5.45,5.45,0,0,0,1.31-1.35,7.39,7.39,0,0,0,.89-1.8,16.35,16.35,0,0,0,.55-2.05v-.42a10.64,10.64,0,0,0-.74-2.39A5.77,5.77,0,0,0,166.81,80a1.33,1.33,0,0,0-1.36-.42q-.7.21-1.21,1.91a3.47,3.47,0,0,0-.49,1.16,8.47,8.47,0,0,0-.06,1.16Zm6.35,10.5a11.7,11.7,0,0,0,.32-2.92,7.42,7.42,0,0,0-.53-2.75,4.46,4.46,0,0,0-1.55-2,3.68,3.68,0,0,0-2.69-.53h-.51a1.17,1.17,0,0,0-.66.21,1.3,1.3,0,0,1-.74.21V102a4.7,4.7,0,0,0,.06.74,3.18,3.18,0,0,0,.49,1.08q.51,1.91,1.36,2.22a1.79,1.79,0,0,0,1.71-.28,6,6,0,0,0,1.63-1.8A9.27,9.27,0,0,0,170.05,101.55Z"/><path class="cls-2" d="M188.51,98a3.22,3.22,0,0,0-1.23-1.76,1.86,1.86,0,0,0-1.52-.15,4.32,4.32,0,0,0-1.63,1,10.45,10.45,0,0,0-1.5,1.8l-.47,3.09a1.75,1.75,0,0,1-.19.74,2.68,2.68,0,0,0-.19,1.12q.3.64.44,1a1.56,1.56,0,0,0,.87.74,1,1,0,0,1-.3.66l-.64.66a3.4,3.4,0,0,1-1.27.4q-.64.06-1,.06v-.93a.39.39,0,0,0,0-.17.38.38,0,0,0-.34-.21l-.47.38v.93a8.65,8.65,0,0,1-.91-.06,1.29,1.29,0,0,1-.87-.4l-.63-.66a1,1,0,0,1-.3-.66,9.63,9.63,0,0,0,1.31-.74,2.87,2.87,0,0,0,.93-1,2.24,2.24,0,0,1,.23-1.12,1.51,1.51,0,0,0,.23-.74l1.78-8a3.13,3.13,0,0,1-.83-1.1,2.66,2.66,0,0,1-.11-.72,1.13,1.13,0,0,1,.13-.51,1.46,1.46,0,0,1,.28-.42,2.51,2.51,0,0,1,.53-.42h.47L182.63,84V81.73a1.52,1.52,0,0,0-.27-1,.76.76,0,0,0-.57-.34V80a1,1,0,0,1,.25-.64.77.77,0,0,1,.59-.3,2.87,2.87,0,0,1,1.55-.74,10.74,10.74,0,0,1,1.16-.11V79a2.5,2.5,0,0,0,.47.4,1.16,1.16,0,0,0,.47.06c.23,0,.35,0,.38-.06a1.06,1.06,0,0,0,0-.4q.34,0,.17-.25a1,1,0,0,1-.17-.59l.57,0q.4,0,.87.08a3.5,3.5,0,0,1,.91.25,3,3,0,0,1,.78.49q1.4.72,1.4,1.4a2.24,2.24,0,0,0-1.44.34,1.23,1.23,0,0,0-.38,1V84l1.36,6.31a1.19,1.19,0,0,1,.68.23,1.18,1.18,0,0,0,.68.23,7.73,7.73,0,0,1,.59.85,4.84,4.84,0,0,1,.3.51,1.25,1.25,0,0,1-.28.72,7.15,7.15,0,0,0-.61,1.1h-.47l1.82,8a1.33,1.33,0,0,0,.28.74,8.48,8.48,0,0,1,.61,1.12,2.65,2.65,0,0,0,1,1,8.75,8.75,0,0,0,1.69.74,1,1,0,0,1-.3.66l-.64.66a4,4,0,0,1-1.5.4q-.83.06-1.16.06a1.17,1.17,0,0,0-.06-.47,2.55,2.55,0,0,0-.4-.47l-.47-.38a.8.8,0,0,0-.32.06,1.68,1.68,0,0,0-.28.15l-.3.17a1.17,1.17,0,0,0,.06.47,2.52,2.52,0,0,0,.4.47q-.68,0-1.59-.06a3.82,3.82,0,0,1-1.55-.4q-1.4-.68-1.4-1.31a7.69,7.69,0,0,0,1.27-.74,1.23,1.23,0,0,0,.55-1V102Zm-5-3.6,1.78-1.25a3.07,3.07,0,0,1,1.82-.57l-1.82-7.16L184,93Z"/><path class="cls-2" d="M211.46,102q0-1.35-.06-2.75a12.17,12.17,0,0,0-.44-2.75,3.76,3.76,0,0,0-1.67-2.58,4.69,4.69,0,0,0-3.79-.17V102a8.78,8.78,0,0,0,.06.91,1.37,1.37,0,0,0,.45.91,1.56,1.56,0,0,0,.61,1.44,3.07,3.07,0,0,0,1.63.38l-.68.68-.68.68a4.16,4.16,0,0,1-1.59.4q-.91.06-1.63.06a3,3,0,0,0,.44-.44,1,1,0,0,0,.06-.44h-1.86a1.45,1.45,0,0,0,0,.44,2.26,2.26,0,0,0,.34.44q-.68,0-1.55-.06a4.44,4.44,0,0,1-1.59-.4,15.24,15.24,0,0,1-1.36-1.35,3.18,3.18,0,0,0,1.65-.38,1.54,1.54,0,0,0,.64-1.44,1.38,1.38,0,0,0,.38-.91c0-.38,0-.68,0-.91V94.18l-.42-.47a5.76,5.76,0,0,1-.66-.68,1,1,0,0,1,0-1.35,5.87,5.87,0,0,1,.66-.68l.42-.51V83.64q0-.34,0-.93a1.41,1.41,0,0,0-.38-.93,1.76,1.76,0,0,0-.64-1.25,2.28,2.28,0,0,0-1.65-.61l1.36-1.35a4,4,0,0,1,1.59-.44q.87-.06,1.55-.06a2.38,2.38,0,0,0-.34.51,1.7,1.7,0,0,0,0,.47h1.86a1.16,1.16,0,0,0-.06-.47,2.9,2.9,0,0,0-.44-.51h.51a11.57,11.57,0,0,1,3.51-1,7.81,7.81,0,0,1,3.37.25A5.87,5.87,0,0,1,213.71,79a6.32,6.32,0,0,1,1.44,3.26,9.7,9.7,0,0,1-1.36,6.9q-.34.38-1,1t-1.33,1.33a5.12,5.12,0,0,1,2.58,2,8.78,8.78,0,0,1,1.17,2.9,11.23,11.23,0,0,1,.21,3q-.11,1.5-.27,2.52a2.59,2.59,0,0,0,.23.91,2.59,2.59,0,0,1,.23.91,3.18,3.18,0,0,0,.78,1.44,2.32,2.32,0,0,0,1.5.38,3,3,0,0,0-.53.7,1.72,1.72,0,0,1-.87.66,3.83,3.83,0,0,1-1.38.4q-.7.06-1.33.06.34-.34.34-.44t-.34-.44h-1v.89q-.34,0-1.19-.06a3.69,3.69,0,0,1-1.48-.4q-.34-.34-.64-.68a1,1,0,0,1-.3-.68,2.08,2.08,0,0,0,1.25-.38,1.67,1.67,0,0,0,.53-1.44,1.37,1.37,0,0,0,.44-.91A8.51,8.51,0,0,0,211.46,102Zm-4.57-22.48a.79.79,0,0,0-.61.34,1.74,1.74,0,0,0-.28,1.1,1.36,1.36,0,0,0-.45.89,8.21,8.21,0,0,0-.06.89V90.5a4.18,4.18,0,0,0,2.75-1.08A6.12,6.12,0,0,0,209.81,87a8,8,0,0,0,.49-2.9,8.43,8.43,0,0,0-.44-2.71,4,4,0,0,0-1.19-1.8A1.59,1.59,0,0,0,206.89,79.49Z"/><path class="cls-2" d="M0,170.44c.59,0,1.18,0,1.76,0H278.29v2.84H1.75c-.58,0-1.17.06-1.75.1Z"/><path class="cls-2" d="M0,143.8H278.33v2.75h-1.25q-17.58,0-35.16,0c-9.22,0-18.45.05-27.67.06H33l-33,0Z"/><path class="cls-2" d="M0,154.67c1.59-1.53,3.15-3.1,4.8-4.57a2.93,2.93,0,0,1,1.76-.73c3.94,0,7.88.08,11.82,0A3.23,3.23,0,0,1,21,150.56c1.35,1.46,2.74,2.87,4.36,4.55,1.62-1.71,3.09-3.23,4.51-4.8a2.48,2.48,0,0,1,2.1-.88c4,.08,7.93.06,11.89,0a3,3,0,0,1,2.37,1.05c1.38,1.49,2.79,2.95,4.36,4.59,1.15-1.21,2.2-2.15,3.06-3.24a6,6,0,0,1,5.67-2.5c3.32.26,6.68,0,10,0a2.87,2.87,0,0,1,1.75.72c1.62,1.51,3.14,3.12,4.91,4.9,1.61-1.67,3.09-3.31,4.69-4.81a3.24,3.24,0,0,1,2-.79q5.91-.12,11.82,0a3.29,3.29,0,0,1,2,.81c1.6,1.47,3.07,3.06,4.8,4.81,1.59-1.64,3.12-3.16,4.57-4.75a2.74,2.74,0,0,1,2.26-.92c3.66,0,7.33,0,11,0a3.85,3.85,0,0,1,3.14,1.24c1.32,1.48,2.77,2.85,4.21,4.32,1.55-1.53,3-2.93,4.42-4.37a3.2,3.2,0,0,1,2.58-1.1c3.78.08,7.57-.1,11.35,0a4.2,4.2,0,0,1,2.47,1c1.56,1.37,2.95,2.93,4.5,4.51,1.58-1.57,3.1-3,4.56-4.56a2.83,2.83,0,0,1,2.25-.93c3.93,0,7.87-.09,11.8-.05a3.25,3.25,0,0,1,2,.81c1.59,1.47,3.07,3.07,4.71,4.74,1.55-1.54,3-3,4.46-4.46a3.32,3.32,0,0,1,2.71-1.16c4,.08,8,0,12,.07a2.47,2.47,0,0,1,1.49.72c1.59,1.54,3.11,3.15,4.8,4.88,1.68-1.7,3.19-3.32,4.8-4.83a3,3,0,0,1,1.86-.78c3.93,0,7.86.06,11.79,0a3.14,3.14,0,0,1,2.49,1.07c1.36,1.46,2.77,2.86,4.3,4.44,1.49-1.49,2.94-2.83,4.27-4.28a3.83,3.83,0,0,1,3.36-1.26c2.78.14,5.58,0,8.37,0a31,31,0,0,1,3.51.05,2.7,2.7,0,0,1,1.31.86c1.5,1.44,3,2.93,4.59,4.54,1.49-1.49,3-2.94,4.45-4.48a2.76,2.76,0,0,1,2.25-.93c4,0,8-.08,12,0a3.12,3.12,0,0,1,1.87.79A51.41,51.41,0,0,1,277.5,154a4,4,0,0,1,.9,2.18l-6.47-6.62-5.86,6.29-5.9-6.2-6.87,7-6.72-7L240.72,156l-6-6.19-6.61,6.87-7-6.93-5.86,6.14-5.82-6.22-6.91,7.21-6.94-7.09-5.6,6.06-6-6.11-6.79,7-6.76-6.87-5.7,6-5.85-6.24-7,7.24-6.76-7-5.73,6-5.85-6.17-6.82,7-6.89-7-5.76,6.16-5.82-6-6.77,7-6.81-7-5.89,6-5.69-6-7,7.08-6.82-7.2-5.83,6.12-5.82-6-6.75,7.07L44,149.65l-6,6.05-5.79-6-6.65,6.84-6.88-7-5.9,6.24-6-6.18c-1.9,1.95-3.59,3.69-5.31,5.41A18.64,18.64,0,0,1,0,156.3Q0,155.49,0,154.67Z"/><path class="cls-2" d="M0,160.11,5.82,154l.45.29c0,2.28,0,4.55,0,6.83a2,2,0,0,1-.69,1.09C3.71,164,1.85,165.88,0,167.72Q0,163.92,0,160.11Z"/><path class="cls-2" d="M176.91,160.46l6.21-6.42.37.11a45.73,45.73,0,0,0,0,4.73,4.66,4.66,0,0,1-1.81,4.34c-1.6,1.39-3,3-4.58,4.57-2-2-4-4-6-6a1.51,1.51,0,0,1-.38-.95c0-2.2,0-4.41,0-6.63Z"/><path class="cls-2" d="M126.55,167.79c-2.05-2.06-4-4-5.93-6a1.7,1.7,0,0,1-.42-1.07c0-2.17,0-4.34,0-6.6l6.08,6.34,6.25-6.46.34.13c0,2.36,0,4.71,0,7.07,0,.26-.31.54-.53.75C130.43,163.88,128.55,165.77,126.55,167.79Z"/><path class="cls-2" d="M151.88,167.78c-2.06-2.06-4-4-6-6a1.7,1.7,0,0,1-.42-1.06c0-2.17,0-4.34,0-6.42l6.05,6.14,6.25-6.42.4.14a42.93,42.93,0,0,0,0,4.48,5,5,0,0,1-1.93,4.7C154.74,164.66,153.41,166.22,151.88,167.78Z"/><path class="cls-2" d="M107.54,153.81c0,2.67,0,5,0,7.25a1.6,1.6,0,0,1-.52.9c-1.87,1.9-3.76,3.79-5.72,5.76-2.07-2.05-4.12-4.07-6.14-6.11a1.36,1.36,0,0,1-.24-.87c0-2.17,0-4.34,0-6.67l6.18,6.48Z"/><path class="cls-2" d="M202.38,167.75c-1.92-2-3.83-3.88-5.71-5.83a1.75,1.75,0,0,1-.5-1c0-2.21,0-4.42,0-6.69l6.13,6.35,6.17-6.57.36.23c0,2.29,0,4.58,0,6.87a1.13,1.13,0,0,1-.35.69C206.46,163.73,204.46,165.69,202.38,167.75Z"/><path class="cls-2" d="M50.59,167.85c-2-2.08-4-4-5.9-6a1.34,1.34,0,0,1-.38-.82c0-2.25,0-4.49,0-7.16l6.14,6.54,6.06-6.31.36.14c0,2.36,0,4.71,0,7.07,0,.19-.19.4-.35.56C54.57,163.81,52.64,165.77,50.59,167.85Z"/><path class="cls-2" d="M19.39,154.07l5.86,6.16,5.9-6.18.43.16c0,1.59-.12,3.19,0,4.76a4.56,4.56,0,0,1-1.73,4.24c-1.59,1.38-3,3-4.61,4.61-2.06-2.09-4-4.07-6-6.07A1.15,1.15,0,0,1,19,161c0-2.25,0-4.5,0-6.75Z"/><path class="cls-2" d="M246.82,154l6.13,6.34,6.08-6.25.35.18c0,2.32,0,4.65,0,7a1.21,1.21,0,0,1-.4.68c-1.89,1.95-3.79,3.88-5.77,5.92-2.12-2.11-4.13-4.1-6.11-6.11a1.36,1.36,0,0,1-.25-.87C246.81,158.66,246.82,156.49,246.82,154Z"/><path class="cls-2" d="M75.88,167.83c-2-2.08-4-4.07-5.95-6.08a1.34,1.34,0,0,1-.33-.84c0-2.21,0-4.41,0-6.77l6,6.37L81.73,154l.48.25c0,2.31,0,4.63,0,6.94a1.18,1.18,0,0,1-.38.68C79.88,163.81,77.94,165.76,75.88,167.83Z"/><path class="cls-2" d="M227.81,167.85c-2-2.07-4-4-5.83-5.92a1.55,1.55,0,0,1-.46-.92c0-2.24,0-4.49,0-6.92l6.18,6.38,6.43-6.65c0,2.71,0,5,0,7.26a1.15,1.15,0,0,1-.34.7C231.81,163.77,229.85,165.76,227.81,167.85Z"/><path class="cls-2" d="M272.42,154.15c1.9,1.91,3.8,3.82,5.68,5.75a1.33,1.33,0,0,1,.29.85c0,2.21,0,4.42,0,7a31,31,0,0,0-3-2.94,7.68,7.68,0,0,1-3.28-8.05,15,15,0,0,0,0-2.41Z"/><path class="cls-2" d="M278.35,15.15c-.59,0-1.18,0-1.76,0H.17V12.26H276.6c.58,0,1.17-.06,1.75-.1Z"/><path class="cls-2" d="M278.35,41.78H.13V39H1.38q17.57,0,35.14,0C45.75,39.07,55,39,64.19,39H245.37l33,0Z"/><path class="cls-2" d="M278.35,30.91c-1.59,1.53-3.15,3.1-4.8,4.57a2.93,2.93,0,0,1-1.76.73c-3.94,0-7.87-.08-11.81,0A3.23,3.23,0,0,1,257.38,35c-1.35-1.46-2.74-2.87-4.35-4.55-1.61,1.71-3.09,3.23-4.51,4.8a2.48,2.48,0,0,1-2.1.88c-4-.08-7.92-.06-11.88,0a3,3,0,0,1-2.36-1.05c-1.38-1.49-2.79-2.95-4.35-4.59-1.15,1.21-2.2,2.15-3.06,3.24a6,6,0,0,1-5.67,2.5c-3.32-.26-6.67,0-10,0a2.87,2.87,0,0,1-1.75-.72c-1.62-1.51-3.14-3.12-4.91-4.9-1.61,1.67-3.09,3.31-4.69,4.81a3.24,3.24,0,0,1-2,.79q-5.91.12-11.82,0a3.29,3.29,0,0,1-2-.81c-1.59-1.46-3.07-3.06-4.8-4.8-1.59,1.64-3.11,3.16-4.57,4.75a2.74,2.74,0,0,1-2.26.92c-3.66,0-7.32,0-11,0A3.85,3.85,0,0,1,156.18,35c-1.32-1.48-2.77-2.85-4.21-4.32-1.55,1.52-3,2.93-4.42,4.37a3.2,3.2,0,0,1-2.58,1.1c-3.78-.08-7.56.1-11.34,0a4.2,4.2,0,0,1-2.47-1c-1.56-1.37-2.95-2.93-4.5-4.51-1.58,1.57-3.1,3-4.56,4.56a2.83,2.83,0,0,1-2.25.93c-3.93,0-7.86.09-11.79.05a3.25,3.25,0,0,1-2-.81c-1.59-1.47-3.07-3.07-4.71-4.74-1.55,1.54-3,3-4.45,4.45a3.32,3.32,0,0,1-2.71,1.16c-4-.08-8,0-12-.07a2.47,2.47,0,0,1-1.49-.72c-1.59-1.54-3.11-3.15-4.79-4.88-1.68,1.7-3.19,3.32-4.8,4.83a3,3,0,0,1-1.86.78c-3.93,0-7.86-.06-11.79,0A3.14,3.14,0,0,1,55,35.09c-1.36-1.46-2.77-2.86-4.3-4.44-1.49,1.49-2.94,2.83-4.27,4.28a3.82,3.82,0,0,1-3.36,1.26c-2.78-.14-5.58,0-8.37,0a30.93,30.93,0,0,1-3.5-.05,2.7,2.7,0,0,1-1.31-.86c-1.5-1.44-3-2.92-4.59-4.54-1.49,1.49-3,2.94-4.45,4.48a2.76,2.76,0,0,1-2.25.93c-4,0-8,.08-11.95,0a3.12,3.12,0,0,1-1.87-.79A51.39,51.39,0,0,1,1,31.58a4,4,0,0,1-.9-2.18L6.53,36l5.86-6.29,5.9,6.2,6.86-7,6.72,7,5.86-6.26,6,6.19L50.31,29l7,6.93,5.86-6.14L69,36l6.91-7.21,6.94,7.09,5.6-6.05,6,6.1,6.79-7L108,35.76l5.7-6L119.51,36l7-7.24,6.76,7,5.73-6,5.85,6.17,6.82-7,6.89,7,5.76-6.16,5.81,6,6.77-7,6.8,7,5.88-6,5.68,6,7-7.07,6.82,7.19,5.82-6.11,5.82,6,6.75-7.07,6.82,7.15,6-6.05,5.78,6L252.75,29l6.87,7,5.9-6.23,6,6.18c1.9-1.95,3.59-3.69,5.31-5.41a18.63,18.63,0,0,1,1.53-1.25Q278.35,30.09,278.35,30.91Z"/><path class="cls-2" d="M278.35,25.47l-5.81,6.15-.45-.29c0-2.28,0-4.55,0-6.82a2,2,0,0,1,.69-1.09c1.83-1.86,3.69-3.7,5.55-5.55Q278.35,21.67,278.35,25.47Z"/><path class="cls-2" d="M101.51,25.13l-6.21,6.42-.37-.11a45.71,45.71,0,0,0,0-4.73,4.66,4.66,0,0,1,1.81-4.34c1.6-1.39,3-3,4.58-4.57,2,2,4,4,6,6a1.51,1.51,0,0,1,.38.95c0,2.2,0,4.41,0,6.62Z"/><path class="cls-2" d="M151.85,17.8c2.05,2.06,4,4,5.93,6a1.7,1.7,0,0,1,.42,1.06c0,2.17,0,4.34,0,6.6l-6.08-6.34-6.24,6.45-.34-.13c0-2.35,0-4.71,0-7.06,0-.26.31-.54.53-.75C148,21.71,149.86,19.82,151.85,17.8Z"/><path class="cls-2" d="M126.54,17.81c2.06,2.06,4,4,6,6a1.7,1.7,0,0,1,.42,1.06c0,2.17,0,4.34,0,6.42l-6-6.14-6.25,6.42-.4-.14a42.91,42.91,0,0,0,0-4.47,5,5,0,0,1,1.93-4.7C123.68,20.93,125,19.37,126.54,17.81Z"/><path class="cls-2" d="M170.85,31.77c0-2.67,0-5,0-7.25a1.6,1.6,0,0,1,.52-.9c1.87-1.9,3.76-3.78,5.72-5.75,2.07,2.05,4.12,4.06,6.14,6.11a1.36,1.36,0,0,1,.24.87c0,2.17,0,4.34,0,6.67L177.33,25Z"/><path class="cls-2" d="M76.05,17.84c1.92,2,3.83,3.88,5.71,5.83a1.75,1.75,0,0,1,.5,1c0,2.21,0,4.42,0,6.69l-6.13-6.35L70,31.62l-.36-.23c0-2.29,0-4.58,0-6.86a1.13,1.13,0,0,1,.35-.69C72,21.86,74,19.89,76.05,17.84Z"/><path class="cls-2" d="M227.78,17.74c2,2.08,4,4,5.9,6a1.34,1.34,0,0,1,.38.82c0,2.24,0,4.49,0,7.16l-6.14-6.54-6.06,6.31-.36-.14c0-2.36,0-4.71,0-7.07,0-.19.19-.4.35-.55C223.8,21.77,225.73,19.82,227.78,17.74Z"/><path class="cls-2" d="M259,31.51l-5.86-6.15-5.9,6.17-.43-.16c0-1.59.12-3.19,0-4.76a4.55,4.55,0,0,1,1.73-4.24c1.59-1.38,3-3,4.61-4.61,2.06,2.09,4,4.07,6,6.07a1.14,1.14,0,0,1,.29.72c0,2.25,0,4.5,0,6.74Z"/><path class="cls-2" d="M31.63,31.61,25.5,25.27l-6.08,6.25-.35-.18c0-2.32,0-4.65,0-7a1.21,1.21,0,0,1,.4-.68c1.89-1.95,3.78-3.88,5.77-5.92,2.12,2.11,4.13,4.09,6.11,6.11a1.36,1.36,0,0,1,.25.87C31.64,26.93,31.63,29.1,31.63,31.61Z"/><path class="cls-2" d="M202.5,17.76c2,2.08,4,4.07,5.95,6.08a1.33,1.33,0,0,1,.33.84c0,2.21,0,4.41,0,6.77l-6-6.37-6.14,6.52-.47-.25c0-2.31,0-4.63,0-6.94a1.18,1.18,0,0,1,.38-.68C198.51,21.77,200.44,19.83,202.5,17.76Z"/><path class="cls-2" d="M50.64,17.74c2,2.07,3.95,4,5.83,5.92a1.55,1.55,0,0,1,.46.92c0,2.24,0,4.49,0,6.92l-6.18-6.37-6.42,6.65c0-2.71,0-5,0-7.26a1.15,1.15,0,0,1,.34-.7C46.64,21.81,48.6,19.82,50.64,17.74Z"/><path class="cls-2" d="M6,31.43c-1.9-1.91-3.8-3.82-5.68-5.75a1.33,1.33,0,0,1-.29-.85c0-2.21,0-4.42,0-7a31,31,0,0,0,3,2.93,7.68,7.68,0,0,1,3.28,8,15,15,0,0,0,0,2.41Z"/></g></g></svg>