<svg xmlns="http://www.w3.org/2000/svg" viewBox="0 0 185.58 185.58"><defs><style>.cls-1{fill:#1f3238;}.cls-2{fill:#fff;}</style></defs><title>taco-bar-logo</title><g id="Layer_2" data-name="Layer 2"><g id="Layer_1-2" data-name="Layer 1"><rect class="cls-1" width="185.58" height="185.58"/><path class="cls-2" d="M26.06,106.72c-.23.23-.34.37-.34.44s.11.22.34.44q-.67,0-1.58-.06a4.52,4.52,0,0,1-1.62-.4,16.13,16.13,0,0,1-1.4-1.4,3.81,3.81,0,0,0,1.76-.36,2.29,2.29,0,0,0,1-1.46v-9.7a1.22,1.22,0,0,0,0-.44s-.16-.06-.38-.06L23.18,93a.88.88,0,0,1,0-1.35l.66-.72a.36.36,0,0,0,.38-.21.47.47,0,0,0,0-.21V81.7a2.94,2.94,0,0,0-.85-1.06,2.8,2.8,0,0,0-1.08-.51,3.23,3.23,0,0,0-1.17,0,4.51,4.51,0,0,0-1.1.3,1.84,1.84,0,0,0-.66.64,6,6,0,0,0-.57,1.08,10,10,0,0,0-.42,1.25,4.61,4.61,0,0,0-.17,1.19,17.27,17.27,0,0,1-1.44-1.44,4.64,4.64,0,0,1-.4-1.1,4.42,4.42,0,0,1-.06-.72h.93l.47-.42a.72.72,0,0,0-.06-.4.72.72,0,0,0-.4-.06q-.34-.42-.68-.15t-.68.61v-.47a5.45,5.45,0,0,0-1-1.4,4.73,4.73,0,0,0-1.31-1H39.54a4.56,4.56,0,0,0-1.42,1,5.23,5.23,0,0,0-1,1.4v.47c-.23-.23-.44-.43-.66-.61s-.43-.13-.66.15a.81.81,0,0,0-.25,0,.39.39,0,0,0-.25.42.41.41,0,0,1,.27.06l.15.15a1.61,1.61,0,0,0,.08.21h.85a6.75,6.75,0,0,1,0,.72,3.9,3.9,0,0,1-.38,1.1q-.34.38-.7.74l-.7.7a5.25,5.25,0,0,0-.15-1.19,8.19,8.19,0,0,0-.4-1.25A5.24,5.24,0,0,0,33.7,81a1.87,1.87,0,0,0-.72-.64,4.53,4.53,0,0,0-1.08-.3,2.87,2.87,0,0,0-1.1,0,2,2,0,0,0-.93.51,2.13,2.13,0,0,0-.57,1.06,1.5,1.5,0,0,0-.4.93,9.36,9.36,0,0,0-.06,1V91q.68.38.78.72a2.23,2.23,0,0,1,0,1.35q-.11.34-.78.68v8.34a8.77,8.77,0,0,0,.06,1,1.47,1.47,0,0,0,.4.91,1.51,1.51,0,0,0,.66,1.46,3.45,3.45,0,0,0,1.67.36q0,.76-1.35,1.4a4.5,4.5,0,0,1-1.6.4q-.88.06-1.22.06v-.89H26.06Z"/><path class="cls-2" d="M48.31,98a3.22,3.22,0,0,0-1.23-1.76,1.86,1.86,0,0,0-1.52-.15,4.32,4.32,0,0,0-1.63,1,10.45,10.45,0,0,0-1.5,1.8L42,102.06a1.75,1.75,0,0,1-.19.74,2.68,2.68,0,0,0-.19,1.12q.3.64.44,1a1.56,1.56,0,0,0,.87.74,1,1,0,0,1-.3.66L42,107a3.4,3.4,0,0,1-1.27.4q-.64.06-1,.06v-.93a.39.39,0,0,0,0-.17.38.38,0,0,0-.34-.21l-.47.38v.93a8.65,8.65,0,0,1-.91-.06,1.29,1.29,0,0,1-.87-.4l-.63-.66a1,1,0,0,1-.3-.66,9.63,9.63,0,0,0,1.31-.74,2.87,2.87,0,0,0,.93-1,2.24,2.24,0,0,1,.23-1.12,1.51,1.51,0,0,0,.23-.74l1.78-8a3.13,3.13,0,0,1-.83-1.1,2.66,2.66,0,0,1-.11-.72,1.13,1.13,0,0,1,.13-.51,1.46,1.46,0,0,1,.28-.42,2.51,2.51,0,0,1,.53-.42h.47l1.31-6.77V81.82a1.52,1.52,0,0,0-.27-1,.76.76,0,0,0-.57-.34V80a1,1,0,0,1,.25-.64.77.77,0,0,1,.59-.3A2.87,2.87,0,0,1,44,78.37a10.74,10.74,0,0,1,1.16-.11v.85a2.5,2.5,0,0,0,.47.4,1.16,1.16,0,0,0,.47.06c.23,0,.35,0,.38-.06a1.06,1.06,0,0,0,0-.4q.34,0,.17-.25a1,1,0,0,1-.17-.59l.57,0q.4,0,.87.08a3.5,3.5,0,0,1,.91.25,3,3,0,0,1,.78.49q1.4.72,1.4,1.4a2.24,2.24,0,0,0-1.44.34,1.23,1.23,0,0,0-.38,1v2.24l1.36,6.31a1.19,1.19,0,0,1,.68.23,1.18,1.18,0,0,0,.68.23,7.73,7.73,0,0,1,.59.85,4.84,4.84,0,0,1,.3.51,1.25,1.25,0,0,1-.28.72,7.15,7.15,0,0,0-.61,1.1h-.47l1.82,8a1.33,1.33,0,0,0,.28.74,8.48,8.48,0,0,1,.61,1.12,2.65,2.65,0,0,0,1,1,8.75,8.75,0,0,0,1.69.74,1,1,0,0,1-.3.66l-.64.66a4,4,0,0,1-1.5.4q-.83.06-1.16.06a1.17,1.17,0,0,0-.06-.47,2.55,2.55,0,0,0-.4-.47l-.47-.38a.8.8,0,0,0-.32.06,1.68,1.68,0,0,0-.28.15l-.3.17a1.17,1.17,0,0,0,.06.47,2.52,2.52,0,0,0,.4.47q-.68,0-1.59-.06a3.82,3.82,0,0,1-1.55-.4q-1.4-.68-1.4-1.31a7.69,7.69,0,0,0,1.27-.74,1.23,1.23,0,0,0,.55-1v-1.86Zm-5-3.6,1.78-1.25A3.07,3.07,0,0,1,47,92.62l-1.82-7.16-1.31,7.62Z"/><path class="cls-2" d="M56.48,90.38a17.85,17.85,0,0,1,.55-4.3,34.49,34.49,0,0,1,1.23-4,7.91,7.91,0,0,1,2.37-3,7,7,0,0,1,2.56-1.16,7.24,7.24,0,0,1,2.31-.13,14.61,14.61,0,0,0,1.57.13h6.06a2.85,2.85,0,0,0-1.17,1,7.7,7.7,0,0,1-1.12,1.29c-.25-.23-.42-.34-.49-.34s-.22.11-.45.34q-.34,0-.38.06a1.23,1.23,0,0,0,0,.44l.42.47h.42a.54.54,0,0,1,.15.74q-.23.4-.57,1.12-.34.34-.72.66a1.16,1.16,0,0,1-.72.32,6.69,6.69,0,0,0-.08-1,8.43,8.43,0,0,0-.25-1.14,5.36,5.36,0,0,0-.42-1,1.66,1.66,0,0,0-.64-.68,3,3,0,0,0-2.69.23,5.8,5.8,0,0,0-1.91,2.27,15.15,15.15,0,0,0-1.25,3.56,28.8,28.8,0,0,0-.63,4.11v.55a7.85,7.85,0,0,1,.68.68,1.08,1.08,0,0,1,.3.72,1,1,0,0,1-.3.66q-.3.32-.68.66h-.47a28.52,28.52,0,0,0,.7,4.51,16.63,16.63,0,0,0,1.4,3.87,6.68,6.68,0,0,0,2.08,2.48,3,3,0,0,0,2.77.32.75.75,0,0,0,.64-.38,3.54,3.54,0,0,0,.42-1,7.93,7.93,0,0,0,.25-1.23,9.18,9.18,0,0,0,.08-1.16,1.12,1.12,0,0,1,.72.34,3.29,3.29,0,0,1,.72,1.06,2.72,2.72,0,0,1,.57.93.77.77,0,0,1-.15.93H69.9c-.23,0-.35,0-.38.06a1,1,0,0,0,0,.4.79.79,0,0,0,0,.25.36.36,0,0,0,.38.21,1,1,0,0,0,.45-.06,5,5,0,0,0,.49-.4l.59.87c.17.24.34.46.51.66l.53.59c.18.2.4.41.66.64H67.07q-.51,0-1.57.06a6.87,6.87,0,0,1-2.31-.3A8.1,8.1,0,0,1,60.63,106a8.54,8.54,0,0,1-2.37-3,16.89,16.89,0,0,1-1.4-4.49,29.87,29.87,0,0,1-.38-4.83h-.42a6.75,6.75,0,0,1-.72-.66,1,1,0,0,1-.3-.66,1.08,1.08,0,0,1,.3-.72,5.62,5.62,0,0,1,.72-.68,1.42,1.42,0,0,1,0-.49S56.25,90.38,56.48,90.38Z"/><path class="cls-2" d="M91.88,96.94q0,1.57,0,2.88a11.29,11.29,0,0,1-.36,2.52,9.68,9.68,0,0,1-1,2.35A11.38,11.38,0,0,1,88.66,107a10,10,0,0,1-2.24,1.23,3.38,3.38,0,0,1-2.33.17V108q0-.42-.3-.49a3,3,0,0,0-.63-.06.29.29,0,0,0-.21.08.5.5,0,0,0-.21.47v.42a3.66,3.66,0,0,1-2.48-.17,13.78,13.78,0,0,1-2.1-1.23,9.57,9.57,0,0,1-2.82-4.68A11.29,11.29,0,0,1,75,99.82q0-1.31,0-2.88V93.72q-.34-.34-.64-.68a.92.92,0,0,1,0-1.35l.64-.72V88.64q0-1.52,0-2.84a11.3,11.3,0,0,1,.36-2.52,10.19,10.19,0,0,1,1-2.35,11,11,0,0,1,1.86-2.37,14.66,14.66,0,0,1,2.1-1.16,3.93,3.93,0,0,1,2.48-.19v.47a.33.33,0,0,0,.21.34.47.47,0,0,0,.21,0,4.49,4.49,0,0,0,.63,0,.31.31,0,0,0,.3-.34v-.47a3.66,3.66,0,0,1,2.33.19,10.49,10.49,0,0,1,2.24,1.16,12.37,12.37,0,0,1,1.84,2.37,9.69,9.69,0,0,1,1,2.35,11.3,11.3,0,0,1,.36,2.52q0,1.31,0,2.84V91a2,2,0,0,1,.44.72,1.57,1.57,0,0,0,.49.68,1.57,1.57,0,0,0-.49.68,1.7,1.7,0,0,1-.44.68v3.22ZM86,92.37a1.71,1.71,0,0,0,.44-.68,2,2,0,0,1,.44-.72V85.85q0-.64,0-1.31a13,13,0,0,0-.15-1.31,3.58,3.58,0,0,0-.28-1A5.68,5.68,0,0,0,85.1,79.9a2.18,2.18,0,0,0-3.34,0,5.67,5.67,0,0,0-1.31,2.35,3.55,3.55,0,0,0-.27,1A12.43,12.43,0,0,0,80,84.53q0,.68,0,1.31V91a1.55,1.55,0,0,1,.4.72,3.65,3.65,0,0,1,0,1.35,1.32,1.32,0,0,1-.4.68v5.82q0,.74,0,1.48a11.69,11.69,0,0,0,.15,1.35,3.52,3.52,0,0,0,.27,1,5.67,5.67,0,0,0,1.31,2.31,2.18,2.18,0,0,0,3.34,0,5.68,5.68,0,0,0,1.31-2.31,3.55,3.55,0,0,0,.28-1,12.13,12.13,0,0,0,.15-1.35q0-.74,0-1.48V93.72a1.7,1.7,0,0,1-.44-.68A1.71,1.71,0,0,0,86,92.37Z"/><path class="cls-2" d="M115.55,78A12.51,12.51,0,0,1,119,77.1a8.21,8.21,0,0,1,3.3.28,5.66,5.66,0,0,1,2.63,1.71,6.64,6.64,0,0,1,1.44,3.45,7.25,7.25,0,0,1,0,3.39,12,12,0,0,1-1.4,3.43,6.53,6.53,0,0,0-.72.89,2.69,2.69,0,0,1-1.1.89,8.34,8.34,0,0,1,4.32,3.41,9.63,9.63,0,0,1,1.19,6.16,8.66,8.66,0,0,1-1.67,4.15,9.34,9.34,0,0,1-3.22,2.69,9.1,9.1,0,0,1-8.24,0H115a4.76,4.76,0,0,0,.44-.42.86.86,0,0,0,.06-.42.46.46,0,0,1-.49-.28.5.5,0,0,0-.89,0,.43.43,0,0,1-.45.28,1.23,1.23,0,0,0,0,.42,2.71,2.71,0,0,0,.38.42q-.72,0-1.65,0a3.65,3.65,0,0,1-1.57-.38l-.68-.7-.68-.7a7.29,7.29,0,0,0,1.61-.72,1.23,1.23,0,0,0,.59-1.1,3.2,3.2,0,0,0,.49-1.08,4.7,4.7,0,0,0,.06-.74V93.89h-.55a9.15,9.15,0,0,0-.59-1.1,1.31,1.31,0,0,1-.25-.72,2.1,2.1,0,0,1,.25-.51l.28-.44a2.31,2.31,0,0,1,.32-.4h.55V83.94a8.47,8.47,0,0,0-.06-1.16,3.49,3.49,0,0,0-.49-1.16,1,1,0,0,0-.59-1,3.43,3.43,0,0,0-1.61-.32q.34-.38.68-.7l.68-.66a2.41,2.41,0,0,1,1.57-.89,12.4,12.4,0,0,1,1.65-.13,1.35,1.35,0,0,0-.38.68,1.4,1.4,0,0,0,0,.34,2.05,2.05,0,0,0,.45.38,2.37,2.37,0,0,0,.89,0,2.65,2.65,0,0,0,.49-.38l-.08-.34a3.58,3.58,0,0,1-.15-.34A.84.84,0,0,0,115,78Zm1.27,13.17v-.42h.55A4.12,4.12,0,0,0,119.1,90a5.45,5.45,0,0,0,1.31-1.35,7.39,7.39,0,0,0,.89-1.8,16.35,16.35,0,0,0,.55-2.05v-.42a10.64,10.64,0,0,0-.74-2.39,5.77,5.77,0,0,0-1.19-1.84,1.33,1.33,0,0,0-1.36-.42q-.7.21-1.21,1.91a3.47,3.47,0,0,0-.49,1.16,8.47,8.47,0,0,0-.06,1.16Zm6.35,10.5a11.7,11.7,0,0,0,.32-2.92A7.42,7.42,0,0,0,123,96a4.46,4.46,0,0,0-1.55-2,3.68,3.68,0,0,0-2.69-.53h-.51a1.17,1.17,0,0,0-.66.21,1.3,1.3,0,0,1-.74.21v8.17a4.7,4.7,0,0,0,.06.74,3.18,3.18,0,0,0,.49,1.08q.51,1.91,1.36,2.22a1.79,1.79,0,0,0,1.71-.28,6,6,0,0,0,1.63-1.8A9.27,9.27,0,0,0,123.17,101.64Z"/><path class="cls-2" d="M141.63,98a3.22,3.22,0,0,0-1.23-1.76,1.86,1.86,0,0,0-1.52-.15,4.32,4.32,0,0,0-1.63,1,10.45,10.45,0,0,0-1.5,1.8l-.47,3.09a1.75,1.75,0,0,1-.19.74,2.68,2.68,0,0,0-.19,1.12q.3.64.44,1a1.56,1.56,0,0,0,.87.74,1,1,0,0,1-.3.66l-.64.66a3.4,3.4,0,0,1-1.27.4q-.64.06-1,.06v-.93a.39.39,0,0,0,0-.17.38.38,0,0,0-.34-.21l-.47.38v.93a8.65,8.65,0,0,1-.91-.06,1.29,1.29,0,0,1-.87-.4l-.63-.66a1,1,0,0,1-.3-.66,9.63,9.63,0,0,0,1.31-.74,2.87,2.87,0,0,0,.93-1,2.24,2.24,0,0,1,.23-1.12,1.51,1.51,0,0,0,.23-.74L134,94a3.13,3.13,0,0,1-.83-1.1,2.66,2.66,0,0,1-.11-.72,1.13,1.13,0,0,1,.13-.51,1.46,1.46,0,0,1,.28-.42,2.51,2.51,0,0,1,.53-.42h.47l1.31-6.77V81.82a1.52,1.52,0,0,0-.27-1,.76.76,0,0,0-.57-.34V80a1,1,0,0,1,.25-.64.77.77,0,0,1,.59-.3,2.87,2.87,0,0,1,1.55-.74,10.74,10.74,0,0,1,1.16-.11v.85a2.5,2.5,0,0,0,.47.4,1.16,1.16,0,0,0,.47.06c.23,0,.35,0,.38-.06a1.06,1.06,0,0,0,0-.4q.34,0,.17-.25a1,1,0,0,1-.17-.59l.57,0q.4,0,.87.08a3.5,3.5,0,0,1,.91.25,3,3,0,0,1,.78.49q1.4.72,1.4,1.4a2.24,2.24,0,0,0-1.44.34,1.23,1.23,0,0,0-.38,1v2.24l1.36,6.31a1.19,1.19,0,0,1,.68.23,1.18,1.18,0,0,0,.68.23,7.73,7.73,0,0,1,.59.85,4.84,4.84,0,0,1,.3.51,1.25,1.25,0,0,1-.28.72,7.15,7.15,0,0,0-.61,1.1h-.47l1.82,8a1.33,1.33,0,0,0,.28.74,8.48,8.48,0,0,1,.61,1.12,2.65,2.65,0,0,0,1,1,8.75,8.75,0,0,0,1.69.74,1,1,0,0,1-.3.66l-.64.66a4,4,0,0,1-1.5.4q-.83.06-1.16.06a1.17,1.17,0,0,0-.06-.47,2.55,2.55,0,0,0-.4-.47l-.47-.38a.8.8,0,0,0-.32.06,1.68,1.68,0,0,0-.28.15l-.3.17a1.17,1.17,0,0,0,.06.47,2.52,2.52,0,0,0,.4.47q-.68,0-1.59-.06a3.82,3.82,0,0,1-1.55-.4q-1.4-.68-1.4-1.31A7.69,7.69,0,0,0,142,105a1.23,1.23,0,0,0,.55-1v-1.86Zm-5-3.6,1.78-1.25a3.07,3.07,0,0,1,1.82-.57l-1.82-7.16-1.31,7.62Z"/><path class="cls-2" d="M164.58,102.06q0-1.35-.06-2.75a12.17,12.17,0,0,0-.44-2.75A3.76,3.76,0,0,0,162.4,94a4.69,4.69,0,0,0-3.79-.17v8.26a8.78,8.78,0,0,0,.06.91,1.37,1.37,0,0,0,.45.91,1.56,1.56,0,0,0,.61,1.44,3.07,3.07,0,0,0,1.63.38l-.68.68-.68.68a4.16,4.16,0,0,1-1.59.4q-.91.06-1.63.06a3,3,0,0,0,.44-.44,1,1,0,0,0,.06-.44h-1.86a1.45,1.45,0,0,0,0,.44,2.26,2.26,0,0,0,.34.44q-.68,0-1.55-.06a4.44,4.44,0,0,1-1.59-.4,15.24,15.24,0,0,1-1.36-1.35,3.18,3.18,0,0,0,1.65-.38,1.54,1.54,0,0,0,.64-1.44A1.38,1.38,0,0,0,154,103c0-.38,0-.68,0-.91V94.27l-.42-.47a5.76,5.76,0,0,1-.66-.68,1,1,0,0,1,0-1.35,5.87,5.87,0,0,1,.66-.68l.42-.51V83.73q0-.34,0-.93a1.41,1.41,0,0,0-.38-.93,1.76,1.76,0,0,0-.64-1.25,2.28,2.28,0,0,0-1.65-.61l1.36-1.35a4,4,0,0,1,1.59-.44q.87-.06,1.55-.06a2.38,2.38,0,0,0-.34.51,1.7,1.7,0,0,0,0,.47h1.86a1.16,1.16,0,0,0-.06-.47,2.9,2.9,0,0,0-.44-.51h.51a11.57,11.57,0,0,1,3.51-1,7.81,7.81,0,0,1,3.37.25,5.87,5.87,0,0,1,2.65,1.72,6.32,6.32,0,0,1,1.44,3.26,9.7,9.7,0,0,1-1.36,6.9q-.34.38-1,1t-1.33,1.33a5.12,5.12,0,0,1,2.58,2,8.78,8.78,0,0,1,1.17,2.9,11.23,11.23,0,0,1,.21,3q-.11,1.5-.27,2.52a2.59,2.59,0,0,0,.23.91,2.59,2.59,0,0,1,.23.91,3.18,3.18,0,0,0,.78,1.44,2.32,2.32,0,0,0,1.5.38,3,3,0,0,0-.53.7,1.72,1.72,0,0,1-.87.66,3.83,3.83,0,0,1-1.38.4q-.7.06-1.33.06.34-.34.34-.44t-.34-.44h-1v.89q-.34,0-1.19-.06a3.69,3.69,0,0,1-1.48-.4q-.34-.34-.64-.68a1,1,0,0,1-.3-.68,2.08,2.08,0,0,0,1.25-.38,1.67,1.67,0,0,0,.53-1.44,1.37,1.37,0,0,0,.44-.91A8.51,8.51,0,0,0,164.58,102.06ZM160,79.58a.79.79,0,0,0-.61.34,1.74,1.74,0,0,0-.28,1.1,1.36,1.36,0,0,0-.45.89,8.21,8.21,0,0,0-.06.89v7.79a4.18,4.18,0,0,0,2.75-1.08,6.12,6.12,0,0,0,1.57-2.37,8,8,0,0,0,.49-2.9,8.43,8.43,0,0,0-.44-2.71,4,4,0,0,0-1.19-1.8A1.59,1.59,0,0,0,160,79.58Z"/><path class="cls-2" d="M0,161.56c.39,0,.78,0,1.18,0H185.5v1.89H1.17c-.39,0-.78,0-1.17.06Z"/><path class="cls-2" d="M0,143.8H185.53v1.83h-.83q-11.72,0-23.43,0c-6.15,0-12.3,0-18.45,0H22l-22,0Z"/><path class="cls-2" d="M0,151c1.06-1,2.1-2.07,3.2-3a2,2,0,0,1,1.17-.49c2.63,0,5.25.06,7.88,0a2.15,2.15,0,0,1,1.74.76c.9,1,1.83,1.91,2.9,3,1.08-1.14,2.06-2.16,3-3.2a1.65,1.65,0,0,1,1.4-.59c2.64.05,5.28,0,7.92,0a2,2,0,0,1,1.58.7c.92,1,1.86,2,2.9,3.06.77-.81,1.47-1.43,2-2.16a4,4,0,0,1,3.78-1.67c2.21.17,4.45,0,6.68,0a1.91,1.91,0,0,1,1.17.48c1.08,1,2.09,2.08,3.28,3.27,1.07-1.11,2.06-2.2,3.13-3.21a2.16,2.16,0,0,1,1.33-.53q3.94-.08,7.88,0a2.19,2.19,0,0,1,1.33.54c1.06,1,2,2,3.2,3.2,1.06-1.09,2.08-2.11,3-3.17a1.82,1.82,0,0,1,1.51-.61c2.44,0,4.88,0,7.33,0a2.57,2.57,0,0,1,2.09.83c.88,1,1.84,1.9,2.81,2.88,1-1,2-2,2.95-2.92a2.14,2.14,0,0,1,1.72-.73c2.52.05,5-.07,7.56,0a2.8,2.8,0,0,1,1.65.69c1,.91,2,2,3,3,1.06-1,2.07-2,3-3a1.89,1.89,0,0,1,1.5-.62c2.62,0,5.24-.06,7.86,0a2.17,2.17,0,0,1,1.33.54c1.06,1,2,2,3.14,3.16,1-1,2-2,3-3a2.21,2.21,0,0,1,1.81-.77c2.66.06,5.31,0,8,0a1.65,1.65,0,0,1,1,.48c1.06,1,2.07,2.1,3.2,3.25,1.12-1.14,2.12-2.22,3.2-3.22a2,2,0,0,1,1.24-.52c2.62,0,5.24,0,7.86,0a2.09,2.09,0,0,1,1.66.72c.9,1,1.85,1.91,2.87,3,1-1,2-1.89,2.84-2.85a2.55,2.55,0,0,1,2.24-.84c1.86.09,3.72,0,5.58,0a20.63,20.63,0,0,1,2.34,0,1.8,1.8,0,0,1,.87.57c1,1,2,1.95,3.06,3,1-1,2-2,3-3a1.84,1.84,0,0,1,1.5-.62c2.66,0,5.31-.06,8,0a2.08,2.08,0,0,1,1.24.52A34.27,34.27,0,0,1,185,150.6a2.66,2.66,0,0,1,.6,1.45l-4.31-4.42-3.91,4.19-3.93-4.13-4.58,4.68-4.48-4.65-3.91,4.17-4-4.13-4.41,4.58-4.68-4.62-3.91,4.09-3.88-4.15L135,152.49l-4.63-4.73-3.73,4-4-4.07-4.53,4.67-4.51-4.58-3.8,4-3.9-4.16-4.69,4.83-4.51-4.67-3.82,4L89,147.69l-4.55,4.68-4.59-4.69L76,151.78l-3.88-4-4.52,4.69-4.54-4.67-3.92,4-3.79-4-4.67,4.72-4.55-4.8-3.88,4.08-3.88-4-4.5,4.71-4.55-4.77-4,4-3.86-4-4.43,4.56-4.58-4.65-3.93,4.16-4-4.12C3.29,149,2.17,150.16,1,151.3a12.42,12.42,0,0,1-1,.83Q0,151.59,0,151Z"/><path class="cls-2" d="M0,154.67l3.88-4.1.3.2c0,1.52,0,3,0,4.55a1.35,1.35,0,0,1-.46.73c-1.22,1.24-2.46,2.47-3.7,3.7Q0,157.21,0,154.67Z"/><path class="cls-2" d="M117.92,154.9l4.14-4.28.25.07a30.48,30.48,0,0,0,0,3.16,3.11,3.11,0,0,1-1.2,2.89c-1.06.93-2,2-3.05,3-1.36-1.37-2.68-2.68-4-4a1,1,0,0,1-.25-.63c0-1.47,0-2.94,0-4.42Z"/><path class="cls-2" d="M84.35,159.79c-1.37-1.37-2.67-2.67-4-4a1.14,1.14,0,0,1-.28-.71c0-1.45,0-2.89,0-4.4l4.05,4.23,4.16-4.3.23.08c0,1.57,0,3.14,0,4.71,0,.17-.21.36-.35.5Z"/><path class="cls-2" d="M101.24,159.78c-1.38-1.37-2.69-2.66-4-4a1.13,1.13,0,0,1-.28-.71c0-1.45,0-2.89,0-4.28l4,4.09,4.16-4.28.27.09a28.62,28.62,0,0,0,0,3,3.32,3.32,0,0,1-1.29,3.14C103.14,157.7,102.26,158.75,101.24,159.78Z"/><path class="cls-2" d="M71.68,150.47c0,1.78,0,3.31,0,4.83a1.06,1.06,0,0,1-.35.6c-1.25,1.27-2.5,2.52-3.81,3.84-1.38-1.37-2.75-2.71-4.09-4.07a.91.91,0,0,1-.16-.58c0-1.45,0-2.89,0-4.45L67.37,155Z"/><path class="cls-2" d="M134.9,159.77c-1.28-1.3-2.55-2.58-3.81-3.89a1.17,1.17,0,0,1-.33-.7c0-1.47,0-2.95,0-4.46l4.08,4.23,4.11-4.38.24.16c0,1.53,0,3.05,0,4.58a.76.76,0,0,1-.23.46C137.62,157.08,136.29,158.39,134.9,159.77Z"/><path class="cls-2" d="M33.72,159.83c-1.36-1.39-2.66-2.69-3.93-4a.9.9,0,0,1-.25-.55c0-1.5,0-3,0-4.77l4.09,4.36,4-4.21.24.09c0,1.57,0,3.14,0,4.71,0,.13-.13.27-.23.37Z"/><path class="cls-2" d="M12.93,150.65l3.91,4.1,3.93-4.12.29.11c0,1.06-.08,2.13,0,3.18a3,3,0,0,1-1.15,2.83c-1.06.92-2,2-3.07,3.07-1.37-1.39-2.68-2.71-4-4a.76.76,0,0,1-.19-.48c0-1.5,0-3,0-4.5Z"/><path class="cls-2" d="M164.52,150.58l4.09,4.23,4.05-4.17.24.12c0,1.55,0,3.1,0,4.65a.8.8,0,0,1-.27.45l-3.85,3.94c-1.41-1.4-2.75-2.73-4.08-4.08a.91.91,0,0,1-.17-.58C164.52,153.7,164.52,152.26,164.52,150.58Z"/><path class="cls-2" d="M50.58,159.82c-1.36-1.39-2.67-2.71-4-4.05a.89.89,0,0,1-.22-.56c0-1.47,0-2.94,0-4.51l4,4.24,4.09-4.35.32.17c0,1.54,0,3.08,0,4.63a.79.79,0,0,1-.26.46C53.24,157.14,52,158.44,50.58,159.82Z"/><path class="cls-2" d="M151.85,159.83c-1.36-1.38-2.63-2.65-3.89-3.95a1,1,0,0,1-.31-.62c0-1.5,0-3,0-4.61l4.12,4.25,4.28-4.43c0,1.8,0,3.32,0,4.84a.77.77,0,0,1-.22.46C154.52,157.11,153.21,158.44,151.85,159.83Z"/><path class="cls-2" d="M181.59,150.7c1.27,1.27,2.54,2.54,3.79,3.83a.89.89,0,0,1,.19.56c0,1.47,0,2.94,0,4.64a20.65,20.65,0,0,0-2-2,5.12,5.12,0,0,1-2.19-5.37,10,10,0,0,0,0-1.61Z"/><path class="cls-2" d="M185.58,24c-.39,0-.78,0-1.18,0H.08V22.09H184.41c.39,0,.78,0,1.17-.06Z"/><path class="cls-2" d="M185.58,41.78H0V39.95H.88q11.72,0,23.43,0c6.15,0,12.3,0,18.45,0H163.58l22,0Z"/><path class="cls-2" d="M185.58,34.53c-1.06,1-2.1,2.07-3.2,3a2,2,0,0,1-1.17.49c-2.63,0-5.25-.06-7.88,0a2.15,2.15,0,0,1-1.74-.76c-.9-1-1.83-1.91-2.9-3-1.08,1.14-2.06,2.16-3,3.2a1.65,1.65,0,0,1-1.4.59c-2.64-.05-5.28,0-7.92,0a2,2,0,0,1-1.58-.7c-.92-1-1.86-2-2.9-3.06-.77.81-1.47,1.43-2,2.16a4,4,0,0,1-3.78,1.67c-2.21-.17-4.45,0-6.68,0a1.91,1.91,0,0,1-1.17-.48c-1.08-1-2.09-2.08-3.28-3.27-1.07,1.11-2.06,2.2-3.13,3.21a2.16,2.16,0,0,1-1.33.53q-3.94.08-7.88,0a2.19,2.19,0,0,1-1.33-.54c-1.06-1-2-2-3.2-3.2-1.06,1.09-2.08,2.11-3,3.17a1.82,1.82,0,0,1-1.51.61c-2.44,0-4.88,0-7.33,0a2.57,2.57,0,0,1-2.09-.83c-.88-1-1.84-1.9-2.81-2.88-1,1-2,2-2.95,2.92a2.14,2.14,0,0,1-1.72.73c-2.52-.05-5,.07-7.56,0a2.8,2.8,0,0,1-1.65-.69c-1-.91-2-2-3-3-1.06,1-2.07,2-3,3a1.89,1.89,0,0,1-1.5.62c-2.62,0-5.24.06-7.86,0a2.17,2.17,0,0,1-1.33-.54c-1.06-1-2-2-3.14-3.16-1,1-2,2-3,3a2.21,2.21,0,0,1-1.81.77c-2.66-.06-5.31,0-8,0a1.65,1.65,0,0,1-1-.48c-1.06-1-2.07-2.1-3.2-3.25-1.12,1.14-2.12,2.22-3.2,3.22a2,2,0,0,1-1.24.52c-2.62,0-5.24,0-7.86,0a2.09,2.09,0,0,1-1.66-.72c-.9-1-1.85-1.91-2.87-3-1,1-2,1.89-2.84,2.85a2.55,2.55,0,0,1-2.24.84c-1.86-.09-3.72,0-5.58,0a20.63,20.63,0,0,1-2.34,0,1.8,1.8,0,0,1-.87-.57c-1-1-2-1.95-3.06-3-1,1-2,2-3,3a1.84,1.84,0,0,1-1.5.62c-2.66,0-5.31.06-8,0a2.08,2.08,0,0,1-1.24-.52A34.27,34.27,0,0,1,.61,35,2.66,2.66,0,0,1,0,33.53l4.31,4.42,3.91-4.19,3.93,4.13,4.58-4.68,4.48,4.65,3.91-4.17,4,4.13,4.41-4.58,4.68,4.62,3.91-4.09L46,37.9l4.61-4.81,4.63,4.73,3.73-4,4,4.07,4.53-4.67L72,37.77l3.8-4,3.9,4.16,4.69-4.83,4.51,4.67,3.82-4,3.9,4.11,4.55-4.68,4.59,4.69,3.84-4.11,3.88,4,4.52-4.69,4.54,4.67,3.92-4,3.79,4,4.67-4.72,4.55,4.8,3.88-4.08,3.88,4,4.5-4.71,4.55,4.77,4-4,3.86,4,4.43-4.56,4.58,4.65L177,33.76l4,4.12c1.27-1.3,2.39-2.46,3.54-3.61a12.42,12.42,0,0,1,1-.83Q185.58,34,185.58,34.53Z"/><path class="cls-2" d="M185.58,30.91,181.7,35l-.3-.2c0-1.52,0-3,0-4.55a1.35,1.35,0,0,1,.46-.73c1.22-1.24,2.46-2.47,3.7-3.7Q185.58,28.37,185.58,30.91Z"/><path class="cls-2" d="M67.66,30.68,63.52,35l-.25-.07a30.48,30.48,0,0,0,0-3.16,3.11,3.11,0,0,1,1.2-2.89c1.06-.93,2-2,3.05-3,1.36,1.37,2.68,2.68,4,4a1,1,0,0,1,.25.63c0,1.47,0,2.94,0,4.42Z"/><path class="cls-2" d="M101.23,25.79c1.37,1.37,2.67,2.67,4,4a1.14,1.14,0,0,1,.28.71c0,1.45,0,2.89,0,4.4l-4.05-4.23L97.25,35,97,34.88c0-1.57,0-3.14,0-4.71,0-.17.21-.36.35-.5Z"/><path class="cls-2" d="M84.34,25.8c1.38,1.37,2.69,2.66,4,4a1.13,1.13,0,0,1,.28.71c0,1.45,0,2.89,0,4.28l-4-4.09L80.41,35l-.27-.09a28.62,28.62,0,0,0,0-3,3.32,3.32,0,0,1,1.29-3.14C82.43,27.87,83.32,26.83,84.34,25.8Z"/><path class="cls-2" d="M113.9,35.1c0-1.78,0-3.31,0-4.83a1.06,1.06,0,0,1,.35-.6c1.25-1.27,2.5-2.52,3.81-3.84,1.38,1.37,2.75,2.71,4.09,4.07a.91.91,0,0,1,.16.58c0,1.45,0,2.89,0,4.45l-4.12-4.32Z"/><path class="cls-2" d="M50.68,25.81c1.28,1.3,2.55,2.58,3.81,3.89a1.17,1.17,0,0,1,.33.7c0,1.47,0,2.95,0,4.46l-4.08-4.23L46.63,35l-.24-.16c0-1.53,0-3.05,0-4.58a.76.76,0,0,1,.23-.46C48,28.5,49.29,27.19,50.68,25.81Z"/><path class="cls-2" d="M151.86,25.75c1.36,1.39,2.66,2.69,3.93,4a.9.9,0,0,1,.25.55c0,1.5,0,3,0,4.77L152,30.72l-4,4.21-.24-.09c0-1.57,0-3.14,0-4.71,0-.13.13-.27.23-.37Z"/><path class="cls-2" d="M172.65,34.93l-3.91-4.1-3.93,4.12-.29-.11c0-1.06.08-2.13,0-3.18a3,3,0,0,1,1.15-2.83c1.06-.92,2-2,3.07-3.07,1.37,1.39,2.68,2.71,4,4a.76.76,0,0,1,.19.48c0,1.5,0,3,0,4.5Z"/><path class="cls-2" d="M21.06,35,17,30.77l-4.05,4.17-.24-.12c0-1.55,0-3.1,0-4.65a.8.8,0,0,1,.27-.45l3.85-3.94c1.41,1.4,2.75,2.73,4.08,4.08a.91.91,0,0,1,.17.58C21.06,31.88,21.06,33.32,21.06,35Z"/><path class="cls-2" d="M135,25.76c1.36,1.39,2.67,2.71,4,4.05a.89.89,0,0,1,.22.56c0,1.47,0,2.94,0,4.51l-4-4.24L131.1,35l-.32-.17c0-1.54,0-3.08,0-4.63a.79.79,0,0,1,.26-.46C132.34,28.44,133.63,27.14,135,25.76Z"/><path class="cls-2" d="M33.73,25.75c1.36,1.38,2.63,2.65,3.89,3.95a1,1,0,0,1,.31.62c0,1.5,0,3,0,4.61l-4.12-4.25-4.28,4.43c0-1.8,0-3.32,0-4.84a.77.77,0,0,1,.22-.46C31.06,28.47,32.37,27.14,33.73,25.75Z"/><path class="cls-2" d="M4,34.88C2.73,33.61,1.46,32.34.2,31A.89.89,0,0,1,0,30.48C0,29,0,27.54,0,25.84a20.65,20.65,0,0,0,2,2,5.12,5.12,0,0,1,2.19,5.37,10,10,0,0,0,0,1.61Z"/></g></g></svg>