<svg xmlns="http://www.w3.org/2000/svg" viewBox="0 0 16.49 16.49"><defs><style>.cls-1{fill:#fbcc0c;}.cls-2{fill:#fff;}</style></defs><title>train-r</title><g id="Layer_2" data-name="Layer 2"><g id="Layer_1-2" data-name="Layer 1"><circle class="cls-1" cx="8.24" cy="8.24" r="8.24"/><path class="cls-2" d="M10.22,4.15a2.14,2.14,0,0,1,.81.6,2.69,2.69,0,0,1,.43.73,2.42,2.42,0,0,1,.16.91,2.59,2.59,0,0,1-.31,1.21,1.74,1.74,0,0,1-1,.84,1.61,1.61,0,0,1,.85.68,2.84,2.84,0,0,1,.25,1.35v.58a4.32,4.32,0,0,0,0,.8.72.72,0,0,0,.33.49v.22h-2q-.08-.29-.12-.46a4.25,4.25,0,0,1-.08-.74v-.8a1.63,1.63,0,0,0-.29-1.1,1.45,1.45,0,0,0-1-.28H6.49v3.39H4.73V3.93H8.86A3.76,3.76,0,0,1,10.22,4.15ZM6.49,5.43V7.75H8.43a2.07,2.07,0,0,0,.87-.14,1,1,0,0,0,.51-1,1.09,1.09,0,0,0-.5-1.05,1.79,1.79,0,0,0-.83-.15Z"/></g></g></svg>