<svg xmlns="http://www.w3.org/2000/svg" viewBox="0 0 16.49 16.49"><defs><style>.cls-1{fill:#008442;}.cls-2{fill:#fff;}</style></defs><title>train-6</title><g id="Layer_2" data-name="Layer 2"><g id="Layer_1-2" data-name="Layer 1"><circle class="cls-1" cx="8.24" cy="8.24" r="8.24"/><path class="cls-2" d="M9.6,5.53A1.06,1.06,0,0,0,9.4,5a1.14,1.14,0,0,0-1-.5A1.5,1.5,0,0,0,6.95,5.61a7.07,7.07,0,0,0-.32,1.85,2.33,2.33,0,0,1,.9-.67,3,3,0,0,1,1.17-.21,3,3,0,0,1,2.31,1A3.42,3.42,0,0,1,11.9,10,4.13,4.13,0,0,1,11,12.59a3.26,3.26,0,0,1-2.74,1.13,3.16,3.16,0,0,1-2.95-1.67,6.81,6.81,0,0,1-.74-3.37,15.29,15.29,0,0,1,.1-2A6,6,0,0,1,5.4,4.46,3.62,3.62,0,0,1,6.58,3.23a3.2,3.2,0,0,1,1.75-.47,3.47,3.47,0,0,1,2.35.76,2.87,2.87,0,0,1,1,2Zm-2.47,6A1.47,1.47,0,0,0,8.3,12a1.3,1.3,0,0,0,1.09-.52,2.17,2.17,0,0,0,.4-1.35,2,2,0,0,0-.45-1.42,1.45,1.45,0,0,0-1.11-.49,1.48,1.48,0,0,0-.94.32,1.82,1.82,0,0,0-.61,1.53A2.07,2.07,0,0,0,7.14,11.49Z"/></g></g></svg>