<svg xmlns="http://www.w3.org/2000/svg" viewBox="0 0 16.49 16.49"><defs><style>.cls-1{fill:#f16422;}.cls-2{fill:#fff;}</style></defs><title>train-d</title><g id="Layer_2" data-name="Layer 2"><g id="Layer_1-2" data-name="Layer 1"><circle class="cls-1" cx="8.24" cy="8.24" r="8.24"/><path class="cls-2" d="M10.12,4.11a2.85,2.85,0,0,1,1.47,1.1,3.85,3.85,0,0,1,.62,1.39A6.69,6.69,0,0,1,12.37,8,5.74,5.74,0,0,1,11.68,11a3.12,3.12,0,0,1-2.9,1.61H5.06V3.93H8.79A4.54,4.54,0,0,1,10.12,4.11ZM6.81,5.43v5.64H8.48A1.8,1.8,0,0,0,10.26,9.8a4.43,4.43,0,0,0,.28-1.65,4.05,4.05,0,0,0-.41-2,1.75,1.75,0,0,0-1.65-.71Z"/></g></g></svg>