<svg xmlns="http://www.w3.org/2000/svg" viewBox="0 0 16.49 16.49"><defs><style>.cls-1{fill:#f16422;}.cls-2{fill:#fff;}</style></defs><title>train-b</title><g id="Layer_2" data-name="Layer 2"><g id="Layer_1-2" data-name="Layer 1"><circle class="cls-1" cx="8.24" cy="8.24" r="8.24"/><path class="cls-2" d="M11.6,4.85A2.2,2.2,0,0,1,12,6.16a1.92,1.92,0,0,1-.4,1.27,2.06,2.06,0,0,1-.66.49,1.92,1.92,0,0,1,1,.76A2.29,2.29,0,0,1,12.27,10a2.52,2.52,0,0,1-.38,1.38,2.38,2.38,0,0,1-1.59,1.11,6,6,0,0,1-1.22.12H5.19V3.93H9.36A2.65,2.65,0,0,1,11.6,4.85Zm-4.69.58v1.9H9a1.74,1.74,0,0,0,.91-.21.82.82,0,0,0,.35-.76.77.77,0,0,0-.46-.8,3.25,3.25,0,0,0-1-.13Zm0,3.33v2.3H9a2,2,0,0,0,.88-.15,1.09,1.09,0,0,0,.57-1.08.93.93,0,0,0-.55-.93A2.18,2.18,0,0,0,9,8.76Z"/></g></g></svg>