<svg xmlns="http://www.w3.org/2000/svg" viewBox="0 0 16.49 16.49"><defs><style>.cls-1{fill:#fbcc0c;}.cls-2{fill:#fff;}</style></defs><title>train-q</title><g id="Layer_2" data-name="Layer 2"><g id="Layer_1-2" data-name="Layer 1"><circle class="cls-1" cx="8.24" cy="8.24" r="8.24"/><path class="cls-2" d="M12.08,9.86a3.22,3.22,0,0,1-.67,1.23l1,.93-.94,1-1-1a4.38,4.38,0,0,1-.82.41,4.39,4.39,0,0,1-1.39.19,4,4,0,0,1-2.79-1A4.57,4.57,0,0,1,4.09,8.05,4.53,4.53,0,0,1,5.46,4.47a4,4,0,0,1,2.78-1,4,4,0,0,1,2.81,1,4.39,4.39,0,0,1,1.31,3.39A5.75,5.75,0,0,1,12.08,9.86ZM8.81,11a3,3,0,0,0,.4-.15L8.34,10l.93-1,.88.83a4.11,4.11,0,0,0,.29-.74,4.24,4.24,0,0,0,.13-1.11A3.69,3.69,0,0,0,10,5.8,2,2,0,0,0,8.23,5a2.12,2.12,0,0,0-1.71.76,3.48,3.48,0,0,0-.64,2.28,3.15,3.15,0,0,0,.91,2.54,2.13,2.13,0,0,0,1.42.5A2.32,2.32,0,0,0,8.81,11Z"/></g></g></svg>